<svg width="373" height="500" viewBox="0 0 373 500" fill="none" xmlns="http://www.w3.org/2000/svg">
<g clip-path="url(#clip0_2787_1877)">
<path d="M209.16 286.12C209.74 284.8 209.16 271.64 209.16 271.64H225.6L225 278L228.33 286.08L218 289.87L209.16 286.12Z" fill="#FFBF9D"/>
<path d="M190.46 311.49C190.46 311.49 198.16 312 204.27 310.08C210.38 308.16 219.08 303.92 222.27 302.4C225.46 300.88 235.58 299.87 235.5 296.26C235.42 292.65 227.5 281.09 227.5 281.09C227.5 281.09 225.58 285.49 222.13 286.09C218.68 286.69 211.63 286.42 211.63 286.42C211.63 286.42 207.75 282.59 205.74 282.85C203.73 283.11 205.63 288.56 205.63 288.56C205.63 288.56 202.33 296.34 199.36 298.56C196.39 300.78 196.48 301.78 192.66 302.74C188.84 303.7 187.31 305.52 187.31 305.52C187.31 305.52 186.25 309.06 187.41 309.99C188.34 310.65 189.37 311.156 190.46 311.49Z" fill="#263238"/>
<path d="M187.35 309.93C188.251 310.696 189.314 311.247 190.46 311.54C190.46 311.54 198.16 312.05 204.27 310.13C210.38 308.21 219.09 303.98 222.27 302.46C225.45 300.94 235.58 299.92 235.51 296.32C235.493 295.314 235.218 294.329 234.71 293.46C234.71 293.46 225.34 298.37 220.51 299.36C215.68 300.35 206.2 306 200.75 307.2C196.839 307.949 192.871 308.357 188.89 308.42L186.89 307.85C186.85 308.69 186.7 309.3 187.35 309.93Z" fill="#455A64"/>
<path d="M200.36 297.34C200.677 297.912 201.034 298.46 201.43 298.98C201.901 299.427 202.402 299.842 202.93 300.22C202.254 300.069 201.643 299.71 201.182 299.193C200.721 298.677 200.433 298.028 200.36 297.34Z" fill="white"/>
<path d="M202.88 293.86C203.287 294.525 203.759 295.148 204.29 295.72C204.891 296.215 205.541 296.648 206.23 297.01C205.403 296.937 204.631 296.563 204.06 295.96C203.413 295.436 202.991 294.685 202.88 293.86Z" fill="white"/>
<path d="M204.51 290.71C205.055 291.066 205.58 291.453 206.08 291.87C206.648 292.186 207.195 292.537 207.72 292.92C207.053 292.832 206.423 292.562 205.9 292.14C205.316 291.797 204.836 291.303 204.51 290.71Z" fill="white"/>
<path d="M225 293.71C224.619 293.952 224.204 294.137 223.77 294.26C222.99 294.55 221.9 294.9 220.68 295.26C219.46 295.62 218.34 295.83 217.52 295.97C217.085 296.075 216.638 296.126 216.19 296.12C216.19 296.02 218.19 295.6 220.6 294.95C223.01 294.3 224.94 293.62 225 293.71Z" fill="white"/>
<path d="M368.09 275C368.5 275.49 373.09 288.38 372.92 289.49C372.75 290.6 372.11 297.64 371.4 299.27C370.69 300.9 366.33 305.81 365.49 305.17C364.65 304.53 363.76 303 364.64 301.95L359.85 302.66C359.85 302.66 359.48 300.38 361.02 299.5L358.82 298.97C358.82 298.97 359.36 296.65 360.82 296.44C362.28 296.23 361.7 296.63 361.7 296.63L362.87 294.82C362.87 294.82 362.42 289.6 361.62 288.4C360.82 287.2 358.77 286.24 358.46 283.29C358.15 280.34 359.46 277.07 359.06 276.36C358.57 275.075 358.156 273.763 357.82 272.43C357.82 272.43 364.89 268.76 365.24 268.68C365.59 268.6 368.09 275 368.09 275Z" fill="#FFBF9D"/>
<path d="M361.93 288.92C362.03 288.92 362.15 290.38 362.93 292.57C363.407 293.846 364.046 295.056 364.83 296.17C365.029 296.477 365.301 296.729 365.623 296.904C365.944 297.079 366.304 297.17 366.67 297.17C367.045 297.096 367.38 296.889 367.615 296.588C367.85 296.287 367.969 295.911 367.95 295.53C367.955 294.698 367.711 293.883 367.25 293.19C366.812 292.477 366.475 291.706 366.25 290.9C366.006 289.511 366.006 288.089 366.25 286.7C366.382 285.786 366.432 284.863 366.4 283.94C366.344 283.609 366.31 283.275 366.3 282.94C366.468 283.249 366.57 283.59 366.6 283.94C366.713 284.88 366.713 285.83 366.6 286.77C366.406 288.115 366.427 289.482 366.66 290.82C366.897 291.578 367.233 292.301 367.66 292.97C368.172 293.751 368.44 294.666 368.43 295.6C368.42 296.098 368.271 296.582 368 297C367.852 297.205 367.663 297.376 367.444 297.502C367.225 297.628 366.981 297.705 366.73 297.73C366.278 297.738 365.831 297.63 365.433 297.414C365.035 297.198 364.7 296.884 364.46 296.5C363.663 295.337 363.033 294.068 362.59 292.73C362.308 291.841 362.11 290.927 362 290C361.921 289.646 361.897 289.281 361.93 288.92Z" fill="#FF9A6C"/>
<path d="M368.12 298.13C368.23 298.23 367.53 299.13 366.67 300.22C365.81 301.31 365.09 302.22 364.97 302.11C365.217 301.278 365.659 300.516 366.26 299.89C367.14 298.78 368 298 368.12 298.13Z" fill="#FF9A6C"/>
<path d="M367.39 291C367.45 291 367.7 291.32 368.03 291.93C368.482 292.749 368.751 293.657 368.82 294.59C368.759 295.502 368.585 296.402 368.3 297.27C368.16 297.92 368.3 298.33 368.17 298.36C368.04 298.39 367.88 297.96 367.93 297.23C368.104 296.365 368.228 295.49 368.3 294.61C368.23 293.74 368.024 292.886 367.69 292.08C367.46 291.41 367.32 291 367.39 291Z" fill="#FF9A6C"/>
<path d="M361.34 299.68C362.051 299.21 362.84 298.871 363.67 298.68C364.21 298.45 364.56 297.85 364.96 297.57C365.36 297.29 365.73 297.27 365.73 297.34C365.73 297.41 365.49 297.51 365.21 297.84C365.07 298 364.92 298.22 364.72 298.46C364.509 298.76 364.223 298.998 363.89 299.15C363.091 299.517 362.219 299.698 361.34 299.68Z" fill="#FF9A6C"/>
<path d="M316.53 164L320.65 166.75C320.65 166.75 330.43 169.45 334.16 175.53C337.89 181.61 340.87 192.27 341.86 198.36C342.85 204.45 347.75 213.7 350.3 222.03C350.3 222.03 361.3 242.92 364.63 266.09L366.4 271.64L359.08 276.35C359.08 276.35 344.65 251.8 342.49 245.92C340.33 240.04 339.11 237.43 336.56 230.75C334.01 224.07 323.99 211.7 323.56 208.17L324.78 198C324.78 198 318.89 189.76 316.53 181.9C314.17 174.04 316.53 163.06 316.53 163.06" fill="#FFBF9D"/>
<path d="M272.94 159.29L265.88 162.23C265.88 162.23 248.8 162.95 244.09 178.23L239.16 188.71L242.71 209.51L248.6 211.27L257.24 194.19L259.3 194.39C259.3 194.39 267.25 183 270.39 176.13C273.53 169.26 272.94 159.29 272.94 159.29Z" fill="#FFBF9D"/>
<path d="M252.09 209.25C251.59 208.63 236.78 194.08 236.78 194.08C236.78 194.08 243.78 177.9 245.26 175.38C246.74 172.86 250.1 165.6 263.81 161.84L273.81 159.02L269.59 188.71L259.32 194.43L252.09 209.25Z" fill="#FF7D7D"/>
<path d="M272.94 159.29L283.94 157.35L306.79 158.67L314.34 161.84L326.12 196.2C326.12 196.2 318.46 226.43 318.46 227.02C318.46 227.61 309.54 267.58 309.54 267.58C309.54 267.58 317.72 269.52 306.66 274.84C285.97 268.13 267.78 259.58 259.27 243.91L255.7 230.91L259.3 222V194.4L272.94 159.29Z" fill="#FF7D7D"/>
<path d="M326.15 217.47L345.47 205.84C345.47 205.84 338.47 176.22 329.71 170.33C324.875 167.024 319.739 164.181 314.37 161.84L321.17 208.17L326.15 217.47Z" fill="#FF7D7D"/>
<path d="M325.52 188.57C325.66 188.57 324.97 194.51 323.98 201.79C322.99 209.07 322.08 215 321.93 215C321.78 215 322.48 209.06 323.47 201.77C324.46 194.48 325.37 188.55 325.52 188.57Z" fill="#263238"/>
<path d="M258.86 182.92C259.01 182.92 259.29 191.55 259.5 202.2C259.71 212.85 259.77 221.48 259.62 221.48C259.47 221.48 259.19 212.86 258.98 202.21C258.77 191.56 258.72 182.93 258.86 182.92Z" fill="#263238"/>
<path d="M280.75 138.15C279.452 134.101 278.502 129.95 277.91 125.74C277.328 121.506 277.805 117.194 279.3 113.19C279.54 112.59 281.57 108.6 282.21 108.68C282.67 108.74 281.38 112.48 281.6 112.89C283.575 116.854 284.3 121.325 283.68 125.71C283.164 129.952 282.182 134.124 280.75 138.15Z" fill="#FF7D7D"/>
<path d="M280.27 160.14L280.82 121.93C280.82 111.26 286.97 102.36 297.63 102.63L298.63 102.71C303.404 103.109 307.852 105.291 311.091 108.821C314.33 112.35 316.122 116.97 316.11 121.76C316.11 131 315.93 141.21 315.46 146.13C314.46 156.31 304.15 157.04 304.15 157.04C304.15 157.04 304.09 157.95 303.97 160.95L297.49 170.95L280.27 160.14Z" fill="#FFBF9D"/>
<path d="M304.13 157C299.428 156.603 294.938 154.868 291.19 152C291.19 152 293.74 159.93 303.99 159.86L304.13 157Z" fill="#FF9A6C"/>
<path d="M312.37 130.7C312.342 131.081 312.166 131.436 311.881 131.69C311.595 131.944 311.222 132.077 310.84 132.06C310.654 132.057 310.47 132.018 310.3 131.944C310.129 131.87 309.974 131.763 309.845 131.629C309.716 131.495 309.615 131.337 309.547 131.164C309.479 130.991 309.446 130.806 309.45 130.62C309.478 130.24 309.654 129.886 309.94 129.633C310.226 129.381 310.599 129.251 310.98 129.27C311.166 129.27 311.35 129.307 311.521 129.379C311.693 129.452 311.848 129.558 311.977 129.691C312.107 129.824 312.208 129.982 312.276 130.156C312.343 130.329 312.375 130.514 312.37 130.7Z" fill="#263238"/>
<path d="M313.55 126.08C313.35 126.25 312.31 125.34 310.75 125.22C309.19 125.1 307.97 125.78 307.81 125.57C307.65 125.36 307.95 125.15 308.48 124.83C309.198 124.418 310.025 124.237 310.85 124.31C311.664 124.38 312.436 124.702 313.06 125.23C313.51 125.64 313.64 126 313.55 126.08Z" fill="#263238"/>
<path d="M298.27 129.88C298.239 130.259 298.063 130.612 297.777 130.864C297.492 131.115 297.12 131.247 296.74 131.23C296.553 131.229 296.369 131.19 296.198 131.117C296.027 131.043 295.872 130.936 295.742 130.802C295.613 130.668 295.511 130.509 295.444 130.336C295.377 130.162 295.345 129.976 295.35 129.79C295.376 129.41 295.549 129.056 295.834 128.804C296.118 128.551 296.49 128.421 296.87 128.44C297.057 128.441 297.242 128.48 297.413 128.553C297.585 128.626 297.741 128.733 297.871 128.867C298.001 129.001 298.104 129.159 298.172 129.333C298.241 129.507 298.274 129.693 298.27 129.88Z" fill="#263238"/>
<path d="M298.16 125.16C297.96 125.33 296.93 124.42 295.36 124.3C293.79 124.18 292.58 124.86 292.43 124.65C292.28 124.44 292.56 124.23 293.09 123.91C293.809 123.501 294.635 123.319 295.46 123.39C296.275 123.458 297.048 123.78 297.67 124.31C298.12 124.72 298.25 125.08 298.16 125.16Z" fill="#263238"/>
<path d="M302.77 137.67C303.616 137.478 304.483 137.394 305.35 137.42C305.76 137.42 306.14 137.36 306.23 137.1C306.3 136.69 306.244 136.268 306.07 135.89C305.77 134.89 305.46 133.84 305.14 132.74C303.86 128.27 302.97 124.6 303.14 124.55C303.31 124.5 304.5 128.09 305.78 132.55L306.66 135.71C306.868 136.215 306.897 136.776 306.74 137.3C306.67 137.437 306.57 137.556 306.447 137.648C306.324 137.74 306.181 137.802 306.03 137.83C305.801 137.858 305.569 137.858 305.34 137.83C304.48 137.882 303.617 137.828 302.77 137.67Z" fill="#263238"/>
<path d="M299.07 120.3C298.83 120.68 297.34 120.13 295.5 119.94C293.66 119.75 292.08 119.94 291.93 119.47C291.86 119.27 292.21 118.94 292.88 118.67C293.775 118.346 294.734 118.236 295.68 118.35C296.63 118.467 297.539 118.81 298.33 119.35C298.93 119.71 299.19 120.12 299.07 120.3Z" fill="#FF7D7D"/>
<path d="M314 121.48C313.65 121.81 312.4 121.35 310.87 121.23C309.34 121.11 308.01 121.23 307.74 120.88C307.62 120.69 307.85 120.35 308.44 120.05C309.254 119.697 310.144 119.556 311.027 119.64C311.91 119.723 312.757 120.03 313.49 120.53C314 120.93 314.16 121.31 314 121.48Z" fill="#FF7D7D"/>
<path d="M281 129.54C280.83 129.45 274.17 126.89 273.81 133.88C273.45 140.87 280.54 139.78 280.56 139.58C280.58 139.38 281 129.54 281 129.54Z" fill="#FFBF9D"/>
<path d="M278.58 136.83C278.58 136.83 278.46 136.91 278.25 136.99C277.958 137.109 277.631 137.109 277.34 136.99C276.902 136.682 276.554 136.263 276.333 135.776C276.111 135.289 276.024 134.752 276.08 134.22C276.096 133.619 276.242 133.028 276.51 132.49C276.591 132.271 276.724 132.075 276.898 131.92C277.073 131.764 277.283 131.655 277.51 131.6C277.651 131.572 277.798 131.594 277.925 131.661C278.053 131.728 278.153 131.837 278.21 131.97C278.29 132.17 278.21 132.31 278.28 132.33C278.35 132.35 278.43 132.22 278.39 131.93C278.359 131.753 278.271 131.592 278.14 131.47C277.949 131.321 277.711 131.247 277.47 131.26C277.183 131.299 276.91 131.412 276.679 131.587C276.448 131.762 276.266 131.994 276.15 132.26C275.819 132.847 275.637 133.506 275.62 134.18C275.62 135.59 276.25 136.95 277.24 137.29C277.425 137.356 277.623 137.379 277.819 137.359C278.014 137.338 278.203 137.273 278.37 137.17C278.56 137 278.61 136.84 278.58 136.83Z" fill="#FF9A6C"/>
<path d="M312.06 110C313.22 109.43 309.98 105.62 307.25 104.24C303.13 102.15 296.77 100.7 292.84 101.64C288.12 102.76 284.15 104.92 281.62 109.06C279.178 113.298 277.908 118.109 277.94 123C277.816 124.482 278.093 125.971 278.74 127.31C279.65 128.9 281.48 129.95 281.31 132.08C281.232 132.859 281.461 133.638 281.95 134.25C283.17 135.66 284.79 134.45 285.56 133.25C287.21 130.58 287.56 127.32 287.79 124.19C288.102 121.973 288.048 119.719 287.63 117.52C287.34 116.34 286.84 115.21 286.63 114.02C286.481 113.429 286.462 112.813 286.575 112.214C286.687 111.615 286.927 111.047 287.28 110.55C287.458 110.348 287.656 110.164 287.87 110C288.881 109.191 290.089 108.666 291.37 108.478C292.651 108.29 293.959 108.446 295.16 108.93C299.04 110.49 305.67 112.86 307.49 111.6C308.773 110.837 309.883 109.815 310.75 108.6L312.06 110Z" fill="#E0E0E0"/>
<path d="M297.8 138.43C298.04 138.43 297.99 140.03 299.32 141.22C300.65 142.41 302.32 142.3 302.37 142.53C302.42 142.76 301.98 142.82 301.25 142.82C300.309 142.797 299.406 142.443 298.7 141.82C298.022 141.22 297.603 140.382 297.53 139.48C297.5 138.81 297.69 138.42 297.8 138.43Z" fill="#263238"/>
<path d="M305.09 284.79C305.09 284.79 301.09 311.26 299.09 323.02C297.09 334.78 295 350.02 293.97 362.25C292.91 374.68 293.66 379.04 293.29 394.37C292.92 409.7 285.87 433.22 285.87 433.22H269.19C269.19 432.15 267.13 399.39 267.13 389.38C267.13 379.37 267.62 377.72 265.7 370.59C263.78 363.46 263.22 354.21 263.61 339.24C264 324.27 259.3 294.09 259.3 294.09L260.83 245.27C260.83 245.27 290.07 263.44 298.53 268.43C306.99 273.42 307.1 272.31 307.1 272.31L305.09 284.79Z" fill="#263238"/>
<path d="M284.57 429.12C286.8 432.543 288.061 436.507 288.22 440.59C288.28 442.45 288.22 444.45 287.22 445.95C286.38 447.14 284.98 447.89 284.4 449.24C283.75 450.76 284.34 452.52 284.12 454.16C283.83 456.31 281.12 458.43 279.12 459.3C277.12 460.17 275.47 460.07 273.38 460.22C270.38 460.45 267.68 460.46 265.23 458.6C264.307 457.846 263.564 456.895 263.055 455.818C262.546 454.74 262.285 453.562 262.29 452.37C262.307 449.965 263.053 447.622 264.43 445.65C265.56 443.97 267.03 442.51 267.85 440.65C268.924 437.64 269.698 434.532 270.16 431.37C270.16 431.37 271.08 430.07 275.26 429.95C279.44 429.83 281.26 434.39 282.69 433.19C284.12 431.99 284.57 429.12 284.57 429.12Z" fill="#263238"/>
<path d="M262.39 455.13C264.154 456.494 266.206 457.438 268.39 457.89C270.579 458.306 272.825 458.323 275.02 457.94C276.575 457.695 278.045 457.07 279.3 456.12C280.89 454.64 281.49 453.92 281.9 452.62C282.31 451.32 281.97 449.69 282.45 448.33C282.97 446.81 284.39 445.86 285.45 444.66C286.83 443.05 288.12 440.56 287.99 438.42C288.682 439.441 289.088 440.629 289.166 441.86C289.243 443.091 288.989 444.32 288.43 445.42C287.43 447.09 285.65 448.14 284.83 449.89C284.11 451.42 284.83 453.01 284.4 454.64C283.74 456.92 281.27 458.91 279.15 459.82C276.989 460.639 274.67 460.954 272.37 460.74C270.454 460.692 268.565 460.27 266.81 459.5C265.005 458.711 263.572 457.257 262.81 455.44" fill="#455A64"/>
<path d="M274.94 446.44C274.87 446.57 273.43 445.85 271.49 445.58C269.55 445.31 267.98 445.58 267.95 445.42C269.09 444.928 270.356 444.805 271.57 445.07C272.811 445.154 273.992 445.634 274.94 446.44Z" fill="white"/>
<path d="M275.75 443.6C275.68 443.74 274.23 443.01 272.3 442.74C270.37 442.47 268.78 442.74 268.75 442.59C269.89 442.085 271.163 441.959 272.38 442.23C273.619 442.322 274.798 442.802 275.75 443.6Z" fill="white"/>
<path d="M277.46 440.86C277.38 441 275.94 440.28 274.01 440.01C272.08 439.74 270.49 440.01 270.46 439.85C271.6 439.358 272.866 439.235 274.08 439.5C275.32 439.592 276.501 440.067 277.46 440.86Z" fill="white"/>
<path d="M273.42 437.56C273.495 437.236 273.613 436.923 273.77 436.63C274.134 435.801 274.58 435.011 275.1 434.27C275.453 433.718 275.933 433.259 276.5 432.93C276.69 432.831 276.905 432.788 277.119 432.805C277.333 432.823 277.538 432.901 277.71 433.03C277.877 433.173 278.008 433.353 278.092 433.557C278.175 433.76 278.209 433.981 278.19 434.2C278.053 435.037 277.662 435.812 277.07 436.42C276.473 437.072 275.748 437.593 274.94 437.95C274.525 438.15 274.07 438.254 273.61 438.254C273.149 438.254 272.695 438.15 272.28 437.95C271.549 437.557 270.933 436.981 270.49 436.28C270.27 435.97 270.07 435.65 269.89 435.34C269.777 435.171 269.693 434.985 269.64 434.79C269.611 434.654 269.633 434.512 269.7 434.39C269.739 434.327 269.792 434.274 269.854 434.234C269.916 434.195 269.987 434.169 270.06 434.16C270.259 434.134 270.461 434.169 270.64 434.26L271.1 434.46C271.373 434.601 271.634 434.765 271.88 434.95C272.625 435.501 273.206 436.244 273.56 437.1C273.711 437.412 273.793 437.753 273.8 438.1C273.641 437.816 273.5 437.522 273.38 437.22C272.977 436.441 272.39 435.771 271.67 435.27C271.429 435.114 271.179 434.974 270.92 434.85C270.676 434.716 270.407 434.634 270.13 434.61C270.07 434.61 270.06 434.61 270.08 434.74C270.122 434.881 270.19 435.013 270.28 435.13C270.47 435.43 270.66 435.74 270.88 436.03C271.285 436.659 271.847 437.172 272.51 437.52C272.857 437.69 273.238 437.779 273.625 437.779C274.011 437.779 274.393 437.69 274.74 437.52C275.461 437.239 276.108 436.796 276.628 436.223C277.149 435.65 277.529 434.965 277.74 434.22C277.752 434.075 277.732 433.929 277.682 433.793C277.632 433.656 277.553 433.533 277.45 433.43C277.345 433.351 277.219 433.304 277.088 433.294C276.958 433.283 276.826 433.309 276.71 433.37C276.199 433.66 275.759 434.06 275.42 434.54C274.887 435.251 274.406 436 273.98 436.78C273.825 437.061 273.637 437.323 273.42 437.56Z" fill="white"/>
<path d="M284.48 437.83C284.62 437.83 284.63 438.77 284.14 439.83C283.65 440.89 282.92 441.43 282.83 441.32C282.74 441.21 283.23 440.54 283.67 439.6C284.11 438.66 284.34 437.81 284.48 437.83Z" fill="white"/>
<path d="M227.84 186.47C227.84 186.47 210.96 184.47 210.34 206.47C209.81 225.38 207.72 276.33 207.72 276.33L227.46 274.82C227.46 274.82 234.57 244.18 234.94 231.7C235.085 223.756 234.074 215.833 231.94 208.18L227.84 186.47Z" fill="#263238"/>
<path d="M260.83 245.27C260.83 245.27 251.41 206.88 242.61 192.96C238.47 186.41 227.84 186.47 227.84 186.47C227.84 186.47 225.98 263.8 230.46 271.64C234.94 279.48 243.91 288.38 255.12 291.23L259.23 294.09L260.83 245.27Z" fill="#263238"/>
<path d="M256.83 262C256.977 262.372 257.087 262.757 257.16 263.15C257.35 263.9 257.59 264.99 257.86 266.33C258.4 269.03 259.06 272.77 259.6 276.93C260.14 281.09 260.47 284.88 260.6 287.62C260.68 289 260.73 290.11 260.74 290.88C260.778 291.276 260.778 291.674 260.74 292.07C260.633 291.686 260.576 291.289 260.57 290.89C260.48 290.02 260.38 288.89 260.26 287.65C260.01 284.92 259.62 281.15 259.08 277C258.54 272.85 257.95 269.11 257.5 266.4C257.28 265.13 257.11 264.06 256.96 263.19C256.866 262.8 256.823 262.401 256.83 262Z" fill="#455A64"/>
<path d="M234.86 199.58C234.945 199.8 235.008 200.028 235.05 200.26C235.16 200.76 235.3 201.41 235.48 202.26C235.66 203.11 235.88 204.16 236.06 205.39C236.24 206.62 236.52 208 236.69 209.56C236.86 211.12 237.09 212.81 237.22 214.64C237.35 216.47 237.47 218.43 237.56 220.5C237.671 224.98 237.541 229.463 237.17 233.93C236.747 238.393 236.079 242.83 235.17 247.22C234.72 249.22 234.31 251.16 233.81 252.93C233.31 254.7 232.86 256.35 232.39 257.84C231.92 259.33 231.45 260.66 231.04 261.84C230.63 263.02 230.25 264.01 229.91 264.84C229.57 265.67 229.34 266.22 229.14 266.69C229.065 266.914 228.965 267.129 228.84 267.33C228.886 267.101 228.953 266.877 229.04 266.66C229.22 266.17 229.44 265.55 229.72 264.76C230 263.97 230.39 262.95 230.72 261.76C231.05 260.57 231.58 259.25 232 257.76C232.42 256.27 232.92 254.63 233.35 252.85C233.78 251.07 234.22 249.17 234.66 247.16C235.532 242.779 236.18 238.357 236.6 233.91C236.968 229.463 237.112 225.001 237.03 220.54C236.95 218.48 236.9 216.54 236.74 214.7C236.58 212.86 236.45 211.18 236.27 209.63C236.09 208.08 235.89 206.69 235.73 205.47C235.57 204.25 235.39 203.19 235.23 202.33C235.07 201.47 234.98 200.85 234.89 200.33C234.859 200.081 234.849 199.83 234.86 199.58Z" fill="#455A64"/>
<path d="M219.15 216C218.697 215.528 218.128 215.184 217.5 215C217.883 215.014 218.256 214.879 218.541 214.623C218.826 214.368 219.002 214.012 219.03 213.63C219.037 213.249 218.949 212.872 218.775 212.534C218.6 212.195 218.344 211.905 218.03 211.69C217.387 211.272 216.66 211.003 215.9 210.9C214.928 210.737 213.966 210.516 213.02 210.24L207.59 209.59C206.59 209.88 206.26 212.75 207.48 213.4C206.77 213.58 206.38 213.47 205.87 214C205.612 214.258 205.418 214.574 205.305 214.922C205.192 215.27 205.163 215.639 205.22 216C205.289 216.359 205.474 216.686 205.747 216.93C206.02 217.174 206.365 217.321 206.73 217.35C206.328 217.56 205.985 217.868 205.733 218.245C205.48 218.622 205.327 219.056 205.286 219.508C205.245 219.96 205.318 220.415 205.499 220.831C205.68 221.247 205.962 221.611 206.32 221.89C206.583 222.105 206.885 222.268 207.21 222.37C207.327 222.422 207.452 222.455 207.58 222.47H207.75C208 222.36 208.23 222.2 208.49 222.11L208.79 222.01C209.249 221.882 209.723 221.818 210.2 221.82C210.423 221.835 210.647 221.835 210.87 221.82C211.01 221.777 211.147 221.723 211.28 221.66C212.195 221.445 213.146 221.424 214.07 221.6C215.078 221.792 216.12 221.688 217.07 221.3C217.532 221.082 217.893 220.695 218.079 220.219C218.265 219.743 218.262 219.214 218.07 218.74C218.388 218.802 218.718 218.746 218.998 218.583C219.278 218.419 219.489 218.158 219.59 217.85C219.682 217.53 219.691 217.191 219.614 216.867C219.536 216.543 219.377 216.244 219.15 216Z" fill="#FFBF9D"/>
<path d="M206.58 225C206.524 225.311 206.536 225.63 206.615 225.936C206.695 226.241 206.84 226.526 207.04 226.77C207.72 227.275 208.554 227.526 209.4 227.48C209.63 226.62 209.69 226.17 209.91 225.31C209.91 225.13 209.91 224.97 210.04 224.82C210.36 224.44 211.31 224.57 211.79 224.44C212.185 224.289 212.509 223.993 212.694 223.612C212.88 223.232 212.914 222.795 212.79 222.39C212.647 221.984 212.392 221.627 212.053 221.362C211.715 221.096 211.308 220.932 210.88 220.89C210.017 220.828 209.162 221.088 208.48 221.62C207.949 222.024 207.507 222.532 207.181 223.114C206.854 223.695 206.649 224.337 206.58 225Z" fill="#FFBF9D"/>
<path d="M206.51 217.5C208.459 217.441 210.409 217.578 212.33 217.91C215.53 218.29 218.1 218.73 218.08 218.91C216.131 218.969 214.181 218.832 212.26 218.5C209.06 218.11 206.49 217.67 206.51 217.5Z" fill="#FF9A6C"/>
<path d="M207.37 213.37C209.135 213.162 210.922 213.247 212.66 213.62C214.426 213.797 216.152 214.26 217.77 214.99C217.77 215.16 215.43 214.65 212.57 214.2C210.821 214.028 209.085 213.751 207.37 213.37Z" fill="#FF9A6C"/>
<path d="M207.63 209.46C207.63 209.29 209.63 209.36 211.99 209.83C213.441 210.026 214.862 210.403 216.22 210.95C216.22 211.12 214.22 210.88 211.88 210.41C210.438 210.218 209.016 209.9 207.63 209.46Z" fill="#FF9A6C"/>
<path d="M207.16 223.78C207.09 223.78 207.02 223.35 207.34 222.78C207.787 222.046 208.506 221.518 209.34 221.31C210.127 221.077 210.953 220.999 211.77 221.08C212.48 221.2 212.66 221.74 212.56 221.74C212.46 221.74 212.27 221.48 211.73 221.49C210.979 221.552 210.236 221.682 209.51 221.88C208.808 222.063 208.18 222.458 207.71 223.01C207.34 223.43 207.25 223.79 207.16 223.78Z" fill="#FF9A6C"/>
<path d="M65.9299 357.75C65.9299 357.75 73.8699 371.22 75.9999 376.27C77.3499 379.49 83.2499 394.27 85.0899 399.53C86.9299 404.79 99.3999 436.46 99.3999 436.46L114.95 434.86C114.95 434.86 105.73 392.48 103.65 383.25C101.57 374.02 94.5599 357.75 94.5599 357.75H65.9299Z" fill="#FFBF9D"/>
<path d="M2.67998 351.49C2.48998 352.28 -0.87001 368.87 -0.0800104 380.72C0.70999 392.57 6.43999 434.24 6.43999 434.24H18.68C18.68 434.24 21.68 401.46 23.02 392.87C24.36 384.28 23.22 369.07 23.02 366.7C23.0589 363.53 23.2827 360.364 23.69 357.22L2.67998 351.49Z" fill="#FFBF9D"/>
<path d="M20.13 251.41C20.13 251.41 4.93997 275.41 1.58997 313.09C-1.76003 350.77 -2.41003 355.65 -2.41003 355.65L33 359.1L42.32 313.87L49 359L97.18 357.38C97.18 357.38 86.37 312.21 84.55 301.57C82.73 290.93 77.55 277.51 77.55 277.51L76.94 271.19L46.11 269L20.13 251.41Z" fill="#263238"/>
<path d="M135.06 446.94C131.347 448.329 127.44 449.129 123.48 449.31C118.03 449.31 109.88 448.08 106.88 447.66C103.88 447.24 95.4199 448.99 94.5599 446.05C93.6999 443.11 97.2199 431.68 97.2199 431.68C97.2199 431.68 99.8999 434.76 102.87 434.4C105.802 433.826 108.685 433.02 111.49 431.99C111.49 431.99 113.67 427.89 115.36 427.59C117.05 427.29 116.9 432.2 116.9 432.2C116.9 432.2 121.57 437.68 124.54 438.7C127.51 439.72 127.69 440.59 131.04 440.39C132.758 440.204 134.494 440.516 136.04 441.29C136.04 441.29 137.81 443.9 137.11 444.95C136.537 445.718 135.845 446.39 135.06 446.94Z" fill="#263238"/>
<path d="M137.19 444.89C136.649 445.739 135.924 446.457 135.07 446.99C131.357 448.379 127.45 449.179 123.49 449.36C118.04 449.36 109.89 448.13 106.89 447.71C103.89 447.29 95.4301 449.04 94.5801 446.09C94.3328 445.268 94.3052 444.396 94.5001 443.56C94.5001 443.56 103.36 445.17 107.5 444.75C111.64 444.33 120.84 446.51 125.57 446.08C128.938 445.7 132.267 445.031 135.52 444.08L137 443.08C137.28 443.75 137.56 444.21 137.19 444.89Z" fill="#455A64"/>
<path d="M123.41 438C123.302 438.544 123.152 439.079 122.96 439.6C122.697 440.087 122.396 440.551 122.06 440.99C122.573 440.696 122.98 440.248 123.222 439.709C123.465 439.17 123.53 438.569 123.41 437.99V438Z" fill="white"/>
<path d="M120.48 435.78C120.326 436.426 120.101 437.053 119.81 437.65C119.449 438.206 119.03 438.722 118.56 439.19C119.189 438.884 119.709 438.394 120.052 437.785C120.395 437.175 120.544 436.476 120.48 435.78Z" fill="white"/>
<path d="M118.35 433.64C117.99 434.066 117.656 434.514 117.35 434.98C116.8 435.69 116.24 436.18 116.28 436.25C116.778 435.973 117.216 435.6 117.568 435.152C117.92 434.704 118.179 434.19 118.33 433.64H118.35Z" fill="white"/>
<path d="M102.5 441.29C102.874 441.378 103.256 441.421 103.64 441.42C104.34 441.42 105.32 441.47 106.39 441.42C107.31 441.39 108.228 441.313 109.14 441.19C109.522 441.172 109.899 441.098 110.26 440.97C110.26 440.89 108.52 441.06 106.38 441.14C104.24 441.22 102.5 441.21 102.5 441.29Z" fill="white"/>
<path d="M19 429.72C21.2348 433.141 22.4966 437.106 22.65 441.19C22.72 443.05 22.65 445.05 21.65 446.55C20.81 447.74 19.41 448.49 18.84 449.84C18.19 451.36 18.78 453.12 18.55 454.76C18.26 456.91 15.55 459.03 13.6 459.9C11.65 460.77 9.94002 460.67 7.85002 460.82C4.85002 461.04 2.15001 461.06 -0.299986 459.2C-1.21994 458.443 -1.96076 457.492 -2.46911 456.415C-2.97747 455.338 -3.24074 454.161 -3.23999 452.97C-3.21912 450.564 -2.46949 448.221 -1.08998 446.25C0.0400206 444.57 1.51002 443.1 2.32002 441.25C3.39441 438.244 4.16819 435.139 4.63002 431.98C4.63002 431.98 5.55002 430.68 9.74002 430.56C13.93 430.44 15.74 435 17.16 433.8C18.58 432.6 19 429.72 19 429.72Z" fill="#263238"/>
<path d="M-3.17993 455.73C-1.41122 457.087 0.639004 458.03 2.82007 458.49C5.00898 458.906 7.25512 458.923 9.45006 458.54C11.0053 458.297 12.4758 457.671 13.7301 456.72C15.3301 455.24 15.9201 454.52 16.3301 453.22C16.7401 451.92 16.4101 450.29 16.8801 448.93C17.4101 447.41 18.8301 446.46 19.8801 445.26C21.2601 443.65 22.5401 441.16 22.4101 439.02C23.1044 440.04 23.5116 441.228 23.5891 442.46C23.6665 443.691 23.4112 444.921 22.8501 446.02C21.8501 447.7 20.0701 448.75 19.2501 450.5C18.5401 452.03 19.2501 453.61 18.8201 455.25C18.1601 457.53 15.7001 459.52 13.5701 460.42C11.4119 461.248 9.09152 461.567 6.79005 461.35C4.87701 461.302 2.9918 460.88 1.24007 460.11C-0.562309 459.316 -1.99325 457.864 -2.75993 456.05" fill="#455A64"/>
<path d="M9.38 447C9.3 447.14 7.85999 446.42 5.92999 446.15C3.99999 445.88 2.41 446.15 2.38 445.99C3.54048 445.577 4.78397 445.452 6.00339 445.626C7.22281 445.801 8.38161 446.269 9.38 446.99V447Z" fill="white"/>
<path d="M10.1801 444.2C10.1101 444.34 8.67006 443.61 6.73006 443.34C4.79006 443.07 3.21005 443.34 3.18005 443.19C4.34039 442.776 5.58406 442.651 6.80363 442.825C8.02321 442.999 9.18203 443.468 10.1801 444.19V444.2Z" fill="white"/>
<path d="M11.89 441.46C11.82 441.6 10.37 440.88 8.44002 440.61C6.51002 440.34 4.92001 440.61 4.89001 440.45C6.05049 440.037 7.29398 439.912 8.5134 440.086C9.73282 440.261 10.8916 440.729 11.89 441.45V441.46Z" fill="white"/>
<path d="M7.84998 438.16C7.92322 437.835 8.04099 437.522 8.19997 437.23C8.56811 436.403 9.01341 435.613 9.52997 434.87C9.88445 434.316 10.3683 433.856 10.94 433.53C11.1288 433.431 11.342 433.387 11.5546 433.405C11.7671 433.423 11.9702 433.501 12.14 433.63C12.3074 433.773 12.4384 433.953 12.5219 434.157C12.6054 434.36 12.639 434.581 12.62 434.8C12.4828 435.631 12.0915 436.4 11.5 437C10.9062 437.655 10.1802 438.176 9.36997 438.53C8.95517 438.73 8.50054 438.834 8.03997 438.834C7.57939 438.834 7.12477 438.73 6.70998 438.53C5.98163 438.134 5.36573 437.559 4.91997 436.86C4.69997 436.54 4.50998 436.23 4.31998 435.92C4.20754 435.751 4.12312 435.566 4.06998 435.37C4.04038 435.233 4.06548 435.089 4.13997 434.97C4.17595 434.907 4.22643 434.853 4.28728 434.813C4.34813 434.773 4.4176 434.748 4.48998 434.74C4.69224 434.712 4.89813 434.747 5.07997 434.84C5.23338 434.899 5.38359 434.965 5.52997 435.04C5.80639 435.172 6.06789 435.333 6.30997 435.52C7.05508 436.077 7.63839 436.823 7.99997 437.68C8.15935 437.989 8.23844 438.333 8.22997 438.68C8.22997 438.68 8.09997 438.35 7.80997 437.79C7.40322 437.016 6.81685 436.351 6.09998 435.85C5.86504 435.69 5.61756 435.55 5.35997 435.43C5.11564 435.297 4.84687 435.216 4.56998 435.19C4.49998 435.19 4.49997 435.19 4.50997 435.32C4.55634 435.459 4.6238 435.591 4.70998 435.71C4.89998 436.01 5.09997 436.32 5.30997 436.61C5.72078 437.235 6.28107 437.747 6.93998 438.1C7.28761 438.268 7.66878 438.356 8.05497 438.356C8.44115 438.356 8.82234 438.268 9.16997 438.1C9.89019 437.821 10.5359 437.378 11.0564 436.807C11.5769 436.237 11.9581 435.553 12.17 434.81C12.1888 434.665 12.1723 434.517 12.1218 434.379C12.0713 434.242 11.9883 434.119 11.88 434.02C11.7757 433.939 11.6503 433.891 11.5189 433.88C11.3875 433.869 11.2559 433.897 11.14 433.96C10.6307 434.249 10.1932 434.649 9.85997 435.13C9.32121 435.839 8.83652 436.588 8.40998 437.37C8.06998 437.88 7.88998 438.18 7.84998 438.16Z" fill="white"/>
<path d="M18.9201 438.43C19.0601 438.43 19.0601 439.37 18.5701 440.43C18.0801 441.49 17.3501 442.02 17.2601 441.92C17.1701 441.82 17.6601 441.13 18.1001 440.2C18.5401 439.27 18.7701 438.41 18.9201 438.43Z" fill="white"/>
<path d="M145.64 140.82C141.25 140.82 115.74 154.59 108.64 160.96C103.81 165.31 85.75 181.1 85.75 181.1L97.75 190.84L110.65 191.97L111.4 187.7L123.18 177.47C123.18 177.47 139.87 168.21 145.5 160.74L183.74 169.74L189.85 160.46C189.85 160.46 158.54 140.82 145.64 140.82Z" fill="#FFBF9D"/>
<path d="M184.24 171.16C184.24 171.16 185 178.27 185.65 181.07C186.3 183.87 188.56 186.14 188.56 187.97C188.545 188.996 188.728 190.014 189.1 190.97C189.1 190.97 191.36 191.19 191.57 188.49C191.78 185.79 191.57 181.06 191.57 181.06C191.57 181.06 195.24 186.55 197.83 187.74C200.42 188.93 206.34 189.14 206.45 188.06C206.56 186.98 207.31 186.9 205.37 186.06C204.066 185.524 202.73 185.07 201.37 184.7L197.82 181.7C199.443 182.502 201.137 183.152 202.88 183.64C204.61 183.96 209.67 184.83 210 184.07C210.236 183.549 210.279 182.962 210.121 182.412C209.964 181.863 209.616 181.387 209.14 181.07C209.14 181.07 210.97 180.63 210.97 179.45C210.97 178.27 210.21 177.18 209.57 177.29C207.932 177.139 206.31 176.852 204.72 176.43C204.39 176.32 200.84 173.52 200.84 173.52L201.05 172.87C201.05 172.87 203.42 175.46 204.72 175.35C206.02 175.24 208.27 175.24 208.27 174.6C208.27 173.96 208.49 172.33 206.87 172.33C206.409 172.337 205.954 172.234 205.542 172.029C205.129 171.823 204.772 171.522 204.5 171.15L201.27 169.42C199.727 167.206 198.057 165.083 196.27 163.06C194.54 161.34 189.27 160.15 189.27 160.15L183.62 169.32L184.24 171.16Z" fill="#FFBF9D"/>
<path d="M193.79 168.21C194.217 168.744 194.521 169.365 194.68 170.03C195.185 171.617 195.302 173.301 195.02 174.943C194.738 176.584 194.066 178.133 193.06 179.46C192.682 180.03 192.188 180.514 191.61 180.88C191.55 180.82 192.09 180.27 192.76 179.24C193.634 177.91 194.23 176.417 194.51 174.85C194.766 173.28 194.704 171.676 194.33 170.13C194 168.94 193.71 168.24 193.79 168.21Z" fill="#FF9A6C"/>
<path d="M119.11 219L158.69 203.93C168.69 200.5 174.97 191.84 171.26 181.93L170.87 181.04C168.95 176.713 165.472 173.266 161.127 171.385C156.782 169.505 151.889 169.328 147.42 170.89C138.8 173.89 129.31 177.36 124.87 179.39C115.67 183.61 118.33 193.49 118.33 193.49C118.33 193.49 112.64 195.81 109.88 196.89L107.49 204.22L119.11 219Z" fill="#FFBF9D"/>
<path d="M118.33 193.53C120.238 197.794 123.326 201.424 127.23 203.99C127.23 203.99 119 204.18 115.74 194.58L118.33 193.53Z" fill="#FF9A6C"/>
<path d="M141.28 178.37C140.934 178.518 140.66 178.796 140.516 179.143C140.372 179.491 140.37 179.881 140.51 180.23C140.572 180.404 140.669 180.563 140.793 180.699C140.918 180.835 141.069 180.945 141.236 181.022C141.404 181.1 141.585 181.143 141.769 181.149C141.954 181.156 142.137 181.125 142.31 181.06C142.656 180.912 142.93 180.635 143.074 180.287C143.218 179.939 143.22 179.549 143.08 179.2C143.019 179.026 142.923 178.865 142.799 178.728C142.674 178.592 142.524 178.481 142.356 178.404C142.188 178.326 142.006 178.284 141.821 178.278C141.637 178.272 141.452 178.303 141.28 178.37Z" fill="#263238"/>
<path d="M144.21 174.71C144.11 174.95 145.29 175.62 145.92 177.04C146.55 178.46 146.29 179.82 146.54 179.9C146.79 179.98 146.88 179.63 147.01 179.03C147.166 178.227 147.068 177.395 146.73 176.65C146.405 175.91 145.851 175.293 145.15 174.89C144.63 174.6 144.25 174.59 144.21 174.71Z" fill="#263238"/>
<path d="M146.4 191.33C146.054 191.478 145.78 191.756 145.636 192.103C145.492 192.451 145.49 192.841 145.63 193.19C145.692 193.365 145.787 193.525 145.911 193.662C146.036 193.799 146.186 193.91 146.354 193.989C146.521 194.067 146.703 194.111 146.888 194.118C147.073 194.125 147.257 194.095 147.43 194.03C147.775 193.878 148.048 193.599 148.191 193.25C148.335 192.902 148.338 192.511 148.2 192.16C148.138 191.987 148.041 191.827 147.917 191.691C147.792 191.555 147.642 191.445 147.474 191.368C147.307 191.291 147.125 191.248 146.941 191.241C146.757 191.235 146.573 191.265 146.4 191.33Z" fill="#263238"/>
<path d="M150.05 188.78C149.95 189.02 151.14 189.69 151.76 191.12C152.38 192.55 152.14 193.89 152.38 193.97C152.62 194.05 152.73 193.71 152.86 193.11C153.012 192.307 152.914 191.476 152.58 190.73C152.247 190.003 151.695 189.398 151 189C150.47 188.68 150.09 188.67 150.05 188.78Z" fill="#263238"/>
<path d="M136.88 188.52C136.777 187.669 136.572 186.833 136.27 186.03C136.15 185.65 136.07 185.28 136.27 185.11C136.628 184.906 137.041 184.822 137.45 184.87L140.69 184.72C145.28 184.47 148.99 184.11 148.98 183.93C148.97 183.75 145.24 183.8 140.64 184.05L137.41 184.25C136.869 184.218 136.335 184.377 135.9 184.7C135.795 184.809 135.716 184.94 135.67 185.084C135.623 185.228 135.609 185.38 135.63 185.53C135.669 185.753 135.732 185.971 135.82 186.18C136.065 187.005 136.422 187.792 136.88 188.52Z" fill="#263238"/>
<path d="M154.29 186.35C154.02 186.7 155.01 187.91 155.79 189.58C156.57 191.25 156.93 192.75 157.38 192.76C157.59 192.76 157.79 192.32 157.82 191.6C157.84 190.661 157.63 189.731 157.21 188.89C156.808 188.04 156.212 187.297 155.47 186.72C154.89 186.3 154.43 186.19 154.29 186.35Z" fill="#263238"/>
<path d="M148.36 172.79C148.16 173.23 148.99 174.25 149.6 175.64C150.21 177.03 150.48 178.32 150.94 178.45C151.16 178.5 151.4 178.17 151.49 177.52C151.553 176.652 151.383 175.782 151 175C150.651 174.199 150.091 173.508 149.38 173C148.86 172.61 148.46 172.59 148.36 172.79Z" fill="#263238"/>
<path d="M151.51 206.21C151.65 206.33 156.2 211.73 149.79 214.33C143.38 216.93 142.09 209.96 142.27 209.87C142.45 209.78 151.51 206.21 151.51 206.21Z" fill="#FFBF9D"/>
<path d="M145.5 210.84C145.5 210.84 145.5 210.99 145.45 211.21C145.443 211.521 145.558 211.823 145.77 212.05C146.202 212.356 146.707 212.541 147.234 212.589C147.761 212.636 148.291 212.544 148.77 212.32C149.331 212.106 149.835 211.764 150.24 211.32C150.416 211.181 150.556 211 150.646 210.795C150.737 210.589 150.776 210.364 150.76 210.14C150.744 209.997 150.678 209.865 150.573 209.766C150.469 209.667 150.333 209.609 150.19 209.6C149.97 209.6 149.86 209.68 149.84 209.65C149.82 209.62 149.89 209.47 150.17 209.41C150.345 209.385 150.524 209.416 150.68 209.5C150.882 209.624 151.028 209.821 151.09 210.05C151.145 210.334 151.126 210.628 151.035 210.903C150.944 211.178 150.784 211.425 150.57 211.62C150.125 212.12 149.566 212.504 148.94 212.74C148.382 213.003 147.758 213.094 147.148 213.003C146.538 212.913 145.968 212.644 145.51 212.23C145.391 212.078 145.308 211.901 145.266 211.712C145.224 211.524 145.226 211.328 145.27 211.14C145.35 210.92 145.48 210.83 145.5 210.84Z" fill="#FF9A6C"/>
<path d="M137.77 193.41C137.7 193.19 136.22 193.76 134.67 192.9C133.12 192.04 132.67 190.41 132.47 190.48C132.27 190.55 132.32 190.94 132.56 191.61C132.883 192.484 133.507 193.214 134.32 193.67C135.098 194.109 136.016 194.227 136.88 194C137.52 193.82 137.82 193.51 137.77 193.41Z" fill="#263238"/>
<path d="M150.76 154.6C151.18 154.564 151.599 154.689 151.93 154.95C152.578 155.561 153.051 156.335 153.3 157.19C154.172 159.213 155.492 161.012 157.16 162.45C157.209 161.691 157.381 160.944 157.67 160.24C157.946 159.498 158.421 158.846 159.041 158.354C159.661 157.863 160.405 157.55 161.19 157.45C161.337 157.428 161.486 157.44 161.628 157.483C161.77 157.526 161.9 157.6 162.01 157.7C162.31 158.06 162.01 158.59 161.84 159.02C161.499 159.599 161.319 160.258 161.319 160.93C161.319 161.602 161.499 162.261 161.84 162.84C162.243 163.675 162.831 164.407 163.56 164.98H163.68L165.07 165.56C168.44 166.99 170.94 168.39 172.67 170.17C175.543 173.337 177.499 177.226 178.33 181.42C178.8 185.03 177.33 189.03 174.2 190.85C176.49 192.05 177.59 194.85 177.61 197.39H177.66C177.78 200.23 175.74 202.7 173.51 204.47L173.14 204.75C172.137 206.13 171.485 207.732 171.24 209.42C171.24 209.72 171.14 210.06 170.87 210.2C170.73 210.247 170.581 210.257 170.436 210.231C170.291 210.205 170.155 210.143 170.04 210.05C169.371 209.625 168.807 209.054 168.39 208.38C167.877 208.848 167.405 209.36 166.98 209.91C166.62 210.39 166.19 210.91 165.59 210.91C165.364 210.869 165.156 210.761 164.992 210.601C164.828 210.441 164.716 210.235 164.67 210.01C164.591 209.555 164.608 209.088 164.72 208.64L163 210.37C162.481 209.531 162.166 208.583 162.08 207.6C159.5 208.04 154.96 209.43 153.08 209.47C152.36 207.78 152.37 207.3 151.74 206.55C150.92 205.55 149.13 206.82 149.1 205.15C149.1 204.3 151.4 202.03 152.1 201.48C156.424 197.815 161.485 195.121 166.94 193.58C167.612 192.099 167.999 190.505 168.08 188.88L168 189C167.84 186 167.53 182.68 165.28 180.7C163.54 179.16 161.08 178.84 158.9 178.05C156.948 177.43 155.149 176.403 153.623 175.036C152.098 173.668 150.88 171.993 150.05 170.12C147.05 170.91 142.4 172.69 139.71 173.62L144.07 169.22C144.3 168.91 144.55 168.64 144.8 168.36L144.88 168.28C145.303 167.851 145.704 167.401 146.08 166.93C145.7 166.728 145.405 166.395 145.252 165.993C145.098 165.591 145.095 165.146 145.244 164.742C145.393 164.338 145.684 164.002 146.062 163.796C146.44 163.589 146.88 163.527 147.3 163.62C147.695 163.72 148.072 163.879 148.42 164.09C147.976 163.895 147.591 163.587 147.302 163.198C147.012 162.809 146.829 162.351 146.77 161.87C146.726 161.387 146.843 160.904 147.101 160.493C147.36 160.083 147.746 159.769 148.2 159.6C148.518 159.51 148.854 159.506 149.174 159.588C149.494 159.671 149.786 159.837 150.02 160.07C149.455 158.942 149.236 157.672 149.39 156.42C149.48 155.62 149.83 154.72 150.76 154.6Z" fill="#263238"/>
<path d="M171.87 188.38C171.738 188.82 171.578 189.251 171.39 189.67C170.794 190.776 169.923 191.71 168.86 192.38C168.144 192.861 167.38 193.267 166.58 193.59C165.72 193.95 164.77 194.25 163.76 194.59C162.703 194.917 161.667 195.311 160.66 195.77C160.13 196.023 159.618 196.314 159.13 196.64C158.59 196.96 158.14 197.41 157.82 197.95C157.705 198.187 157.654 198.45 157.672 198.713C157.689 198.976 157.775 199.23 157.92 199.45C158.194 199.877 158.602 200.2 159.08 200.37C159.987 200.588 160.935 200.564 161.83 200.3L161.72 200.11C161.13 200.68 160.628 201.333 160.23 202.05C159.861 202.733 159.772 203.532 159.98 204.28C160.079 204.627 160.273 204.939 160.54 205.18C160.792 205.387 161.096 205.52 161.42 205.564C161.743 205.609 162.072 205.562 162.37 205.43C162.634 205.306 162.846 205.094 162.97 204.83L162.84 204.77C162.434 205.59 162.203 206.486 162.16 207.4C162.143 207.64 162.143 207.88 162.16 208.12C162.154 208.203 162.154 208.287 162.16 208.37C162.17 208.287 162.17 208.203 162.16 208.12C162.16 207.96 162.16 207.72 162.16 207.4C162.239 206.504 162.49 205.631 162.9 204.83L162.77 204.77C162.637 205.004 162.435 205.19 162.191 205.303C161.947 205.416 161.674 205.45 161.41 205.4C161.107 205.365 160.821 205.24 160.59 205.04C160.352 204.817 160.179 204.534 160.09 204.22C159.905 203.524 159.994 202.783 160.34 202.15C160.743 201.454 161.241 200.818 161.82 200.26L162.06 200.01L161.71 200.08C160.858 200.333 159.954 200.357 159.09 200.15C158.677 199.991 158.327 199.704 158.09 199.33C157.965 199.143 157.892 198.926 157.878 198.701C157.864 198.476 157.91 198.252 158.01 198.05C158.305 197.548 158.726 197.131 159.23 196.84C159.708 196.517 160.21 196.23 160.73 195.98C161.728 195.521 162.753 195.124 163.8 194.79C164.8 194.46 165.8 194.14 166.63 193.79C167.438 193.453 168.208 193.035 168.93 192.54C170.001 191.843 170.868 190.873 171.44 189.73C171.658 189.308 171.804 188.851 171.87 188.38Z" fill="#455A64"/>
<path d="M150.91 163.1V163.2C150.889 163.305 150.862 163.408 150.83 163.51C150.789 163.675 150.759 163.842 150.74 164.01C150.74 164.21 150.68 164.44 150.67 164.7C150.617 166.191 150.933 167.671 151.59 169.01C152.56 171.003 154.089 172.671 155.99 173.81C158.314 175.178 160.894 176.056 163.57 176.39C164.99 176.61 166.38 176.69 167.7 176.86C168.974 176.994 170.223 177.307 171.41 177.79C172.476 178.218 173.418 178.905 174.15 179.79C174.468 180.202 174.721 180.661 174.9 181.15C175.049 181.607 175.143 182.081 175.18 182.56C175.23 183.388 175.1 184.217 174.8 184.99C174.575 185.577 174.257 186.123 173.86 186.61C173.499 187.009 173.093 187.365 172.65 187.67H172.74L173.01 187.51C173.348 187.285 173.656 187.02 173.93 186.72C174.909 185.577 175.414 184.103 175.34 182.6C175.316 182.103 175.226 181.612 175.07 181.14C174.889 180.632 174.632 180.153 174.31 179.72C173.565 178.792 172.599 178.067 171.5 177.61C170.297 177.1 169.028 176.764 167.73 176.61C166.4 176.43 165.01 176.35 163.61 176.13C160.963 175.802 158.409 174.945 156.1 173.61C154.228 172.495 152.715 170.868 151.74 168.92C151.07 167.608 150.727 166.153 150.74 164.68C150.77 163.67 151 163.11 150.91 163.1Z" fill="#455A64"/>
<path d="M154.68 160.57C154.632 160.709 154.602 160.854 154.59 161C154.527 161.397 154.493 161.798 154.49 162.2C154.475 162.799 154.515 163.398 154.61 163.99C154.729 164.713 154.916 165.423 155.17 166.11C155.439 166.807 155.774 167.477 156.17 168.11C156.488 168.615 156.845 169.093 157.24 169.54C157.508 169.842 157.795 170.125 158.1 170.39C158.208 170.493 158.329 170.58 158.46 170.65C158.46 170.65 158.01 170.21 157.37 169.43C156.999 168.977 156.665 168.496 156.37 167.99C156.007 167.37 155.696 166.721 155.44 166.05C155.197 165.373 155.01 164.677 154.88 163.97C154.776 163.392 154.719 162.807 154.71 162.22C154.63 161.2 154.73 160.57 154.68 160.57Z" fill="#455A64"/>
<path d="M74.8901 188.43C83.1401 180.92 97.3 169.33 97.3 169.33C97.3 169.33 99.1701 172 106 178C109.774 181.252 113.96 183.993 118.45 186.15L113.22 193.74C113.356 194.265 113.323 194.819 113.126 195.324C112.928 195.828 112.576 196.258 112.12 196.55C109.71 198.55 109.54 203.55 110.87 207.55C112.71 213.07 125.63 217.4 125.63 217.4C125.63 217.4 129.94 225.49 130.95 228.34C131.96 231.19 134.76 240.2 134.76 240.2L114 253.88L98.6501 256.88L85.6501 263.3V267.45L82.0101 269.56L79.4901 281.4C79.4901 281.4 53.7301 287.6 40.5001 279C31.3099 272.881 22.7837 265.82 15.0601 257.93C15.0601 257.93 33.3401 231.45 37.0601 226.83C37.0601 226.82 67.1001 195.51 74.8901 188.43Z" fill="#FF7D7D"/>
<path d="M106 194.86C107.049 194.149 108.232 193.659 109.477 193.42C110.722 193.181 112.002 193.198 113.24 193.47C113.24 193.62 111.56 193.54 109.57 193.93C107.58 194.32 106 195 106 194.86Z" fill="#263238"/>
<path d="M77.75 251.72C77.88 251.64 79.46 253.92 81.66 256.54C83.86 259.16 85.81 261.13 85.66 261.24C83.9795 259.999 82.4815 258.528 81.21 256.87C79.8252 255.321 78.6609 253.588 77.75 251.72Z" fill="#263238"/>
<path d="M69.3999 263.33C71.5831 263.909 73.7166 264.661 75.7799 265.58C77.906 266.332 79.972 267.245 81.9599 268.31C79.7772 267.73 77.6439 266.977 75.5799 266.06C73.4548 265.305 71.3891 264.393 69.3999 263.33Z" fill="#263238"/>
<path d="M82.0701 290.43C82.5701 290.43 115.31 282.96 115.31 282.96L114.69 260.77L114.04 251.59L134.72 243.59C134.72 243.59 134.12 241.51 134.72 253.69L135.29 261.33C135.29 261.33 133.59 285.46 132.58 290.15C131.57 294.84 129.41 298.59 123.41 299.28C118.09 299.89 82.0701 301.96 82.0701 301.96V290.43Z" fill="#FFBF9D"/>
<path d="M82.07 290.43C82.07 290.43 81.93 283.49 80.16 281.86C78.39 280.23 70.61 275.86 69.16 277.31C67.71 278.76 68.36 278.8 70.16 279.54C71.96 280.28 77.44 282.54 76.52 282.54C75.6 282.54 67.36 277.75 66.92 279.87C66.48 281.99 68.92 282.68 68.92 282.68C68.92 282.68 67.92 284.18 70.68 286.9C72.3078 288.53 74.304 289.744 76.5 290.44C76.5 290.44 70.55 288.44 70.14 290.44C69.73 292.44 71.36 292.88 73.54 293.69C75.0677 294.277 76.5631 294.945 78.02 295.69C78.02 295.69 79.78 303.38 81.02 303.28C82.4651 302.969 83.878 302.524 85.24 301.95L82.07 290.43Z" fill="#FFBF9D"/>
<path d="M114 251.59V263.26L136.54 259.88C136.54 259.88 136.62 246.3 133.54 236.6L114 251.59Z" fill="#FF7D7D"/>
<path d="M131.78 241C131.78 241.09 130.66 241.1 128.9 241.4C124.281 242.208 120.061 244.526 116.9 247.99C115.7 249.31 115.09 250.26 115.01 250.21C115.09 249.955 115.211 249.715 115.37 249.5C115.737 248.883 116.155 248.297 116.62 247.75C119.698 244.041 124.062 241.63 128.84 241C129.553 240.905 130.271 240.865 130.99 240.88C131.258 240.88 131.524 240.92 131.78 241Z" fill="#263238"/>
</g>
<defs>
<clipPath id="clip0_2787_1877">
<rect width="373" height="500" fill="white"/>
</clipPath>
</defs>
</svg>
