<svg width="300" height="500" viewBox="0 0 300 500" fill="none" xmlns="http://www.w3.org/2000/svg">
<g clip-path="url(#clip0_2792_2075)">
<path d="M191.64 92.9001C203.67 90.2201 215.61 97.8001 218.29 109.83C220.97 121.86 213.39 133.8 201.36 136.48C189.33 139.16 177.4 131.59 174.71 119.56C172.02 107.53 179.6 95.5901 191.63 92.9001H191.64Z" fill="#EBEBEB"/>
<path d="M212.98 108.2C214.25 108.21 215.3 107.19 215.31 105.92C215.32 104.65 214.3 103.6 213.03 103.59C211.76 103.58 210.71 104.6 210.7 105.87C210.7 105.89 210.7 105.9 210.7 105.92C210.7 107.18 211.72 108.2 212.98 108.2Z" fill="#E0E0E0"/>
<path d="M205.47 97.0801C205.6 98.3501 206.74 99.2701 208 99.1301C209.08 99.0201 209.94 98.1601 210.05 97.0801C209.06 96.3301 208.01 95.6601 206.91 95.0801C206.08 95.4101 205.52 96.1901 205.47 97.0801Z" fill="#E0E0E0"/>
<path d="M180.79 118.36C178.84 118.36 177.27 119.94 177.27 121.88C177.27 123.82 178.85 125.4 180.79 125.4C182.73 125.4 184.31 123.82 184.31 121.88C184.3 119.94 182.73 118.37 180.79 118.36Z" fill="#E0E0E0"/>
<path d="M217.76 107.97C217.41 106.87 216.98 105.79 216.47 104.75C216.46 104.9 216.46 105.05 216.47 105.21C216.47 106.28 216.94 107.29 217.76 107.97Z" fill="#E0E0E0"/>
<path d="M179.22 107.67C179.2 106.12 178.18 104.76 176.69 104.32C175.59 106.41 174.83 108.66 174.43 110.98C174.82 111.12 175.23 111.2 175.65 111.21C177.61 111.22 179.21 109.65 179.22 107.69V107.66V107.67Z" fill="#E0E0E0"/>
<path d="M215.31 117.53C215.31 119.1 216.34 120.49 217.84 120.93C218.51 118.7 218.84 116.39 218.8 114.06C216.88 114.06 215.32 115.61 215.3 117.53H215.31Z" fill="#E0E0E0"/>
<path d="M193.46 102.91C193.45 100.96 191.86 99.4002 189.91 99.4102C187.96 99.4202 186.4 101.01 186.41 102.96C186.42 104.86 187.94 106.4 189.83 106.45C191.79 106.49 193.41 104.94 193.45 102.98C193.45 102.95 193.45 102.93 193.45 102.9L193.46 102.91Z" fill="#E0E0E0"/>
<path d="M205.17 121.25C206.43 121.25 207.45 122.27 207.45 123.53C207.45 124.79 206.43 125.81 205.17 125.81C203.91 125.81 202.89 124.79 202.89 123.53C202.89 122.27 203.91 121.25 205.17 121.25Z" fill="#E0E0E0"/>
<path d="M213.74 124.7C213.74 125.69 214.39 126.56 215.34 126.85C216.15 125.6 216.84 124.28 217.39 122.9C216.41 122.13 214.99 122.3 214.22 123.28C213.9 123.68 213.73 124.19 213.74 124.7Z" fill="#E0E0E0"/>
<path d="M207.75 133.29C207.74 133.5 207.74 133.71 207.75 133.92C210.23 132.45 212.41 130.53 214.16 128.24C211.47 127.45 208.66 128.99 207.87 131.68C207.72 132.21 207.65 132.76 207.67 133.31L207.75 133.28V133.29Z" fill="#E0E0E0"/>
<path d="M176.61 116.41C176.61 114.69 175.75 113.07 174.33 112.1C174.04 114.59 174.17 117.11 174.71 119.55C174.71 119.78 174.71 120.01 174.89 120.23C175.99 119.26 176.62 117.87 176.61 116.4V116.41Z" fill="#E0E0E0"/>
<path d="M187.05 94.77V94.49C183.3 96.25 180.12 99.01 177.85 102.47C178.31 102.51 178.78 102.51 179.24 102.47C183.51 102.46 186.98 99.03 187.05 94.77Z" fill="#E0E0E0"/>
<path d="M197.67 95.9101C199.59 95.8901 201.36 94.8201 202.26 93.1201C199.19 92.3201 195.99 92.1701 192.86 92.6901C193.63 94.6601 195.55 95.9501 197.67 95.9101Z" fill="#E0E0E0"/>
<path d="M196.5 131.01C195.23 131 194.18 132.02 194.17 133.29C194.16 134.56 195.18 135.61 196.45 135.62C197.72 135.63 198.77 134.61 198.78 133.34C198.78 133.32 198.78 133.31 198.78 133.29C198.78 132.03 197.76 131.01 196.5 131.01Z" fill="#E0E0E0"/>
<path d="M191.56 135.19C190.89 135.19 190.26 135.49 189.84 136C191.11 136.38 192.4 136.66 193.72 136.84C193.46 135.87 192.57 135.19 191.57 135.19H191.56Z" fill="#E0E0E0"/>
<path d="M182.51 129.79C181.87 129.8 181.26 130.09 180.84 130.58C181.9 131.65 183.07 132.6 184.34 133.42C184.64 133.04 184.81 132.58 184.82 132.1C184.82 130.83 183.79 129.79 182.51 129.79Z" fill="#E0E0E0"/>
<path d="M208.79 110.79C209.08 110.79 209.32 110.55 209.32 110.26C209.32 109.97 209.08 109.73 208.79 109.73C208.5 109.73 208.26 109.97 208.26 110.26C208.27 110.55 208.5 110.78 208.79 110.79Z" fill="#E0E0E0"/>
<path d="M211.89 102.22C212.18 102.22 212.42 101.98 212.42 101.69C212.42 101.4 212.18 101.16 211.89 101.16C211.61 101.16 211.38 101.39 211.38 101.67V101.7C211.38 101.98 211.6 102.22 211.89 102.23V102.22Z" fill="#E0E0E0"/>
<path d="M215.91 110.79C216.2 110.79 216.44 110.55 216.44 110.26C216.44 109.97 216.2 109.73 215.91 109.73C215.62 109.73 215.38 109.97 215.38 110.26C215.38 110.55 215.62 110.79 215.91 110.79Z" fill="#E0E0E0"/>
<path d="M197.59 97.6401C197.87 97.6401 198.1 97.4101 198.1 97.1301C198.11 96.8501 197.9 96.6101 197.62 96.6001H197.59C197.3 96.6001 197.06 96.8401 197.06 97.1301C197.06 97.4101 197.29 97.6401 197.57 97.6401H197.6H197.59Z" fill="#E0E0E0"/>
<path d="M190.93 107.16C190.65 107.16 190.42 107.39 190.42 107.67C190.41 107.95 190.62 108.19 190.9 108.2H190.93C191.22 108.2 191.46 107.96 191.46 107.67C191.46 107.39 191.23 107.16 190.95 107.16H190.92H190.93Z" fill="#E0E0E0"/>
<path d="M187.35 121.89C187.35 121.61 187.12 121.38 186.84 121.38H186.81C186.53 121.38 186.3 121.61 186.3 121.89C186.29 122.17 186.5 122.41 186.78 122.42H186.81C187.1 122.42 187.34 122.18 187.34 121.89H187.35Z" fill="#E0E0E0"/>
<path d="M178.69 115.91C178.69 116.2 178.93 116.44 179.22 116.44C179.51 116.44 179.75 116.2 179.75 115.91C179.75 115.62 179.51 115.38 179.22 115.38C178.93 115.38 178.69 115.62 178.69 115.91Z" fill="#E0E0E0"/>
<path d="M201.67 118.42C201.67 118.71 201.91 118.95 202.2 118.95C202.49 118.95 202.73 118.71 202.73 118.42C202.73 118.13 202.49 117.89 202.2 117.89C201.91 117.89 201.67 118.13 201.67 118.42Z" fill="#E0E0E0"/>
<path d="M201.67 111.45C201.96 111.45 202.2 111.69 202.2 111.98C202.2 112.27 201.96 112.51 201.67 112.51C201.38 112.51 201.14 112.27 201.14 111.98C201.14 111.69 201.38 111.45 201.67 111.45Z" fill="#E0E0E0"/>
<path d="M206.41 128.07C206.13 128.07 205.9 128.3 205.9 128.58V128.61C205.9 128.89 206.13 129.12 206.41 129.12C206.69 129.13 206.93 128.92 206.94 128.64V128.61C206.94 128.32 206.7 128.08 206.41 128.08V128.07Z" fill="#E0E0E0"/>
<path d="M183.05 104.15C183.34 104.15 183.58 103.91 183.58 103.62C183.58 103.33 183.34 103.09 183.05 103.09C182.76 103.09 182.52 103.33 182.52 103.62C182.52 103.91 182.76 104.15 183.05 104.15Z" fill="#E0E0E0"/>
<path d="M194.2 103.41C194.48 103.42 194.72 103.21 194.73 102.93V102.9C194.73 102.61 194.49 102.37 194.2 102.37C193.92 102.37 193.69 102.6 193.69 102.88V102.91C193.69 103.19 193.92 103.42 194.2 103.42V103.41Z" fill="#E0E0E0"/>
<path d="M193.69 129.79C193.4 129.78 193.15 130 193.13 130.3C193.12 130.59 193.34 130.84 193.64 130.86C193.93 130.87 194.18 130.65 194.2 130.35V130.33C194.2 130.05 193.98 129.81 193.69 129.8V129.79Z" fill="#E0E0E0"/>
<path d="M192.45 123.53C192.17 123.52 191.93 123.73 191.92 124.01V124.04C191.92 124.33 192.16 124.57 192.45 124.57C192.73 124.57 192.96 124.34 192.96 124.06V124.03C192.96 123.75 192.73 123.52 192.45 123.52V123.53Z" fill="#E0E0E0"/>
<path d="M179.73 126.47C179.45 126.47 179.22 126.7 179.22 126.98V127.01C179.22 127.29 179.45 127.52 179.73 127.52C180.01 127.53 180.25 127.32 180.26 127.04V127.01C180.26 126.72 180.02 126.48 179.73 126.48V126.47Z" fill="#E0E0E0"/>
<path d="M200 135.07C199.71 135.07 199.47 135.31 199.47 135.6C199.47 135.89 199.71 136.13 200 136.13C200.29 136.13 200.53 135.89 200.53 135.6C200.53 135.31 200.29 135.07 200 135.07Z" fill="#E0E0E0"/>
<path d="M202.89 104.1C203.56 104.1 204.11 103.56 204.11 102.88C204.11 102.21 203.57 101.66 202.89 101.66C202.22 101.66 201.67 102.21 201.67 102.88V102.9C201.67 103.56 202.2 104.09 202.86 104.09H202.89V104.1Z" fill="#E0E0E0"/>
<path d="M202.89 98.3201C203.56 98.3201 204.11 97.7701 204.11 97.1001C204.11 96.4301 203.57 95.8801 202.89 95.8801C202.21 95.8801 201.67 96.4201 201.67 97.1001V97.1201C201.67 97.7801 202.2 98.3101 202.86 98.3101H202.89V98.3201Z" fill="#E0E0E0"/>
<path d="M189.84 98.32C190.54 98.32 191.11 97.75 191.11 97.05C191.11 96.35 190.54 95.78 189.84 95.78C189.14 95.78 188.57 96.35 188.57 97.05C188.57 97.75 189.14 98.32 189.84 98.32Z" fill="#E0E0E0"/>
<path d="M200 129.79C200 129.12 199.46 128.57 198.78 128.57C198.1 128.57 197.56 129.11 197.56 129.79C197.56 130.47 198.1 131.01 198.78 131.01C199.44 131.02 199.98 130.5 200 129.84C200 129.82 200 129.81 200 129.79Z" fill="#E0E0E0"/>
<path d="M187.35 130.88C186.68 130.88 186.13 131.42 186.13 132.1C186.13 132.78 186.67 133.32 187.35 133.32C188.03 133.32 188.57 132.78 188.57 132.1C188.57 131.42 188.03 130.88 187.35 130.88Z" fill="#E0E0E0"/>
<path d="M183.05 126.3C183.72 126.3 184.27 126.84 184.27 127.52C184.27 128.2 183.73 128.74 183.05 128.74C182.37 128.74 181.83 128.2 181.83 127.52C181.83 126.84 182.37 126.3 183.05 126.3Z" fill="#E0E0E0"/>
<path d="M202.89 132.1C202.22 132.09 201.66 132.62 201.65 133.29C201.64 133.96 202.17 134.52 202.84 134.53C203.51 134.54 204.07 134.01 204.08 133.34C204.08 133.32 204.08 133.31 204.08 133.29C204.08 132.63 203.55 132.1 202.89 132.1Z" fill="#E0E0E0"/>
<path d="M194.73 117.12C195.4 117.12 195.95 116.58 195.95 115.9C195.95 115.22 195.41 114.68 194.73 114.68C194.05 114.68 193.51 115.22 193.51 115.9C193.52 116.57 194.06 117.1 194.73 117.12Z" fill="#E0E0E0"/>
<path d="M211.89 120.82C212.56 120.83 213.12 120.3 213.13 119.63C213.14 118.96 212.61 118.4 211.94 118.39C211.27 118.38 210.71 118.91 210.7 119.58C210.7 119.6 210.7 119.61 210.7 119.63C210.7 120.29 211.23 120.82 211.89 120.82Z" fill="#E0E0E0"/>
<path d="M184.26 114.06C183.59 114.05 183.03 114.58 183.02 115.25C183.01 115.92 183.54 116.48 184.21 116.49C184.88 116.5 185.44 115.97 185.45 115.3C185.45 115.28 185.45 115.27 185.45 115.25C185.45 114.59 184.92 114.06 184.26 114.06Z" fill="#E0E0E0"/>
<path d="M179.22 111.19C179.89 111.19 180.44 111.73 180.44 112.41C180.44 113.09 179.9 113.63 179.22 113.63C178.54 113.63 178 113.09 178 112.41C178 111.73 178.54 111.19 179.22 111.19Z" fill="#E0E0E0"/>
<path d="M125.22 228.45C88.92 245.18 64.08 268.62 69.7 280.83C75.33 293.04 109.31 289.36 145.58 272.63C181.85 255.9 206.72 232.44 201.1 220.25C195.47 208.06 161.49 211.72 125.22 228.45ZM143.12 267.26C111.37 281.89 81.93 285.68 77.35 275.72C72.76 265.76 94.77 245.85 126.5 231.22C158.23 216.59 187.66 212.78 192.27 222.74C196.88 232.7 174.85 252.63 143.12 267.26Z" fill="#E0E0E0"/>
<path d="M141.262 288.699C163.963 287.422 181.331 267.983 180.054 245.282C178.777 222.58 159.338 205.212 136.637 206.489C113.935 207.766 96.5671 227.205 97.8443 249.907C99.1214 272.608 118.56 289.976 141.262 288.699Z" fill="#E6E6E6"/>
<g opacity="0.2">
<path d="M173 270.71C164.61 283.11 150.13 289.96 135.21 288.58C131.19 288.23 127.25 287.26 123.53 285.72C136.66 284.84 156 282.62 173 270.71Z" fill="#FAFAFA"/>
<path d="M139.75 239.53C148.52 236.15 166.29 232.18 174.26 226.5C174.63 227.03 174.96 227.59 175.24 228.18C170.81 231.25 166.66 234.7 162.83 238.5C154.01 246.55 149.6 253.98 134.95 254.54C120.3 255.11 129.97 243.35 139.75 239.53Z" fill="#FAFAFA"/>
<path d="M113.93 280.28C126.83 278.66 157.93 273.11 179.24 256.29C178.9 257.76 178.49 259.18 178.03 260.65C164.51 267.54 139.34 280.85 118.11 283.04C116.66 282.22 115.26 281.29 113.93 280.28Z" fill="#FAFAFA"/>
<path d="M104.1 269.42C112.44 268.25 120.7 266.52 128.81 264.26C145.4 259.31 168.45 247.6 179.08 238.47C179.63 240.81 179.95 243.21 180.03 245.61C166.77 254.48 134.74 273.98 108.07 274.68C106.59 273.05 105.27 271.28 104.1 269.42Z" fill="#FAFAFA"/>
<path d="M103.48 226.81C104.04 225.75 104.67 224.73 105.39 223.77C117.82 220.08 141.76 214.36 152.67 208.81C154.32 209.37 155.92 210.05 157.47 210.85C143.88 213.97 115.69 223.95 103.48 226.82V226.81Z" fill="#FAFAFA"/>
<path d="M100.29 233.42C109.73 230.36 119.49 228.43 129.38 227.67C136.03 227.67 155.74 219.93 162.7 214C163.25 214.36 163.78 214.77 164.27 215.21C147.19 222.41 126.38 240.18 116.78 245.34C110.86 248.57 104.64 251.22 98.2101 253.26C97.7301 250.14 97.6301 246.97 97.9301 243.82C98.2701 240.27 99.0501 236.78 100.28 233.43L100.29 233.42Z" fill="#FAFAFA"/>
</g>
<path d="M98.76 256.32C101.76 255.61 104.72 254.75 107.63 253.74C118.9 249.92 139.23 233.49 157.2 225.93C163.96 223.12 167.83 221.49 170.1 220.62C170.8 221.45 171.47 222.27 172.09 223.2C166.94 226.21 161.6 228.88 156.1 231.2C144.65 236 132.42 242.5 125.38 248.38C119.99 252.84 106.37 258.7 100.03 260.86C99.5 259.38 99.08 257.86 98.77 256.32H98.76Z" fill="#E0E0E0"/>
<path d="M101.06 263.59C111.43 261.02 121.95 259.08 132.55 257.79C150.4 255.73 157.16 247.81 164.46 240.28C168.09 236.73 172.25 233.76 176.79 231.48C177.47 233 178.03 234.57 178.47 236.17C170.26 243.01 161.2 248.75 151.52 253.27C134.63 261.19 111.15 265.03 102.36 266.3C101.86 265.43 101.43 264.53 101.07 263.59H101.06Z" fill="#E0E0E0"/>
<path d="M110.37 277.13C125.84 275.14 140.89 270.63 154.91 263.79C166.39 258.14 174.56 253.68 180.01 250.58C180.04 250.84 180.04 251.1 180.01 251.35C179.88 252.56 179.75 253.72 179.52 254.88C166.62 261.77 136.81 275.98 110.76 277.42C110.58 277.39 110.48 277.24 110.37 277.11V277.13Z" fill="#E0E0E0"/>
<path d="M109.03 219.31C117.73 210.14 130.15 205.46 142.74 206.62C143.72 206.62 144.73 206.85 145.68 207.01C136.91 211.09 120.63 217.74 109.03 219.31Z" fill="#F0F0F0"/>
<path d="M121.23 284.69C131.55 282.24 157.91 275.61 169.13 269.47C171.21 268.29 173.36 267.25 175.58 266.35C174.93 267.69 174.18 268.99 173.34 270.22C165.32 273.73 149.82 280.15 141.07 281.57C133.33 282.81 126.42 284.15 122.27 285.16C121.91 285.05 121.56 284.89 121.24 284.7L121.23 284.69Z" fill="#E0E0E0"/>
<path d="M156.05 214.15C156.05 214.15 140.96 223.49 134.18 224.62C130.06 225.32 125.9 225.71 121.72 225.78C121.72 225.78 143.54 214.59 156.05 214.15Z" fill="#E0E0E0"/>
<path d="M187.71 218.77C189.7 219.49 191.33 220.95 192.28 222.84C196.87 232.8 174.86 252.73 143.13 267.36C111.4 281.99 81.9399 285.78 77.3599 275.82C76.5899 273.88 76.5899 271.72 77.3599 269.78L69.5899 273.35C68.6999 275.81 68.7699 278.51 69.7599 280.93C75.3899 293.14 109.37 289.46 145.64 272.73C181.91 256 206.78 232.54 201.16 220.35C199.98 218.02 197.96 216.22 195.51 215.31L187.72 218.77H187.71Z" fill="#E0E0E0"/>
<path d="M198.65 295.7C198.2 295.7 193.83 296.04 193.21 301.11H192.49C192.49 301.11 192.7 296.16 187.06 295.9L187.09 295.12C187.54 295.12 191.74 294.93 192.35 289.86H193.07C193.07 289.86 192.58 294.43 198.65 295.15V295.7Z" fill="#E0E0E0"/>
<path d="M102.02 131.89C101.57 131.89 97.2002 132.23 96.5802 137.3H95.8602C95.8602 137.3 96.0702 132.35 90.4302 132.09L90.4602 131.31C90.9102 131.31 95.1102 131.12 95.7202 126.05H96.4402C96.4402 126.05 95.9502 130.62 102.02 131.34V131.89Z" fill="#E0E0E0"/>
<path d="M248.34 135.4C248.09 135.4 245.62 135.59 245.27 138.46H244.87C244.87 138.46 244.99 135.67 241.8 135.52L241.82 135.08C242.07 135.08 244.44 134.97 244.79 132.11H245.19C245.19 132.11 244.92 134.69 248.34 135.09V135.4Z" fill="#E0E0E0"/>
<path d="M118.17 113.55C117.92 113.55 115.45 113.74 115.1 116.61H114.7C114.7 116.61 114.82 113.82 111.63 113.67L111.65 113.23C111.9 113.23 114.27 113.12 114.62 110.26H115.02C115.02 110.26 114.75 112.84 118.17 113.24V113.55Z" fill="#E0E0E0"/>
<path d="M57.6401 301.9C57.3901 301.9 54.9201 302.09 54.5701 304.96H54.1701C54.1701 304.96 54.2901 302.17 51.1001 302.02L51.1201 301.58C51.3701 301.58 53.7401 301.47 54.0901 298.61H54.4901C54.4901 298.61 54.2201 301.19 57.6401 301.59V301.9Z" fill="#E0E0E0"/>
<path d="M182.49 182.08C187.737 182.08 191.99 177.827 191.99 172.58C191.99 167.333 187.737 163.08 182.49 163.08C177.243 163.08 172.99 167.333 172.99 172.58C172.99 177.827 177.243 182.08 182.49 182.08Z" fill="#4A8AEC"/>
<path opacity="0.2" d="M191.78 170.58C191.57 171.57 191.2 172.54 190.66 173.46C187.97 177.97 182.14 179.45 177.63 176.76C175.26 175.35 173.74 173.07 173.21 170.57C173.07 171.22 172.99 171.89 172.99 172.58C172.99 177.83 177.25 182.08 182.49 182.08C187.73 182.08 191.99 177.82 191.99 172.58C191.99 171.89 191.91 171.22 191.77 170.58H191.78Z" fill="black"/>
<path d="M288.77 228.71C288.98 229.72 301.04 258.13 300.45 264C299.43 274.24 291.05 291.91 291.05 291.91L285.83 288.88C285.83 288.88 289.72 268.83 289.21 265.05C288.69 261.27 278.37 235.36 278.37 235.36L288.77 228.71Z" fill="#EBB376"/>
<path d="M286.15 287.34C286.15 287.34 283.24 287.62 281.65 289.55C280.05 291.48 278.3 292.61 277.2 294.13C276.11 295.65 278.48 295.04 279.69 294.45C280.9 293.86 282.28 293.21 282.51 294.2C282.75 295.19 280.37 303.84 280.86 305.17C281.34 306.5 282.15 305.21 282.15 305.21C282.15 305.21 281.63 307.32 282.37 307.73C282.56 307.84 283.19 307.75 283.58 306.82C284.44 304.72 286.03 300.24 286.03 300.24C285.93 300.5 284.35 306.16 284.21 307.03C284.04 308.17 284.52 308.78 285.16 308.83C286.07 308.9 288.27 301.94 288.56 301.71C288.56 301.71 287.17 305.68 287.95 306.57C288.73 307.46 289.74 305 290.23 302.68C290.69 300.55 292.11 296.47 292.38 294.27C292.7 291.56 292.33 289.69 290.23 288.46C288.13 287.23 286.16 287.34 286.16 287.34H286.15Z" fill="#EBB376"/>
<path d="M234.3 224.33C233.42 223.79 201.74 225.46 195 220.75C186.57 214.85 177.81 197.92 177.81 197.92L184.11 196.03C184.11 196.03 196.62 209.3 199.73 211.51C202.84 213.72 236.57 212.2 236.57 212.2L234.3 224.34V224.33Z" fill="#EBB376"/>
<path d="M184.93 198.09C184.93 198.09 186.72 195.78 186.4 193.29C186.08 190.8 186.46 188.75 186.1 186.91C185.74 185.07 184.56 187.22 184.16 188.5C183.76 189.78 183.29 191.23 182.41 190.73C181.52 190.23 176.84 182.57 175.54 182.02C174.24 181.46 174.63 182.93 174.63 182.93C174.63 182.93 173.45 181.1 172.64 181.37C172.43 181.44 172.06 181.96 172.48 182.87C173.42 184.93 175.6 189.16 175.6 189.16C175.48 188.91 172.44 183.88 171.89 183.19C171.17 182.28 170.41 182.22 169.93 182.65C169.25 183.26 172.82 189.63 172.8 190C172.8 190 170.86 186.27 169.68 186.23C168.5 186.19 169.6 188.61 170.95 190.56C172.19 192.35 174.19 196.18 175.61 197.88C177.37 199.97 178.98 200.98 181.32 200.29C183.66 199.6 184.92 198.09 184.92 198.09H184.93Z" fill="#EBB376"/>
<path d="M287.42 415.12L282.09 404.73C282.09 404.73 268.2 407.26 268.94 407.31C269.68 407.36 278.64 419.63 278.64 419.63L286.51 421.48L287.43 415.12H287.42Z" fill="#EBB376"/>
<path d="M277.61 418.83L280.75 417.22C281.46 416.85 282.3 416.88 283.02 417.23C286.1 418.78 286.99 417.14 287.76 413.8C288.94 413.01 290.01 414.28 290.32 414.61L297.06 421.95C297.63 422.56 297.6 423.52 296.99 424.09C296.88 424.19 296.76 424.28 296.63 424.34C292.81 426.3 291.01 427.23 286.25 429.67L271.72 437.13C267.76 439.16 264.89 435.59 266.33 434.39C272.84 429 276.92 424.17 278.1 420.87C278.33 420.28 277.75 420.22 277.62 418.83H277.61Z" fill="#263238"/>
<path d="M274.42 424.15C275.4 423.62 276.32 422.98 277.17 422.26C277.24 422.18 277.24 422.06 277.17 421.98C277.13 421.94 277.07 421.92 277.01 421.93C276.46 421.94 271.58 422.12 270.96 423.33C270.84 423.55 270.85 423.81 270.99 424.02C271.2 424.42 271.6 424.7 272.05 424.77C272.89 424.82 273.72 424.61 274.43 424.16L274.42 424.15ZM276.43 422.34C275.38 423.15 273.37 424.55 272.14 424.34C271.82 424.28 271.53 424.08 271.37 423.79C271.3 423.71 271.3 423.59 271.35 423.5C271.7 422.84 274.43 422.46 276.44 422.34H276.43Z" fill="#4A8AEC"/>
<path d="M277.14 422.29C277.14 422.29 277.23 422.26 277.26 422.23C277.29 422.16 277.27 422.07 277.22 422.02C277.14 421.86 274.23 418.46 272.2 419.81C271.7 420.16 271.68 420.49 271.77 420.72C272.16 421.81 275.63 422.48 277.07 422.37L277.15 422.29H277.14ZM272.57 420.01C273.93 419.31 275.88 421.16 276.62 421.93C274.99 421.91 272.37 421.22 272.16 420.54C272.13 420.49 272.06 420.35 272.44 420.1L272.58 420.02L272.57 420.01Z" fill="#4A8AEC"/>
<path d="M280.23 422.97C280.23 422.97 280.14 422.96 280.1 422.93C279.1 422.34 277.85 422.22 276.76 422.6C276.63 422.65 276.49 422.58 276.44 422.45C276.39 422.32 276.46 422.18 276.59 422.13C277.82 421.69 279.23 421.83 280.35 422.5C280.47 422.57 280.51 422.72 280.44 422.84C280.39 422.92 280.31 422.96 280.23 422.96V422.97Z" fill="#4A8AEC"/>
<path d="M279.03 425.45C279.03 425.45 278.94 425.44 278.9 425.41C277.9 424.82 276.65 424.7 275.56 425.08C275.43 425.13 275.29 425.06 275.24 424.93C275.19 424.8 275.26 424.66 275.39 424.61C276.62 424.18 278.03 424.31 279.15 424.98C279.27 425.05 279.31 425.2 279.24 425.32C279.19 425.4 279.11 425.44 279.03 425.44V425.45Z" fill="#4A8AEC"/>
<path d="M277.23 427.93C277.23 427.93 277.14 427.92 277.1 427.89C276.1 427.3 274.85 427.18 273.76 427.56C273.63 427.61 273.49 427.54 273.44 427.41C273.39 427.28 273.46 427.14 273.59 427.09C274.82 426.66 276.23 426.79 277.35 427.46C277.47 427.53 277.51 427.68 277.44 427.8C277.39 427.88 277.31 427.92 277.23 427.92V427.93Z" fill="#4A8AEC"/>
<path d="M202.06 411.52L201.77 399.85C201.77 399.85 188.16 396.09 188.81 396.46C189.46 396.82 192.19 411.77 192.19 411.77L198.47 416.86L202.06 411.53V411.52Z" fill="#EBB376"/>
<path d="M191.61 410.59L195.14 410.5C195.94 410.48 196.69 410.87 197.18 411.5C199.29 414.23 200.79 413.14 202.94 410.47C204.34 410.27 204.76 411.88 204.89 412.31L207.77 421.85C208.02 422.65 207.58 423.49 206.78 423.74C206.64 423.78 206.49 423.81 206.34 423.81C202.05 423.92 200.02 423.96 194.68 424.1L178.35 424.5C173.9 424.61 172.87 420.14 174.69 419.68C182.89 417.66 188.67 415.09 191.16 412.62C191.62 412.19 191.13 411.89 191.61 410.57V410.59Z" fill="#263238"/>
<path d="M186.42 414C187.53 413.95 188.64 413.78 189.72 413.49C189.82 413.45 189.87 413.34 189.83 413.24C189.81 413.19 189.76 413.14 189.71 413.12C189.21 412.89 184.74 410.93 183.65 411.74C183.45 411.88 183.34 412.13 183.38 412.37C183.4 412.83 183.63 413.25 184.01 413.51C184.74 413.92 185.59 414.09 186.42 413.99V414ZM189.02 413.24C187.72 413.51 185.31 413.9 184.29 413.17C184.02 412.97 183.86 412.67 183.83 412.34C183.81 412.24 183.85 412.13 183.94 412.07C184.54 411.63 187.17 412.48 189.02 413.24Z" fill="#4A8AEC"/>
<path d="M189.68 413.5C189.68 413.5 189.77 413.51 189.82 413.5C189.88 413.45 189.9 413.36 189.87 413.29C189.87 413.11 188.72 408.78 186.31 409.12C185.71 409.22 185.55 409.51 185.53 409.75C185.41 410.91 188.24 413.02 189.58 413.54L189.68 413.5ZM186.56 409.46C188.09 409.42 189.04 411.94 189.37 412.95C187.91 412.22 185.85 410.46 185.96 409.76C185.96 409.7 185.96 409.54 186.4 409.48L186.56 409.46Z" fill="#4A8AEC"/>
<path d="M192.27 415.49C192.19 415.49 192.11 415.45 192.06 415.38C191.42 414.41 190.35 413.76 189.19 413.63C189.05 413.62 188.95 413.49 188.97 413.35C188.98 413.21 189.11 413.09 189.25 413.13C190.55 413.27 191.76 414.01 192.48 415.1C192.56 415.22 192.52 415.37 192.41 415.45C192.37 415.48 192.32 415.49 192.27 415.49Z" fill="#4A8AEC"/>
<path d="M190.12 417.2C190.04 417.2 189.96 417.16 189.91 417.09C189.27 416.12 188.2 415.47 187.04 415.34C186.9 415.33 186.8 415.2 186.82 415.06C186.83 414.92 186.96 414.82 187.1 414.84C188.4 414.98 189.6 415.72 190.33 416.81C190.41 416.93 190.37 417.08 190.26 417.16C190.22 417.19 190.17 417.2 190.12 417.2Z" fill="#4A8AEC"/>
<path d="M187.42 418.65C187.34 418.65 187.26 418.61 187.21 418.54C186.57 417.57 185.5 416.92 184.34 416.79C184.2 416.78 184.1 416.65 184.12 416.51C184.13 416.37 184.26 416.27 184.4 416.29C185.7 416.44 186.91 417.17 187.63 418.26C187.71 418.38 187.67 418.53 187.56 418.61C187.52 418.64 187.47 418.65 187.42 418.65Z" fill="#4A8AEC"/>
<path d="M281.62 281.04C281.62 281.04 281.65 285.21 273.82 286.47C264.14 288.03 228.54 274.49 228.54 274.49L273.73 275.53L281.61 281.04H281.62Z" fill="#263238"/>
<path opacity="0.3" d="M281.62 281.04C281.62 281.04 281.65 285.21 273.82 286.47C264.14 288.03 228.54 274.49 228.54 274.49L273.73 275.53L281.61 281.04H281.62Z" fill="black"/>
<path d="M266.97 270.72L207.15 342.96C205.18 366.03 204.65 403.68 204.65 403.68L187.68 403.16C187.68 403.16 183.19 367.98 184.28 338.51C184.37 336.16 185.35 333.95 186.42 331.86C198.35 308.51 234.85 264.19 234.85 264.19L266.96 270.72H266.97Z" fill="#4A8AEC"/>
<path opacity="0.2" d="M248.49 292.56C245.51 296.17 242.52 300.09 239.26 304.19C237.77 306.06 236.08 307.98 234.56 309.92C235.19 298.87 240.32 285.4 247.21 278.38C248.38 282.07 248.62 287.14 248.49 292.57V292.56Z" fill="black"/>
<path d="M272.02 271.78C280.58 290.81 266.28 289.03 258.39 350.65C260.01 352.96 284.63 407.17 284.63 407.17L271.11 414.31C271.11 414.31 247.19 379.5 237.28 362.54C234.74 358.2 234.82 352.93 235.1 347.91C237.23 310.66 244.68 266.18 244.68 266.18L272.01 271.77L272.02 271.78Z" fill="#4A8AEC"/>
<path d="M250.84 220.61C249.16 225.49 226.8 230 226.8 230L221.68 211.63C222.16 211.23 234.54 209.72 245.28 208.46C253.64 208.02 252.59 215.52 250.83 220.62L250.84 220.61Z" fill="#263238"/>
<path d="M258.54 209.19C264.71 210.03 270.82 211.27 276.83 212.9C282.51 214.4 287.47 215.07 287.81 220.21C279.86 237.63 276.71 245.98 274.33 255.38C272.35 263.16 281.06 271.2 281.63 281.04C261.76 273.76 247.35 287.21 225.94 273.65C228.61 269.81 233.19 260.91 233.63 257.66C235.26 245.59 233.5 235.07 234.94 228.2C236.74 219.63 246.86 208.44 246.86 208.44C246.86 208.44 250.55 208.32 258.55 209.19H258.54Z" fill="#263238"/>
<path d="M269.67 224.77C272.99 230.6 280.88 240.78 280.88 240.78L295.57 233.56C295.57 233.56 289.02 218.78 286.26 216.76C281.82 215.82 267 220.09 269.67 224.77Z" fill="#263238"/>
<path opacity="0.3" d="M234.93 228.2C235.65 225.61 235.92 225.01 238.56 221.42L225.65 225.87L226.81 229.99L234.94 228.19L234.93 228.2Z" fill="black"/>
<g opacity="0.3">
<path d="M177.45 164.53L177.42 164.82C177.66 167.15 179.51 169.22 181.79 169.73C184.07 170.25 186.63 169.17 187.85 167.17C188.24 166.54 188.5 165.76 188.24 165.06C188.24 165.04 188.21 165.02 188.21 165C186.62 163.8 184.64 163.08 182.5 163.08C180.65 163.08 178.93 163.62 177.46 164.53H177.45Z" fill="white"/>
</g>
<path d="M255.32 207.11C266.89 212.14 272.86 207.93 277.37 204.16L276.17 206.13C276.17 206.13 282.7 204.4 283.22 197.99C283.74 191.58 284.27 192.56 287.07 189.78C289.87 186.99 288.76 181.86 286.02 180.74C286.02 180.74 290.5 177.92 279.88 169.75C269.26 161.58 255.6 165.22 253.86 171.86C252.13 178.5 243.19 179.6 240.74 174.87C238.3 170.15 235.39 171.79 235.39 171.79C237.17 171.72 238.79 172.84 239.36 174.53C239.98 176.18 241.09 177.61 242.53 178.63C240.24 178.06 238.17 176.86 236.53 175.16C233.67 172.27 230.36 167.91 235.19 165.12C235.19 165.12 230.41 162.81 226.69 168.49C222.97 174.17 225.32 180.43 230.72 186.1C230.72 186.1 222.1 179.65 223.68 175.61C223.68 175.61 218.7 180.75 227.64 191.58C227.64 191.58 236.96 203.57 246.75 205.95C256.54 208.33 255.32 207.11 255.32 207.11Z" fill="#263238"/>
<path d="M271.71 211.24C271.71 211.24 268.07 212.21 262.95 214.49C261.88 214.97 260.76 215.32 259.61 215.54C256.52 216.15 253.84 216.23 253.57 214.75C253.51 214.42 253.49 214.08 253.5 213.74C253.59 211.42 254.73 208.46 256.88 207.6C259.31 206.63 260.66 205.58 260.94 203.36C261.11 202.11 261.05 200.74 260.91 199.38L263 198.04L273.52 192.32C271.68 197.7 268.34 207.01 271.7 211.24H271.71Z" fill="#EBB376"/>
<path opacity="0.2" d="M260.87 203.84C263.49 203.19 266.61 201.64 267.1 198.94C267.3 197.8 267.38 196.69 267.31 195.94L261 200.56C261.08 201.63 261.02 202.31 260.86 203.85L260.87 203.84Z" fill="black"/>
<path d="M278.44 184.27C275.19 192.34 273.98 195.81 268.39 198.87C259.98 203.48 250.74 198.3 251.51 189.56C252.2 181.7 257.4 169.83 266.6 168.79C275.66 167.77 281.7 176.2 278.44 184.26V184.27Z" fill="#EBB376"/>
<path d="M267.32 183.78C267.04 184.54 266.37 185.04 265.83 184.89C265.28 184.74 265.06 183.99 265.34 183.23C265.62 182.47 266.29 181.97 266.83 182.12C267.38 182.27 267.6 183.02 267.32 183.78Z" fill="#263238"/>
<path d="M258.76 181.07C258.49 181.81 257.83 182.29 257.28 182.13C256.73 181.98 256.51 181.26 256.78 180.52C257.05 179.78 257.71 179.3 258.26 179.46C258.81 179.61 259.03 180.33 258.76 181.07Z" fill="#263238"/>
<path d="M269.53 181.2C269.42 181.18 269.32 181.12 269.26 181.02C268.34 179.45 266.77 179.44 266.76 179.44C266.53 179.44 266.35 179.25 266.37 179.02C266.39 178.79 266.59 178.6 266.83 178.6C266.91 178.6 268.88 178.62 270.02 180.57C270.13 180.76 270.06 181.02 269.85 181.15C269.75 181.21 269.64 181.23 269.54 181.21L269.53 181.2Z" fill="#263238"/>
<path d="M257.09 177.01C256.98 177.01 256.88 176.96 256.81 176.88C256.66 176.71 256.69 176.45 256.87 176.29C258.7 174.7 260.58 175.14 260.66 175.16C260.88 175.21 261.01 175.44 260.94 175.67C260.87 175.89 260.63 176.03 260.4 175.98C260.33 175.96 258.86 175.65 257.4 176.91C257.31 176.99 257.19 177.03 257.08 177.02L257.09 177.01Z" fill="#263238"/>
<path d="M258.41 189.81C258.77 191.05 258.98 193.31 258.98 193.31C259.19 193.33 259.4 193.35 259.6 193.35C262.43 193.53 263.8 192.67 264.46 191.68C264.82 191.13 264.96 190.53 265.01 190.04C265.07 189.47 264.99 189.05 264.99 189.05C263.44 189.85 260.79 189.89 259.37 189.85C258.78 189.85 258.41 189.81 258.41 189.81Z" fill="#263238"/>
<path d="M259.38 189.85L259.57 190.88C262.23 191.04 264.13 190.79 265.01 190.04C265.07 189.47 264.99 189.05 264.99 189.05C263.44 189.85 260.79 189.89 259.37 189.85H259.38Z" fill="white"/>
<path d="M259.61 193.35C262.44 193.53 263.81 192.67 264.47 191.68C263.5 191.66 262.34 191.74 261.29 192.11C260.49 192.39 259.97 192.87 259.61 193.36V193.35Z" fill="#DC5753"/>
<path d="M261.06 181.52C261.06 181.52 258.83 184.23 256.78 185.73C256.42 185.99 256.43 186.53 256.78 186.8C257.69 187.48 258.99 187.5 258.99 187.5L261.05 181.52H261.06Z" fill="#D58745"/>
<path d="M267 182.15L265.23 181.13C265.23 181.13 265.84 182.86 267 182.15Z" fill="#263238"/>
<path d="M258.45 179.54L256.68 178.52C256.68 178.52 257.29 180.25 258.45 179.54Z" fill="#263238"/>
<path d="M255.04 175.89C263.13 177.37 273.13 172.19 274.92 173C272.91 173.35 272.66 176.67 272.91 177.8C274.59 185.05 271.09 188.47 275.34 190.65C283.69 194.92 282.64 176.72 277.67 172.82C277.28 172.51 277.67 172.82 277.23 172.58C279.49 164.35 263.08 166.35 258.89 168.88" fill="#263238"/>
<path d="M278.92 191.78C277.43 193.19 275.52 193.78 273.95 193.7C271.59 193.59 271.52 189.72 272.93 187.74C274.2 185.96 276.75 185.3 278.76 186.37C280.74 187.43 280.63 190.16 278.93 191.77L278.92 191.78Z" fill="#EBB376"/>
<path opacity="0.2" d="M274.06 190.31C274.06 190.31 274 190.31 273.97 190.29C273.84 190.24 273.78 190.09 273.83 189.96C274.16 189.15 274.79 188.45 275.58 188.05C276.36 187.65 277.3 187.55 278.15 187.78C278.28 187.81 278.36 187.95 278.33 188.08C278.29 188.21 278.16 188.3 278.02 188.26C277.29 188.07 276.48 188.16 275.8 188.5C275.12 188.84 274.57 189.44 274.29 190.15C274.25 190.25 274.16 190.31 274.06 190.31Z" fill="black"/>
<path d="M253.46 176.48C255.23 174.88 257.99 174.66 260.44 174.98C262.89 175.3 266.57 175.98 269.32 176.94C271.5 177.83 271.99 179.62 272.28 181.68C272.57 183.74 271.8 185.97 270.06 187.29C268.32 188.62 265.62 188.86 263.79 187.66C262.18 186.6 261.09 184.51 259.1 184.54C257.15 184.57 255.68 186.77 253.77 186.45C252.12 186.17 251.56 184.27 251.49 182.73C251.39 180.5 251.72 178.05 253.46 176.48Z" fill="#4A8AEC"/>
<path d="M253.93 176.77C255.53 175.43 257.96 175.41 260.17 175.67C262.38 175.93 265.63 176.56 268.1 177.36C270.06 178.1 270.62 179.36 270.88 181.08C271.14 182.8 270.44 184.66 268.87 185.78C267.3 186.89 265.75 186.96 264.11 185.96C262.66 185.08 261.28 182.82 259.49 182.85C257.74 182.88 255.48 185.41 253.75 185.14C252.26 184.91 252.12 182.78 252.06 181.49C251.98 179.63 252.36 178.09 253.92 176.77H253.93Z" fill="#263238"/>
<path d="M276.81 185.82L271.54 178.9L270.9 184.31L273.65 186.96C273.65 186.96 274.77 185.92 276.81 185.81V185.82Z" fill="#4A8AEC"/>
<path opacity="0.3" d="M261.63 175.87L270.07 184.57C270.07 184.57 269.44 185.6 268.11 186.24L258.41 175.54C258.41 175.54 258.54 175.55 258.76 175.54C259.46 175.53 261.65 175.84 261.64 175.87H261.63Z" fill="white"/>
<path opacity="0.3" d="M260.05 182.91L255.3 175.98C255.3 175.98 254.97 176.09 254.54 176.35C254.35 176.46 254.11 176.61 253.94 176.76L258.08 183.26C258.08 183.26 259.12 182.64 260.07 182.9L260.05 182.91Z" fill="white"/>
<path opacity="0.2" d="M271.76 185.15C271.63 185.25 272.57 182.42 271.96 180.65C271.96 180.65 273.68 183.58 272.66 186.01L271.76 185.14V185.15Z" fill="black"/>
<path d="M127.57 355.89C127.49 355.58 125.6 340.5 125.6 340.5C125.6 340.5 140.25 336.95 140.35 337.36C140.45 337.77 139.56 355.56 139.56 355.56L133.71 359.89L127.56 355.9L127.57 355.89Z" fill="#B97964"/>
<path d="M142.08 356.51C142.16 355.1 142.03 353.92 140.51 353.89L138.36 353.84C137.55 353.87 136.99 354.42 136.35 354.9C131.55 358.47 129.39 354.12 127.49 354.19C125.04 354.26 126.86 362.04 126.76 362.46L124.37 371.63C124.16 372.4 124.68 374.02 125.5 374.21C125.65 374.24 125.8 374.26 125.95 374.25C130.3 374.11 132.35 374.05 137.76 373.88L154.31 373.36C158.82 373.22 158.7 367.69 156.83 367.36C148.42 365.9 145.04 363.27 142.22 361.36C142.22 361.36 141.96 358.71 142.07 356.53L142.08 356.51Z" fill="#4A8AEC"/>
<path opacity="0.4" d="M154.32 373.34L137.77 373.86C132.36 374.03 130.3 374.1 125.96 374.23C125.81 374.23 125.66 374.23 125.51 374.19C124.95 374.06 124.54 373.27 124.39 372.54V371.85L157.86 370.79C157.46 372.09 156.37 373.27 154.32 373.34Z" fill="white"/>
<path d="M146.23 364C145.52 364.69 144.94 365.52 144.53 366.42C144.45 366.6 144.47 366.83 144.66 366.93C144.82 367.02 145.09 366.99 145.17 366.8C145.37 366.37 145.6 365.96 145.87 365.57C146.01 365.37 146.1 365.25 146.26 365.06C146.42 364.87 146.58 364.7 146.75 364.53C146.89 364.39 146.9 364.14 146.75 364C146.6 363.86 146.37 363.85 146.22 364H146.23Z" fill="#263238"/>
<path d="M143.57 362.5C142.92 363.16 142.37 363.92 141.96 364.75C141.87 364.93 141.91 365.16 142.09 365.26C142.26 365.35 142.51 365.31 142.6 365.13C142.8 364.74 143.02 364.36 143.28 364C143.31 363.96 143.34 363.92 143.37 363.88L143.43 363.8C143.43 363.8 143.48 363.74 143.46 363.76C143.44 363.78 143.48 363.73 143.49 363.72L143.55 363.65C143.55 363.65 143.61 363.57 143.65 363.53C143.8 363.36 143.95 363.19 144.11 363.03C144.25 362.89 144.26 362.64 144.11 362.5C143.96 362.36 143.73 362.35 143.58 362.5H143.57Z" fill="#263238"/>
<path d="M141.75 361.13C141.08 361.52 140.53 362.12 140.22 362.83C140.18 362.93 140.15 363.01 140.18 363.12C140.2 363.21 140.27 363.3 140.35 363.34C140.51 363.43 140.78 363.4 140.86 363.21C140.93 363.05 141.01 362.9 141.1 362.75C141.15 362.68 141.2 362.61 141.25 362.54C141.29 362.49 141.25 362.52 141.25 362.54C141.25 362.52 141.28 362.5 141.29 362.49C141.32 362.45 141.35 362.42 141.38 362.39C141.49 362.26 141.61 362.15 141.74 362.04L141.79 362L141.82 361.98C141.82 361.98 141.83 361.97 141.79 362C141.81 361.97 141.86 361.94 141.89 361.93C141.96 361.88 142.04 361.83 142.12 361.78C142.29 361.68 142.36 361.44 142.25 361.27C142.14 361.1 141.92 361.03 141.74 361.14L141.75 361.13Z" fill="#263238"/>
<path d="M141.85 358.19C141.02 358.23 140.22 358.42 139.46 358.77C139.28 358.85 139.22 359.13 139.33 359.28C139.45 359.47 139.65 359.5 139.84 359.41C139.94 359.36 139.94 359.36 140.05 359.32C140.14 359.29 140.23 359.25 140.32 359.22C140.49 359.16 140.66 359.12 140.83 359.07C141 359.02 141.17 359 141.35 358.97C141.4 358.97 141.4 358.97 141.37 358.97H141.43C141.43 358.97 141.52 358.95 141.57 358.95C141.66 358.95 141.76 358.94 141.85 358.93C142.05 358.93 142.23 358.76 142.23 358.55C142.23 358.35 142.06 358.17 141.85 358.17V358.19Z" fill="#263238"/>
<g opacity="0.3">
<path d="M133.77 359.37C133.75 360.18 133.49 361.08 132.79 361.48C132.35 361.73 131.82 361.73 131.32 361.74C129.81 361.74 128.31 361.74 126.8 361.75L126.78 361.71C126.47 359.58 125.67 354.38 127.54 354.33C129.01 354.28 130.64 357.23 133.69 356.26C133.7 357.39 133.79 358.83 133.78 359.38L133.77 359.37Z" fill="black"/>
</g>
<path d="M88.31 377.64C88.26 377.32 87.76 362.13 87.76 362.13C87.76 362.13 102.67 359.93 102.74 360.35C102.8 360.77 100.29 378.41 100.29 378.41L94.07 382.18L88.31 377.64Z" fill="#B97964"/>
<path d="M102.7 379.58C102.9 378.18 102.88 377 101.38 376.82L99.25 376.57C98.44 376.52 97.83 377.03 97.16 377.44C92.05 380.56 90.3 376.03 88.4 375.92C85.95 375.77 87.06 383.68 86.92 384.09L83.7 393C83.42 393.74 83.79 395.41 84.59 395.67C84.73 395.72 84.88 395.74 85.03 395.75C89.37 396.01 91.43 396.13 96.83 396.46L113.36 397.45C117.86 397.72 118.25 392.21 116.42 391.7C108.18 389.48 105.05 386.55 102.42 384.39C102.42 384.39 102.4 381.72 102.71 379.57L102.7 379.58Z" fill="#4A8AEC"/>
<path opacity="0.4" d="M113.34 397.45L96.8099 396.46C91.4099 396.14 89.3499 396.01 85.0099 395.75C84.8599 395.75 84.7099 395.72 84.5699 395.67C84.0299 395.49 83.6899 394.67 83.6099 393.92L83.6599 393.23L117.1 395.24C116.58 396.5 115.39 397.57 113.34 397.45Z" fill="white"/>
<path d="M106.12 387.44C105.35 388.07 104.7 388.84 104.21 389.7C104.11 389.87 104.16 390.12 104.34 390.21C104.52 390.3 104.75 390.26 104.85 390.08C104.97 389.87 105.09 389.67 105.23 389.48C105.26 389.43 105.29 389.39 105.33 389.34L105.39 389.26C105.39 389.26 105.45 389.18 105.43 389.21C105.41 389.24 105.47 389.16 105.47 389.16L105.52 389.1C105.52 389.1 105.6 389 105.64 388.96C105.95 388.6 106.29 388.27 106.65 387.97C106.8 387.85 106.79 387.57 106.65 387.44C106.49 387.29 106.28 387.31 106.12 387.44Z" fill="#263238"/>
<path d="M103.61 385.7C102.9 386.3 102.29 387.01 101.81 387.8C101.71 387.97 101.77 388.22 101.94 388.31C102.11 388.4 102.34 388.35 102.45 388.18C102.56 388.01 102.69 387.81 102.81 387.64C102.84 387.59 102.88 387.55 102.92 387.5C102.96 387.45 102.89 387.54 102.92 387.5C102.94 387.48 102.96 387.45 102.97 387.43C103.04 387.34 103.11 387.26 103.18 387.17C103.47 386.84 103.78 386.53 104.12 386.24C104.27 386.11 104.26 385.84 104.12 385.71C103.96 385.56 103.75 385.57 103.59 385.71L103.61 385.7Z" fill="#263238"/>
<path d="M101.92 384.16C101.22 384.49 100.63 385.05 100.26 385.73C100.16 385.9 100.21 386.15 100.39 386.24C100.57 386.33 100.8 386.29 100.9 386.11C100.94 386.03 100.99 385.96 101.04 385.88C101.06 385.85 101.09 385.81 101.11 385.78L101.15 385.72C101.19 385.66 101.11 385.76 101.15 385.72C101.26 385.58 101.37 385.46 101.5 385.34C101.56 385.28 101.63 385.23 101.69 385.17C101.73 385.14 101.71 385.15 101.69 385.17C101.71 385.16 101.73 385.14 101.75 385.13C101.78 385.11 101.82 385.08 101.85 385.06C102 384.96 102.15 384.87 102.31 384.8C102.49 384.72 102.55 384.45 102.44 384.29C102.32 384.11 102.12 384.07 101.93 384.16H101.92Z" fill="#263238"/>
<path d="M102.28 381.22C101.49 381.18 100.69 381.3 99.9399 381.56C99.7599 381.62 99.6099 381.82 99.6799 382.02C99.7399 382.2 99.9399 382.35 100.14 382.28C100.49 382.16 100.86 382.07 101.22 382.01C101.25 382.01 101.25 382.01 101.22 382.01H101.3C101.3 382.01 101.38 381.99 101.43 381.99C101.52 381.99 101.61 381.98 101.7 381.97C101.89 381.97 102.08 381.97 102.27 381.97C102.46 381.97 102.65 381.79 102.65 381.59C102.65 381.38 102.49 381.22 102.27 381.21L102.28 381.22Z" fill="#263238"/>
<g opacity="0.3">
<path d="M94.16 381.66C94.07 382.47 93.73 383.34 92.99 383.67C92.53 383.88 92 383.84 91.5 383.79C90 383.66 88.5 383.52 87 383.39L86.98 383.35C86.87 381.2 86.55 375.95 88.41 376.07C89.88 376.16 91.24 379.24 94.36 378.55C94.27 379.68 94.23 381.12 94.16 381.66Z" fill="black"/>
</g>
<path d="M132.22 117.43C137.4 116.27 142.53 119.53 143.69 124.7C144.85 129.88 141.59 135.01 136.42 136.17C131.24 137.33 126.11 134.07 124.95 128.9V128.87C123.81 123.7 127.06 118.59 132.22 117.43Z" fill="#4A8AEC"/>
<path opacity="0.5" d="M132.22 117.43C137.4 116.27 142.53 119.53 143.69 124.7C144.85 129.88 141.59 135.01 136.42 136.17C131.24 137.33 126.11 134.07 124.95 128.9V128.87C123.81 123.7 127.06 118.59 132.22 117.43Z" fill="white"/>
<path opacity="0.1" d="M142.92 122.57C142.74 122.85 142.59 122.46 141.97 122.78C141.37 123.05 140.72 123.2 140.06 123.24L139.92 123.51C139.79 123.79 138.61 123.33 138.61 122.88C138.61 122.43 138.61 122.88 139.52 122.61C140.43 122.34 139.52 122.61 139.6 121.96C139.68 121.31 139.34 121.6 138.97 121.14C138.77 120.87 138.39 120.82 138.12 121.02C137.84 121.18 137.88 121.5 137.61 121.57C137.34 121.64 137.46 121.8 137.34 121.89C137.22 121.98 137.04 121.89 136.88 121.89C136.72 121.89 136.53 121.76 136.44 121.89C136.35 122.02 136.37 122.05 136.35 122.12C136.25 122.13 136.15 122.13 136.05 122.12C135.98 122.12 135.9 122.03 135.9 121.97C135.9 121.93 135.9 121.89 135.9 121.85C135.95 121.73 136.02 121.63 136.1 121.53C136.18 121.43 136.32 121.39 136.44 121.44C136.47 121.33 136.44 121.21 136.35 121.14H136.72C136.81 121.14 137.08 120.37 137.11 120.25C137.11 120.15 137.06 120.06 136.98 120C136.88 119.94 136.75 120 136.62 120C136.49 120 136.22 119.64 135.98 119.67C135.92 119.69 135.86 119.72 135.8 119.75L135.51 119.96C135.51 119.96 135.42 120.01 135.38 120.05C135.38 120.11 135.38 120.17 135.38 120.24C135.37 120.3 135.33 120.34 135.28 120.36C135.5 120.36 135.2 120.58 135.15 120.59C134.92 120.67 134.46 120.51 134.19 120.48C134.15 120.5 134.09 120.5 134.05 120.48C134.05 120.45 134.05 120.41 134.05 120.38C133.98 120.22 133.92 120.04 133.86 119.88C133.8 119.72 133.67 119.12 133.96 118.96C134.25 118.8 134.58 118.96 134.67 118.66C134.68 118.62 134.7 118.59 134.73 118.57C134.81 118.5 134.91 118.66 134.89 118.78C134.86 118.96 134.86 119.16 134.89 119.34C134.96 119.53 135.21 119.64 135.35 119.53C135.26 119.39 135.44 119.23 135.61 119.23C135.78 119.23 135.96 119.31 136.11 119.23C136.24 119.15 136.31 118.99 136.27 118.83C136.24 118.68 136.17 118.53 136.07 118.41C135.87 118.49 135.64 118.46 135.47 118.33C135.33 118.22 135.19 118.04 135.03 118.11C135.1 118.03 135.16 117.95 135.22 117.86C135.11 117.81 135.01 117.76 134.89 117.72C134.79 117.66 134.68 117.54 134.74 117.43C134.76 117.39 134.79 117.37 134.82 117.35C135.44 117.37 136.05 117.46 136.64 117.62C136.45 117.97 136.41 118.61 137.28 118.93C138.55 119.39 137.28 118.93 138.45 118.3C139.37 118.74 140.21 119.32 140.95 120.03L140.44 120.4C139.9 120.76 140.61 120.95 140.61 120.95H141.35C141.75 120.95 141.71 120.95 141.74 120.87C142.2 121.39 142.6 121.97 142.93 122.59L142.92 122.57Z" fill="black"/>
<path opacity="0.2" d="M128.55 123.19C128.55 123.19 128.55 123.28 128.55 123.33C128.48 123.58 128.12 123.49 127.87 123.56C127.36 123.72 127.48 124.62 126.98 124.86C126.73 124.97 126.44 124.86 126.2 124.97C126.04 125.09 125.89 125.22 125.76 125.38C125.5 125.62 125.14 125.72 124.79 125.66C124.99 123.85 125.72 122.14 126.88 120.74C126.97 120.72 127.07 120.72 127.16 120.74C127.34 120.8 127.47 120.97 127.5 121.16C127.53 121.35 127.53 121.55 127.5 121.74L127.87 121.46C128.04 121.57 128.08 121.79 127.97 121.96C127.85 122.14 127.62 122.16 127.41 122.19C127.2 122.22 126.97 122.34 126.95 122.54C126.93 122.74 127.07 122.86 127.17 122.98C127.27 123.1 127.38 123.31 127.29 123.45L128.11 122.97C128.11 122.97 128.21 122.92 128.26 122.91C128.41 122.92 128.54 123.04 128.55 123.19Z" fill="black"/>
<path opacity="0.2" d="M129.14 121.92L129.07 122.14C129.28 122.22 129.5 122.22 129.71 122.14C129.78 122.11 129.84 122.07 129.89 122.01C129.97 121.9 130.02 121.77 130.03 121.64C130.05 121.47 130.05 121.29 130.03 121.11C130.01 120.93 129.9 120.78 129.75 120.69C129.59 120.6 129.39 120.66 129.29 120.82C129.22 120.97 129.29 121.16 129.21 121.31C129.13 121.46 128.98 121.5 128.93 121.63C128.9 121.75 128.97 121.88 129.1 121.91C129.11 121.91 129.13 121.91 129.14 121.91V121.92Z" fill="black"/>
<path opacity="0.2" d="M133.21 117.97C132.92 118.22 132.45 117.89 132.1 118.05C131.75 118.21 131.82 118.39 131.62 118.42C131.51 118.42 131.4 118.42 131.29 118.42C131.17 118.42 131.06 118.5 131.07 118.61C131.08 118.66 131.11 118.7 131.15 118.74L131.44 119.01C131.44 119.01 131.51 119.09 131.53 119.13C131.57 119.26 131.51 119.4 131.38 119.44H131.37C131.24 119.48 131.11 119.48 130.98 119.44C130.9 119.44 130.82 119.41 130.75 119.38C130.68 119.38 130.63 119.23 130.68 119.16L130.76 119.08C130.84 119.01 130.87 118.9 130.85 118.8C130.84 118.69 130.74 118.6 130.63 118.6L130.48 118.67L129.98 118.97C129.75 119.1 129.45 119.24 129.22 119.12C129.18 119.12 129.14 119.09 129.12 119.05V118.9C129.14 118.84 129.14 118.77 129.12 118.71C130.06 118.09 131.11 117.65 132.21 117.41C132.57 117.33 132.93 117.27 133.3 117.23C133.37 117.5 133.39 117.8 133.21 117.95V117.97Z" fill="black"/>
<path opacity="0.2" d="M131.24 120.41C131.14 120.37 131.02 120.42 130.98 120.53C130.98 120.55 130.97 120.57 130.97 120.59L131.09 120.78V120.67C131.09 120.78 131.22 120.88 131.31 120.8C131.39 120.71 131.39 120.57 131.31 120.47L131.24 120.41Z" fill="black"/>
<path opacity="0.2" d="M135.48 123.17C135.33 123.01 135.06 123.06 134.83 123.09C134.6 123.11 134.3 123 134.32 122.77C134.33 122.55 134.57 122.49 134.76 122.48C134.78 122.16 134.53 121.88 134.21 121.86C134.19 121.86 134.17 121.86 134.15 121.86C134.23 122.05 134.23 122.26 134.15 122.44C134.08 122.62 133.87 122.7 133.69 122.63C133.68 122.63 133.67 122.62 133.66 122.61C133.37 122.39 133.73 121.8 133.45 121.57C133.3 121.5 133.12 121.5 132.97 121.57C132.41 121.7 131.8 121.9 131.58 122.43C131.58 122.49 131.11 122.43 130.97 122.43C130.83 122.43 130.75 122.86 130.72 123.01C130.69 123.09 130.69 123.18 130.72 123.27C130.72 123.36 130.87 123.46 130.82 123.55C130.77 123.64 130.7 123.62 130.66 123.68C130.61 123.74 130.96 124.26 131.08 124.32C131.2 124.38 131.52 124.32 131.75 124.43C131.91 124.55 131.99 124.76 131.95 124.96H131.74C131.85 125.25 131.76 125.57 131.51 125.75C131.81 125.69 132.12 125.79 132.34 126.01C132.34 126.01 132.45 126.13 132.52 126.13C132.57 126.13 132.61 126.1 132.65 126.07C132.88 125.93 133.05 125.7 133.12 125.44H133.35C133.35 125.31 133.35 125.1 133.21 125.15C133.07 125.2 133.21 125.15 133.13 125.22C133.05 125.29 132.83 125.22 132.81 125.02C132.81 124.87 132.88 124.72 132.97 124.6C133.03 124.53 133.08 124.45 133.13 124.37C133.24 124.18 133.41 124.03 133.62 123.96C133.98 123.88 134.27 124.26 134.45 124.59C134.52 124.73 134.55 124.95 134.45 124.98C134.34 125 134.29 124.92 134.23 124.98C134.17 125.04 134.23 125.17 134.11 125.23C133.99 125.29 133.98 125.23 133.92 125.23C133.86 125.23 133.79 125.5 133.92 125.64C134.05 125.78 134.09 125.56 134.19 125.5C134.29 125.44 134.63 125.59 134.84 125.5C135.05 125.41 135.01 125.32 135.1 125.24C135.18 125.16 135.73 124.97 135.77 124.67C135.81 124.37 135.65 124.34 135.62 124.17C135.59 123.99 135.7 123.4 135.48 123.18V123.17Z" fill="black"/>
<path opacity="0.1" d="M128.59 125.44C128.69 125.46 128.79 125.46 128.88 125.44C129.02 125.44 129.48 125.57 129.29 125.83C129.1 126.09 128.81 125.54 128.57 125.68C128.71 125.68 128.7 125.95 128.63 126.09C128.56 126.23 128.48 126.41 128.57 126.53C128.76 126.45 128.94 126.62 129.15 126.67C129.36 126.72 129.68 126.52 129.94 126.57V126.27C129.94 126.16 130.14 126.19 130.23 126.12C130.32 126.05 130.44 125.97 130.53 126.04C130.62 126.11 130.53 125.81 130.53 125.7C130.44 125.62 130.36 125.53 130.29 125.43C130.23 125.32 130.29 125.16 130.36 125.13C130.43 125.1 130.58 125.13 130.68 125.13C130.76 125.08 130.8 125 130.8 124.91C130.8 124.82 130.8 124.73 130.8 124.64H130.58C130.6 124.74 130.55 124.83 130.45 124.86C130.36 124.88 130.26 124.88 130.17 124.86C130.21 124.59 130.17 124.31 130.07 124.05H129.78C129.78 124.17 129.65 124.24 129.54 124.24C129.43 124.22 129.33 124.16 129.25 124.09C129.19 124.03 129.12 123.97 129.04 124C128.96 124.02 128.89 124.15 128.9 124.27C128.9 124.69 128.73 124.59 128.55 124.82C128.39 125.02 128.42 125.3 128.61 125.46L128.59 125.44Z" fill="black"/>
<path opacity="0.1" d="M128.79 129.48C128.56 129.52 128.32 129.48 128.1 129.39C128.01 129.33 127.89 129.26 127.78 129.32C127.69 129.38 127.64 129.49 127.66 129.6C127.66 129.69 127.76 129.79 127.8 129.89C127.93 130.16 127.93 130.48 127.8 130.75C127.34 130.84 126.87 130.73 126.49 130.45C126.45 130.41 126.42 130.37 126.38 130.32C126.3 130.13 126.56 129.92 126.51 129.74C126.46 129.55 126.1 129.41 126.22 129.24C126.34 129.07 126.44 129.17 126.55 129.12C126.67 129.06 126.72 128.91 126.66 128.79C126.38 128.65 126.05 128.74 125.88 129C125.68 129 125.62 128.71 125.61 128.52C125.6 128.33 125.47 128.05 125.27 128.12C125.2 128.15 125.15 128.22 125.14 128.3C124.99 128.74 125.35 129.16 125.68 129.47C125.77 129.54 125.83 129.63 125.84 129.74C125.84 129.86 125.77 129.99 125.65 129.96L126.06 130.42C126.06 130.42 126.11 130.52 126.12 130.57C126.12 130.6 126.12 130.64 126.12 130.68C126.01 130.83 125.9 130.99 125.8 131.15C125.41 130.42 125.13 129.63 124.96 128.82C124.8 128.08 124.73 127.32 124.74 126.57C124.8 126.47 124.89 126.39 125 126.34C125.13 126.34 125.28 126.34 125.4 126.27C125.69 126.19 125.82 125.81 126.11 125.7C126.35 125.62 126.61 125.7 126.76 125.89C126.91 126.09 126.96 126.36 126.9 126.6C126.83 126.79 126.8 126.99 126.83 127.18C126.95 127.52 127.37 127.55 127.72 127.54C127.68 127.76 127.79 127.97 127.99 128.07C128.17 128.13 128.37 128.03 128.43 127.84C128.43 127.82 128.44 127.8 128.44 127.77C128.66 127.77 128.94 127.91 128.94 128.14C128.9 128.28 128.81 128.41 128.68 128.49C128.59 128.61 128.5 128.78 128.6 128.9C128.69 129.02 129.01 128.9 129.09 129.1C129.17 129.3 128.93 129.47 128.77 129.5L128.79 129.48Z" fill="black"/>
<path opacity="0.2" d="M136.4 136.18H136.1C136.04 135.99 136.06 135.79 136.16 135.62C136.29 135.43 136.52 135.3 136.63 135.09C136.68 134.95 136.74 134.81 136.82 134.68C137.02 134.36 137.49 134.39 137.86 134.45C137.77 134.27 137.83 134.05 138.01 133.96C138.2 133.89 138.39 133.86 138.59 133.87C138.78 133.89 138.98 133.83 139.13 133.71C139.13 133.65 139.22 133.57 139.29 133.55H139.45L140.5 133.68C140.5 133.42 140.22 133.28 139.97 133.26C139.72 133.24 139.43 133.26 139.32 133C139.04 133.45 138.5 133.66 137.99 133.5C137.96 133.51 137.93 133.51 137.9 133.5C137.79 133.36 138.16 133.18 138.04 133.07L137.54 132.87C137.47 132.87 137.39 132.81 137.35 132.74C137.32 132.67 137.35 132.48 137.45 132.35C137.55 132.22 137.39 131.84 137.32 131.58C137.25 131.32 137.32 130.95 137.61 130.95H137.78C137.78 130.95 137.9 130.76 137.92 130.66C137.99 130.34 138.31 130.16 138.57 129.97C138.65 129.91 138.72 129.84 138.79 129.76C139.04 129.52 139.19 129.2 139.21 128.85C138.98 128.99 138.79 129.18 138.64 129.4C138.45 129.61 138.17 129.79 137.93 129.66C137.98 130 137.78 130.32 137.45 130.43C137.12 130.51 136.78 130.33 136.66 130.01C136.6 129.92 136.6 129.8 136.66 129.71C136.75 129.68 136.86 129.68 136.95 129.71C137.26 129.73 137.56 129.58 137.72 129.31C137.36 129.31 137.02 129.14 136.81 128.84C136.63 128.52 136.72 128.11 137.03 127.91H136.8C136.87 127.62 137.11 127.39 137.41 127.34H137.84C137.98 127.31 138.09 127.19 138.11 127.05C137.95 126.94 137.85 126.75 137.88 126.56C137.92 126.4 138.03 126.26 138.18 126.2C138.09 126.2 138.02 126.13 138.01 126.05C138.01 125.93 138.09 125.82 138.21 125.79C138.33 125.76 138.46 125.76 138.58 125.79C138.9 125.81 139.19 125.95 139.41 126.19C139.52 126.39 139.56 126.63 139.54 126.86V127.77C139.5 128.07 139.6 128.37 139.81 128.59C139.95 128.68 140.12 128.72 140.29 128.71C140.78 128.71 141.26 128.61 141.71 128.42C141.95 128.34 142.15 128.17 142.28 127.95C142.38 127.73 142.42 127.48 142.4 127.24C142.4 126.75 142.49 125.97 141.99 125.66C141.84 125.57 141.66 125.57 141.51 125.66C141.42 125.73 141.35 125.84 141.24 125.87C141.13 125.9 140.9 125.81 140.76 125.87C140.62 125.93 140.63 126.02 140.56 126.11C140.51 126.21 140.4 126.26 140.29 126.23C140.19 126.17 140.29 126 140.29 125.87C140.29 125.74 140.09 125.37 140.14 125.11C140.19 124.85 140.43 124.71 140.6 124.53C140.75 124.36 140.88 124.17 140.99 123.96C141.14 123.89 141.32 123.96 141.46 124.1C141.59 124.21 141.77 124.25 141.94 124.19C142.07 124.35 141.87 124.66 142.06 124.79H142.14C142.16 124.85 142.16 124.92 142.14 124.99C142.14 125.22 142.26 125.5 142.49 125.57H142.58C142.58 125.57 142.58 125.57 142.58 125.5C142.63 125.19 142.56 124.88 142.38 124.62C142.35 124.56 142.32 124.51 142.3 124.44C142.28 124.38 142.28 124.32 142.3 124.26C142.31 124.19 142.34 124.12 142.37 124.06C142.37 124.02 142.37 123.98 142.37 123.94C142.45 123.87 142.57 123.94 142.66 123.94C142.75 123.92 142.84 123.89 142.92 123.83C143.04 123.78 143.17 123.78 143.29 123.83C143.37 124.11 143.45 124.4 143.52 124.69C144.7 129.82 141.52 134.94 136.4 136.17V136.18Z" fill="black"/>
<path opacity="0.2" d="M134.98 133.16C134.94 133.35 134.94 133.55 134.98 133.74C134.76 133.88 134.49 133.92 134.23 133.86C134.04 134.36 134.27 134.92 134.74 135.16C134.58 135.29 134.37 135.33 134.18 135.27C134 135.19 133.83 135.08 133.69 134.94L132.52 134.04C132.33 134.11 132.45 134.4 132.64 134.5C132.83 134.59 133.05 134.6 133.14 134.78C133.23 134.96 133.14 135.31 133.24 135.49C133.34 135.56 133.44 135.62 133.54 135.66C133.71 135.79 133.79 136.02 133.74 136.23V136.38C132.27 136.31 130.84 135.89 129.56 135.15C129.56 135.08 129.56 135 129.56 134.93C129.56 134.58 129.89 134.35 130.16 134.14C130.46 133.96 130.65 133.65 130.67 133.3C130.21 133.42 130.04 133.99 129.65 134.23C129.55 134.29 129.44 134.35 129.32 134.38C129.13 134.48 128.94 134.6 128.77 134.73C127.82 134.09 127 133.28 126.35 132.34C126.54 132.09 126.63 131.78 126.61 131.46C126.71 131.33 126.88 131.57 127.03 131.58C127.18 131.59 127.3 131.36 127.47 131.35C127.65 131.34 127.72 131.85 127.98 131.95C128.24 132.05 128.33 131.8 128.52 131.77C128.71 131.75 128.93 131.92 129.15 131.85C129.79 131.65 129.31 130.95 129.41 130.55C129.47 130.36 129.7 130.33 129.85 130.23C130.07 130.08 130.21 129.82 130.21 129.55C130.21 129.29 130.16 129.03 130.08 128.78C129.98 128.54 130 128.27 130.14 128.04C130.39 127.77 130.86 127.95 131.2 127.77C131.54 127.59 131.54 127.27 131.78 127.08C132 126.93 132.27 126.85 132.54 126.86C132.61 126.85 132.68 126.85 132.75 126.86C132.88 126.93 132.85 127.13 132.83 127.26C132.75 127.66 132.63 128.05 132.47 128.43C132.77 128.57 133.19 128.7 133.42 128.43C133.46 128.36 133.51 128.29 133.57 128.23C133.69 128.17 133.84 128.17 133.97 128.23C134.07 128.46 134.19 128.69 134.31 128.9C133.71 128.86 133.15 129.22 132.94 129.79C132.93 129.87 132.89 129.95 132.85 130.02C132.77 130.11 132.65 130.17 132.52 130.16C132.14 130.11 131.76 129.99 131.42 129.8C131.05 129.68 130.52 129.8 130.43 130.13C130.73 130.02 130.99 130.34 131.28 130.46C131.45 130.52 131.63 130.55 131.81 130.55C132.25 130.59 132.67 130.7 133.07 130.88C133.37 130.76 133.57 130.48 133.6 130.16C133.89 130.56 134.34 130.8 134.84 130.81C134.73 131.19 134.73 131.6 134.84 131.98C134.98 132.26 135.26 132.52 135.25 132.83C135.1 132.88 134.99 133 134.96 133.16H134.98Z" fill="black"/>
<path opacity="0.2" d="M143.86 127.84C143.35 128.73 142.7 129.55 141.88 130.26C137.9 133.76 131.83 133.36 128.33 129.38C126.49 127.29 125.74 124.62 126.01 122.06C125.67 122.64 125.39 123.26 125.17 123.93C123.54 128.97 126.3 134.39 131.35 136.02C136.39 137.65 141.81 134.89 143.44 129.84C143.65 129.18 143.79 128.51 143.86 127.85V127.84Z" fill="black"/>
<path d="M115.42 159.31C115.29 159.71 94.38 187.84 94.38 187.84L79.42 168.13C79.42 168.13 68.76 182.58 69.22 182.69C69.68 182.81 89.08 212.12 98.59 204.82C108.1 197.51 123.23 165.84 123.23 165.84L115.42 159.31Z" fill="#B97964"/>
<path opacity="0.2" d="M94.3801 187.83C94.3801 187.83 92.7701 191.61 93.5501 194.82C93.5501 194.82 92.3401 193.38 92.2201 190.75C92.1001 188.12 93.0801 186.13 93.0801 186.13L94.3701 187.84L94.3801 187.83Z" fill="black"/>
<path d="M115.05 159.86C115.05 159.86 114.74 151.92 116.07 150.84C117.4 149.76 118.85 149.6 118.85 149.6C118.85 149.6 125.65 138.16 127.17 139.35C127.99 139.99 126.78 143.08 123.49 148.44C123.49 148.44 126.81 147.94 126.58 150.17C126.58 150.17 129.12 149.99 129.15 152.6C129.15 152.6 131.06 153.87 130.51 155.65C129.96 157.43 126.17 163.61 123.23 165.83C120.29 168.05 115.01 162.86 115.01 162.86L115.04 159.86H115.05Z" fill="#B97964"/>
<path opacity="0.3" d="M119.67 160.15C119.58 160.15 119.5 160.1 119.45 160.02C119.38 159.9 119.43 159.75 119.55 159.68C120.38 159.23 120.94 158.26 121.02 157.16C121.1 156.11 120.67 154.39 120.23 153.44C120.19 153.35 120.2 153.25 120.27 153.17C120.34 153.09 120.44 153.07 120.53 153.09C121.82 153.49 124.11 152.97 124.77 151.89C125.12 151.32 125.07 150.98 124.6 150.57C124.39 150.39 123.63 150.38 123.22 150.38C123.07 150.38 122.93 150.38 122.83 150.37C122.2 150.33 121.37 150.24 120.57 150.16C119.77 150.08 118.95 149.99 118.32 149.95C118.18 149.95 118.08 149.82 118.09 149.68C118.09 149.54 118.23 149.44 118.36 149.45C119 149.49 119.83 149.58 120.63 149.66C121.42 149.74 122.24 149.83 122.87 149.87C122.97 149.87 123.1 149.87 123.24 149.87C123.98 149.88 124.62 149.91 124.94 150.18C125.6 150.74 125.68 151.36 125.21 152.14C124.51 153.29 122.37 153.88 120.88 153.66C121.27 154.69 121.6 156.18 121.53 157.18C121.44 158.45 120.77 159.57 119.8 160.1C119.76 160.12 119.72 160.13 119.68 160.13L119.67 160.15Z" fill="black"/>
<path opacity="0.3" d="M127.61 158.72C127.53 158.72 127.44 158.72 127.36 158.7C126.57 158.54 126.17 157.68 126.13 156.94C126.11 156.57 126.16 156.2 126.26 155.84C126.13 155.91 126 155.97 125.87 156.01C125.08 156.28 124.21 156.15 123.64 155.66C122.99 155.1 122.84 154.08 123.31 153.43C123.39 153.32 123.55 153.29 123.66 153.37C123.77 153.45 123.8 153.61 123.72 153.72C123.4 154.16 123.52 154.88 123.97 155.27C124.4 155.64 125.08 155.74 125.71 155.53C126.06 155.41 126.4 155.19 126.71 154.89C126.86 154.67 127.04 154.46 127.24 154.28C127.34 154.19 127.48 154.19 127.57 154.28C127.67 154.37 127.68 154.51 127.61 154.61C127.45 154.83 127.28 155.03 127.1 155.21C126.78 155.71 126.61 156.3 126.64 156.9C126.67 157.46 126.96 158.09 127.47 158.19C127.76 158.25 128.1 158.13 128.38 157.87C128.66 157.62 128.86 157.26 129.05 156.92C129.12 156.8 129.27 156.76 129.39 156.83C129.51 156.9 129.55 157.05 129.48 157.17C129.27 157.54 129.05 157.93 128.71 158.24C128.38 158.54 127.98 158.71 127.6 158.71L127.61 158.72Z" fill="black"/>
<path d="M31.4501 247.95C31.4501 247.95 29.7901 252.05 44.2701 252.05C58.7501 252.05 54.0201 237.24 54.0201 237.24C54.0201 237.24 33.5301 237.15 31.4501 247.94V247.95Z" fill="#4A8AEC"/>
<path opacity="0.4" d="M31.4501 247.95C31.4501 247.95 29.7901 252.05 44.2701 252.05C58.7501 252.05 54.0201 237.24 54.0201 237.24C54.0201 237.24 33.5301 237.15 31.4501 247.94V247.95Z" fill="black"/>
<path d="M83.2699 225.13C83.3799 225.67 136.1 267.81 138.71 283.57C141.33 299.33 143.83 348.61 143.83 348.61L122.71 352.26C122.71 352.26 117.49 304.99 114.99 296.21C112.49 287.42 84.4199 268.57 84.4199 268.57L64.6899 231.95L83.2699 225.14V225.13Z" fill="#263238"/>
<path d="M81.1301 252.96C81.4201 253.44 113.14 297.45 111.88 312.62C110.62 327.79 104.54 373.82 104.54 373.82H85.3L85.68 311.55C85.68 311.55 59.21 273.98 49.55 265.85C39.9 257.72 36.29 240.34 36.29 240.34L71.8501 228.96L81.12 252.96H81.1301Z" fill="#263238"/>
<path opacity="0.4" d="M97.6201 278.18L82.8501 255.43L84.7001 242.38L86.4601 255.36C86.4601 255.36 97.6101 269.44 97.6101 278.18H97.6201Z" fill="black"/>
<path d="M72.36 162.22C80.51 168.52 89.81 179.16 89.81 179.16L76.92 194.56C76.92 194.56 58.7 179.69 56.92 171.53C54.96 162.58 67.07 158.13 72.36 162.21V162.22Z" fill="#4A8AEC"/>
<path opacity="0.2" d="M64.1699 181.97C68.1199 186.48 72.3899 190.69 76.9499 194.57C77.0699 189.43 72.1099 180.11 67.3899 175.78C65.0799 173.62 64.2599 177.36 64.1699 181.96V181.97Z" fill="black"/>
<path d="M58.08 158.66C51.5 157.94 44.88 157.61 38.25 157.66C30.48 158.82 21.03 161.06 21.03 161.06C26.23 195.1 19.39 222.94 31.45 248.72C34.32 242.79 42.46 239.37 53.31 238.28C55.32 238.08 57.36 238.08 59.38 238.23C74.96 239.37 83.11 235.92 90.24 230.71C69.35 195.79 71.36 161.71 71.36 161.71C67.02 160.35 62.57 159.33 58.07 158.66H58.08Z" fill="#4A8AEC"/>
<path d="M14.63 170.31C14.36 171.59 -0.920022 207.61 -0.180022 215.06C1.10998 228.04 11.73 250.45 11.73 250.45L18.35 246.61C18.35 246.61 13.41 221.19 14.07 216.39C14.73 211.6 27.82 178.74 27.82 178.74L14.63 170.31Z" fill="#B97964"/>
<path d="M17.9601 244.65C17.9601 244.65 21.65 245 23.67 247.46C25.7 249.91 27.92 251.34 29.31 253.27C30.7 255.2 27.6901 254.42 26.1601 253.68C24.6301 252.94 22.8801 252.11 22.5801 253.37C22.2801 254.63 25.29 265.59 24.67 267.28C24.06 268.97 23.0401 267.32 23.0401 267.32C23.0401 267.32 23.7001 270 22.7601 270.51C22.5101 270.64 21.7201 270.53 21.2301 269.35C20.1401 266.69 18.1201 261.01 18.1201 261.01C18.2401 261.33 20.25 268.51 20.42 269.62C20.64 271.07 20.0301 271.84 19.2201 271.9C18.0601 271.99 15.2801 263.17 14.9101 262.87C14.9101 262.87 16.6801 267.9 15.6901 269.03C14.7001 270.15 13.4301 267.04 12.8001 264.1C12.2201 261.4 10.4101 256.23 10.0801 253.44C9.67005 250 10.14 247.63 12.81 246.07C15.48 244.51 17.9601 244.65 17.9601 244.65Z" fill="#B97964"/>
<path d="M31.44 176.61C28.85 183.6 26.72 193.14 23.36 199.83L4.80005 186.79C4.80005 186.79 14.32 162.97 21.27 161.1C30.48 158.92 35.12 165.87 31.44 176.61Z" fill="#4A8AEC"/>
<g opacity="0.2">
<path d="M63.12 197.96C61.95 207.42 56.97 218.33 45.24 222.77C51.27 223.03 57.35 220.09 60.88 215.19C64.41 210.29 65.28 203.6 63.13 197.96H63.12Z" fill="black"/>
</g>
<path opacity="0.2" d="M23.3599 199.83L23.9799 180.26C23.9799 180.26 27.4199 191.91 26.0099 197.96C24.5999 204.01 23.3599 205.98 23.3599 205.98V199.83Z" fill="black"/>
<g opacity="0.3">
<path d="M134.6 117.18L134.41 117.4C133.31 119.46 133.67 122.21 135.28 123.92C136.88 125.63 139.6 126.16 141.73 125.19C142.4 124.88 143.06 124.38 143.24 123.66C143.24 123.64 143.24 123.61 143.24 123.59C142.59 121.7 141.36 120 139.58 118.8C138.05 117.76 136.32 117.24 134.59 117.18H134.6Z" fill="white"/>
</g>
<path d="M59.1602 115.02C59.1602 115.02 66.2702 119.94 63.2702 132.8C60.2702 145.66 45.6502 119.26 59.1602 115.02Z" fill="#263238"/>
<path d="M39.67 157.76C39.67 157.76 40.53 151.61 36.93 140.96C36.93 140.95 37.49 140.67 37.49 140.66C36.99 139.17 36.47 137.8 35.99 136.61C35.98 136.58 35.98 136.56 35.98 136.56L51.14 145.04C50.94 148.51 52.47 155.12 53.33 157.9C53.33 157.9 55.42 162.92 48.64 163.44C43.69 163.82 39.68 157.76 39.68 157.76H39.67Z" fill="#B97964"/>
<path opacity="0.2" d="M51.59 149.88L43.01 148.33C43.9 150.94 46.37 153.97 52.29 153.97C52.29 153.97 51.57 151.04 51.59 149.88Z" fill="black"/>
<path d="M35.54 129.4C36.94 138.71 37.55 144 42.71 148.34C50.47 154.88 61.41 149.69 62.82 140.12C64.09 131.5 61.58 117.72 52.08 114.89C42.71 112.1 34.14 120.09 35.55 129.4H35.54Z" fill="#B97964"/>
<path d="M55.85 140.33C55.38 141.52 54.97 143.72 54.97 143.72C54.76 143.72 54.56 143.72 54.35 143.71C51.55 143.63 50.2899 142.66 49.7299 141.62C49.4299 141.05 49.3399 140.45 49.3399 139.96C49.3299 139.39 49.4499 138.99 49.4499 138.99C50.9099 139.92 53.4999 140.2 54.8999 140.29C55.4799 140.33 55.85 140.33 55.85 140.33Z" fill="#263238"/>
<path d="M54.8999 140.28L54.6199 141.27C51.9899 141.18 50.15 140.77 49.35 139.95C49.34 139.38 49.46 138.98 49.46 138.98C50.92 139.91 53.51 140.19 54.91 140.28H54.8999Z" fill="white"/>
<path d="M54.25 143.7C51.51 143.62 50.27 142.68 49.73 141.67C50.66 141.73 51.78 141.91 52.75 142.36C53.5 142.7 53.96 143.2 54.26 143.7H54.25Z" fill="#DE5753"/>
<path d="M33.3601 118.24C34.1901 112.97 47.1201 111.77 50.9601 114.08C51.5301 114.43 44.2101 118.95 44.6601 118.74L41.1601 120.31C40.5901 120.24 39.5601 120.98 39.1501 122.76C39.1501 122.76 40.8301 137.08 37.1301 141.6C33.7201 140.29 33.0301 134.62 31.7001 131.32C29.7201 126.41 27.2101 119.18 33.3601 118.24Z" fill="#263238"/>
<path d="M48.9702 131.79C49.0502 132.75 49.6302 133.48 50.2602 133.41C50.8902 133.35 51.3302 132.52 51.2402 131.56C51.1602 130.6 50.5802 129.87 49.9502 129.94C49.3202 130 48.8802 130.83 48.9702 131.79Z" fill="#263238"/>
<path d="M58.26 131.16C58.34 132.12 58.92 132.85 59.55 132.78C60.18 132.72 60.62 131.89 60.53 130.93C60.45 129.97 59.87 129.24 59.24 129.31C58.61 129.37 58.17 130.2 58.26 131.16Z" fill="#263238"/>
<path d="M55.5 130.01C55.5 130.01 58.21 133.54 59.62 135.63C59.93 136.09 59.75 136.73 59.24 136.97C58.01 137.55 56.52 137.33 56.52 137.33L55.5 130.01Z" fill="#A24E3F"/>
<path d="M46.4502 126.61C46.6002 126.66 46.7702 126.62 46.8902 126.51C48.3602 125.13 49.9802 125.5 50.0002 125.51C50.2402 125.57 50.4902 125.42 50.5502 125.18C50.6102 124.94 50.4602 124.7 50.2202 124.64C50.1302 124.62 48.1102 124.16 46.2802 125.86C46.1002 126.03 46.0902 126.31 46.2602 126.49C46.3102 126.55 46.3802 126.59 46.4502 126.61Z" fill="#263238"/>
<path d="M37.7202 137.39C42.3202 140.09 41.2902 135.27 40.9702 134.78C39.5602 132.62 40.8402 129.66 42.4402 125.49C43.1502 123.63 42.6702 120.59 42.6702 120.59C42.6702 120.59 36.9902 119.44 33.5802 120.26C30.0602 121.11 29.9102 123.94 29.9102 123.94C30.5902 132.84 34.0202 135.22 37.7202 137.39Z" fill="#263238"/>
<path d="M32.9001 125.33C32.9001 125.33 28.7501 119.65 35.8501 114.28C42.9501 108.91 54.2301 108.39 60.6101 110.7C66.9801 113.01 62.2601 118.33 55.4401 120.58C51.7101 121.81 50.1601 121.16 50.1601 121.16C50.1601 121.16 52.0901 121.43 54.8601 118.9C54.8601 118.9 45.6101 118.75 44.0601 124.35C42.5101 129.95 32.9001 125.32 32.9001 125.32V125.33Z" fill="#263238"/>
<path d="M32.5302 137.61C33.4902 139.96 35.4502 141.63 37.3902 142.38C40.3102 143.52 41.0802 140.37 40.5502 137.45C40.0802 134.82 39.0202 131.65 35.9502 131.76C32.9302 131.87 31.4302 134.93 32.5302 137.61Z" fill="#B97964"/>
<path opacity="0.2" d="M38.9702 137.43C38.8502 137.43 38.7502 137.35 38.7302 137.23C38.5802 136.47 38.2202 135.77 37.7102 135.19C37.3802 134.82 36.8402 134.35 36.1602 134.24C35.5502 134.14 34.9202 134.41 34.6702 134.88C34.6002 135 34.4502 135.04 34.3302 134.98C34.2102 134.91 34.1702 134.76 34.2302 134.64C34.5902 133.99 35.4202 133.63 36.2402 133.75C37.0702 133.88 37.7102 134.43 38.0902 134.86C38.6602 135.51 39.0502 136.29 39.2202 137.13C39.2502 137.27 39.1602 137.4 39.0202 137.42C39.0002 137.42 38.9902 137.42 38.9702 137.42V137.43Z" fill="black"/>
<path d="M62.3899 125.86C62.4699 125.83 62.5499 125.79 62.6099 125.71C62.7699 125.52 62.74 125.23 62.55 125.07C60.63 123.49 58.66 124.12 58.57 124.13C58.33 124.21 58.1999 124.46 58.2799 124.7C58.3499 124.94 58.5999 125.07 58.8399 124.99C58.9199 124.96 60.45 124.5 61.99 125.77C62.11 125.87 62.27 125.89 62.41 125.85L62.3899 125.86Z" fill="#263238"/>
<path d="M64.5102 122.97C62.2702 121.05 58.8602 120.86 55.8502 121.34C52.8402 121.81 48.3202 122.77 44.9602 124.05C42.3002 125.21 41.7502 127.44 41.4502 129.99C41.1502 132.54 42.1802 135.26 44.3602 136.85C46.5502 138.43 49.8902 138.65 52.1102 137.11C54.0602 135.75 55.3402 133.14 57.7902 133.11C60.1902 133.09 62.0802 135.76 64.4302 135.3C66.4602 134.9 67.0902 132.55 67.1302 130.64C67.1802 127.88 66.7002 124.87 64.5102 122.99V122.97Z" fill="#4A8AEC"/>
<path d="M63.9402 123.38C61.9202 121.78 58.9202 121.83 56.2102 122.22C53.5002 122.62 49.5102 123.49 46.4802 124.56C44.0802 125.53 43.4302 127.11 43.1702 129.24C42.9002 131.37 43.8202 133.65 45.7902 134.97C47.7602 136.29 49.6702 136.33 51.6702 135.04C53.4302 133.9 55.0602 131.08 57.2702 131.06C59.4402 131.04 62.3002 134.08 64.4202 133.7C66.2502 133.37 66.3602 130.74 66.3902 129.14C66.4302 126.84 65.9202 124.95 63.9402 123.38Z" fill="#263238"/>
<path d="M36.4402 131.75L43.2402 125.88L42.2102 131.68L39.5502 134.15C39.5502 134.15 38.9602 131.83 36.4402 131.76V131.75Z" fill="#4A8AEC"/>
<path opacity="0.3" d="M54.4101 122.54L44.3401 133.41C44.3401 133.41 44.8901 134.96 46.7901 135.46L58.3901 122C58.3901 122 55.1201 122.14 54.4101 122.53V122.54Z" fill="white"/>
<path opacity="0.3" d="M56.5803 131.15L62.2203 122.45C62.2203 122.45 63.0803 122.55 63.9303 123.37L59.0003 131.48C59.0003 131.48 57.8203 130.77 56.5703 131.14L56.5803 131.15Z" fill="white"/>
<path opacity="0.2" d="M41.5502 132.3C41.7102 132.42 41.1402 130.93 41.8302 128.74C41.8302 128.74 40.1702 131.93 40.4902 133.29L41.5502 132.3Z" fill="black"/>
</g>
<defs>
<clipPath id="clip0_2792_2075">
<rect width="300" height="500" fill="white"/>
</clipPath>
</defs>
</svg>
