<svg width="459" height="500" viewBox="0 0 459 500" fill="none" xmlns="http://www.w3.org/2000/svg">
<g clip-path="url(#clip0_2792_3187)">
<path d="M154.51 133.93H87.5101C82.8731 133.93 78.426 135.771 75.1463 139.049C71.8666 142.327 70.0227 146.773 70.02 151.41V184.48C70.0161 186.783 70.4669 189.063 71.3466 191.192C72.2263 193.32 73.5175 195.253 75.1463 196.881C76.775 198.509 78.7091 199.799 80.8377 200.677C82.9663 201.556 85.2473 202.005 87.5501 202H137.35L145.95 216.26L154 202H154.51C156.81 202.001 159.087 201.549 161.212 200.668C163.336 199.788 165.266 198.497 166.891 196.87C168.516 195.242 169.803 193.31 170.68 191.184C171.557 189.058 172.005 186.78 172 184.48V151.41C172 149.114 171.548 146.84 170.669 144.718C169.789 142.597 168.501 140.669 166.877 139.046C165.253 137.423 163.324 136.136 161.202 135.258C159.08 134.38 156.806 133.929 154.51 133.93Z" fill="white"/>
<path d="M154.51 133.93C154.51 133.93 154.65 133.93 154.92 133.93H156.15C156.69 133.93 157.35 134.08 158.15 134.21C159.056 134.401 159.945 134.662 160.81 134.99C163.226 135.898 165.409 137.333 167.2 139.19C168.329 140.371 169.298 141.696 170.08 143.13C170.945 144.765 171.545 146.527 171.86 148.35C172.146 150.383 172.243 152.439 172.15 154.49C172.15 156.63 172.15 158.87 172.15 161.2C172.15 165.87 172.15 170.92 172.15 176.3C172.15 178.967 172.15 181.743 172.15 184.63C172.108 187.613 171.321 190.539 169.86 193.14C169.09 194.484 168.157 195.727 167.08 196.84C165.966 197.963 164.708 198.935 163.34 199.73C161.947 200.553 160.441 201.17 158.87 201.56C158.072 201.769 157.26 201.922 156.44 202.02C155.62 202.09 154.78 202.14 153.96 202.14L154.16 202.02C151.63 206.53 148.91 211.34 146.16 216.29L145.95 216.65L145.74 216.3C143.01 211.79 140.1 206.97 137.13 202.04L137.34 202.16H87.3401C84.5239 202.115 81.7571 201.413 79.2601 200.11C76.8302 198.822 74.7326 196.987 73.1326 194.75C71.5326 192.514 70.474 189.936 70.0401 187.22L69.8901 186.22L69.8401 185.22C69.8401 184.55 69.8401 183.89 69.8401 183.22V179.29C69.8401 176.69 69.8401 174.11 69.8401 171.55V156.55C69.8401 155.33 69.8401 154.12 69.8401 152.92C69.8185 151.715 69.8619 150.51 69.9701 149.31C70.2378 146.939 70.99 144.648 72.1801 142.58C74.4646 138.596 78.2023 135.65 82.6101 134.36C83.1401 134.23 83.6701 134.07 84.2001 133.97L85.8101 133.74C86.8901 133.67 87.9601 133.63 89.0001 133.65H95.1601H106.74L141.74 133.73H151.25H153.72C154.28 133.73 154.56 133.73 154.56 133.73H153.72H151.25L141.74 133.78L106.74 133.86H95.1601H87.4201L85.8501 133.94L84.2801 134.17C83.7601 134.27 83.2801 134.43 82.7301 134.55C79.4725 135.503 76.5682 137.395 74.3804 139.99C72.1927 142.586 70.8186 145.768 70.4301 149.14C70.3154 150.423 70.272 151.712 70.3001 153V156.63C70.3001 161.51 70.3001 166.51 70.3001 171.63C70.3001 174.19 70.3001 176.77 70.3001 179.37V183.3C70.3001 183.96 70.3001 184.62 70.3001 185.3V186.3L70.4501 187.3C70.8748 189.942 71.9093 192.45 73.4715 194.623C75.0336 196.796 77.0806 198.575 79.4501 199.82C81.8702 201.084 84.5505 201.768 87.2801 201.82H137.42L137.5 201.94L146.09 216.21H145.67C148.47 211.27 151.19 206.46 153.73 201.95L153.8 201.84H154C154.83 201.84 155.63 201.84 156.43 201.73C157.227 201.637 158.015 201.486 158.79 201.28C160.325 200.906 161.797 200.309 163.16 199.51C164.495 198.733 165.722 197.785 166.81 196.69C167.863 195.608 168.777 194.399 169.53 193.09C170.965 190.552 171.738 187.695 171.78 184.78C171.78 181.93 171.78 179.15 171.78 176.46C171.78 171.08 171.78 166.03 171.78 161.36C171.78 159.03 171.78 156.79 171.78 154.65C171.879 152.616 171.792 150.578 171.52 148.56C170.96 145.147 169.373 141.987 166.97 139.5C165.214 137.643 163.065 136.201 160.68 135.28C159.826 134.951 158.951 134.681 158.06 134.47C157.28 134.34 156.62 134.22 156.06 134.16L154.84 134.08L154.51 133.93Z" fill="#263238"/>
<path d="M158 151.89C158 152.04 141.44 152.15 121 152.15C100.56 152.15 84 152.04 84 151.89C84 151.74 100.56 151.63 121 151.63C141.44 151.63 158 151.75 158 151.89Z" fill="#263238"/>
<path d="M158 159.92C158 160.06 141.44 160.18 121 160.18C100.56 160.18 84 160.06 84 159.92C84 159.78 100.56 159.66 121 159.66C141.44 159.66 158 159.77 158 159.92Z" fill="#263238"/>
<path d="M158 167.94C158 168.09 141.44 168.2 121 168.2C100.56 168.2 84 168.09 84 167.94C84 167.79 100.56 167.68 121 167.68C141.44 167.68 158 167.8 158 167.94Z" fill="#263238"/>
<path d="M158 176C158 176.14 141.44 176.26 121 176.26C100.56 176.26 84 176.14 84 176C84 175.86 100.56 175.74 121 175.74C141.44 175.74 158 175.83 158 176Z" fill="#263238"/>
<path d="M158 184C158 184.15 141.44 184.27 121 184.27C100.56 184.27 84 184.15 84 184C84 183.85 100.56 183.74 121 183.74C141.44 183.74 158 183.85 158 184Z" fill="#263238"/>
<path d="M206.69 70.1201H131.12C127.626 70.1201 124.275 71.5073 121.804 73.9769C119.333 76.4465 117.943 79.7963 117.94 83.2901V109.87C117.94 113.366 119.329 116.718 121.801 119.19C124.272 121.662 127.625 123.05 131.12 123.05H185.23L193.83 137.31L201.83 123.05H206.64C210.136 123.05 213.488 121.662 215.96 119.19C218.432 116.718 219.82 113.366 219.82 109.87V83.2901C219.818 79.8049 218.435 76.4627 215.974 73.9945C213.513 71.5264 210.175 70.1333 206.69 70.1201Z" fill="white"/>
<path d="M206.69 70.12C206.69 70.12 207.14 70.12 208.02 70.12C209.317 70.2485 210.589 70.5582 211.8 71.04C213.733 71.8557 215.446 73.1167 216.8 74.72C217.692 75.7498 218.433 76.9014 219 78.14C219.581 79.5461 219.919 81.0407 220 82.56C220.09 88.93 220.06 96.65 220.09 105.56C220.09 106.66 220.09 107.79 220.09 108.94C220.12 110.115 220.036 111.291 219.84 112.45C219.373 114.88 218.237 117.131 216.56 118.95C215.687 119.905 214.676 120.725 213.56 121.38C212.437 122.068 211.212 122.575 209.93 122.88C209.272 123.043 208.604 123.16 207.93 123.23C207.26 123.23 206.58 123.31 205.93 123.3H201.87L202.06 123.19L194.06 137.46L193.86 137.81L193.65 137.47C190.92 132.95 188.02 128.14 185.03 123.21L185.25 123.33H131.51C128.878 123.407 126.281 122.711 124.04 121.33C121.83 119.966 120.067 117.984 118.97 115.63C117.932 113.309 117.491 110.765 117.69 108.23V93.64C117.69 91.26 117.69 88.9267 117.69 86.64C117.69 85.47 117.69 84.32 117.69 83.17C117.705 82.0064 117.873 80.8497 118.19 79.73C118.809 77.5234 119.979 75.5103 121.59 73.88C123.181 72.3189 125.121 71.1601 127.25 70.5C128.295 70.1958 129.373 70.0179 130.46 69.97C131.54 69.91 132.57 69.97 133.62 69.97H139.78H162.23L194.75 70.06H203.59H205.89C206.41 70.06 206.67 70.06 206.67 70.06H205.89H203.59H194.75L162.23 70.14H139.78H133.62C131.524 70.0076 129.42 70.193 127.38 70.69C125.332 71.3936 123.486 72.5844 122 74.16C120.446 75.7356 119.318 77.6796 118.72 79.81C118.08 81.95 118.26 84.26 118.24 86.59V93.59C118.24 98.3434 118.24 103.19 118.24 108.13C118.193 109.356 118.246 110.583 118.4 111.8C118.581 113.017 118.941 114.2 119.47 115.31C120.533 117.57 122.228 119.473 124.35 120.79C126.505 122.141 129.007 122.836 131.55 122.79H185.41L185.48 122.91L194 137.19H193.59L201.65 122.93L201.72 122.82H205.91C206.59 122.82 207.24 122.82 207.91 122.76C208.554 122.696 209.192 122.585 209.82 122.43C211.06 122.137 212.245 121.648 213.33 120.98C214.405 120.35 215.38 119.561 216.22 118.64C217.854 116.876 218.962 114.69 219.42 112.33C219.618 111.198 219.702 110.049 219.67 108.9C219.67 107.75 219.67 106.62 219.67 105.52C219.67 96.64 219.74 88.9 219.67 82.52C219.583 81.0275 219.245 79.5603 218.67 78.18C218.142 76.9754 217.452 75.8483 216.62 74.83C215.285 73.2285 213.588 71.9672 211.67 71.15C210.085 70.5125 208.398 70.1637 206.69 70.12Z" fill="#263238"/>
<path d="M208 88.75C208 88.89 191.44 89.01 171 89.01C150.56 89.01 134 88.89 134 88.75C134 88.61 150.56 88.49 171 88.49C191.44 88.49 208 88.61 208 88.75Z" fill="#263238"/>
<path d="M208 96.77C208 96.92 191.44 97.03 171 97.03C150.56 97.03 134 96.92 134 96.77C134 96.62 150.56 96.51 171 96.51C191.44 96.51 208 96.63 208 96.77Z" fill="#263238"/>
<path d="M208 104.8C208 104.94 191.44 105.06 171 105.06C150.56 105.06 134 104.94 134 104.8C134 104.66 150.56 104.54 171 104.54C191.44 104.54 208 104.66 208 104.8Z" fill="#263238"/>
<path d="M368 281.92C367.05 280.79 365.81 279.76 365.5 278.31C365.19 276.86 365.88 275.53 366.18 274.14C366.539 272.182 366.2 270.161 365.223 268.427C364.245 266.693 362.691 265.357 360.83 264.65C358.67 263.91 355.9 263.85 354.83 261.84C353.76 259.83 355.12 257.55 355.92 255.46C356.568 253.715 356.827 251.85 356.678 249.995C356.53 248.14 355.977 246.339 355.06 244.72C354.802 243.982 354.499 243.26 354.15 242.56C352.798 239.855 350.743 237.565 348.201 235.928C345.658 234.292 342.722 233.37 339.7 233.26C339.231 231.065 338.142 229.051 336.563 227.456C334.984 225.86 332.98 224.751 330.79 224.26C330.802 222.637 330.432 221.034 329.71 219.58C327.6 215.47 323.11 212.98 318.55 212.24C315.236 211.732 311.848 212.018 308.665 213.073C305.482 214.128 302.595 215.923 300.24 218.31C297.72 220.9 295.68 224.31 292.24 225.47C289.24 226.47 285.92 225.57 282.77 225.98C278.55 226.53 274.93 229.53 272.77 233.19C270.61 236.85 269.71 241.13 269.21 245.36C268.75 249.24 268.45 253.5 265.76 256.36C263.07 259.22 258.98 259.71 255.76 261.67C249.62 265.37 247.63 274.52 251.68 280.43C252.97 282.32 254.83 284.05 254.98 286.33C255.11 288.41 253.77 290.26 253.14 292.25C251.52 297.37 255.71 303.46 261.07 303.77C263.78 303.92 266.68 302.87 269.07 304.08C271.46 305.29 272.38 308.19 273.92 310.4C275.51 312.535 277.787 314.058 280.367 314.713C282.947 315.369 285.674 315.117 288.09 314C290.09 313 291.97 311.41 294.18 311.56C296.39 311.71 298.13 313.56 300.3 314.01C303.15 314.56 305.85 312.47 307.54 310.12C309.23 307.77 310.41 304.99 312.54 303.06C315.37 300.54 319.35 299.92 322.94 298.68C328.102 296.865 332.66 293.657 336.11 289.41L335.76 309.41C338.76 309.41 340.46 308.41 341.56 306.84C342.178 307.263 342.851 307.599 343.56 307.84C345.326 308.386 347.216 308.382 348.98 307.831C350.745 307.279 352.3 306.205 353.44 304.75C354.59 303.21 355.31 301.24 356.94 300.24C358.37 299.36 360.16 299.43 361.81 299.13C363.633 298.798 365.336 297.993 366.749 296.796C368.162 295.599 369.236 294.051 369.863 292.308C370.49 290.565 370.648 288.688 370.321 286.865C369.994 285.042 369.194 283.337 368 281.92Z" fill="#263238"/>
<path d="M300.94 235.23C296.8 237.84 287.4 249.33 287.22 252.71L288.22 321.44C288.06 326.61 287.22 331.05 290.22 335.25C298.6 345.25 317.99 346.48 322.42 338.25C322.719 337.725 322.957 337.168 323.13 336.59C323.291 336.034 323.421 335.47 323.52 334.9C324.252 331.135 324.587 327.305 324.52 323.47C325.1 316.75 325.3 313.99 325.3 314.06C325.3 314.13 339.66 312.75 343.97 294.47C346.12 285.37 346.77 270.25 346.91 257.86C346.849 255.424 346.351 253.02 345.44 250.76C340.11 236.5 327.85 229.58 313.12 230.84C309.39 231.15 303.74 232.8 300.94 235.23Z" fill="#FFBF9D"/>
<path d="M325.74 283.69C325.74 283.55 327.35 283.39 329.94 283.25C330.6 283.25 331.23 283.15 331.37 282.71C331.486 282.03 331.384 281.33 331.08 280.71C330.58 279.09 330.08 277.38 329.52 275.6C327.36 268.33 325.86 262.37 326.15 262.29C326.44 262.21 328.43 268.03 330.58 275.29C331.1 277.083 331.593 278.793 332.06 280.42C332.408 281.237 332.461 282.149 332.21 283C332.098 283.225 331.936 283.421 331.737 283.573C331.537 283.726 331.306 283.831 331.06 283.88C330.692 283.956 330.315 283.98 329.94 283.95C327.35 284 325.74 283.84 325.74 283.69Z" fill="#263238"/>
<path d="M325.26 314.05C316.547 313.532 308.149 310.607 301 305.6C301 305.6 306.28 318.87 324.93 318.51L325.26 314.05Z" fill="#FF9A6C"/>
<path d="M324.2 289.77C323.756 289.127 323.156 288.606 322.457 288.256C321.758 287.907 320.981 287.739 320.2 287.77C319.635 287.781 319.078 287.907 318.562 288.139C318.047 288.371 317.584 288.705 317.2 289.12C316.83 289.516 316.591 290.016 316.514 290.552C316.437 291.089 316.526 291.636 316.77 292.12C317.146 292.607 317.659 292.972 318.243 293.168C318.827 293.364 319.456 293.382 320.05 293.22C321.29 292.884 322.449 292.302 323.46 291.51C323.763 291.325 324.03 291.088 324.25 290.81C324.354 290.676 324.415 290.513 324.425 290.344C324.436 290.175 324.396 290.006 324.31 289.86" fill="#FF9A6C"/>
<path d="M318.09 284.9C318.51 284.9 318.31 287.68 320.54 289.83C322.77 291.98 325.74 291.88 325.73 292.27C325.73 292.45 325.03 292.76 323.73 292.7C322.103 292.607 320.562 291.941 319.38 290.82C318.249 289.739 317.579 288.263 317.51 286.7C317.54 285.54 317.9 284.87 318.09 284.9Z" fill="#263238"/>
<path d="M317.63 257.14C317.32 257.82 314.8 257.3 311.78 257.44C308.76 257.58 306.27 258.21 305.92 257.56C305.76 257.25 306.23 256.63 307.26 256.03C308.625 255.303 310.137 254.896 311.683 254.84C313.229 254.785 314.767 255.082 316.18 255.71C317.25 256.23 317.76 256.82 317.63 257.14Z" fill="#263238"/>
<path d="M343.09 257.13C342.51 257.67 340.46 256.92 337.94 256.7C335.42 256.48 333.25 256.75 332.8 256.1C332.61 255.79 332.99 255.24 333.96 254.76C335.296 254.166 336.768 253.945 338.22 254.12C339.662 254.239 341.044 254.747 342.22 255.59C343.1 256.25 343.35 256.87 343.09 257.13Z" fill="#263238"/>
<path d="M290.94 276.6C291.04 275.23 289.69 271.86 288.34 271.55C284.75 270.71 278.18 270.55 277.43 279.74C276.43 292.35 289.28 290.74 289.34 290.41C289.4 290.08 290.6 281.36 290.94 276.6Z" fill="#FFBF9D"/>
<path d="M285.87 285.33C285.82 285.28 285.64 285.46 285.25 285.6C284.711 285.783 284.122 285.747 283.61 285.5C282.31 284.91 281.36 282.7 281.49 280.42C281.545 279.338 281.842 278.282 282.36 277.33C282.506 276.944 282.745 276.6 283.055 276.328C283.366 276.056 283.738 275.864 284.14 275.77C284.399 275.723 284.665 275.768 284.894 275.898C285.123 276.028 285.298 276.234 285.39 276.48C285.53 276.85 285.39 277.09 285.5 277.12C285.61 277.15 285.78 276.93 285.73 276.4C285.678 276.083 285.524 275.791 285.29 275.57C284.964 275.279 284.537 275.128 284.1 275.15C283.575 275.212 283.074 275.408 282.646 275.717C282.217 276.027 281.874 276.441 281.65 276.92C281.038 277.971 280.695 279.155 280.65 280.37C280.52 282.92 281.65 285.37 283.41 286.08C283.736 286.197 284.083 286.243 284.429 286.213C284.774 286.184 285.108 286.08 285.41 285.91C285.82 285.63 285.91 285.35 285.87 285.33Z" fill="#FF9A6C"/>
<path d="M285.88 252.71C285.88 252.08 285.65 253.3 285.88 252.71Z" fill="#455A64"/>
<path d="M337.57 235C332.88 231.84 329.02 228.19 317.57 228.17C308.72 228.17 302.24 233.31 295.27 239.39C286.27 247.2 280.64 259.94 284.41 271.21L288.18 272.68L291.75 264.03C297.91 250.63 310.75 239.36 324.55 238.7C325.823 238.633 327.099 238.653 328.37 238.76C337.51 239.68 346.88 256.32 346.88 256.32C346.88 256.32 348.57 242.42 337.57 235Z" fill="#FF6CBC"/>
<path d="M288.19 272.63C288.39 275.24 288.79 277.63 288.99 280.22C289.08 281.33 289.36 282.68 290.42 282.98C290.816 283.049 291.225 282.99 291.585 282.81C291.945 282.63 292.238 282.339 292.42 281.98C292.773 281.271 292.964 280.492 292.98 279.7C293.76 271.77 294.42 265.7 295.2 257.79C292.89 261 290.55 266.47 288.19 272.63Z" fill="#263238"/>
<path d="M286.1 292.51C286.1 292.51 286.17 292.76 286.01 293.17C285.749 293.754 285.278 294.218 284.69 294.47C283.825 294.852 282.844 294.877 281.96 294.54C281.412 294.35 280.914 294.041 280.501 293.634C280.087 293.228 279.769 292.734 279.57 292.19C279.386 291.644 279.32 291.065 279.375 290.491C279.43 289.917 279.606 289.361 279.89 288.86C280.376 288.051 281.146 287.452 282.05 287.18C282.641 286.988 283.272 286.954 283.88 287.08C284.31 287.18 284.51 287.3 284.5 287.33C283.718 287.221 282.922 287.289 282.17 287.53C281.383 287.811 280.723 288.364 280.31 289.09C280.07 289.535 279.924 290.025 279.881 290.529C279.838 291.033 279.899 291.541 280.06 292.02C280.235 292.493 280.509 292.922 280.865 293.279C281.22 293.637 281.648 293.913 282.12 294.09C282.898 294.395 283.762 294.395 284.54 294.09C285.066 293.908 285.517 293.557 285.82 293.09C286 292.74 286.05 292.5 286.1 292.51Z" fill="#E0E0E0"/>
<path d="M312.68 241.87C312.68 241.87 322.68 244.62 326.03 243.57C328.268 242.889 330.196 241.446 331.48 239.49C331.48 239.49 323.74 236.07 312.68 241.87Z" fill="#263238"/>
<path d="M368 267.47C368.378 267.07 368.728 266.646 369.05 266.2C369.875 264.915 370.248 263.391 370.11 261.87C369.979 260.731 369.608 259.632 369.022 258.646C368.436 257.66 367.648 256.81 366.71 256.15C364.314 254.484 361.405 253.723 358.5 254H358.06L358.25 253.6C359.377 251.46 360.169 249.16 360.6 246.78C360.916 244.859 360.783 242.891 360.21 241.03C359.632 239.311 358.595 237.782 357.21 236.61C354.804 234.657 351.852 233.497 348.76 233.29C346.669 233.139 344.569 233.2 342.49 233.47L340.78 233.69C340.583 233.731 340.381 233.748 340.18 233.74C340.37 233.665 340.568 233.611 340.77 233.58C341.15 233.5 341.77 233.39 342.46 233.27C344.55 232.915 346.674 232.801 348.79 232.93C351.979 233.079 355.037 234.242 357.52 236.25C358.983 237.468 360.08 239.067 360.69 240.87C361.303 242.808 361.447 244.865 361.11 246.87C360.673 249.313 359.864 251.673 358.71 253.87L358.46 253.5C361.49 253.22 364.52 254.036 367 255.8C367.97 256.497 368.78 257.392 369.377 258.427C369.974 259.461 370.343 260.611 370.46 261.8C370.574 263.382 370.136 264.955 369.22 266.25C368.903 266.738 368.488 267.153 368 267.47Z" fill="#263238"/>
<path d="M264.49 288.74H264.22H263.42C262.71 288.74 261.67 288.64 260.34 288.49C258.713 288.316 257.111 287.95 255.57 287.4C253.497 286.662 251.679 285.347 250.33 283.61C248.867 281.37 248.195 278.706 248.42 276.04C248.487 274.58 248.631 273.125 248.85 271.68C249.017 270.133 249.336 268.605 249.8 267.12C250.304 265.522 251.298 264.123 252.64 263.12C254.08 262.06 255.96 262 257.64 262.02C259.32 262.04 261.15 262.09 262.54 261.09C263.204 260.534 263.746 259.846 264.13 259.07C264.514 258.293 264.732 257.445 264.77 256.58C264.843 254.791 264.776 252.999 264.57 251.22C264.477 249.454 264.551 247.682 264.79 245.93C265.226 242.612 266.267 239.403 267.86 236.46C269.289 233.788 271.213 231.413 273.53 229.46C275.552 227.768 277.862 226.454 280.35 225.58C283.936 224.248 287.815 223.903 291.58 224.58C292.965 224.817 294.312 225.244 295.58 225.85L295.32 225.78L294.56 225.52C293.58 225.199 292.577 224.952 291.56 224.78C287.837 224.174 284.021 224.554 280.49 225.88C278.053 226.766 275.791 228.076 273.81 229.75C271.556 231.686 269.684 234.026 268.29 236.65C266.731 239.548 265.715 242.707 265.29 245.97C265.059 247.69 264.989 249.427 265.08 251.16C265.283 252.966 265.35 254.784 265.28 256.6C265.237 257.539 264.998 258.458 264.577 259.299C264.157 260.139 263.565 260.882 262.84 261.48C262.07 262 261.184 262.323 260.26 262.42C259.383 262.506 258.501 262.533 257.62 262.5C256.013 262.215 254.359 262.548 252.988 263.433C251.617 264.318 250.632 265.689 250.23 267.27C249.769 268.725 249.45 270.223 249.28 271.74C249.055 273.168 248.905 274.606 248.83 276.05C248.595 278.626 249.221 281.208 250.61 283.39C251.903 285.087 253.656 286.378 255.66 287.11C257.173 287.68 258.747 288.073 260.35 288.28C261.67 288.46 262.7 288.55 263.4 288.62L264.2 288.7C264.298 288.696 264.396 288.71 264.49 288.74Z" fill="#263238"/>
<path d="M296.52 239.41C296.288 239.812 296.016 240.191 295.71 240.54C295.44 240.88 295.1 241.31 294.71 241.83C294.32 242.35 293.91 242.92 293.48 243.59C292.45 245.143 291.509 246.752 290.66 248.41C289.635 250.442 288.747 252.54 288 254.69C287.286 256.854 286.715 259.062 286.29 261.3C285.952 263.128 285.722 264.975 285.6 266.83C285.53 267.63 285.53 268.35 285.5 268.98C285.47 269.61 285.5 270.16 285.5 270.6C285.547 271.062 285.547 271.528 285.5 271.99C285.406 271.536 285.353 271.074 285.34 270.61C285.34 270.16 285.27 269.61 285.27 268.98C285.27 268.35 285.27 267.62 285.27 266.82C285.343 264.939 285.54 263.065 285.86 261.21C286.259 258.942 286.824 256.706 287.55 254.52C288.306 252.348 289.215 250.233 290.27 248.19C291.144 246.526 292.13 244.922 293.22 243.39C293.66 242.72 294.13 242.16 294.52 241.66C294.846 241.224 295.196 240.806 295.57 240.41C295.851 240.045 296.17 239.71 296.52 239.41Z" fill="#263238"/>
<path d="M306.61 234.63C306.239 235.049 305.834 235.437 305.4 235.79C304.99 236.14 304.5 236.58 303.96 237.13C303.42 237.68 302.77 238.25 302.12 238.96C300.555 240.579 299.083 242.285 297.71 244.07C296.047 246.267 294.528 248.568 293.16 250.96C291.821 253.37 290.635 255.861 289.61 258.42C288.79 260.519 288.089 262.662 287.51 264.84C287.23 265.76 287.07 266.62 286.89 267.36C286.71 268.1 286.58 268.75 286.48 269.28C286.399 269.835 286.279 270.383 286.12 270.92C286.124 270.359 286.181 269.8 286.29 269.25C286.35 268.71 286.45 268.05 286.6 267.3C286.75 266.55 286.9 265.68 287.15 264.75C287.682 262.544 288.35 260.373 289.15 258.25C291.133 253.045 293.887 248.167 297.32 243.78C298.723 241.994 300.236 240.297 301.85 238.7C302.52 238 303.19 237.43 303.75 236.91C304.31 236.39 304.83 235.97 305.25 235.63C305.676 235.261 306.131 234.927 306.61 234.63Z" fill="#263238"/>
<path d="M271.25 294C271.25 294 271.17 294.08 270.98 294.2C270.71 294.388 270.422 294.549 270.12 294.68C268.969 295.219 267.711 295.489 266.44 295.47C264.41 295.467 262.429 294.846 260.76 293.69C258.581 292.089 257.08 289.731 256.55 287.08C256.213 285.559 256.162 283.989 256.4 282.45C256.668 280.78 257.24 279.173 258.09 277.71C258.988 276.143 260.136 274.735 261.49 273.54C262.942 272.306 264.532 271.245 266.23 270.38C267.99 269.528 269.601 268.397 271 267.03C272.366 265.52 273.338 263.696 273.83 261.72C274.352 259.661 274.65 257.553 274.72 255.43C274.83 253.27 274.82 251.05 275.04 248.81C275.198 246.578 275.704 244.385 276.54 242.31C277.379 240.276 278.802 238.536 280.63 237.31C282.4 236.185 284.338 235.348 286.37 234.83C288.37 234.27 290.27 233.83 292.1 233.27C293.884 232.77 295.573 231.98 297.1 230.93C297.459 230.678 297.793 230.393 298.1 230.08C298.424 229.783 298.728 229.466 299.01 229.13C299.544 228.449 300.029 227.731 300.46 226.98C301.232 225.493 302.164 224.094 303.24 222.81C304.314 221.673 305.606 220.764 307.04 220.14C309.193 219.163 311.604 218.905 313.915 219.406C316.226 219.907 318.314 221.139 319.87 222.92C320.717 223.859 321.393 224.939 321.87 226.11C322.047 226.511 322.181 226.93 322.27 227.36C322.27 227.36 322.13 226.93 321.77 226.15C321.257 225.009 320.557 223.961 319.7 223.05C318.35 221.605 316.648 220.537 314.76 219.95C312.244 219.216 309.549 219.404 307.16 220.48C305.783 221.095 304.542 221.979 303.51 223.08C302.467 224.354 301.562 225.735 300.81 227.2C300.371 227.972 299.877 228.711 299.33 229.41C299.04 229.765 298.726 230.099 298.39 230.41C298.063 230.741 297.705 231.039 297.32 231.3C295.748 232.387 294.008 233.208 292.17 233.73C290.31 234.32 288.37 234.73 286.43 235.31C284.451 235.819 282.565 236.635 280.84 237.73C279.091 238.909 277.731 240.579 276.93 242.53C276.119 244.555 275.63 246.694 275.48 248.87C275.26 251.08 275.27 253.28 275.16 255.46C275.083 257.62 274.775 259.766 274.24 261.86C273.724 263.914 272.711 265.81 271.29 267.38C269.846 268.776 268.188 269.934 266.38 270.81C264.708 271.649 263.14 272.683 261.71 273.89C260.395 275.038 259.271 276.388 258.38 277.89C257.549 279.305 256.986 280.861 256.72 282.48C256.48 283.971 256.517 285.493 256.83 286.97C257.317 289.542 258.743 291.841 260.83 293.42C262.441 294.568 264.362 295.203 266.34 295.24C267.589 295.274 268.83 295.039 269.98 294.55C270.87 294.28 271.23 294 271.25 294Z" fill="#455A64"/>
<path d="M340.18 271.85C340.188 272.499 339.943 273.125 339.497 273.595C339.051 274.066 338.438 274.344 337.79 274.37C337.473 274.397 337.153 274.36 336.85 274.262C336.547 274.163 336.267 274.005 336.026 273.796C335.786 273.587 335.589 273.332 335.449 273.046C335.309 272.76 335.228 272.448 335.21 272.13C335.204 271.48 335.452 270.854 335.9 270.384C336.348 269.913 336.961 269.636 337.61 269.61C337.927 269.584 338.245 269.622 338.547 269.721C338.849 269.82 339.128 269.979 339.368 270.188C339.607 270.397 339.802 270.651 339.942 270.937C340.081 271.222 340.162 271.533 340.18 271.85Z" fill="#263238"/>
<path d="M342.29 264.25C341.98 264.58 340.09 263.19 337.41 263.2C334.73 263.21 332.77 264.56 332.47 264.2C332.33 264.05 332.64 263.47 333.47 262.84C334.629 262.034 336.008 261.605 337.42 261.61C338.813 261.604 340.172 262.042 341.3 262.86C342.16 263.52 342.44 264.11 342.29 264.25Z" fill="#263238"/>
<path d="M317 271.85C317.008 272.5 316.762 273.128 316.313 273.599C315.865 274.07 315.25 274.347 314.6 274.37C314.283 274.396 313.965 274.358 313.663 274.259C313.361 274.16 313.082 274.001 312.843 273.792C312.603 273.583 312.408 273.329 312.268 273.043C312.129 272.758 312.048 272.447 312.03 272.13C312.022 271.481 312.267 270.855 312.713 270.385C313.159 269.914 313.772 269.636 314.42 269.61C314.737 269.583 315.057 269.62 315.36 269.718C315.663 269.817 315.943 269.975 316.184 270.184C316.425 270.393 316.621 270.648 316.761 270.934C316.901 271.22 316.982 271.532 317 271.85Z" fill="#263238"/>
<path d="M316.9 264.25C316.59 264.58 314.7 263.19 312.02 263.2C309.34 263.21 307.38 264.56 307.09 264.2C306.95 264.05 307.26 263.47 308.09 262.84C309.25 262.036 310.629 261.607 312.04 261.61C313.436 261.605 314.798 262.042 315.93 262.86C316.77 263.52 317.05 264.11 316.9 264.25Z" fill="#263238"/>
<path d="M362.39 348.17C350.82 334.08 340.81 332.08 340.81 332.08L340.88 382.33L377.78 429L392.78 390.59C392.78 390.59 370.23 357.71 362.39 348.17Z" fill="#FF6CBC"/>
<path d="M324.42 328.1L340.96 332.1C340.96 332.1 349.5 381.63 346.4 394.44C343.77 405.34 335.31 455.64 335.31 455.64H233.31L267.5 357.5C267.5 357.5 267.7 335.92 262.42 325.95C265.62 325.18 276.42 323.19 285.75 321.44C285.75 321.44 291.95 329.18 306.55 331.44C321.15 333.7 324.42 328.1 324.42 328.1Z" fill="#FF6CBC"/>
<path d="M344.67 369.59H280.6C275 402.35 261.36 414.92 237.32 433.89L233.32 455.66H335.32L341.24 421.45L340.89 408.86L344.67 369.59Z" fill="#455A64"/>
<path d="M264.88 325.47C264.88 325.47 240.52 327.42 231.77 367.34C227.77 385.4 222.77 406.56 221.38 420.78C220.38 431.1 224.03 445.36 233.94 447.72L252 450C260.05 450.12 265.57 443.59 267.26 436.58L270 425.46C271.94 411.84 261.57 410.66 255.74 410.78L268.56 360.08L271.05 335.54L264.88 325.47Z" fill="#FF6CBC"/>
<path d="M348.12 359.42C348.171 359.603 348.208 359.791 348.23 359.98L348.47 361.59C348.47 361.94 348.58 362.33 348.64 362.75C348.7 363.17 348.73 363.65 348.78 364.15C348.88 365.15 349.01 366.28 349.06 367.55C349.234 370.507 349.254 373.471 349.12 376.43C348.932 380.053 348.558 383.665 348 387.25C347.44 391.06 346.74 394.67 346 397.94C345.26 401.21 344.58 404.12 344 406.58C343.42 409.04 342.87 411 342.5 412.36C342.32 413.02 342.17 413.54 342.06 413.93C342.024 414.117 341.963 414.299 341.88 414.47C341.906 414.281 341.942 414.094 341.99 413.91L342.35 412.33L343.74 406.51C344.31 404.05 345 401.13 345.68 397.86C346.36 394.59 347.07 391 347.62 387.19C348.17 383.38 348.62 379.74 348.73 376.41C348.84 373.08 348.9 370.08 348.73 367.56C348.73 366.3 348.6 365.16 348.52 364.17C348.52 363.67 348.44 363.17 348.41 362.77C348.38 362.37 348.31 361.96 348.27 361.61C348.2 360.94 348.14 360.4 348.1 359.99C348.087 359.8 348.093 359.609 348.12 359.42Z" fill="#263238"/>
<path d="M236.52 424.79C236.545 424.45 236.609 424.115 236.71 423.79C236.95 422.892 237.264 422.015 237.65 421.17C238.93 418.336 240.927 415.884 243.443 414.057C245.959 412.229 248.909 411.09 252 410.75C252.923 410.642 253.852 410.612 254.78 410.66C255.117 410.664 255.452 410.704 255.78 410.78C255.78 410.87 254.32 410.69 252.01 411.02C248.998 411.437 246.136 412.592 243.678 414.382C241.22 416.172 239.242 418.542 237.92 421.28C237.393 422.425 236.926 423.596 236.52 424.79Z" fill="#263238"/>
<path d="M242.15 404.9C242.345 404.867 242.545 404.867 242.74 404.9C243.278 404.884 243.816 404.907 244.35 404.97C246.117 405.149 247.848 405.583 249.49 406.26C251.13 406.94 252.665 407.849 254.05 408.96C254.473 409.293 254.874 409.654 255.25 410.04C255.398 410.17 255.526 410.322 255.63 410.49C255.58 410.54 254.97 409.97 253.89 409.18C251.068 407.101 247.778 405.748 244.31 405.24C243 405 242.15 405 242.15 404.9Z" fill="#263238"/>
<path d="M267.38 353.21C267.322 352.857 267.302 352.498 267.32 352.14C267.32 351.45 267.27 350.46 267.19 349.24C266.751 342.872 265.005 336.663 262.06 331C261.5 329.92 261.01 329.05 260.66 328.46C260.458 328.167 260.29 327.852 260.16 327.52C260.396 327.787 260.607 328.075 260.79 328.38C261.18 328.95 261.7 329.8 262.3 330.87C265.411 336.525 267.177 342.822 267.46 349.27C267.51 350.5 267.51 351.49 267.46 352.18C267.462 352.525 267.435 352.87 267.38 353.21Z" fill="#263238"/>
<g opacity="0.3">
<path d="M347 392.94C353.22 382.41 353.35 368.73 347.93 357.78C349.674 369.458 349.298 381.355 346.82 392.9" fill="black"/>
</g>
<path d="M262.69 445.61C262.69 445.61 262.27 446.12 261.36 446.87C260.036 447.88 258.517 448.605 256.9 449C254.502 449.597 252.026 449.817 249.56 449.65C246.78 449.45 243.71 449.12 240.56 448.65C237.558 448.273 234.601 447.603 231.73 446.65C230.532 446.125 229.435 445.394 228.49 444.49C227.651 443.706 226.891 442.842 226.22 441.91C225.242 440.56 224.408 439.113 223.73 437.59C223.5 437.04 223.32 436.59 223.21 436.33C223.161 436.176 223.093 436.029 223.01 435.89C223.034 436.05 223.074 436.208 223.13 436.36C223.22 436.66 223.38 437.09 223.59 437.65C224.224 439.188 225.033 440.647 226 442C226.663 442.96 227.423 443.848 228.27 444.65C229.233 445.595 230.357 446.361 231.59 446.91C234.48 447.912 237.466 448.612 240.5 449C243.71 449.48 246.78 449.79 249.58 450C252.084 450.151 254.595 449.901 257.02 449.26C258.659 448.829 260.187 448.052 261.5 446.98C261.865 446.68 262.2 446.345 262.5 445.98C262.577 445.864 262.64 445.74 262.69 445.61Z" fill="#263238"/>
<path d="M266.72 365.93C266.61 365.93 264.04 375.88 260.98 388.21C257.92 400.54 255.51 410.56 255.62 410.58C255.73 410.6 258.29 400.64 261.36 388.3C264.43 375.96 266.82 366 266.72 365.93Z" fill="#263238"/>
<path d="M269.82 422.23C269.89 421.962 269.93 421.687 269.94 421.41C270.023 420.656 270.04 419.897 269.99 419.14C269.904 418.017 269.529 416.935 268.9 416C268.54 415.434 268.121 414.908 267.65 414.43C267.13 413.929 266.549 413.495 265.92 413.14C263.706 411.966 261.303 411.19 258.82 410.85C258.075 410.736 257.323 410.669 256.57 410.65C256.295 410.605 256.015 410.605 255.74 410.65C255.74 410.71 256.92 410.76 258.74 411.09C261.16 411.513 263.501 412.306 265.68 413.44C266.284 413.776 266.842 414.19 267.34 414.67C267.794 415.126 268.203 415.625 268.56 416.16C269.178 417.051 269.563 418.082 269.68 419.16C269.748 419.901 269.771 420.646 269.75 421.39C269.741 421.672 269.764 421.954 269.82 422.23Z" fill="#263238"/>
<path d="M342.08 441.81C340.13 438.11 324.84 428.35 324.84 428.35L328.98 427.35L333.55 429.29C333.905 430.843 334.586 432.302 335.55 433.57C337.23 435.96 340.08 433.48 340.08 433.48L338.15 424.23L329.15 418.79C329.15 418.79 320.65 420.09 319.27 420.74L315.65 424.06C314.06 425.31 309.46 430.23 308.21 430.38C306.96 430.53 267.49 421.65 267.49 421.65C262.08 425.93 259.23 434.44 258.37 440.58C258.37 440.58 257.37 443.58 258.45 445.24L306.9 449.04L317.16 451.87C319.908 453.009 322.723 453.977 325.59 454.77C329.01 455.49 331.31 454.39 331.4 452.5C331.49 450.61 328.84 450.4 328.84 450.4C326.576 449.586 324.371 448.617 322.24 447.5C320.687 446.459 319.41 445.055 318.52 443.41L322.18 443.85C322.18 443.85 329.96 449.25 332.88 450.85C335.8 452.45 336.38 449.53 336.62 448.64C336.86 447.75 327.8 439 327.8 439C327.8 439 336.33 444.26 337.87 445.59C339.41 446.92 341.68 447.31 342.17 446.42C342.66 445.53 344 445.51 342.08 441.81Z" fill="#FFBF9D"/>
<path d="M300 442.66C299.97 442.461 299.97 442.259 300 442.06C299.995 441.826 300.011 441.591 300.05 441.36C300.074 441.049 300.127 440.741 300.21 440.44C300.694 438.691 301.539 437.063 302.69 435.66C303.808 434.248 305.06 432.948 306.43 431.78C306.966 431.264 307.556 430.808 308.19 430.42C307.687 430.964 307.157 431.481 306.6 431.97C305.295 433.179 304.085 434.486 302.98 435.88C301.857 437.248 301.002 438.815 300.46 440.5C300 441.8 300.06 442.66 300 442.66Z" fill="#FF9A6C"/>
<path d="M324.49 428.06C323.617 428.246 322.708 428.166 321.88 427.83C321.016 427.602 320.242 427.117 319.66 426.44C319.72 426.35 320.66 427.05 321.99 427.49C323.32 427.93 324.49 428 324.49 428.06Z" fill="#FF9A6C"/>
<path d="M327 438.19C325.663 437.833 324.359 437.364 323.1 436.79C321.802 436.319 320.548 435.737 319.35 435.05C320.687 435.396 321.989 435.864 323.24 436.45C324.539 436.925 325.797 437.507 327 438.19Z" fill="#FF9A6C"/>
<path d="M318.83 443.37C318.138 443.211 317.467 442.972 316.83 442.66C316.152 442.463 315.501 442.184 314.89 441.83C315.608 441.846 316.314 442.017 316.96 442.33C317.652 442.535 318.291 442.89 318.83 443.37Z" fill="#FF9A6C"/>
<path d="M325.77 438.87C325.216 439.249 324.71 439.692 324.26 440.19C323.902 440.755 323.61 441.359 323.39 441.99C323.39 441.99 323.3 441.75 323.39 441.36C323.48 440.854 323.689 440.377 324.001 439.968C324.312 439.56 324.716 439.231 325.18 439.01C325.51 438.85 325.76 438.83 325.77 438.87Z" fill="#FF9A6C"/>
<path d="M329.36 433.21C329.41 433.31 328.74 433.67 328.3 434.44C328.078 434.936 327.891 435.448 327.74 435.97C327.636 435.687 327.604 435.382 327.648 435.083C327.691 434.785 327.809 434.502 327.99 434.26C328.5 433.38 329.34 433.12 329.36 433.21Z" fill="#FF9A6C"/>
<path d="M328.14 423.11C328.14 423.11 327.96 422.96 327.85 422.63C327.737 422.187 327.737 421.723 327.85 421.28C327.957 420.835 328.181 420.428 328.5 420.1C328.74 419.85 328.94 419.76 328.97 419.8C328.649 420.29 328.391 420.817 328.2 421.37C328.107 421.945 328.087 422.53 328.14 423.11Z" fill="#FF9A6C"/>
<path d="M258 446.66C258.045 446.292 258.065 445.921 258.06 445.55C258.06 445.19 258.06 444.76 258.11 444.25C258.16 443.74 258.16 443.16 258.23 442.53C258.516 439.216 259.229 435.952 260.35 432.82C260.982 431.096 261.748 429.425 262.64 427.82C263.09 427.11 263.48 426.41 263.92 425.82L264.54 424.93L265.17 424.15C266.77 422.15 268.01 421.15 267.95 421.09C267.638 421.295 267.347 421.529 267.08 421.79C266.745 422.07 266.428 422.371 266.13 422.69C265.697 423.105 265.287 423.542 264.9 424L264.26 424.78C264.04 425.06 263.83 425.36 263.61 425.66C263.14 426.26 262.74 426.97 262.28 427.66C261.358 429.258 260.572 430.931 259.93 432.66C258.804 435.823 258.13 439.129 257.93 442.48C257.87 443.12 257.88 443.7 257.86 444.21C257.84 444.72 257.86 445.16 257.86 445.52C257.866 445.904 257.913 446.286 258 446.66Z" fill="#263238"/>
<g opacity="0.3">
<path d="M291.51 376.34V377.66L284.14 378.14L280.4 348.46C280.4 348.46 278.82 338.46 277.79 334.83C276.76 331.2 272.39 323.95 272.39 323.95L275.63 323.34L282 333.62L291.51 376.34Z" fill="black"/>
</g>
<path d="M292.48 376.3C292.48 376.3 289.21 348.73 286.12 337.72C283.03 326.71 278.23 322.79 278.23 322.79L273.48 323.68C273.48 323.68 278.21 329.43 280.03 339.57C281.85 349.71 285.28 376.63 285.28 376.63L292.48 376.3Z" fill="#455A64"/>
<path d="M292.48 376.3H292.03L290.67 376.39L285.29 376.71H285.18V376.6C284.49 371.6 283.44 364.03 282.18 354.79C281.5 350.16 280.79 345.1 279.85 339.79C279.376 337.057 278.632 334.377 277.63 331.79C276.619 329.091 275.275 326.527 273.63 324.16L273.35 323.8L273.09 323.45L273.5 323.38L278.25 322.48H278.38L278.46 322.56C279.887 323.924 281.11 325.486 282.09 327.2C283.057 328.831 283.9 330.532 284.61 332.29C285.923 335.597 286.927 339.018 287.61 342.51C288.97 349.13 289.85 355.11 290.61 360.11C291.37 365.11 291.82 369.11 292.15 371.94C292.31 373.31 292.42 374.38 292.51 375.15C292.51 375.49 292.57 375.77 292.59 375.98C292.61 376.19 292.59 376.27 292.59 376.27C292.561 376.175 292.541 376.078 292.53 375.98C292.53 375.77 292.45 375.5 292.4 375.16C292.29 374.4 292.14 373.33 291.95 371.97C291.56 369.19 291.01 365.16 290.25 360.16C289.49 355.16 288.55 349.16 287.17 342.6C286.48 339.142 285.476 335.755 284.17 332.48C283.466 330.752 282.63 329.08 281.67 327.48C280.714 325.819 279.529 324.301 278.15 322.97L278.37 323.02L273.62 323.92L273.77 323.5L274.07 323.88C275.756 326.281 277.134 328.885 278.17 331.63C279.175 334.245 279.925 336.951 280.41 339.71C281.33 345.06 282.03 350.11 282.67 354.71C283.95 363.98 284.89 371.57 285.49 376.55L285.37 376.45L290.69 376.27H292.08L292.48 376.3Z" fill="#263238"/>
<path d="M340.81 332.08C340.81 332.08 341.91 362.21 338.14 377.66L330.94 377.43C330.94 377.43 336.29 339.96 335.58 330.62C337.42 330.648 339.221 331.151 340.81 332.08Z" fill="#455A64"/>
<path d="M340.81 332.08C340.81 332.08 340.41 331.83 339.55 331.48C338.271 330.999 336.917 330.745 335.55 330.73L335.66 330.61C335.93 334.82 335.42 341.4 334.66 349.48C333.9 357.56 332.66 367.18 331.2 377.48L330.95 377.18H331.14L338.14 377.41L337.88 377.61C339.132 371.731 339.918 365.763 340.23 359.76C340.58 354.28 340.71 349.37 340.77 345.27C340.83 341.17 340.82 337.87 340.77 335.61C340.77 334.5 340.77 333.61 340.77 333C340.77 332.39 340.77 332.11 340.77 332.09C340.824 332.39 340.851 332.695 340.85 333C340.85 333.63 340.91 334.5 340.95 335.6C341.02 337.87 341.09 341.17 341.08 345.27C341.07 349.37 340.97 354.27 340.64 359.79C340.367 365.822 339.601 371.822 338.35 377.73L338.3 377.93H338.09L331.09 377.7H330.62V377.41C332.06 367.13 333.27 357.53 334.15 349.46C335.03 341.39 335.58 334.82 335.41 330.64V330.52H335.53C336.906 330.561 338.262 330.856 339.53 331.39C339.852 331.533 340.163 331.7 340.46 331.89L340.81 332.08Z" fill="#263238"/>
<path d="M333.3 373.29C333.302 373.715 333.43 374.13 333.667 374.482C333.905 374.834 334.241 375.108 334.634 375.269C335.027 375.431 335.459 375.472 335.876 375.388C336.292 375.303 336.674 375.098 336.974 374.797C337.274 374.496 337.477 374.113 337.559 373.696C337.642 373.279 337.598 372.847 337.435 372.455C337.272 372.063 336.997 371.728 336.644 371.492C336.29 371.256 335.875 371.13 335.45 371.13C335.167 371.13 334.886 371.186 334.625 371.295C334.363 371.403 334.126 371.563 333.926 371.763C333.726 371.964 333.568 372.202 333.461 372.464C333.353 372.726 333.299 373.007 333.3 373.29Z" fill="#E0E0E0"/>
<path d="M335.45 375.47C335.019 375.47 334.597 375.342 334.239 375.103C333.88 374.863 333.601 374.523 333.436 374.124C333.271 373.726 333.228 373.288 333.312 372.865C333.396 372.442 333.604 372.053 333.909 371.749C334.213 371.444 334.602 371.236 335.025 371.152C335.448 371.068 335.886 371.111 336.284 371.276C336.683 371.441 337.023 371.72 337.263 372.079C337.502 372.437 337.63 372.859 337.63 373.29C337.627 373.867 337.397 374.42 336.989 374.829C336.58 375.237 336.027 375.467 335.45 375.47ZM335.45 371.16C335.029 371.16 334.617 371.285 334.267 371.519C333.916 371.753 333.643 372.086 333.482 372.475C333.321 372.864 333.279 373.292 333.361 373.706C333.443 374.119 333.646 374.498 333.944 374.796C334.242 375.094 334.621 375.297 335.034 375.379C335.448 375.461 335.876 375.419 336.265 375.258C336.654 375.097 336.987 374.824 337.221 374.473C337.455 374.123 337.58 373.711 337.58 373.29C337.58 372.725 337.356 372.183 336.956 371.784C336.557 371.385 336.015 371.16 335.45 371.16Z" fill="#263238"/>
<path d="M288.38 374.72C289.567 374.72 290.53 373.757 290.53 372.57C290.53 371.383 289.567 370.42 288.38 370.42C287.193 370.42 286.23 371.383 286.23 372.57C286.23 373.757 287.193 374.72 288.38 374.72Z" fill="#E0E0E0"/>
<path d="M288.38 374.75C287.949 374.75 287.527 374.622 287.169 374.383C286.81 374.143 286.531 373.803 286.366 373.404C286.201 373.006 286.158 372.568 286.242 372.145C286.326 371.722 286.534 371.334 286.838 371.029C287.143 370.724 287.532 370.516 287.955 370.432C288.378 370.348 288.816 370.391 289.214 370.556C289.613 370.721 289.953 371 290.193 371.359C290.432 371.717 290.56 372.139 290.56 372.57C290.557 373.148 290.327 373.7 289.919 374.109C289.51 374.517 288.957 374.748 288.38 374.75ZM288.38 370.44C287.959 370.44 287.547 370.565 287.197 370.799C286.846 371.033 286.573 371.366 286.412 371.755C286.251 372.144 286.209 372.572 286.291 372.986C286.373 373.399 286.576 373.778 286.874 374.076C287.172 374.374 287.551 374.577 287.964 374.659C288.378 374.741 288.806 374.699 289.195 374.538C289.584 374.377 289.917 374.104 290.151 373.753C290.385 373.403 290.51 372.991 290.51 372.57C290.51 372.005 290.286 371.463 289.886 371.064C289.487 370.665 288.945 370.44 288.38 370.44Z" fill="#263238"/>
<path d="M331.39 395.35C331.401 395.46 331.401 395.57 331.39 395.68V396.68C331.39 397.53 331.39 398.78 331.23 400.39C331.101 402.356 330.766 404.304 330.23 406.2C329.448 408.708 328.154 411.027 326.43 413.01C322.82 417.6 316.29 421.12 308.67 422.09C306.711 422.317 304.734 422.344 302.77 422.17C300.69 422.025 298.655 421.492 296.77 420.6C292.865 418.64 289.685 415.488 287.69 411.6C285.744 407.722 284.688 403.458 284.6 399.12C284.545 398.081 284.545 397.039 284.6 396C284.644 395.464 284.78 394.94 285 394.45C285.241 393.937 285.655 393.526 286.17 393.29C287.144 393.012 288.166 392.937 289.17 393.07L292.07 393.19L312.33 394.02L325.98 394.62L329.69 394.82L330.69 394.88C330.8 394.864 330.911 394.864 331.02 394.88H329.72L326 394.79L312.34 394.35L292.08 393.62L289.19 393.52C288.247 393.393 287.288 393.458 286.37 393.71C285.967 393.939 285.636 394.276 285.412 394.681C285.188 395.087 285.08 395.547 285.1 396.01C285.045 397.026 285.045 398.044 285.1 399.06C285.175 403.319 286.2 407.508 288.1 411.32C290.038 415.119 293.134 418.205 296.94 420.13C298.758 420.997 300.721 421.519 302.73 421.67C304.657 421.84 306.597 421.82 308.52 421.61C316.04 420.67 322.47 417.25 326.06 412.77C327.764 410.829 329.056 408.564 329.86 406.11C330.417 404.235 330.782 402.309 330.95 400.36C331.1 398.76 331.16 397.51 331.21 396.66C331.21 396.26 331.21 395.94 331.26 395.66C331.293 395.553 331.337 395.449 331.39 395.35Z" fill="#263238"/>
<g opacity="0.3">
<path d="M275.49 423.42C275.747 421.597 275.62 419.74 275.119 417.968C274.618 416.197 273.753 414.549 272.58 413.13C271.389 411.678 269.912 410.485 268.242 409.625C266.572 408.765 264.744 408.256 262.87 408.13C262.453 395.504 263.378 382.87 265.63 370.44L255.63 410.44C255.63 410.44 269.55 410.63 269.82 422.23L275.49 423.42Z" fill="black"/>
</g>
<g opacity="0.3">
<path d="M286.12 271.12C287.181 262.899 290.038 255.012 294.49 248.02C294.98 247.25 295.49 246.28 295.04 245.49C294.81 245.185 294.48 244.969 294.108 244.879C293.736 244.79 293.344 244.833 293 245C292.312 245.369 291.738 245.919 291.34 246.59C288.904 250.08 287.196 254.025 286.318 258.19C285.44 262.355 285.41 266.654 286.23 270.83" fill="black"/>
</g>
<path d="M458.94 386.37L444.8 455.82H322C321.35 455.82 320.727 455.562 320.268 455.102C319.808 454.643 319.55 454.02 319.55 453.37C319.549 453.048 319.611 452.729 319.734 452.431C319.857 452.133 320.037 451.862 320.265 451.635C320.492 451.407 320.763 451.226 321.061 451.104C321.359 450.981 321.678 450.919 322 450.92H346.72L359.84 386.32C359.96 385.72 360.283 385.179 360.754 384.789C361.226 384.4 361.818 384.184 362.43 384.18L456.29 383.18C456.687 383.177 457.079 383.263 457.439 383.43C457.799 383.597 458.117 383.842 458.371 384.147C458.624 384.453 458.807 384.81 458.905 385.195C459.004 385.579 459.016 385.98 458.94 386.37Z" fill="#E0E0E0"/>
<path d="M458.94 386.37C458.944 386.3 458.944 386.23 458.94 386.16C458.967 385.951 458.967 385.739 458.94 385.53C458.892 385.119 458.749 384.725 458.524 384.378C458.298 384.031 457.996 383.741 457.64 383.53C457.391 383.378 457.116 383.269 456.83 383.21C456.501 383.146 456.165 383.126 455.83 383.15H453.62L448.09 383.2L412.61 383.54L387.87 383.78L374.01 383.93L366.74 384H363.02C362.71 384 362.41 384 362.07 384C361.575 384.059 361.103 384.246 360.702 384.542C360.3 384.839 359.983 385.234 359.78 385.69C359.656 385.996 359.569 386.314 359.52 386.64L359.33 387.57C359.2 388.19 359.08 388.82 358.95 389.45C358.69 390.7 358.44 391.97 358.18 393.24C357.66 395.78 357.137 398.357 356.61 400.97C355.55 406.183 354.463 411.517 353.35 416.97C351.14 427.86 348.84 439.18 346.46 450.85L346.63 450.72H322.41C322.076 450.7 321.741 450.716 321.41 450.77C320.756 450.913 320.18 451.299 319.8 451.85C319.593 452.154 319.452 452.498 319.385 452.86C319.319 453.222 319.329 453.594 319.414 453.951C319.5 454.309 319.66 454.645 319.883 454.938C320.106 455.23 320.388 455.473 320.71 455.65C321.066 455.838 321.458 455.944 321.86 455.96H387.1H444.76H444.86V455.86C449.19 434.51 452.7 417.14 455.14 405.11L458 391.22C458.32 389.64 458.56 388.43 458.72 387.6C458.88 386.77 458.95 386.37 458.95 386.37L458.68 387.6L457.93 391.21C457.27 394.39 456.31 399.06 455.07 405.07C452.6 417.07 449.07 434.46 444.68 455.8L444.81 455.69H387.15H321.92C321.571 455.675 321.23 455.582 320.92 455.42C320.638 455.267 320.392 455.056 320.197 454.801C320.002 454.546 319.863 454.253 319.788 453.941C319.714 453.629 319.706 453.305 319.765 452.989C319.824 452.674 319.948 452.374 320.13 452.11C320.461 451.633 320.962 451.301 321.53 451.18C321.824 451.127 322.122 451.111 322.42 451.13H346.87V451L353.75 417.11C354.85 411.67 355.93 406.337 356.99 401.11C357.517 398.497 358.04 395.92 358.56 393.38C358.81 392.11 359.07 390.84 359.32 389.59C359.45 388.96 359.58 388.33 359.7 387.71L359.89 386.78C359.94 386.476 360.021 386.178 360.13 385.89C360.37 385.337 360.799 384.886 361.34 384.62C361.607 384.489 361.895 384.408 362.19 384.38C362.47 384.38 362.8 384.38 363.11 384.38H366.82L374.09 384.3L388 384L412.74 383.71L448.22 383.27L453.75 383.2H455.96C456.278 383.186 456.596 383.203 456.91 383.25C457.188 383.312 457.454 383.417 457.7 383.56C458.056 383.771 458.358 384.061 458.584 384.408C458.809 384.755 458.952 385.149 459 385.56C459.013 385.832 458.992 386.104 458.94 386.37Z" fill="#263238"/>
<path d="M402.36 418.15C402.348 418.956 402.576 419.747 403.016 420.423C403.455 421.098 404.085 421.628 404.827 421.944C405.568 422.261 406.387 422.349 407.178 422.198C407.97 422.048 408.699 421.665 409.273 421.099C409.846 420.532 410.238 419.808 410.398 419.018C410.559 418.228 410.481 417.409 410.174 416.663C409.867 415.918 409.345 415.281 408.675 414.834C408.004 414.386 407.216 414.148 406.41 414.15C405.345 414.15 404.322 414.57 403.564 415.318C402.806 416.067 402.373 417.084 402.36 418.15Z" fill="white"/>
<path d="M458.83 386.93H452.39L434.83 387.02L376.91 387.43L368.53 387.5H366.47C366.119 387.489 365.767 387.513 365.42 387.57C365.065 387.64 364.726 387.776 364.42 387.97C363.808 388.356 363.364 388.96 363.18 389.66C363.02 390.34 362.91 390.98 362.77 391.66C361.77 396.89 360.77 401.94 359.77 406.75L354.77 432.3C353.35 439.56 352.19 445.45 351.39 449.53C351.01 451.53 350.7 453.13 350.49 454.21C350.4 454.74 350.32 455.15 350.27 455.43C350.22 455.71 350.2 455.85 350.2 455.85C350.2 455.85 350.2 455.71 350.3 455.44L350.56 454.23C350.78 453.15 351.11 451.57 351.56 449.55C352.39 445.48 353.56 439.6 355.05 432.34C356.54 425.08 358.24 416.42 360.17 406.81C361.17 402 362.17 396.96 363.17 391.73C363.3 391.08 363.43 390.4 363.57 389.73C363.694 389.264 363.948 388.843 364.302 388.515C364.656 388.188 365.096 387.968 365.57 387.88C365.901 387.828 366.235 387.808 366.57 387.82H368.63L377.01 387.76L434.93 387.25L452.49 387.06L457.26 386.99H458.51L458.83 386.93Z" fill="#263238"/>
<path d="M259.54 202.76C261.271 203.801 263.328 204.159 265.309 203.765C267.29 203.371 269.053 202.252 270.254 200.628C271.454 199.004 272.007 196.99 271.802 194.981C271.598 192.971 270.653 191.11 269.15 189.76C270.801 189.111 272.206 187.957 273.164 186.464C274.122 184.971 274.585 183.214 274.488 181.442C274.391 179.671 273.737 177.975 272.621 176.596C271.505 175.217 269.982 174.224 268.27 173.76C268.909 172.14 269.119 170.383 268.879 168.659C268.639 166.935 267.958 165.301 266.902 163.917C265.846 162.533 264.451 161.446 262.851 160.759C261.251 160.073 259.501 159.811 257.77 160C256.636 157.732 254.775 155.908 252.485 154.821C250.194 153.733 247.604 153.444 245.13 154C243.71 153.022 242.014 152.524 240.291 152.579C238.568 152.633 236.907 153.238 235.552 154.304C234.197 155.369 233.218 156.841 232.759 158.503C232.3 160.164 232.384 161.93 233 163.54" fill="#263238"/>
<path d="M260.14 204.28C263.06 196.128 262.801 187.176 259.415 179.207C256.029 171.238 249.764 164.837 241.87 161.28L240.25 160.55C222.25 153.66 206.36 165.1 199.97 183.27L171.97 245.9L186.41 292.33L207.99 269.33L218.48 257.2C218.48 257.2 236.48 262.2 244.32 245.43C248.11 237.3 254.52 220 260.14 204.28Z" fill="#AE7461"/>
<path d="M218.65 257.2C210.817 253.679 204.163 247.979 199.48 240.78C199.48 240.78 197.72 254.7 215.22 260.78L218.65 257.2Z" fill="#6F4439"/>
<path d="M248.81 217.61C248.533 218.241 248.02 218.738 247.381 218.996C246.742 219.254 246.027 219.252 245.39 218.99C245.072 218.877 244.781 218.701 244.533 218.473C244.284 218.245 244.084 217.969 243.944 217.662C243.804 217.355 243.728 217.024 243.718 216.687C243.709 216.35 243.767 216.014 243.89 215.7C244.169 215.071 244.682 214.575 245.32 214.318C245.959 214.06 246.672 214.061 247.31 214.32C247.627 214.435 247.917 214.611 248.165 214.839C248.412 215.068 248.612 215.343 248.752 215.65C248.891 215.956 248.968 216.287 248.978 216.624C248.988 216.961 248.931 217.296 248.81 217.61Z" fill="#263238"/>
<path d="M252.8 210.89C252.36 211.07 251.15 208.89 248.56 207.74C245.97 206.59 243.48 207.01 243.34 206.57C243.27 206.37 243.83 205.94 244.93 205.71C246.402 205.439 247.922 205.631 249.28 206.26C250.625 206.865 251.745 207.88 252.48 209.16C253 210.13 253 210.82 252.8 210.89Z" fill="#263238"/>
<path d="M225 207.45C224.723 208.079 224.212 208.574 223.575 208.832C222.938 209.089 222.226 209.089 221.59 208.83C221.273 208.718 220.981 208.543 220.733 208.316C220.484 208.089 220.284 207.814 220.143 207.509C220.002 207.203 219.924 206.872 219.913 206.536C219.902 206.199 219.959 205.864 220.08 205.55C220.359 204.921 220.872 204.424 221.51 204.165C222.147 203.906 222.861 203.904 223.5 204.16C223.817 204.273 224.109 204.449 224.357 204.678C224.606 204.906 224.806 205.181 224.945 205.488C225.085 205.795 225.162 206.126 225.172 206.464C225.181 206.801 225.123 207.136 225 207.45Z" fill="#263238"/>
<path d="M227.13 199.89C226.69 200.07 225.48 197.89 222.89 196.74C220.3 195.59 217.81 196.02 217.67 195.57C217.6 195.37 218.16 194.94 219.26 194.71C220.732 194.439 222.252 194.631 223.61 195.26C224.956 195.865 226.076 196.88 226.81 198.16C227.33 199.13 227.34 199.82 227.13 199.89Z" fill="#263238"/>
<path d="M227.87 223.33C227.87 223.18 229.66 223.63 232.41 224.47C233.11 224.7 233.79 224.85 234.11 224.47C234.471 223.811 234.624 223.058 234.55 222.31C234.65 220.43 234.757 218.46 234.87 216.4C235.38 208 236.08 201.22 236.42 201.25C236.76 201.28 236.61 208.09 236.09 216.49C235.94 218.55 235.81 220.49 235.68 222.4C235.732 223.385 235.438 224.358 234.85 225.15C234.649 225.338 234.407 225.479 234.144 225.56C233.881 225.641 233.602 225.662 233.33 225.62C232.916 225.557 232.513 225.439 232.13 225.27C229.44 224.21 227.81 223.49 227.87 223.33Z" fill="#263238"/>
<path d="M231.89 191.43C231.26 191.93 229.36 190.22 226.67 188.9C223.98 187.58 221.47 186.99 221.53 186.2C221.53 185.83 222.32 185.45 223.53 185.37C225.088 185.312 226.634 185.656 228.02 186.37C229.401 187.053 230.577 188.088 231.43 189.37C232.07 190.38 232.19 191.19 231.89 191.43Z" fill="#263238"/>
<path d="M257.25 201.87C256.44 202.21 254.58 200.63 252.02 199.45C249.46 198.27 247.1 197.7 246.88 196.86C246.79 196.46 247.4 196.03 248.6 195.86C250.231 195.77 251.856 196.115 253.31 196.86C254.78 197.537 256.041 198.597 256.96 199.93C257.6 201 257.62 201.69 257.25 201.87Z" fill="#263238"/>
<path d="M195.28 200.9C195.54 200.273 195.67 199.599 195.661 198.92C195.653 198.242 195.506 197.571 195.23 196.951C194.954 196.331 194.555 195.773 194.056 195.312C193.557 194.851 192.97 194.497 192.33 194.27C189.05 193.15 184.75 193.36 182.03 199.94C177.2 211.63 189.93 214.07 190.09 213.74C190.25 213.41 193.3 205.81 195.28 200.9Z" fill="#AE7461"/>
<path d="M189.36 208.29C189.36 208.29 189.1 208.35 188.69 208.37C188.119 208.373 187.569 208.158 187.15 207.77C186.15 206.77 185.88 204.42 186.69 202.29C187.072 201.273 187.681 200.356 188.47 199.61C188.728 199.289 189.06 199.036 189.439 198.874C189.817 198.712 190.23 198.645 190.64 198.68C190.897 198.704 191.137 198.818 191.32 199C191.502 199.183 191.615 199.423 191.64 199.68C191.64 200.07 191.49 200.28 191.55 200.32C191.61 200.36 191.88 200.23 191.98 199.71C192.038 199.395 191.985 199.07 191.83 198.79C191.609 198.413 191.251 198.137 190.83 198.02C190.311 197.918 189.775 197.951 189.272 198.115C188.77 198.28 188.318 198.571 187.96 198.96C187.055 199.779 186.368 200.81 185.96 201.96C185.06 204.35 185.35 207.05 186.84 208.24C187.117 208.462 187.441 208.618 187.788 208.698C188.134 208.777 188.493 208.778 188.84 208.7C189.22 208.57 189.39 208.33 189.36 208.29Z" fill="#6F4439"/>
<path d="M261.38 176C261.414 175.668 261.414 175.332 261.38 175C261.167 173.763 260.672 172.592 259.933 171.578C259.194 170.563 258.231 169.732 257.12 169.15C256.122 167.894 255.029 166.717 253.85 165.63C253.684 163.764 253.044 161.972 251.991 160.423C250.938 158.873 249.507 157.619 247.834 156.777C246.16 155.936 244.299 155.536 242.428 155.615C240.557 155.695 238.736 156.25 237.14 157.23L235.62 156.82C234.782 155.317 233.61 154.026 232.194 153.047C230.779 152.068 229.157 151.427 227.455 151.174C225.752 150.921 224.014 151.062 222.375 151.587C220.736 152.111 219.239 153.005 218 154.2C216.759 153.194 215.249 152.575 213.659 152.419C212.07 152.263 210.469 152.578 209.056 153.323C207.643 154.068 206.48 155.212 205.711 156.612C204.942 158.013 204.601 159.608 204.73 161.2C202.12 161.45 199.42 162.71 198.3 165.07C197.18 167.43 198.3 170.43 200.59 171.14C197.7 176.47 195.36 183.24 193.06 189.14C191.44 193.26 195.5 197.98 194.61 200.87C190.1 215.66 198.16 210 212.97 181.87C213.36 181.78 213.76 181.67 214.18 181.54C215.03 181.27 215.49 180.64 216.3 180.26C217.11 179.88 218.3 180.56 219.23 181.09C220.852 181.981 222.732 182.286 224.553 181.955C226.374 181.624 228.025 180.676 229.23 179.27C229.51 180.93 231.53 181.77 233.23 181.52C234.93 181.27 236.35 180.29 237.88 179.58C239.41 178.87 241.3 178.49 242.73 179.39C243.52 179.89 244.09 180.76 244.98 181.07C246.56 181.62 248.09 180.18 248.98 178.78C249.74 177.61 250.56 176.24 251.78 175.7C252.9 175.66 254.018 175.823 255.08 176.18C255.63 176.51 256.15 176.89 256.67 177.18C256.922 177.336 257.187 177.473 257.46 177.59C257.766 177.87 258.054 178.171 258.32 178.49C262.32 183.25 261.98 195.8 261.98 195.8C265.38 189.3 264.26 182.09 261.38 176Z" fill="#263238"/>
<path d="M228.28 157.5C228.28 157.5 228.36 157.4 228.55 157.25C228.826 157.034 229.117 156.837 229.42 156.66C230.865 155.843 232.5 155.42 234.16 155.434C235.821 155.448 237.448 155.899 238.88 156.74C241.043 158.047 242.616 160.139 243.27 162.58L242.93 162.4C244.109 161.966 245.339 161.687 246.59 161.57C248.055 161.405 249.538 161.54 250.95 161.966C252.361 162.392 253.671 163.102 254.8 164.05C255.731 164.818 256.487 165.777 257.017 166.862C257.546 167.947 257.837 169.133 257.87 170.34C257.895 171.963 257.397 173.552 256.45 174.87C256.195 175.239 255.896 175.575 255.56 175.87C255.33 176.06 255.21 176.15 255.19 176.14C255.17 176.13 255.67 175.72 256.28 174.8C257.128 173.486 257.554 171.943 257.5 170.38C257.443 169.237 257.146 168.118 256.629 167.097C256.112 166.075 255.387 165.174 254.5 164.45C253.412 163.557 252.155 162.892 250.805 162.493C249.455 162.095 248.039 161.971 246.64 162.13C245.438 162.245 244.255 162.511 243.12 162.92L242.85 163.02L242.78 162.75C242.169 160.432 240.695 158.436 238.66 157.17C237.022 156.162 235.107 155.7 233.19 155.85C231.913 155.941 230.666 156.28 229.52 156.85C228.71 157.23 228.31 157.53 228.28 157.5Z" fill="white"/>
<path d="M203 161.16C203 161.16 203.06 161.16 203.18 161.04C203.3 160.92 203.49 160.87 203.75 160.76C204.512 160.456 205.32 160.287 206.14 160.26C207.434 160.223 208.717 160.501 209.88 161.07C211.441 161.797 212.7 163.045 213.44 164.6H213.08C213.983 163.511 215.107 162.626 216.378 162.004C217.648 161.382 219.036 161.036 220.45 160.99C222.041 160.89 223.636 161.093 225.15 161.59C226.738 162.135 228.225 162.939 229.55 163.97C232.002 165.936 234.064 168.345 235.63 171.07L235.25 171.02C237.315 169.055 240.049 167.947 242.9 167.92C245.128 167.912 247.304 168.594 249.13 169.87C250.325 170.695 251.344 171.749 252.13 172.97C252.333 173.291 252.513 173.625 252.67 173.97C252.78 174.21 252.83 174.34 252.81 174.34C252.79 174.34 252.55 173.87 251.99 173.05C251.181 171.895 250.163 170.902 248.99 170.12C247.201 168.924 245.092 168.299 242.94 168.33C240.211 168.379 237.599 169.449 235.62 171.33L235.4 171.54L235.24 171.28C233.682 168.616 231.648 166.26 229.24 164.33C227.962 163.329 226.53 162.542 225 162C223.548 161.518 222.018 161.314 220.49 161.4C219.141 161.437 217.814 161.757 216.596 162.339C215.378 162.921 214.296 163.753 213.42 164.78L213.21 165.05L213.07 164.74C212.381 163.259 211.206 162.059 209.74 161.34C208.629 160.769 207.399 160.471 206.15 160.47C205.066 160.503 203.998 160.737 203 161.16Z" fill="white"/>
<path d="M252.26 175C252.135 175.126 252.002 175.243 251.86 175.35C251.498 175.704 251.164 176.085 250.86 176.49C250.44 177.01 249.96 177.69 249.38 178.49C248.755 179.432 247.932 180.227 246.97 180.82C246.347 181.126 245.628 181.172 244.97 180.95C244.301 180.688 243.664 180.353 243.07 179.95C242.478 179.535 241.789 179.28 241.07 179.21C240.288 179.233 239.518 179.417 238.81 179.75C238.05 180.07 237.29 180.48 236.5 180.86C235.712 181.346 234.851 181.704 233.95 181.92C232.971 182.069 231.97 181.969 231.04 181.63C230.553 181.466 230.097 181.223 229.69 180.91C229.233 180.576 228.924 180.078 228.83 179.52L229.28 179.64C228.346 180.903 227.015 181.815 225.5 182.23C223.92 182.635 222.258 182.594 220.7 182.11C220.054 181.911 219.428 181.653 218.83 181.34C218.331 180.971 217.758 180.715 217.15 180.59C216.558 180.533 215.965 180.681 215.47 181.01C214.903 181.306 214.314 181.56 213.71 181.77C211.415 182.707 208.85 182.742 206.53 181.87C204.547 180.87 202.996 179.181 202.17 177.12C201.44 175.376 201.252 173.452 201.63 171.6L201.77 171.81C201.058 171.648 200.39 171.333 199.813 170.885C199.236 170.438 198.764 169.869 198.43 169.22C198.035 168.426 197.869 167.538 197.951 166.655C198.032 165.772 198.357 164.929 198.89 164.22C198.995 164.083 199.109 163.953 199.23 163.83L199.37 163.71C198.811 164.399 198.423 165.212 198.24 166.08C198.035 167.101 198.191 168.161 198.68 169.08C199.003 169.681 199.453 170.204 199.999 170.613C200.545 171.022 201.173 171.308 201.84 171.45H202.02V171.63C201.685 173.409 201.887 175.246 202.6 176.91C203.401 178.859 204.878 180.453 206.76 181.4C208.973 182.199 211.404 182.145 213.58 181.25C214.164 181.053 214.729 180.805 215.27 180.51C215.863 180.128 216.568 179.959 217.27 180.03C217.62 180.073 217.959 180.182 218.27 180.35L219.11 180.84C219.679 181.139 220.275 181.383 220.89 181.57C222.356 182.029 223.921 182.07 225.41 181.69C226.121 181.491 226.796 181.18 227.41 180.77C227.99 180.359 228.506 179.864 228.94 179.3L229.31 178.83L229.39 179.42C229.51 180.27 230.39 180.83 231.26 181.13C232.113 181.444 233.03 181.54 233.93 181.41C234.788 181.209 235.609 180.871 236.36 180.41C237.15 180.03 237.91 179.63 238.7 179.31C239.47 178.96 240.304 178.773 241.15 178.76C241.941 178.842 242.698 179.124 243.35 179.58C243.913 179.981 244.521 180.316 245.16 180.58C245.443 180.687 245.746 180.735 246.048 180.721C246.351 180.707 246.647 180.632 246.92 180.5C247.849 179.944 248.65 179.198 249.27 178.31C249.87 177.55 250.37 176.89 250.82 176.38C251.155 175.98 251.527 175.612 251.93 175.28C252.03 175.176 252.141 175.082 252.26 175Z" fill="#455A64"/>
<path d="M7.99991 395.05C7.99991 395.05 2.83991 408.81 0.999907 412.51C-0.840093 416.21 0.999907 456 0.999907 456H118.7L120.36 421L63.6899 386.83L7.99991 395.05Z" fill="#263238"/>
<path d="M258.11 339.33L304.44 348.07C304.44 348.07 303.56 368.07 304.15 367.61C304.74 367.15 239.21 367 239.21 367L258.11 339.33Z" fill="#AE7461"/>
<path d="M303.62 348L335.73 357.91L349.84 367.82L362.4 381.4C362.4 381.4 362.26 385.17 357.51 382.79C354.111 380.923 350.968 378.624 348.16 375.95L357.51 393.12C357.51 393.12 353.74 396.89 350.67 391.45C347.6 386.01 343 379 343 379L340.21 376.91C340.21 376.91 343.14 382.07 343.14 383.47C343.14 384.87 340.21 392.69 340.21 392.69L335.59 399C335.208 398.963 334.837 398.85 334.5 398.667C334.162 398.485 333.865 398.237 333.624 397.938C333.384 397.639 333.206 397.295 333.1 396.926C332.995 396.557 332.964 396.171 333.01 395.79C333.171 393.982 333.824 392.252 334.9 390.79L329.31 395.68C329.31 395.68 327.36 394.56 329.03 390.93L331.13 388.7L331.82 385.21L330.15 382.55C330.15 382.55 325.82 382.83 322.47 377.81C319.12 372.79 313.95 373.81 306.69 369.43C299.43 365.05 300.13 360.35 300.13 360.35L303.62 348Z" fill="#AE7461"/>
<path d="M320.86 360.27C321.085 361.607 321.495 362.906 322.08 364.13C322.746 365.441 323.59 366.652 324.59 367.73C325.83 369.045 327.167 370.265 328.59 371.38C330.086 372.459 331.446 373.714 332.64 375.12C333.127 375.725 333.47 376.433 333.644 377.19C333.817 377.947 333.816 378.733 333.64 379.49C333.49 379.997 333.22 380.46 332.853 380.84C332.486 381.219 332.032 381.504 331.53 381.67C331.261 381.752 330.98 381.782 330.7 381.76C330.51 381.76 330.41 381.71 330.41 381.69C330.77 381.658 331.125 381.588 331.47 381.48C331.912 381.295 332.306 381.012 332.621 380.651C332.936 380.291 333.165 379.863 333.29 379.4C333.43 378.701 333.413 377.979 333.24 377.287C333.067 376.596 332.743 375.951 332.29 375.4C331.094 374.05 329.752 372.836 328.29 371.78C326.857 370.648 325.519 369.401 324.29 368.05C323.278 366.927 322.439 365.66 321.8 364.29C321.375 363.367 321.088 362.387 320.95 361.38C320.854 361.018 320.823 360.642 320.86 360.27Z" fill="#6F4439"/>
<path d="M347.86 375.19C347.552 375.109 347.259 374.981 346.99 374.81C346.45 374.54 345.68 374.13 344.73 373.6C342.84 372.55 340.26 371.03 337.48 369.26C335.25 367.85 333.23 366.49 331.63 365.37H331.82C330.38 365.81 329.2 366.16 328.37 366.37C327.943 366.522 327.5 366.623 327.05 366.67C327.442 366.447 327.858 366.269 328.29 366.14L331.69 364.95H331.78L331.87 365.01L337.75 368.8C340.54 370.57 343.08 372.13 344.92 373.26C345.939 373.842 346.92 374.487 347.86 375.19Z" fill="#6F4439"/>
<path d="M340 375.74C339.39 376.591 338.471 377.169 337.44 377.35C336.46 377.695 335.384 377.645 334.44 377.21C334.44 377.05 335.79 377.26 337.33 376.84C338.87 376.42 339.94 375.62 340 375.74Z" fill="#6F4439"/>
<path d="M334.67 379C335.533 380.89 336.232 382.85 336.76 384.86C336.978 385.703 336.879 386.596 336.48 387.37C336.16 388.07 335.82 388.63 335.58 389.13C335.344 389.673 335.166 390.239 335.05 390.82C334.875 390.205 334.943 389.546 335.24 388.98C335.44 388.44 335.77 387.85 336.04 387.18C336.374 386.5 336.452 385.723 336.26 384.99C335.569 383.04 335.037 381.036 334.67 379Z" fill="#6F4439"/>
<path d="M4.75 388.14L46.05 343.57C46.05 343.57 100.39 250.26 111.2 241.66C138.2 220.15 168.9 231.41 168.9 231.41L179.84 227.26L198.26 274.05C198.26 274.05 191.43 284.05 190.75 286.05C190.07 288.05 108.15 412 108.15 412L78.89 453C78.89 453 33.53 444.5 14.11 419.73C5.24 408.35 4.75 388.14 4.75 388.14Z" fill="#455A64"/>
<path d="M202.83 273L208.89 267.83L209 283.6L219.47 298.4C219.47 298.4 188.81 335.32 182.47 341.48C176.13 347.64 125.72 407.48 125.72 407.48C125.72 407.48 123.05 435.88 119.66 443.93C116.27 451.98 93.3599 449.86 93.3599 449.86L104.74 417.27L109.47 393.75L166.71 318L189.17 288.59L202.83 273Z" fill="#455A64"/>
<path d="M187.5 323.68C187.5 324.62 218.65 354.4 218.65 354.4C218.65 354.4 220.9 360.04 223.47 360.98C226.04 361.92 238.88 367.87 238.88 367.87L259 339C259 339 248.83 329.6 245.94 328C243.05 326.4 236.1 318.34 236.1 318.34L212.78 290.34L194.89 299.47L187.5 323.68Z" fill="#455A64"/>
<path d="M189.17 288.63C189.206 288.532 189.253 288.438 189.31 288.35L189.76 287.57C190.2 286.85 190.76 285.85 191.54 284.57C193.13 281.97 195.36 278.32 198.08 273.9L198.31 274.21L181.37 278.73L181.12 278.8L181.05 278.55C180.48 276.37 179.88 274.1 179.27 271.78C176.37 260.65 173.75 250.58 171.84 243.23L169.64 234.57L169.07 232.2C168.995 231.928 168.938 231.65 168.9 231.37C169.013 231.632 169.104 231.903 169.17 232.18C169.34 232.76 169.56 233.53 169.84 234.51C170.41 236.6 171.21 239.51 172.19 243.14C174.14 250.48 176.82 260.53 179.77 271.65C180.38 273.97 180.98 276.24 181.55 278.42L181.24 278.23L198.24 273.81L198.76 273.67L198.47 274.12C195.7 278.51 193.41 282.12 191.78 284.69L189.91 287.6L189.4 288.35C189.25 288.55 189.18 288.64 189.17 288.63Z" fill="#263238"/>
<path d="M209 283C208.836 283.193 208.652 283.368 208.45 283.52L206.83 284.88L200.98 289.63L200.56 289.97L200.62 289.43C200.94 286.43 201.31 282.92 201.71 279.17C201.83 278.08 201.95 277 202.06 275.97L202.5 276.18C198.9 279.6 195.71 282.59 193.42 284.72L190.69 287.21C190.386 287.529 190.051 287.817 189.69 288.07C189.961 287.709 190.266 287.374 190.6 287.07L193.21 284.47C195.45 282.27 198.59 279.23 202.21 275.8L202.72 275.31L202.64 276.01C202.53 277.01 202.41 278.12 202.29 279.22C201.87 282.96 201.47 286.46 201.13 289.47L200.77 289.27L206.77 284.66L208.47 283.4C208.631 283.248 208.809 283.113 209 283Z" fill="#263238"/>
<path d="M212.78 305.29C212.78 305.29 212.7 305.45 212.51 305.72C212.32 305.99 211.98 306.41 211.64 306.87C210.87 307.87 209.74 309.3 208.34 311.05C205.52 314.56 201.57 319.35 197.09 324.55C192.61 329.75 188.46 334.37 185.41 337.67C183.89 339.32 182.65 340.67 181.77 341.56L180.77 342.56C180.655 342.686 180.527 342.799 180.39 342.9C180.468 342.749 180.569 342.61 180.69 342.49L181.63 341.39L185.15 337.39C188.15 334.02 192.23 329.39 196.71 324.17C201.19 318.95 205.18 314.22 208.06 310.78L211.49 306.71L212.49 305.61C212.575 305.494 212.672 305.386 212.78 305.29Z" fill="#263238"/>
<path d="M244.52 328.22C244.3 328.627 244.042 329.012 243.75 329.37C243.23 330.1 242.45 331.13 241.47 332.37C239.47 334.88 236.7 338.27 233.39 341.83C230.08 345.39 226.9 348.45 224.54 350.59C223.36 351.66 222.39 352.51 221.7 353.08C221.361 353.393 220.996 353.678 220.61 353.93C220.907 353.562 221.242 353.227 221.61 352.93L224.33 350.32C226.62 348.11 229.74 345.03 233.05 341.48C236.36 337.93 239.19 334.58 241.23 332.14L243.63 329.24C243.894 328.873 244.192 328.532 244.52 328.22Z" fill="#263238"/>
<path d="M88.6899 440.31C88.6899 440.31 88.7699 440.16 88.9399 439.9L89.6899 438.74L92.6299 434.32L103.53 418.12C112.75 404.44 125.53 385.6 139.53 364.68C153.53 343.76 166.07 324.74 174.4 310.5C178.69 303.45 182.4 297.9 185.21 294.23C186.59 292.38 187.72 290.98 188.5 290.06L189.4 289.01C189.5 288.887 189.606 288.77 189.72 288.66L189.44 289.04L188.59 290.12C187.83 291.07 186.73 292.49 185.37 294.35C182.63 298.05 178.96 303.62 174.72 310.69C166.46 325 153.91 344 140 365C126.09 386 113.17 404.73 103.88 418.35L92.8799 434.46L89.8799 438.83L89.0799 439.96C88.7999 440.18 88.6899 440.31 88.6899 440.31Z" fill="#263238"/>
<path d="M91 390.67C91 390.67 90.84 390.58 90.57 390.37L89.41 389.43C88.41 388.61 86.99 387.43 85.26 385.85C81.81 382.77 77.16 378.36 72.26 373.22C67.36 368.08 63.26 363.22 60.39 359.56C58.95 357.75 57.81 356.26 57.04 355.22C56.69 354.73 56.41 354.33 56.17 354.01C55.93 353.69 55.88 353.58 55.9 353.56C56.0322 353.675 56.1528 353.802 56.26 353.94C56.51 354.25 56.82 354.63 57.21 355.09L60.68 359.33C63.62 362.89 67.79 367.73 72.68 372.87C77.57 378.01 82.12 382.43 85.51 385.57L89.51 389.28C89.94 389.69 90.31 390.02 90.6 390.28C90.7489 390.393 90.8833 390.524 91 390.67Z" fill="#263238"/>
<path d="M154.8 246.21C154.75 246.21 154.36 245.56 153.47 244.46C152.192 242.937 150.667 241.639 148.96 240.62C146.398 239.15 143.631 238.071 140.75 237.42C137.246 236.488 133.625 236.067 130 236.17C126.39 236.289 122.855 237.226 119.66 238.91C117.066 240.314 114.751 242.182 112.83 244.42C111.535 245.933 110.415 247.587 109.49 249.35C108.83 250.6 108.49 251.35 108.49 251.35C108.521 251.163 108.578 250.981 108.66 250.81C108.8 250.46 108.99 249.94 109.31 249.3C111.148 245.326 114.058 241.943 117.713 239.531C121.368 237.12 125.623 235.776 130 235.65C133.67 235.554 137.335 236.009 140.87 237C143.788 237.682 146.584 238.808 149.16 240.34C150.874 241.399 152.388 242.753 153.63 244.34C153.961 244.774 154.265 245.228 154.54 245.7C154.64 245.863 154.727 246.033 154.8 246.21Z" fill="#263238"/>
<path d="M104.74 259.49C104.74 259.49 102.98 321.32 104.74 350.62C105.28 359.57 108.6 365.48 109.29 365.68C111.09 366.21 147.39 363.14 147.39 363.14C147.39 363.14 147.68 352.05 150.39 347.88C153.1 343.71 146.11 345.46 146.11 345.46C146.11 345.46 161.11 269.25 159.23 255.22" fill="#455A64"/>
<path d="M159.26 255.22C159.26 255.22 159.36 255.82 159.44 256.97C159.52 258.12 159.51 259.83 159.38 262.04C159.17 266.46 158.5 272.89 157.38 280.92C155.19 296.99 151.38 319.5 146.38 345.51L146.07 345.22C146.994 344.996 147.939 344.872 148.89 344.85C149.388 344.833 149.886 344.904 150.36 345.06C150.623 345.151 150.857 345.31 151.04 345.52C151.221 345.758 151.313 346.051 151.3 346.35C151.235 346.861 151.054 347.35 150.77 347.78C150.52 348.21 150.3 348.58 150.09 349C149.702 349.855 149.388 350.742 149.15 351.65C148.239 355.419 147.732 359.274 147.64 363.15V363.38H147.41L132 364.65C127.53 364.99 123.12 365.32 118.76 365.65C116.58 365.79 114.42 365.93 112.26 366C111.73 366 111.19 366 110.65 366C110.374 366.02 110.096 366.02 109.82 366H109.39C109.28 366 108.98 365.83 108.93 365.74C108.26 364.877 107.715 363.924 107.31 362.91C105.71 359.042 104.777 354.93 104.55 350.75C104.45 348.75 104.35 346.75 104.25 344.75C104.19 342.75 104.12 340.75 104.06 338.86C103.68 323.32 103.78 309.33 103.91 297.59C104.04 285.85 104.27 276.34 104.44 269.78C104.54 266.51 104.62 263.96 104.67 262.22C104.67 261.37 104.73 260.71 104.75 260.22C104.77 259.73 104.75 259.55 104.75 259.55C104.75 259.55 104.75 259.78 104.75 260.22C104.75 260.66 104.75 261.34 104.75 262.22C104.75 263.97 104.68 266.51 104.62 269.78C104.51 276.35 104.35 285.85 104.26 297.59C104.17 309.33 104.12 323.32 104.52 338.84C104.59 340.78 104.65 342.75 104.72 344.73C104.79 346.71 104.92 348.73 105.02 350.73C105.244 354.857 106.171 358.915 107.76 362.73C108.142 363.686 108.65 364.587 109.27 365.41C109.297 365.447 109.331 365.477 109.37 365.5C109.37 365.5 109.37 365.5 109.49 365.5H109.85C110.11 365.515 110.37 365.515 110.63 365.5C111.16 365.5 111.69 365.5 112.23 365.5C114.37 365.42 116.53 365.28 118.71 365.14C123.06 364.86 127.47 364.53 131.94 364.19L147.4 362.94L147.16 363.19C147.259 359.276 147.776 355.384 148.7 351.58C148.958 350.641 149.292 349.724 149.7 348.84C150.206 348.086 150.597 347.26 150.86 346.39C150.869 346.206 150.813 346.025 150.701 345.878C150.59 345.732 150.43 345.63 150.25 345.59C149.833 345.458 149.397 345.397 148.96 345.41C148.05 345.432 147.145 345.549 146.26 345.76L145.89 345.85L145.96 345.47C150.96 319.47 154.89 296.98 157.16 280.94C158.29 272.94 159.01 266.5 159.27 262.09C159.43 259.89 159.43 258.18 159.41 257.03C159.41 256.46 159.35 256.03 159.34 255.73C159.33 255.43 159.26 255.22 159.26 255.22Z" fill="#263238"/>
<path d="M147.29 345.84C146.777 345.994 146.252 346.101 145.72 346.16C144.72 346.33 143.23 346.55 141.4 346.77C137.74 347.22 132.67 347.68 127.06 347.92C121.45 348.16 116.35 348.14 112.67 348C110.83 347.93 109.34 347.85 108.32 347.76C107.786 347.744 107.254 347.684 106.73 347.58C107.262 347.533 107.798 347.533 108.33 347.58L112.68 347.65C116.35 347.7 121.43 347.65 127.04 347.42C132.65 347.19 137.7 346.78 141.36 346.42L145.69 345.98C146.219 345.892 146.754 345.845 147.29 345.84Z" fill="#263238"/>
<path d="M109.29 365.68L130.63 455.54H151.98L146.01 363.4L109.29 365.68Z" fill="#AE7461"/>
<path d="M150.08 442.83L171.36 446.55L190.51 452.34C192.29 452.95 193.42 453.97 192.71 456.2L130.63 455.54V444.75L150.08 442.83Z" fill="#AE7461"/>
<path d="M184.12 456.11C184.142 455.704 184.142 455.296 184.12 454.89C184.003 454.354 183.744 453.859 183.371 453.457C182.999 453.054 182.525 452.758 182 452.6C180.398 452.203 178.759 451.971 177.11 451.91L171.02 451.29C166.7 450.83 162.79 450.39 159.96 450.05L156.61 449.61C156.196 449.581 155.786 449.504 155.39 449.38C155.802 449.341 156.218 449.341 156.63 449.38L160 449.65C162.83 449.9 166.75 450.29 171.07 450.74L177.16 451.4L179.82 451.71C180.611 451.771 181.389 451.946 182.13 452.23C182.687 452.429 183.179 452.776 183.553 453.234C183.926 453.693 184.167 454.244 184.25 454.83C184.285 455.144 184.268 455.462 184.2 455.77C184.187 455.886 184.16 456 184.12 456.11Z" fill="#6F4439"/>
<g opacity="0.3">
<path d="M147.29 382.36L154.8 349.59V339.33L151.98 337.53L158.58 270.31L146.14 345.46L147.64 345.33C149.35 345.19 151.48 344.79 151.07 346.45L148.73 351.59L146.13 365.2L147.29 382.36Z" fill="black"/>
</g>
<path d="M217.75 224.22C215.38 226.7 214.68 230.27 216.65 233.08C217.463 234.122 218.656 234.8 219.968 234.965C221.28 235.13 222.604 234.769 223.65 233.96C224.76 233.027 225.627 231.84 226.18 230.5C223.87 228.66 220.08 226.06 217.75 224.22Z" fill="#6F4439"/>
<path d="M222.9 234.55C222.597 234.744 222.256 234.87 221.9 234.92C220.933 235.091 219.938 234.998 219.02 234.65C217.631 234.126 216.503 233.077 215.88 231.73C215.5 230.914 215.294 230.028 215.273 229.127C215.253 228.227 215.418 227.333 215.76 226.5C216.101 225.62 216.595 224.808 217.22 224.1L217.37 223.93L217.56 224.07C219.99 225.87 222.11 227.46 223.56 228.62C224.389 229.202 225.174 229.843 225.91 230.54C225.02 230.056 224.17 229.501 223.37 228.88C221.82 227.8 219.66 226.26 217.22 224.48H217.56C216.979 225.145 216.519 225.907 216.2 226.73C215.884 227.5 215.729 228.326 215.743 229.158C215.756 229.99 215.939 230.811 216.28 231.57C216.831 232.826 217.845 233.821 219.11 234.35C219.968 234.711 220.903 234.852 221.83 234.76C222.53 234.64 222.88 234.51 222.9 234.55Z" fill="#263238"/>
</g>
<defs>
<clipPath id="clip0_2792_3187">
<rect width="459" height="500" fill="white"/>
</clipPath>
</defs>
</svg>
