<svg width="345" height="500" viewBox="0 0 345 500" fill="none" xmlns="http://www.w3.org/2000/svg">
<g clip-path="url(#clip0_2792_3337)">
<path d="M194.93 190.58C191.34 188.26 189.93 182.82 189.54 177.11C189.303 172.77 189.481 168.417 190.07 164.11C190.18 163.01 190.34 161.95 190.53 160.95C190.689 159.939 190.903 158.938 191.17 157.95L158.56 144.49C162.14 149.89 164.87 167.18 164.11 172.74C163.28 178.98 163.03 187.74 159.79 190L194.93 190.58Z" fill="#FFD600"/>
<g opacity="0.7">
<path d="M194.93 190.58C191.34 188.26 189.93 182.82 189.54 177.11C189.303 172.77 189.481 168.417 190.07 164.11C190.18 163.01 190.34 161.95 190.53 160.95C190.689 159.939 190.903 158.938 191.17 157.95L158.56 144.49C162.14 149.89 164.87 167.18 164.11 172.74C163.28 178.98 163.03 187.74 159.79 190L194.93 190.58Z" fill="white"/>
</g>
<path d="M159.79 190C152.79 195 155.79 202.86 161.48 209.28C163.669 211.742 166.025 214.051 168.53 216.19C179.43 225.52 196.53 221.56 201.62 208.14C203.85 202.19 203.08 195.81 194.93 190.59L159.79 190Z" fill="#FFB573"/>
<path opacity="0.2" d="M189.54 177.11C189.303 172.77 189.481 168.417 190.07 164.11C190.18 163.01 190.34 161.95 190.53 160.95L165.32 156.11C170.61 161.35 178 172.07 189.54 177.11Z" fill="black"/>
<path d="M222.8 118.64C222 124.06 214.57 132.87 214.93 132.34C215.229 131.765 215.334 131.109 215.23 130.47C215.067 128.03 214.467 125.639 213.46 123.41C212.83 126.41 211.87 132.7 208.88 132.75C207.69 130.51 206.23 128.47 206.44 125.93C205.75 128.53 205.11 131.15 204.44 133.75C198.64 130.18 194.97 121.94 196.18 115.06C196.441 113.391 197.022 111.789 197.89 110.34C198.965 108.759 200.269 107.347 201.76 106.15C205.55 102.83 207.09 101.29 212.07 101.29C222.94 101.29 223.6 113.22 222.8 118.64Z" fill="#FFD600"/>
<path opacity="0.3" d="M222.8 118.64C222 124.06 214.57 132.87 214.93 132.34C215.229 131.765 215.334 131.109 215.23 130.47C215.067 128.03 214.467 125.639 213.46 123.41C212.83 126.41 211.87 132.7 208.88 132.75C207.69 130.51 206.23 128.47 206.44 125.93C205.75 128.53 205.11 131.15 204.44 133.75C198.64 130.18 194.97 121.94 196.18 115.06C196.441 113.391 197.022 111.789 197.89 110.34C198.965 108.759 200.269 107.347 201.76 106.15C205.55 102.83 207.09 101.29 212.07 101.29C222.94 101.29 223.6 113.22 222.8 118.64Z" fill="black"/>
<path d="M217.17 145.18C213.12 167.25 186.7 178.89 169.26 163.08C159.19 153.97 157.59 143.08 155.75 126.16C155.46 123.59 155.17 120.89 154.85 118.02C154.31 113.552 154.768 109.02 156.19 104.75C156.774 102.973 157.537 101.261 158.47 99.6401C161.88 93.5066 167.333 88.7629 173.88 86.2342C180.426 83.7055 187.652 83.5519 194.3 85.8001C216.16 93.1601 220.84 125.32 217.17 145.18Z" fill="#FFD600"/>
<path opacity="0.7" d="M217.17 145.18C213.12 167.25 186.7 178.89 169.26 163.08C159.19 153.97 157.59 143.08 155.75 126.16C155.46 123.59 155.17 120.89 154.85 118.02C154.31 113.552 154.768 109.02 156.19 104.75C156.774 102.973 157.537 101.261 158.47 99.6401C161.88 93.5066 167.333 88.7629 173.88 86.2342C180.426 83.7055 187.652 83.5519 194.3 85.8001C216.16 93.1601 220.84 125.32 217.17 145.18Z" fill="white"/>
<path d="M189.89 118.67C191.05 118.59 192.06 119.99 192.15 121.76C192.24 123.53 191.54 125.03 190.24 125.1C188.94 125.17 187.92 123.79 187.82 122C187.72 120.21 188.74 118.74 189.89 118.67Z" fill="#FFD600"/>
<path opacity="0.3" d="M189.89 118.67C191.05 118.59 192.06 119.99 192.15 121.76C192.24 123.53 191.54 125.03 190.24 125.1C188.94 125.17 187.92 123.79 187.82 122C187.72 120.21 188.74 118.74 189.89 118.67Z" fill="black"/>
<path d="M209.69 118.49C210.85 118.41 211.86 119.79 211.96 121.56C212.06 123.33 211.22 124.82 210.04 124.9C208.86 124.98 207.85 123.6 207.75 121.83C207.65 120.06 208.54 118.56 209.69 118.49Z" fill="#FFD600"/>
<path opacity="0.3" d="M209.69 118.49C210.85 118.41 211.86 119.79 211.96 121.56C212.06 123.33 211.22 124.82 210.04 124.9C208.86 124.98 207.85 123.6 207.75 121.83C207.65 120.06 208.54 118.56 209.69 118.49Z" fill="black"/>
<path d="M201.36 139.28C204.36 139.59 209.83 137.77 212 135.64C207.87 131.55 203.26 126.95 200.43 121.88L201.36 139.28Z" fill="#FFD600"/>
<path opacity="0.5" d="M201.36 139.28C204.36 139.59 209.83 137.77 212 135.64C207.87 131.55 203.26 126.95 200.43 121.88L201.36 139.28Z" fill="white"/>
<path d="M186.58 111.71C187.877 111.465 189.213 111.528 190.482 111.895C191.75 112.261 192.914 112.921 193.88 113.82C193.936 113.914 194.007 113.999 194.09 114.07C194.194 114.16 194.315 114.228 194.446 114.272C194.577 114.315 194.715 114.332 194.853 114.321C194.99 114.311 195.124 114.274 195.247 114.212C195.37 114.15 195.48 114.064 195.57 113.96C195.66 113.856 195.728 113.734 195.772 113.604C195.815 113.473 195.832 113.335 195.822 113.197C195.811 113.06 195.774 112.926 195.712 112.803C195.65 112.68 195.564 112.57 195.46 112.48C194.278 111.323 192.836 110.465 191.255 109.978C189.673 109.49 187.999 109.388 186.37 109.68C186.232 109.694 186.099 109.737 185.979 109.805C185.859 109.873 185.754 109.966 185.671 110.077C185.588 110.188 185.53 110.315 185.498 110.449C185.467 110.584 185.464 110.724 185.49 110.86C185.512 111.042 185.589 111.212 185.71 111.35C185.818 111.472 185.952 111.568 186.103 111.631C186.254 111.693 186.417 111.72 186.58 111.71Z" fill="#FFD600"/>
<path opacity="0.3" d="M186.58 111.71C187.877 111.465 189.213 111.528 190.482 111.895C191.75 112.261 192.914 112.921 193.88 113.82C193.936 113.914 194.007 113.999 194.09 114.07C194.194 114.16 194.315 114.228 194.446 114.272C194.577 114.315 194.715 114.332 194.853 114.321C194.99 114.311 195.124 114.274 195.247 114.212C195.37 114.15 195.48 114.064 195.57 113.96C195.66 113.856 195.728 113.734 195.772 113.604C195.815 113.473 195.832 113.335 195.822 113.197C195.811 113.06 195.774 112.926 195.712 112.803C195.65 112.68 195.564 112.57 195.46 112.48C194.278 111.323 192.836 110.465 191.255 109.978C189.673 109.49 187.999 109.388 186.37 109.68C186.232 109.694 186.099 109.737 185.979 109.805C185.859 109.873 185.754 109.966 185.671 110.077C185.588 110.188 185.53 110.315 185.498 110.449C185.467 110.584 185.464 110.724 185.49 110.86C185.512 111.042 185.589 111.212 185.71 111.35C185.818 111.472 185.952 111.568 186.103 111.631C186.254 111.693 186.417 111.72 186.58 111.71Z" fill="black"/>
<path d="M216.92 109.59C216.905 109.319 216.786 109.065 216.589 108.879C216.392 108.693 216.131 108.59 215.86 108.59C214.208 108.548 212.571 108.907 211.089 109.637C209.607 110.367 208.324 111.445 207.35 112.78C207.275 112.892 207.223 113.018 207.198 113.151C207.173 113.283 207.175 113.419 207.204 113.551C207.233 113.683 207.288 113.807 207.367 113.917C207.445 114.027 207.545 114.12 207.66 114.19H207.73C207.957 114.326 208.228 114.367 208.485 114.303C208.742 114.239 208.963 114.076 209.1 113.85C209.893 112.812 210.921 111.977 212.1 111.413C213.278 110.85 214.574 110.575 215.88 110.61C216.053 110.618 216.225 110.58 216.379 110.501C216.534 110.422 216.665 110.305 216.76 110.16C216.855 109.984 216.91 109.79 216.92 109.59Z" fill="#FFD600"/>
<path opacity="0.3" d="M216.92 109.59C216.905 109.319 216.786 109.065 216.589 108.879C216.392 108.693 216.131 108.59 215.86 108.59C214.208 108.548 212.571 108.907 211.089 109.637C209.607 110.367 208.324 111.445 207.35 112.78C207.275 112.892 207.223 113.018 207.198 113.151C207.173 113.283 207.175 113.419 207.204 113.551C207.233 113.683 207.288 113.807 207.367 113.917C207.445 114.027 207.545 114.12 207.66 114.19H207.73C207.957 114.326 208.228 114.367 208.485 114.303C208.742 114.239 208.963 114.076 209.1 113.85C209.893 112.812 210.921 111.977 212.1 111.413C213.278 110.85 214.574 110.575 215.88 110.61C216.053 110.618 216.225 110.58 216.379 110.501C216.534 110.422 216.665 110.305 216.76 110.16C216.855 109.984 216.91 109.79 216.92 109.59Z" fill="black"/>
<path d="M167.27 158.35C164.599 157.844 162.079 156.736 159.9 155.11C159.9 158.04 157.9 163.11 157.9 163.11C148.58 160.04 140.9 141.4 139.9 135.22C134.72 144.85 135.17 139.31 134.77 135.22C134.19 129.33 134.04 123.22 136.05 117.67C138.06 112.12 142.64 107.15 148.48 106.19C149.566 106.091 150.66 106.284 151.646 106.75C152.633 107.216 153.477 107.938 154.09 108.84C155.083 110.623 155.731 112.577 156 114.6C158.73 129.21 158.61 146.27 167.27 158.35Z" fill="#FFD600"/>
<path opacity="0.3" d="M167.27 158.35C164.599 157.844 162.079 156.736 159.9 155.11C159.9 158.04 157.9 163.11 157.9 163.11C148.58 160.04 140.9 141.4 139.9 135.22C134.72 144.85 135.17 139.31 134.77 135.22C134.19 129.33 134.04 123.22 136.05 117.67C138.06 112.12 142.64 107.15 148.48 106.19C149.566 106.091 150.66 106.284 151.646 106.75C152.633 107.216 153.477 107.938 154.09 108.84C155.083 110.623 155.731 112.577 156 114.6C158.73 129.21 158.61 146.27 167.27 158.35Z" fill="black"/>
<path d="M154.06 124.85C161.19 125.01 165.54 134 166.3 140.15C167.19 147 162.59 152.63 155.98 149.6C153.515 148.457 151.304 146.833 149.475 144.824C147.646 142.815 146.237 140.461 145.33 137.9C143.12 131.54 146.92 124.7 154.06 124.85Z" fill="#FFD600"/>
<path opacity="0.7" d="M154.06 124.85C161.19 125.01 165.54 134 166.3 140.15C167.19 147 162.59 152.63 155.98 149.6C153.515 148.457 151.304 146.833 149.475 144.824C147.646 142.815 146.237 140.461 145.33 137.9C143.12 131.54 146.92 124.7 154.06 124.85Z" fill="white"/>
<path d="M168.34 103.88C170.205 105.889 171.599 108.289 172.419 110.904C173.239 113.52 173.465 116.286 173.08 119C172.25 124.42 164.58 133.22 164.94 132.69C165.246 132.118 165.358 131.462 165.26 130.82C165.082 128.374 164.459 125.981 163.42 123.76C162.77 126.76 161.78 133.05 158.69 133.09C157.46 130.86 155.95 128.82 156.16 126.27C155.45 128.88 154.79 131.5 154.08 134.1C148.08 130.52 144.28 122.28 145.52 115.4C145.793 113.725 146.394 112.121 147.29 110.68C148.41 109.095 149.758 107.683 151.29 106.49C155.21 103.17 160.4 99.86 165.13 101.85C165.81 102.17 168.52 103.16 168.34 103.88Z" fill="#FFD600"/>
<path opacity="0.3" d="M168.34 103.88C170.205 105.889 171.599 108.289 172.419 110.904C173.239 113.52 173.465 116.286 173.08 119C172.25 124.42 164.58 133.22 164.94 132.69C165.246 132.118 165.358 131.462 165.26 130.82C165.082 128.374 164.459 125.981 163.42 123.76C162.77 126.76 161.78 133.05 158.69 133.09C157.46 130.86 155.95 128.82 156.16 126.27C155.45 128.88 154.79 131.5 154.08 134.1C148.08 130.52 144.28 122.28 145.52 115.4C145.793 113.725 146.394 112.121 147.29 110.68C148.41 109.095 149.758 107.683 151.29 106.49C155.21 103.17 160.4 99.86 165.13 101.85C165.81 102.17 168.52 103.16 168.34 103.88Z" fill="black"/>
<path d="M207 145.34C207 145.34 200.89 142.86 182.88 140.71C183.88 147.25 187.88 150.01 197.09 151.01C206.3 152.01 207 145.34 207 145.34Z" fill="#263238"/>
<path d="M206.18 145.11C205.905 145.828 205.447 146.461 204.853 146.949C204.259 147.436 203.548 147.761 202.79 147.89C197.471 147.248 192.229 146.082 187.14 144.41C186.278 144.214 185.49 143.777 184.867 143.15C184.244 142.523 183.812 141.733 183.62 140.87C191.254 141.591 198.805 143.011 206.18 145.11Z" fill="white"/>
<path d="M202.43 147.35C197.891 145.505 193.095 144.375 188.21 144C186.841 144.149 185.537 144.668 184.44 145.5C186.44 148.74 190.44 150.35 197.01 151.09C199.483 151.528 202.031 151.063 204.19 149.78C203.715 148.895 203.123 148.077 202.43 147.35Z" fill="white"/>
<path d="M218.75 188.49C217.978 195.741 215.266 202.65 210.9 208.49C210.58 208.92 210.25 209.35 209.9 209.77C200.18 222.08 182.71 225.9 168.18 219.43C163.586 217.44 159.176 215.051 155 212.29C146.76 206.75 139.65 199.05 136.3 190.01L161.85 186.72L179.32 184.47L191.26 185.69L218.75 188.49Z" fill="#FFB573"/>
<path d="M92.4199 204.87C91.4199 279.87 36.0699 344.87 30.3599 419.7H305.07C277.762 361.2 260.649 298.464 254.47 234.2L250.22 190H109.63C109.63 190 92.5199 197.53 92.4199 204.87Z" fill="#FFD600"/>
<path opacity="0.6" d="M92.4199 204.87C91.4199 279.87 36.0699 344.87 30.3599 419.7H305.07C277.762 361.2 260.649 298.464 254.47 234.2L250.22 190H109.63C109.63 190 92.5199 197.53 92.4199 204.87Z" fill="white"/>
<path opacity="0.2" d="M64.5398 419.6C64.5398 419.6 62.9398 342.37 88.5398 262.47C114.14 182.57 81.9998 286.43 86.9998 379C88.4198 405.69 95.4098 420 95.4098 420L64.5398 419.6Z" fill="white"/>
<path opacity="0.2" d="M279.86 420C279.86 420 246.3 342.17 240.27 239.44C240.27 239.44 232.05 330.35 260.41 419.7L279.86 420Z" fill="white"/>
<path d="M270.89 177.18C271.026 177.113 271.166 177.056 271.31 177.01L271.15 177.08L270.89 177.18Z" fill="#FFD600"/>
<path d="M273.1 176.36L272.39 176.62L271.81 176.83H271.72L271.31 176.98C271.88 176.78 272.48 176.57 273.1 176.36Z" fill="#FFD600"/>
<path d="M344.82 180.34C344.82 207.78 295.58 225.05 273.61 231.34C252.77 238.34 240.27 239.39 240.27 239.39C239.5 232.14 223.78 189.59 223.78 189.59C223.78 189.59 233.18 185.59 239.92 186.19H240.09C247.979 186.813 255.869 185.005 262.7 181.01C265.183 179.576 267.771 178.329 270.44 177.28L270.89 177.11L271.15 177.01L271.72 176.79H271.81L272.39 176.58L273.1 176.32L273.93 176.05L274.18 175.97L274.44 175.89L274.63 175.84H274.7C276.643 175.277 278.616 174.823 280.61 174.48C286.458 173.34 292.515 174.038 297.95 176.48C298.982 176.986 300.125 177.226 301.274 177.179C302.423 177.132 303.542 176.799 304.53 176.21C305.53 175.57 305.96 174.88 305 174.34L258.26 120.88L272.51 113.05C272.51 113.05 344.82 151.26 344.82 180.34Z" fill="#FFD600"/>
<path d="M344.82 180.34C344.82 207.78 295.58 225.05 273.61 231.34C252.77 238.34 240.27 239.39 240.27 239.39C239.5 232.14 223.78 189.59 223.78 189.59C223.78 189.59 233.18 185.59 239.92 186.19H240.09C247.979 186.813 255.869 185.005 262.7 181.01C265.183 179.576 267.771 178.329 270.44 177.28L270.89 177.11L271.15 177.01L271.72 176.79H271.81L272.39 176.58L273.1 176.32L273.93 176.05L274.18 175.97L274.44 175.89L274.63 175.84H274.7C276.643 175.277 278.616 174.823 280.61 174.48C286.458 173.34 292.515 174.038 297.95 176.48C298.982 176.986 300.125 177.226 301.274 177.179C302.423 177.132 303.542 176.799 304.53 176.21C305.53 175.57 305.96 174.88 305 174.34L258.26 120.88L272.51 113.05C272.51 113.05 344.82 151.26 344.82 180.34Z" fill="#FFD600"/>
<g opacity="0.3">
<path d="M344.82 180.34C344.82 207.78 295.58 225.05 273.61 231.34C252.77 238.34 240.27 239.39 240.27 239.39C239.5 232.14 223.78 189.59 223.78 189.59C223.78 189.59 233.18 185.59 239.92 186.19H240.09C247.979 186.813 255.869 185.005 262.7 181.01C265.183 179.576 267.771 178.329 270.44 177.28L270.89 177.11L271.15 177.01L271.72 176.79H271.81L272.39 176.58L273.1 176.32L273.93 176.05L274.18 175.97L274.44 175.89L274.63 175.84H274.7C276.643 175.277 278.616 174.823 280.61 174.48C286.458 173.34 292.515 174.038 297.95 176.48C298.982 176.986 300.125 177.226 301.274 177.179C302.423 177.132 303.542 176.799 304.53 176.21C305.53 175.57 305.96 174.88 305 174.34L258.26 120.88L272.51 113.05C272.51 113.05 344.82 151.26 344.82 180.34Z" fill="white"/>
</g>
<path d="M262.11 122.27L242.19 114.38L230.19 98.38L247.43 94.55L263.73 103L273.51 113.64C273.963 114.134 274.285 114.734 274.445 115.385C274.606 116.036 274.6 116.717 274.429 117.365C274.258 118.013 273.926 118.608 273.465 119.095C273.004 119.581 272.428 119.944 271.79 120.15L264.79 122.38C263.911 122.653 262.964 122.614 262.11 122.27Z" fill="#FFD600"/>
<path opacity="0.7" d="M262.11 122.27L242.19 114.38L230.19 98.38L247.43 94.55L263.73 103L273.51 113.64C273.963 114.134 274.285 114.734 274.445 115.385C274.606 116.036 274.6 116.717 274.429 117.365C274.258 118.013 273.926 118.608 273.465 119.095C273.004 119.581 272.428 119.944 271.79 120.15L264.79 122.38C263.911 122.653 262.964 122.614 262.11 122.27Z" fill="white"/>
<path opacity="0.2" d="M249.07 217.57L251.07 237.8C251.07 237.8 280.56 230.96 297.23 223.33L283.84 224.06C272.762 224.82 261.674 222.734 251.63 218L249.07 217.57Z" fill="black"/>
<path d="M252.6 237.33C252.31 301.72 240.48 307.8 241.04 363.22C241.04 363.22 129.55 363.67 125.77 363.77C116.77 289.19 107.6 285.77 110.02 228.5C108.85 209.69 119.52 193.15 130.25 191L179.34 184.47L226.56 189.47C238.56 191.19 249.41 200.65 252.6 237.33Z" fill="#FFD600"/>
<path opacity="0.3" d="M252.6 237.33C252.31 301.72 240.48 307.8 241.04 363.22C241.04 363.22 129.55 363.67 125.77 363.77C116.77 289.19 107.6 285.77 110.02 228.5C108.85 209.69 119.52 193.15 130.25 191L179.34 184.47L226.56 189.47C238.56 191.19 249.41 200.65 252.6 237.33Z" fill="white"/>
<path d="M172.08 111.58C169.08 104.98 165.08 101.79 167.41 102.15C173.67 103.15 177.5 97.6401 182.1 100.74C184.34 103.3 181.76 108.06 181.65 107.8C183.95 108.89 186.82 108.03 188.71 106.35C190.6 104.67 191.26 101.73 192.19 99.3501C192.886 101.909 192.824 104.616 192.01 107.14C193.66 108.45 197.06 105.99 198.61 104.56C200.159 102.919 201.317 100.951 202 98.8001C202.59 101.1 203.05 103.44 201.4 106.21C203.74 106.34 206.81 105.62 208.35 103.87C209.155 102.958 209.751 101.882 210.096 100.716C210.441 99.5503 210.528 98.323 210.35 97.1201C210.88 98.3001 210.96 103.12 209.91 103.93C213.91 102.62 217.62 97.6201 217.41 93.4501C217.217 91.358 216.523 89.3431 215.387 87.5762C214.25 85.8094 212.704 84.3426 210.88 83.3001C209.09 82.2301 207.1 81.5301 205.22 80.6101C202.33 79.1901 183.97 65.4901 157.01 81.1101C140.28 90.8101 143.55 110.11 145.54 112.21C148.01 114.8 151.9 115.67 155.49 115.31C159.08 114.95 172.86 113.33 172.08 111.58Z" fill="#FFD600"/>
<path opacity="0.3" d="M172.08 111.58C169.08 104.98 165.08 101.79 167.41 102.15C173.67 103.15 177.5 97.6401 182.1 100.74C184.34 103.3 181.76 108.06 181.65 107.8C183.95 108.89 186.82 108.03 188.71 106.35C190.6 104.67 191.26 101.73 192.19 99.3501C192.886 101.909 192.824 104.616 192.01 107.14C193.66 108.45 197.06 105.99 198.61 104.56C200.159 102.919 201.317 100.951 202 98.8001C202.59 101.1 203.05 103.44 201.4 106.21C203.74 106.34 206.81 105.62 208.35 103.87C209.155 102.958 209.751 101.882 210.096 100.716C210.441 99.5503 210.528 98.323 210.35 97.1201C210.88 98.3001 210.96 103.12 209.91 103.93C213.91 102.62 217.62 97.6201 217.41 93.4501C217.217 91.358 216.523 89.3431 215.387 87.5762C214.25 85.8094 212.704 84.3426 210.88 83.3001C209.09 82.2301 207.1 81.5301 205.22 80.6101C202.33 79.1901 183.97 65.4901 157.01 81.1101C140.28 90.8101 143.55 110.11 145.54 112.21C148.01 114.8 151.9 115.67 155.49 115.31C159.08 114.95 172.86 113.33 172.08 111.58Z" fill="black"/>
<path d="M207 145.34C207 145.34 200.89 142.86 182.88 140.71C183.88 147.25 187.88 150.01 197.09 151.01C206.3 152.01 207 145.34 207 145.34Z" fill="#FFD600"/>
<path opacity="0.3" d="M207 145.34C207 145.34 200.89 142.86 182.88 140.71C183.88 147.25 187.88 150.01 197.09 151.01C206.3 152.01 207 145.34 207 145.34Z" fill="black"/>
<path d="M206.18 145.11C205.905 145.828 205.447 146.461 204.853 146.949C204.259 147.436 203.548 147.761 202.79 147.89C197.471 147.248 192.229 146.082 187.14 144.41C186.278 144.214 185.49 143.777 184.867 143.15C184.244 142.523 183.812 141.733 183.62 140.87C191.254 141.591 198.805 143.011 206.18 145.11Z" fill="white"/>
<path d="M202.43 147.35C197.891 145.505 193.095 144.375 188.21 144C186.841 144.149 185.537 144.668 184.44 145.5C186.44 148.74 190.44 150.35 197.01 151.09C199.483 151.528 202.031 151.063 204.19 149.78C203.715 148.895 203.123 148.077 202.43 147.35Z" fill="white"/>
<path d="M120 335.37C120 335.37 143.58 322.87 143.45 324.24C143.32 325.61 143.94 352.06 143.94 352.06L118.23 351.47L120 335.37Z" fill="#FFD600"/>
<path d="M143.43 324.24C143.43 324.24 165.14 324.95 165.02 327.36C164.9 329.77 162.56 350 162.56 350L143.92 352.07L143.43 324.24Z" fill="#FFD600"/>
<g opacity="0.7">
<path d="M165 327.36C164.88 329.78 162.55 349.99 162.55 349.99L143.91 352.06L118.2 351.47L119.97 335.37C119.97 335.37 143.55 322.87 143.42 324.24C143.43 324.24 165.14 325 165 327.36Z" fill="white"/>
</g>
<path d="M218.75 188.49C217.978 195.741 215.266 202.65 210.9 208.49C210.58 208.92 210.25 209.35 209.9 209.77C200.18 222.08 182.71 225.9 168.18 219.43C163.586 217.44 159.176 215.051 155 212.29C146.76 206.75 139.65 199.05 136.3 190.01L161.85 186.72L179.32 184.47L191.26 185.69L218.75 188.49Z" fill="#FFD600"/>
<path opacity="0.7" d="M218.75 188.49C217.978 195.741 215.266 202.65 210.9 208.49C210.58 208.92 210.25 209.35 209.9 209.77C200.18 222.08 182.71 225.9 168.18 219.43C163.586 217.44 159.176 215.051 155 212.29C146.76 206.75 139.65 199.05 136.3 190.01L161.85 186.72L179.32 184.47L191.26 185.69L218.75 188.49Z" fill="white"/>
<path opacity="0.2" d="M110.18 253.43C110.216 264.675 111.22 275.897 113.18 286.97L121.53 234.85L110.18 253.43Z" fill="black"/>
<path d="M64.9199 291.14L120.77 330.6L118.21 353.81C118.21 353.81 34.3899 334.54 21.6999 308.39C15.7699 296.19 22.4499 281.27 32.7699 267.47C32.7746 267.454 32.7746 267.436 32.7699 267.42C45.0399 247.35 56.1899 235.42 64.5999 228.37C72.848 221.658 80.0121 213.715 85.8399 204.82C100.32 182.09 132.84 191.3 132.84 191.3C125.43 208.64 125.35 241.62 125.35 241.62C125.35 241.62 118.08 247.1 110.14 253.43C110.06 258.78 106.81 265.33 100.53 272.73C92.2799 282.49 67.7399 288.05 64.9199 291.14Z" fill="#FFD600"/>
<path opacity="0.3" d="M64.9199 291.14L120.77 330.6L118.21 353.81C118.21 353.81 34.3899 334.54 21.6999 308.39C15.7699 296.19 22.4499 281.27 32.7699 267.47C32.7746 267.454 32.7746 267.436 32.7699 267.42C45.0399 247.35 56.1899 235.42 64.5999 228.37C72.848 221.658 80.0121 213.715 85.8399 204.82C100.32 182.09 132.84 191.3 132.84 191.3C125.43 208.64 125.35 241.62 125.35 241.62C125.35 241.62 118.08 247.1 110.14 253.43C110.06 258.78 106.81 265.33 100.53 272.73C92.2799 282.49 67.7399 288.05 64.9199 291.14Z" fill="white"/>
<path d="M107.11 184.58C124.767 199.265 144.829 210.788 166.41 218.64C166.41 211.87 164.25 198.19 160.41 189.71C159.32 187.33 157.94 184.94 155.71 183.57C153.48 182.2 150.21 182.21 148.55 184.24C142.21 179.76 131.78 179.55 125.63 184.24C120.87 182.59 114.11 179.97 109.15 180.86C104.19 181.75 98.07 188.36 98.81 193.35C103.385 191.16 108.345 189.889 113.41 189.61C112.05 188 113.38 189.66 107.11 184.58Z" fill="#FFD600"/>
<path opacity="0.6" d="M107.11 184.58C124.767 199.265 144.829 210.788 166.41 218.64C166.41 211.87 164.25 198.19 160.41 189.71C159.32 187.33 157.94 184.94 155.71 183.57C153.48 182.2 150.21 182.21 148.55 184.24C142.21 179.76 131.78 179.55 125.63 184.24C120.87 182.59 114.11 179.97 109.15 180.86C104.19 181.75 98.07 188.36 98.81 193.35C103.385 191.16 108.345 189.889 113.41 189.61C112.05 188 113.38 189.66 107.11 184.58Z" fill="white"/>
<path d="M235.43 186.29C232.563 184.992 229.452 184.321 226.305 184.321C223.158 184.321 220.047 184.992 217.18 186.29C213.26 183.42 207.23 182.81 203.18 185.56C202.543 184.798 201.754 184.177 200.864 183.736C199.974 183.296 199.002 183.045 198.01 183C196.01 182.93 194.73 184.31 193.36 185.74C196.24 187.19 197.71 190.42 198.73 193.48C201.333 201.231 202.443 209.406 202 217.57C215.8 210.83 227.51 199.52 235.43 186.29Z" fill="#FFD600"/>
<path opacity="0.6" d="M235.43 186.29C232.563 184.992 229.452 184.321 226.305 184.321C223.158 184.321 220.047 184.992 217.18 186.29C213.26 183.42 207.23 182.81 203.18 185.56C202.543 184.798 201.754 184.177 200.864 183.736C199.974 183.296 199.002 183.045 198.01 183C196.01 182.93 194.73 184.31 193.36 185.74C196.24 187.19 197.71 190.42 198.73 193.48C201.333 201.231 202.443 209.406 202 217.57C215.8 210.83 227.51 199.52 235.43 186.29Z" fill="white"/>
<path opacity="0.5" d="M232.73 264.22C232.73 279.41 211.11 306.56 184.44 306.56C157.77 306.56 136.15 279.41 136.15 264.22C136.15 249.03 157.77 236.71 184.44 236.71C211.11 236.71 232.73 249 232.73 264.22Z" fill="white"/>
<path d="M226.24 265.53C226.24 278.04 208.43 300.41 186.46 300.41C164.49 300.41 146.69 278 146.69 265.53C146.69 253.06 164.49 242.86 186.46 242.86C208.43 242.86 226.24 253 226.24 265.53Z" fill="#FFD600"/>
<path opacity="0.5" d="M226.24 265.53C226.24 278.04 208.43 300.41 186.46 300.41C164.49 300.41 146.69 278 146.69 265.53C146.69 253.06 164.49 242.86 186.46 242.86C208.43 242.86 226.24 253 226.24 265.53Z" fill="white"/>
<path d="M241.06 363.77H125.77V382.58H241.06V363.77Z" fill="white"/>
<path d="M125.77 382.58L114.74 419.7H244.79L241.07 382.58H125.77Z" fill="#FFD600"/>
<path opacity="0.2" d="M125.77 382.58L114.74 419.7H244.79L241.07 382.58H125.77Z" fill="white"/>
<path d="M211.22 362.57H176.75V383.18H211.22V362.57Z" fill="#263238"/>
<path opacity="0.7" d="M211.22 362.57H176.75V383.18H211.22V362.57Z" fill="white"/>
<path opacity="0.7" d="M191.18 362.57L181.03 383.18H188.55L199.02 362.57H191.18Z" fill="white"/>
<path opacity="0.7" d="M202.24 362.57L192.09 383.18H197.46L207.93 362.57H202.24Z" fill="white"/>
<path opacity="0.2" d="M222.8 118.59C222.38 121.42 220.17 125.16 218.19 128.02C218.511 133.743 218.176 139.484 217.19 145.13C215.991 151.78 212.629 157.848 207.628 162.392C202.626 166.937 196.264 169.702 189.53 170.26C189.405 172.525 189.405 174.795 189.53 177.06C189.67 179.99 190.25 182.882 191.25 185.64L218.72 188.44C217.948 195.691 215.236 202.6 210.87 208.44C210.55 208.87 210.22 209.3 209.87 209.72C200.15 222.03 182.68 225.85 168.15 219.38C163.567 217.388 159.166 214.999 155 212.24C146.76 206.7 139.65 199 136.3 189.96L161.85 186.67C163.17 182.93 163.47 177.17 164.07 172.67C164.49 169.6 163.85 162.96 162.59 156.73C161.631 156.254 160.717 155.692 159.86 155.05C159.86 157.98 157.86 163.05 157.86 163.05C148.54 159.98 140.86 141.34 139.86 135.16C134.67 144.79 135.13 139.25 134.73 135.16C134.15 129.27 134 123.16 136.01 117.61C137.444 113.483 140.273 109.985 144.01 107.72C143.01 100.94 144.39 88.3301 156.89 81.0801C183.89 65.4601 202.21 79.1601 205.1 80.5801C206.98 81.5001 208.96 82.2001 210.76 83.2701C212.584 84.3125 214.13 85.7793 215.267 87.5462C216.403 89.3131 217.097 91.328 217.29 93.4201C217.42 96.1401 215.9 99.2001 213.72 101.37C223 102.56 223.56 113.48 222.8 118.59Z" fill="white"/>
<path opacity="0.2" d="M203.61 99.9301L203.27 99.3601C203.395 98.6187 203.395 97.8615 203.27 97.1201C203.533 98.0326 203.647 98.9813 203.61 99.9301Z" fill="white"/>
<path d="M128.14 389.82C125.328 390.736 122.458 391.464 119.55 392C119.1 392.08 118.66 392.16 118.23 392.22C116.82 392.43 115.5 392.56 114.23 392.62C94.8801 393.62 94.38 377.46 93.9 369.23C93.4236 358.224 93.6975 347.199 94.7201 336.23C96.0601 320.96 98.6 305.1 102.29 293.23C107.63 276.11 116.29 274.23 123.64 274.1C125.06 274.1 126.45 274.1 127.75 274.1C127.75 274.1 126.81 278.95 126.36 283.63L123.44 304.37L119.38 333.15L118.75 337.64V337.89L116.55 353.47L116.04 357.06C115.81 359.45 115.64 362.82 118.25 364.74C118.618 365.025 119.021 365.26 119.45 365.44C121.15 366.2 123.66 366.51 127.31 366.08L127.68 376.3L127.75 378.14L127.87 381.32L128.07 387.1L128.14 389.82Z" fill="#FFB573"/>
<path d="M84.1501 330.4C89.6901 336.73 94.1501 335.96 101.81 337.16C109.47 338.36 116.07 337.94 123.81 337.23C125.38 315.7 128.03 294.23 127.81 272.72C121.53 273.19 114.81 272.93 109.66 276.05C102.8 280.22 102.34 290.93 97.7201 298.48C92.2601 307.4 85.2601 314.71 78.3301 321.93C80.8501 326.33 81.0001 326.75 84.1501 330.4Z" fill="#FFD600"/>
<g opacity="0.6">
<path d="M84.1501 330.4C89.6901 336.73 94.1501 335.96 101.81 337.16C109.47 338.36 116.07 337.94 123.81 337.23C125.38 315.7 128.03 294.23 127.81 272.72C121.53 273.19 114.81 272.93 109.66 276.05C102.8 280.22 102.34 290.93 97.7201 298.48C92.2601 307.4 85.2601 314.71 78.3301 321.93C80.8501 326.33 81.0001 326.75 84.1501 330.4Z" fill="black"/>
</g>
<path opacity="0.2" d="M123.44 304.36L112.76 337.92H126.24L123.44 304.36Z" fill="black"/>
<path d="M226.62 342.62C225.39 348.12 223.92 353.51 222.42 360.38C222.1 361.85 221.77 363.38 221.42 365.02C220.97 367.3 220.52 369.72 220.09 372.36C219.61 375.36 219.14 378.56 218.69 382.12C218.29 385.2 217.92 388.52 217.57 392.12C217.42 393.69 217.26 395.31 217.12 397.01C216.84 400.32 216.57 403.85 216.33 407.62C216.09 411.39 215.87 415.57 215.67 419.95C212.41 419.87 116.06 419.95 116.06 419.95C116.6 413.54 117.06 407.51 117.5 401.69C117.73 398.46 117.96 395.3 118.15 392.18V392.11C118.22 391.11 118.28 390.21 118.33 389.27C118.48 386.89 118.61 384.54 118.73 382.2C119.02 376.6 119.24 371.06 119.38 365.41C119.38 365.17 119.38 364.93 119.38 364.69C119.46 361.21 119.51 357.69 119.53 354.07C119.53 348.87 119.53 343.5 119.42 337.86C119.42 337.76 119.42 337.66 119.42 337.56C119.42 336.1 119.37 334.62 119.33 333.12C119.21 328.52 119.05 323.72 118.83 318.67C118.56 312.37 118.21 305.67 117.77 298.53C117.25 290.08 117.85 278.85 123.58 274.08C124.147 273.603 124.768 273.193 125.43 272.86C126.413 272.362 127.47 272.024 128.56 271.86L158.81 267.15L169.36 265.51L184.9 268.51L219 275.21C219.408 275.289 219.812 275.389 220.21 275.51C222.414 276.154 224.346 277.503 225.71 279.35C229.23 284.06 229.96 292.35 229.26 303.51C230.13 322.8 228.78 332.88 226.62 342.62Z" fill="#FFD600"/>
<path opacity="0.6" d="M226.62 342.62C225.39 348.12 223.92 353.51 222.42 360.38C222.1 361.85 221.77 363.38 221.42 365.02C220.97 367.3 220.52 369.72 220.09 372.36C219.61 375.36 219.14 378.56 218.69 382.12C218.29 385.2 217.92 388.52 217.57 392.12C217.42 393.69 217.26 395.31 217.12 397.01C216.84 400.32 216.57 403.85 216.33 407.62C216.09 411.39 215.87 415.57 215.67 419.95C212.41 419.87 116.06 419.95 116.06 419.95C116.6 413.54 117.06 407.51 117.5 401.69C117.73 398.46 117.96 395.3 118.15 392.18V392.11C118.22 391.11 118.28 390.21 118.33 389.27C118.48 386.89 118.61 384.54 118.73 382.2C119.02 376.6 119.24 371.06 119.38 365.41C119.38 365.17 119.38 364.93 119.38 364.69C119.46 361.21 119.51 357.69 119.53 354.07C119.53 348.87 119.53 343.5 119.42 337.86C119.42 337.76 119.42 337.66 119.42 337.56C119.42 336.1 119.37 334.62 119.33 333.12C119.21 328.52 119.05 323.72 118.83 318.67C118.56 312.37 118.21 305.67 117.77 298.53C117.25 290.08 117.85 278.85 123.58 274.08C124.147 273.603 124.768 273.193 125.43 272.86C126.413 272.362 127.47 272.024 128.56 271.86L158.81 267.15L169.36 265.51L184.9 268.51L219 275.21C219.408 275.289 219.812 275.389 220.21 275.51C222.414 276.154 224.346 277.503 225.71 279.35C229.23 284.06 229.96 292.35 229.26 303.51C230.13 322.8 228.78 332.88 226.62 342.62Z" fill="black"/>
<path d="M186.31 270.31C192.37 274.63 189.8 281.42 184.86 286.97C174.57 298.52 163.86 302.11 163.86 302.11C163.7 302.04 137.13 282.84 155.86 270.83C158.96 268.83 160.17 264.12 160.51 259.19C160.716 255.424 160.566 251.647 160.06 247.91C159.97 246.97 159.82 246.05 159.66 245.18C159.5 244.31 159.32 243.43 159.11 242.62L187.38 231C184.28 235.66 181.92 250.6 182.58 255.41C183.3 260.79 183.51 268.32 186.31 270.31Z" fill="#FFB573"/>
<path opacity="0.2" d="M160.6 259.19C160.806 255.424 160.655 251.647 160.15 247.91C160.06 246.97 159.91 246.05 159.75 245.18L181.54 241C177 245.57 170.56 254.83 160.6 259.19Z" fill="black"/>
<path d="M131.07 209.84C131.78 214.52 138.41 222.13 138.07 221.67C137.805 221.178 137.71 220.612 137.8 220.06C137.951 217.943 138.49 215.872 139.39 213.95C139.94 216.57 140.8 221.95 143.47 222.02C144.53 220.09 145.84 218.33 145.66 216.13C146.28 218.38 146.84 220.64 147.45 222.89C150.09 221.179 152.188 218.751 153.499 215.891C154.809 213.031 155.278 209.857 154.85 206.74C154.615 205.291 154.099 203.901 153.33 202.65C152.374 201.27 151.218 200.04 149.9 199C146.52 196.13 142.21 193.78 137.9 195C129.76 197.32 130.36 205.16 131.07 209.84Z" fill="#263238"/>
<path d="M136.73 231.59C140.23 250.66 163.06 260.72 178.13 247.06C186.83 239.19 188.22 229.8 189.8 215.16C190.05 212.94 190.3 210.61 190.59 208.16C191.052 204.301 190.652 200.387 189.42 196.7C188.912 195.16 188.242 193.678 187.42 192.28C184.476 186.967 179.76 182.855 174.095 180.662C168.43 178.469 162.175 178.334 156.42 180.28C137.6 186.64 133.56 214.43 136.73 231.59Z" fill="#FFB573"/>
<path d="M155.25 204.54C155.11 204.49 154.988 204.399 154.9 204.28C154.76 204.091 154.701 203.855 154.735 203.623C154.769 203.391 154.893 203.181 155.08 203.04C156.203 202.181 157.518 201.608 158.912 201.371C160.306 201.135 161.736 201.24 163.08 201.68C163.187 201.724 163.285 201.788 163.367 201.87C163.449 201.952 163.514 202.049 163.559 202.155C163.603 202.262 163.626 202.377 163.627 202.493C163.627 202.608 163.604 202.723 163.56 202.83C163.469 203.05 163.296 203.225 163.077 203.319C162.858 203.412 162.612 203.416 162.39 203.33C161.325 202.981 160.19 202.897 159.085 203.087C157.979 203.277 156.938 203.735 156.05 204.42C155.938 204.508 155.806 204.565 155.666 204.586C155.526 204.607 155.382 204.591 155.25 204.54Z" fill="#263238"/>
<path d="M145.59 205.88C145.495 205.768 145.375 205.68 145.239 205.622C145.104 205.565 144.957 205.54 144.81 205.55C143.666 205.694 142.504 205.571 141.416 205.189C140.328 204.807 139.343 204.178 138.54 203.35C138.385 203.167 138.164 203.052 137.925 203.029C137.685 203.007 137.447 203.079 137.26 203.23C137.082 203.383 136.968 203.599 136.942 203.833C136.916 204.066 136.98 204.301 137.12 204.49C138.11 205.551 139.338 206.359 140.704 206.848C142.07 207.337 143.532 207.492 144.97 207.3C145.091 207.291 145.209 207.258 145.317 207.203C145.425 207.147 145.521 207.071 145.599 206.977C145.676 206.884 145.734 206.776 145.769 206.659C145.803 206.543 145.814 206.421 145.8 206.3C145.764 206.145 145.693 206.001 145.59 205.88Z" fill="#263238"/>
<path d="M149 226.05C146.258 226.076 143.59 225.162 141.44 223.46C144.37 220.55 147.65 217.28 149.66 213.67L149 226.05Z" fill="#ED893E"/>
<path d="M142.18 214.76C141.432 214.701 140.702 214.494 140.034 214.15C139.367 213.807 138.774 213.334 138.29 212.76C138.245 212.712 138.209 212.656 138.186 212.594C138.162 212.533 138.151 212.467 138.153 212.401C138.155 212.335 138.17 212.27 138.197 212.21C138.224 212.15 138.262 212.095 138.31 212.05C138.358 212.005 138.414 211.969 138.476 211.946C138.538 211.922 138.603 211.911 138.669 211.913C138.735 211.915 138.8 211.93 138.86 211.957C138.92 211.984 138.975 212.022 139.02 212.07C140.13 213.24 141.87 214.4 143.83 213.25C143.945 213.183 144.081 213.163 144.21 213.195C144.338 213.227 144.45 213.308 144.52 213.42C144.586 213.536 144.604 213.673 144.571 213.802C144.537 213.931 144.454 214.041 144.34 214.11C143.692 214.517 142.945 214.741 142.18 214.76Z" fill="#263238"/>
<path d="M159.58 230.67C158.172 231.751 156.561 232.538 154.844 232.986C153.126 233.435 151.337 233.534 149.58 233.28C149.461 233.268 149.351 233.21 149.273 233.119C149.194 233.028 149.154 232.91 149.16 232.79C149.163 232.734 149.176 232.678 149.2 232.627C149.224 232.576 149.258 232.53 149.3 232.492C149.342 232.454 149.391 232.424 149.444 232.405C149.497 232.386 149.553 232.378 149.61 232.38C151.525 232.651 153.477 232.477 155.315 231.874C157.153 231.271 158.828 230.253 160.21 228.9C160.292 228.821 160.401 228.777 160.515 228.777C160.629 228.777 160.738 228.821 160.82 228.9C160.899 228.988 160.942 229.102 160.942 229.22C160.942 229.338 160.899 229.452 160.82 229.54C160.447 229.947 160.033 230.324 159.58 230.67Z" fill="#263238"/>
<path d="M179.85 243C182.158 242.568 184.337 241.614 186.22 240.21C186.22 242.74 187.92 247.08 187.92 247.08C195.97 244.43 202.6 228.32 203.49 222.98C207.97 231.3 207.58 226.52 207.93 222.98C208.43 217.89 208.55 212.62 206.82 207.82C205.09 203.02 201.12 198.73 196.08 197.9C195.142 197.812 194.197 197.977 193.344 198.378C192.491 198.779 191.761 199.401 191.23 200.18C190.368 201.728 189.805 203.424 189.57 205.18C187.23 217.79 187.33 232.54 179.85 243Z" fill="#263238"/>
<path d="M191.27 214C185.11 214.13 181.34 221.9 180.69 227.22C179.92 233.13 183.9 238 189.61 235.38C191.739 234.392 193.649 232.988 195.229 231.252C196.809 229.516 198.026 227.483 198.81 225.27C200.71 219.8 197.43 213.89 191.27 214Z" fill="#FFB573"/>
<path opacity="0.2" d="M208.36 312.13C208.36 312.13 200.88 345.98 206.07 366.41C211.26 386.84 221.62 397.14 221.62 397.14L223.47 312.14L208.36 312.13Z" fill="black"/>
<path opacity="0.2" d="M221.62 397.14C220.15 397.491 218.613 397.457 217.16 397.04C216.88 400.35 216.61 403.88 216.37 407.65C210.42 410.84 183.89 401.47 160.62 392.12C155.49 390.06 150.52 387.99 145.97 386.06C144.35 385.39 142.8 384.72 141.31 384.06C138.22 382.74 135.4 381.51 132.94 380.43C130.94 379.56 129.18 378.78 127.72 378.12C124.67 376.77 122.92 375.97 122.92 375.97L127.65 376.28L165 378.7L174.65 379.33L176.59 379.44L188.54 380.21L196.7 380.73H197.12L205.04 381.24L211.49 381.65L218.69 382.11L221.58 382.3C221.58 382.3 221.74 384.3 221.79 387.65V387.77C221.86 390.26 221.83 393.45 221.62 397.14Z" fill="black"/>
<path d="M237 342.75C235.52 358.39 233.34 373.84 231.54 383.98C230.29 391.04 226.3 395.98 221.62 397.16C220.15 397.511 218.613 397.477 217.16 397.06C216.94 397 216.73 396.93 216.51 396.85L180.71 387.62L180.4 387.53L176.57 386.53L176.63 379.43V378.86V376.05L176.71 367.18L181.55 367.44L205.2 368.7C205.679 368.834 206.182 368.855 206.67 368.76C208.72 368.37 210.42 365.97 210.67 362.81L211.13 355.95L212.13 340.82L214.06 312.11L215.83 285.53C216.026 282.662 216.478 279.818 217.18 277.03C220.188 277.158 223.125 277.983 225.76 279.44C231.33 282.44 237.38 288.81 238.36 301.87C239.18 312.71 238.42 327.81 237 342.75Z" fill="#FFB573"/>
<path d="M194.05 390.19L141.51 380.05C140.078 379.599 138.559 379.5 137.08 379.76L122.28 382.3C120.691 382.576 119.057 382.439 117.536 381.903C116.014 381.368 114.656 380.451 113.59 379.24L106.59 371.3C105.746 370.346 105.103 369.232 104.7 368.023C104.296 366.815 104.141 365.538 104.243 364.268C104.344 362.998 104.701 361.762 105.292 360.634C105.883 359.505 106.695 358.507 107.68 357.7L110.19 355.64C111.82 354.3 113.852 353.545 115.962 353.494C118.071 353.444 120.137 354.1 121.83 355.36C123.54 356.632 125.63 357.288 127.76 357.22H128.63C130.607 357.159 132.553 357.719 134.195 358.822C135.836 359.926 137.09 361.516 137.78 363.37L138.6 365.56L181.43 367.2L194.05 390.19Z" fill="#FFB573"/>
<path opacity="0.1" d="M131.07 366.81C133.58 366.32 136.07 365.92 138.59 365.51L137.78 363.35C137.09 361.496 135.836 359.906 134.195 358.802C132.553 357.699 130.607 357.139 128.63 357.2H127.76C125.63 357.268 123.54 356.612 121.83 355.34C120.137 354.08 118.071 353.424 115.962 353.474C113.852 353.525 111.82 354.28 110.19 355.62L107.68 357.68C106.056 359.014 104.921 360.85 104.454 362.899C103.987 364.948 104.214 367.094 105.1 369C109.89 369.45 127.08 367.59 131.07 366.81Z" fill="black"/>
<path opacity="0.2" d="M210.52 379.42C208.757 380.168 206.943 380.787 205.09 381.27C201.6 382.27 196.79 383.53 191.18 384.93C187.84 385.76 184.18 386.63 180.42 387.53C174.14 389.03 167.42 390.6 160.68 392.13C143.09 396.13 125.68 399.96 117.6 401.73C117.83 398.5 118.06 395.34 118.25 392.22C116.84 392.43 115.52 392.56 114.25 392.62V392.38L114.56 390.17L118.36 389.31L128.03 387.11L141.3 384.11L151.02 381.9L165.02 378.71L176.64 376.07L185.21 374.12L191.65 372.66C191.65 372.66 203.38 373.88 209.02 375.85C212 376.85 213.25 378.06 210.52 379.42Z" fill="black"/>
<path d="M100.16 365.1L180.79 363.61C182.283 363.483 183.725 363.007 185 362.22L197.78 354.31C199.15 353.459 200.715 352.974 202.325 352.901C203.936 352.827 205.539 353.168 206.98 353.89L216.44 358.62C217.576 359.19 218.586 359.983 219.41 360.95C220.234 361.918 220.856 363.042 221.237 364.254C221.619 365.467 221.752 366.744 221.631 368.009C221.51 369.274 221.135 370.502 220.53 371.62L219 374.5C217.989 376.352 216.387 377.813 214.45 378.65C212.513 379.487 210.352 379.653 208.31 379.12C206.25 378.58 193.31 380.69 190.53 377.7L188.93 376L124.78 391.1C120.232 392.172 115.557 392.599 110.89 392.37L100.16 365.1Z" fill="#FFB573"/>
<path d="M258.4 338.18C256.206 339.759 253.677 340.809 251.01 341.25C233.63 344.13 222.62 342.67 208.61 340.25C206.14 317 206.76 299 211.22 286C212.71 281.68 216.97 275.39 221.53 275.58C240.9 276.39 244.2 295.87 246.41 304.86C249.156 316.378 253.177 327.554 258.4 338.18Z" fill="#FFD600"/>
<path opacity="0.6" d="M258.4 338.18C256.206 339.759 253.677 340.809 251.01 341.25C233.63 344.13 222.62 342.67 208.61 340.25C206.14 317 206.76 299 211.22 286C212.71 281.68 216.97 275.39 221.53 275.58C240.9 276.39 244.2 295.87 246.41 304.86C249.156 316.378 253.177 327.554 258.4 338.18Z" fill="black"/>
<path d="M175.61 204.78C178 198.62 181.5 195.53 179.43 195.95C173.83 197.1 170.15 192.25 166.14 195.28C164.23 197.71 166.75 201.96 166.84 201.72C164.84 202.81 162.19 202.15 160.42 200.72C158.65 199.29 157.93 196.6 156.99 194.5C156.476 196.872 156.646 199.341 157.48 201.62C156.05 202.89 152.89 200.77 151.48 199.53C150.023 198.074 148.909 196.311 148.22 194.37C147.8 196.49 147.47 198.66 149.08 201.12C146.97 201.33 144.18 200.8 142.72 199.26C141.955 198.457 141.374 197.497 141.015 196.448C140.656 195.398 140.528 194.284 140.64 193.18C140.21 194.28 140.34 198.73 141.32 199.39C137.64 198.39 134.11 193.93 134.12 190.11C134.202 188.196 134.742 186.329 135.694 184.665C136.645 183.002 137.981 181.591 139.59 180.55C141.15 179.55 142.91 178.77 144.59 177.85C147.13 176.44 163.1 163.13 188.03 176.32C203.51 184.5 201.38 202.32 199.67 204.32C197.55 206.79 194.08 207.75 190.83 207.57C187.58 207.39 175 206.41 175.61 204.78Z" fill="#263238"/>
<path d="M178.93 195.9C177.313 197.64 176.105 199.719 175.396 201.986C174.686 204.252 174.493 206.649 174.83 209C175.54 213.68 182.18 221.3 181.83 220.83C181.565 220.338 181.47 219.772 181.56 219.22C181.711 217.103 182.25 215.032 183.15 213.11C183.71 215.73 184.56 221.11 187.24 221.18C188.3 219.25 189.6 217.49 189.42 215.29C190.04 217.54 190.6 219.8 191.22 222.05C193.859 220.337 195.955 217.909 197.266 215.05C198.576 212.19 199.046 209.017 198.62 205.9C198.382 204.45 197.862 203.061 197.09 201.81C196.125 200.44 194.958 199.223 193.63 198.2C190.25 195.33 185.77 192.47 181.63 194.2C181.11 194.43 178.77 195.28 178.93 195.9Z" fill="#263238"/>
<path d="M162.27 211.1C162.27 212.66 161.44 213.91 160.44 213.94C159.44 213.97 158.62 212.73 158.54 211.13C158.46 209.53 159.37 208.32 160.38 208.3C161.39 208.28 162.28 209.56 162.27 211.1Z" fill="#263238"/>
<path d="M294 268.71C294.432 266.766 294.733 264.794 294.9 262.81C295.73 256.15 299.68 251 304.66 249.98L308.25 249.25C308.25 249.25 302.61 249.25 300.25 247.6C295.25 244.11 294.12 233.8 294.12 233.8C294.12 233.8 292.72 244.11 287.74 247.6C285.39 249.25 279.74 249.25 279.74 249.25L283.34 249.98C288.34 250.98 292.27 256.15 293.09 262.81C293.266 264.794 293.57 266.765 294 268.71Z" fill="#FFD600"/>
<g opacity="0.7">
<path d="M294 268.71C294.432 266.766 294.733 264.794 294.9 262.81C295.73 256.15 299.68 251 304.66 249.98L308.25 249.25C308.25 249.25 302.61 249.25 300.25 247.6C295.25 244.11 294.12 233.8 294.12 233.8C294.12 233.8 292.72 244.11 287.74 247.6C285.39 249.25 279.74 249.25 279.74 249.25L283.34 249.98C288.34 250.98 292.27 256.15 293.09 262.81C293.266 264.794 293.57 266.765 294 268.71Z" fill="white"/>
</g>
<path d="M93.64 162.66C93.84 162.58 94.38 158.66 94.96 154C96.17 144.21 101.96 136.64 109.29 135.15L114.57 134.07C114.57 134.07 106.28 134.07 102.83 131.65C95.5 126.53 93.83 111.39 93.83 111.39C93.83 111.39 91.83 126.53 84.46 131.65C81 134.07 72.72 134.07 72.72 134.07L78 135.15C85.31 136.64 91.11 144.21 92.32 154C92.9 158.7 93.43 162.58 93.64 162.66Z" fill="#FFD600"/>
<g opacity="0.7">
<path d="M93.64 162.66C93.84 162.58 94.38 158.66 94.96 154C96.17 144.21 101.96 136.64 109.29 135.15L114.57 134.07C114.57 134.07 106.28 134.07 102.83 131.65C95.5 126.53 93.83 111.39 93.83 111.39C93.83 111.39 91.83 126.53 84.46 131.65C81 134.07 72.72 134.07 72.72 134.07L78 135.15C85.31 136.64 91.11 144.21 92.32 154C92.9 158.7 93.43 162.58 93.64 162.66Z" fill="white"/>
</g>
<path d="M239.16 165C239.481 163.556 239.704 162.093 239.83 160.62C240.44 155.68 243.37 151.85 247.07 151.09L249.74 150.55C249.74 150.55 245.55 150.55 243.81 149.33C240.1 146.74 239.25 139.08 239.25 139.08C239.25 139.08 238.25 146.74 234.52 149.33C232.77 150.55 228.58 150.55 228.58 150.55L231.25 151.09C234.95 151.85 237.88 155.68 238.49 160.62C238.622 162.092 238.845 163.555 239.16 165Z" fill="#FFD600"/>
<g opacity="0.7">
<path d="M239.16 165C239.481 163.556 239.704 162.093 239.83 160.62C240.44 155.68 243.37 151.85 247.07 151.09L249.74 150.55C249.74 150.55 245.55 150.55 243.81 149.33C240.1 146.74 239.25 139.08 239.25 139.08C239.25 139.08 238.25 146.74 234.52 149.33C232.77 150.55 228.58 150.55 228.58 150.55L231.25 151.09C234.95 151.85 237.88 155.68 238.49 160.62C238.622 162.092 238.845 163.555 239.16 165Z" fill="white"/>
</g>
<path d="M10.1601 226.53C10.4862 225.087 10.7101 223.624 10.8301 222.15C11.4401 217.21 14.3801 213.38 18.0701 212.62L20.7401 212.08C20.7401 212.08 16.5501 212.08 14.8101 210.86C11.1101 208.27 10.2601 200.62 10.2601 200.62C10.2601 200.62 9.26007 208.27 5.52007 210.86C3.77007 212.08 -0.419922 212.08 -0.419922 212.08L2.25008 212.62C5.95008 213.38 8.88007 217.21 9.49007 222.15C9.62162 223.622 9.8454 225.085 10.1601 226.53Z" fill="#FFD600"/>
</g>
<defs>
<clipPath id="clip0_2792_3337">
<rect width="345" height="500" fill="white"/>
</clipPath>
</defs>
</svg>
