<svg width="410" height="500" viewBox="0 0 410 500" fill="none" xmlns="http://www.w3.org/2000/svg">
<g clip-path="url(#clip0_2792_3549)">
<path d="M369.1 371.91H322.36L313.68 394.5H281.78L330.57 278.22H361.36L410.31 394.5H377.79L369.1 371.91ZM359.94 347.66L345.73 310.45L331.52 347.66H359.94Z" fill="#E0E0E0"/>
<path d="M152.73 244.57C152.73 261.22 139 271 113.1 271H61.1001V174.67H110.36C135.68 174.67 148.06 184.99 148.06 199.85C148.06 209.07 143.38 216.5 135.13 220.76C146 224.62 152.73 232.87 152.73 244.57ZM88.0601 194.34V212.92H106.77C115.85 212.92 120.53 209.76 120.53 203.56C120.53 197.36 115.85 194.34 106.77 194.34H88.0601ZM125.21 241.54C125.21 234.94 120.21 231.77 110.9 231.77H88.0601V251.31H110.9C120.25 251.31 125.21 248.15 125.21 241.54Z" fill="#EBEBEB"/>
<path d="M169.45 248.39L187.75 240.66L231.5 232L278.71 241.27L216.34 308.29L186.77 309.98L164.36 265.45L169.45 248.39Z" fill="#FFBE9D"/>
<path d="M328.41 299.51C328.41 299.51 298.6 251.64 290.57 245.93C282.54 240.22 256.97 236.61 256.97 236.61C256.97 236.61 228.81 300.2 202 298C175.19 295.8 172.25 247.12 172.25 247.12L160.44 251.83C158.349 252.662 156.462 253.937 154.909 255.566C153.355 257.195 152.172 259.141 151.44 261.27L127.8 330.09L168 339.65C175.06 365.95 185 388.83 197.48 408.65L198.76 402.08L282.29 400.79L306.48 391.43L277.35 325.23L328.41 299.51Z" fill="#F5C13B"/>
<path d="M174.11 358.58C174.006 358.411 173.925 358.23 173.87 358.04C173.73 357.63 173.54 357.11 173.31 356.47C172.81 355.04 172.12 353.07 171.31 350.67C169.63 345.77 167.31 338.99 165.16 331.36C164.16 327.53 163.26 323.85 162.61 320.48C161.96 317.11 161.56 314.03 161.34 311.48C161.19 310.19 161.16 309.02 161.1 307.99C161.04 306.96 161 306 161 305.3V303.63C160.977 303.437 160.977 303.242 161 303.05C161.046 303.24 161.07 303.434 161.07 303.63C161.07 304.07 161.07 304.63 161.16 305.3C161.25 305.97 161.23 306.9 161.33 307.93C161.43 308.96 161.48 310.12 161.65 311.41C161.91 313.98 162.39 317.03 163.02 320.41C163.65 323.79 164.55 327.41 165.6 331.24C167.71 338.85 170.01 345.64 171.6 350.58C172.4 353.04 173.04 355.04 173.46 356.43C173.65 357.08 173.81 357.61 173.93 358.03C174.008 358.207 174.069 358.391 174.11 358.58Z" fill="#263238"/>
<path d="M258.2 347.56C258.065 347.662 257.917 347.746 257.76 347.81C257.46 347.96 257.02 348.2 256.43 348.44C254.775 349.161 253.062 349.743 251.31 350.18C245.5 351.673 239.406 351.666 233.599 350.16C227.792 348.654 222.463 345.698 218.11 341.57C216.795 340.339 215.584 339.001 214.49 337.57C214.09 337.07 213.83 336.65 213.63 336.37C213.522 336.237 213.434 336.089 213.37 335.93C213.37 335.93 213.83 336.47 214.64 337.44C215.791 338.813 217.034 340.106 218.36 341.31C222.726 345.308 228.005 348.175 233.735 349.661C239.465 351.146 245.472 351.204 251.23 349.83C252.972 349.432 254.683 348.911 256.35 348.27C256.954 348.001 257.571 347.764 258.2 347.56Z" fill="#263238"/>
<path d="M267.06 272.32C267.104 271.916 267.188 271.518 267.31 271.13C267.5 270.37 267.83 269.28 268.31 267.96C269.562 264.517 271.199 261.226 273.19 258.15C275.191 255.071 277.54 252.232 280.19 249.69C280.983 248.916 281.814 248.181 282.68 247.49C282.985 247.213 283.321 246.971 283.68 246.77C283.74 246.84 282.42 247.96 280.47 249.95C275.375 255.146 271.379 261.316 268.72 268.09C267.63 270.68 267.15 272.35 267.06 272.32Z" fill="#263238"/>
<path d="M269.82 325.67C269.68 325.67 268.51 316.79 267.2 305.8C265.89 294.81 264.95 285.88 265.09 285.87C265.23 285.86 266.41 294.75 267.72 305.74C269.03 316.73 270 325.66 269.82 325.67Z" fill="#263238"/>
<g opacity="0.3">
<path d="M213.9 337.78C218.17 344.05 222.6 350.39 228.66 354.96C234.72 359.53 242.77 362.09 250.02 359.86C252.317 359.116 254.491 358.034 256.47 356.65C259.34 354.73 262.13 352.1 262.54 348.65C262.644 348.264 262.63 347.856 262.5 347.478C262.37 347.1 262.129 346.77 261.81 346.53C261.357 346.351 260.858 346.326 260.39 346.46C255.29 347.46 250.84 351.03 245.65 351.41C242.984 351.465 240.327 351.09 237.78 350.3C228.78 348.03 220.06 344.69 213.9 337.75" fill="black"/>
</g>
<g opacity="0.3">
<path d="M273.88 365.51C275.18 363.94 276.06 362.65 277.28 361.2C277.887 360.444 278.327 359.568 278.57 358.63C278.8 357.545 278.8 356.425 278.57 355.34C277.228 346.067 274.984 336.947 271.87 328.11C271.769 327.973 271.704 327.812 271.682 327.643C271.66 327.474 271.682 327.303 271.745 327.144C271.808 326.986 271.911 326.847 272.043 326.739C272.175 326.632 272.332 326.56 272.5 326.53C274.02 326.06 275.8 325.43 277.32 324.96C279.55 335.96 281.4 348.18 283.6 358.73C283.6 358.58 277.09 363.37 273.87 365.51" fill="black"/>
</g>
<g opacity="0.3">
<path d="M167.61 339.77C164 336.245 161.038 332.112 158.86 327.56C157.902 325.624 157.183 323.579 156.72 321.47C156.31 319.097 156.169 316.685 156.3 314.28C156.522 306.122 157.638 298.014 159.63 290.1C159.954 290.57 160.156 291.113 160.22 291.68C161.74 299.86 160.81 308.33 162.08 316.55C162.6 319.87 163.47 323.12 164.01 326.43C164.238 328.136 164.572 329.826 165.01 331.49C165.45 332.98 166.13 334.4 166.61 335.88C167.033 337.294 167.367 338.734 167.61 340.19" fill="black"/>
</g>
<path d="M229.89 396.87L283.59 358.58L277.33 325L312.53 306.8C312.53 306.8 325.3 360.28 316.86 380.91C314 388 227 415.63 227 415.63L229.89 396.87Z" fill="#FFBE9D"/>
<path d="M303.89 355.29C303.89 355.38 302.69 354.94 300.73 354.58C299.58 354.38 298.417 354.267 297.25 354.24C294.393 354.18 291.551 354.672 288.88 355.69C287.794 356.106 286.741 356.604 285.73 357.18C284 358.18 283.05 358.99 282.99 358.92C282.93 358.85 283.18 358.67 283.61 358.29C284.213 357.764 284.859 357.289 285.54 356.87C286.547 356.234 287.608 355.688 288.71 355.24C290.069 354.71 291.476 354.311 292.91 354.05C294.351 353.81 295.811 353.713 297.27 353.76C298.458 353.806 299.64 353.96 300.8 354.22C301.584 354.39 302.353 354.62 303.1 354.91C303.381 354.997 303.647 355.125 303.89 355.29Z" fill="#EB996E"/>
<path d="M296.27 348.59C295.551 349.031 294.81 349.435 294.05 349.8C292.69 350.55 290.85 351.69 288.89 353.02C287.195 354.112 285.681 355.462 284.4 357.02C283.46 358.24 283.11 359.16 283.03 359.12C283.208 358.276 283.574 357.483 284.1 356.8C285.327 355.131 286.849 353.701 288.59 352.58C290.274 351.41 292.042 350.367 293.88 349.46C294.629 349.052 295.434 348.758 296.27 348.59Z" fill="#EB996E"/>
<path d="M187.1 422.69C189.98 422.69 192.31 422.69 192.31 422.76C192.31 422.83 189.98 422.83 187.1 422.83C184.22 422.83 181.89 422.83 181.89 422.76C181.89 422.69 184.23 422.69 187.1 422.69Z" fill="#EB996E"/>
<path d="M193.64 400.58C193.64 400.58 94.3201 359.83 77.8401 356.3C61.3601 352.77 32.4901 351.04 20.3401 375.3C11.8501 392.23 10.9201 412.3 43.3401 429.4C75.7601 446.5 172.22 462.4 172.22 462.4C172.22 462.4 259.3 484.16 273.43 478.28C287.56 472.4 306.99 460.04 301.11 436.5C295.23 412.96 296.52 400.83 275.3 399.5C254.37 398.22 249.22 397.5 229.3 416.71L193.64 400.58Z" fill="#263238"/>
<path d="M306.05 390.31C306.05 390.31 323.89 420.1 317.13 437.31C310.37 454.52 293.13 465.73 293.13 465.73L264.38 403L306.05 390.31Z" fill="#263238"/>
<path d="M183.87 442.44L183.51 442.27L182.45 441.73C181.53 441.25 180.17 440.53 178.45 439.56C175 437.62 170.04 434.74 164.2 430.73C158.36 426.72 151.63 421.63 144.33 415.73C140.68 412.81 136.84 409.73 132.9 406.52C128.96 403.31 124.9 399.95 120.51 396.81C116.263 393.738 111.787 390.997 107.12 388.61C102.752 386.42 98.2532 384.5 93.65 382.86C85.8389 380.118 77.8505 377.909 69.74 376.25C62.82 374.78 57.18 373.83 53.28 373.15L48.79 372.38L47.62 372.17L47.23 372.08H47.63L48.81 372.24L53.31 372.91C57.22 373.53 62.88 374.43 69.82 375.85C77.9614 377.465 85.9807 379.643 93.82 382.37C98.443 384.005 102.961 385.922 107.35 388.11C112.044 390.504 116.547 393.255 120.82 396.34C125.21 399.5 129.29 402.86 133.22 406.08C137.15 409.3 140.99 412.38 144.63 415.32C151.91 421.18 158.58 426.32 164.41 430.32C170.24 434.32 175.14 437.32 178.55 439.27C180.26 440.27 181.6 441.02 182.55 441.53C182.99 441.77 183.33 441.97 183.55 442.12C183.671 442.211 183.778 442.319 183.87 442.44Z" fill="#455A64"/>
<path d="M185.11 441.8C189.35 440.06 176.04 444.47 171.62 443.24C164.62 441.29 159.85 433.29 152.55 433.09C147.86 432.97 143.83 436.2 139.42 437.81C134.03 439.81 128.08 439.31 122.42 438.46C116.76 437.61 111.02 436.46 105.32 437.07C103.634 437.119 102.017 437.748 100.74 438.85C100.025 439.693 99.5924 440.739 99.5045 441.841C99.4166 442.943 99.6773 444.044 100.25 444.99C101.455 446.863 103.299 448.235 105.44 448.85C107.562 449.441 109.729 449.853 111.92 450.08C122.13 451.61 131.77 455.65 141.79 458.14C152.13 460.72 162.79 461.64 173.43 462.54C173.42 462.54 172.69 446.88 185.11 441.8Z" fill="#FFBE9D"/>
<path d="M277.26 442.42C277.341 442.542 277.399 442.677 277.43 442.82C277.581 443.209 277.711 443.607 277.82 444.01C278.24 445.484 278.522 446.994 278.66 448.52C278.868 450.795 278.754 453.087 278.32 455.33C277.797 458.088 276.734 460.715 275.19 463.06C273.599 465.385 271.512 467.328 269.08 468.75C267.11 469.92 264.934 470.701 262.67 471.05C261.146 471.288 259.594 471.288 258.07 471.05C257.658 470.99 257.251 470.904 256.85 470.79C256.706 470.763 256.565 470.719 256.43 470.66C258.478 470.98 260.563 470.98 262.61 470.66C264.814 470.266 266.926 469.469 268.84 468.31C271.189 466.901 273.205 465.001 274.75 462.74C276.26 460.45 277.312 457.89 277.85 455.2C278.298 453.003 278.446 450.756 278.29 448.52C278.189 447.008 277.969 445.507 277.63 444.03C277.473 443.502 277.349 442.964 277.26 442.42Z" fill="#455A64"/>
<path d="M208.66 422.78L269.23 395.07L288.53 399.11L289.37 401.19L218.58 429.57L208.66 427.18V422.78Z" fill="white"/>
<path d="M270.91 397.63L208.66 427.18L229.09 432.1L293.44 401.97L270.91 397.63Z" fill="#455A64"/>
<path d="M185.11 441.8C185.11 441.8 217.11 419.95 225.52 415.59C233.93 411.23 278.52 401.03 289.65 405.66C300.78 410.29 256.43 450.1 256.43 450.1L185.11 441.8Z" fill="#263238"/>
<path d="M250.25 424.26C250.167 424.24 250.086 424.21 250.01 424.17L249.33 423.88L246.74 422.74C243.584 421.304 240.325 420.108 236.99 419.16C234.69 418.523 232.325 418.15 229.94 418.05C228.605 418.002 227.267 418.059 225.94 418.22C224.55 418.406 223.178 418.71 221.84 419.13C216.28 420.82 210.98 424.54 205.52 428.4C200.06 432.26 194.52 435.64 189.69 438.81C187.25 440.39 184.95 441.93 182.84 443.41C180.838 444.703 179.095 446.358 177.7 448.29C176.585 449.914 175.684 451.675 175.02 453.53C174.41 455.16 174.02 456.6 173.68 457.79C173.34 458.98 173.15 459.87 172.98 460.53L172.79 461.25C172.777 461.334 172.75 461.415 172.71 461.49C172.697 461.404 172.697 461.316 172.71 461.23C172.71 461.04 172.79 460.8 172.84 460.51C172.97 459.87 173.16 458.94 173.46 457.74C173.802 456.282 174.222 454.843 174.72 453.43C175.367 451.539 176.258 449.741 177.37 448.08C178.771 446.103 180.532 444.406 182.56 443.08C184.67 441.57 186.96 440.02 189.4 438.43C194.26 435.23 199.71 431.87 205.19 428C210.67 424.13 216 420.39 221.67 418.69C224.325 417.849 227.109 417.493 229.89 417.64C232.305 417.754 234.698 418.15 237.02 418.82C240.365 419.803 243.623 421.061 246.76 422.58C247.88 423.1 248.76 423.52 249.31 423.81L249.97 424.14C250.07 424.162 250.165 424.203 250.25 424.26Z" fill="#455A64"/>
<path d="M255.43 422.5C255.37 422.57 254.53 421.76 252.91 420.86C250.785 419.728 248.464 419.012 246.07 418.75C243.668 418.462 241.245 418.385 238.83 418.52C237.834 418.621 236.831 418.655 235.83 418.62C236.811 418.362 237.817 418.204 238.83 418.15C241.269 417.909 243.727 417.936 246.16 418.23C248.634 418.487 251.022 419.279 253.16 420.55C253.797 420.935 254.394 421.384 254.94 421.89C255.27 422.25 255.45 422.48 255.43 422.5Z" fill="#455A64"/>
<path d="M297.27 409.78C297.27 409.78 296.62 409.36 295.47 408.59C293.804 407.56 292.034 406.709 290.19 406.05C287.442 405.117 284.585 404.539 281.69 404.33C278.142 404.078 274.579 404.175 271.05 404.62C267.29 405.08 263.73 405.76 260.49 406.38C257.25 407 254.37 407.64 251.94 408.2C249.51 408.76 247.56 409.25 246.21 409.59L244.65 409.98C244.471 410.036 244.287 410.073 244.1 410.09C244.265 410 244.439 409.929 244.62 409.88L246.16 409.4C247.49 409 249.43 408.45 251.85 407.84C254.27 407.23 257.17 406.57 260.4 405.91C263.63 405.25 267.19 404.56 270.99 404.1C274.552 403.652 278.151 403.569 281.73 403.85C284.664 404.084 287.553 404.71 290.32 405.71C292.175 406.401 293.941 407.311 295.58 408.42C296.16 408.82 296.58 409.18 296.86 409.42C297.14 409.66 297.29 409.77 297.27 409.78Z" fill="#455A64"/>
<path d="M144.34 334.5C144.34 334.5 149.71 374.94 151.87 381.37C154.03 387.8 171 411.3 171 411.3L193.62 400.58L178.5 372.13L168.05 340L144.34 334.5Z" fill="#FFBE9D"/>
<path d="M192.7 399.11C194.658 398.81 196.643 398.72 198.62 398.84C199.372 398.824 200.113 399.029 200.75 399.43C201.109 399.744 201.405 400.124 201.62 400.55C202.759 402.57 203.381 404.841 203.43 407.16C203.483 407.599 203.376 408.042 203.13 408.41C202.64 408.99 201.71 408.81 201.02 408.51C200.047 408.092 199.144 407.529 198.34 406.84C197.287 405.869 196.335 404.793 195.5 403.63L194.62 402.48C193.87 401.48 193.12 400.55 192.38 399.58" fill="#EB996E"/>
<path d="M184.53 381.66C186.18 385.88 191.17 399.3 191.17 399.3L194.62 403.08L186.82 380.82C186.719 380.528 186.512 380.285 186.239 380.14C185.966 379.996 185.649 379.96 185.35 380.04C185.186 380.086 185.033 380.165 184.9 380.274C184.768 380.382 184.66 380.517 184.583 380.669C184.506 380.822 184.462 380.988 184.452 381.159C184.443 381.33 184.47 381.5 184.53 381.66Z" fill="#E0E0E0"/>
<path d="M180.23 400.45C180.23 400.45 175.4 400.82 174.05 402.24C172.7 403.66 172.26 407.94 172.26 407.94C172.26 407.94 169.49 411.84 170.96 415.26C170.96 415.26 168.64 420.63 170.53 422.41C171.316 423.254 172.231 423.97 173.24 424.53H195L203.62 411.3L195 403.06C195 403.06 189.6 395.06 186.68 394.76C183.76 394.46 177.94 395.05 180.23 400.45Z" fill="#FFBE9D"/>
<path d="M180.23 400.45C180.162 400.322 180.105 400.188 180.06 400.05C179.892 399.681 179.774 399.291 179.71 398.89C179.569 398.218 179.642 397.518 179.92 396.89C180.334 396.065 181.05 395.431 181.92 395.12C182.976 394.714 184.098 394.507 185.23 394.51C185.878 394.472 186.527 394.525 187.16 394.67C187.823 394.906 188.436 395.262 188.97 395.72C191.35 397.832 193.445 400.246 195.2 402.9L203.84 411.12L203.99 411.26L203.87 411.43L195.26 424.67L195.19 424.79H193.9H173.25H173.19C172.326 424.289 171.527 423.685 170.81 422.99C170.409 422.682 170.09 422.28 169.88 421.82C169.703 421.364 169.612 420.879 169.61 420.39C169.675 418.603 170.083 416.844 170.81 415.21V415.38C170.304 414.063 170.241 412.617 170.63 411.26C170.947 410.056 171.464 408.913 172.16 407.88V407.96C172.315 406.176 172.793 404.434 173.57 402.82C173.759 402.474 174.018 402.171 174.33 401.93C174.62 401.732 174.932 401.568 175.26 401.44C175.822 401.211 176.404 401.036 177 400.92C177.808 400.74 178.626 400.61 179.45 400.53H180.08H180.3C180.3 400.53 180.22 400.53 180.09 400.58L179.46 400.67C178.91 400.76 178.08 400.88 177.04 401.13C176.463 401.271 175.899 401.454 175.35 401.68C175.041 401.814 174.746 401.978 174.47 402.17C174.195 402.397 173.968 402.676 173.8 402.99C173.077 404.568 172.637 406.26 172.5 407.99C171.84 408.995 171.353 410.104 171.06 411.27C170.704 412.547 170.77 413.904 171.25 415.14V415.21V415.3C170.557 416.879 170.173 418.576 170.12 420.3C170.122 420.734 170.203 421.165 170.36 421.57C170.547 421.965 170.829 422.309 171.18 422.57C171.859 423.22 172.611 423.79 173.42 424.27H173.34H193.99H195L194.78 424.39L203.41 411.17V411.48L194.81 403.21C193.088 400.575 191.038 398.169 188.71 396.05C188.216 395.616 187.647 395.277 187.03 395.05C186.428 394.906 185.809 394.845 185.19 394.87C184.096 394.85 183.007 395.033 181.98 395.41C181.15 395.682 180.455 396.262 180.04 397.03C179.772 397.614 179.685 398.266 179.79 398.9C179.848 399.309 179.945 399.71 180.08 400.1C180.2 400.33 180.24 400.46 180.23 400.45Z" fill="#EB996E"/>
<path d="M190.45 418.09C189.508 418.101 188.567 418.024 187.64 417.86C186.77 417.76 185.75 417.63 184.64 417.47C184.023 417.385 183.419 417.227 182.84 417C182.231 416.738 181.657 416.402 181.13 416C179.302 414.618 177.659 413.008 176.24 411.21C175.617 410.495 175.102 409.693 174.71 408.83C174.77 408.78 175.4 409.66 176.53 410.97C178.001 412.674 179.646 414.219 181.44 415.58C181.93 415.978 182.468 416.314 183.04 416.58C183.581 416.797 184.144 416.955 184.72 417.05L187.72 417.55C188.644 417.647 189.558 417.827 190.45 418.09Z" fill="#EB996E"/>
<path d="M189.54 423.71C188.653 423.923 187.743 424.031 186.83 424.03C185.829 424.088 184.825 424.054 183.83 423.93C182.608 423.761 181.42 423.4 180.31 422.86C178.34 421.829 176.556 420.477 175.03 418.86C174.353 418.241 173.746 417.551 173.22 416.8C173.954 417.34 174.643 417.938 175.28 418.59C176.845 420.095 178.612 421.374 180.53 422.39C182.496 423.295 184.647 423.73 186.81 423.66C187.72 423.612 188.633 423.629 189.54 423.71Z" fill="#EB996E"/>
<path d="M193.38 412.52C192.616 412.251 191.89 411.885 191.22 411.43C189.551 410.424 187.972 409.277 186.5 408C185.027 406.721 183.668 405.316 182.44 403.8C181.889 403.203 181.428 402.529 181.07 401.8C181.19 401.7 183.42 404.64 186.84 407.6C190.26 410.56 193.47 412.38 193.38 412.52Z" fill="#EB996E"/>
<path d="M144.34 430.47V422.78H208.66V425.26V425.76L199.65 432.1L144.34 430.47Z" fill="white"/>
<path d="M198.46 432.67H139.53V429.57H203.09L198.46 432.67Z" fill="#455A64"/>
<path d="M219.55 399.25C218.87 399.38 204.55 401.84 204.55 401.84L194.33 414.11V422.78C194.33 422.78 197.46 424.6 198.96 421.88C198.96 421.88 195.82 430.74 197.05 432.04C198.28 433.34 200.26 434.42 201.96 432.04C203.541 429.4 204.909 426.638 206.05 423.78L206.46 427.44C206.46 427.44 215.05 423.24 216 422.01C216.95 420.78 222.55 412.74 222.55 412.74L225.14 410.42L222.55 414.51C222.55 414.51 217.91 419.42 219.82 420.38C221.73 421.34 225.14 417.79 225.14 417.79L230.45 411.65L234.95 411.11C235.068 408.137 234.839 405.16 234.27 402.24C233.96 400.35 230.73 396.53 231.05 396.13C231.05 396.13 231.05 396.06 231.05 396.07L219.55 399.25Z" fill="#FFBE9D"/>
<path d="M207.66 405.74C207.123 406.502 206.535 407.227 205.9 407.91C204.472 409.62 203.136 411.406 201.9 413.26C201.35 414.337 200.975 415.495 200.79 416.69C200.49 417.79 200.16 418.77 199.87 419.58C199.606 420.477 199.244 421.342 198.79 422.16C198.963 421.246 199.208 420.346 199.52 419.47C199.77 418.65 200.05 417.67 200.32 416.57C200.46 416.01 200.57 415.44 200.7 414.83C200.834 414.171 201.092 413.543 201.46 412.98C202.705 411.098 204.103 409.322 205.64 407.67C206.234 406.948 206.912 406.3 207.66 405.74Z" fill="#EB996E"/>
<path d="M214.91 407.79C214.91 407.79 214.74 408.01 214.4 408.37L213 409.92C212.41 410.58 211.71 411.38 211 412.27C210.63 412.72 210.23 413.19 209.84 413.69C209.41 414.164 209.071 414.713 208.84 415.31C207.62 419.44 206.57 423.01 206.13 424.17L206.01 424.49V424.16C206.01 423.8 205.96 423.63 206.01 423.62C206.06 423.61 206.1 423.78 206.19 424.13H206C206.25 422.89 207.14 419.34 208.38 415.13C208.491 414.794 208.645 414.475 208.84 414.18C209.03 413.89 209.23 413.63 209.43 413.38C209.83 412.87 210.24 412.38 210.63 411.96C211.41 411.07 212.14 410.3 212.76 409.67C213.372 408.933 214.098 408.298 214.91 407.79Z" fill="#EB996E"/>
<path d="M218.6 410.37C218.208 411.047 217.727 411.669 217.17 412.22L215.51 414.12C215.183 414.481 214.88 414.861 214.6 415.26C214.324 415.694 214.096 416.157 213.92 416.64C213.55 417.64 213.31 418.64 213.04 419.58L212.33 422C212.154 422.76 211.892 423.498 211.55 424.2C211.606 423.423 211.747 422.656 211.97 421.91L212.58 419.45C212.812 418.436 213.096 417.435 213.43 416.45C213.619 415.931 213.871 415.438 214.18 414.98C214.488 414.565 214.822 414.171 215.18 413.8C215.82 413.09 216.43 412.48 216.93 411.97C217.44 411.39 217.999 410.855 218.6 410.37Z" fill="#EB996E"/>
<path d="M235.42 410.54C235.321 410.583 235.217 410.613 235.11 410.63L234.16 410.87L230.48 411.74C229.75 412.6 228.91 413.59 227.95 414.74L226.43 416.52C225.89 417.192 225.313 417.833 224.7 418.44C224.008 419.098 223.243 419.675 222.42 420.16C221.976 420.423 221.494 420.615 220.99 420.73C220.711 420.807 220.416 420.813 220.134 420.748C219.851 420.684 219.589 420.55 219.37 420.36C219.272 420.238 219.201 420.096 219.161 419.945C219.121 419.793 219.114 419.635 219.14 419.48C219.177 419.195 219.251 418.916 219.36 418.65C219.587 418.132 219.861 417.637 220.18 417.17C220.833 416.209 221.558 415.3 222.35 414.45L224.93 410.35L225.25 410.62L222.67 412.95L216.51 421.72C216.37 421.91 216.25 422.1 216.09 422.29C215.914 422.476 215.72 422.644 215.51 422.79C215.12 423.08 214.72 423.34 214.31 423.59C213.49 424.09 212.65 424.59 211.79 425.02C210.077 425.953 208.317 426.863 206.51 427.75L206.19 427.91V427.55C206.06 426.4 205.92 425.15 205.78 423.89L206.27 423.96C205.59 425.6 204.87 427.25 204.05 428.9C203.65 429.73 203.22 430.55 202.74 431.36C202.289 432.251 201.596 432.996 200.74 433.51C200.432 433.663 200.095 433.752 199.752 433.771C199.408 433.789 199.064 433.738 198.74 433.62C198.123 433.385 197.561 433.024 197.09 432.56C196.964 432.446 196.847 432.322 196.74 432.19C196.636 432.032 196.565 431.856 196.53 431.67C196.47 431.34 196.45 431.005 196.47 430.67C196.509 430.049 196.589 429.431 196.71 428.82C197.221 426.445 197.889 424.107 198.71 421.82L199.18 422.03C198.954 422.463 198.627 422.835 198.227 423.115C197.826 423.396 197.365 423.576 196.88 423.64C195.943 423.696 195.009 423.481 194.19 423.02L194.07 422.96V422.81C194.07 419.823 194.07 416.933 194.07 414.14V414V413.93C197.78 409.5 201.22 405.39 204.33 401.69V401.63H204.41L219.41 399.1L227.95 396.8L230.22 396.21L230.81 396.07C230.87 396.07 230.93 396.02 230.96 396.07C230.99 396.12 230.96 396.12 230.96 396.12C230.96 396.12 230.75 396.12 230.25 396.29L228 396.95L219.5 399.37L204.5 402.02L204.62 401.95L194.42 414.24L194.48 414.09C194.48 416.877 194.48 419.767 194.48 422.76L194.35 422.54C195.076 422.944 195.902 423.131 196.73 423.08C197.135 423.03 197.522 422.881 197.855 422.645C198.189 422.41 198.458 422.095 198.64 421.73L199.1 421.94C198.306 424.189 197.658 426.487 197.16 428.82C197.044 429.408 196.968 430.002 196.93 430.6C196.916 430.888 196.933 431.176 196.98 431.46C197.03 431.715 197.177 431.941 197.39 432.09C197.752 432.534 198.242 432.855 198.794 433.009C199.345 433.163 199.931 433.143 200.47 432.95C201.225 432.459 201.828 431.766 202.21 430.95C202.68 430.16 203.1 429.35 203.51 428.53C204.31 426.89 205.04 425.25 205.71 423.63L206.1 422.7L206.21 423.7C206.35 424.95 206.49 426.2 206.61 427.35L206.25 427.15C208.05 426.27 209.81 425.36 211.51 424.45C212.36 423.98 213.2 423.52 214.01 423.03C214.41 422.78 214.81 422.53 215.18 422.26C215.356 422.135 215.52 421.995 215.67 421.84C215.82 421.67 215.95 421.46 216.08 421.28C218.24 418.28 220.31 415.28 222.26 412.55L224.85 410.23L226.01 409.23L225.18 410.53L222.58 414.61C221.798 415.445 221.08 416.338 220.43 417.28C220.126 417.721 219.865 418.19 219.65 418.68C219.45 419.15 219.32 419.68 219.58 420.02C219.76 420.161 219.971 420.257 220.195 420.302C220.419 420.348 220.65 420.34 220.87 420.28C221.338 420.177 221.787 420.002 222.2 419.76C223.004 419.297 223.752 418.743 224.43 418.11C225.042 417.51 225.623 416.879 226.17 416.22L227.7 414.47L230.27 411.55L233.98 410.76L234.98 410.57C235.125 410.543 235.273 410.533 235.42 410.54Z" fill="#EB996E"/>
<path d="M162.21 187.63C159.893 185.914 158.115 183.571 157.084 180.879C156.053 178.186 155.812 175.255 156.39 172.43C156.537 172.162 156.62 171.863 156.633 171.558C156.647 171.253 156.59 170.948 156.467 170.668C156.345 170.388 156.159 170.14 155.926 169.942C155.692 169.745 155.417 169.604 155.12 169.53C153.771 168.824 152.579 167.851 151.618 166.67C150.657 165.489 149.947 164.124 149.53 162.66C149.138 161.185 149.142 159.634 149.541 158.161C149.939 156.688 150.718 155.346 151.8 154.27C147.37 152.7 145.51 146.74 147.59 142.53C149.67 138.32 154.79 136.15 159.46 136.71C157.85 134.34 158.55 130.93 160.46 128.8C162.521 126.78 165.187 125.491 168.05 125.13C171.84 124.44 176.39 124.88 178.56 128.06C178.76 125.71 181.13 124.13 183.42 123.56C186.524 122.907 189.76 123.42 192.51 125.001C195.26 126.582 197.331 129.119 198.33 132.13C200.211 130.578 202.528 129.648 204.96 129.47C207.38 129.47 209.96 130.93 210.48 133.29C211.48 131.14 214.12 130.29 216.48 130.03C218.189 129.792 219.93 130.071 221.48 130.83C222.247 131.23 222.874 131.856 223.274 132.623C223.675 133.39 223.83 134.262 223.72 135.12C225.294 134.523 227.034 134.538 228.597 135.162C230.16 135.787 231.432 136.975 232.161 138.492C232.89 140.009 233.024 141.745 232.534 143.355C232.045 144.966 230.97 146.334 229.52 147.19C230.798 147.904 231.872 148.933 232.639 150.18C233.405 151.427 233.84 152.849 233.9 154.312C233.96 155.775 233.644 157.228 232.982 158.534C232.321 159.84 231.335 160.954 230.12 161.77C231.56 161.89 232.29 163.83 231.64 165.13C231.256 165.747 230.731 166.264 230.109 166.639C229.487 167.015 228.785 167.238 228.06 167.29L229.77 182.19C230.304 185.379 230.335 188.632 229.86 191.83C229.21 194.99 227.36 198.08 224.41 199.39" fill="#263238"/>
<path d="M160.65 173.28C159.91 161.19 171.34 147.59 183.45 147.36L223.14 149.89L223.82 156.36L233.06 239.81L189.82 264.46L187.16 233.05C187.16 233.05 171.52 232.43 165.84 212.83C163 203.08 161.48 186.71 160.65 173.28Z" fill="#FFBE9D"/>
<path d="M167 187.91C167.081 188.579 167.418 189.19 167.94 189.615C168.462 190.041 169.129 190.247 169.8 190.19C170.13 190.176 170.453 190.096 170.751 189.955C171.049 189.814 171.315 189.614 171.534 189.368C171.754 189.121 171.921 188.834 172.027 188.521C172.133 188.209 172.175 187.879 172.15 187.55C172.074 186.881 171.74 186.268 171.219 185.842C170.698 185.416 170.031 185.211 169.36 185.27C169.03 185.284 168.707 185.364 168.408 185.505C168.11 185.646 167.843 185.845 167.623 186.092C167.403 186.338 167.234 186.625 167.127 186.938C167.02 187.25 166.977 187.581 167 187.91Z" fill="#263238"/>
<path d="M165.25 181.32C165.61 181.61 167.38 179.93 170.14 179.59C172.9 179.25 175.14 180.38 175.35 180.01C175.48 179.84 175.08 179.28 174.12 178.74C172.819 178.065 171.343 177.807 169.89 178C168.455 178.172 167.113 178.8 166.06 179.79C165.29 180.55 165.08 181.19 165.25 181.32Z" fill="#263238"/>
<path d="M191.68 185.9C191.755 186.571 192.091 187.185 192.615 187.611C193.138 188.038 193.808 188.242 194.48 188.18C194.809 188.165 195.131 188.084 195.429 187.942C195.726 187.801 195.992 187.601 196.211 187.355C196.43 187.109 196.597 186.822 196.704 186.51C196.81 186.198 196.853 185.868 196.83 185.54C196.754 184.871 196.42 184.258 195.899 183.832C195.378 183.406 194.71 183.201 194.04 183.26C193.71 183.274 193.386 183.354 193.088 183.495C192.789 183.636 192.522 183.835 192.302 184.082C192.082 184.328 191.914 184.615 191.807 184.928C191.7 185.24 191.657 185.571 191.68 185.9Z" fill="#263238"/>
<path d="M192.44 179C192.8 179.3 194.57 177.62 197.33 177.28C200.09 176.94 202.28 178.07 202.54 177.69C202.67 177.52 202.27 176.96 201.31 176.43C200.011 175.751 198.534 175.489 197.08 175.68C195.646 175.857 194.305 176.483 193.25 177.47C192.48 178.27 192.27 178.91 192.44 179Z" fill="#263238"/>
<path d="M185 200.16C185 200 183.24 199.92 180.41 199.91C179.7 199.91 179.02 199.91 178.84 199.4C178.689 198.682 178.763 197.935 179.05 197.26C179.49 195.47 179.97 193.59 180.46 191.63C182.4 183.63 183.71 177.08 183.38 177.01C183.05 176.94 181.23 183.36 179.29 191.36L178 197C177.669 197.907 177.669 198.902 178 199.81C178.133 200.046 178.319 200.248 178.542 200.401C178.766 200.553 179.022 200.652 179.29 200.69C179.692 200.744 180.099 200.744 180.5 200.69C183.26 200.52 185 200.32 185 200.16Z" fill="#263238"/>
<path d="M187.16 233.06C196.596 232.024 205.558 228.389 213.05 222.56C213.05 222.56 207.69 237.42 187.44 238.05L187.16 233.06Z" fill="#EB996E"/>
<path d="M187 206.66C187.442 205.934 188.061 205.333 188.799 204.913C189.538 204.494 190.371 204.269 191.22 204.26C191.837 204.237 192.452 204.34 193.028 204.561C193.603 204.783 194.128 205.119 194.57 205.55C194.996 205.963 195.285 206.498 195.398 207.081C195.511 207.664 195.442 208.267 195.2 208.81C194.818 209.362 194.28 209.787 193.655 210.031C193.029 210.275 192.345 210.327 191.69 210.18C190.329 209.878 189.042 209.31 187.9 208.51C187.564 208.328 187.263 208.087 187.01 207.8C186.897 207.662 186.826 207.494 186.805 207.317C186.784 207.14 186.813 206.961 186.89 206.8" fill="#EB996E"/>
<path d="M193.35 201.05C192.9 201.05 193.26 204.05 190.97 206.53C188.68 209.01 185.44 209.04 185.47 209.46C185.47 209.66 186.25 209.96 187.6 209.82C189.358 209.629 190.992 208.822 192.21 207.54C193.373 206.316 194.015 204.688 194 203C194 201.71 193.55 201 193.35 201.05Z" fill="#263238"/>
<path d="M190.38 169.29C190.74 170 193.46 169.29 196.74 169.29C200.02 169.29 202.74 169.83 203.1 169.1C203.25 168.76 202.71 168.1 201.56 167.51C200.041 166.8 198.376 166.457 196.7 166.51C195.019 166.525 193.365 166.933 191.87 167.7C190.74 168.28 190.22 169 190.38 169.29Z" fill="#263238"/>
<path d="M165.27 173.2C165.83 173.77 167.65 172.88 169.93 172.57C172.21 172.26 174.21 172.46 174.57 171.75C174.73 171.4 174.34 170.81 173.42 170.33C172.196 169.763 170.831 169.572 169.498 169.78C168.165 169.989 166.924 170.587 165.93 171.5C165.2 172.25 165 172.92 165.27 173.2Z" fill="#263238"/>
<path d="M166 149.2C165.578 151.114 165.741 153.111 166.467 154.932C167.194 156.753 168.451 158.313 170.076 159.41C171.7 160.508 173.617 161.092 175.578 161.086C177.538 161.081 179.452 160.486 181.07 159.38C179.9 160.82 180.41 163.13 181.8 164.38C183.285 165.523 185.159 166.04 187.02 165.82C188.966 165.683 190.86 165.128 192.574 164.195C194.287 163.262 195.779 161.971 196.95 160.41C197.339 161.925 198.081 163.326 199.116 164.499C200.15 165.672 201.448 166.583 202.902 167.158C204.356 167.734 205.926 167.957 207.483 167.81C209.04 167.662 210.54 167.148 211.86 166.31C210.966 167.403 210.339 168.689 210.029 170.066C209.719 171.443 209.735 172.874 210.074 174.244C210.414 175.614 211.068 176.887 211.986 177.96C212.903 179.033 214.058 179.877 215.359 180.426C216.659 180.975 218.07 181.212 219.479 181.12C220.888 181.028 222.256 180.609 223.474 179.896C224.692 179.183 225.728 178.196 226.498 177.012C227.268 175.829 227.751 174.483 227.91 173.08C229.26 172.296 230.411 171.211 231.272 169.909C232.133 168.608 232.682 167.124 232.876 165.576C233.07 164.027 232.903 162.454 232.388 160.98C231.874 159.507 231.026 158.172 229.91 157.08C230.859 156.588 231.661 155.855 232.237 154.954C232.813 154.054 233.142 153.018 233.19 151.95C233.254 149.815 232.765 147.7 231.77 145.81C229.54 141.1 225.68 136.99 220.77 135.38C215.86 133.77 209.77 135.08 206.62 139.2C206.321 139.707 205.874 140.112 205.34 140.36C204.941 140.403 204.537 140.351 204.162 140.209C203.786 140.066 203.45 139.837 203.18 139.54C200.43 137.27 197.54 134.83 194.02 134.31C191.878 134.056 189.713 134.532 187.875 135.661C186.037 136.79 184.633 138.505 183.89 140.53C181 136.73 175.56 134.77 171.17 136.64C166.78 138.51 164.47 144.56 167.17 148.51" fill="#263238"/>
<path d="M218.34 176.6C219.051 180.642 220.338 184.562 222.16 188.24C222.93 189.79 224.06 191.48 225.79 191.65C226.583 191.654 227.357 191.404 227.998 190.936C228.639 190.468 229.112 189.807 229.35 189.05C229.787 187.52 229.845 185.907 229.52 184.35C228.616 178.797 227.339 173.312 225.7 167.93" fill="#263238"/>
<path d="M223.27 180.78C223.5 180.62 232.92 175.99 234.36 186.17C235.8 196.35 225.28 195.7 225.22 195.41C225.16 195.12 223.27 180.78 223.27 180.78Z" fill="#FFBE9D"/>
<path d="M227.79 191.12C227.79 191.12 227.98 191.22 228.3 191.31C228.748 191.428 229.223 191.37 229.63 191.15C230.63 190.6 231.32 188.77 231.11 186.92C231.008 186.043 230.715 185.2 230.25 184.45C230.109 184.145 229.896 183.88 229.629 183.676C229.363 183.472 229.051 183.336 228.72 183.28C228.504 183.247 228.283 183.294 228.1 183.412C227.916 183.529 227.781 183.71 227.72 183.92C227.62 184.22 227.72 184.41 227.66 184.44C227.6 184.47 227.42 184.3 227.44 183.87C227.46 183.608 227.569 183.36 227.75 183.17C228.017 182.909 228.377 182.766 228.75 182.77C229.179 182.796 229.594 182.931 229.956 183.162C230.318 183.393 230.615 183.712 230.82 184.09C231.371 184.912 231.714 185.856 231.82 186.84C232.04 188.9 231.27 190.97 229.82 191.61C229.561 191.733 229.277 191.796 228.99 191.796C228.703 191.796 228.419 191.733 228.16 191.61C227.84 191.36 227.76 191.14 227.79 191.12Z" fill="#EB996E"/>
<path d="M168.51 197.89C166.07 197.89 163.04 197.72 162.05 196.89C160.59 195.73 158.7 191 157.05 186.53C156.84 185.96 156.7 185.53 156.65 185.47L157.52 184.99C157.701 185.38 157.858 185.781 157.99 186.19C158.88 188.59 161.23 194.96 162.67 196.11C164.37 197.46 177.31 196.75 178.41 195.74C179.09 195.02 180.21 188.94 180.78 184.85L180.84 184.48L185.94 183.74L186.1 184.06C187.39 186.63 191.26 193.54 193.65 194.63C196.65 195.99 207.52 193.9 208.22 192.63C208.83 191.56 210.02 184.48 210.67 179.99L210.73 179.59L226.4 178.44L226.47 179.44L211.6 180.54C211.27 182.77 209.92 191.67 209.09 193.13C207.97 195.13 196.25 196.91 193.23 195.54C190.21 194.17 186.23 186.54 185.37 184.83L181.72 185.36C181.39 187.67 180.21 195.29 179.13 196.43C178.05 197.57 171.63 197.77 170.9 197.8C170.17 197.83 169.44 197.89 168.51 197.89Z" fill="#455A64"/>
<path d="M186.43 185.48L185.24 183.87C191.58 179.18 203.43 176.16 211.5 179.46L210.75 181.31C203.55 178.37 192.36 181.09 186.43 185.48Z" fill="#455A64"/>
<path d="M157.38 186.46L156.43 184.7C164.28 180.47 174.95 180.31 181.8 184.32L180.8 186.05C174.6 182.42 164.54 182.6 157.38 186.46Z" fill="#455A64"/>
<path d="M231.15 186.18C230.594 185.853 229.96 185.68 229.315 185.68C228.67 185.68 228.036 185.853 227.48 186.18C227.119 186.454 226.846 186.827 226.694 187.253C226.542 187.68 226.517 188.142 226.623 188.582C226.73 189.022 226.962 189.422 227.291 189.732C227.621 190.043 228.034 190.251 228.48 190.33C228.948 190.347 229.41 190.438 229.85 190.6C230.065 190.743 230.242 190.936 230.366 191.162C230.489 191.389 230.556 191.642 230.56 191.9C230.565 192.414 230.514 192.927 230.41 193.43C230.252 194.605 230.337 195.799 230.66 196.94C230.735 197.279 230.909 197.589 231.16 197.83C231.393 197.997 231.673 198.085 231.96 198.08C232.405 198.061 232.838 197.935 233.224 197.714C233.61 197.493 233.938 197.183 234.18 196.81C234.661 196.058 234.965 195.206 235.07 194.32C235.298 192.958 235.332 191.571 235.17 190.2C235.119 189.353 234.85 188.533 234.39 187.82C233.6 186.72 230.57 185.82 229.22 185.68" fill="#263238"/>
<path d="M197.21 158.3C197.116 158.354 197.015 158.394 196.91 158.42C196.7 158.49 196.39 158.58 195.98 158.68C194.798 158.985 193.581 159.133 192.36 159.12C191.485 159.114 190.614 158.993 189.77 158.76C188.684 158.488 187.675 157.968 186.823 157.241C185.971 156.515 185.3 155.6 184.86 154.57C184.319 153.334 184.255 151.941 184.68 150.66L185.04 150.9C182.869 152.873 180.12 154.093 177.2 154.38C175.608 154.545 173.998 154.419 172.45 154.01C171.634 153.796 170.855 153.459 170.14 153.01C169.396 152.545 168.794 151.884 168.4 151.1C167.98 150.181 167.771 149.18 167.79 148.17C167.792 147.209 167.865 146.25 168.01 145.3C168.121 144.362 168.37 143.445 168.75 142.58C168.925 142.14 169.195 141.744 169.541 141.421C169.887 141.098 170.3 140.855 170.75 140.71L170.92 141.17C169.259 141.901 167.4 142.056 165.64 141.61C164.039 141.237 162.576 140.419 161.42 139.25C160.389 138.211 159.693 136.888 159.42 135.45C159.153 133.972 159.278 132.45 159.784 131.035C160.289 129.621 161.157 128.364 162.3 127.39C162.77 126.968 163.307 126.63 163.89 126.39C163.89 126.44 163.31 126.69 162.41 127.48C161.142 128.628 160.252 130.134 159.86 131.8C159.576 132.96 159.549 134.168 159.78 135.34C160.055 136.698 160.727 137.944 161.71 138.92C162.815 140.008 164.2 140.769 165.71 141.12C167.379 141.537 169.14 141.382 170.71 140.68L170.88 141.14C170.493 141.266 170.138 141.477 169.842 141.757C169.547 142.037 169.317 142.38 169.17 142.76C168.814 143.578 168.582 144.444 168.48 145.33C168.25 147.14 168.02 149.13 168.83 150.83C169.223 151.508 169.758 152.093 170.399 152.546C171.039 152.998 171.77 153.306 172.54 153.45C174.03 153.841 175.578 153.963 177.11 153.81C179.927 153.549 182.585 152.389 184.69 150.5L185.37 149.88L185.06 150.74C184.664 151.916 184.714 153.198 185.2 154.34C185.636 155.387 186.323 156.311 187.2 157.03C187.971 157.658 188.863 158.121 189.82 158.39C190.64 158.63 191.487 158.765 192.34 158.79C193.541 158.821 194.742 158.717 195.92 158.48C196.77 158.39 197.21 158.27 197.21 158.3Z" fill="white"/>
<path d="M165.13 157.77C164.945 157.951 164.724 158.091 164.48 158.18C163.849 158.46 163.17 158.619 162.48 158.65C161.428 158.708 160.382 158.447 159.48 157.9C158.912 157.543 158.503 156.981 158.34 156.33C158.244 155.967 158.258 155.583 158.379 155.227C158.5 154.872 158.723 154.56 159.02 154.33L159.28 154.78L159.11 154.85C158.016 155.308 156.834 155.52 155.649 155.472C154.464 155.423 153.304 155.116 152.25 154.57C151.617 154.251 151.037 153.836 150.53 153.34C150.18 152.98 150.02 152.75 150.04 152.73C150.782 153.305 151.576 153.81 152.41 154.24C153.424 154.709 154.525 154.963 155.642 154.985C156.759 155.008 157.868 154.798 158.9 154.37L159.06 154.31L161.41 153.31L159.32 154.73C159.107 154.9 158.947 155.129 158.86 155.388C158.773 155.647 158.763 155.925 158.83 156.19C158.966 156.714 159.295 157.168 159.75 157.46C160.572 157.982 161.527 158.256 162.5 158.25C163.395 158.212 164.28 158.051 165.13 157.77Z" fill="white"/>
<path d="M176.46 179.52C176.41 179.59 175.8 179.14 174.69 178.67C173.259 178.044 171.698 177.773 170.14 177.879C168.582 177.986 167.073 178.466 165.74 179.28C164.74 179.9 164.16 180.43 164.1 180.37C164.465 179.798 164.958 179.319 165.54 178.97C166.893 178.036 168.471 177.48 170.11 177.36C171.751 177.261 173.389 177.606 174.85 178.36C175.472 178.612 176.024 179.01 176.46 179.52Z" fill="#EB996E"/>
<path d="M203.52 176.08C203.026 175.885 202.542 175.664 202.07 175.42C200.914 174.927 199.657 174.714 198.403 174.797C197.148 174.88 195.931 175.258 194.85 175.9C194.421 176.207 193.974 176.488 193.51 176.74C193.51 176.74 193.83 176.18 194.66 175.59C195.754 174.822 197.037 174.369 198.37 174.281C199.703 174.193 201.035 174.473 202.22 175.09C203.12 175.57 203.56 176 203.52 176.08Z" fill="#EB996E"/>
<path d="M195.92 201.79C195.85 201.79 195.71 201.63 195.44 201.41C195.075 201.141 194.655 200.957 194.21 200.87C193.15 200.68 192.21 200.79 192.16 200.61C192.824 200.259 193.594 200.17 194.32 200.36C194.86 200.457 195.348 200.74 195.7 201.16C196 201.49 196 201.76 195.92 201.79Z" fill="#EB996E"/>
<path d="M198 203C197.86 203 197.55 202.3 197 201.47C196.45 200.64 196 200.03 196.1 199.92C196.2 199.81 196.91 200.3 197.45 201.2C197.99 202.1 198.18 203 198 203Z" fill="#EB996E"/>
<path d="M176.82 229.27C176.871 229.406 176.908 229.547 176.93 229.69C177 230 177.09 230.42 177.21 230.95C177.45 232.09 177.8 233.71 178.21 235.8C179.14 240 180.43 246.1 182.75 253.44C185.07 260.78 188.64 269.34 195.01 277.27C196.6 279.27 198.33 281.2 200.12 283.17C200.961 284.196 201.917 285.123 202.97 285.93C204.054 286.691 205.392 287 206.7 286.79C208.036 286.521 209.296 285.962 210.39 285.15C211.524 284.319 212.591 283.399 213.58 282.4C215.67 280.45 217.65 278.34 219.58 276.17C227.35 267.42 233.17 257.59 235.93 247.81C237.272 243.195 238.005 238.425 238.11 233.62C238.203 229.433 237.949 225.245 237.35 221.1C236.44 215.095 235.195 209.146 233.62 203.28C233.08 201.22 232.62 199.61 232.37 198.48C232.24 197.95 232.13 197.54 232.05 197.23C232.012 197.089 231.982 196.945 231.96 196.8C232.022 196.936 232.072 197.076 232.11 197.22C232.2 197.52 232.32 197.93 232.47 198.46C232.79 199.57 233.24 201.18 233.81 203.23C235.469 209.086 236.775 215.037 237.72 221.05C238.341 225.213 238.615 229.421 238.54 233.63C238.455 238.474 237.732 243.285 236.39 247.94C233.63 257.81 227.78 267.72 219.97 276.51C217.97 278.7 215.97 280.82 213.9 282.78C212.889 283.795 211.799 284.728 210.64 285.57C209.483 286.426 208.152 287.017 206.74 287.3C205.299 287.516 203.83 287.157 202.65 286.3C201.564 285.474 200.577 284.524 199.71 283.47C197.93 281.47 196.19 279.53 194.6 277.53C189.059 270.363 184.908 262.223 182.36 253.53C180.596 247.706 179.13 241.794 177.97 235.82C177.57 233.73 177.25 232.09 177.03 230.95C176.93 230.41 176.86 229.95 176.8 229.68C176.795 229.543 176.801 229.406 176.82 229.27Z" fill="#263238"/>
<path d="M213.74 398.19C213.74 398.19 213.74 398.1 213.65 397.91C213.56 397.72 213.51 397.41 213.42 397.06C213.33 396.71 213.21 396.21 213.07 395.67C212.943 395.029 212.853 394.381 212.8 393.73C212.431 389.572 212.793 385.382 213.87 381.35C215.03 376.21 217.26 370.35 218.87 363.61C219.765 360.108 220.199 356.504 220.16 352.89C220.029 349.015 219.206 345.195 217.73 341.61C216.31 337.88 214.55 334.38 212.95 330.95C211.35 327.52 209.77 324.13 209.57 320.57C209.37 317.01 210.77 313.83 211.57 310.88C211.977 309.465 212.186 308.002 212.19 306.53C212.145 305.16 211.867 303.807 211.37 302.53C210.458 300.363 209.392 298.265 208.18 296.25C207.268 294.703 206.54 293.055 206.01 291.34C205.835 290.705 205.715 290.056 205.65 289.4C205.625 288.923 205.625 288.446 205.65 287.97L205.8 287.09C205.808 286.991 205.828 286.894 205.86 286.8C205.64 288.3 205.756 289.83 206.2 291.28C206.765 292.963 207.513 294.58 208.43 296.1C209.681 298.116 210.781 300.221 211.72 302.4C212.233 303.703 212.527 305.081 212.59 306.48C212.607 308.007 212.408 309.528 212 311C211.25 314 209.91 317.11 210.11 320.55C210.31 323.99 211.87 327.35 213.47 330.75C215.07 334.15 216.84 337.67 218.28 341.43C219.772 345.074 220.602 348.955 220.73 352.89C220.763 356.546 220.316 360.19 219.4 363.73C217.72 370.5 215.45 376.35 214.25 381.45C213.149 385.437 212.726 389.582 213 393.71C213.042 394.357 213.119 395.001 213.23 395.64C213.34 396.18 213.44 396.64 213.52 397.03C213.6 397.42 213.65 397.67 213.7 397.89C213.722 397.988 213.736 398.089 213.74 398.19Z" fill="#263238"/>
<path d="M203.09 285.73L202.78 286.84L205.21 289.92H206.23L208.91 286.84L208.48 285.73H203.09Z" fill="#455A64"/>
<path d="M0.380038 390.4L45.18 469.33L218.89 469.4C219.592 469.395 220.263 469.112 220.758 468.614C221.253 468.116 221.53 467.442 221.53 466.74C221.533 466.039 221.257 465.365 220.764 464.867C220.272 464.368 219.601 464.085 218.9 464.08L161.19 462.47C159.891 462.454 158.62 462.087 157.512 461.41C156.403 460.732 155.497 459.769 154.89 458.62L117.42 387.17C117.04 386.449 116.472 385.844 115.777 385.418C115.082 384.993 114.285 384.762 113.47 384.75L4.34004 383.66C3.54743 383.653 2.76697 383.855 2.07729 384.246C1.3876 384.636 0.813056 385.202 0.411529 385.885C0.0100009 386.569 -0.204323 387.346 -0.209851 388.138C-0.21538 388.931 -0.011917 389.711 0.380038 390.4Z" fill="#455A64"/>
<path d="M0.569824 387.43C0.569824 387.43 0.749825 387.43 1.08982 387.43H2.61982H8.47982L30.0398 387.62L101.18 388.43L106.36 388.5H108.92C109.812 388.496 110.691 388.708 111.483 389.117C112.276 389.526 112.957 390.121 113.47 390.85C113.96 391.6 114.28 392.34 114.69 393.08L116.99 397.47L125.76 414.2C131.34 424.86 136.36 434.47 140.58 442.54L150.58 461.67C151.73 463.92 152.64 465.67 153.26 466.88C153.55 467.47 153.78 467.88 153.95 468.24C154.12 468.6 154.16 468.72 154.16 468.72L153.9 468.27C153.72 467.95 153.48 467.5 153.17 466.93C152.52 465.73 151.59 463.99 150.4 461.76C148 457.25 144.55 450.76 140.3 442.71C136.05 434.66 131 425.1 125.34 414.45L116.54 397.73L114.23 393.35C113.84 392.63 113.48 391.83 113.05 391.18C112.585 390.519 111.968 389.98 111.25 389.61C110.53 389.237 109.73 389.045 108.92 389.05H106.35L101.18 388.99L29.9998 388L8.43982 387.65L2.56982 387.53L1.04982 387.48L0.569824 387.43Z" fill="#263238"/>
<path d="M73.1499 424.46C73.2245 425.315 73.0389 426.173 72.6175 426.921C72.1961 427.669 71.5585 428.272 70.7884 428.652C70.0183 429.031 69.1515 429.169 68.3017 429.047C67.4519 428.925 66.6587 428.55 66.0261 427.969C65.3935 427.389 64.951 426.631 64.7566 425.795C64.5622 424.958 64.6251 424.083 64.9368 423.283C65.2486 422.483 65.7947 421.796 66.5037 421.312C67.2127 420.828 68.0514 420.569 68.9099 420.57C69.9879 420.524 71.0401 420.908 71.8352 421.637C72.6303 422.367 73.1032 423.382 73.1499 424.46Z" fill="white"/>
<path d="M265.25 210.48L281.77 201.1C291.17 206.904 302.401 208.983 313.256 206.926C324.11 204.87 333.803 198.828 340.428 189.988C347.054 181.148 350.133 170.149 349.061 159.154C347.988 148.158 342.841 137.962 334.632 130.569C326.423 123.176 315.745 119.121 304.698 119.201C293.651 119.281 283.033 123.491 274.932 131.003C266.832 138.514 261.834 148.784 260.921 159.794C260.008 170.804 263.247 181.757 270 190.5L265.25 210.48Z" fill="white"/>
<path d="M265.25 210.48L269.83 190.48L269.88 190.28L270.04 190.41L269.85 190.59C267.678 187.787 265.842 184.74 264.38 181.51C262.656 177.655 261.491 173.574 260.92 169.39C260.595 167.072 260.478 164.729 260.57 162.39C260.63 161.19 260.66 159.97 260.77 158.73C260.88 157.49 261.14 156.26 261.33 155C263.515 143.877 269.855 134.004 279.06 127.39C284.15 123.707 289.971 121.159 296.13 119.92C302.639 118.645 309.348 118.823 315.78 120.44C322.52 122.097 328.767 125.341 334 129.9L336 131.71C336.66 132.3 337.21 133.01 337.83 133.65C338.45 134.29 339.06 134.93 339.57 135.65L341.16 137.77C341.692 138.47 342.176 139.205 342.61 139.97L343.97 142.21L345.11 144.56C345.514 145.326 345.868 146.118 346.17 146.93C348.637 153.223 349.662 159.989 349.17 166.73C348.735 173.11 346.902 179.317 343.8 184.91C338.21 194.962 328.969 202.481 317.99 205.91C313.327 207.281 308.48 207.929 303.62 207.83C299.401 207.712 295.221 206.985 291.21 205.67C287.878 204.569 284.687 203.082 281.7 201.24H281.83L265.25 210.51L281.71 201H281.77H281.83C284.81 202.813 287.992 204.273 291.31 205.35C295.295 206.635 299.444 207.339 303.63 207.44C308.448 207.519 313.25 206.862 317.87 205.49C328.723 202.073 337.853 194.625 343.38 184.68C346.441 179.14 348.247 172.995 348.67 166.68C349.148 160.014 348.123 153.326 345.67 147.11C345.386 146.31 345.052 145.528 344.67 144.77L343.55 142.45L342.2 140.23C341.776 139.473 341.298 138.748 340.77 138.06L339.13 136C338.62 135.28 337.97 134.68 337.4 134C336.83 133.32 336.25 132.67 335.59 132.08L333.59 130.3C328.422 125.788 322.251 122.575 315.59 120.93C309.231 119.329 302.597 119.148 296.16 120.4C290.073 121.627 284.318 124.14 279.28 127.77C270.16 134.307 263.865 144.066 261.67 155.07C261.48 156.31 261.29 157.55 261.1 158.76C260.91 159.97 260.97 161.2 260.89 162.39C260.801 164.708 260.912 167.03 261.22 169.33C262.239 177.01 265.268 184.286 270 190.42L270.6 191.21L269.82 190.61L270.02 190.54L265.25 210.48Z" fill="#263238"/>
<path d="M297.21 161.37H285.87L283.63 166.62H279.29L289.5 143.93H293.65L303.89 166.62H299.48L297.21 161.37ZM295.82 158.06L291.54 148.14L287.3 158.06H295.82Z" fill="#263238"/>
<path d="M330.36 166.09H309.64C309.242 166.09 308.861 165.932 308.579 165.651C308.298 165.369 308.14 164.988 308.14 164.59C308.14 164.192 308.298 163.81 308.579 163.529C308.861 163.248 309.242 163.09 309.64 163.09H330.36C330.758 163.09 331.139 163.248 331.421 163.529C331.702 163.81 331.86 164.192 331.86 164.59C331.86 164.988 331.702 165.369 331.421 165.651C331.139 165.932 330.758 166.09 330.36 166.09Z" fill="#263238"/>
<path d="M320 166.09C319.602 166.09 319.221 165.932 318.939 165.651C318.658 165.369 318.5 164.988 318.5 164.59V159C318.5 158.602 318.658 158.221 318.939 157.939C319.221 157.658 319.602 157.5 320 157.5C320.398 157.5 320.779 157.658 321.061 157.939C321.342 158.221 321.5 158.602 321.5 159V164.59C321.5 164.988 321.342 165.369 321.061 165.651C320.779 165.932 320.398 166.09 320 166.09Z" fill="#263238"/>
<path d="M310.16 183.92C309.815 183.918 309.481 183.797 309.215 183.578C308.948 183.359 308.766 183.054 308.697 182.716C308.629 182.378 308.68 182.026 308.841 181.721C309.002 181.416 309.263 181.175 309.58 181.04C309.72 180.98 323.46 175.11 324.65 164.42C324.672 164.223 324.733 164.032 324.829 163.859C324.925 163.685 325.055 163.533 325.21 163.409C325.365 163.286 325.543 163.194 325.733 163.139C325.924 163.084 326.123 163.068 326.32 163.09C326.517 163.112 326.708 163.173 326.881 163.269C327.055 163.365 327.208 163.494 327.331 163.649C327.455 163.805 327.546 163.982 327.601 164.173C327.656 164.363 327.672 164.563 327.65 164.76C326.26 177.2 311.39 183.54 310.76 183.81C310.57 183.888 310.366 183.926 310.16 183.92Z" fill="#263238"/>
<path d="M326.58 183.92C326.438 183.92 326.296 183.899 326.16 183.86C318.48 181.62 312.4 171.61 312.16 171.19C311.954 170.849 311.893 170.441 311.988 170.054C312.084 169.668 312.329 169.335 312.67 169.13C313.011 168.924 313.419 168.863 313.806 168.958C314.192 169.054 314.524 169.299 314.73 169.64C314.79 169.74 320.46 179.07 327.01 180.98C327.387 181.098 327.702 181.358 327.889 181.706C328.076 182.054 328.119 182.461 328.01 182.84C327.921 183.151 327.733 183.424 327.475 183.619C327.217 183.814 326.903 183.919 326.58 183.92Z" fill="#263238"/>
</g>
<defs>
<clipPath id="clip0_2792_3549">
<rect width="410" height="500" fill="white"/>
</clipPath>
</defs>
</svg>
