<svg width="464" height="500" viewBox="0 0 464 500" fill="none" xmlns="http://www.w3.org/2000/svg">
<g clip-path="url(#clip0_2792_3780)">
<path d="M450.86 277.39C436.13 316.82 406.05 359.5 363.72 372.14C299.72 391.24 292.12 442.79 177.56 438.01C160.826 437.394 144.208 434.96 128 430.75C120.088 428.659 112.316 426.07 104.73 423C37.8 395.89 2.89004 336.23 3.99649e-05 273.81C-3.81996 191.7 53.46 152.57 90.69 129.66C127.92 106.75 172.79 17.9999 285.44 21.7699C302.643 22.286 319.729 24.7825 336.36 29.2099C374.27 39.4699 412.8 62.1599 435.2 95.3299C436.88 97.8299 438.487 100.377 440.02 102.97C470 153.82 470.93 223.63 450.86 277.39Z" fill="#685BFF"/>
<path opacity="0.7" d="M450.86 277.39C436.13 316.82 406.05 359.5 363.72 372.14C299.72 391.24 292.12 442.79 177.56 438.01C160.826 437.394 144.208 434.96 128 430.75C120.088 428.659 112.316 426.07 104.73 423C37.8 395.89 2.89004 336.23 3.99649e-05 273.81C-3.81996 191.7 53.46 152.57 90.69 129.66C127.92 106.75 172.79 17.9999 285.44 21.7699C302.643 22.286 319.729 24.7825 336.36 29.2099C374.27 39.4699 412.8 62.1599 435.2 95.3299C436.88 97.8299 438.487 100.377 440.02 102.97C470 153.82 470.93 223.63 450.86 277.39Z" fill="white"/>
<path d="M329 208H323.58V234H329V208Z" fill="#263238" stroke="#263238" stroke-linecap="round" stroke-linejoin="round"/>
<path d="M143.5 181.91L139.47 188.9L181.41 261.54H189.47L143.5 181.91Z" fill="#263238" stroke="#263238" stroke-linecap="round" stroke-linejoin="round"/>
<path d="M262 277.39L257.63 280.57L296.64 308.91L280.07 359.9H288.81L305.38 308.91L262 277.39Z" fill="#263238" stroke="#263238" stroke-linecap="round" stroke-linejoin="round"/>
<path d="M92.5302 54.3799H76.9502V378H92.5302V54.3799Z" fill="#263238" stroke="#263238" stroke-linecap="round" stroke-linejoin="round"/>
<path d="M83 54.3799V378H347V54.3799H83ZM97.53 261.54L143.53 181.92L189.53 261.54H97.53ZM288.81 359.9H235.19L218.63 308.9L262 277.39L305.37 308.91L288.81 359.9ZM329 234H192V208H329V234Z" fill="white" stroke="#263238" stroke-linecap="round" stroke-linejoin="round"/>
<path d="M187 82H107V162H187V82Z" fill="#685BFF" stroke="#263238" stroke-linecap="round" stroke-linejoin="round"/>
<path d="M261 162C283.644 162 302 143.644 302 121C302 98.3563 283.644 80 261 80C238.356 80 220 98.3563 220 121C220 143.644 238.356 162 261 162Z" fill="#685BFF" stroke="#263238" stroke-linecap="round" stroke-linejoin="round"/>
<path d="M147 278.22L160.16 304.89L189.59 309.16L168.29 329.92L173.32 359.23L147 345.39L120.68 359.23L125.71 329.92L104.41 309.16L133.84 304.89L147 278.22Z" fill="#685BFF" stroke="#263238" stroke-linecap="round" stroke-linejoin="round"/>
<path d="M322 445.33H185V471.33H322V445.33Z" fill="#263238" stroke="#263238" stroke-linecap="round" stroke-linejoin="round"/>
<path d="M322 445.33H190V471.33H322V445.33Z" fill="white" stroke="#263238" stroke-linecap="round" stroke-linejoin="round"/>
<path d="M128 388.83L84.6299 420.34L101.19 471.33H154.81L133.26 388.83H128Z" fill="#263238" stroke="#263238" stroke-linecap="round" stroke-linejoin="round"/>
<path d="M133.26 388.83L89.8799 420.34L106.45 471.33H160.06L176.63 420.34L133.26 388.83Z" fill="white" stroke="#263238" stroke-linecap="round" stroke-linejoin="round"/>
<path d="M370.75 446C370.75 446 369.25 452.5 367.5 454.75C365.75 457 358.5 461.25 349.5 464.75C343.16 467.21 346.5 469.25 347.25 469.75C351.09 472.31 364.75 471 369.5 471H382.25C384 471 393.25 470 391 462C387.53 449.67 388.5 448.25 388.5 448.25L370.75 446Z" fill="white" stroke="#263238" stroke-linecap="round" stroke-linejoin="round"/>
<path d="M382.25 471C383.81 471 391.34 470.2 391.34 464.34C389.913 465.26 388.369 465.987 386.75 466.5C383.25 467.5 381.5 466.75 363 468C354 468.61 348.75 468.09 345.78 467.39C345.4 468.58 346.78 469.45 347.25 469.75C351.09 472.31 364.75 471 369.5 471H382.25Z" fill="white" stroke="#263238" stroke-linecap="round" stroke-linejoin="round"/>
<path d="M337.76 248.92C337.76 248.92 348.53 260.03 354.76 262.46C360.99 264.89 368.64 250.31 368.64 250.31L335.31 241.31L337.76 248.92Z" fill="white" stroke="#263238" stroke-linecap="round" stroke-linejoin="round"/>
<path d="M358.75 284.5C358.75 284.5 360.25 342 362.25 361.75C364.25 381.5 370.75 435.5 370.75 435.5C370.75 435.5 366.25 438 366.25 439.5C366.533 441.855 366.951 444.192 367.5 446.5C367.5 446.5 373.25 450 377.75 451C382.25 452 390.5 449.5 390.5 449.5L391.25 440L388.75 432L390.5 332L418.5 439.25C418.5 439.25 417.25 442.5 417.5 444C417.75 445.5 423.75 456.25 423.75 456.25C423.75 456.25 424.75 450.5 431.25 451.25C434.897 451.584 438.411 452.784 441.5 454.75C441.5 454.75 442.75 445.25 441.5 442.25C440.25 439.25 435 429.5 434.75 427C434.5 424.5 432.75 418.5 431.75 414C430.75 409.5 426 357 425.5 353.5C425 350 422 307.75 422 307.75L423 290.25C423 290.25 381 288 370.5 286C360 284 360.75 283.25 360.75 283.25L358.75 284.5Z" fill="#263238" stroke="#263238" stroke-linecap="round" stroke-linejoin="round"/>
<path d="M360.3 276.31C360.3 276.31 358.08 285.86 359.64 287.41C361.2 288.96 369.64 292.97 392.73 294.74C415.82 296.51 424.73 294.3 425.61 291.41C426.49 288.52 424.94 279.64 424.94 279.64C424.94 279.64 391.18 280.08 376.52 277.64C361.86 275.2 362.75 273.2 362.75 273.2L360.3 276.31Z" fill="white" stroke="#263238" stroke-linecap="round" stroke-linejoin="round"/>
<path d="M404.75 178.2C404.75 178.2 377.75 185.52 375.06 186.98C372.37 188.44 362.93 255.98 361.26 262.26C359.59 268.54 357.08 275.85 361.05 278.36C365.02 280.87 383.84 285.26 397.43 286.1C411.02 286.94 422.11 285.68 424.62 284.01C427.13 282.34 426.92 282.33 427.33 279.01C427.74 275.69 430.68 252.87 430.89 251.82C431.1 250.77 446.57 202.48 446.57 200.18C446.57 197.88 427.33 182.4 424.2 180.94C421.07 179.48 409.56 178.2 404.75 178.2Z" fill="white" stroke="#263238" stroke-linecap="round" stroke-linejoin="round"/>
<path d="M425.87 188.24C426.922 186.88 427.795 185.391 428.47 183.81C427.12 182.743 425.693 181.777 424.2 180.92C421.06 179.46 409.56 178.2 404.75 178.2L397.86 180.1C397.871 184.861 398.289 189.611 399.11 194.3C400.57 201.2 400.57 208.1 403.5 206.43C406.43 204.76 422.11 193.05 425.87 188.24Z" fill="white" stroke="#263238" stroke-linecap="round" stroke-linejoin="round"/>
<path d="M405.18 140.66C405.18 140.66 397.98 151.91 396.86 154.38C395.74 156.85 388.76 159.55 390.11 162.48C391.46 165.41 395.51 166.08 395.51 166.08C395.51 166.08 394.38 177.78 395.96 179.58C397.54 181.38 404.05 180.48 404.05 180.48C404.05 180.48 403.6 193.48 403.6 197.12C403.6 200.76 419.8 188.58 422.73 185.2C425.66 181.82 424.53 172.2 424.53 172.2C424.53 172.2 433.08 161.4 434.65 156.68C436.22 151.96 431.95 140.48 419.58 136.88C407.21 133.28 405.18 140.66 405.18 140.66Z" fill="white" stroke="#263238" stroke-linecap="round" stroke-linejoin="round"/>
<path d="M402.45 155.14C402.21 156.05 401.68 156.69 401.26 156.57C400.84 156.45 400.69 155.64 400.93 154.74C401.17 153.84 401.71 153.2 402.13 153.31C402.55 153.42 402.69 154.24 402.45 155.14Z" fill="#263238"/>
<path d="M401.8 150.78C401.8 150.78 405.63 149.88 405.85 153.71" stroke="#263238" stroke-linecap="round" stroke-linejoin="round"/>
<path d="M396.63 167.88C396.63 167.88 398.63 169.45 403.63 166.98" stroke="#263238" stroke-linecap="round" stroke-linejoin="round"/>
<path d="M404.05 180.48C404.05 180.48 410.35 180.93 413.95 177.55L404.05 192.4V180.48Z" fill="#263238" stroke="#263238" stroke-linecap="round" stroke-linejoin="round"/>
<path d="M417.78 151.68C412.481 150.557 407.537 148.154 403.38 144.68C396.86 139.05 398.21 132.08 404.5 129.6C410.79 127.12 423.4 128.7 430.83 137.48C438.26 146.26 441.17 150.53 438.25 157.72C435.33 164.91 426.55 174.37 424.08 173.92C421.61 173.47 420.7 169.2 420.93 168.07C421.16 166.94 424.3 162.9 422.05 161.07C419.8 159.24 417.78 160.62 416.43 158.37C415.08 156.12 417.78 151.68 417.78 151.68Z" fill="#263238" stroke="#263238" stroke-linecap="round" stroke-linejoin="round"/>
<path d="M418 162.25C418 162.25 423.18 155.51 425.43 159.55C427.68 163.59 424.53 167.2 422.73 168.33C420.93 169.46 416.65 168.33 416.65 168.33" fill="white"/>
<path d="M418 162.25C418 162.25 423.18 155.51 425.43 159.55C427.68 163.59 424.53 167.2 422.73 168.33C420.93 169.46 416.65 168.33 416.65 168.33" stroke="#263238" stroke-linecap="round" stroke-linejoin="round"/>
<path d="M371.84 174.95H367.88L402.11 258.41H406.06L371.84 174.95Z" fill="#685BFF" stroke="#263238" stroke-linecap="round" stroke-linejoin="round"/>
<path d="M367.88 174.95L312.72 246.32L402.11 258.41L367.88 174.95Z" fill="#685BFF" stroke="#263238" stroke-linecap="round" stroke-linejoin="round"/>
<path d="M430 213L430.75 238.75C430.75 238.75 428 236.5 428 237.5C427.875 238.527 427.623 239.535 427.25 240.5C426.048 244.669 425.212 248.936 424.75 253.25C424.25 259.25 425.5 260.5 430.25 263.5C435 266.5 444.25 271.75 447.75 271.25C451.25 270.75 454.5 268.75 454.75 261C455 253.25 451.75 247 451.75 245.5C451.75 244 453 237.5 452.75 236.25C452.5 235 450.5 231.5 450.5 230.75C450.5 230 451.75 204.25 449.25 200.5C446.75 196.75 437 193.25 437 193.25" fill="white"/>
<path d="M430 213L430.75 238.75C430.75 238.75 428 236.5 428 237.5C427.875 238.527 427.623 239.535 427.25 240.5C426.048 244.669 425.212 248.936 424.75 253.25C424.25 259.25 425.5 260.5 430.25 263.5C435 266.5 444.25 271.75 447.75 271.25C451.25 270.75 454.5 268.75 454.75 261C455 253.25 451.75 247 451.75 245.5C451.75 244 453 237.5 452.75 236.25C452.5 235 450.5 231.5 450.5 230.75C450.5 230 451.75 204.25 449.25 200.5C446.75 196.75 437 193.25 437 193.25" stroke="#263238" stroke-linecap="round" stroke-linejoin="round"/>
<path d="M399.75 226.75C399.75 226.75 389 215 387 214.5C385 214 382.25 215.5 379.75 216.75C377.25 218 377.75 219 377.75 219.75C377.789 220.504 377.873 221.256 378 222C378 222 373 227.75 373.75 228.75C374.5 229.75 376.75 228.5 376.75 228.5C376.75 228.5 373.25 232 376.5 232C378.435 232.005 380.335 231.486 382 230.5C382 230.5 380.75 232 383.5 232C385.473 231.909 387.417 231.487 389.25 230.75C389.25 230.75 392.5 233.5 394 234.5C395.5 235.5 398.25 235 398.25 235C398.25 235 423 258 426.75 259C430.5 260 434 254.75 434.25 250.25C434.5 245.75 432.75 243 428.75 241.5C424.75 240 401.75 228.5 401.75 228.5L399.75 226.75Z" fill="white" stroke="#263238" stroke-linecap="round" stroke-linejoin="round"/>
<path d="M378 222L384.5 218.25" stroke="#263238" stroke-linecap="round" stroke-linejoin="round"/>
<path d="M376.75 228.5C376.75 228.5 382.25 223.75 383 223.25C384.549 222.504 386.134 221.837 387.75 221.25" stroke="#263238" stroke-linecap="round" stroke-linejoin="round"/>
<path d="M382 230.5L387 227L390.25 226" stroke="#263238" stroke-linecap="round" stroke-linejoin="round"/>
<path d="M445.45 251C446.146 251.775 446.75 252.627 447.25 253.54" stroke="#263238" stroke-linecap="round" stroke-linejoin="round"/>
<path d="M430.5 241.25C434.729 243.023 438.72 245.318 442.38 248.08" stroke="#263238" stroke-linecap="round" stroke-linejoin="round"/>
<path d="M448 241.75C443.436 239.77 438.464 238.912 433.5 239.25" stroke="#263238" stroke-linecap="round" stroke-linejoin="round"/>
<path d="M338.55 210.58C338.35 210.161 338.042 209.803 337.657 209.542C337.272 209.282 336.824 209.129 336.36 209.1C335.2 208.97 333.95 209.1 334.36 210.39C335.06 212.67 337.36 219.12 339.73 218.17C342.1 217.22 338.56 210.58 338.56 210.58H338.55Z" fill="white" stroke="#263238" stroke-linecap="round" stroke-linejoin="round"/>
<path d="M334.58 212.67C334.377 212.253 334.068 211.896 333.684 211.636C333.299 211.377 332.853 211.223 332.39 211.19C331.23 211.06 329.97 211.19 330.39 212.48C331.09 214.76 333.39 221.21 335.76 220.27C338.13 219.33 334.6 212.67 334.6 212.67H334.58Z" fill="white" stroke="#263238" stroke-linecap="round" stroke-linejoin="round"/>
<path d="M330.68 216.51C330.444 216.184 330.13 215.922 329.767 215.748C329.403 215.573 329.003 215.491 328.6 215.51C327.6 215.51 326.55 215.76 327.09 216.81C328.03 218.67 330.99 223.91 332.82 222.87C334.65 221.83 330.68 216.55 330.68 216.55V216.51Z" fill="white" stroke="#263238" stroke-linecap="round" stroke-linejoin="round"/>
<path d="M328.09 219.78C327.901 219.51 327.647 219.291 327.352 219.143C327.057 218.994 326.73 218.921 326.4 218.93C325.58 218.93 324.73 219.13 325.17 219.99C325.93 221.5 328.34 225.77 329.84 224.92C331.34 224.07 328.09 219.78 328.09 219.78Z" fill="white" stroke="#263238" stroke-linecap="round" stroke-linejoin="round"/>
<path d="M423.75 456.25C424.195 459.731 424.362 463.242 424.25 466.75C424 471.75 426.5 474.75 433.25 476C440 477.25 447.5 473.5 447.75 469.75C448 466 440.75 453.75 440.75 453.75C440.75 453.75 425.75 442.75 423.75 456.25Z" fill="white" stroke="#263238" stroke-linecap="round" stroke-linejoin="round"/>
<path d="M447.75 469.75C447.665 468.244 447.295 466.768 446.66 465.4C446.15 468.25 443.89 474 436.5 474C431.45 474 427 471.31 424.41 469.33C425.08 472.8 427.75 474.98 433.25 476C440 477.25 447.5 473.5 447.75 469.75Z" fill="white" stroke="#263238" stroke-linecap="round" stroke-linejoin="round"/>
</g>
<defs>
<clipPath id="clip0_2792_3780">
<rect width="464" height="500" fill="white"/>
</clipPath>
</defs>
</svg>
