<svg width="363" height="500" viewBox="0 0 363 500" fill="none" xmlns="http://www.w3.org/2000/svg">
<path d="M174.27 73.0001C174.27 73.0001 108.91 76.3101 66.71 131.66C24.51 187.01 23.3499 262.66 20.7799 323.89C18.2099 385.12 54.1199 431.5 106.72 437.61C159.32 443.72 173.51 396.7 232.53 370.23C291.55 343.76 311.23 345.66 346.53 291.31C381.83 236.96 357.14 153.42 293.13 110.57C229.12 67.7201 174.27 73.0001 174.27 73.0001Z" fill="#24D6C1"/>
<path opacity="0.7" d="M174.27 73.0001C174.27 73.0001 108.91 76.3101 66.71 131.66C24.51 187.01 23.3499 262.66 20.7799 323.89C18.2099 385.12 54.1199 431.5 106.72 437.61C159.32 443.72 173.51 396.7 232.53 370.23C291.55 343.76 311.23 345.66 346.53 291.31C381.83 236.96 357.14 153.42 293.13 110.57C229.12 67.7201 174.27 73.0001 174.27 73.0001Z" fill="white"/>
<path d="M71.38 296.3C69.992 296.297 68.6617 295.744 67.6812 294.762C66.7007 293.779 66.15 292.448 66.15 291.06V232.8C66.15 231.599 65.6727 230.446 64.8232 229.597C63.9736 228.747 62.8214 228.27 61.62 228.27C60.4185 228.27 59.2663 228.747 58.4168 229.597C57.5672 230.446 57.09 231.599 57.09 232.8V276.3C57.0345 277.495 56.5209 278.622 55.6559 279.448C54.7909 280.274 53.6409 280.734 52.445 280.734C51.249 280.734 50.0991 280.274 49.2341 279.448C48.369 278.622 47.8554 277.495 47.8 276.3V252.3C47.8248 251.845 47.7568 251.39 47.5999 250.963C47.443 250.535 47.2007 250.144 46.8876 249.814C46.5746 249.483 46.1974 249.22 45.7791 249.04C45.3609 248.86 44.9103 248.767 44.455 248.767C43.9996 248.767 43.5491 248.86 43.1308 249.04C42.7126 249.22 42.3354 249.483 42.0223 249.814C41.7093 250.144 41.4669 250.535 41.3101 250.963C41.1532 251.39 41.0851 251.845 41.11 252.3V261.23H33.73V260.23H40.11V252.3C40.0818 251.712 40.1732 251.124 40.3788 250.572C40.5845 250.021 40.9 249.516 41.3062 249.09C41.7125 248.664 42.201 248.325 42.7422 248.093C43.2835 247.861 43.8662 247.741 44.455 247.741C45.0438 247.741 45.6265 247.861 46.1677 248.093C46.709 248.325 47.1975 248.664 47.6037 249.09C48.01 249.516 48.3255 250.021 48.5311 250.572C48.7367 251.124 48.8282 251.712 48.8 252.3V276.3C48.8489 277.234 49.2543 278.113 49.9325 278.757C50.6107 279.4 51.51 279.759 52.445 279.759C53.38 279.759 54.2793 279.4 54.9575 278.757C55.6357 278.113 56.0411 277.234 56.09 276.3V232.8C56.09 231.333 56.6726 229.927 57.7097 228.89C58.7468 227.853 60.1533 227.27 61.62 227.27C63.0866 227.27 64.4932 227.853 65.5303 228.89C66.5674 229.927 67.15 231.333 67.15 232.8V291.06C67.1221 291.633 67.211 292.207 67.4112 292.745C67.6115 293.283 67.9189 293.775 68.3149 294.19C68.7109 294.606 69.1872 294.937 69.715 295.163C70.2427 295.389 70.8108 295.506 71.385 295.506C71.9591 295.506 72.5273 295.389 73.055 295.163C73.5827 294.937 74.059 294.606 74.455 294.19C74.851 293.775 75.1585 293.283 75.3587 292.745C75.559 292.207 75.6478 291.633 75.62 291.06V220C75.5851 219.096 75.733 218.195 76.0547 217.35C76.3765 216.505 76.8655 215.733 77.4925 215.082C78.1194 214.43 78.8715 213.911 79.7036 213.557C80.5357 213.203 81.4307 213.021 82.335 213.021C83.2393 213.021 84.1343 213.203 84.9664 213.557C85.7985 213.911 86.5505 214.43 87.1775 215.082C87.8045 215.733 88.2935 216.505 88.6152 217.35C88.937 218.195 89.0849 219.096 89.05 220V290.75C89.05 291.951 89.5272 293.104 90.3768 293.953C91.2263 294.803 92.3785 295.28 93.58 295.28C94.7814 295.28 95.9336 294.803 96.7832 293.953C97.6327 293.104 98.11 291.951 98.11 290.75V234.36C98.11 232.657 98.7864 231.024 99.9903 229.82C101.194 228.616 102.827 227.94 104.53 227.94C106.233 227.94 107.866 228.616 109.07 229.82C110.274 231.024 110.95 232.657 110.95 234.36V276C110.95 277.045 111.365 278.047 112.104 278.786C112.843 279.525 113.845 279.94 114.89 279.94C115.935 279.94 116.937 279.525 117.676 278.786C118.415 278.047 118.83 277.045 118.83 276V253.34C118.886 252.122 119.409 250.972 120.291 250.13C121.173 249.288 122.346 248.818 123.565 248.818C124.784 248.818 125.957 249.288 126.839 250.13C127.721 250.972 128.244 252.122 128.3 253.34V260.21H135.67V261.21H127.3V253.34C127.25 252.383 126.835 251.481 126.14 250.821C125.445 250.161 124.523 249.793 123.565 249.793C122.607 249.793 121.685 250.161 120.99 250.821C120.295 251.481 119.88 252.383 119.83 253.34V276C119.83 277.31 119.31 278.567 118.383 279.493C117.457 280.419 116.2 280.94 114.89 280.94C113.58 280.94 112.323 280.419 111.397 279.493C110.47 278.567 109.95 277.31 109.95 276V234.36C109.95 232.922 109.379 231.544 108.362 230.527C107.346 229.511 105.967 228.94 104.53 228.94C103.093 228.94 101.714 229.511 100.697 230.527C99.681 231.544 99.11 232.922 99.11 234.36V290.74C99.11 292.207 98.5273 293.613 97.4903 294.65C96.4532 295.687 95.0466 296.27 93.58 296.27C92.1133 296.27 90.7067 295.687 89.6697 294.65C88.6326 293.613 88.05 292.207 88.05 290.74V220C88.0822 219.229 87.9583 218.46 87.6856 217.739C87.4129 217.017 86.9972 216.358 86.4633 215.802C85.9294 215.245 85.2885 214.802 84.579 214.499C83.8696 214.197 83.1063 214.041 82.335 214.041C81.5637 214.041 80.8004 214.197 80.0909 214.499C79.3814 214.802 78.7405 215.245 78.2067 215.802C77.6728 216.358 77.257 217.017 76.9844 217.739C76.7117 218.46 76.5877 219.229 76.62 220V291.07C76.6147 292.457 76.0606 293.786 75.0788 294.766C74.0969 295.746 72.7672 296.297 71.38 296.3Z" fill="#263238"/>
<path d="M167.88 296.3C166.492 296.297 165.162 295.744 164.181 294.762C163.201 293.779 162.65 292.448 162.65 291.06V232.8C162.65 231.599 162.173 230.446 161.323 229.597C160.474 228.747 159.321 228.27 158.12 228.27C156.919 228.27 155.766 228.747 154.917 229.597C154.067 230.446 153.59 231.599 153.59 232.8V276.3C153.535 277.495 153.021 278.622 152.156 279.448C151.291 280.274 150.141 280.734 148.945 280.734C147.749 280.734 146.599 280.274 145.734 279.448C144.869 278.622 144.355 277.495 144.3 276.3V252.3C144.325 251.845 144.257 251.39 144.1 250.963C143.943 250.535 143.701 250.144 143.388 249.814C143.075 249.483 142.697 249.22 142.279 249.04C141.861 248.86 141.41 248.767 140.955 248.767C140.5 248.767 140.049 248.86 139.631 249.04C139.213 249.22 138.835 249.483 138.522 249.814C138.209 250.144 137.967 250.535 137.81 250.963C137.653 251.39 137.585 251.845 137.61 252.3V261.23H130.23V260.23H136.61V252.3C136.582 251.712 136.673 251.124 136.879 250.572C137.084 250.021 137.4 249.516 137.806 249.09C138.212 248.664 138.701 248.325 139.242 248.093C139.783 247.861 140.366 247.741 140.955 247.741C141.544 247.741 142.126 247.861 142.668 248.093C143.209 248.325 143.698 248.664 144.104 249.09C144.51 249.516 144.825 250.021 145.031 250.572C145.237 251.124 145.328 251.712 145.3 252.3V276.3C145.349 277.234 145.754 278.113 146.432 278.757C147.111 279.4 148.01 279.759 148.945 279.759C149.88 279.759 150.779 279.4 151.457 278.757C152.136 278.113 152.541 277.234 152.59 276.3V232.8C152.59 231.333 153.173 229.927 154.21 228.89C155.247 227.853 156.653 227.27 158.12 227.27C159.587 227.27 160.993 227.853 162.03 228.89C163.067 229.927 163.65 231.333 163.65 232.8V291.06C163.622 291.633 163.711 292.207 163.911 292.745C164.111 293.283 164.419 293.775 164.815 294.19C165.211 294.606 165.687 294.937 166.215 295.163C166.743 295.389 167.311 295.506 167.885 295.506C168.459 295.506 169.027 295.389 169.555 295.163C170.083 294.937 170.559 294.606 170.955 294.19C171.351 293.775 171.658 293.283 171.859 292.745C172.059 292.207 172.148 291.633 172.12 291.06V220C172.085 219.096 172.233 218.195 172.555 217.35C172.876 216.505 173.365 215.733 173.992 215.082C174.619 214.43 175.372 213.911 176.204 213.557C177.036 213.203 177.931 213.021 178.835 213.021C179.739 213.021 180.634 213.203 181.466 213.557C182.298 213.911 183.051 214.43 183.678 215.082C184.304 215.733 184.794 216.505 185.115 217.35C185.437 218.195 185.585 219.096 185.55 220V290.75C185.55 291.951 186.027 293.104 186.877 293.953C187.726 294.803 188.879 295.28 190.08 295.28C191.281 295.28 192.434 294.803 193.283 293.953C194.133 293.104 194.61 291.951 194.61 290.75V234.36C194.61 232.657 195.286 231.024 196.49 229.82C197.694 228.616 199.327 227.94 201.03 227.94C202.733 227.94 204.366 228.616 205.57 229.82C206.774 231.024 207.45 232.657 207.45 234.36V276C207.45 277.045 207.865 278.047 208.604 278.786C209.343 279.525 210.345 279.94 211.39 279.94C212.435 279.94 213.437 279.525 214.176 278.786C214.915 278.047 215.33 277.045 215.33 276V253.34C215.33 252.085 215.828 250.882 216.715 249.995C217.602 249.108 218.806 248.61 220.06 248.61C221.314 248.61 222.518 249.108 223.405 249.995C224.292 250.882 224.79 252.085 224.79 253.34V260.21H232.17V261.21H223.79V253.34C223.79 252.351 223.397 251.402 222.697 250.702C221.998 250.003 221.049 249.61 220.06 249.61C219.071 249.61 218.122 250.003 217.422 250.702C216.723 251.402 216.33 252.351 216.33 253.34V276C216.33 277.31 215.81 278.567 214.883 279.493C213.957 280.419 212.7 280.94 211.39 280.94C210.08 280.94 208.823 280.419 207.897 279.493C206.97 278.567 206.45 277.31 206.45 276V234.36C206.45 232.922 205.879 231.544 204.863 230.527C203.846 229.511 202.467 228.94 201.03 228.94C199.593 228.94 198.214 229.511 197.197 230.527C196.181 231.544 195.61 232.922 195.61 234.36V290.74C195.61 292.207 195.027 293.613 193.99 294.65C192.953 295.687 191.547 296.27 190.08 296.27C188.613 296.27 187.207 295.687 186.17 294.65C185.133 293.613 184.55 292.207 184.55 290.74V220C184.582 219.229 184.458 218.46 184.186 217.739C183.913 217.017 183.497 216.358 182.963 215.802C182.429 215.245 181.789 214.802 181.079 214.499C180.37 214.197 179.606 214.041 178.835 214.041C178.064 214.041 177.3 214.197 176.591 214.499C175.881 214.802 175.241 215.245 174.707 215.802C174.173 216.358 173.757 217.017 173.484 217.739C173.212 218.46 173.088 219.229 173.12 220V291.07C173.115 292.457 172.561 293.786 171.579 294.766C170.597 295.746 169.267 296.297 167.88 296.3Z" fill="#263238"/>
<path d="M264.38 296.3C262.992 296.297 261.662 295.744 260.681 294.762C259.701 293.779 259.15 292.448 259.15 291.06V232.8C259.15 231.599 258.673 230.446 257.823 229.597C256.974 228.747 255.822 228.27 254.62 228.27C253.419 228.27 252.267 228.747 251.417 229.597C250.567 230.446 250.09 231.599 250.09 232.8V276.3C250.035 277.495 249.521 278.622 248.656 279.448C247.791 280.274 246.641 280.734 245.445 280.734C244.249 280.734 243.099 280.274 242.234 279.448C241.369 278.622 240.856 277.495 240.8 276.3V252.3C240.825 251.845 240.757 251.39 240.6 250.963C240.443 250.535 240.201 250.144 239.888 249.814C239.575 249.483 239.198 249.22 238.779 249.04C238.361 248.86 237.911 248.767 237.455 248.767C237 248.767 236.549 248.86 236.131 249.04C235.713 249.22 235.336 249.483 235.023 249.814C234.71 250.144 234.467 250.535 234.31 250.963C234.153 251.39 234.085 251.845 234.11 252.3V261.23H226.72V260.23H233.11V252.3C233.082 251.712 233.173 251.124 233.379 250.572C233.585 250.021 233.9 249.516 234.306 249.09C234.713 248.664 235.201 248.325 235.742 248.093C236.284 247.861 236.866 247.741 237.455 247.741C238.044 247.741 238.627 247.861 239.168 248.093C239.709 248.325 240.198 248.664 240.604 249.09C241.01 249.516 241.326 250.021 241.531 250.572C241.737 251.124 241.828 251.712 241.8 252.3V276.3C241.849 277.234 242.255 278.113 242.933 278.757C243.611 279.4 244.51 279.759 245.445 279.759C246.38 279.759 247.28 279.4 247.958 278.757C248.636 278.113 249.041 277.234 249.09 276.3V232.8C249.09 231.333 249.673 229.927 250.71 228.89C251.747 227.853 253.154 227.27 254.62 227.27C256.087 227.27 257.493 227.853 258.531 228.89C259.568 229.927 260.15 231.333 260.15 232.8V291.06C260.122 291.633 260.211 292.207 260.411 292.745C260.612 293.283 260.919 293.775 261.315 294.19C261.711 294.606 262.187 294.937 262.715 295.163C263.243 295.389 263.811 295.506 264.385 295.506C264.959 295.506 265.528 295.389 266.055 295.163C266.583 294.937 267.059 294.606 267.455 294.19C267.851 293.775 268.159 293.283 268.359 292.745C268.559 292.207 268.648 291.633 268.62 291.06V220C268.585 219.096 268.733 218.195 269.055 217.35C269.377 216.505 269.866 215.733 270.493 215.082C271.12 214.43 271.872 213.911 272.704 213.557C273.536 213.203 274.431 213.021 275.335 213.021C276.24 213.021 277.135 213.203 277.967 213.557C278.799 213.911 279.551 214.43 280.178 215.082C280.805 215.733 281.294 216.505 281.615 217.35C281.937 218.195 282.085 219.096 282.05 220V290.75C282.05 291.951 282.527 293.104 283.377 293.953C284.227 294.803 285.379 295.28 286.58 295.28C287.782 295.28 288.934 294.803 289.783 293.953C290.633 293.104 291.11 291.951 291.11 290.75V234.36C291.11 232.657 291.787 231.024 292.991 229.82C294.195 228.616 295.828 227.94 297.53 227.94C299.233 227.94 300.866 228.616 302.07 229.82C303.274 231.024 303.95 232.657 303.95 234.36V276C303.95 277.045 304.365 278.047 305.104 278.786C305.843 279.525 306.845 279.94 307.89 279.94C308.935 279.94 309.937 279.525 310.676 278.786C311.415 278.047 311.83 277.045 311.83 276V253.34C311.83 252.085 312.329 250.882 313.216 249.995C314.103 249.108 315.306 248.61 316.56 248.61C317.815 248.61 319.018 249.108 319.905 249.995C320.792 250.882 321.29 252.085 321.29 253.34V260.21H328.67V261.21H320.29V253.34C320.29 252.351 319.897 251.402 319.198 250.702C318.498 250.003 317.549 249.61 316.56 249.61C315.571 249.61 314.622 250.003 313.923 250.702C313.223 251.402 312.83 252.351 312.83 253.34V276C312.83 277.31 312.31 278.567 311.383 279.493C310.457 280.419 309.2 280.94 307.89 280.94C306.58 280.94 305.324 280.419 304.397 279.493C303.471 278.567 302.95 277.31 302.95 276V234.36C302.95 232.922 302.379 231.544 301.363 230.527C300.346 229.511 298.968 228.94 297.53 228.94C296.093 228.94 294.714 229.511 293.698 230.527C292.681 231.544 292.11 232.922 292.11 234.36V290.74C292.11 292.207 291.528 293.613 290.491 294.65C289.453 295.687 288.047 296.27 286.58 296.27C285.114 296.27 283.707 295.687 282.67 294.65C281.633 293.613 281.05 292.207 281.05 290.74V220C281.082 219.229 280.959 218.46 280.686 217.739C280.413 217.017 279.997 216.358 279.464 215.802C278.93 215.245 278.289 214.802 277.579 214.499C276.87 214.197 276.106 214.041 275.335 214.041C274.564 214.041 273.801 214.197 273.091 214.499C272.382 214.802 271.741 215.245 271.207 215.802C270.673 216.358 270.257 217.017 269.985 217.739C269.712 218.46 269.588 219.229 269.62 220V291.07C269.615 292.457 269.061 293.786 268.079 294.766C267.097 295.746 265.767 296.297 264.38 296.3Z" fill="#263238"/>
<path d="M178.21 106.59V97.3201L170.19 101.95L178.21 106.59Z" fill="#263238"/>
<path d="M168.98 97.1001H167.52V106.57H168.98V97.1001Z" fill="#263238"/>
<path d="M220.67 106.59L228.7 101.95L220.67 97.3201V106.59Z" fill="#263238"/>
<path d="M231.37 97.1001H229.91V106.57H231.37V97.1001Z" fill="#263238"/>
<path d="M199.91 88.49C197.469 88.49 195.083 89.2137 193.054 90.5697C191.025 91.9256 189.443 93.8528 188.509 96.1077C187.575 98.3625 187.331 100.844 187.807 103.237C188.283 105.631 189.458 107.83 191.184 109.556C192.91 111.281 195.109 112.457 197.502 112.933C199.896 113.409 202.377 113.165 204.632 112.231C206.887 111.297 208.814 109.715 210.17 107.686C211.526 105.656 212.25 103.271 212.25 100.83C212.25 97.5572 210.95 94.4185 208.636 92.1043C206.321 89.7901 203.183 88.49 199.91 88.49ZM198.16 107.33H194.49V94.33H198.16V107.33ZM205.33 107.33H201.66V94.33H205.33V107.33Z" fill="#263238"/>
<path d="M254.57 404.75H242.94V408.98H254.57V404.75Z" fill="#263238"/>
<path d="M254.57 398.76H242.94V402.99H254.57V398.76Z" fill="#263238"/>
<path d="M254.57 392.77H242.94V397H254.57V392.77Z" fill="#263238"/>
<path d="M254.57 386.78H242.94V391.01H254.57V386.78Z" fill="#263238"/>
<path d="M284.69 404.75H273.06V408.98H284.69V404.75Z" fill="#263238"/>
<path d="M284.69 398.76H273.06V402.99H284.69V398.76Z" fill="#263238"/>
<path d="M224.44 404.75H212.81V408.98H224.44V404.75Z" fill="#263238"/>
<path d="M224.44 398.76H212.81V402.99H224.44V398.76Z" fill="#263238"/>
<path d="M239.5 404.75H227.87V408.98H239.5V404.75Z" fill="#263238"/>
<path d="M239.5 398.76H227.87V402.99H239.5V398.76Z" fill="#263238"/>
<path d="M239.5 392.77H227.87V397H239.5V392.77Z" fill="#263238"/>
<path d="M239.5 386.78H227.87V391.01H239.5V386.78Z" fill="#263238"/>
<path d="M239.5 380.79H227.87V385.02H239.5V380.79Z" fill="#263238"/>
<path d="M239.5 374.8H227.87V379.03H239.5V374.8Z" fill="#263238"/>
<path d="M239.5 368.81H227.87V373.04H239.5V368.81Z" fill="#263238"/>
<path d="M269.63 404.75H258V408.98H269.63V404.75Z" fill="#263238"/>
<path d="M269.63 398.76H258V402.99H269.63V398.76Z" fill="#263238"/>
<path d="M269.63 392.77H258V397H269.63V392.77Z" fill="#263238"/>
<path d="M269.63 386.78H258V391.01H269.63V386.78Z" fill="#263238"/>
<path d="M269.63 380.79H258V385.02H269.63V380.79Z" fill="#263238"/>
<path d="M269.63 374.8H258V379.03H269.63V374.8Z" fill="#263238"/>
<path d="M11.29 182.3C10.8922 182.3 10.5107 182.142 10.2294 181.861C9.94807 181.579 9.79004 181.198 9.79004 180.8V167.25C9.79004 166.852 9.94807 166.471 10.2294 166.189C10.5107 165.908 10.8922 165.75 11.29 165.75C11.6879 165.75 12.0694 165.908 12.3507 166.189C12.632 166.471 12.79 166.852 12.79 167.25V180.8C12.79 181.198 12.632 181.579 12.3507 181.861C12.0694 182.142 11.6879 182.3 11.29 182.3Z" fill="#263238"/>
<path d="M6.37988 180.51C5.98206 180.51 5.60053 180.352 5.31923 180.071C5.03792 179.789 4.87988 179.408 4.87988 179.01V169C4.87988 168.602 5.03792 168.221 5.31923 167.939C5.60053 167.658 5.98206 167.5 6.37988 167.5C6.77771 167.5 7.15924 167.658 7.44054 167.939C7.72185 168.221 7.87988 168.602 7.87988 169V179C7.8812 179.198 7.84338 179.394 7.76859 179.577C7.69379 179.76 7.58352 179.927 7.4441 180.067C7.30468 180.207 7.13887 180.319 6.95623 180.395C6.77359 180.471 6.57771 180.51 6.37988 180.51Z" fill="#263238"/>
<path d="M1.47004 180.51C1.0757 180.502 0.700326 180.339 0.425199 180.057C0.150071 179.774 -0.00267275 179.394 3.54064e-05 179V169C3.54064e-05 168.602 0.15807 168.221 0.439374 167.939C0.720679 167.658 1.10221 167.5 1.50004 167.5C1.89786 167.5 2.27939 167.658 2.5607 167.939C2.842 168.221 3.00004 168.602 3.00004 169V179C3.00141 179.2 2.96263 179.399 2.88598 179.584C2.80932 179.769 2.69635 179.937 2.55373 180.078C2.41111 180.219 2.24174 180.329 2.05561 180.404C1.86948 180.478 1.67037 180.514 1.47004 180.51Z" fill="#263238"/>
<path d="M60.3701 180.51C59.9723 180.51 59.5908 180.352 59.3095 180.071C59.0282 179.789 58.8701 179.408 58.8701 179.01V169C58.8701 168.602 59.0282 168.221 59.3095 167.939C59.5908 167.658 59.9723 167.5 60.3701 167.5C60.7679 167.5 61.1495 167.658 61.4308 167.939C61.7121 168.221 61.8701 168.602 61.8701 169V179C61.8714 179.198 61.8336 179.394 61.7588 179.577C61.684 179.76 61.5737 179.927 61.4343 180.067C61.2949 180.207 61.1291 180.319 60.9465 180.395C60.7638 180.471 60.5679 180.51 60.3701 180.51Z" fill="#263238"/>
<path d="M55.47 180.51C55.0757 180.502 54.7003 180.339 54.4252 180.057C54.1501 179.774 53.9973 179.394 54 179V169C54 168.602 54.1581 168.221 54.4394 167.939C54.7207 167.658 55.1022 167.5 55.5 167.5C55.8979 167.5 56.2794 167.658 56.5607 167.939C56.842 168.221 57 168.602 57 169V179C57.0014 179.2 56.9626 179.399 56.886 179.584C56.8093 179.769 56.6963 179.937 56.5537 180.078C56.4111 180.219 56.2417 180.329 56.0556 180.404C55.8695 180.478 55.6704 180.514 55.47 180.51Z" fill="#263238"/>
<path d="M16.2002 182.3C15.8024 182.3 15.4208 182.142 15.1395 181.861C14.8582 181.579 14.7002 181.198 14.7002 180.8V167.25C14.7002 166.852 14.8582 166.471 15.1395 166.189C15.4208 165.908 15.8024 165.75 16.2002 165.75C16.598 165.75 16.9796 165.908 17.2609 166.189C17.5422 166.471 17.7002 166.852 17.7002 167.25V180.8C17.7002 181.198 17.5422 181.579 17.2609 181.861C16.9796 182.142 16.598 182.3 16.2002 182.3Z" fill="#263238"/>
<path d="M21.1099 184.68C20.712 184.68 20.3305 184.522 20.0492 184.241C19.7679 183.959 19.6099 183.578 19.6099 183.18V164.86C19.6099 164.462 19.7679 164.081 20.0492 163.799C20.3305 163.518 20.712 163.36 21.1099 163.36C21.5077 163.36 21.8892 163.518 22.1705 163.799C22.4518 164.081 22.6099 164.462 22.6099 164.86V183.18C22.6099 183.578 22.4518 183.959 22.1705 184.241C21.8892 184.522 21.5077 184.68 21.1099 184.68Z" fill="#263238"/>
<path d="M26 188.44C25.603 188.437 25.223 188.279 24.9422 187.998C24.6615 187.717 24.5026 187.337 24.5 186.94V161.11C24.5 160.712 24.658 160.331 24.9393 160.049C25.2206 159.768 25.6022 159.61 26 159.61C26.3978 159.61 26.7794 159.768 27.0607 160.049C27.342 160.331 27.5 160.712 27.5 161.11V186.94C27.5 187.338 27.342 187.719 27.0607 188.001C26.7794 188.282 26.3978 188.44 26 188.44Z" fill="#263238"/>
<path d="M50.5601 182.3C50.1622 182.3 49.7807 182.142 49.4994 181.861C49.2181 181.579 49.0601 181.198 49.0601 180.8V167.25C49.0601 166.852 49.2181 166.471 49.4994 166.189C49.7807 165.908 50.1622 165.75 50.5601 165.75C50.9579 165.75 51.3394 165.908 51.6207 166.189C51.902 166.471 52.0601 166.852 52.0601 167.25V180.8C52.0601 181.198 51.902 181.579 51.6207 181.861C51.3394 182.142 50.9579 182.3 50.5601 182.3Z" fill="#263238"/>
<path d="M45.6499 182.3C45.2521 182.3 44.8705 182.142 44.5892 181.861C44.3079 181.579 44.1499 181.198 44.1499 180.8V167.25C44.1499 166.852 44.3079 166.471 44.5892 166.189C44.8705 165.908 45.2521 165.75 45.6499 165.75C46.0477 165.75 46.4293 165.908 46.7106 166.189C46.9919 166.471 47.1499 166.852 47.1499 167.25V180.8C47.1499 181.198 46.9919 181.579 46.7106 181.861C46.4293 182.142 46.0477 182.3 45.6499 182.3Z" fill="#263238"/>
<path d="M40.7402 184.68C40.3424 184.68 39.9609 184.522 39.6796 184.241C39.3983 183.959 39.2402 183.578 39.2402 183.18V164.86C39.2402 164.462 39.3983 164.081 39.6796 163.799C39.9609 163.518 40.3424 163.36 40.7402 163.36C41.1381 163.36 41.5196 163.518 41.8009 163.799C42.0822 164.081 42.2402 164.462 42.2402 164.86V183.18C42.2402 183.578 42.0822 183.959 41.8009 184.241C41.5196 184.522 41.1381 184.68 40.7402 184.68Z" fill="#263238"/>
<path d="M35.8301 188.44C35.4323 188.44 35.0507 188.282 34.7694 188.001C34.4881 187.719 34.3301 187.338 34.3301 186.94V161.11C34.3301 160.712 34.4881 160.331 34.7694 160.049C35.0507 159.768 35.4323 159.61 35.8301 159.61C36.2279 159.61 36.6094 159.768 36.8907 160.049C37.172 160.331 37.3301 160.712 37.3301 161.11V186.94C37.3301 187.338 37.172 187.719 36.8907 188.001C36.6094 188.282 36.2279 188.44 35.8301 188.44Z" fill="#263238"/>
<path d="M30.9199 193.21C30.5221 193.21 30.1406 193.052 29.8593 192.771C29.578 192.489 29.4199 192.108 29.4199 191.71V156.33C29.4199 155.932 29.578 155.551 29.8593 155.269C30.1406 154.988 30.5221 154.83 30.9199 154.83C31.3177 154.83 31.6993 154.988 31.9806 155.269C32.2619 155.551 32.4199 155.932 32.4199 156.33V191.71C32.4199 192.108 32.2619 192.489 31.9806 192.771C31.6993 193.052 31.3177 193.21 30.9199 193.21Z" fill="#263238"/>
<path d="M330.78 169.28C330.154 166.62 328.644 164.251 326.497 162.561C324.349 160.871 321.692 159.959 318.959 159.976C316.227 159.992 313.581 160.935 311.453 162.651C309.326 164.366 307.845 166.753 307.25 169.42C304.292 169.816 301.585 171.295 299.653 173.57C297.721 175.846 296.7 178.756 296.788 181.74C296.877 184.724 298.068 187.569 300.131 189.726C302.194 191.883 304.983 193.199 307.96 193.42L308.18 191C305.775 190.772 303.544 189.649 301.927 187.855C300.311 186.06 299.427 183.723 299.451 181.308C299.475 178.892 300.405 176.574 302.056 174.811C303.708 173.049 305.961 171.971 308.37 171.79L309.37 171.72L309.51 170.72C309.828 168.415 310.969 166.303 312.722 164.775C314.476 163.246 316.724 162.404 319.05 162.404C321.377 162.404 323.625 163.246 325.378 164.775C327.132 166.303 328.273 168.415 328.59 170.72L328.75 171.9L329.94 171.77C330.299 171.726 330.659 171.703 331.02 171.7C333.58 171.703 336.033 172.722 337.841 174.534C339.649 176.345 340.663 178.801 340.66 181.36C340.658 183.919 339.638 186.373 337.827 188.181C336.015 189.989 333.56 191.003 331 191V193.44C334.204 193.411 337.265 192.11 339.51 189.824C341.755 187.538 342.999 184.454 342.97 181.25C342.941 178.046 341.64 174.985 339.354 172.74C337.068 170.496 333.984 169.251 330.78 169.28Z" fill="#263238"/>
<path d="M326.79 179.05C326.794 178.856 326.752 178.664 326.667 178.49C326.582 178.316 326.456 178.165 326.3 178.05C326.147 177.937 325.97 177.861 325.782 177.828C325.595 177.795 325.402 177.806 325.22 177.86L312.41 181.66C312.157 181.734 311.936 181.888 311.779 182.099C311.622 182.31 311.538 182.567 311.54 182.83V197.49C311.106 197.321 310.645 197.233 310.18 197.23C309.445 197.225 308.724 197.434 308.106 197.832C307.488 198.23 307 198.8 306.701 199.472C306.402 200.143 306.305 200.887 306.422 201.613C306.539 202.338 306.865 203.014 307.361 203.557C307.856 204.1 308.499 204.487 309.211 204.671C309.923 204.854 310.673 204.825 311.369 204.589C312.065 204.353 312.677 203.919 313.13 203.34C313.583 202.761 313.858 202.062 313.92 201.33H314V190.16L324.38 187.09V193.57C323.957 193.401 323.506 193.313 323.05 193.31C322.304 193.31 321.575 193.531 320.955 193.945C320.335 194.36 319.852 194.948 319.567 195.637C319.282 196.326 319.207 197.084 319.352 197.815C319.498 198.547 319.857 199.218 320.384 199.746C320.911 200.273 321.583 200.632 322.314 200.778C323.046 200.923 323.804 200.848 324.493 200.563C325.182 200.278 325.77 199.794 326.185 199.174C326.599 198.554 326.82 197.826 326.82 197.08V179.08L326.79 179.05ZM324.35 184.54L314 187.62V183.76L324.38 180.68L324.35 184.54Z" fill="#263238"/>
<path d="M66.0898 351.83C62.9253 351.83 59.8319 352.768 57.2007 354.527C54.5695 356.285 52.5188 358.784 51.3078 361.707C50.0968 364.631 49.7799 367.848 50.3973 370.952C51.0146 374.055 52.5385 376.906 54.7761 379.144C57.0138 381.381 59.8647 382.905 62.9684 383.523C66.0721 384.14 69.2892 383.823 72.2128 382.612C75.1364 381.401 77.6353 379.35 79.3934 376.719C81.1515 374.088 82.0898 370.995 82.0898 367.83C82.0898 363.587 80.4041 359.517 77.4036 356.516C74.403 353.516 70.3333 351.83 66.0898 351.83ZM66.0898 373.66C64.9427 373.66 63.8213 373.32 62.8675 372.683C61.9137 372.045 61.1703 371.139 60.7313 370.08C60.2924 369.02 60.1775 367.854 60.4013 366.729C60.6251 365.603 61.1775 364.57 61.9886 363.759C62.7998 362.948 63.8332 362.395 64.9583 362.172C66.0834 361.948 67.2496 362.063 68.3094 362.502C69.3692 362.941 70.2751 363.684 70.9124 364.638C71.5497 365.592 71.8898 366.713 71.8898 367.86C71.8898 368.622 71.7398 369.376 71.4484 370.08C71.1569 370.783 70.7297 371.423 70.1911 371.961C69.6525 372.5 69.0131 372.927 68.3094 373.219C67.6057 373.51 66.8515 373.66 66.0898 373.66Z" fill="#263238"/>
<path d="M66.0902 326.59C64.1341 326.59 62.222 327.17 60.5956 328.257C58.9692 329.344 57.7016 330.888 56.953 332.695C56.2045 334.503 56.0086 336.491 56.3902 338.41C56.7718 340.328 57.7138 342.09 59.0969 343.473C60.4801 344.857 62.2423 345.798 64.1608 346.18C66.0792 346.562 68.0678 346.366 69.8749 345.617C71.6821 344.869 73.2267 343.601 74.3134 341.975C75.4002 340.348 75.9802 338.436 75.9802 336.48C75.9815 335.181 75.7266 333.894 75.23 332.694C74.7335 331.493 74.0051 330.403 73.0864 329.484C72.1678 328.565 71.077 327.837 69.8765 327.34C68.676 326.844 67.3893 326.589 66.0902 326.59ZM66.0902 340.05C65.3813 340.052 64.6878 339.844 64.0975 339.451C63.5072 339.058 63.0468 338.499 62.7746 337.845C62.5024 337.19 62.4307 336.47 62.5685 335.774C62.7063 335.079 63.0475 334.44 63.5488 333.939C64.05 333.437 64.6889 333.096 65.3842 332.958C66.0796 332.821 66.8003 332.892 67.4548 333.165C68.1094 333.437 68.6684 333.897 69.061 334.487C69.4537 335.078 69.6622 335.771 69.6602 336.48C69.6602 336.949 69.5679 337.413 69.3884 337.846C69.209 338.279 68.9461 338.673 68.6146 339.004C68.2831 339.336 67.8895 339.599 67.4564 339.778C67.0232 339.958 66.559 340.05 66.0902 340.05Z" fill="#263238"/>
<path d="M82.7402 389.05H49.4402C48.2618 389.05 47.1314 388.583 46.2971 387.75C45.4629 386.918 44.9929 385.788 44.9902 384.61V325.46C44.9929 324.282 45.4629 323.152 46.2971 322.32C47.1314 321.487 48.2618 321.02 49.4402 321.02H82.7402C83.9178 321.02 85.0471 321.488 85.8798 322.32C86.7124 323.153 87.1802 324.282 87.1802 325.46V384.61C87.1802 385.193 87.0654 385.77 86.8423 386.309C86.6191 386.848 86.2921 387.337 85.8798 387.75C85.4675 388.162 84.978 388.489 84.4394 388.712C83.9007 388.935 83.3233 389.05 82.7402 389.05ZM49.4402 322.05C48.527 322.05 47.651 322.412 47.0042 323.057C46.3575 323.702 45.9929 324.577 45.9902 325.49V384.64C45.9929 385.553 46.3575 386.428 47.0042 387.073C47.651 387.718 48.527 388.08 49.4402 388.08H82.7402C83.6518 388.077 84.5252 387.714 85.1698 387.07C85.8143 386.425 86.1776 385.552 86.1802 384.64V325.46C86.1776 324.548 85.8143 323.675 85.1698 323.03C84.5252 322.386 83.6518 322.023 82.7402 322.02L49.4402 322.05Z" fill="#263238"/>
<path d="M154.33 151.66C154.33 150.27 156.23 148.77 156.05 147.43C155.87 146.09 153.65 145.09 153.3 143.78C152.95 142.47 154.39 140.51 153.87 139.25C153.35 137.99 150.94 137.63 150.26 136.45C149.58 135.27 150.46 133.01 149.63 131.92C148.8 130.83 146.39 131.12 145.42 130.15C144.45 129.18 144.73 126.77 143.64 125.94C142.55 125.11 140.31 126 139.12 125.31C137.93 124.62 137.59 122.23 136.32 121.7C135.05 121.17 133.12 122.63 131.79 122.27C130.46 121.91 129.52 119.69 128.14 119.51C126.76 119.33 125.3 121.24 123.91 121.24C122.52 121.24 121.02 119.34 119.68 119.51C118.34 119.68 117.35 121.92 116.04 122.27C114.73 122.62 112.76 121.18 111.5 121.7C110.24 122.22 109.88 124.63 108.7 125.31C107.52 125.99 105.26 125.1 104.18 125.94C103.1 126.78 103.37 129.18 102.4 130.15C101.43 131.12 99.0303 130.83 98.1903 131.92C97.3503 133.01 98.2503 135.26 97.5703 136.45C96.8903 137.64 94.4803 137.98 93.9603 139.25C93.4403 140.52 94.8803 142.45 94.5203 143.78C94.1603 145.11 91.9503 146.05 91.7703 147.42C91.5903 148.79 93.5003 150.27 93.5003 151.66C93.5003 153.05 91.5903 154.54 91.7703 155.89C91.9503 157.24 94.1703 158.22 94.5203 159.53C94.8703 160.84 93.4303 162.81 93.9603 164.06C94.4903 165.31 96.8803 165.68 97.5703 166.87C98.2603 168.06 97.3603 170.31 98.1903 171.39C99.0203 172.47 101.44 172.19 102.4 173.16C103.36 174.13 103.09 176.54 104.18 177.37C105.27 178.2 107.51 177.31 108.7 178C109.89 178.69 110.23 181.08 111.5 181.61C112.77 182.14 114.7 180.69 116.04 181.04C117.38 181.39 118.31 183.62 119.68 183.8C121.05 183.98 122.52 182.07 123.91 182.07C125.3 182.07 126.8 183.97 128.14 183.8C129.48 183.63 130.47 181.39 131.79 181.04C133.11 180.69 135.06 182.13 136.32 181.61C137.58 181.09 137.94 178.68 139.12 178C140.3 177.32 142.56 178.21 143.65 177.37C144.74 176.53 144.45 174.13 145.42 173.16C146.39 172.19 148.79 172.48 149.63 171.39C150.47 170.3 149.57 168.05 150.26 166.86C150.95 165.67 153.34 165.34 153.87 164.06C154.4 162.78 152.94 160.87 153.3 159.53C153.66 158.19 155.87 157.26 156.05 155.89C156.23 154.52 154.33 153.05 154.33 151.66Z" fill="#263238"/>
<path d="M119.86 184.31H119.62C118.714 184.069 117.921 183.517 117.38 182.75C116.995 182.234 116.49 181.819 115.91 181.54C115.255 181.491 114.597 181.597 113.99 181.85C113.153 182.242 112.204 182.327 111.31 182.09C110.509 181.616 109.895 180.882 109.57 180.01C109.503 179.69 109.369 179.387 109.178 179.121C108.987 178.856 108.742 178.634 108.459 178.469C108.176 178.304 107.862 178.2 107.537 178.164C107.211 178.128 106.882 178.161 106.57 178.26C105.656 178.417 104.715 178.25 103.91 177.79C103.263 177.127 102.861 176.262 102.77 175.34C102.79 175.009 102.74 174.677 102.623 174.366C102.506 174.055 102.324 173.773 102.09 173.538C101.855 173.303 101.574 173.12 101.264 173.001C100.953 172.883 100.622 172.831 100.29 172.85C99.3672 172.768 98.5012 172.369 97.8401 171.72C97.3797 170.915 97.2135 169.974 97.3701 169.06C97.4645 168.413 97.3957 167.753 97.1701 167.14C96.7555 166.643 96.2225 166.257 95.6201 166.02C95.1588 165.923 94.7279 165.715 94.3646 165.415C94.0013 165.115 93.7164 164.731 93.5344 164.296C93.3524 163.861 93.2788 163.388 93.3198 162.919C93.3609 162.449 93.5154 161.997 93.7701 161.6C93.9543 161.325 94.078 161.013 94.1329 160.687C94.1878 160.36 94.1727 160.025 94.0885 159.705C94.0044 159.384 93.8532 159.085 93.6448 158.828C93.4365 158.57 93.1758 158.359 92.8801 158.21C92.1175 157.663 91.5638 156.873 91.3101 155.97C91.3266 155.052 91.6545 154.167 92.2401 153.46C92.4919 153.236 92.6934 152.961 92.8314 152.653C92.9694 152.346 93.0408 152.012 93.0408 151.675C93.0408 151.338 92.9694 151.005 92.8314 150.697C92.6934 150.389 92.4919 150.114 92.2401 149.89C91.651 149.185 91.3226 148.299 91.3101 147.38C91.5614 146.478 92.1158 145.691 92.8801 145.15C93.3934 144.761 93.8051 144.253 94.0801 143.67C94.1401 143.017 94.0335 142.36 93.7701 141.76C93.5156 141.363 93.3613 140.909 93.3204 140.439C93.2794 139.969 93.353 139.496 93.5349 139.061C93.7167 138.625 94.0014 138.24 94.3646 137.939C94.7277 137.637 95.1585 137.429 95.6201 137.33C95.9404 137.263 96.2431 137.129 96.5087 136.938C96.7742 136.747 96.9966 136.502 97.1615 136.219C97.3265 135.936 97.4302 135.622 97.4662 135.297C97.5021 134.971 97.4693 134.642 97.3701 134.33C97.2277 133.881 97.1959 133.405 97.2774 132.941C97.3588 132.478 97.5511 132.041 97.8379 131.668C98.1247 131.294 98.4975 130.996 98.9244 130.798C99.3514 130.6 99.8199 130.508 100.29 130.53C100.936 130.453 101.554 130.22 102.09 129.85C102.46 129.314 102.693 128.696 102.77 128.05C102.746 127.579 102.836 127.109 103.033 126.681C103.231 126.253 103.529 125.879 103.903 125.592C104.277 125.305 104.715 125.112 105.18 125.032C105.644 124.952 106.121 124.985 106.57 125.13C107.217 125.214 107.875 125.146 108.49 124.93C108.985 124.509 109.369 123.973 109.61 123.37C109.71 122.911 109.92 122.483 110.221 122.122C110.523 121.761 110.907 121.479 111.34 121.298C111.774 121.117 112.245 121.044 112.714 121.085C113.182 121.125 113.634 121.278 114.03 121.53C114.306 121.714 114.618 121.837 114.945 121.891C115.272 121.945 115.607 121.929 115.928 121.844C116.249 121.759 116.547 121.607 116.805 121.398C117.062 121.188 117.272 120.927 117.42 120.63C117.965 119.868 118.756 119.317 119.66 119.07C120.577 119.08 121.464 119.405 122.17 119.99C122.69 120.397 123.301 120.672 123.95 120.79C124.6 120.674 125.212 120.4 125.73 119.99C126.048 119.643 126.446 119.378 126.888 119.218C127.331 119.058 127.806 119.007 128.272 119.07C128.739 119.132 129.183 119.307 129.568 119.579C129.952 119.851 130.265 120.211 130.48 120.63C130.868 121.147 131.376 121.562 131.96 121.84C132.612 121.889 133.267 121.782 133.87 121.53C134.267 121.278 134.718 121.125 135.186 121.085C135.655 121.044 136.126 121.117 136.56 121.298C136.994 121.479 137.377 121.761 137.679 122.122C137.98 122.483 138.19 122.911 138.29 123.37C138.357 123.69 138.491 123.993 138.682 124.259C138.874 124.524 139.119 124.747 139.401 124.912C139.684 125.076 139.998 125.18 140.324 125.216C140.649 125.252 140.978 125.219 141.29 125.12C142.204 124.974 143.141 125.14 143.95 125.59C144.599 126.256 145.002 127.124 145.09 128.05C145.168 128.693 145.402 129.307 145.77 129.84C146.305 130.213 146.923 130.45 147.57 130.53C148.04 130.508 148.509 130.6 148.936 130.798C149.363 130.996 149.735 131.294 150.022 131.668C150.309 132.041 150.501 132.478 150.583 132.941C150.664 133.405 150.632 133.881 150.49 134.33C150.391 134.642 150.358 134.971 150.394 135.297C150.43 135.622 150.534 135.936 150.699 136.219C150.864 136.502 151.086 136.747 151.351 136.938C151.617 137.129 151.92 137.263 152.24 137.33C152.702 137.429 153.132 137.637 153.496 137.939C153.859 138.24 154.143 138.625 154.325 139.061C154.507 139.496 154.581 139.969 154.54 140.439C154.499 140.909 154.344 141.363 154.09 141.76C153.832 142.362 153.726 143.018 153.78 143.67C154.058 144.251 154.469 144.758 154.98 145.15C155.399 145.363 155.761 145.674 156.034 146.057C156.307 146.44 156.483 146.884 156.546 147.35C156.61 147.816 156.56 148.29 156.401 148.733C156.241 149.175 155.977 149.572 155.63 149.89C155.378 150.114 155.177 150.389 155.039 150.697C154.901 151.005 154.829 151.338 154.829 151.675C154.829 152.012 154.901 152.346 155.039 152.653C155.177 152.961 155.378 153.236 155.63 153.46C156.216 154.166 156.54 155.053 156.55 155.97C156.296 156.873 155.743 157.663 154.98 158.21C154.468 158.597 154.056 159.101 153.78 159.68C153.724 160.336 153.83 160.995 154.09 161.6C154.345 161.997 154.499 162.449 154.54 162.919C154.581 163.388 154.508 163.861 154.326 164.296C154.144 164.731 153.859 165.115 153.495 165.415C153.132 165.715 152.701 165.923 152.24 166.02C151.638 166.257 151.105 166.643 150.69 167.14C150.464 167.753 150.396 168.413 150.49 169.06C150.633 169.508 150.665 169.984 150.584 170.447C150.502 170.911 150.31 171.347 150.023 171.72C149.736 172.092 149.363 172.39 148.935 172.587C148.508 172.784 148.04 172.874 147.57 172.85C147.239 172.831 146.909 172.882 146.599 173C146.29 173.118 146.009 173.3 145.775 173.535C145.54 173.769 145.358 174.05 145.24 174.359C145.122 174.669 145.071 174.999 145.09 175.33C145.114 175.801 145.023 176.271 144.826 176.699C144.628 177.127 144.33 177.501 143.957 177.789C143.583 178.077 143.146 178.271 142.681 178.353C142.217 178.435 141.74 178.403 141.29 178.26C140.978 178.161 140.649 178.128 140.324 178.164C139.998 178.2 139.684 178.304 139.401 178.469C139.119 178.634 138.874 178.856 138.682 179.121C138.491 179.387 138.357 179.69 138.29 180.01C138.19 180.469 137.98 180.897 137.679 181.258C137.377 181.619 136.994 181.901 136.56 182.082C136.126 182.263 135.655 182.336 135.186 182.296C134.718 182.255 134.267 182.102 133.87 181.85C133.267 181.596 132.612 181.49 131.96 181.54C131.376 181.818 130.868 182.233 130.48 182.75C130.265 183.169 129.952 183.529 129.568 183.801C129.183 184.073 128.739 184.248 128.272 184.31C127.806 184.373 127.331 184.322 126.888 184.162C126.446 184.002 126.048 183.737 125.73 183.39C125.212 182.981 124.6 182.706 123.95 182.59C123.301 182.708 122.69 182.983 122.17 183.39C121.5 183.904 120.7 184.223 119.86 184.31ZM115.57 180.48C115.773 180.482 115.974 180.509 116.17 180.56C116.961 180.863 117.654 181.378 118.17 182.05C118.7 182.63 119.25 183.23 119.79 183.3C120.468 183.228 121.111 182.961 121.64 182.53C121.945 182.225 122.306 181.983 122.704 181.819C123.102 181.654 123.529 181.569 123.96 181.569C124.391 181.569 124.818 181.654 125.216 181.819C125.614 181.983 125.975 182.225 126.28 182.53C126.809 182.961 127.452 183.228 128.13 183.3C128.67 183.23 129.22 182.63 129.76 182.05C130.258 181.381 130.934 180.865 131.71 180.56C132.547 180.436 133.402 180.547 134.18 180.88C134.806 181.165 135.501 181.259 136.18 181.15C136.68 180.94 137.05 180.22 137.42 179.53C137.53 179.116 137.721 178.727 137.982 178.387C138.244 178.047 138.57 177.763 138.942 177.55C139.314 177.337 139.724 177.2 140.15 177.146C140.575 177.093 141.007 177.125 141.42 177.24C142.098 177.351 142.793 177.261 143.42 176.98C143.86 176.445 144.129 175.79 144.19 175.1C144.291 174.264 144.62 173.472 145.14 172.81C145.801 172.288 146.593 171.959 147.43 171.86C147.784 171.915 148.147 171.874 148.48 171.741C148.814 171.608 149.105 171.388 149.324 171.104C149.542 170.82 149.681 170.482 149.724 170.126C149.767 169.77 149.714 169.409 149.57 169.08C149.455 168.242 149.569 167.389 149.9 166.61C150.416 165.936 151.108 165.417 151.9 165.11C152.6 164.75 153.32 164.37 153.52 163.87C153.638 163.191 153.544 162.493 153.25 161.87C152.922 161.091 152.812 160.237 152.93 159.4C153.237 158.608 153.756 157.916 154.43 157.4C155.01 156.87 155.61 156.31 155.68 155.77C155.607 155.093 155.335 154.453 154.9 153.93C154.377 153.258 154.049 152.456 153.95 151.61C154.045 150.764 154.374 149.96 154.9 149.29C155.336 148.763 155.607 148.12 155.68 147.44C155.61 146.9 155.01 146.35 154.43 145.81C153.754 145.296 153.234 144.603 152.93 143.81C152.812 142.973 152.922 142.119 153.25 141.34C153.545 140.717 153.639 140.019 153.52 139.34C153.32 138.84 152.6 138.46 151.9 138.1C151.106 137.797 150.413 137.277 149.9 136.6C149.57 135.825 149.456 134.975 149.57 134.14C149.717 133.811 149.772 133.449 149.73 133.091C149.688 132.733 149.55 132.394 149.33 132.108C149.111 131.822 148.819 131.601 148.485 131.468C148.15 131.334 147.786 131.294 147.43 131.35C146.593 131.251 145.801 130.923 145.14 130.4C144.62 129.738 144.291 128.946 144.19 128.11C144.129 127.42 143.86 126.765 143.42 126.23C142.793 125.95 142.098 125.859 141.42 125.97C140.585 126.096 139.732 125.981 138.96 125.64C138.291 125.139 137.772 124.465 137.46 123.69C137.09 122.99 136.72 122.27 136.22 122.06C135.541 121.951 134.846 122.045 134.22 122.33C133.442 122.663 132.587 122.774 131.75 122.65C130.974 122.345 130.298 121.829 129.8 121.16C129.26 120.58 128.71 119.98 128.17 119.91C127.489 119.977 126.843 120.249 126.32 120.69C125.701 121.298 124.868 121.639 124 121.639C123.132 121.639 122.299 121.298 121.68 120.69C121.154 120.253 120.51 119.981 119.83 119.91C119.29 119.98 118.74 120.58 118.21 121.16C117.776 121.901 117.066 122.439 116.236 122.659C115.406 122.878 114.523 122.76 113.78 122.33C113.155 122.045 112.459 121.951 111.78 122.06C111.28 122.27 110.91 122.99 110.54 123.69C110.23 124.467 109.711 125.142 109.04 125.64C108.268 125.981 107.415 126.096 106.58 125.97C106.251 125.825 105.888 125.772 105.531 125.815C105.174 125.859 104.835 125.998 104.551 126.219C104.266 126.439 104.046 126.731 103.914 127.066C103.782 127.401 103.743 127.765 103.8 128.12C103.682 128.957 103.336 129.746 102.8 130.4C102.139 130.923 101.347 131.251 100.51 131.35C99.8203 131.419 99.1662 131.691 98.6301 132.13C98.3449 132.756 98.2543 133.452 98.3701 134.13C98.484 134.965 98.3699 135.815 98.0401 136.59C97.5269 137.267 96.834 137.787 96.0401 138.09C95.3401 138.45 94.6201 138.83 94.4201 139.33C94.3062 140.009 94.4003 140.706 94.6901 141.33C95.1165 142.072 95.2328 142.953 95.0137 143.781C94.7947 144.608 94.2579 145.316 93.5201 145.75C92.9401 146.29 92.3401 146.84 92.2701 147.38C92.3392 148.059 92.607 148.703 93.0401 149.23C93.5834 149.895 93.9298 150.699 94.0401 151.55C93.9257 152.4 93.5798 153.203 93.0401 153.87C92.6057 154.393 92.3376 155.034 92.2701 155.71C92.3401 156.25 92.9401 156.81 93.5201 157.34C94.1889 157.859 94.7039 158.551 95.0101 159.34C95.1336 160.177 95.0228 161.032 94.6901 161.81C94.4056 162.436 94.3117 163.131 94.4201 163.81C94.6201 164.31 95.3401 164.69 96.0401 165.05C96.8347 165.357 97.5275 165.88 98.0401 166.56C98.3714 167.335 98.4855 168.185 98.3701 169.02C98.2259 169.349 98.1727 169.71 98.216 170.066C98.2594 170.422 98.3977 170.76 98.6165 171.044C98.8353 171.328 99.1266 171.548 99.4597 171.681C99.7929 171.814 100.156 171.855 100.51 171.8C101.347 171.899 102.139 172.228 102.8 172.75C103.338 173.406 103.684 174.199 103.8 175.04C103.745 175.394 103.786 175.757 103.919 176.09C104.052 176.424 104.272 176.715 104.556 176.934C104.84 177.152 105.178 177.291 105.534 177.334C105.89 177.377 106.252 177.324 106.58 177.18C107.414 176.954 108.304 177.067 109.054 177.497C109.804 177.926 110.353 178.636 110.58 179.47C110.94 180.16 111.32 180.88 111.81 181.09C112.489 181.199 113.185 181.105 113.81 180.82C114.378 180.625 114.97 180.511 115.57 180.48Z" fill="#263238"/>
<path d="M107.19 161.42C106.996 161.422 106.806 161.367 106.642 161.262C106.479 161.157 106.35 161.007 106.27 160.83C105.523 159.136 104.989 157.356 104.68 155.53C102.68 144.25 109.57 133.61 119.93 131.82C130.29 130.03 140.3 137.82 142.25 149.05C142.36 149.71 142.45 150.36 142.5 151.05C142.511 151.181 142.496 151.314 142.456 151.439C142.417 151.565 142.352 151.681 142.267 151.782C142.182 151.883 142.078 151.966 141.961 152.026C141.844 152.087 141.716 152.124 141.585 152.135C141.454 152.146 141.322 152.131 141.196 152.091C141.07 152.052 140.954 151.987 140.853 151.902C140.752 151.817 140.669 151.713 140.609 151.596C140.548 151.479 140.511 151.351 140.5 151.22C140.5 150.63 140.37 150.03 140.27 149.43C138.51 139.23 129.54 132.24 120.27 133.83C111 135.42 104.89 145.03 106.65 155.23C106.937 156.873 107.424 158.475 108.1 160C108.153 160.12 108.182 160.25 108.186 160.381C108.189 160.512 108.166 160.643 108.119 160.766C108.071 160.888 108 161 107.91 161.096C107.819 161.191 107.71 161.267 107.59 161.32C107.465 161.381 107.329 161.415 107.19 161.42Z" fill="white"/>
<path d="M107.19 161.92C106.899 161.921 106.613 161.837 106.368 161.679C106.124 161.521 105.93 161.296 105.81 161.03C105.051 159.299 104.503 157.482 104.18 155.62C103.197 150.159 104.3 144.527 107.27 139.84C108.643 137.61 110.474 135.698 112.643 134.231C114.812 132.764 117.268 131.775 119.849 131.33C122.429 130.886 125.075 130.996 127.61 131.652C130.144 132.309 132.51 133.498 134.55 135.14C138.925 138.567 141.849 143.515 142.74 149C142.86 149.66 142.94 150.34 143 151C143.016 151.196 142.994 151.394 142.934 151.582C142.874 151.769 142.778 151.943 142.651 152.094C142.523 152.244 142.368 152.368 142.193 152.458C142.018 152.549 141.826 152.604 141.63 152.62C141.433 152.639 141.234 152.619 141.046 152.56C140.857 152.501 140.682 152.405 140.531 152.277C140.38 152.149 140.256 151.993 140.166 151.816C140.077 151.64 140.024 151.447 140.01 151.25C140.01 150.68 139.89 150.09 139.79 149.51C138.08 139.58 129.36 132.77 120.36 134.32C111.36 135.87 105.43 145.21 107.14 155.14C107.418 156.762 107.895 158.344 108.56 159.85C108.643 160.032 108.689 160.228 108.695 160.427C108.701 160.627 108.667 160.826 108.595 161.012C108.524 161.198 108.415 161.368 108.277 161.512C108.139 161.656 107.973 161.771 107.79 161.85C107.598 161.917 107.393 161.941 107.19 161.92ZM122.94 132.06C121.961 132.064 120.985 132.147 120.02 132.31C117.579 132.747 115.258 133.692 113.206 135.084C111.154 136.476 109.418 138.284 108.11 140.39C105.272 144.862 104.222 150.239 105.17 155.45C105.476 157.234 106 158.974 106.73 160.63C106.787 160.749 106.887 160.841 107.01 160.888C107.133 160.934 107.269 160.931 107.39 160.88C107.51 160.825 107.604 160.725 107.651 160.602C107.698 160.478 107.694 160.341 107.64 160.22C106.946 158.64 106.445 156.981 106.15 155.28C104.35 144.81 110.64 134.95 120.15 133.28C129.66 131.61 138.93 138.82 140.73 149.28C140.84 149.89 140.92 150.51 140.97 151.11C140.975 151.175 140.993 151.239 141.023 151.297C141.053 151.356 141.095 151.407 141.145 151.449C141.195 151.491 141.253 151.523 141.316 151.542C141.379 151.561 141.445 151.567 141.51 151.56C141.641 151.549 141.763 151.488 141.85 151.39C141.893 151.339 141.925 151.28 141.944 151.217C141.963 151.153 141.968 151.086 141.96 151.02C141.91 150.39 141.83 149.75 141.72 149.11C140.864 143.881 138.073 139.165 133.9 135.9C130.774 133.44 126.918 132.089 122.94 132.06Z" fill="#263238"/>
<path d="M174.24 305.35C174.24 305.35 214.87 295.35 227.53 283.35C227.53 283.35 223.87 302.35 230.53 312.35C237.19 322.35 263.81 348.81 268.47 354.14C273.13 359.47 281.87 372.02 284.53 371.68C287.19 371.34 294.53 359.35 296.87 356.02C299.21 352.69 303.26 350.57 303.92 344.9C304.58 339.23 301.26 338.9 299.92 340.57C298.58 342.24 291.71 347.45 287.37 348.78C283.03 350.11 278.37 351.67 278.37 351.67C271.375 341.854 265.188 331.487 259.87 320.67C251.87 304 243.55 272.67 240.87 266.35C238.19 260.03 234.2 258.02 229.2 258.02C224.2 258.02 208.2 258.02 180.2 270.35C152.2 282.68 153.2 294.68 155.87 299.02C158.54 303.36 165.2 307.07 174.24 305.35Z" fill="#263238"/>
<path d="M284.44 372.24C282.36 372.24 278.44 367.5 272.8 360.33C271.06 358.12 269.41 356.03 268.1 354.52C266.79 353.01 263.71 349.82 259.81 345.77C249.9 335.46 234.92 319.88 230.12 312.68C224.4 304.1 226.12 289.36 226.8 284.68C213.18 296.19 175.98 305.4 174.36 305.8C165.16 307.54 158.24 303.8 155.47 299.28C154.728 297.98 154.277 296.534 154.145 295.043C154.014 293.552 154.207 292.05 154.71 290.64C156.29 285.57 161.97 277.85 180.03 269.89C208.13 257.52 224.03 257.52 229.23 257.52C235.02 257.52 238.88 260.26 241.36 266.16C242.25 268.28 243.77 273.16 245.69 279.34C249.62 292.01 255.01 309.34 260.33 320.45C265.59 331.126 271.69 341.369 278.57 351.08C279.74 350.7 283.64 349.41 287.25 348.3C291.51 347 298.32 341.81 299.56 340.3C299.904 339.842 300.388 339.509 300.938 339.35C301.488 339.192 302.075 339.216 302.61 339.42C303.32 339.71 304.94 340.86 304.45 345C303.96 349.14 301.78 351.42 299.67 353.62C298.813 354.463 298.024 355.372 297.31 356.34C296.86 356.98 296.24 357.92 295.5 359.04C291.03 365.83 286.83 371.94 284.63 372.22L284.44 372.24ZM227.53 282.9C227.614 282.899 227.697 282.919 227.77 282.96C227.863 283.01 227.938 283.089 227.985 283.184C228.031 283.279 228.047 283.386 228.03 283.49C228.03 283.68 224.47 302.41 230.95 312.12C235.7 319.25 250.64 334.79 260.53 345.12C264.43 349.18 267.53 352.38 268.85 353.91C270.17 355.44 271.85 357.53 273.59 359.75C277.27 364.42 282.87 371.48 284.47 371.28C286.4 371.04 291.96 362.6 294.64 358.54C295.38 357.41 296.01 356.46 296.46 355.82C297.207 354.809 298.029 353.856 298.92 352.97C300.92 350.89 302.98 348.74 303.43 344.97C303.71 342.56 303.25 340.86 302.19 340.42C301.856 340.304 301.493 340.297 301.155 340.401C300.817 340.506 300.521 340.716 300.31 341C298.99 342.66 292.02 348 287.52 349.38C283.24 350.7 278.52 352.25 278.52 352.27C278.416 352.285 278.31 352.268 278.216 352.219C278.123 352.171 278.047 352.094 278 352C270.989 342.153 264.786 331.756 259.45 320.91C254.09 309.75 248.69 292.36 244.75 279.67C242.84 273.52 241.33 268.67 240.46 266.57C238.12 261.02 234.66 258.57 229.25 258.57C224.08 258.57 208.36 258.57 180.45 270.86C162.74 278.66 157.21 286.11 155.69 290.99C155.23 292.262 155.05 293.618 155.162 294.966C155.275 296.314 155.676 297.622 156.34 298.8C158.93 303.01 165.45 306.52 174.18 304.87C175.1 304.64 214.9 294.73 227.24 283.04C227.319 282.963 227.421 282.914 227.53 282.9Z" fill="#263238"/>
<path d="M303.92 345C304.59 339.34 301.26 339 299.92 340.67C298.58 342.34 291.71 347.55 287.37 348.88C283.03 350.21 278.37 351.77 278.37 351.77C272.624 343.703 267.413 335.268 262.77 326.52C260.053 330.846 256.104 334.259 251.43 336.32C259.08 344.38 266.27 351.71 268.49 354.24C273.16 359.58 281.89 372.12 284.55 371.78C287.21 371.44 294.55 359.45 296.89 356.12C299.23 352.79 303.26 350.62 303.92 345Z" fill="#D9D9D9"/>
<path d="M284.44 372.24C282.36 372.24 278.44 367.5 272.8 360.33C271.06 358.12 269.41 356.03 268.1 354.52C266.79 353.01 263.7 349.81 259.8 345.75C257.15 343.01 254.14 339.87 251.05 336.62C250.993 336.562 250.951 336.491 250.928 336.413C250.904 336.335 250.9 336.253 250.916 336.173C250.932 336.093 250.967 336.018 251.018 335.955C251.069 335.892 251.135 335.842 251.21 335.81C255.793 333.788 259.666 330.441 262.33 326.2C262.381 326.128 262.449 326.07 262.527 326.03C262.605 325.99 262.692 325.97 262.78 325.97C262.867 325.976 262.951 326.004 263.025 326.051C263.098 326.098 263.158 326.163 263.2 326.24C267.779 334.855 272.902 343.168 278.54 351.13C279.71 350.75 283.61 349.46 287.22 348.35C291.48 347.05 298.29 341.86 299.53 340.35C299.874 339.892 300.358 339.559 300.908 339.4C301.458 339.242 302.045 339.266 302.58 339.47C303.29 339.76 304.91 340.91 304.42 345.05C303.93 349.19 301.75 351.47 299.64 353.67C298.783 354.513 297.993 355.422 297.28 356.39C296.83 357.03 296.21 357.97 295.47 359.09C291 365.88 286.8 371.99 284.6 372.27L284.44 372.24ZM252.26 336.44C255.18 339.51 258.01 342.44 260.52 345.06C264.43 349.13 267.52 352.34 268.85 353.87C270.18 355.4 271.85 357.49 273.59 359.71C277.27 364.38 282.87 371.44 284.47 371.24C286.4 371 291.96 362.56 294.64 358.5C295.38 357.37 296.01 356.42 296.46 355.78C297.207 354.769 298.029 353.816 298.92 352.93C300.92 350.85 302.98 348.7 303.43 344.93C303.71 342.52 303.25 340.82 302.19 340.38C301.856 340.264 301.493 340.257 301.155 340.361C300.817 340.466 300.521 340.675 300.31 340.96C298.99 342.62 292.02 347.96 287.52 349.34C283.24 350.66 278.52 352.21 278.52 352.23C278.42 352.249 278.317 352.237 278.224 352.196C278.131 352.155 278.053 352.087 278 352C272.406 344.14 267.315 335.934 262.76 327.43C260.133 331.322 256.506 334.434 252.26 336.44Z" fill="#263238"/>
<path d="M123.22 177.93C123.22 177.93 127.61 186.93 128.1 189.93C128.59 192.93 125.17 194.57 121.75 195.3C118.33 196.03 113 194 107.6 200.14C102.2 206.28 89.0001 232.85 87.0901 237C85.1801 241.15 87.0901 244.57 92.4601 243.59C97.8301 242.61 112.23 223.59 112.23 223.59C112.23 223.59 130.05 245.31 132.23 249.95C134.41 254.59 133.7 262.4 133.23 270.46C132.76 278.52 131.52 290.23 138.84 299.75C146.16 309.27 161.55 311.96 174.24 305.36C186.93 298.76 200.64 276.02 194.53 266.74C188.42 257.46 174.73 252.88 170.58 244.09C166.43 235.3 167.87 230.44 167.87 221.41C167.688 214.482 167.02 207.575 165.87 200.74C165.87 200.74 186.87 195.74 211.2 192.41C219.67 191.25 214.37 181.67 209.49 179.72C203.37 177.27 176.26 180.1 168.87 179.41C158.2 178.41 152.76 180.62 150.32 182.33C147.88 184.04 144.7 186.48 142.02 186.24C139.34 186 136.4 172.81 136.4 172.81C136.4 172.81 129.32 178.66 123.22 177.93Z" fill="#24D6C1"/>
<path d="M159.48 309.45C151.1 309.45 143.16 306.17 138.48 300.04C131.48 290.91 132.16 279.86 132.67 271.8L132.89 268.32C133.35 261.1 133.78 254.32 131.83 250.15C129.88 245.98 114.93 227.63 112.28 224.38C109.9 227.48 97.6399 243.17 92.5799 244.09C89.9099 244.57 87.8199 244.04 86.7099 242.59C85.5999 241.14 85.5999 239.05 86.7099 236.79C88.4199 233.15 101.81 206.04 107.29 199.79C111.45 195.06 115.58 195 118.89 194.95C119.837 194.971 120.785 194.905 121.72 194.75C123.25 194.42 128.2 193.11 127.72 189.95C127.25 187.13 122.92 178.21 122.88 178.12C122.836 178.044 122.813 177.958 122.813 177.87C122.813 177.782 122.836 177.696 122.88 177.62C122.933 177.546 123.004 177.488 123.086 177.451C123.169 177.414 123.26 177.4 123.35 177.41C129.17 178.1 136.08 172.41 136.15 172.41C136.216 172.356 136.295 172.32 136.379 172.306C136.463 172.292 136.55 172.3 136.63 172.33C136.712 172.355 136.786 172.402 136.844 172.465C136.902 172.528 136.942 172.606 136.96 172.69C138.36 179 140.68 185.6 142.13 185.69C144.4 185.89 147.21 183.91 149.47 182.32L150.1 181.87C152.35 180.3 157.79 177.87 168.98 178.87C171.75 179.13 177.52 178.87 183.62 178.62C194.04 178.16 205.85 177.62 209.75 179.21C213.03 180.52 216.65 185.21 216.2 188.85C216.01 190.41 215.01 192.36 211.34 192.85C189.26 195.85 169.7 200.32 166.51 201.06C167.624 207.77 168.269 214.55 168.44 221.35C168.44 223.35 168.37 225.08 168.3 226.77C168.07 232.77 167.91 237.06 171.1 243.82C173.21 248.29 177.87 251.65 182.8 255.21C187.35 258.5 192.05 261.9 195.02 266.41C196.8 269.11 197.08 273.07 195.83 277.86C193.03 288.59 183.48 301.11 174.54 305.75C169.891 308.177 164.724 309.446 159.48 309.45ZM112.23 223.08C112.304 223.078 112.378 223.093 112.446 223.124C112.514 223.155 112.573 223.202 112.62 223.26C113.35 224.15 130.5 245.09 132.7 249.73C134.76 254.08 134.32 261.03 133.86 268.38L133.64 271.86C133.13 279.77 132.44 290.6 139.24 299.44C146.49 308.87 161.77 311.27 174.01 304.91C182.58 300.46 192.1 287.98 194.79 277.66C195.97 273.15 195.73 269.47 194.12 267.01C191.25 262.65 186.62 259.31 182.12 256.07C177.12 252.43 172.33 249 170.12 244.29C166.82 237.29 167 232.66 167.23 226.78C167.29 225.1 167.36 223.36 167.36 221.4C167.175 214.502 166.507 207.625 165.36 200.82C165.339 200.695 165.366 200.566 165.437 200.46C165.508 200.354 165.616 200.279 165.74 200.25C165.95 200.2 187.04 195.2 211.12 191.9C213.57 191.57 214.91 190.51 215.12 188.76C215.51 185.6 212.18 181.33 209.29 180.17C205.59 178.69 193.38 179.22 183.57 179.65C177.17 179.92 171.64 180.16 168.8 179.9C157.92 178.9 152.72 181.23 150.58 182.73L149.96 183.17C147.57 184.86 144.6 186.97 141.96 186.72C139.32 186.47 136.86 177.03 136.08 173.72C134.29 175.07 129.08 178.72 124.03 178.53C125.12 180.8 128.17 187.36 128.58 189.85C129.04 192.56 126.52 194.79 121.85 195.79C120.859 195.958 119.855 196.031 118.85 196.01C115.73 196.06 111.85 196.11 107.98 200.51C102.57 206.66 89.2599 233.63 87.5499 237.26C86.6499 239.17 86.6299 240.9 87.4799 242.02C88.3299 243.14 90.0999 243.56 92.3799 243.14C96.4799 242.4 106.9 229.85 111.84 223.31C111.887 223.252 111.946 223.204 112.014 223.171C112.081 223.139 112.155 223.121 112.23 223.12V223.08Z" fill="#263238"/>
<path d="M180.36 179.28L178.36 179.36C178.088 185.589 179.605 191.765 182.73 197.16L184.83 196.76C181.644 191.504 180.089 185.421 180.36 179.28Z" fill="#263238"/>
<path d="M169.05 240.28C168.83 239.63 168.64 238.99 168.48 238.37C153.35 241.73 140.55 251.53 133.72 257.66C133.72 258.52 133.72 259.42 133.72 260.34C140 254.52 153.25 243.74 169.05 240.28Z" fill="#263238"/>
<path d="M130.39 246.93C130.83 247.58 131.22 248.16 131.53 248.67C136.04 244.22 147.53 234.67 167.66 228.9C167.66 228.21 167.71 227.49 167.74 226.76C147 232.54 135.29 242.11 130.39 246.93Z" fill="#263238"/>
<path d="M115.52 213.6C119.11 213.21 136.23 210.6 161.11 194.6C162.28 196.905 163.579 199.142 165 201.3C165.093 201.434 165.217 201.543 165.362 201.618C165.507 201.693 165.667 201.731 165.83 201.73H165.99L165.83 200.73L166.83 200.51C166.802 200.388 166.751 200.273 166.68 200.17C166.6 200.05 159.02 188.86 158.26 179.53C157.55 179.64 156.89 179.76 156.26 179.9C156.447 181.771 156.812 183.619 157.35 185.42C144.888 194.585 130.302 200.435 114.96 202.42C114.553 200.295 113.968 198.207 113.21 196.18C112.569 196.402 111.947 196.676 111.35 197C111.989 198.753 112.494 200.551 112.86 202.38C111.68 201.015 110.293 199.845 108.75 198.91C108.332 199.285 107.938 199.686 107.57 200.11L107.33 200.39C110.11 202.05 112.8 204.54 113.58 208.17C113.667 210.132 113.606 212.097 113.4 214.05C111.392 210.091 107.92 207.07 103.72 205.63C103.38 206.18 103.03 206.76 102.67 207.36C105.093 208.074 107.288 209.405 109.042 211.223C110.795 213.041 112.045 215.283 112.67 217.73C112.685 217.809 112.716 217.883 112.76 217.95C112.53 219.03 112.24 220.12 111.9 221.24C108.934 217.017 104.516 214.033 99.4902 212.86L98.4902 214.67C101.113 215.178 103.597 216.244 105.771 217.797C107.945 219.35 109.759 221.353 111.09 223.67C110.8 224.49 110.53 225.28 110.26 226.06C111.45 224.55 112.18 223.59 112.18 223.59L112.92 224.49L113.12 223.93C114.365 220.605 115.172 217.133 115.52 213.6ZM158 187.42C158.64 189.234 159.375 191.013 160.2 192.75C136.54 208.05 119.68 211.04 115.63 211.56C115.63 210.61 115.63 209.69 115.63 208.8C115.656 208.671 115.656 208.539 115.63 208.41V208.25C115.57 206.9 115.45 205.63 115.28 204.43C130.713 202.4 145.396 196.554 158 187.42Z" fill="#263238"/>
<path d="M174.22 249.05C173.694 248.51 173.194 247.96 172.72 247.4C155.32 252.4 141.58 262.25 133.29 269.49L133.23 270.49C133.19 271.09 133.15 271.71 133.11 272.35C141.16 265 155.6 254.1 174.22 249.05Z" fill="#263238"/>
<path d="M167.83 219.29C167.83 218.63 167.83 217.97 167.75 217.29C142.09 218.65 129.43 231.79 124.43 238.88L125.7 240.53C130.15 234 142.25 220.66 167.83 219.29Z" fill="#263238"/>
<path d="M193.7 178.76L191.63 178.83C190.837 184.344 191.471 189.97 193.47 195.17L195.47 194.82C193.481 189.715 192.871 184.176 193.7 178.76Z" fill="#263238"/>
<path d="M166.25 179.22C167.206 186.213 169.386 192.983 172.69 199.22L174.75 198.78C171.476 192.741 169.299 186.169 168.32 179.37C167.61 179.3 166.92 179.25 166.25 179.22Z" fill="#263238"/>
<path d="M167 208.4C166.91 207.71 166.83 207.04 166.75 206.4C137.68 209.9 123.1 222.23 116.95 229.34C117.38 229.87 117.81 230.42 118.27 230.98C124 224.27 138.36 211.89 167 208.4Z" fill="#263238"/>
<path d="M174.24 305.35C184.74 299.9 195.93 283.35 196.02 272.59C196.009 270.702 195.484 268.852 194.5 267.24C193.68 265.97 192.77 264.67 191.81 263.35C188.48 259.83 184.15 256.95 180.19 254.03C158.13 262.34 140.46 279.03 133.24 285.56C133.809 290.702 135.742 295.597 138.84 299.74C146.17 309.26 161.55 312 174.24 305.35Z" fill="#263238"/>
<path d="M159.48 309.45C151.1 309.45 143.16 306.17 138.48 300.04C135.314 295.839 133.341 290.86 132.77 285.63C132.759 285.548 132.769 285.465 132.799 285.388C132.828 285.311 132.877 285.243 132.94 285.19L134.29 283.97C142.37 276.65 159.17 261.43 180.05 253.57C180.127 253.538 180.211 253.526 180.293 253.536C180.376 253.547 180.454 253.579 180.52 253.63C181.25 254.17 181.99 254.7 182.74 255.24C186.124 257.537 189.293 260.134 192.21 263C193.31 264.52 194.21 265.8 194.95 267C195.984 268.69 196.537 270.629 196.55 272.61C196.46 283.46 185.33 300.22 174.55 305.84C169.89 308.237 164.72 309.476 159.48 309.45ZM133.77 285.75C134.344 290.719 136.232 295.444 139.24 299.44C146.49 308.87 161.77 311.27 174.01 304.91C184.57 299.42 195.43 283.11 195.52 272.59C195.512 270.797 195.014 269.041 194.08 267.51C193.33 266.36 192.46 265.09 191.41 263.64C188.547 260.837 185.438 258.297 182.12 256.05L180.12 254.6C159.55 262.42 142.94 277.46 134.94 284.71L133.77 285.75Z" fill="#263238"/>
<path d="M108.46 157.74C108.03 157.758 107.605 157.843 107.2 157.99C103.89 159.15 102.59 163.99 104.29 168.84C105.99 173.69 110.06 176.65 113.36 175.48C114.053 175.234 114.674 174.822 115.17 174.28L108.46 157.74Z" fill="white"/>
<path d="M111.86 176.24C110.433 176.196 109.056 175.698 107.93 174.82C106.046 173.304 104.622 171.293 103.818 169.012C103.015 166.732 102.863 164.272 103.38 161.91C103.574 160.931 104.01 160.016 104.647 159.247C105.285 158.479 106.104 157.882 107.03 157.51C107.485 157.354 107.96 157.263 108.44 157.24C108.542 157.236 108.643 157.264 108.729 157.32C108.815 157.375 108.881 157.456 108.92 157.55L115.64 174.09C115.675 174.179 115.684 174.276 115.666 174.369C115.648 174.463 115.605 174.55 115.54 174.62C114.989 175.218 114.303 175.678 113.54 175.96C112.999 176.144 112.432 176.238 111.86 176.24ZM108.14 158.24C107.874 158.277 107.613 158.341 107.36 158.43C106.59 158.749 105.913 159.256 105.389 159.904C104.865 160.552 104.511 161.321 104.36 162.14C103.889 164.308 104.029 166.565 104.763 168.658C105.498 170.752 106.798 172.601 108.52 174C109.157 174.54 109.918 174.914 110.734 175.088C111.551 175.263 112.398 175.232 113.2 175C113.715 174.818 114.185 174.528 114.58 174.15L108.14 158.24Z" fill="#263238"/>
<path d="M108.46 157.74C108.03 157.758 107.605 157.843 107.2 157.99C106.825 158.123 106.469 158.305 106.14 158.53L113.14 175.53C113.208 175.516 113.275 175.496 113.34 175.47C114.033 175.224 114.654 174.812 115.15 174.27L108.46 157.74Z" fill="white"/>
<path d="M113.22 176C113.115 176.007 113.01 175.983 112.918 175.931C112.825 175.88 112.75 175.803 112.7 175.71L105.7 158.71C105.657 158.604 105.652 158.487 105.685 158.378C105.717 158.269 105.786 158.175 105.88 158.11C106.244 157.86 106.637 157.655 107.05 157.5C107.505 157.344 107.98 157.253 108.46 157.23C108.562 157.226 108.663 157.254 108.749 157.31C108.835 157.365 108.902 157.446 108.94 157.54L115.66 174.08C115.695 174.169 115.704 174.266 115.686 174.359C115.668 174.453 115.625 174.54 115.56 174.61C115.009 175.208 114.323 175.668 113.56 175.95H113.39L113.22 176ZM106.77 158.71L113.44 174.89C113.86 174.707 114.246 174.453 114.58 174.14L108.14 158.25C107.875 158.287 107.613 158.351 107.36 158.44C107.155 158.518 106.957 158.615 106.77 158.73V158.71Z" fill="#263238"/>
<path d="M138.59 147.69C138.939 147.436 139.323 147.233 139.73 147.09C143.03 145.93 147.09 148.9 148.8 153.73C150.51 158.56 149.21 163.42 145.91 164.59C145.213 164.826 144.469 164.895 143.74 164.79L138.59 147.69Z" fill="white"/>
<path d="M144.44 165.33C144.186 165.333 143.932 165.317 143.68 165.28C143.584 165.268 143.494 165.228 143.419 165.166C143.345 165.104 143.29 165.022 143.26 164.93L138.11 147.84C138.081 147.741 138.083 147.635 138.115 147.537C138.147 147.439 138.208 147.353 138.29 147.29C138.679 147.007 139.107 146.781 139.56 146.62C143.12 145.37 147.48 148.48 149.27 153.56C150.121 155.83 150.278 158.301 149.72 160.66C149.526 161.639 149.09 162.554 148.453 163.323C147.816 164.091 146.997 164.688 146.07 165.06C145.546 165.241 144.995 165.332 144.44 165.33ZM144.13 164.33C144.675 164.371 145.222 164.303 145.74 164.13C146.511 163.81 147.189 163.301 147.713 162.652C148.237 162.002 148.59 161.231 148.74 160.41C149.247 158.246 149.101 155.981 148.32 153.9C146.71 149.34 142.92 146.5 139.88 147.57C139.629 147.662 139.388 147.78 139.16 147.92L144.13 164.33Z" fill="#263238"/>
<path d="M144.44 165.33C144.186 165.333 143.932 165.317 143.68 165.28C143.584 165.268 143.494 165.228 143.419 165.166C143.345 165.104 143.29 165.022 143.26 164.93L138.11 147.84C138.081 147.741 138.083 147.635 138.115 147.537C138.147 147.439 138.208 147.353 138.29 147.29C138.679 147.007 139.107 146.781 139.56 146.62C139.976 146.475 140.41 146.387 140.85 146.36C140.965 146.351 141.08 146.382 141.174 146.447C141.269 146.513 141.338 146.609 141.37 146.72L146.58 164.36C146.616 164.478 146.607 164.606 146.553 164.717C146.499 164.828 146.405 164.915 146.29 164.96L146.07 165.06C145.546 165.241 144.995 165.332 144.44 165.33ZM144.13 164.33C144.588 164.368 145.048 164.324 145.49 164.2L140.49 147.41C140.006 147.484 139.543 147.658 139.13 147.92L144.13 164.33Z" fill="#263238"/>
<path d="M147.21 184.44C145.48 185.52 143.66 186.38 142.02 186.23C139.33 185.98 136.4 172.8 136.4 172.8C136.4 172.8 129.32 178.66 123.22 177.93C123.22 177.93 127.61 186.93 128.1 189.93C128.5 192.3 126.33 193.87 123.68 194.77C124.95 198.51 129.09 207.07 139.87 204.44C149.3 202.1 148.57 191.06 147.21 184.44Z" fill="#D9D9D9"/>
<path d="M136 205.4C127.79 205.4 124.39 198.29 123.24 194.89C123.213 194.83 123.199 194.766 123.199 194.7C123.199 194.635 123.213 194.57 123.24 194.51C123.269 194.451 123.309 194.398 123.359 194.355C123.409 194.312 123.467 194.28 123.53 194.26C125.23 193.68 128.02 192.36 127.62 189.97C127.15 187.15 122.82 178.23 122.78 178.14C122.736 178.064 122.713 177.978 122.713 177.89C122.713 177.802 122.736 177.716 122.78 177.64C122.833 177.567 122.904 177.508 122.987 177.471C123.07 177.434 123.16 177.42 123.25 177.43C129.07 178.12 135.98 172.43 136.05 172.43C136.116 172.376 136.196 172.34 136.28 172.326C136.364 172.312 136.45 172.32 136.53 172.35C136.613 172.375 136.687 172.422 136.745 172.485C136.803 172.548 136.843 172.626 136.86 172.71C138.26 179.02 140.58 185.62 142.03 185.71C143.3 185.82 144.86 185.28 146.92 184C146.988 183.956 147.065 183.929 147.146 183.922C147.226 183.915 147.307 183.928 147.381 183.959C147.455 183.991 147.52 184.04 147.571 184.103C147.621 184.166 147.656 184.241 147.67 184.32C149.03 190.96 149.85 202.45 139.96 204.87C138.666 205.2 137.337 205.378 136 205.4ZM124.32 195C125.73 198.84 129.82 206.31 139.75 203.88C148.5 201.75 148.06 191.57 146.86 185.21C145.413 186.178 143.711 186.693 141.97 186.69C139.32 186.45 136.87 177 136.09 173.69C134.3 175.04 129.09 178.69 124.04 178.5C125.13 180.77 128.18 187.33 128.59 189.82C129 192 127.45 193.85 124.32 195Z" fill="#263238"/>
<path d="M138.52 180.38C137.94 178.67 137.43 176.89 137.06 175.48C136.75 174.67 136.46 173.82 136.18 172.97C135 173.9 128.72 178.59 123.18 177.97C123.18 177.97 124.66 180.97 126 184.15C128.36 184.85 131.68 185.39 134.29 184.04C135.934 183.119 137.373 181.874 138.52 180.38Z" fill="#263238"/>
<path d="M130.53 185.33C128.959 185.307 127.4 185.057 125.9 184.59C125.829 184.57 125.764 184.534 125.709 184.486C125.654 184.437 125.61 184.377 125.58 184.31C124.26 181.23 122.78 178.17 122.77 178.14C122.726 178.064 122.703 177.978 122.703 177.89C122.703 177.802 122.726 177.716 122.77 177.64C122.823 177.567 122.894 177.508 122.977 177.471C123.059 177.434 123.15 177.42 123.24 177.43C128.54 178.07 134.66 173.5 135.84 172.58C135.903 172.531 135.976 172.497 136.054 172.482C136.133 172.466 136.213 172.469 136.29 172.49C136.368 172.514 136.438 172.557 136.496 172.614C136.553 172.672 136.596 172.742 136.62 172.82C136.91 173.72 137.2 174.56 137.49 175.3C137.97 177.13 138.49 178.81 138.95 180.21C138.98 180.29 138.988 180.376 138.974 180.461C138.96 180.545 138.924 180.624 138.87 180.69C137.691 182.223 136.21 183.499 134.52 184.44C133.28 185.05 131.912 185.355 130.53 185.33ZM126.41 183.7C128.65 184.34 131.72 184.79 134.1 183.56C135.59 182.727 136.902 181.61 137.96 180.27C137.38 178.55 136.89 176.8 136.58 175.61C136.37 175.07 136.15 174.46 135.93 173.79C134.02 175.2 128.93 178.63 124.04 178.49C124.55 179.56 125.51 181.61 126.41 183.7Z" fill="#263238"/>
<path d="M109.06 154.49C109.06 154.49 112.48 169.14 114.92 173.04C117.36 176.94 126.15 181.59 130.3 182.04C134.45 182.49 137.38 177.4 139.82 173.25C142.26 169.1 142.99 165.68 142.02 160.31C140.596 153.877 138.379 147.646 135.42 141.76C133.84 138.76 126.42 135.65 119.56 137.36C112.7 139.07 107.84 146.68 109.06 154.49Z" fill="#D9D9D9"/>
<path d="M130.85 182.61C130.647 182.625 130.443 182.625 130.24 182.61C125.75 182.08 116.98 177.32 114.5 173.35C112.02 169.38 108.71 155.25 108.57 154.64C107.33 146.71 112.2 138.8 119.44 136.99C126.68 135.18 134.23 138.52 135.87 141.63C138.847 147.565 141.078 153.846 142.51 160.33C143.51 165.59 142.85 169.19 140.25 173.61L140.11 173.84C137.79 177.73 134.92 182.61 130.85 182.61ZM109.55 154.4C109.69 154.98 113.01 169.05 115.34 172.78C117.67 176.51 126.12 181.08 130.34 181.58C134.08 182.03 136.94 177.17 139.23 173.26L139.37 173.03C141.86 168.79 142.42 165.49 141.5 160.44C140.109 154.047 137.925 147.853 135 142C133.54 139.23 126.32 136.2 119.7 137.86C113.08 139.52 108.4 147 109.55 154.4Z" fill="#263238"/>
<path d="M124.44 163.29H124.35C124.286 163.279 124.225 163.256 124.171 163.221C124.116 163.187 124.068 163.141 124.031 163.088C123.994 163.035 123.968 162.976 123.954 162.912C123.94 162.849 123.939 162.784 123.95 162.72C124.024 162.311 124.183 161.923 124.415 161.578C124.648 161.234 124.949 160.942 125.3 160.72C125.867 160.431 126.489 160.268 127.124 160.242C127.759 160.217 128.392 160.328 128.98 160.57C129.113 160.61 129.224 160.701 129.29 160.823C129.355 160.944 129.37 161.087 129.33 161.22C129.29 161.353 129.2 161.464 129.078 161.53C128.956 161.595 128.813 161.61 128.68 161.57C128.232 161.369 127.746 161.266 127.255 161.266C126.764 161.266 126.278 161.369 125.83 161.57C125.375 161.863 125.052 162.322 124.93 162.85C124.918 162.971 124.861 163.083 124.77 163.165C124.68 163.246 124.562 163.291 124.44 163.29Z" fill="#263238"/>
<path d="M125.93 169.1C124.478 169.093 123.048 168.751 121.75 168.1C121.693 168.067 121.643 168.023 121.603 167.971C121.563 167.919 121.533 167.859 121.516 167.796C121.499 167.732 121.494 167.666 121.503 167.601C121.511 167.535 121.532 167.472 121.565 167.415C121.598 167.358 121.642 167.308 121.694 167.268C121.746 167.227 121.806 167.198 121.869 167.181C121.933 167.164 121.999 167.159 122.065 167.168C122.13 167.176 122.193 167.197 122.25 167.23C122.51 167.38 128.73 170.78 133.25 163.23C133.285 163.174 133.33 163.126 133.384 163.087C133.437 163.049 133.498 163.022 133.562 163.007C133.626 162.992 133.693 162.99 133.757 163.001C133.822 163.012 133.884 163.035 133.94 163.07C133.996 163.104 134.044 163.148 134.082 163.201C134.12 163.254 134.148 163.313 134.163 163.377C134.178 163.44 134.18 163.505 134.169 163.57C134.158 163.634 134.135 163.695 134.1 163.75C131.56 168.05 128.41 169.1 125.93 169.1Z" fill="#263238"/>
<path d="M117.08 162.86C116.421 162.871 115.767 162.73 115.17 162.45C114.936 162.317 114.763 162.097 114.691 161.837C114.619 161.578 114.653 161.3 114.785 161.065C114.918 160.83 115.138 160.658 115.398 160.586C115.658 160.514 115.936 160.547 116.17 160.68C116.28 160.74 118.3 161.68 121.07 158.68C121.252 158.485 121.504 158.37 121.77 158.361C122.036 158.352 122.295 158.448 122.49 158.63C122.685 158.812 122.8 159.063 122.809 159.33C122.819 159.596 122.722 159.855 122.54 160.05C120.37 162.33 118.43 162.86 117.08 162.86Z" fill="#263238"/>
<path d="M131.72 157.82C130.8 157.82 129.885 157.675 129.01 157.39C128.758 157.308 128.549 157.129 128.429 156.893C128.309 156.656 128.288 156.382 128.37 156.13C128.411 156.004 128.476 155.888 128.562 155.787C128.648 155.687 128.753 155.605 128.871 155.545C128.989 155.485 129.118 155.45 129.25 155.441C129.382 155.431 129.515 155.448 129.64 155.49C129.81 155.55 133.87 156.85 134.98 153.9C135.02 153.77 135.087 153.65 135.175 153.546C135.264 153.443 135.373 153.359 135.495 153.299C135.617 153.239 135.75 153.204 135.886 153.198C136.022 153.191 136.158 153.212 136.286 153.26C136.413 153.308 136.529 153.381 136.628 153.475C136.726 153.57 136.804 153.683 136.857 153.808C136.909 153.934 136.936 154.069 136.935 154.205C136.934 154.341 136.905 154.476 136.85 154.6C136.457 155.618 135.744 156.482 134.82 157.062C133.895 157.643 132.808 157.909 131.72 157.82Z" fill="#263238"/>
<path d="M113.94 157.43C113.814 157.43 113.692 157.383 113.6 157.298C113.507 157.213 113.45 157.096 113.44 156.97C113.382 156.1 113.497 155.227 113.778 154.401C114.06 153.575 114.502 152.814 115.08 152.16C115.732 151.6 116.503 151.195 117.335 150.977C118.166 150.759 119.037 150.732 119.88 150.9C120.012 150.918 120.132 150.986 120.214 151.091C120.296 151.195 120.334 151.328 120.32 151.46C120.313 151.526 120.292 151.59 120.26 151.648C120.228 151.705 120.184 151.756 120.132 151.797C120.08 151.838 120.02 151.868 119.956 151.886C119.892 151.904 119.826 151.908 119.76 151.9C119.061 151.753 118.338 151.766 117.645 151.939C116.952 152.112 116.307 152.441 115.76 152.9C114.813 154.01 114.332 155.444 114.42 156.9C114.425 156.966 114.418 157.032 114.398 157.095C114.377 157.157 114.345 157.216 114.302 157.266C114.26 157.316 114.207 157.357 114.148 157.387C114.09 157.417 114.026 157.435 113.96 157.44L113.94 157.43Z" fill="#263238"/>
<path d="M126.64 149.62C126.514 149.623 126.392 149.576 126.3 149.49C126.253 149.444 126.216 149.388 126.191 149.327C126.165 149.266 126.152 149.201 126.152 149.135C126.152 149.069 126.165 149.004 126.191 148.943C126.216 148.882 126.253 148.826 126.3 148.78C126.3 148.78 129.56 145.34 134.25 148.21C134.307 148.243 134.356 148.287 134.395 148.339C134.434 148.391 134.463 148.451 134.478 148.514C134.494 148.578 134.497 148.643 134.487 148.708C134.477 148.773 134.454 148.834 134.42 148.89C134.386 148.947 134.342 148.996 134.288 149.035C134.235 149.075 134.175 149.103 134.111 149.119C134.047 149.135 133.98 149.138 133.915 149.128C133.849 149.117 133.787 149.094 133.73 149.06C129.73 146.61 127.06 149.43 127.03 149.46C126.983 149.516 126.922 149.559 126.855 149.587C126.787 149.615 126.713 149.626 126.64 149.62Z" fill="#263238"/>
<path d="M100.52 161.33C100.52 161.33 99.78 168.89 100.52 170.85C101.26 172.81 107.84 180.12 109.06 181.85C110.28 183.58 110.52 183.8 108.06 188.44C105.6 193.08 85.36 223.11 84.63 230.68C83.9 238.25 84.38 245.08 92.44 243.61C100.5 242.14 105.13 221.89 108.55 210.41C111.97 198.93 115.63 184.05 115.63 180.88C115.63 177.71 105.37 169.79 104.27 168.88C103.17 167.97 102.69 163.81 102.69 161.61C102.69 159.41 101.49 159.37 100.52 161.33Z" fill="#D9D9D9"/>
<path d="M90.4402 244.29C88.9133 244.367 87.4158 243.851 86.2601 242.85C83.5901 240.4 83.7001 235.29 84.1501 230.61C84.7101 224.86 96.1502 206.73 102.92 195.89C105.21 192.24 107.03 189.36 107.64 188.19C109.91 183.88 109.77 183.69 108.7 182.19C108.27 181.59 107.28 180.42 106.15 179.07C103.66 176.07 100.57 172.43 100.05 171.07C99.3002 169.07 99.9402 162.07 100.05 161.33C100.037 161.271 100.037 161.209 100.05 161.15C100.67 159.91 101.44 159.3 102.16 159.47C102.54 159.56 103.16 159.96 103.16 161.62C103.16 164.26 103.78 167.84 104.57 168.51L105.19 169.02C112.64 175.02 116.1 178.81 116.1 180.91C116.1 184.25 112.35 199.34 109 210.59C108.57 212.04 108.11 213.64 107.64 215.32C104.35 226.92 99.8402 242.8 92.5002 244.13C91.8197 244.245 91.1302 244.299 90.4402 244.29ZM101 161.47C100.8 163.61 100.43 169.18 101 170.67C101.47 171.9 104.76 175.82 106.93 178.41C108.13 179.84 109.08 180.97 109.49 181.54C110.9 183.54 110.94 184.1 108.55 188.66C107.91 189.86 106.09 192.76 103.78 196.43C97.0202 207.18 85.7002 225.19 85.1702 230.7C84.7602 234.88 84.6001 239.95 86.9501 242.12C88.1601 243.22 89.9502 243.55 92.3902 243.12C99.1202 241.9 103.53 226.36 106.75 215.02C107.22 213.33 107.68 211.73 108.11 210.27C111.74 198.09 115.17 183.81 115.17 180.88C115.17 179.69 113.34 176.8 104.64 169.77L103.99 169.25C102.66 168.12 102.23 163.6 102.23 161.59C102.23 160.7 102.02 160.43 101.97 160.41C101.92 160.39 101.49 160.53 101 161.47Z" fill="#263238"/>
<path d="M108.57 210.39C108.91 209.26 109.25 208.08 109.57 206.89L99.16 202.81C92.69 213.24 85.07 226.07 84.63 230.66C83.9 238.22 84.38 245.06 92.44 243.59C100.5 242.12 105.15 221.87 108.57 210.39Z" fill="#24D6C1"/>
<path d="M90.4402 244.29C88.9133 244.367 87.4158 243.851 86.2601 242.85C83.5901 240.4 83.7001 235.29 84.1501 230.61C84.6001 225.93 92.7101 212.28 98.7601 202.54C98.8204 202.441 98.9137 202.367 99.0236 202.33C99.1334 202.294 99.2526 202.297 99.3602 202.34L109.78 206.43C109.895 206.475 109.989 206.562 110.043 206.673C110.097 206.784 110.106 206.912 110.07 207.03C109.73 208.22 109.39 209.4 109.07 210.54C108.64 211.99 108.18 213.59 107.71 215.27C104.42 226.87 99.9102 242.75 92.5702 244.08C91.8682 244.216 91.1551 244.286 90.4402 244.29ZM99.3902 203.42C93.3902 213.05 85.5901 226.15 85.1501 230.7C84.7401 234.88 84.5801 239.95 86.9301 242.12C88.1401 243.22 89.9301 243.55 92.3701 243.12C99.1001 241.9 103.51 226.36 106.73 215.02C107.2 213.33 107.66 211.73 108.09 210.27C108.39 209.27 108.69 208.25 108.99 207.21L99.3902 203.42Z" fill="#263238"/>
<path d="M94.5099 210.47L94.3899 210.67L94.0899 211.17C93.8699 211.54 93.6499 211.91 93.4399 212.28C97.9889 213.389 102.453 214.819 106.8 216.56L107.35 214.63C103.168 212.956 98.8786 211.566 94.5099 210.47Z" fill="#263238"/>
<path d="M98.0004 239.23C98.4304 238.61 98.8504 237.93 99.2604 237.23C94.2053 237.411 89.162 236.627 84.4004 234.92C84.4004 235.68 84.4304 236.41 84.4904 237.11C88.8449 238.562 93.4106 239.278 98.0004 239.23Z" fill="#263238"/>
<path d="M88.2 221.68C88.11 221.85 88.02 222.02 87.94 222.19C87.86 222.36 87.75 222.56 87.66 222.74L87.23 223.61C92.7895 224.157 98.2162 225.641 103.28 228C103.5 227.37 103.72 226.73 103.93 226.09C98.9595 223.779 93.6472 222.29 88.2 221.68Z" fill="#263238"/>
<path d="M145.89 144.12C145.89 144.12 152.1 148.5 153.11 150.33C154.12 152.16 155.37 161.93 155.87 163.97C156.37 166.01 156.4 166.35 161.5 167.52C166.6 168.69 202.59 172.9 208.81 177.27C215.03 181.64 219.89 186.48 213.53 191.63C207.17 196.78 188.78 187.1 177.85 182.21C166.92 177.32 153.24 170.4 150.85 168.33C148.46 166.26 149.14 153.33 149.15 151.89C149.16 150.45 146.33 147.38 144.66 145.95C142.99 144.52 143.77 143.59 145.89 144.12Z" fill="#D9D9D9"/>
<path d="M208.45 193.58C201.27 193.58 190.51 188.58 182.13 184.72C180.54 183.99 179.03 183.29 177.65 182.67C166.93 177.88 153.04 170.89 150.51 168.67C148.92 167.3 148.31 162.21 148.6 152.67C148.6 152.29 148.6 152.02 148.6 151.87C148.6 150.87 146.28 148.03 144.28 146.31C143.02 145.23 143.14 144.47 143.33 144.12C143.67 143.46 144.63 143.28 145.98 143.62C146.039 143.632 146.095 143.66 146.14 143.7C146.79 144.15 152.48 148.19 153.51 150.07C154.23 151.37 155.01 156.07 155.63 159.93C155.92 161.67 156.17 163.18 156.32 163.83C156.78 165.7 156.84 165.93 161.59 167.02C162.87 167.31 166.24 167.82 170.51 168.46C183.16 170.35 204.34 173.52 209.07 176.85C212.91 179.55 216.86 182.85 216.98 186.42C217.05 188.37 215.98 190.24 213.81 192C212.258 193.127 210.365 193.685 208.45 193.58ZM144.81 144.47C144.611 144.446 144.409 144.492 144.24 144.6C144.24 144.65 144.24 144.99 144.96 145.6C146.49 146.91 149.64 150.18 149.63 151.92C149.63 152.08 149.63 152.36 149.63 152.75C149.29 163.94 150.29 167.21 151.19 167.98C153.41 169.89 166.48 176.6 178.08 181.79C179.47 182.41 180.98 183.11 182.57 183.84C193.28 188.84 207.93 195.58 213.25 191.27C215.18 189.7 216.1 188.14 216.04 186.51C215.93 183.31 211.98 180.13 208.55 177.71C204.02 174.52 182.99 171.38 170.42 169.49C166.13 168.85 162.75 168.35 161.42 168.04C156.42 166.89 155.99 166.49 155.42 164.19C155.24 163.43 155 161.98 154.7 160.19C154.15 156.85 153.32 151.81 152.7 150.65C151.93 149.25 147.47 145.91 145.7 144.65C145.412 144.552 145.113 144.492 144.81 144.47Z" fill="#263238"/>
<path d="M177.85 182.21L174.53 180.71L178.22 170.15C190.35 172.04 205.04 174.62 208.81 177.27C215.03 181.65 219.89 186.48 213.53 191.63C207.17 196.78 188.78 187.1 177.85 182.21Z" fill="#24D6C1"/>
<path d="M208.45 193.58C201.27 193.58 190.51 188.58 182.13 184.72C180.54 183.99 179.03 183.29 177.65 182.67L174.32 181.16C174.206 181.109 174.115 181.017 174.067 180.902C174.019 180.787 174.016 180.657 174.06 180.54L177.74 170C177.778 169.889 177.855 169.796 177.955 169.735C178.056 169.675 178.174 169.652 178.29 169.67C189.62 171.44 205.14 174.1 209.1 176.89C213.06 179.68 216.89 182.89 217.01 186.46C217.08 188.41 216.01 190.28 213.84 192.04C212.275 193.16 210.371 193.704 208.45 193.58ZM178.05 181.76C179.44 182.38 180.96 183.08 182.55 183.81C193.25 188.81 207.9 195.55 213.22 191.24C215.15 189.67 216.07 188.11 216.01 186.48C215.9 183.28 211.95 180.1 208.52 177.68C204.78 175.05 189.74 172.45 178.52 170.68L175.12 180.41L178.02 181.73L178.05 181.76Z" fill="#263238"/>
<path d="M194.57 189.63C195.2 189.88 195.82 190.11 196.44 190.34L202.53 174.84L201.23 174.49L200.95 174.42L200.58 174.33L194.57 189.63Z" fill="#263238"/>
<path d="M190.8 172.26L190.27 172.17L188.89 171.92L183.63 184.92L185.04 185.57L185.45 185.75L190.9 172.33L190.8 172.26Z" fill="#263238"/>
<path d="M211.94 179.65C210.59 182.65 208.11 188.23 205.8 192.9C206.509 193.005 207.224 193.069 207.94 193.09C210.02 188.83 212.18 184.09 213.5 181.09C213 180.58 212.49 180.11 211.94 179.65Z" fill="#263238"/>
<path d="M279 355.06C280.388 355.835 281.628 356.851 282.66 358.06C282.66 358.06 281.76 360.49 276.37 364.67C279.95 368.22 283.15 371.9 284.51 371.73C287.18 371.4 294.51 359.4 296.85 356.07C299.19 352.74 303.24 350.62 303.9 344.95C304.56 339.28 301.24 338.95 299.9 340.62C298.56 342.29 290.41 347.75 286.08 349.09C281.75 350.43 278.33 351.72 278.33 351.72C278.33 351.72 277 354.06 279 355.06Z" fill="white"/>
<path d="M284.44 372.24C283.18 372.24 281.3 370.38 278.17 367.19C277.49 366.48 276.77 365.75 276.04 365.02C275.99 364.971 275.95 364.911 275.925 364.846C275.899 364.78 275.887 364.71 275.89 364.64C275.895 364.569 275.914 364.499 275.947 364.435C275.979 364.371 276.025 364.315 276.08 364.27C280.27 361.03 281.7 358.85 282.08 358.14C281.134 357.083 280.019 356.191 278.78 355.5C278.48 355.364 278.211 355.167 277.992 354.921C277.774 354.674 277.609 354.384 277.51 354.07C277.318 353.187 277.461 352.264 277.91 351.48C277.962 351.377 278.052 351.299 278.16 351.26C278.16 351.26 281.64 349.93 285.94 348.61C290.24 347.29 298.25 341.89 299.52 340.31C299.864 339.852 300.348 339.519 300.898 339.36C301.448 339.202 302.035 339.226 302.57 339.43C303.28 339.72 304.9 340.87 304.41 345.01C303.92 349.15 301.74 351.43 299.63 353.63C298.773 354.473 297.984 355.382 297.27 356.35C296.82 356.99 296.2 357.93 295.46 359.05C290.99 365.84 286.79 371.95 284.59 372.23L284.44 372.24ZM277.14 364.71C277.74 365.31 278.32 365.91 278.89 366.49C281.11 368.76 283.63 371.33 284.47 371.24C286.4 371 291.96 362.56 294.64 358.5C295.38 357.37 296.01 356.42 296.46 355.78C297.207 354.769 298.029 353.816 298.92 352.93C300.92 350.85 302.98 348.7 303.43 344.93C303.71 342.52 303.25 340.82 302.19 340.38C301.856 340.264 301.493 340.257 301.155 340.361C300.817 340.466 300.521 340.675 300.31 340.96C298.95 342.66 290.78 348.2 286.24 349.59C282.53 350.74 279.47 351.87 278.71 352.15C278.45 352.662 278.369 353.246 278.48 353.81C278.541 353.994 278.64 354.163 278.771 354.307C278.902 354.45 279.062 354.563 279.24 354.64C280.696 355.442 281.994 356.503 283.07 357.77C283.125 357.838 283.161 357.918 283.175 358.004C283.189 358.09 283.181 358.178 283.15 358.26C283.11 358.33 282.19 360.71 277.14 364.71Z" fill="#263238"/>
<path d="M303.05 340.35C302.19 347.2 300.05 349.42 292.05 358.02C285.82 364.72 283.42 368.87 282.5 370.92C283.071 371.383 283.768 371.665 284.5 371.73C287.17 371.4 294.5 359.4 296.84 356.07C299.18 352.74 303.23 350.62 303.89 344.95C304.21 342.52 303.76 341.08 303.05 340.35Z" fill="white"/>
<path d="M284.42 372.24C283.615 372.146 282.851 371.835 282.21 371.34C282.112 371.272 282.041 371.172 282.008 371.057C281.976 370.942 281.983 370.82 282.03 370.71C283.09 368.36 285.62 364.19 291.67 357.71L292.13 357.21C299.69 349.07 301.73 346.88 302.55 340.32C302.562 340.227 302.601 340.139 302.661 340.066C302.721 339.994 302.8 339.939 302.89 339.91C302.977 339.876 303.073 339.869 303.164 339.89C303.255 339.912 303.337 339.961 303.4 340.03C304.06 340.7 304.76 342.12 304.4 345.03C303.91 349.17 301.73 351.45 299.62 353.65C298.763 354.493 297.973 355.402 297.26 356.37C296.81 357.01 296.19 357.95 295.45 359.07C290.98 365.86 286.78 371.97 284.58 372.25L284.42 372.24ZM283.13 370.73C283.519 371.025 283.984 371.202 284.47 371.24C286.4 371 291.96 362.56 294.64 358.5C295.38 357.37 296.01 356.42 296.46 355.78C297.207 354.769 298.029 353.816 298.92 352.93C300.92 350.85 302.98 348.7 303.43 344.93C303.583 343.932 303.546 342.914 303.32 341.93C302.32 347.72 299.83 350.38 292.86 357.93L292.4 358.42C286.54 364.67 284.11 368.7 283.13 370.73Z" fill="#263238"/>
<path d="M152.62 280.94C152.515 280.94 152.413 280.907 152.328 280.846C152.243 280.784 152.179 280.698 152.146 280.598C152.113 280.499 152.112 280.391 152.143 280.291C152.174 280.191 152.236 280.103 152.32 280.04C152.32 280.04 153.41 279.24 155.22 277.95C155.274 277.912 155.335 277.885 155.399 277.87C155.463 277.856 155.53 277.854 155.595 277.865C155.66 277.876 155.722 277.9 155.778 277.935C155.834 277.97 155.882 278.016 155.92 278.07C155.958 278.124 155.985 278.185 156 278.249C156.014 278.313 156.016 278.38 156.005 278.445C155.994 278.51 155.97 278.572 155.935 278.628C155.9 278.684 155.854 278.732 155.8 278.77L152.91 280.84C152.828 280.906 152.726 280.942 152.62 280.94Z" fill="white"/>
<path d="M148.87 282.73C148.87 282.73 181.87 257.4 207.53 248.07C233.19 238.74 241.87 245.07 240.2 254.07C238.53 263.07 226.87 292.07 217.87 308.07C208.87 324.07 193.53 350.4 193.53 350.4C193.53 350.4 208.2 370.73 209.53 373.07C210.86 375.41 201.2 375.73 197.2 373.4C193.763 371.578 190.425 369.575 187.2 367.4C175.54 359.74 174.87 356.74 176.53 354.07C181.86 345.52 188.29 338.37 190.87 328.07C195.55 309.33 204.22 285.07 205.2 287.73C196.811 295.743 186.813 301.879 175.87 305.73C158.2 311.73 146.68 310.18 138.87 299.73" fill="#263238"/>
<path d="M204.85 375.48C202.04 375.48 198.79 374.91 196.95 373.83C196.02 373.29 195.37 372.94 194.73 372.6C192.049 371.144 189.445 369.548 186.93 367.82C175.32 360.19 174.17 356.91 176.11 353.82C177.47 351.63 178.92 349.51 180.32 347.46C184.52 341.34 188.48 335.55 190.38 327.96C193.3 316.29 198.86 298.76 202.38 290.96C194.598 297.62 185.655 302.79 176 306.21C157.84 312.37 146.25 310.47 138.41 300.04C138.333 299.933 138.3 299.801 138.319 299.67C138.338 299.54 138.406 299.421 138.51 299.34C138.616 299.261 138.75 299.226 138.881 299.245C139.012 299.264 139.131 299.334 139.21 299.44C146.75 309.44 157.99 311.27 175.68 305.26C185.981 301.602 195.454 295.936 203.55 288.59C204.12 287.59 204.55 287.05 204.93 287.03C205.09 287.03 205.245 287.082 205.373 287.177C205.501 287.273 205.595 287.407 205.64 287.56C205.673 287.648 205.679 287.744 205.66 287.836C205.64 287.928 205.595 288.013 205.53 288.08C205.53 288.08 205.03 288.59 204.14 289.4C201.54 294.45 195.36 312.06 191.32 328.19C189.38 335.96 185.32 341.82 181.12 348.02C179.72 350.02 178.28 352.17 176.93 354.34C175.58 356.51 175.4 359.06 187.45 366.98C189.941 368.695 192.522 370.277 195.18 371.72C195.82 372.06 196.48 372.42 197.42 372.97C200.75 374.91 207.82 374.86 209.03 373.66C209.14 373.55 209.17 373.48 209.03 373.31C207.72 371.03 193.21 350.9 193.03 350.69C192.976 350.611 192.947 350.516 192.947 350.42C192.947 350.324 192.976 350.23 193.03 350.15C193.19 349.88 208.47 323.63 217.36 307.82C226.46 291.64 238 262.82 239.64 253.98C240.23 250.8 239.45 248.21 237.4 246.47C234.7 244.18 227.24 241.41 207.64 248.54C182.34 257.74 149.43 282.88 149.1 283.13C149.049 283.175 148.989 283.209 148.924 283.23C148.859 283.251 148.79 283.258 148.722 283.252C148.654 283.245 148.588 283.225 148.529 283.192C148.469 283.159 148.417 283.114 148.375 283.06C148.333 283.006 148.303 282.944 148.286 282.877C148.269 282.811 148.266 282.742 148.277 282.675C148.288 282.608 148.312 282.543 148.349 282.486C148.386 282.428 148.434 282.378 148.49 282.34C148.82 282.08 181.85 256.85 207.29 247.6C222.18 242.19 233.09 241.52 238.05 245.71C240.39 247.71 241.28 250.61 240.62 254.16C238.97 263.1 227.37 292.06 218.23 308.31C209.83 323.25 195.74 347.49 194.06 350.37C195.86 352.86 208.63 370.61 209.9 372.82C210.053 373.061 210.117 373.348 210.081 373.631C210.044 373.915 209.91 374.176 209.7 374.37C209 375.13 207.06 375.48 204.85 375.48Z" fill="#263238"/>
<path d="M159.85 275.8C159.769 275.799 159.689 275.779 159.618 275.741C159.547 275.702 159.486 275.647 159.44 275.58C159.403 275.527 159.376 275.466 159.362 275.402C159.348 275.338 159.347 275.272 159.36 275.208C159.372 275.143 159.397 275.082 159.433 275.028C159.469 274.973 159.516 274.926 159.57 274.89C166.28 270.22 175.71 263.89 182.57 260.35C182.628 260.31 182.695 260.283 182.764 260.271C182.834 260.258 182.905 260.26 182.974 260.278C183.042 260.295 183.106 260.326 183.162 260.37C183.217 260.413 183.263 260.468 183.296 260.531C183.328 260.594 183.348 260.663 183.352 260.733C183.356 260.804 183.345 260.874 183.32 260.94C183.295 261.006 183.256 261.066 183.206 261.116C183.156 261.166 183.096 261.205 183.03 261.23C176.24 264.77 166.84 271.05 160.16 275.71C160.069 275.772 159.96 275.804 159.85 275.8Z" fill="white"/>
<path d="M193.29 296.94C193.218 296.94 193.146 296.924 193.08 296.893C193.014 296.862 192.956 296.816 192.91 296.76C192.826 296.657 192.785 296.525 192.796 296.393C192.807 296.26 192.87 296.137 192.97 296.05L201.54 288.84C202.08 286.92 207.78 267.67 220.4 257.66C220.452 257.618 220.511 257.587 220.575 257.568C220.639 257.549 220.706 257.543 220.772 257.551C220.838 257.558 220.902 257.579 220.96 257.611C221.018 257.644 221.069 257.688 221.11 257.74C221.192 257.844 221.23 257.975 221.215 258.106C221.2 258.238 221.133 258.358 221.03 258.44C208.03 268.73 202.51 289.05 202.46 289.25C202.433 289.35 202.378 289.441 202.3 289.51L193.62 296.82C193.528 296.897 193.411 296.939 193.29 296.94Z" fill="white"/>
<path d="M227.11 290.08C227.051 290.094 226.99 290.094 226.93 290.08C226.87 290.057 226.814 290.022 226.767 289.977C226.72 289.932 226.682 289.878 226.656 289.819C226.63 289.759 226.616 289.695 226.615 289.63C226.614 289.565 226.626 289.5 226.65 289.44L228.48 284.87C228.504 284.808 228.539 284.751 228.585 284.703C228.63 284.656 228.685 284.617 228.746 284.591C228.806 284.565 228.872 284.551 228.938 284.551C229.004 284.551 229.069 284.564 229.13 284.59C229.252 284.641 229.349 284.737 229.401 284.859C229.454 284.98 229.457 285.116 229.41 285.24L227.58 289.81C227.535 289.895 227.467 289.965 227.384 290.013C227.301 290.06 227.206 290.084 227.11 290.08Z" fill="white"/>
<path d="M230.55 281.49C230.487 281.5 230.423 281.5 230.36 281.49C230.238 281.439 230.141 281.343 230.089 281.221C230.037 281.1 230.034 280.963 230.08 280.84L236.7 264.29C236.724 264.229 236.76 264.173 236.806 264.126C236.852 264.079 236.907 264.041 236.967 264.015C237.027 263.989 237.092 263.975 237.158 263.974C237.224 263.974 237.289 263.986 237.35 264.01C237.411 264.034 237.467 264.07 237.514 264.116C237.561 264.162 237.599 264.217 237.625 264.277C237.651 264.337 237.665 264.402 237.666 264.468C237.667 264.534 237.654 264.599 237.63 264.66L231 281.18C230.963 281.27 230.901 281.347 230.821 281.402C230.741 281.457 230.647 281.488 230.55 281.49Z" fill="white"/>
<path d="M197.2 373.4C201.2 375.73 210.87 375.4 209.53 373.07C208.19 370.74 193.53 350.4 193.53 350.4C193.53 350.4 197.59 343.4 202.76 334.48C196.32 333.65 192.7 330.92 190.76 328.56C188.1 338.56 181.76 345.66 176.56 354.07C174.9 356.74 175.56 359.74 187.23 367.4C190.445 369.575 193.773 371.577 197.2 373.4Z" fill="#D9D9D9"/>
<path d="M204.85 375.48C202.04 375.48 198.79 374.91 196.95 373.83C196.02 373.29 195.37 372.94 194.73 372.6C192.049 371.144 189.445 369.548 186.93 367.82C175.32 360.19 174.17 356.91 176.11 353.82C177.47 351.64 178.91 349.53 180.31 347.48C184.42 341.48 188.31 335.81 190.25 328.48C190.272 328.392 190.319 328.311 190.384 328.247C190.449 328.184 190.531 328.14 190.62 328.12C190.71 328.104 190.802 328.111 190.887 328.141C190.973 328.171 191.05 328.222 191.11 328.29C192.92 330.46 196.43 333.21 202.82 334.03C202.902 334.044 202.98 334.076 203.048 334.124C203.116 334.173 203.171 334.237 203.21 334.31C203.25 334.382 203.27 334.463 203.27 334.545C203.27 334.627 203.25 334.708 203.21 334.78C198.65 342.68 194.96 349.04 194.15 350.42C195.95 352.91 208.72 370.66 209.99 372.87C210.144 373.111 210.208 373.398 210.171 373.681C210.134 373.965 210 374.226 209.79 374.42C209 375.13 207.06 375.48 204.85 375.48ZM191 329.58C188.94 336.68 185.16 342.2 181.16 348.04C179.77 350.04 178.33 352.18 176.99 354.34C175.65 356.5 175.46 359.06 187.51 366.98C190.002 368.695 192.582 370.277 195.24 371.72C195.88 372.06 196.54 372.42 197.48 372.97C200.81 374.91 207.88 374.86 209.09 373.66C209.2 373.55 209.23 373.48 209.09 373.31C207.78 371.03 193.27 350.9 193.09 350.69C193.036 350.611 193.007 350.516 193.007 350.42C193.007 350.324 193.036 350.23 193.09 350.15C193.09 350.15 196.96 343.51 201.95 334.87C196.34 334 193 331.65 191 329.58Z" fill="#263238"/>
<path d="M193.53 350.4C193.53 350.4 192.2 349.4 190.53 352.07C189.488 353.765 188.598 355.548 187.87 357.4L180.13 348.62C178.91 350.4 177.7 352.2 176.53 354.07C174.87 356.74 175.53 359.74 187.2 367.4C190.425 369.576 193.763 371.578 197.2 373.4C201.2 375.73 210.87 375.4 209.53 373.07C208.19 370.74 193.53 350.4 193.53 350.4Z" fill="white"/>
<path d="M204.85 375.48C202.04 375.48 198.79 374.91 196.95 373.83C196.02 373.29 195.37 372.94 194.73 372.6C192.049 371.144 189.445 369.548 186.93 367.82C175.32 360.19 174.17 356.91 176.11 353.82C177.32 351.88 178.61 349.98 179.72 348.35C179.763 348.287 179.819 348.234 179.885 348.196C179.951 348.158 180.024 348.135 180.1 348.13C180.177 348.124 180.254 348.136 180.326 348.166C180.397 348.196 180.46 348.241 180.51 348.3L187.71 356.47C188.393 354.859 189.195 353.301 190.11 351.81C190.351 351.322 190.69 350.889 191.104 350.537C191.518 350.184 192 349.92 192.52 349.76C192.744 349.712 192.976 349.71 193.2 349.753C193.425 349.796 193.64 349.883 193.83 350.01C193.874 350.039 193.912 350.076 193.94 350.12C194.54 350.95 208.64 370.5 209.94 372.83C210.094 373.071 210.158 373.358 210.121 373.641C210.084 373.925 209.95 374.186 209.74 374.38C209 375.13 207.06 375.48 204.85 375.48ZM180.18 349.43C179.18 350.93 178.03 352.62 176.96 354.34C175.67 356.39 175.43 359.06 187.48 366.98C189.972 368.695 192.552 370.277 195.21 371.72C195.85 372.06 196.51 372.42 197.45 372.97C200.78 374.91 207.85 374.86 209.06 373.66C209.17 373.55 209.2 373.48 209.06 373.31C207.8 371.11 194.2 352.23 193.15 350.78C192.981 350.726 192.799 350.726 192.63 350.78C192.25 350.86 191.63 351.2 190.92 352.37C189.894 354.041 189.014 355.798 188.29 357.62C188.261 357.699 188.211 357.77 188.146 357.824C188.081 357.878 188.003 357.915 187.92 357.93C187.835 357.945 187.747 357.938 187.665 357.91C187.583 357.882 187.509 357.834 187.45 357.77L180.18 349.43Z" fill="#263238"/>
<path d="M187.2 367.4C190.425 369.575 193.763 371.578 197.2 373.4C200.8 375.5 208.98 375.4 209.62 373.71C194.44 372.9 181.86 360.82 176.29 354.5C175 357.07 176.17 360.15 187.2 367.4Z" fill="white"/>
<path d="M204.76 375.5C202.061 375.571 199.384 374.999 196.95 373.83C196.02 373.29 195.37 372.94 194.73 372.6C192.049 371.144 189.445 369.548 186.93 367.82C175.7 360.44 174.36 357.17 175.84 354.28C175.877 354.207 175.93 354.144 175.997 354.097C176.063 354.049 176.14 354.019 176.221 354.008C176.302 353.997 176.384 354.006 176.461 354.034C176.537 354.063 176.606 354.109 176.66 354.17C182.66 360.95 194.87 372.43 209.66 373.17C209.738 373.171 209.815 373.192 209.883 373.231C209.951 373.269 210.008 373.324 210.05 373.39C210.094 373.455 210.123 373.53 210.133 373.608C210.143 373.686 210.135 373.766 210.11 373.84C209.972 374.109 209.779 374.345 209.543 374.533C209.307 374.721 209.033 374.856 208.74 374.93C207.453 375.335 206.109 375.527 204.76 375.5ZM176.45 355.44C175.93 357.31 177.12 360.17 187.45 366.98C189.941 368.695 192.522 370.277 195.18 371.72C195.82 372.06 196.48 372.42 197.42 372.97C200.08 374.52 205.58 374.89 208.14 374.1C194.1 372.72 182.5 362.16 176.45 355.44Z" fill="#263238"/>
</svg>
