<svg width="436" height="500" viewBox="0 0 436 500" fill="none" xmlns="http://www.w3.org/2000/svg">
<g clip-path="url(#clip0_2792_4110)">
<path d="M11.4102 320.29C11.4102 320.29 38.1402 390.8 113.54 417.16C188.94 443.52 272.04 417.58 339.91 398.35C407.78 379.12 445.76 323.06 433.86 263.15C421.96 203.24 365.53 204.62 315.74 149.41C265.95 94.2001 261.07 71.9401 189.19 52.7601C117.31 33.5801 34.7102 90.7501 10.4802 176.39C-13.7498 262.03 11.4102 320.29 11.4102 320.29Z" fill="#39C023"/>
<path opacity="0.7" d="M11.4102 320.29C11.4102 320.29 38.1402 390.8 113.54 417.16C188.94 443.52 272.04 417.58 339.91 398.35C407.78 379.12 445.76 323.06 433.86 263.15C421.96 203.24 365.53 204.62 315.74 149.41C265.95 94.2001 261.07 71.9401 189.19 52.7601C117.31 33.5801 34.7102 90.7501 10.4802 176.39C-13.7498 262.03 11.4102 320.29 11.4102 320.29Z" fill="white"/>
<path d="M414.65 404C413.74 396.77 401.09 407.62 401.09 407.62C402.8 403.299 403.718 398.706 403.8 394.06C403.8 386.83 394.8 395.86 394.8 395.86C394.8 395.86 401.13 384.11 400.23 371.46C399.33 358.81 385.76 373.27 385.76 373.27C385.76 373.27 391.19 354.27 392.09 348.86C392.99 343.45 366.78 355.19 366.78 355.19C366.78 355.19 368.59 347.05 369.49 338.92C369.96 334.76 365.49 336.49 360.97 339.18C359.97 335.56 357.3 335.31 354.33 336.44C354.52 335.54 354.73 334.56 354.96 333.51C355.96 328.64 349.02 334.13 343.25 339.32C342.552 332.996 339.691 327.107 335.15 322.65C330.78 318.28 326.07 323.15 322.15 329.99L315.66 331.99C315.58 330.73 315.45 329.43 315.26 328.09C314.09 319.91 307.26 328.73 302.57 335.99L297.57 337.53C296.77 332.41 294.81 324.94 289.99 319.05C281.86 309.11 262.87 337.13 262.87 337.13C262.87 337.13 251.12 318.13 246.6 328.13C242.08 338.13 248.41 358.87 248.41 358.87C248.41 358.87 245.7 351.63 242.09 349.87C238.48 348.11 228.53 356.19 228.53 356.19C228.53 356.19 233.95 343.54 228.53 339.02C223.62 334.93 217.25 349.31 216.07 352.11C216.9 349.99 220.07 340.81 217.68 328.17C214.97 313.71 204.12 332.69 204.12 332.69C204.12 332.69 205.93 314.61 195.99 311.9C186.05 309.19 200.51 311.9 190.56 329.98C180.61 348.06 184.24 317.33 169.77 319.13C155.3 320.93 158.93 375.18 158.93 375.18L101.9 342.56C101.9 342.56 99.1899 337.13 90.0099 335.49C80.8299 333.85 86.5399 348 86.5399 348C86.5399 348 73.8799 336.25 68.4599 336.25C67.0499 336.25 62.7199 342.52 57.0799 351.8C56.6699 350.85 56.2499 349.88 55.8099 348.9C52.3799 341.37 49.4799 358.21 48.2699 366.82L47.2699 368.55C46.5399 364.3 44.4099 357 38.6299 357C31.6299 357 35.3399 381.12 36.5099 387.82V387.9C35.6099 384.09 33.0199 374.9 28.7299 374.17C23.3099 373.27 27.8199 394.06 27.8199 394.06C27.8199 394.06 24.2099 391.35 21.4999 391.35C19.4999 391.35 22.2699 403.96 23.9499 411.05C18.2499 421.65 14.3799 429 14.3799 429L50.3799 409.43H239.57L230.42 422.09H411C411 422.09 415.55 411.25 414.65 404Z" fill="black"/>
<path d="M196.15 421.88H202.72L206.72 276.88L215.14 251.52L206.27 268.23L207.58 251.91L221.78 223.01L208.1 241.01L207 197.74L205.14 224.37L198.43 220.37L204.31 229.27L202.71 260.77L197.4 252.38L201.97 267.31L196.15 421.88Z" fill="#263238"/>
<path d="M221.22 431.49C218.88 422.21 215.05 410.69 209.71 406.39C200.23 398.75 184.81 410.76 176.51 405.3C168.21 399.84 185.99 346.37 157.51 343.1C129.03 339.83 118.37 394.39 105.32 399.84C92.2698 405.29 87.5298 385.66 69.7398 384.57C54.1898 383.57 24.1298 421.85 16.8198 431.49H221.22Z" fill="#39C023"/>
<path opacity="0.46" d="M221.22 431.49C218.88 422.21 215.05 410.69 209.71 406.39C200.23 398.75 184.81 410.76 176.51 405.3C168.21 399.84 185.99 346.37 157.51 343.1C129.03 339.83 118.37 394.39 105.32 399.84C92.2698 405.29 87.5298 385.66 69.7398 384.57C54.1898 383.57 24.1298 421.85 16.8198 431.49H221.22Z" fill="black"/>
<path d="M158 421.88H164.57L168.57 276.88L177 251.47L168.13 268.18L169.44 251.86L183.64 222.96L170 241L168.82 197.74L167 224.37L160.29 220.37L166.17 229.27L164.57 260.77L159.26 252.38L163.83 267.31L158 421.88Z" fill="#C7CACB"/>
<path d="M69.5898 421.88H76.1599L80.1599 276.88L88.5798 251.52L79.6998 268.23L81.0198 251.91L95.2399 223L81.5598 241L80.3898 197.74L78.5298 224.37L71.8198 220.37L77.6998 229.27L76.0998 260.77L70.7798 252.38L75.3598 267.31L69.5898 421.88Z" fill="#A8ADAF"/>
<path d="M258.08 421.88H264.65L268.65 310.43L277.11 291L268.23 303.84L269.54 291.3L283.74 269L270.06 282.9L268.88 249.66L267 270.13L260.3 267.07L266.18 273.9L264.57 298.11L259.26 291.66L263.83 303.13L258.08 421.88Z" fill="#C7CACB"/>
<path d="M181.34 421.88H187.91L191.91 310.43L200.36 291L191.49 303.84L192.8 291.3L207 269L193.32 282.9L192.14 249.66L190.28 270.13L183.57 267.07L189.46 273.9L187.85 298.11L182.54 291.66L187.11 303.13L181.34 421.88Z" fill="#C7CACB"/>
<path d="M231.59 421.88H238.15L242.15 310.43L250.61 291L241.73 303.84L243.05 291.3L257.24 269L243.56 282.9L242.38 249.66L240.53 270.13L233.82 267.07L239.7 273.9L238.1 298.11L232.78 291.66L237.36 303.13L231.59 421.88Z" fill="#C7CACB"/>
<path d="M377.07 421.88H383.64L387.64 276.88L396.06 251.52L387.19 268.23L388.5 251.91L402.7 223.01L389.02 241.01L387.84 197.75L386 224.37L379.29 220.37L385.17 229.27L383.57 260.77L378.26 252.38L382.83 267.31L377.07 421.88Z" fill="#263238"/>
<path d="M337.32 421.88H343.88L347.88 276.88L356.31 251.52L347.43 268.23L348.75 251.91L363 223L349.32 241L348.14 197.74L346.29 224.37L339.58 220.37L345.46 229.27L343.86 260.77L338.54 252.38L343.12 267.31L337.32 421.88Z" fill="#8A9094"/>
<path d="M269.17 421.88H275.73L279.73 276.88L288.15 251.52L279.27 268.23L280.59 251.91L294.82 223L281.14 241L280 197.74L278.15 224.37L271.44 220.37L277.32 229.27L275.72 260.77L270.4 252.38L274.98 267.31L269.17 421.88Z" fill="#263238"/>
<path d="M368.13 431.49C366.13 422.21 362.79 410.69 358.18 406.39C349.97 398.75 336.62 410.76 329.44 405.3C322.26 399.84 337.65 346.37 313.02 343.1C288.39 339.83 279.15 394.39 267.86 399.84C256.57 405.29 252.46 385.66 237.07 384.57C223.61 383.57 197.6 421.85 191.27 431.49H368.13Z" fill="#39C023"/>
<path opacity="0.25" d="M368.13 431.49C366.13 422.21 362.79 410.69 358.18 406.39C349.97 398.75 336.62 410.76 329.44 405.3C322.26 399.84 337.65 346.37 313.02 343.1C288.39 339.83 279.15 394.39 267.86 399.84C256.57 405.29 252.46 385.66 237.07 384.57C223.61 383.57 197.6 421.85 191.27 431.49H368.13Z" fill="black"/>
<path d="M255.48 202.44C255.48 202.44 241.27 202.44 237.13 225.53C232.99 248.62 243.64 254.53 230.61 266.39C217.58 278.25 215.81 286.53 222.32 291.86C228.83 297.19 232.39 303.11 224.1 311.99C215.81 320.87 214.62 333.9 244.23 342.19C273.84 350.48 296.34 330.35 297.53 316.73C298.72 303.11 288.64 294.22 288.05 282.97C287.46 271.72 308.19 261.06 305.82 245.67C303.45 230.28 282.13 236.19 276.21 224.35C270.29 212.51 269.69 202.44 255.48 202.44Z" fill="#39C023"/>
<path opacity="0.46" d="M255.48 202.44C255.48 202.44 241.27 202.44 237.13 225.53C232.99 248.62 243.64 254.53 230.61 266.39C217.58 278.25 215.81 286.53 222.32 291.86C228.83 297.19 232.39 303.11 224.1 311.99C215.81 320.87 214.62 333.9 244.23 342.19C273.84 350.48 296.34 330.35 297.53 316.73C298.72 303.11 288.64 294.22 288.05 282.97C287.46 271.72 308.19 261.06 305.82 245.67C303.45 230.28 282.13 236.19 276.21 224.35C270.29 212.51 269.69 202.44 255.48 202.44Z" fill="black"/>
<path d="M245 426.87H250.19L257.53 282.39L264.19 262.39L257.19 275.6L258.19 262.7L269.41 239.84L258.6 254.11L257.66 219.91L256.2 240.91L250.89 237.77L255.54 244.77L254.27 269.67L250.07 263.04L253.69 274.84L245 426.87Z" fill="#92989B"/>
<path d="M166.56 431.49C168.08 422.93 170.56 412.29 174.05 408.33C180.23 401.28 190.26 412.33 195.67 407.33C201.08 402.33 189.49 352.95 208.02 349.93C226.55 346.91 233.5 397.26 242.02 402.3C250.54 407.34 253.6 389.2 265.18 388.2C275.31 387.32 294.87 422.61 299.63 431.5L166.56 431.49Z" fill="#39C023"/>
<path opacity="0.46" d="M166.56 431.49C168.08 422.93 170.56 412.29 174.05 408.33C180.23 401.28 190.26 412.33 195.67 407.33C201.08 402.33 189.49 352.95 208.02 349.93C226.55 346.91 233.5 397.26 242.02 402.3C250.54 407.34 253.6 389.2 265.18 388.2C275.31 387.32 294.87 422.61 299.63 431.5L166.56 431.49Z" fill="black"/>
<path d="M237.16 431.49C235.79 425.59 233.54 418.25 230.42 415.49C224.86 410.63 215.83 418.27 210.97 414.8C206.11 411.33 216.52 377.28 199.85 375.2C183.18 373.12 176.92 407.85 169.28 411.32C161.64 414.79 158.86 402.32 148.44 401.6C139.33 400.99 121.72 425.34 117.44 431.47L237.16 431.49Z" fill="#39C023"/>
<path d="M46.4996 347.14C46.4996 347.14 32.8596 348.58 13.4996 329.92C-5.86036 311.26 32.1696 245.21 47.2396 230.85C62.3096 216.49 93.2396 308.38 81.6996 325.61C70.1596 342.84 57.9996 346.43 46.4996 347.14Z" fill="#39C023"/>
<path opacity="0.46" d="M46.4996 347.14C46.4996 347.14 32.8596 348.58 13.4996 329.92C-5.86036 311.26 32.1696 245.21 47.2396 230.85C62.3096 216.49 93.2396 308.38 81.6996 325.61C70.1596 342.84 57.9996 346.43 46.4996 347.14Z" fill="black"/>
<path d="M40.7497 422.52L42.9097 326.33L33.5697 316.28L43.6197 322.02V304.79L30.6997 289.72L42.9097 299.05L41.4697 286.85L45.0597 292.59L47.2097 258.13L48.6497 310.53L72.3397 297.61L48.6497 317.71V327.04V425.39" fill="#263238"/>
<path d="M378.32 266.83C378.32 266.83 364.68 268.26 345.32 249.6C325.96 230.94 364 164.89 379 150.53C394 136.17 425 228.06 413.46 245.29C401.92 262.52 389.8 266.11 378.32 266.83Z" fill="#39C023"/>
<path d="M367.32 418.41L374.73 246.01L365.4 235.96L375.45 241.7V224.47L362.52 209.4L374.73 218.73L373.29 206.53L376.88 212.27L379.04 177.81L380.47 230.22L404.16 217.29L380.47 237.39V246.73L375.22 421.28" fill="#A8ADAF"/>
<path d="M77.1199 429C76.9546 428.201 76.6293 427.443 76.1636 426.773C75.6979 426.103 75.1013 425.534 74.4099 425.1C71.7299 423.64 71.7299 425.1 68.5599 424.1C66.4599 423.45 66.8799 418.72 66.7099 417.1C66.1799 412.15 63.4399 407.87 58.3899 406.59C55.8778 405.929 53.2389 405.919 50.7215 406.559C48.2041 407.199 45.891 408.469 43.9999 410.25C37.9099 416.1 38.6399 421.25 34.7399 421.46C30.8399 421.67 28.6499 416.83 21.8299 419.75C17.6399 421.55 15.4699 425.91 14.4199 429.01L77.1199 429Z" fill="#39C023"/>
<path opacity="0.5" d="M77.1199 429C76.9546 428.201 76.6293 427.443 76.1636 426.773C75.6979 426.103 75.1013 425.534 74.4099 425.1C71.7299 423.64 71.7299 425.1 68.5599 424.1C66.4599 423.45 66.8799 418.72 66.7099 417.1C66.1799 412.15 63.4399 407.87 58.3899 406.59C55.8778 405.929 53.2389 405.919 50.7215 406.559C48.2041 407.199 45.891 408.469 43.9999 410.25C37.9099 416.1 38.6399 421.25 34.7399 421.46C30.8399 421.67 28.6499 416.83 21.8299 419.75C17.6399 421.55 15.4699 425.91 14.4199 429.01L77.1199 429Z" fill="white"/>
<path d="M20.7197 428.65C20.7197 428.65 21.7997 424.2 25.4397 423.8C29.0797 423.4 31.6397 429.33 37.0397 424.34C42.4397 419.35 45.6697 406.67 54.0397 407.08C62.4097 407.49 62.2697 417.6 61.3197 421.78C60.3697 425.96 65.9097 425.78 68.3197 425.28C70.7297 424.78 73.5797 427.44 73.5797 429.06" stroke="#263238" stroke-width="0.903884" stroke-linecap="round" stroke-linejoin="round"/>
<path d="M28.2701 428.92L25.3101 426.23" stroke="#263238" stroke-width="0.903884" stroke-linecap="round" stroke-linejoin="round"/>
<path d="M46.3398 429.06L54.2999 412.88" stroke="#263238" stroke-width="0.903884" stroke-linecap="round" stroke-linejoin="round"/>
<path d="M50.25 414.09L51.2 419.35L57.54 415.84" stroke="#263238" stroke-width="0.903884" stroke-linecap="round" stroke-linejoin="round"/>
<path d="M45.1299 419.48L48.3699 425.42L54.6999 423.39" stroke="#263238" stroke-width="0.903884" stroke-linecap="round" stroke-linejoin="round"/>
<path d="M211.09 427.34C210.906 426.457 210.545 425.619 210.03 424.879C209.514 424.138 208.854 423.509 208.09 423.03C205.09 421.41 205.09 423.03 201.62 421.95C199.3 421.24 199.76 416.01 199.57 414.22C198.99 408.74 195.96 404.01 190.37 402.59C187.583 401.844 184.651 401.82 181.852 402.52C179.053 403.22 176.478 404.62 174.37 406.59C167.63 413.06 168.44 418.72 164.13 418.99C159.82 419.26 157.39 413.87 149.84 417.1C145.21 419.1 142.84 423.91 141.65 427.34H211.09Z" fill="#39C023"/>
<path opacity="0.5" d="M211.09 427.34C210.906 426.457 210.545 425.619 210.03 424.879C209.514 424.138 208.854 423.509 208.09 423.03C205.09 421.41 205.09 423.03 201.62 421.95C199.3 421.24 199.76 416.01 199.57 414.22C198.99 408.74 195.96 404.01 190.37 402.59C187.583 401.844 184.651 401.82 181.852 402.52C179.053 403.22 176.478 404.62 174.37 406.59C167.63 413.06 168.44 418.72 164.13 418.99C159.82 419.26 157.39 413.87 149.84 417.1C145.21 419.1 142.84 423.91 141.65 427.34H211.09Z" fill="white"/>
<path d="M157.05 427.24L153.77 424.26" stroke="#263238" stroke-linecap="round" stroke-linejoin="round"/>
<path d="M177.04 427.39L185.84 409.49" stroke="#263238" stroke-linecap="round" stroke-linejoin="round"/>
<path d="M181.37 410.83L182.41 416.65L189.42 412.77" stroke="#263238" stroke-linecap="round" stroke-linejoin="round"/>
<path d="M175.7 416.8L179.28 423.37L186.29 421.13" stroke="#263238" stroke-linecap="round" stroke-linejoin="round"/>
<path d="M99.69 134.66C99.69 134.66 79.22 134.66 73.25 167.92C67.28 201.18 82.63 209.71 63.87 226.76C45.11 243.81 42.55 255.76 51.94 263.43C61.33 271.1 66.43 279.63 54.49 292.43C42.55 305.23 40.85 323.99 83.49 335.93C126.13 347.87 158.49 318.87 160.24 299.26C161.99 279.65 147.44 266.85 146.59 250.65C145.74 234.45 175.59 219.1 172.17 196.93C168.75 174.76 138.06 183.28 129.54 166.23C121.02 149.18 120.16 134.66 99.69 134.66Z" fill="#39C023"/>
<path opacity="0.18" d="M99.69 134.66C99.69 134.66 79.22 134.66 73.25 167.92C67.28 201.18 82.63 209.71 63.87 226.76C45.11 243.81 42.55 255.76 51.94 263.43C61.33 271.1 66.43 279.63 54.49 292.43C42.55 305.23 40.85 323.99 83.49 335.93C126.13 347.87 158.49 318.87 160.24 299.26C161.99 279.65 147.44 266.85 146.59 250.65C145.74 234.45 175.59 219.1 172.17 196.93C168.75 174.76 138.06 183.28 129.54 166.23C121.02 149.18 120.16 134.66 99.69 134.66Z" fill="black"/>
<path d="M84.54 457.86H92L102.57 249.8L112.17 220.93L102.06 239.93L103.56 221.35L119.72 188.44L104.14 209L102.8 159.74L100.69 190.07L93.05 185.53L99.75 195.66L97.92 231.52L91.92 221.97L97.13 238.97L84.54 457.86Z" fill="#263238"/>
<path d="M293.64 154.25C293.64 154.25 273.19 154.96 268.38 188.41C263.57 221.86 279.2 229.84 261.05 247.54C242.9 265.24 240.75 277.26 250.39 284.6C260.03 291.94 265.44 300.29 253.95 313.49C242.46 326.69 241.42 345.49 284.44 355.94C327.46 366.39 358.85 336.29 359.87 316.63C360.89 296.97 345.96 284.69 344.54 268.53C343.12 252.37 372.42 236 368.24 214C364.06 192 333.68 201.55 324.56 184.8C315.44 168.05 314.09 153.54 293.64 154.25Z" fill="#39C023"/>
<g opacity="0.5">
<path d="M293.64 154.25C293.64 154.25 273.19 154.96 268.38 188.41C263.57 221.86 279.2 229.84 261.05 247.54C242.9 265.24 240.75 277.26 250.39 284.6C260.03 291.94 265.44 300.29 253.95 313.49C242.46 326.69 241.42 345.49 284.44 355.94C327.46 366.39 358.85 336.29 359.87 316.63C360.89 296.97 345.96 284.69 344.54 268.53C343.12 252.37 372.42 236 368.24 214C364.06 192 333.68 201.55 324.56 184.8C315.44 168.05 314.09 153.54 293.64 154.25Z" fill="white"/>
</g>
<path d="M287.64 438.14L295.11 437.88L300.53 269.22L309.11 240L299.67 259.36L300.52 240.74L315.52 207.29L300.67 228.37L297.61 179.18L296.55 209.56L288.76 205.3L295.81 215.19L295.23 251.1L288.85 241.76L294.64 258.56L287.64 438.14Z" fill="#263238"/>
<path d="M419.6 431.49C417.82 423.79 414.89 414.22 410.81 410.65C403.57 404.31 391.81 414.28 385.45 409.75C379.09 405.22 392.69 360.82 370.95 358.1C349.21 355.38 341.05 400.69 331.08 405.22C321.11 409.75 317.49 393.44 303.9 392.53C292.02 391.74 269.06 423.53 263.47 431.53L419.6 431.49Z" fill="#39C023"/>
<path d="M174.13 433.47C174.81 428.19 175.18 418.47 169.86 413.17C162.31 405.62 150.99 417.88 148.16 417.88C145.33 417.88 144.38 410.34 135.89 403.73C127.4 397.12 117.02 405.62 111.36 403.73C105.7 401.84 116.08 372.6 100.04 371.66C83.9997 370.72 78.3397 411.28 67.0397 411.28C55.7397 411.28 53.8297 403.73 42.5097 410.34C33.6397 415.51 28.8297 428.2 27.1597 433.47H174.13Z" fill="#39C023"/>
<path opacity="0.25" d="M174.13 433.47C174.81 428.19 175.18 418.47 169.86 413.17C162.31 405.62 150.99 417.88 148.16 417.88C145.33 417.88 144.38 410.34 135.89 403.73C127.4 397.12 117.02 405.62 111.36 403.73C105.7 401.84 116.08 372.6 100.04 371.66C83.9997 370.72 78.3397 411.28 67.0397 411.28C55.7397 411.28 53.8297 403.73 42.5097 410.34C33.6397 415.51 28.8297 428.2 27.1597 433.47H174.13Z" fill="black"/>
<path d="M57.61 432.2L47.48 415.75" stroke="#263238" stroke-linecap="round" stroke-linejoin="round"/>
<path d="M93.8896 430.93L98.9496 383.26" stroke="#263238" stroke-linecap="round" stroke-linejoin="round"/>
<path d="M123 431.78L128.06 413.22" stroke="#263238" stroke-linecap="round" stroke-linejoin="round"/>
<path d="M158.85 432.62L163.92 419.54" stroke="#263238" stroke-linecap="round" stroke-linejoin="round"/>
<path d="M58.4496 416.17L53.3896 425.03L41.5796 420.39" stroke="#263238" stroke-linecap="round" stroke-linejoin="round"/>
<path d="M91.3599 387.06L97.2599 397.61L105.28 387.9" stroke="#263238" stroke-linecap="round" stroke-linejoin="round"/>
<path d="M87.98 403.94L95.58 413.22L103.17 407.31" stroke="#263238" stroke-linecap="round" stroke-linejoin="round"/>
<path d="M125.95 421.23L136.07 415.33" stroke="#263238" stroke-linecap="round" stroke-linejoin="round"/>
<path d="M125.11 424.61L120.04 411.53" stroke="#263238" stroke-linecap="round" stroke-linejoin="round"/>
<path d="M161.39 425.87L158.85 417.43" stroke="#263238" stroke-linecap="round" stroke-linejoin="round"/>
<path d="M160.54 427.56L167.71 424.61" stroke="#263238" stroke-linecap="round" stroke-linejoin="round"/>
<path d="M210.93 197.62C207.688 191.321 203.507 185.551 198.53 180.51C194.975 176.911 190.652 174.162 185.884 172.47C181.117 170.778 176.028 170.187 171 170.74C150.72 173.04 145.17 198.89 139.43 214.61C125.71 252.16 108.69 307.85 159.99 324.25C182.1 331.32 212.47 324.25 221.36 300.55C229.05 280.05 228.93 257.48 224.27 236.3C221.51 223.91 217.42 209.8 210.93 197.62Z" fill="#39C023"/>
<path d="M169 457.58H176.48L181 292.44L190.59 263.57L180.48 282.57L182 264L198.16 231.09L182.6 251.66L181.26 202.4L179.14 232.72L171.5 228.19L178.2 238.32L176.37 274.18L170.37 264.63L175.57 281.63L169 457.58Z" fill="#263238"/>
<path d="M179.31 354.29L179.45 349.41C178.26 349.41 176.57 349.82 176.57 351.62C176.57 353.11 178 353.89 179.31 354.29Z" fill="#808080"/>
<path d="M177.8 298.36C177.8 299.95 179.41 300.72 180.8 301.1L180.94 296.1C179.75 296.15 177.8 296.43 177.8 298.36Z" fill="#808080"/>
<path d="M176.88 320.84C176.88 322.54 178.73 323.31 180.16 323.65L180.3 318.65C179.19 318.58 176.88 318.73 176.88 320.84Z" fill="#808080"/>
<path d="M179.65 267.89C180.04 266.31 178.17 266.25 176.77 266.41L176.52 271.41C177.56 270.79 179.23 269.55 179.65 267.89Z" fill="#808080"/>
<path d="M173.49 428.89C173.49 430.75 175.7 431.5 177.16 431.79L177.3 426.72C176.5 426.63 173.49 426.49 173.49 428.89Z" fill="#808080"/>
<path d="M177.59 250.38L177.34 255.28C178.692 254.534 179.732 253.328 180.27 251.88C180.64 250.38 179 250.25 177.59 250.38Z" fill="#808080"/>
<path d="M179 236.18C179 237.85 180.8 238.62 182.22 238.97L182.08 233.97C180.93 234 179 234.27 179 236.18Z" fill="#808080"/>
<path d="M177 396.23C177.75 393.23 173.86 393.31 171.35 393.66L171.01 402.75C172.81 401.72 176.2 399.41 177 396.23Z" fill="#808080"/>
<path d="M177.8 405.8C177.8 405.8 173.8 405.19 173.8 407.96C173.8 409.96 176.3 410.66 177.74 410.96L177.87 406.22L177.8 405.8Z" fill="#808080"/>
<path d="M174.72 367.71C174.72 370.1 176.72 371.52 178.81 372.34L179.05 363.65C177 363.91 174.72 364.84 174.72 367.71Z" fill="#808080"/>
<path d="M172.64 359.05L172.46 363.92C173.792 363.178 174.814 361.982 175.34 360.55C175.72 359 174 358.92 172.64 359.05Z" fill="#808080"/>
<path d="M174.54 308.22L174.38 312.4C175.271 311.737 175.929 310.81 176.26 309.75C176.55 308.59 175.61 308.26 174.54 308.22Z" fill="#808080"/>
<path d="M175.34 386.72C175.82 384.81 172.96 385.12 171.66 385.36L171.46 390.66C172.06 390.36 174.79 388.91 175.34 386.72Z" fill="#808080"/>
<path d="M369.94 122.17C366.702 115.869 362.52 110.099 357.54 105.06C353.984 101.459 349.659 98.71 344.89 97.0181C340.12 95.3261 335.03 94.7353 330 95.29C309.73 97.58 304.17 123.44 298.43 139.15C284.68 176.71 267.66 232.4 319 248.8C341.12 255.87 371.49 248.8 380.37 225.1C388.06 204.59 387.94 182.03 383.29 160.85C380.52 148.46 376.43 134.35 369.94 122.17Z" fill="#39C023"/>
<path opacity="0.18" d="M369.94 122.17C366.702 115.869 362.52 110.099 357.54 105.06C353.984 101.459 349.659 98.71 344.89 97.0181C340.12 95.3261 335.03 94.7353 330 95.29C309.73 97.58 304.17 123.44 298.43 139.15C284.68 176.71 267.66 232.4 319 248.8C341.12 255.87 371.49 248.8 380.37 225.1C388.06 204.59 387.94 182.03 383.29 160.85C380.52 148.46 376.43 134.35 369.94 122.17Z" fill="black"/>
<path d="M325.13 429H332.61L340 217L349.59 188.13L339.49 207.13L341 188.57L357.17 155.66L341.59 176.21L340.27 127L338.15 157.32L330.52 152.79L337.21 162.92L335.39 198.78L329.34 189.23L334.54 206.23L325.13 429Z" fill="#263238"/>
<path d="M335.49 235.93C335.87 234.44 334.73 233.93 333.37 233.87L333.14 239.34C334.249 238.466 335.068 237.278 335.49 235.93Z" fill="#5C5C5C"/>
<path d="M329.86 321.15L329.61 327.72C331.02 326.82 332.98 325.23 333.5 323.17C334.02 321.11 331.71 321 329.86 321.15Z" fill="#5C5C5C"/>
<path d="M336.61 174.68L336.28 181.24C337.69 180.33 339.62 178.76 340.13 176.71C340.64 174.66 338.45 174.52 336.61 174.68Z" fill="#5C5C5C"/>
<path d="M334.74 254.71C334.841 254.384 334.841 254.036 334.74 253.71C336.168 252.341 337.204 250.615 337.74 248.71C338.5 245.71 335.74 244.98 332.92 245.02L332.37 258.12C333.484 257.247 334.31 256.059 334.74 254.71Z" fill="#5C5C5C"/>
<path d="M341.14 158.77L340.97 152.77C340.278 152.842 339.638 153.171 339.175 153.69C338.713 154.21 338.461 154.884 338.47 155.58C338.47 157.17 339.72 158.16 341.14 158.77Z" fill="#5C5C5C"/>
<path d="M333.73 203.52C334.317 202.94 334.801 202.264 335.16 201.52L335.08 203C336.49 202.14 338.75 200.47 339.3 198.24C339.85 196.01 337.39 196.03 335.51 196.24L335.39 198.69L335.31 198.56V199.25C334.75 198.59 333.47 198.5 332.31 198.58L333.73 203.52Z" fill="#5C5C5C"/>
<path d="M337.15 188.63C337.15 190.63 338.99 191.63 340.73 192.19L340.9 190.07L341.03 185.66C339.43 185.71 337.15 186.2 337.15 188.63Z" fill="#5C5C5C"/>
<path d="M328.27 363.75C329.08 363.35 332.76 361.39 333.5 358.44C334.14 355.86 330.29 356.28 328.5 356.6L328.27 363.75Z" fill="#5C5C5C"/>
<path d="M335.16 311.14C335.173 311.659 335.317 312.166 335.577 312.615C335.837 313.064 336.206 313.44 336.65 313.71L336.83 308.59C336.318 308.784 335.88 309.135 335.58 309.593C335.28 310.051 335.133 310.593 335.16 311.14Z" fill="#5C5C5C"/>
<path d="M338.48 261.62C337.31 261.51 333.42 261.38 333.42 264.56C333.42 266.23 334.74 267.23 336.21 267.83C335.773 268.333 335.544 268.984 335.57 269.65C335.57 271.21 336.73 272.19 338.09 272.8L338.48 261.62Z" fill="#5C5C5C"/>
<path d="M336.82 239.36C336.865 240.043 337.109 240.697 337.524 241.241C337.938 241.785 338.504 242.195 339.15 242.42L339.36 236.54C338.66 236.605 338.01 236.932 337.539 237.454C337.069 237.977 336.812 238.657 336.82 239.36Z" fill="#5C5C5C"/>
<path d="M339.53 207.15L339.7 204.97C337.18 205.46 334.7 206.82 334.7 210.31C334.7 213.54 337.35 215.44 340.21 216.56L340.52 205.36L339.53 207.15Z" fill="#5C5C5C"/>
<path d="M332.67 332.82C332.707 333.863 333.015 334.878 333.563 335.765C334.112 336.653 334.883 337.381 335.8 337.88L336.15 327.88C335.101 328.196 334.189 328.854 333.558 329.75C332.927 330.645 332.614 331.726 332.67 332.82Z" fill="#5C5C5C"/>
<path d="M334.54 374L334.74 368.36C333.17 367.36 330.27 367.54 328.12 367.84L327.66 380C330.382 378.553 332.736 376.5 334.54 374Z" fill="#5C5C5C"/>
<path d="M333.18 412.55C332.553 412.673 331.99 413.016 331.592 413.516C331.195 414.016 330.988 414.641 331.01 415.28C331.04 415.899 331.244 416.497 331.597 417.007C331.951 417.516 332.44 417.915 333.01 418.16L333.18 412.55Z" fill="#5C5C5C"/>
<path d="M331.42 387.07C331.42 388.64 332.6 389.62 333.97 390.23L334.18 384.23C332.81 384.45 331.42 385.17 331.42 387.07Z" fill="#5C5C5C"/>
<path d="M100.61 226.34C100.61 226.34 84.5596 230.79 75.9996 249.9C67.4396 269.01 81.2496 284.03 74.5796 303.06C67.9096 322.09 48.9996 331.67 65.8996 346.54C82.7996 361.41 104.25 338 115.59 340C126.93 342 127.82 362.57 158.66 353.72C189.5 344.87 179.66 318.45 167.84 306.47C156.02 294.49 165.2 274.73 157.17 248.22C151 227.88 122.73 217.87 100.61 226.34Z" fill="#39C023"/>
<path opacity="0.5" d="M100.61 226.34C100.61 226.34 84.5596 230.79 75.9996 249.9C67.4396 269.01 81.2496 284.03 74.5796 303.06C67.9096 322.09 48.9996 331.67 65.8996 346.54C82.7996 361.41 104.25 338 115.59 340C126.93 342 127.82 362.57 158.66 353.72C189.5 344.87 179.66 318.45 167.84 306.47C156.02 294.49 165.2 274.73 157.17 248.22C151 227.88 122.73 217.87 100.61 226.34Z" fill="white"/>
<path d="M113.16 470.03L118.4 318.63L82.3101 293.35L118.8 313.62L119.09 291.74L111.04 278.98L120.15 287.32L122.63 258.48L124.54 302.12L150.16 287.88L124.87 309.6L124.18 336.5L145.07 328.71L123.83 342.76L120.64 469.7L113.16 470.03Z" fill="#263238"/>
<path d="M121 333.81C121.996 334.348 123.148 334.524 124.26 334.31L124.38 329.74C123 330.47 119 332.81 121 333.81Z" fill="#808080"/>
<path d="M115.18 411.64L115.05 415.4V416.21C116.336 415.468 117.534 414.583 118.62 413.57C119.72 412.44 117.32 411.9 115.18 411.64Z" fill="#808080"/>
<path d="M116.59 370.75L116.45 374.97C117.56 374.299 118.596 373.511 119.54 372.62C120.59 371.57 118.59 371 116.59 370.75Z" fill="#808080"/>
<path d="M115.89 391.26C117.208 390.51 118.433 389.607 119.54 388.57C120.69 387.42 118.2 386.88 116.05 386.63L115.98 388.56L115.89 391.26Z" fill="#808080"/>
<path d="M118.94 303V305C119.932 304.384 120.857 303.667 121.7 302.86C122.7 301.86 120.91 301.31 118.99 301.02L118.94 303Z" fill="#808080"/>
<path d="M118.14 326.2C120.208 325.014 122.131 323.591 123.87 321.96C125.69 320.15 121.8 319.29 118.39 318.89L118.14 326.2Z" fill="#808080"/>
<path d="M120.73 381.19C121.388 381.53 122.11 381.728 122.85 381.77L122.95 377.77C121.3 378.81 119.16 380.41 120.73 381.19Z" fill="#808080"/>
<path d="M119.91 365.94C120.956 366.473 122.069 366.859 123.22 367.09L123.42 359.09C120 361.4 116.78 364.38 119.91 365.94Z" fill="#808080"/>
<path d="M119.27 398.41C120.24 398.92 121.315 399.197 122.41 399.22L122.55 393.62C120.27 395 117.06 397.3 119.27 398.41Z" fill="#808080"/>
<path d="M122.1 411.5L122.21 407.02C120.69 407.86 117.21 410.02 119.06 410.95C119.99 411.45 121.054 411.642 122.1 411.5Z" fill="#808080"/>
<path d="M117.28 351L117.13 355.42C118.343 354.712 119.47 353.866 120.49 352.9C121.59 351.76 119.36 351.21 117.28 351Z" fill="#808080"/>
<path d="M210.19 457.86C210.009 456.975 209.649 456.137 209.133 455.396C208.618 454.655 207.956 454.027 207.19 453.55C204.19 451.93 204.19 453.55 200.72 452.47C198.4 451.76 198.86 446.47 198.67 444.73C198.09 439.26 195.06 434.53 189.47 433.11C186.683 432.357 183.75 432.33 180.95 433.03C178.15 433.73 175.575 435.134 173.47 437.11C166.73 443.58 167.54 449.24 163.23 449.5C158.92 449.76 156.49 444.38 148.94 447.62C144.31 449.62 141.94 454.43 140.75 457.86H210.19Z" fill="#39C023"/>
<path opacity="0.5" d="M210.19 457.86C210.009 456.975 209.649 456.137 209.133 455.396C208.618 454.655 207.956 454.027 207.19 453.55C204.19 451.93 204.19 453.55 200.72 452.47C198.4 451.76 198.86 446.47 198.67 444.73C198.09 439.26 195.06 434.53 189.47 433.11C186.683 432.357 183.75 432.33 180.95 433.03C178.15 433.73 175.575 435.134 173.47 437.11C166.73 443.58 167.54 449.24 163.23 449.5C158.92 449.76 156.49 444.38 148.94 447.62C144.31 449.62 141.94 454.43 140.75 457.86H210.19Z" fill="white"/>
<path d="M156.15 457.76L152.87 454.78" stroke="#263238" stroke-linecap="round" stroke-linejoin="round"/>
<path d="M176.14 457.91L184.95 440.01" stroke="#263238" stroke-linecap="round" stroke-linejoin="round"/>
<path d="M180.47 441.35L181.51 447.17L188.53 443.29" stroke="#263238" stroke-linecap="round" stroke-linejoin="round"/>
<path d="M174.8 447.32L178.38 453.88L185.39 451.64" stroke="#263238" stroke-linecap="round" stroke-linejoin="round"/>
<path d="M154 470.61C153.25 467.67 151.48 463.3 147.35 461.05C140.77 457.46 140.77 461.05 133 458.66C127.85 457.07 128.87 445.47 128.45 441.5C127.16 429.35 120.45 418.85 108.03 415.72C95.4698 412.54 82.0298 415.52 72.6098 424.58C57.6698 438.93 59.4598 451.48 49.8898 452.08C40.3198 452.68 34.9998 440.72 18.2298 447.89C7.99982 452.3 2.64982 463 0.0698242 470.61H154Z" fill="#39C023"/>
<path d="M34.1599 470.39L26.8799 463.78" stroke="#263238" stroke-linecap="round" stroke-linejoin="round"/>
<path d="M78.5 470.73L98.03 431.01" stroke="#263238" stroke-linecap="round" stroke-linejoin="round"/>
<path d="M129.47 469.73L135.75 465.76" stroke="#263238" stroke-linecap="round" stroke-linejoin="round"/>
<path d="M88.0996 433.99L90.4196 446.9L105.97 438.29" stroke="#263238" stroke-linecap="round" stroke-linejoin="round"/>
<path d="M75.52 447.23L83.47 461.79L99.02 456.83" stroke="#263238" stroke-linecap="round" stroke-linejoin="round"/>
<path d="M33.8297 462.12L32.4997 469.4L25.2197 468.08" stroke="#263238" stroke-linecap="round" stroke-linejoin="round"/>
<path d="M131.45 468.08L130.46 464.44" stroke="#263238" stroke-linecap="round" stroke-linejoin="round"/>
<path d="M88.05 434.6C88.6409 434.6 89.12 434.121 89.12 433.53C89.12 432.939 88.6409 432.46 88.05 432.46C87.459 432.46 86.98 432.939 86.98 433.53C86.98 434.121 87.459 434.6 88.05 434.6Z" fill="#263238"/>
<path d="M99.0899 431C99.1038 431.213 99.0536 431.426 98.9457 431.61C98.8378 431.794 98.6772 431.942 98.4845 432.035C98.2918 432.127 98.0759 432.16 97.8646 432.128C97.6533 432.097 97.4562 432.003 97.2988 431.858C97.1414 431.714 97.0308 431.526 96.9813 431.318C96.9318 431.11 96.9456 430.892 97.021 430.692C97.0964 430.492 97.23 430.319 97.4044 430.196C97.5789 430.073 97.7863 430.004 97.9999 430C98.276 429.992 98.5445 430.092 98.7481 430.278C98.9517 430.465 99.0743 430.724 99.0899 431Z" fill="#263238"/>
<path d="M106.93 438.9C107.521 438.9 108 438.421 108 437.83C108 437.239 107.521 436.76 106.93 436.76C106.339 436.76 105.86 437.239 105.86 437.83C105.86 438.421 106.339 438.9 106.93 438.9Z" fill="#263238"/>
<path d="M100.67 456.64C100.672 456.852 100.61 457.061 100.494 457.238C100.377 457.416 100.21 457.554 100.014 457.636C99.8179 457.719 99.602 457.741 99.3935 457.7C99.185 457.659 98.9934 457.557 98.8432 457.406C98.6929 457.256 98.5908 457.065 98.5499 456.856C98.5089 456.648 98.5309 456.432 98.6131 456.236C98.6954 456.04 98.8341 455.873 99.0116 455.756C99.189 455.639 99.3973 455.578 99.6097 455.58C99.8901 455.582 100.158 455.695 100.356 455.893C100.555 456.091 100.667 456.36 100.67 456.64Z" fill="#263238"/>
<path d="M75.4196 448.11C76.0106 448.11 76.4896 447.631 76.4896 447.04C76.4896 446.449 76.0106 445.97 75.4196 445.97C74.8287 445.97 74.3496 446.449 74.3496 447.04C74.3496 447.631 74.8287 448.11 75.4196 448.11Z" fill="#263238"/>
<path d="M130.46 465.51C131.051 465.51 131.53 465.031 131.53 464.44C131.53 463.849 131.051 463.37 130.46 463.37C129.869 463.37 129.39 463.849 129.39 464.44C129.39 465.031 129.869 465.51 130.46 465.51Z" fill="#263238"/>
<path d="M136.77 465.53C136.772 465.742 136.711 465.95 136.594 466.127C136.478 466.304 136.312 466.443 136.116 466.526C135.921 466.608 135.706 466.631 135.497 466.591C135.289 466.55 135.097 466.449 134.947 466.3C134.796 466.151 134.693 465.96 134.651 465.752C134.609 465.545 134.63 465.329 134.71 465.133C134.791 464.937 134.928 464.769 135.104 464.651C135.281 464.533 135.488 464.47 135.7 464.47C135.982 464.47 136.253 464.581 136.453 464.78C136.653 464.978 136.767 465.248 136.77 465.53Z" fill="#263238"/>
<path d="M33.8298 463.19C34.4207 463.19 34.8998 462.711 34.8998 462.12C34.8998 461.529 34.4207 461.05 33.8298 461.05C33.2388 461.05 32.7598 461.529 32.7598 462.12C32.7598 462.711 33.2388 463.19 33.8298 463.19Z" fill="#263238"/>
<path d="M27.6 463.22C27.6 463.432 27.5372 463.638 27.4196 463.814C27.3021 463.99 27.1349 464.127 26.9394 464.208C26.7439 464.289 26.5288 464.311 26.3212 464.269C26.1137 464.228 25.923 464.126 25.7734 463.977C25.6237 463.827 25.5218 463.636 25.4805 463.429C25.4392 463.221 25.4604 463.006 25.5414 462.81C25.6224 462.615 25.7595 462.448 25.9355 462.33C26.1115 462.213 26.3183 462.15 26.53 462.15C26.8137 462.15 27.0859 462.263 27.2866 462.463C27.4872 462.664 27.6 462.936 27.6 463.22Z" fill="#263238"/>
<path d="M24.7497 469.09C25.3406 469.09 25.8197 468.611 25.8197 468.02C25.8197 467.429 25.3406 466.95 24.7497 466.95C24.1587 466.95 23.6797 467.429 23.6797 468.02C23.6797 468.611 24.1587 469.09 24.7497 469.09Z" fill="#263238"/>
<path d="M246.55 428.32C246.55 428.32 199.55 431.05 204.31 433.77C209.07 436.49 247.23 439.9 241.1 446.77C234.97 453.64 159.34 471.97 159.34 471.97" stroke="#263238" stroke-linecap="round" stroke-linejoin="round"/>
<path d="M272.44 428.32C272.44 428.32 254.72 431.05 257.44 433.09C260.16 435.13 383.44 437.86 375.98 473.29" stroke="#263238" stroke-linecap="round" stroke-linejoin="round"/>
<path d="M355.52 347.85C355.52 347.85 339.31 349.56 316.29 327.39C293.27 305.22 338.46 226.76 356.37 209.71C374.28 192.66 411 301.8 397.3 322.27C383.6 342.74 369.16 347 355.52 347.85Z" fill="#39C023"/>
<path d="M348.69 437.39L351.25 323.12L340.17 311.19L352.11 318.01V297.54L336.76 279.63L351.25 290.72L349.55 276.22L353.81 283.04L356.37 242.11L358.07 304.36L386.22 289.01L358.07 312.89V323.98V440.8" fill="#263238"/>
<path d="M354.94 388C355.66 386.2 351.07 386 349.85 385.93L349.73 391.39C351.33 390.75 354.34 389.47 354.94 388Z" fill="#808080"/>
<path d="M358.07 341.83C355.74 342.41 350.97 343.83 352.36 345.19C353.46 346.28 356.12 346.72 358.07 346.89V341.83Z" fill="#808080"/>
<path d="M355.28 357.22C356.01 355.4 350.54 355.4 350.54 355.4V355.49L350.43 360.29C351.72 359.83 354.71 358.64 355.28 357.22Z" fill="#808080"/>
<path d="M354.92 333.53C355.46 332.17 352.57 331.82 351.06 331.73L350.96 336.26C352.41 335.67 354.46 334.67 354.92 333.53Z" fill="#808080"/>
<path d="M349.55 412.86L349.19 415.39L349.12 418.53C350.37 418.11 354.25 416.67 354.94 414.93C355.77 412.86 349.55 412.86 349.55 412.86Z" fill="#808080"/>
<path d="M351.62 374.27C352.86 375.51 355.85 376 358.07 376.21V370.46C355.4 371.13 350.05 372.7 351.62 374.27Z" fill="#808080"/>
<path d="M352 321.5C353.16 322.66 356.1 323.08 358.07 323.23V318.05C355.92 318.56 350.53 320 352 321.5Z" fill="#808080"/>
<path d="M357.65 289C355.26 289.7 352.33 290.82 353.46 292C354.31 292.85 356.1 293.3 357.78 293.55L357.65 289Z" fill="#808080"/>
<path d="M358.07 397.43C355.4 398.1 350.07 399.67 351.62 401.24C352.86 402.48 355.85 402.98 358.07 403.18V397.43Z" fill="#808080"/>
<path d="M352.11 302.19V306.86C353.56 306.3 355.88 305.23 356.37 304C357 302.51 353.41 302.24 352.11 302.19Z" fill="#808080"/>
<path d="M411 438.64C411.74 431.89 406.25 424.64 399.3 424.29C393.06 423.99 386.2 428.18 381 424.72C376.75 421.89 376.66 415.85 376.18 410.72C375.7 405.59 374.3 400.51 370.98 396.72C367.66 392.93 362.08 390.72 357.32 392.46C347.73 395.99 347.14 411.72 337.32 414.62C330.54 416.62 323.47 410.99 316.51 412.24C307.99 413.76 304.14 423.19 297.6 427.8C296.92 428.28 294.08 430.34 290.82 432.72C288.09 434.72 285.07 436.93 282.82 438.64H411Z" fill="#39C023"/>
<path opacity="0.5" d="M411 438.64C411.74 431.89 406.25 424.64 399.3 424.29C393.06 423.99 386.2 428.18 381 424.72C376.75 421.89 376.66 415.85 376.18 410.72C375.7 405.59 374.3 400.51 370.98 396.72C367.66 392.93 362.08 390.72 357.32 392.46C347.73 395.99 347.14 411.72 337.32 414.62C330.54 416.62 323.47 410.99 316.51 412.24C307.99 413.76 304.14 423.19 297.6 427.8C296.92 428.28 294.08 430.34 290.82 432.72C288.09 434.72 285.07 436.93 282.82 438.64H411Z" fill="white"/>
<path d="M331.47 438.08L326.09 422.36" stroke="#263238" stroke-linecap="round" stroke-linejoin="round"/>
<path d="M350.5 438.5L361.67 408.3" stroke="#263238" stroke-linecap="round" stroke-linejoin="round"/>
<path d="M391.04 438.5L397.66 432.29" stroke="#263238" stroke-linecap="round" stroke-linejoin="round"/>
<path d="M329.99 434.36L333.54 424.85" stroke="#263238" stroke-linecap="round" stroke-linejoin="round"/>
<path d="M329.3 432.04L316.99 428.98" stroke="#263238" stroke-linecap="round" stroke-linejoin="round"/>
<path d="M358.36 417.4L355.05 412.02" stroke="#263238" stroke-linecap="round" stroke-linejoin="round"/>
<path d="M355.05 425.67L367.04 419.06" stroke="#263238" stroke-linecap="round" stroke-linejoin="round"/>
<path d="M351.47 436.17L362.49 432.29" stroke="#263238" stroke-linecap="round" stroke-linejoin="round"/>
<path d="M352.98 431.88L345.95 419.47" stroke="#263238" stroke-linecap="round" stroke-linejoin="round"/>
<path d="M362.73 408.3C362.73 408.512 362.667 408.719 362.549 408.895C362.431 409.072 362.263 409.209 362.067 409.289C361.871 409.37 361.655 409.391 361.447 409.349C361.24 409.307 361.049 409.204 360.9 409.053C360.75 408.902 360.649 408.711 360.609 408.503C360.569 408.294 360.592 408.079 360.674 407.884C360.757 407.688 360.895 407.522 361.073 407.405C361.25 407.289 361.458 407.228 361.67 407.23C361.81 407.23 361.949 407.258 362.078 407.312C362.207 407.366 362.324 407.445 362.423 407.544C362.522 407.644 362.599 407.762 362.652 407.891C362.705 408.021 362.731 408.16 362.73 408.3Z" fill="#263238"/>
<path d="M356 411.93C356 412.142 355.937 412.348 355.82 412.524C355.702 412.7 355.535 412.837 355.339 412.918C355.144 412.999 354.929 413.021 354.721 412.979C354.514 412.938 354.323 412.836 354.173 412.687C354.024 412.537 353.922 412.346 353.88 412.139C353.839 411.931 353.86 411.716 353.941 411.52C354.022 411.325 354.159 411.158 354.335 411.04C354.511 410.923 354.718 410.86 354.93 410.86C355.071 410.859 355.21 410.885 355.341 410.939C355.471 410.992 355.59 411.071 355.689 411.17C355.789 411.27 355.868 411.388 355.921 411.519C355.974 411.649 356.001 411.789 356 411.93Z" fill="#263238"/>
<path d="M367.04 420.13C367.631 420.13 368.11 419.651 368.11 419.06C368.11 418.469 367.631 417.99 367.04 417.99C366.449 417.99 365.97 418.469 365.97 419.06C365.97 419.651 366.449 420.13 367.04 420.13Z" fill="#263238"/>
<path d="M345.95 420.54C346.541 420.54 347.02 420.061 347.02 419.47C347.02 418.879 346.541 418.4 345.95 418.4C345.359 418.4 344.88 418.879 344.88 419.47C344.88 420.061 345.359 420.54 345.95 420.54Z" fill="#263238"/>
<path d="M363.05 433.2C363.641 433.2 364.12 432.721 364.12 432.13C364.12 431.539 363.641 431.06 363.05 431.06C362.459 431.06 361.98 431.539 361.98 432.13C361.98 432.721 362.459 433.2 363.05 433.2Z" fill="#263238"/>
<path d="M397.24 433.62C397.831 433.62 398.31 433.141 398.31 432.55C398.31 431.959 397.831 431.48 397.24 431.48C396.649 431.48 396.17 431.959 396.17 432.55C396.17 433.141 396.649 433.62 397.24 433.62Z" fill="#263238"/>
<path d="M327.16 422.36C327.162 422.572 327.101 422.78 326.985 422.957C326.868 423.134 326.702 423.273 326.506 423.356C326.311 423.438 326.096 423.461 325.887 423.421C325.679 423.381 325.488 423.279 325.337 423.13C325.186 422.981 325.083 422.79 325.041 422.583C324.999 422.375 325.02 422.159 325.1 421.963C325.181 421.767 325.318 421.599 325.494 421.481C325.671 421.363 325.878 421.3 326.09 421.3C326.372 421.3 326.643 421.411 326.843 421.61C327.043 421.808 327.157 422.078 327.16 422.36Z" fill="#263238"/>
<path d="M333.35 425.95C333.941 425.95 334.42 425.471 334.42 424.88C334.42 424.289 333.941 423.81 333.35 423.81C332.759 423.81 332.28 424.289 332.28 424.88C332.28 425.471 332.759 425.95 333.35 425.95Z" fill="#263238"/>
<path d="M316.99 430.05C317.581 430.05 318.06 429.571 318.06 428.98C318.06 428.389 317.581 427.91 316.99 427.91C316.399 427.91 315.92 428.389 315.92 428.98C315.92 429.571 316.399 430.05 316.99 430.05Z" fill="#263238"/>
<path d="M441.76 453.54C441.541 452.461 441.104 451.438 440.477 450.534C439.849 449.63 439.044 448.863 438.11 448.28C434.49 446.28 434.49 448.28 430.22 446.97C427.39 446.1 427.95 439.72 427.72 437.53C427.01 430.86 423.31 425.09 416.49 423.36C413.095 422.444 409.523 422.411 406.112 423.264C402.701 424.116 399.565 425.825 397 428.23C388.78 436.12 389.77 443.02 384.51 443.35C379.25 443.68 376.29 437.11 367.09 441.05C361.44 443.47 358.52 449.35 357.09 453.54H441.76Z" fill="#39C023"/>
<path d="M375.86 453.42L371.86 449.78" stroke="#263238" stroke-linecap="round" stroke-linejoin="round"/>
<path d="M400.24 453.6L410.98 431.77" stroke="#263238" stroke-linecap="round" stroke-linejoin="round"/>
<path d="M405.52 433.41L406.79 440.5L415.34 435.77" stroke="#263238" stroke-linecap="round" stroke-linejoin="round"/>
<path d="M398.61 440.69L402.97 448.69L411.52 445.96" stroke="#263238" stroke-linecap="round" stroke-linejoin="round"/>
</g>
<defs>
<clipPath id="clip0_2792_4110">
<rect width="436" height="500" fill="white"/>
</clipPath>
</defs>
</svg>
