<svg width="300" height="300" viewBox="0 0 300 300" fill="none" xmlns="http://www.w3.org/2000/svg">
<path d="M278.916 166.434C270.078 190.092 252.03 215.7 226.632 223.284C188.232 234.744 183.672 265.674 114.936 262.806C104.895 262.436 94.9248 260.976 85.2 258.45C80.4528 257.195 75.7895 255.642 71.238 253.8C31.08 237.534 10.134 201.738 8.40002 164.286C6.10802 115.02 40.476 91.542 62.814 77.796C85.152 64.05 112.074 10.8 179.664 13.062C189.986 13.3717 200.237 14.8696 210.216 17.526C232.962 23.682 256.08 37.296 269.52 57.198C270.528 58.698 271.492 60.226 272.412 61.782C290.4 92.292 290.958 134.178 278.916 166.434Z" fill="#90CAF9"/>
<path opacity="0.7" d="M278.916 166.434C270.078 190.092 252.03 215.7 226.632 223.284C188.232 234.744 183.672 265.674 114.936 262.806C104.895 262.436 94.9248 260.976 85.2 258.45C80.4528 257.195 75.7895 255.642 71.238 253.8C31.08 237.534 10.134 201.738 8.40002 164.286C6.10802 115.02 40.476 91.542 62.814 77.796C85.152 64.05 112.074 10.8 179.664 13.062C189.986 13.3717 200.237 14.8696 210.216 17.526C232.962 23.682 256.08 37.296 269.52 57.198C270.528 58.698 271.492 60.226 272.412 61.782C290.4 92.292 290.958 134.178 278.916 166.434Z" fill="white"/>
<path d="M53.4 282.798H287.4" stroke="#263238" stroke-linecap="round" stroke-linejoin="round"/>
<path d="M15.6 282.798H48" stroke="#263238" stroke-linecap="round" stroke-linejoin="round"/>
<g opacity="0.3">
<path d="M45.6 68.4C59.849 68.4 71.4 56.849 71.4 42.6C71.4 28.3511 59.849 16.8 45.6 16.8C31.3511 16.8 19.8 28.3511 19.8 42.6C19.8 56.849 31.3511 68.4 45.6 68.4Z" stroke="black" stroke-linecap="round" stroke-linejoin="round"/>
<path d="M45.6 64.8C57.8607 64.8 67.8 54.8607 67.8 42.6C67.8 30.3393 57.8607 20.4 45.6 20.4C33.3393 20.4 23.4 30.3393 23.4 42.6C23.4 54.8607 33.3393 64.8 45.6 64.8Z" stroke="black" stroke-linecap="round" stroke-linejoin="round"/>
<path d="M41.358 48.132L45.6 42.6L34.926 31.368" stroke="black" stroke-linecap="round" stroke-linejoin="round"/>
</g>
<g opacity="0.3">
<path d="M171.414 16.8V193.476H228.81V16.8H171.414ZM225.918 20.73V46.8001H202.032V20.724L225.918 20.73ZM198.462 20.73V46.8001H174.306V20.724L198.462 20.73ZM174.306 50.934H198.462V76.8001H174.306V50.934ZM225.906 189.534H174.306V81.3001H225.906V189.534ZM202.032 76.8001V50.934H225.918V76.8001H202.032Z" stroke="black" stroke-linecap="round" stroke-linejoin="round"/>
<path d="M228.6 16.8V193.476H285.99V16.8H228.6ZM283.098 20.73V46.8001H259.2V20.724L283.098 20.73ZM255.642 20.73V46.8001H231.474V20.724L255.642 20.73ZM231.474 50.934H255.63V76.8001H231.474V50.934ZM283.074 189.534H231.474V81.3001H283.074V189.534ZM259.2 76.8001V50.934H283.086V76.8001H259.2Z" stroke="black" stroke-linecap="round" stroke-linejoin="round"/>
<path d="M213.072 110.622L198.66 128.556" stroke="black" stroke-linecap="round" stroke-linejoin="round"/>
<path d="M216.648 106.17L214.356 109.026" stroke="black" stroke-linecap="round" stroke-linejoin="round"/>
<path d="M182.994 141.636L180.048 145.104" stroke="black" stroke-linecap="round" stroke-linejoin="round"/>
<path d="M202.134 119.148L185.208 139.038" stroke="black" stroke-linecap="round" stroke-linejoin="round"/>
<path d="M271.128 116.1L256.716 134.034" stroke="black" stroke-linecap="round" stroke-linejoin="round"/>
<path d="M274.704 111.648L272.412 114.498" stroke="black" stroke-linecap="round" stroke-linejoin="round"/>
<path d="M241.056 147.108L238.104 150.576" stroke="black" stroke-linecap="round" stroke-linejoin="round"/>
<path d="M260.19 124.626L243.264 144.516" stroke="black" stroke-linecap="round" stroke-linejoin="round"/>
<path d="M277.782 24.822L270.882 33.402" stroke="black" stroke-linecap="round" stroke-linejoin="round"/>
<path d="M279.492 22.692L278.4 24.054" stroke="black" stroke-linecap="round" stroke-linejoin="round"/>
<path d="M263.388 39.666L261.972 41.322" stroke="black" stroke-linecap="round" stroke-linejoin="round"/>
<path d="M272.544 28.9021L264.444 38.4241" stroke="black" stroke-linecap="round" stroke-linejoin="round"/>
<path d="M250.866 24.822L243.972 33.402" stroke="black" stroke-linecap="round" stroke-linejoin="round"/>
<path d="M252.582 22.692L251.484 24.054" stroke="black" stroke-linecap="round" stroke-linejoin="round"/>
<path d="M236.472 39.666L235.062 41.322" stroke="black" stroke-linecap="round" stroke-linejoin="round"/>
<path d="M245.634 28.9021L237.534 38.4241" stroke="black" stroke-linecap="round" stroke-linejoin="round"/>
<path d="M250.866 56.9761L243.972 65.5621" stroke="black" stroke-linecap="round" stroke-linejoin="round"/>
<path d="M252.582 54.8461L251.484 56.2141" stroke="black" stroke-linecap="round" stroke-linejoin="round"/>
<path d="M236.472 71.8201L235.062 73.4821" stroke="black" stroke-linecap="round" stroke-linejoin="round"/>
<path d="M245.634 61.056L237.534 70.578" stroke="black" stroke-linecap="round" stroke-linejoin="round"/>
<path d="M274.872 56.9761L267.978 65.5621" stroke="black" stroke-linecap="round" stroke-linejoin="round"/>
<path d="M276.582 54.8461L275.49 56.2141" stroke="black" stroke-linecap="round" stroke-linejoin="round"/>
<path d="M260.478 71.8201L259.062 73.4821" stroke="black" stroke-linecap="round" stroke-linejoin="round"/>
<path d="M269.634 61.056L261.534 70.578" stroke="black" stroke-linecap="round" stroke-linejoin="round"/>
<path d="M221.046 24.822L214.152 33.402" stroke="black" stroke-linecap="round" stroke-linejoin="round"/>
<path d="M222.756 22.692L221.664 24.054" stroke="black" stroke-linecap="round" stroke-linejoin="round"/>
<path d="M206.652 39.666L205.236 41.322" stroke="black" stroke-linecap="round" stroke-linejoin="round"/>
<path d="M215.808 28.9021L207.708 38.4241" stroke="black" stroke-linecap="round" stroke-linejoin="round"/>
<path d="M221.046 56.2321L214.152 64.8121" stroke="black" stroke-linecap="round" stroke-linejoin="round"/>
<path d="M222.756 54.1021L221.664 55.4641" stroke="black" stroke-linecap="round" stroke-linejoin="round"/>
<path d="M206.652 71.076L205.236 72.7321" stroke="black" stroke-linecap="round" stroke-linejoin="round"/>
<path d="M215.808 60.312L207.708 69.834" stroke="black" stroke-linecap="round" stroke-linejoin="round"/>
<path d="M194.862 56.2321L187.962 64.8121" stroke="black" stroke-linecap="round" stroke-linejoin="round"/>
<path d="M196.572 54.1021L195.474 55.4641" stroke="black" stroke-linecap="round" stroke-linejoin="round"/>
<path d="M180.468 71.076L179.052 72.7321" stroke="black" stroke-linecap="round" stroke-linejoin="round"/>
<path d="M189.624 60.312L181.524 69.834" stroke="black" stroke-linecap="round" stroke-linejoin="round"/>
<path d="M193.044 24.822L186.144 33.402" stroke="black" stroke-linecap="round" stroke-linejoin="round"/>
<path d="M194.754 22.692L193.656 24.054" stroke="black" stroke-linecap="round" stroke-linejoin="round"/>
<path d="M178.65 39.666L177.234 41.322" stroke="black" stroke-linecap="round" stroke-linejoin="round"/>
<path d="M187.806 28.9021L179.706 38.4241" stroke="black" stroke-linecap="round" stroke-linejoin="round"/>
</g>
<path d="M205.8 124.8H202.548V140.4H205.8V124.8Z" fill="#263238" stroke="#263238" stroke-linecap="round" stroke-linejoin="round"/>
<path d="M94.5 109.146L92.082 113.34L117.246 156.924H122.082L94.5 109.146Z" fill="#263238" stroke="#263238" stroke-linecap="round" stroke-linejoin="round"/>
<path d="M165.6 166.434L162.978 168.342L186.384 185.346L176.442 215.94H181.686L191.628 185.346L165.6 166.434Z" fill="#263238" stroke="#263238" stroke-linecap="round" stroke-linejoin="round"/>
<path d="M63.918 32.6281H54.57V226.8H63.918V32.6281Z" fill="#263238" stroke="#263238" stroke-linecap="round" stroke-linejoin="round"/>
<path d="M58.2 32.6281V226.8H216.6V32.6281H58.2ZM66.918 156.924L94.518 109.152L122.118 156.924H66.918ZM181.686 215.94H149.514L139.578 185.34L165.6 166.434L191.622 185.346L181.686 215.94ZM205.8 140.4H123.6V124.8H205.8V140.4Z" fill="white" stroke="#263238" stroke-linecap="round" stroke-linejoin="round"/>
<path d="M120.6 49.2001H72.6V97.2001H120.6V49.2001Z" fill="#90CAF9" stroke="#263238" stroke-linecap="round" stroke-linejoin="round"/>
<path d="M165 97.2C178.586 97.2 189.6 86.1862 189.6 72.6C189.6 59.0138 178.586 48 165 48C151.414 48 140.4 59.0138 140.4 72.6C140.4 86.1862 151.414 97.2 165 97.2Z" fill="#90CAF9" stroke="#263238" stroke-linecap="round" stroke-linejoin="round"/>
<path d="M96.6 166.932L104.496 182.934L122.154 185.496L109.374 197.952L112.392 215.538L96.6 207.234L80.808 215.538L83.826 197.952L71.046 185.496L88.704 182.934L96.6 166.932Z" fill="#90CAF9" stroke="#263238" stroke-linecap="round" stroke-linejoin="round"/>
<path d="M16.5061 178.212L24.7261 256.974" stroke="#263238" stroke-width="2" stroke-linecap="round" stroke-linejoin="round"/>
<path d="M23.4001 241.902L19.6741 237.966" stroke="#263238" stroke-width="2" stroke-linecap="round" stroke-linejoin="round"/>
<path d="M20.808 239.142C20.7992 238.54 20.6619 237.946 20.4053 237.4C20.1487 236.855 19.7787 236.371 19.32 235.98C18.366 235.128 13.32 233.01 12.852 234.78C12.336 236.712 17.49 240.498 20.808 239.142Z" fill="#90CAF9" stroke="#263238" stroke-linecap="round" stroke-linejoin="round"/>
<path d="M20.808 239.142L16.014 236.16" stroke="#263238" stroke-width="0.5" stroke-linecap="round" stroke-linejoin="round"/>
<path d="M24.3361 250.86L20.6101 246.924" stroke="#263238" stroke-width="2" stroke-linecap="round" stroke-linejoin="round"/>
<path d="M21.7381 248.1C21.7323 247.498 21.597 246.903 21.3413 246.358C21.0856 245.812 20.7155 245.328 20.2561 244.938C19.3021 244.086 14.2561 241.938 13.7881 243.738C13.2721 245.67 18.4201 249.456 21.7381 248.1Z" fill="#90CAF9" stroke="#263238" stroke-linecap="round" stroke-linejoin="round"/>
<path d="M21.7381 248.1L16.9501 245.112" stroke="#263238" stroke-width="0.5" stroke-linecap="round" stroke-linejoin="round"/>
<path d="M21.12 220.044L17.394 216.108" stroke="#263238" stroke-width="2" stroke-linecap="round" stroke-linejoin="round"/>
<path d="M18.522 217.284C18.5163 216.682 18.3809 216.087 18.1252 215.542C17.8695 214.996 17.4994 214.512 17.04 214.122C16.086 213.27 11.04 211.152 10.572 212.922C10.056 214.854 15.204 218.64 18.522 217.284Z" fill="#90CAF9" stroke="#263238" stroke-linecap="round" stroke-linejoin="round"/>
<path d="M18.522 217.284L13.734 214.296" stroke="#263238" stroke-width="0.5" stroke-linecap="round" stroke-linejoin="round"/>
<path d="M22.0561 229.002L18.3301 225.066" stroke="#263238" stroke-width="2" stroke-linecap="round" stroke-linejoin="round"/>
<path d="M19.458 226.242C19.4553 225.641 19.3237 225.048 19.0721 224.503C18.8206 223.957 18.455 223.472 18 223.08C17.046 222.228 12 220.11 11.532 221.88C10.986 223.8 16.14 227.598 19.458 226.242Z" fill="#90CAF9" stroke="#263238" stroke-linecap="round" stroke-linejoin="round"/>
<path d="M19.458 226.242L14.67 223.254" stroke="#263238" stroke-width="0.5" stroke-linecap="round" stroke-linejoin="round"/>
<path d="M19.6021 205.488L15.8761 201.552" stroke="#263238" stroke-width="2" stroke-linecap="round" stroke-linejoin="round"/>
<path d="M17.0041 202.734C16.9983 202.132 16.863 201.537 16.6073 200.992C16.3516 200.446 15.9814 199.962 15.5221 199.572C14.5681 198.72 9.52207 196.602 9.05407 198.372C8.53807 200.304 13.6861 204.09 17.0041 202.734Z" fill="#90CAF9" stroke="#263238" stroke-linecap="round" stroke-linejoin="round"/>
<path d="M17.0041 202.734L12.2161 199.746" stroke="#263238" stroke-width="0.5" stroke-linecap="round" stroke-linejoin="round"/>
<path d="M18.0721 190.878L14.3461 186.942" stroke="#263238" stroke-width="2" stroke-linecap="round" stroke-linejoin="round"/>
<path d="M15.4801 188.118C15.4743 187.516 15.339 186.921 15.0833 186.376C14.8275 185.83 14.4574 185.346 13.9981 184.956C13.0441 184.104 7.99806 181.986 7.53006 183.756C7.00806 185.688 12.1621 189.474 15.4801 188.118Z" fill="#90CAF9" stroke="#263238" stroke-linecap="round" stroke-linejoin="round"/>
<path d="M15.48 188.118L10.686 185.13" stroke="#263238" stroke-width="0.5" stroke-linecap="round" stroke-linejoin="round"/>
<path d="M22.776 236.598L25.608 231.978" stroke="#263238" stroke-width="2" stroke-linecap="round" stroke-linejoin="round"/>
<path d="M24.744 233.4C24.6274 232.809 24.6383 232.2 24.7759 231.613C24.9135 231.026 25.1747 230.476 25.542 229.998C26.304 228.966 30.792 225.852 31.62 227.49C32.532 229.236 28.272 234 24.744 233.4Z" fill="#90CAF9" stroke="#263238" stroke-linecap="round" stroke-linejoin="round"/>
<path d="M24.744 233.37L29.058 229.242" stroke="#263238" stroke-width="0.5" stroke-linecap="round" stroke-linejoin="round"/>
<path d="M20.316 213.03L23.148 208.41" stroke="#263238" stroke-width="2" stroke-linecap="round" stroke-linejoin="round"/>
<path d="M22.2841 209.796C22.1684 209.206 22.1797 208.598 22.3173 208.012C22.4549 207.427 22.7156 206.877 23.0821 206.4C23.8381 205.368 28.3321 202.254 29.1601 203.892C30.0721 205.668 25.8001 210.438 22.2841 209.796Z" fill="#90CAF9" stroke="#263238" stroke-linecap="round" stroke-linejoin="round"/>
<path d="M22.2841 209.796L26.5981 205.668" stroke="#263238" stroke-width="0.5" stroke-linecap="round" stroke-linejoin="round"/>
<path d="M19.2301 202.668L22.0681 198.048" stroke="#263238" stroke-width="2" stroke-linecap="round" stroke-linejoin="round"/>
<path d="M21.2041 199.434C21.086 198.844 21.0961 198.235 21.2338 197.649C21.3715 197.063 21.6335 196.514 22.0021 196.038C22.7581 195.006 27.2461 191.892 28.0801 193.53C28.9861 195.306 24.7261 200.076 21.2041 199.434Z" fill="#90CAF9" stroke="#263238" stroke-linecap="round" stroke-linejoin="round"/>
<path d="M21.2041 199.434L25.5181 195.312" stroke="#263238" stroke-width="0.5" stroke-linecap="round" stroke-linejoin="round"/>
<path d="M17.646 187.482L20.484 182.862" stroke="#263238" stroke-width="2" stroke-linecap="round" stroke-linejoin="round"/>
<path d="M19.614 184.248C19.4943 183.659 19.5025 183.051 19.6381 182.465C19.7737 181.879 20.0335 181.329 20.4 180.852C21.156 179.814 25.644 176.706 26.478 178.344C27.402 180.12 23.142 184.89 19.614 184.248Z" fill="#90CAF9" stroke="#263238" stroke-linecap="round" stroke-linejoin="round"/>
<path d="M19.614 184.248L23.934 180.126" stroke="#263238" stroke-width="0.5" stroke-linecap="round" stroke-linejoin="round"/>
<path d="M16.4341 177.774C16.3175 177.183 16.3283 176.574 16.4659 175.987C16.6036 175.4 16.8647 174.85 17.2321 174.372C17.9941 173.34 22.4821 170.226 23.3161 171.864C24.2221 173.646 19.9621 178.41 16.4341 177.774Z" fill="#90CAF9" stroke="#263238" stroke-linecap="round" stroke-linejoin="round"/>
<path d="M16.4341 177.774L20.7541 173.646" stroke="#263238" stroke-width="0.5" stroke-linecap="round" stroke-linejoin="round"/>
<path d="M16.6861 177.948C16.087 178.004 15.4828 177.931 14.9145 177.733C14.3462 177.535 13.827 177.218 13.3921 176.802C12.4441 175.938 9.79206 171.144 11.5321 170.49C13.3981 169.8 17.6941 174.51 16.6861 177.948Z" fill="#90CAF9" stroke="#263238" stroke-linecap="round" stroke-linejoin="round"/>
<path d="M16.6861 177.948L13.0381 173.226" stroke="#263238" stroke-width="0.5" stroke-linecap="round" stroke-linejoin="round"/>
<path d="M38.1841 189.054L30.0121 267.828" stroke="#263238" stroke-width="2" stroke-linecap="round" stroke-linejoin="round"/>
<path d="M31.818 252.804L28.98 248.184" stroke="#263238" stroke-width="2" stroke-linecap="round" stroke-linejoin="round"/>
<path d="M29.8501 249.6C29.9673 249.009 29.9562 248.4 29.8175 247.815C29.6788 247.229 29.4157 246.679 29.0461 246.204C28.2901 245.172 23.7961 242.058 22.9621 243.696C22.0621 245.448 26.3221 250.2 29.8501 249.6Z" fill="#90CAF9" stroke="#263238" stroke-linecap="round" stroke-linejoin="round"/>
<path d="M29.85 249.57L25.776 245.664" stroke="#263238" stroke-width="0.5" stroke-linecap="round" stroke-linejoin="round"/>
<path d="M34.086 230.94L31.254 226.326" stroke="#263238" stroke-width="2" stroke-linecap="round" stroke-linejoin="round"/>
<path d="M32.118 227.712C32.2361 227.121 32.2255 226.511 32.0868 225.923C31.948 225.336 31.6845 224.786 31.314 224.31C30.558 223.278 26.064 220.17 25.23 221.808C24.33 223.584 28.59 228.354 32.118 227.712Z" fill="#90CAF9" stroke="#263238" stroke-linecap="round" stroke-linejoin="round"/>
<path d="M32.1181 227.712L28.0441 223.8" stroke="#263238" stroke-width="0.5" stroke-linecap="round" stroke-linejoin="round"/>
<path d="M33.156 239.898L30.324 235.284" stroke="#263238" stroke-width="2" stroke-linecap="round" stroke-linejoin="round"/>
<path d="M31.2 236.67C31.3182 236.079 31.3075 235.469 31.1688 234.881C31.0301 234.294 30.7665 233.744 30.396 233.268C29.64 232.236 25.146 229.128 24.318 230.766C23.4 232.548 27.66 237.312 31.2 236.67Z" fill="#90CAF9" stroke="#263238" stroke-linecap="round" stroke-linejoin="round"/>
<path d="M31.188 236.67L27.114 232.758" stroke="#263238" stroke-width="0.5" stroke-linecap="round" stroke-linejoin="round"/>
<path d="M35.5981 216.39L32.7601 211.77" stroke="#263238" stroke-width="2" stroke-linecap="round" stroke-linejoin="round"/>
<path d="M33.6001 213.156C33.7182 212.566 33.708 211.957 33.5703 211.371C33.4326 210.785 33.1706 210.236 32.8021 209.76C32.0401 208.728 27.5521 205.62 26.7181 207.252C25.8361 209.034 30.1021 213.804 33.6001 213.156Z" fill="#90CAF9" stroke="#263238" stroke-linecap="round" stroke-linejoin="round"/>
<path d="M33.624 213.156L29.55 209.25" stroke="#263238" stroke-width="0.5" stroke-linecap="round" stroke-linejoin="round"/>
<path d="M37.1161 201.774L34.2781 197.154" stroke="#263238" stroke-width="2" stroke-linecap="round" stroke-linejoin="round"/>
<path d="M35.1421 198.54C35.2602 197.95 35.25 197.341 35.1123 196.755C34.9747 196.169 34.7127 195.62 34.3441 195.144C33.5821 194.112 29.0941 191.004 28.2601 192.642C27.3541 194.4 31.6141 199.2 35.1421 198.54Z" fill="#90CAF9" stroke="#263238" stroke-linecap="round" stroke-linejoin="round"/>
<path d="M35.1421 198.54L31.0681 194.634" stroke="#263238" stroke-width="0.5" stroke-linecap="round" stroke-linejoin="round"/>
<path d="M32.298 247.488L36.024 243.546" stroke="#263238" stroke-width="2" stroke-linecap="round" stroke-linejoin="round"/>
<path d="M34.8901 244.728C34.8958 244.126 35.0312 243.531 35.2869 242.986C35.5426 242.44 35.9127 241.956 36.3721 241.566C37.3261 240.714 42.3721 238.566 42.8401 240.366C43.3621 242.292 38.2081 246.084 34.8901 244.728Z" fill="#90CAF9" stroke="#263238" stroke-linecap="round" stroke-linejoin="round"/>
<path d="M34.8901 244.728L39.9601 241.584" stroke="#263238" stroke-width="0.5" stroke-linecap="round" stroke-linejoin="round"/>
<path d="M34.746 223.914L38.466 219.972" stroke="#263238" stroke-width="2" stroke-linecap="round" stroke-linejoin="round"/>
<path d="M37.3381 221.154C37.3438 220.552 37.4792 219.957 37.7349 219.412C37.9906 218.866 38.3607 218.382 38.8201 217.992C39.7741 217.14 44.8201 214.992 45.2821 216.792C45.8041 218.718 40.6561 222.51 37.3381 221.154Z" fill="#90CAF9" stroke="#263238" stroke-linecap="round" stroke-linejoin="round"/>
<path d="M37.3381 221.154L42.4081 218.004" stroke="#263238" stroke-width="0.5" stroke-linecap="round" stroke-linejoin="round"/>
<path d="M35.8201 213.552L39.5401 209.616" stroke="#263238" stroke-width="2" stroke-linecap="round" stroke-linejoin="round"/>
<path d="M38.4001 210.792C38.4067 210.191 38.5424 209.597 38.7981 209.053C39.0538 208.508 39.4235 208.025 39.8821 207.636C40.8361 206.778 45.8821 204.636 46.3501 206.436C46.8781 208.356 41.7301 212.148 38.4001 210.792Z" fill="#90CAF9" stroke="#263238" stroke-linecap="round" stroke-linejoin="round"/>
<path d="M38.412 210.792L43.4821 207.648" stroke="#263238" stroke-width="0.5" stroke-linecap="round" stroke-linejoin="round"/>
<path d="M37.392 198.366L41.118 194.43" stroke="#263238" stroke-width="2" stroke-linecap="round" stroke-linejoin="round"/>
<path d="M39.9901 195.6C39.9951 194.998 40.1295 194.404 40.3841 193.859C40.6388 193.313 41.0078 192.829 41.4661 192.438C42.4261 191.586 47.4661 189.438 47.9341 191.238C48.456 193.2 43.3081 196.962 39.9901 195.6Z" fill="#90CAF9" stroke="#263238" stroke-linecap="round" stroke-linejoin="round"/>
<path d="M39.9901 195.606L45.06 192.462" stroke="#263238" stroke-width="0.5" stroke-linecap="round" stroke-linejoin="round"/>
<path d="M38.2081 188.616C38.2138 188.013 38.3492 187.419 38.6049 186.874C38.8606 186.328 39.2307 185.844 39.6901 185.454C40.6441 184.596 45.6901 182.454 46.1581 184.254C46.6801 186.18 41.5261 189.966 38.2081 188.616Z" fill="#90CAF9" stroke="#263238" stroke-linecap="round" stroke-linejoin="round"/>
<path d="M38.2081 188.616L43.2781 185.466" stroke="#263238" stroke-width="0.5" stroke-linecap="round" stroke-linejoin="round"/>
<path d="M38.4 188.838C37.8 188.771 37.2214 188.576 36.7037 188.265C36.186 187.955 35.7413 187.536 35.4 187.038C34.65 185.994 33.072 180.768 34.884 180.48C36.882 180.162 40.11 185.682 38.4 188.838Z" fill="#90CAF9" stroke="#263238" stroke-linecap="round" stroke-linejoin="round"/>
<path d="M38.4181 188.838L35.8201 183.468" stroke="#263238" stroke-width="0.5" stroke-linecap="round" stroke-linejoin="round"/>
<path d="M28.8181 156.984V256.59" stroke="#263238" stroke-width="2" stroke-linecap="round" stroke-linejoin="round"/>
<path d="M28.8961 241.614L25.6021 237.312" stroke="#263238" stroke-width="2" stroke-linecap="round" stroke-linejoin="round"/>
<path d="M26.604 238.602C26.661 238.002 26.5881 237.397 26.3904 236.827C26.1926 236.258 25.8747 235.738 25.458 235.302C24.594 234.354 19.806 231.702 19.146 233.442C18.432 235.302 23.16 239.604 26.604 238.602Z" fill="#90CAF9" stroke="#263238" stroke-linecap="round" stroke-linejoin="round"/>
<path d="M26.604 238.602L22.146 235.134" stroke="#263238" stroke-width="0.5" stroke-linecap="round" stroke-linejoin="round"/>
<path d="M28.8961 222.894L25.6021 218.592" stroke="#263238" stroke-width="2" stroke-linecap="round" stroke-linejoin="round"/>
<path d="M26.604 219.882C26.6583 219.285 26.5842 218.683 26.3865 218.117C26.1888 217.551 25.8722 217.034 25.458 216.6C24.594 215.646 19.806 213 19.146 214.734C18.432 216.6 23.16 220.884 26.604 219.882Z" fill="#90CAF9" stroke="#263238" stroke-linecap="round" stroke-linejoin="round"/>
<path d="M26.604 219.882L22.146 216.414" stroke="#263238" stroke-width="0.5" stroke-linecap="round" stroke-linejoin="round"/>
<path d="M28.8961 200.916L25.6021 196.614" stroke="#263238" stroke-width="2" stroke-linecap="round" stroke-linejoin="round"/>
<path d="M26.604 197.904C26.6601 197.305 26.5868 196.701 26.3891 196.133C26.1914 195.564 25.8738 195.045 25.458 194.61C24.594 193.656 19.806 191.01 19.146 192.744C18.432 194.61 23.16 198.912 26.604 197.904Z" fill="#90CAF9" stroke="#263238" stroke-linecap="round" stroke-linejoin="round"/>
<path d="M26.604 197.904L22.146 194.436" stroke="#263238" stroke-width="0.5" stroke-linecap="round" stroke-linejoin="round"/>
<path d="M28.8961 186.288L25.6021 181.986" stroke="#263238" stroke-width="2" stroke-linecap="round" stroke-linejoin="round"/>
<path d="M26.604 183.276C26.661 182.676 26.5881 182.071 26.3904 181.501C26.1926 180.932 25.8747 180.412 25.458 179.976C24.594 179.028 19.806 176.376 19.146 178.116C18.432 180 23.16 184.278 26.604 183.276Z" fill="#90CAF9" stroke="#263238" stroke-linecap="round" stroke-linejoin="round"/>
<path d="M26.604 183.276L22.146 179.808" stroke="#263238" stroke-width="0.5" stroke-linecap="round" stroke-linejoin="round"/>
<path d="M28.8961 171.594L25.6021 167.292" stroke="#263238" stroke-width="2" stroke-linecap="round" stroke-linejoin="round"/>
<path d="M26.604 168.6C26.661 168 26.5881 167.395 26.3904 166.825C26.1926 166.256 25.8747 165.736 25.458 165.3C24.594 164.352 19.806 161.7 19.146 163.44C18.432 165.282 23.16 169.584 26.604 168.6Z" fill="#90CAF9" stroke="#263238" stroke-linecap="round" stroke-linejoin="round"/>
<path d="M26.604 168.582L22.146 165.114" stroke="#263238" stroke-width="0.5" stroke-linecap="round" stroke-linejoin="round"/>
<path d="M28.824 247.332L32.124 243.03" stroke="#263238" stroke-width="2" stroke-linecap="round" stroke-linejoin="round"/>
<path d="M31.1221 244.32C31.0651 243.72 31.138 243.115 31.3357 242.545C31.5334 241.976 31.8514 241.456 32.2681 241.02C33.1321 240.072 37.9141 237.42 38.5741 239.154C39.2941 241.02 34.5601 245.322 31.1221 244.32Z" fill="#90CAF9" stroke="#263238" stroke-linecap="round" stroke-linejoin="round"/>
<path d="M31.1221 244.32L35.8381 240.666" stroke="#263238" stroke-width="0.5" stroke-linecap="round" stroke-linejoin="round"/>
<path d="M28.824 217.56L32.124 213.258" stroke="#263238" stroke-width="2" stroke-linecap="round" stroke-linejoin="round"/>
<path d="M31.1221 214.548C31.0651 213.948 31.138 213.343 31.3357 212.773C31.5334 212.204 31.8514 211.684 32.2681 211.248C33.1321 210.3 37.9141 207.648 38.5741 209.382C39.2941 211.248 34.5601 215.55 31.1221 214.548Z" fill="#90CAF9" stroke="#263238" stroke-linecap="round" stroke-linejoin="round"/>
<path d="M31.1221 214.548L35.8381 210.894" stroke="#263238" stroke-width="0.5" stroke-linecap="round" stroke-linejoin="round"/>
<path d="M28.824 202.866L32.124 198.564" stroke="#263238" stroke-width="2" stroke-linecap="round" stroke-linejoin="round"/>
<path d="M31.1221 199.854C31.0651 199.254 31.138 198.649 31.3357 198.079C31.5334 197.51 31.8514 196.99 32.2681 196.554C33.1321 195.606 37.9141 192.954 38.5741 194.688C39.2941 196.554 34.5601 200.856 31.1221 199.854Z" fill="#90CAF9" stroke="#263238" stroke-linecap="round" stroke-linejoin="round"/>
<path d="M31.1221 199.854L35.8381 196.2" stroke="#263238" stroke-width="0.5" stroke-linecap="round" stroke-linejoin="round"/>
<path d="M28.824 183.444L32.124 179.142" stroke="#263238" stroke-width="2" stroke-linecap="round" stroke-linejoin="round"/>
<path d="M31.1221 180.432C31.0651 179.832 31.138 179.227 31.3357 178.657C31.5334 178.088 31.8514 177.568 32.2681 177.132C33.1321 176.184 37.9141 173.532 38.5741 175.266C39.2941 177.132 34.5601 181.434 31.1221 180.432Z" fill="#90CAF9" stroke="#263238" stroke-linecap="round" stroke-linejoin="round"/>
<path d="M31.1221 180.432L35.8381 176.778" stroke="#263238" stroke-width="0.5" stroke-linecap="round" stroke-linejoin="round"/>
<path d="M28.824 168.174L32.124 163.872" stroke="#263238" stroke-width="2" stroke-linecap="round" stroke-linejoin="round"/>
<path d="M31.1221 165.162C31.0651 164.562 31.138 163.957 31.3357 163.387C31.5334 162.818 31.8514 162.298 32.2681 161.862C33.1321 160.914 37.9141 158.262 38.5741 160.002C39.2941 161.862 34.5601 166.164 31.1221 165.162Z" fill="#90CAF9" stroke="#263238" stroke-linecap="round" stroke-linejoin="round"/>
<path d="M31.1221 165.162L35.8381 161.508" stroke="#263238" stroke-width="0.5" stroke-linecap="round" stroke-linejoin="round"/>
<path d="M28.6261 158.4C28.57 157.801 28.6433 157.197 28.841 156.628C29.0387 156.06 29.3562 155.541 29.7721 155.106C30.6361 154.152 35.4241 151.506 36.0841 153.24C36.7981 155.094 32.0701 159.39 28.6261 158.4Z" fill="#90CAF9" stroke="#263238" stroke-linecap="round" stroke-linejoin="round"/>
<path d="M28.626 158.388L33.348 154.734" stroke="#263238" stroke-width="0.5" stroke-linecap="round" stroke-linejoin="round"/>
<path d="M28.8601 158.592C28.2574 158.584 27.6635 158.446 27.1182 158.19C26.5729 157.933 26.0887 157.563 25.6981 157.104C24.8461 156.15 22.7341 151.104 24.4981 150.636C26.4361 150.12 30.2161 155.274 28.8601 158.592Z" fill="#90CAF9" stroke="#263238" stroke-linecap="round" stroke-linejoin="round"/>
<path d="M28.8601 158.592L25.7161 153.516" stroke="#263238" stroke-width="0.5" stroke-linecap="round" stroke-linejoin="round"/>
<path d="M32.9161 282.426H22.3681L21.0481 255.786H34.2361L32.9161 282.426Z" fill="#263238" stroke="#263238" stroke-linecap="round" stroke-linejoin="round"/>
<path d="M201.6 267.198H119.4V282.798H201.6V267.198Z" fill="#263238" stroke="#263238" stroke-linecap="round" stroke-linejoin="round"/>
<path d="M201.6 267.198H122.4V282.798H201.6V267.198Z" fill="white" stroke="#263238" stroke-linecap="round" stroke-linejoin="round"/>
<path d="M85.2 233.298L59.178 252.204L69.114 282.798H101.286L88.356 233.298H85.2Z" fill="#263238" stroke="#263238" stroke-linecap="round" stroke-linejoin="round"/>
<path d="M88.356 233.298L62.328 252.204L72.27 282.798H104.436L114.378 252.204L88.356 233.298Z" fill="white" stroke="#263238" stroke-linecap="round" stroke-linejoin="round"/>
<path d="M230.85 267.6C230.85 267.6 229.95 271.5 228.9 272.85C227.85 274.2 223.5 276.75 218.1 278.85C214.296 280.326 216.3 281.55 216.75 281.85C219.054 283.386 227.25 282.6 230.1 282.6H237.75C238.8 282.6 244.35 282 243 277.2C240.918 269.802 241.5 268.95 241.5 268.95L230.85 267.6Z" fill="white" stroke="#263238" stroke-linecap="round" stroke-linejoin="round"/>
<path d="M237.75 282.6C238.686 282.6 243.204 282.12 243.204 278.604C242.347 279.156 241.421 279.592 240.45 279.9C238.35 280.5 237.3 280.05 226.2 280.8C220.8 281.166 217.65 280.854 215.868 280.434C215.64 281.148 216.468 281.67 216.75 281.85C219.054 283.386 227.25 282.6 230.1 282.6H237.75Z" fill="white" stroke="#263238" stroke-linecap="round" stroke-linejoin="round"/>
<path d="M211.056 149.352C211.056 149.352 217.518 156.018 221.256 157.476C224.994 158.934 229.584 150.186 229.584 150.186L209.586 144.786L211.056 149.352Z" fill="white" stroke="#263238" stroke-linecap="round" stroke-linejoin="round"/>
<path d="M223.65 170.7C223.65 170.7 224.55 205.2 225.75 217.05C226.95 228.9 230.85 261.3 230.85 261.3C230.85 261.3 228.15 262.8 228.15 263.7C228.32 265.113 228.57 266.515 228.9 267.9C228.9 267.9 232.35 270 235.05 270.6C237.75 271.2 242.7 269.7 242.7 269.7L243.15 264L241.65 259.2L242.7 199.2L259.5 263.55C259.5 263.55 258.75 265.5 258.9 266.4C259.05 267.3 262.65 273.75 262.65 273.75C262.65 273.75 263.25 270.3 267.15 270.75C269.338 270.951 271.446 271.67 273.3 272.85C273.3 272.85 274.05 267.15 273.3 265.35C272.55 263.55 269.4 257.7 269.25 256.2C269.1 254.7 268.05 251.1 267.45 248.4C266.85 245.7 264 214.2 263.7 212.1C263.4 210 261.6 184.65 261.6 184.65L262.2 174.15C262.2 174.15 237 172.8 230.7 171.6C224.4 170.4 224.85 169.95 224.85 169.95L223.65 170.7Z" fill="#263238" stroke="#263238" stroke-linecap="round" stroke-linejoin="round"/>
<path d="M224.58 165.786C224.58 165.786 223.248 171.516 224.184 172.446C225.12 173.376 230.184 175.782 244.038 176.844C257.892 177.906 263.238 176.58 263.766 174.846C264.294 173.112 263.364 167.784 263.364 167.784C263.364 167.784 243.108 168.048 234.312 166.584C225.516 165.12 226.05 163.92 226.05 163.92L224.58 165.786Z" fill="white" stroke="#263238" stroke-linecap="round" stroke-linejoin="round"/>
<path d="M251.25 106.92C251.25 106.92 235.05 111.312 233.436 112.188C231.822 113.064 226.158 153.588 225.156 157.356C224.154 161.124 222.648 165.51 225.03 167.016C227.412 168.522 238.704 171.156 246.858 171.66C255.012 172.164 261.666 171.408 263.172 170.406C264.678 169.404 264.552 169.398 264.798 167.406C265.044 165.414 266.808 151.722 266.934 151.092C267.06 150.462 276.342 121.488 276.342 120.108C276.342 118.728 264.798 109.44 262.92 108.564C261.042 107.688 254.136 106.92 251.25 106.92Z" fill="white" stroke="#263238" stroke-linecap="round" stroke-linejoin="round"/>
<path d="M263.922 112.944C264.553 112.128 265.077 111.235 265.482 110.286C264.672 109.646 263.815 109.066 262.92 108.552C261.036 107.676 254.136 106.92 251.25 106.92L247.116 108.06C247.122 110.916 247.373 113.767 247.866 116.58C248.742 120.72 248.742 124.86 250.5 123.858C252.258 122.856 261.666 115.83 263.922 112.944Z" fill="white" stroke="#263238" stroke-linecap="round" stroke-linejoin="round"/>
<path d="M251.508 84.3961C251.508 84.3961 247.188 91.1461 246.516 92.6281C245.844 94.1101 241.656 95.7301 242.466 97.4881C243.276 99.2461 245.706 99.6481 245.706 99.6481C245.706 99.6481 245.028 106.668 245.976 107.748C246.924 108.828 250.83 108.288 250.83 108.288C250.83 108.288 250.56 116.088 250.56 118.272C250.56 120.456 260.28 113.148 262.038 111.12C263.796 109.092 263.118 103.32 263.118 103.32C263.118 103.32 268.248 96.8401 269.19 94.0081C270.132 91.1761 267.57 84.2881 260.148 82.1281C252.726 79.9681 251.508 84.3961 251.508 84.3961Z" fill="white" stroke="#263238" stroke-linecap="round" stroke-linejoin="round"/>
<path d="M249.87 93.084C249.726 93.63 249.408 94.014 249.156 93.942C248.904 93.87 248.814 93.384 248.958 92.844C249.102 92.304 249.426 91.92 249.678 91.986C249.93 92.052 250.014 92.544 249.87 93.084Z" fill="#263238"/>
<path d="M249.48 90.468C249.48 90.468 251.778 89.928 251.91 92.226" stroke="#263238" stroke-linecap="round" stroke-linejoin="round"/>
<path d="M246.378 100.728C246.378 100.728 247.578 101.67 250.578 100.188" stroke="#263238" stroke-linecap="round" stroke-linejoin="round"/>
<path d="M250.83 108.288C250.83 108.288 254.61 108.558 256.77 106.53L250.83 115.44V108.288Z" fill="#263238" stroke="#263238" stroke-linecap="round" stroke-linejoin="round"/>
<path d="M259.068 91.008C255.888 90.3343 252.922 88.8923 250.428 86.808C246.516 83.43 247.326 79.248 251.1 77.76C254.874 76.272 262.44 77.22 266.898 82.488C271.356 87.756 273.102 90.318 271.35 94.632C269.598 98.946 264.33 104.622 262.848 104.352C261.366 104.082 260.82 101.52 260.958 100.842C261.096 100.164 262.98 97.74 261.63 96.642C260.28 95.544 259.068 96.372 258.258 95.022C257.448 93.672 259.068 91.008 259.068 91.008Z" fill="#263238" stroke="#263238" stroke-linecap="round" stroke-linejoin="round"/>
<path d="M259.2 97.35C259.2 97.35 262.308 93.306 263.658 95.73C265.008 98.154 263.118 100.32 262.038 100.998C260.958 101.676 258.39 100.998 258.39 100.998" fill="white"/>
<path d="M259.2 97.35C259.2 97.35 262.308 93.306 263.658 95.73C265.008 98.154 263.118 100.32 262.038 100.998C260.958 101.676 258.39 100.998 258.39 100.998" stroke="#263238" stroke-linecap="round" stroke-linejoin="round"/>
<path d="M231.504 104.97H229.128L249.666 155.046H252.036L231.504 104.97Z" fill="#90CAF9" stroke="#263238" stroke-linecap="round" stroke-linejoin="round"/>
<path d="M229.128 104.97L196.032 147.792L249.666 155.046L229.128 104.97Z" fill="#90CAF9" stroke="#263238" stroke-linecap="round" stroke-linejoin="round"/>
<path d="M266.4 127.8L266.85 143.25C266.85 143.25 265.2 141.9 265.2 142.5C265.125 143.116 264.974 143.721 264.75 144.3C264.029 146.802 263.527 149.361 263.25 151.95C262.95 155.55 263.7 156.3 266.55 158.1C269.4 159.9 274.95 163.05 277.05 162.75C279.15 162.45 281.1 161.25 281.25 156.6C281.4 151.95 279.45 148.2 279.45 147.3C279.45 146.4 280.2 142.5 280.05 141.75C279.9 141 278.7 138.9 278.7 138.45C278.7 138 279.45 122.55 277.95 120.3C276.45 118.05 270.6 115.95 270.6 115.95" fill="white"/>
<path d="M266.4 127.8L266.85 143.25C266.85 143.25 265.2 141.9 265.2 142.5C265.125 143.116 264.974 143.721 264.75 144.3C264.029 146.802 263.527 149.361 263.25 151.95C262.95 155.55 263.7 156.3 266.55 158.1C269.4 159.9 274.95 163.05 277.05 162.75C279.15 162.45 281.1 161.25 281.25 156.6C281.4 151.95 279.45 148.2 279.45 147.3C279.45 146.4 280.2 142.5 280.05 141.75C279.9 141 278.7 138.9 278.7 138.45C278.7 138 279.45 122.55 277.95 120.3C276.45 118.05 270.6 115.95 270.6 115.95" stroke="#263238" stroke-linecap="round" stroke-linejoin="round"/>
<path d="M248.25 136.05C248.25 136.05 241.8 129 240.6 128.7C239.4 128.4 237.75 129.3 236.25 130.05C234.75 130.8 235.05 131.4 235.05 131.85C235.074 132.303 235.124 132.753 235.2 133.2C235.2 133.2 232.2 136.65 232.65 137.25C233.1 137.85 234.45 137.1 234.45 137.1C234.45 137.1 232.35 139.2 234.3 139.2C235.461 139.203 236.601 138.892 237.6 138.3C237.6 138.3 236.85 139.2 238.5 139.2C239.684 139.146 240.85 138.892 241.95 138.45C241.95 138.45 243.9 140.1 244.8 140.7C245.7 141.3 247.35 141 247.35 141C247.35 141 262.2 154.8 264.45 155.4C266.7 156 268.8 152.85 268.95 150.15C269.1 147.45 268.05 145.8 265.65 144.9C263.25 144 249.45 137.1 249.45 137.1L248.25 136.05Z" fill="white" stroke="#263238" stroke-linecap="round" stroke-linejoin="round"/>
<path d="M235.2 133.2L239.1 130.95" stroke="#263238" stroke-linecap="round" stroke-linejoin="round"/>
<path d="M234.45 137.1C234.45 137.1 237.75 134.25 238.2 133.95C239.129 133.503 240.081 133.102 241.05 132.75" stroke="#263238" stroke-linecap="round" stroke-linejoin="round"/>
<path d="M237.6 138.3L240.6 136.2L242.55 135.6" stroke="#263238" stroke-linecap="round" stroke-linejoin="round"/>
<path d="M275.67 150.6C276.087 151.065 276.45 151.576 276.75 152.124" stroke="#263238" stroke-linecap="round" stroke-linejoin="round"/>
<path d="M266.7 144.75C269.237 145.814 271.632 147.191 273.828 148.848" stroke="#263238" stroke-linecap="round" stroke-linejoin="round"/>
<path d="M277.2 145.05C274.462 143.862 271.478 143.347 268.5 143.55" stroke="#263238" stroke-linecap="round" stroke-linejoin="round"/>
<path d="M211.53 126.348C211.41 126.096 211.225 125.881 210.994 125.725C210.763 125.569 210.494 125.478 210.216 125.46C209.52 125.382 208.77 125.46 209.016 126.234C209.436 127.602 210.816 131.472 212.238 130.902C213.66 130.332 211.536 126.348 211.536 126.348H211.53Z" fill="white" stroke="#263238" stroke-linecap="round" stroke-linejoin="round"/>
<path d="M209.148 127.602C209.026 127.352 208.841 127.138 208.61 126.982C208.379 126.826 208.112 126.734 207.834 126.714C207.138 126.636 206.382 126.714 206.634 127.488C207.054 128.856 208.434 132.726 209.856 132.162C211.278 131.598 209.16 127.602 209.16 127.602H209.148Z" fill="white" stroke="#263238" stroke-linecap="round" stroke-linejoin="round"/>
<path d="M206.808 129.906C206.666 129.71 206.478 129.553 206.26 129.448C206.042 129.344 205.801 129.295 205.56 129.306C204.96 129.306 204.33 129.456 204.654 130.086C205.218 131.202 206.994 134.346 208.092 133.722C209.19 133.098 206.808 129.93 206.808 129.93V129.906Z" fill="white" stroke="#263238" stroke-linecap="round" stroke-linejoin="round"/>
<path d="M205.254 131.868C205.14 131.706 204.988 131.574 204.811 131.486C204.634 131.397 204.438 131.353 204.24 131.358C203.748 131.358 203.238 131.478 203.502 131.994C203.958 132.9 205.404 135.462 206.304 134.952C207.204 134.442 205.254 131.868 205.254 131.868Z" fill="white" stroke="#263238" stroke-linecap="round" stroke-linejoin="round"/>
<path d="M262.65 273.75C262.917 275.839 263.017 277.945 262.95 280.05C262.8 283.05 264.3 284.85 268.35 285.6C272.4 286.35 276.9 284.1 277.05 281.85C277.2 279.6 272.85 272.25 272.85 272.25C272.85 272.25 263.85 265.65 262.65 273.75Z" fill="white" stroke="#263238" stroke-linecap="round" stroke-linejoin="round"/>
<path d="M277.05 281.85C276.999 280.946 276.777 280.061 276.396 279.24C276.09 280.95 274.734 284.4 270.3 284.4C267.27 284.4 264.6 282.786 263.046 281.598C263.448 283.68 265.05 284.988 268.35 285.6C272.4 286.35 276.9 284.1 277.05 281.85Z" fill="white" stroke="#263238" stroke-linecap="round" stroke-linejoin="round"/>
</svg>
