<svg width="248" height="437" viewBox="0 0 248 437" fill="none" xmlns="http://www.w3.org/2000/svg">
<path d="M162 67.7089L169.55 54.409C164.884 46.8334 163.22 37.7866 164.886 29.0466C166.551 20.3067 171.426 12.5058 178.551 7.17713C185.676 1.8485 194.536 -0.622452 203.39 0.249951C212.245 1.12235 220.453 5.27501 226.401 11.8917C232.349 18.5084 235.607 27.1106 235.535 36.0075C235.462 44.9045 232.065 53.4526 226.01 59.9719C219.956 66.4911 211.681 70.51 202.814 71.2385C193.947 71.9671 185.128 69.3526 178.09 63.909L162 67.7089Z" fill="black"/>
<path d="M162 67.709L178.07 63.829L178.01 64.009C177.999 63.9978 177.99 63.9846 177.984 63.97C177.978 63.9554 177.975 63.9398 177.975 63.924C177.975 63.9082 177.978 63.8925 177.984 63.8779C177.99 63.8634 177.999 63.8501 178.01 63.839C178.03 63.8243 178.055 63.8164 178.08 63.8164C178.105 63.8164 178.13 63.8243 178.15 63.839C180.403 65.5662 182.85 67.026 185.44 68.189C188.53 69.5449 191.795 70.4605 195.14 70.909C196.989 71.1581 198.856 71.2451 200.72 71.169C201.72 71.109 202.66 71.089 203.64 70.999L206.64 70.539C215.509 68.7856 223.376 63.7185 228.64 56.369C231.564 52.3104 233.586 47.6733 234.57 42.769C235.58 37.5909 235.433 32.2536 234.14 27.139C232.815 21.7891 230.233 16.8321 226.61 12.679L225.17 11.099C224.7 10.569 224.17 10.099 223.62 9.64896C223.116 9.1566 222.585 8.69255 222.03 8.25896L220.35 6.99896C219.783 6.56492 219.185 6.17383 218.56 5.82896L216.78 4.74896L214.91 3.82896C214.3 3.51214 213.673 3.23165 213.03 2.98896C208.024 1.01103 202.639 0.180663 197.27 0.55896C192.188 0.899788 187.244 2.35778 182.79 4.82896C174.783 9.27709 168.786 16.6241 166.03 25.359C164.93 29.081 164.401 32.9483 164.46 36.829C164.633 43.0244 166.429 49.0659 169.67 54.349C169.68 54.3675 169.685 54.3881 169.685 54.409C169.685 54.4299 169.68 54.4504 169.67 54.469C164.8 62.909 162.42 67.019 162.02 67.709L169.47 54.349V54.469C166.168 49.1622 164.329 43.0762 164.14 36.829C164.057 32.907 164.573 28.9953 165.67 25.229C168.428 16.3849 174.478 8.93852 182.57 4.42896C187.079 1.92646 192.085 0.448096 197.23 0.0989614C202.68 -0.305292 208.151 0.532408 213.23 2.54896C213.885 2.78885 214.523 3.07283 215.14 3.39896L217.03 4.31896L218.84 5.40896C219.452 5.7651 220.043 6.15572 220.61 6.57896L222.29 7.82896C222.85 8.27178 223.387 8.74237 223.9 9.23896C224.42 9.72896 224.99 10.179 225.47 10.709L226.92 12.319C230.594 16.5207 233.21 21.5404 234.55 26.959C235.865 32.1524 236.008 37.5732 234.97 42.829C233.972 47.7904 231.927 52.4817 228.97 56.589C223.623 64.013 215.649 69.1225 206.67 70.879L203.67 71.329C202.67 71.409 201.67 71.439 200.72 71.489C198.835 71.5637 196.948 71.4699 195.08 71.209C191.711 70.7446 188.425 69.8053 185.32 68.419C182.717 67.2335 180.261 65.7502 178 63.999L178.16 63.839C178.171 63.8501 178.18 63.8634 178.186 63.8779C178.192 63.8925 178.195 63.9082 178.195 63.924C178.195 63.9398 178.192 63.9554 178.186 63.97C178.18 63.9846 178.171 63.9978 178.16 64.009L162 67.709Z" fill="#263238"/>
<path d="M193.77 31.4387H196.09L201.15 24.4387V19.7687C201.15 19.7687 204.73 19.5387 204.31 25.5987C203.89 31.6587 204.31 30.1087 204.31 30.1087C204.31 30.1087 211.91 30.1087 212.54 30.7987C213 31.2787 213.21 38.7987 213.29 42.9287C213.34 43.9172 213.058 44.8939 212.489 45.7038C211.92 46.5136 211.097 47.1102 210.15 47.3987C209.883 47.4696 209.607 47.5066 209.33 47.5087C207.43 47.5087 197.74 45.9687 197.74 45.9687H193.74L193.77 31.4387Z" fill="#FF725E"/>
<path d="M187.14 30.1689L188.57 46.0089H192.53V30.489L187.14 30.1689Z" fill="#FF725E"/>
<path d="M56.6499 78.312C51.0741 81.8675 44.5824 83.7198 37.9699 83.642C35.8791 83.5137 33.7831 83.4903 31.6899 83.572C29.5824 83.6589 27.5634 84.4433 25.9499 85.802C25.1574 86.4944 24.5922 87.4097 24.3281 88.4285C24.0641 89.4472 24.1135 90.5218 24.4699 91.512C25.6499 94.212 29.4699 95.282 30.0499 98.172C30.4699 100.252 28.9199 102.232 27.1699 103.442C25.4199 104.652 23.3799 105.442 21.9099 106.982C21.0227 107.904 20.396 109.045 20.0938 110.288C19.7915 111.531 19.8246 112.832 20.1897 114.058C20.5547 115.285 21.2386 116.392 22.1715 117.268C23.1044 118.143 24.253 118.755 25.4999 119.042C26.9899 119.392 28.8199 119.402 29.6299 120.702C30.0596 121.689 30.1373 122.794 29.8499 123.832C29.4571 126.061 29.7536 128.356 30.6999 130.412C31.1872 131.43 31.947 132.293 32.8948 132.905C33.8427 133.518 34.9417 133.856 36.0699 133.882C36.9499 133.882 37.8099 133.582 38.6899 133.602C39.1289 133.575 39.5657 133.682 39.9425 133.909C40.3193 134.135 40.6183 134.471 40.7999 134.872C40.893 135.471 40.8658 136.083 40.7199 136.672C40.3999 139.622 43.3399 141.932 46.1899 142.772C51.8799 144.472 58.1899 142.832 63.0299 139.332C67.8699 135.832 71.1799 130.652 73.4299 125.152C75.6799 119.652 76.8899 113.812 78.0899 107.992" fill="#263238"/>
<path d="M120.21 225.402C119.572 223.827 118.615 222.4 117.4 221.212C109.87 213.212 98.4597 209.362 87.4897 209.992C76.5197 210.622 66.0097 215.392 57.4897 222.302C52.9397 225.992 46.7997 233.102 45.1997 238.742C51.8797 240.352 61.8597 238.112 68.1997 235.362C74.5397 232.612 80.7397 229.292 87.5697 228.592C95.4897 227.782 103.27 230.592 111.07 232.182C112.629 232.562 114.24 232.691 115.84 232.562C116.639 232.491 117.414 232.25 118.114 231.858C118.814 231.465 119.422 230.928 119.9 230.282C120.319 229.546 120.565 228.724 120.619 227.878C120.673 227.033 120.533 226.186 120.21 225.402Z" fill="#FF725E"/>
<g opacity="0.3">
<path d="M120.21 225.402C119.572 223.827 118.615 222.4 117.4 221.212C109.87 213.212 98.4597 209.362 87.4897 209.992C76.5197 210.622 66.0097 215.392 57.4897 222.302C52.9397 225.992 46.7997 233.102 45.1997 238.742C51.8797 240.352 61.8597 238.112 68.1997 235.362C74.5397 232.612 80.7397 229.292 87.5697 228.592C95.4897 227.782 103.27 230.592 111.07 232.182C112.629 232.562 114.24 232.691 115.84 232.562C116.639 232.491 117.414 232.25 118.114 231.858C118.814 231.465 119.422 230.928 119.9 230.282C120.319 229.546 120.565 228.724 120.619 227.878C120.673 227.033 120.533 226.186 120.21 225.402Z" fill="black"/>
</g>
<path d="M114.76 320.802L133.83 308.452C133.83 308.452 152.83 323.682 156.54 321.742L133.9 283.952L103.39 301.952L114.76 320.802Z" fill="#FF725E"/>
<path d="M125.18 297.732C125.071 297.301 125.125 296.846 125.332 296.452C125.539 296.059 125.883 295.756 126.3 295.602C126.727 295.478 127.186 295.523 127.58 295.728C127.975 295.932 128.276 296.281 128.42 296.702C128.532 297.158 128.471 297.639 128.25 298.052C128.028 298.466 127.661 298.783 127.22 298.942C126.762 299.026 126.29 298.929 125.902 298.671C125.514 298.414 125.241 298.016 125.14 297.562" fill="#E0E0E0"/>
<g opacity="0.6">
<path d="M133.9 283.952L130.9 285.892L153.76 321.392C153.76 321.392 155.5 322.642 156.57 321.742L133.9 283.952Z" fill="black"/>
</g>
<path d="M133.99 309.172C134.17 309.062 133.7 308.082 133.75 306.822C133.8 305.562 134.29 304.612 134.12 304.482C133.95 304.352 133.04 305.272 133.01 306.802C132.98 308.332 133.85 309.322 133.99 309.172Z" fill="#263238"/>
<path d="M138.01 312.162C138.21 312.102 138.01 311.162 138.45 310.012C138.89 308.862 139.58 308.242 139.45 308.062C139.32 307.882 138.22 308.392 137.74 309.762C137.26 311.132 137.83 312.262 138.01 312.162Z" fill="#263238"/>
<path d="M144.11 311.572C144.04 311.382 142.97 311.682 142.24 312.762C141.51 313.842 141.63 314.942 141.83 314.932C142.03 314.922 142.25 314.062 142.83 313.182C143.41 312.302 144.2 311.772 144.11 311.572Z" fill="#263238"/>
<path d="M129.33 311.512C129.46 311.332 128.69 310.632 128.14 309.512C127.59 308.392 127.43 307.412 127.21 307.412C126.99 307.412 126.81 308.582 127.48 309.862C128.15 311.142 129.24 311.692 129.33 311.512Z" fill="#263238"/>
<path opacity="0.3" d="M117.77 293.442L126.44 313.222L123.53 315.282L113.53 295.992L117.77 293.442Z" fill="black"/>
<path d="M106.41 215.832C105.63 215.832 79.98 215.262 66.13 224.412L55.13 230.592L55.42 241.692C55.42 241.692 53.07 245.612 53.59 247.962C54.11 250.312 53.52 260.242 53.52 260.242C53.52 260.242 49.41 260.502 48.89 267.562C48.89 267.562 43.19 269.912 40.69 274.092C38.19 278.272 12.57 325.302 11.01 332.882C9.45004 340.462 8.39005 353.782 14.14 358.222C19.89 362.662 32.76 361.092 32.76 361.092C32.76 361.092 34.59 366.582 45.83 366.842C57.07 367.102 74.3 354.042 74.3 354.042L126.04 318.772L113.76 292.562L95.69 303.612L115.02 281.142C115.02 281.142 123.91 265.992 121.29 250.052C119.36 238.222 106.41 215.832 106.41 215.832Z" fill="#263238"/>
<path d="M110.84 223.952H110.23H108.49C106.97 223.952 104.79 223.952 102.09 223.952C99.39 223.952 96.1701 224.082 92.6301 224.462C88.7879 224.83 84.9981 225.621 81.3301 226.822C73.5201 229.462 67.24 233.652 62.7701 236.642L57.5101 240.282L56.0801 241.282C55.9218 241.409 55.7468 241.513 55.5601 241.592C55.5601 241.592 55.7001 241.442 56.0101 241.192L57.3901 240.132C58.6001 239.212 60.3901 237.902 62.5601 236.342C66.9901 233.272 73.27 229.002 81.16 226.342C84.865 225.127 88.6964 224.339 92.5801 223.992C95.7413 223.699 98.9155 223.569 102.09 223.602C104.79 223.602 106.98 223.702 108.49 223.782L110.23 223.882C110.436 223.878 110.641 223.902 110.84 223.952Z" fill="#455A64"/>
<path d="M58.05 232.112C57.6407 232.524 57.3593 233.045 57.24 233.612C57.1888 233.904 57.2114 234.205 57.3057 234.486C57.4 234.767 57.563 235.02 57.78 235.222C58.0448 235.466 58.3704 235.633 58.7224 235.707C59.0743 235.781 59.4397 235.759 59.78 235.642C60.1065 235.492 60.3864 235.257 60.5905 234.962C60.7947 234.666 60.9154 234.321 60.94 233.962C60.9599 233.665 60.9054 233.368 60.7814 233.097C60.6575 232.827 60.4679 232.591 60.23 232.412C59.7514 232.079 59.1833 231.898 58.6 231.892C58.6 231.892 58.75 231.762 59.09 231.742C59.5699 231.715 60.0452 231.848 60.44 232.122C60.7547 232.318 61.0127 232.593 61.1881 232.919C61.3636 233.245 61.4504 233.612 61.44 233.982C61.4484 234.45 61.3141 234.909 61.0551 235.298C60.796 235.687 60.4245 235.988 59.99 236.161C59.5555 236.334 59.0787 236.37 58.6232 236.265C58.1676 236.159 57.7549 235.918 57.44 235.572C57.1834 235.314 56.9958 234.996 56.8945 234.646C56.7931 234.297 56.7813 233.928 56.86 233.572C56.9651 233.103 57.2173 232.679 57.58 232.362C57.86 232.122 58.04 232.082 58.05 232.112Z" fill="#455A64"/>
<path d="M67.26 233.462C67.21 233.512 66.85 233.242 66.34 232.722C65.596 232.073 65.0749 231.206 64.8506 230.244C64.6263 229.282 64.71 228.274 65.09 227.362C65.32 226.662 65.53 226.262 65.59 226.282C65.65 226.302 65.59 226.752 65.45 227.452C65.2391 228.327 65.2085 229.236 65.36 230.122C65.6193 230.985 66.0476 231.787 66.62 232.482C67.04 233.052 67.31 233.412 67.26 233.462Z" fill="#455A64"/>
<path d="M69.4297 232.132C69.4297 232.182 69.0297 231.962 68.5597 231.472C67.956 230.81 67.5084 230.021 67.2497 229.162C66.848 227.971 66.8305 226.684 67.1997 225.482C67.3797 225.482 67.1997 227.142 67.7497 229.012C68.182 230.116 68.7461 231.164 69.4297 232.132Z" fill="#455A64"/>
<path d="M97.1197 223.952C97.0397 223.952 97.0097 223.482 96.9397 222.742C96.863 221.8 96.6509 220.874 96.3097 219.992C95.9349 219.128 95.4064 218.338 94.7497 217.662C94.2497 217.122 93.9297 216.782 93.9797 216.722C94.0297 216.662 94.4297 216.902 94.9797 217.392C95.7539 218.041 96.3638 218.863 96.7597 219.792C97.1313 220.727 97.3082 221.727 97.2797 222.732C97.3236 223.146 97.2688 223.564 97.1197 223.952Z" fill="#455A64"/>
<path d="M100.48 223.952C100.4 223.952 100.39 223.482 100.4 222.752C100.457 221.826 100.379 220.896 100.17 219.992C99.8347 219.124 99.3984 218.298 98.8699 217.532C98.4799 216.912 98.27 216.532 98.33 216.462C98.39 216.392 98.7099 216.752 99.1699 217.322C99.8133 218.068 100.321 218.921 100.67 219.842C100.911 220.804 100.941 221.807 100.76 222.782C100.66 223.462 100.55 223.952 100.48 223.952Z" fill="#455A64"/>
<path d="M56.25 337.532C56.3567 337.124 56.5146 336.731 56.72 336.362C57.07 335.612 57.61 334.522 58.32 333.132C59.74 330.342 61.83 326.332 64.45 321.392C69.69 311.512 77.01 297.902 85.16 282.912L91.16 271.962C92.9837 268.572 94.397 264.977 95.37 261.252C97.022 254.921 97.3623 248.32 96.37 241.852C95.7154 237.495 94.4742 233.247 92.68 229.222C92.05 227.792 91.5 226.712 91.12 225.982L90.68 225.152C90.6285 225.06 90.585 224.963 90.55 224.862C90.6188 224.946 90.6791 225.037 90.73 225.132L91.21 225.932C91.62 226.642 92.21 227.712 92.87 229.132C97.542 239.219 98.5636 250.616 95.76 261.372C94.7883 265.142 93.3681 268.781 91.53 272.212C89.61 275.742 87.62 279.402 85.59 283.152L64.76 321.562L58.48 333.222L56.79 336.402L56.37 337.242C56.3384 337.342 56.2983 337.439 56.25 337.532Z" fill="#455A64"/>
<path d="M113.96 303.692C113.784 303.84 113.597 303.974 113.4 304.092L111.74 305.092L105.61 308.952C100.44 312.152 93.32 316.602 85.53 321.642C77.74 326.682 70.76 331.312 65.76 334.692L59.76 338.692L58.11 339.752C57.9241 339.886 57.7267 340.003 57.52 340.102C57.6798 339.939 57.8576 339.795 58.05 339.672L59.64 338.522L65.54 334.392C70.54 330.942 77.54 326.222 85.29 321.172C93.04 316.122 100.24 311.722 105.46 308.612C108.07 307.052 110.2 305.812 111.67 304.972L113.38 303.972C113.565 303.863 113.759 303.77 113.96 303.692Z" fill="#455A64"/>
<path d="M122.05 321.452C121.856 321.136 121.696 320.801 121.57 320.452L120.32 317.612C119.24 315.222 117.7 311.942 115.97 308.332C114.24 304.722 112.74 301.552 111.56 299.072L110.25 296.252C110.07 295.916 109.929 295.561 109.83 295.192C110.073 295.498 110.275 295.834 110.43 296.192C110.79 296.842 111.29 297.772 111.89 298.942C113.09 301.272 114.72 304.522 116.44 308.142C118.16 311.762 119.66 315.062 120.66 317.502C121.16 318.712 121.53 319.712 121.76 320.412C121.893 320.748 121.99 321.097 122.05 321.452Z" fill="#455A64"/>
<path d="M56.2497 337.532C56.1597 337.422 64.9997 329.602 76.0097 320.062C87.0197 310.522 96.0097 302.882 96.1097 302.992C96.2097 303.102 87.3597 310.952 76.3497 320.452C65.3397 329.952 56.3497 337.642 56.2497 337.532Z" fill="#455A64"/>
<path d="M45.29 355.862C46.0982 355.166 46.814 354.37 47.42 353.492C48.49 351.832 49.8 349.392 51.28 346.742C52.76 344.092 54.01 341.622 54.93 339.852C55.3772 338.871 55.8987 337.925 56.49 337.022C56.1705 338.057 55.7589 339.061 55.26 340.022C54.42 341.842 53.2 344.322 51.74 347.022C50.28 349.722 48.9 352.082 47.74 353.732C47.2748 354.388 46.7154 354.971 46.08 355.462C45.846 355.647 45.5774 355.783 45.29 355.862Z" fill="#455A64"/>
<path d="M54.6599 358.692C54.5799 358.692 55.1499 357.562 55.7799 355.692C56.5662 353.238 57.1088 350.712 57.3999 348.152C57.7564 345.604 57.7564 343.02 57.3999 340.472C57.2818 339.711 57.0562 338.97 56.7299 338.272C56.5598 338.044 56.4124 337.799 56.2899 337.542C56.2899 337.542 56.5499 337.712 56.8999 338.172C57.316 338.859 57.6071 339.614 57.7599 340.402C58.2435 342.978 58.311 345.615 57.9599 348.212C57.6715 350.812 57.067 353.368 56.1599 355.822C55.8802 356.562 55.5459 357.281 55.1599 357.972C54.8599 358.452 54.6899 358.712 54.6599 358.692Z" fill="#455A64"/>
<path d="M43.8301 343.502C44.4695 343.211 45.1407 342.997 45.8301 342.862C47.4067 342.435 48.9479 341.887 50.4401 341.222C53.9101 339.602 56.1801 337.372 56.3001 337.532C55.8648 338.084 55.3451 338.563 54.7601 338.952C53.4939 340.04 52.084 340.949 50.5701 341.652C49.052 342.337 47.4621 342.85 45.8301 343.182C45.181 343.379 44.5082 343.486 43.8301 343.502Z" fill="#455A64"/>
<path d="M57.06 270.842C57.0224 270.918 56.9753 270.989 56.92 271.052L56.48 271.642C56.09 272.162 55.53 272.932 54.86 273.952C52.9759 276.86 51.388 279.948 50.12 283.172C48.2844 287.97 46.7579 292.88 45.55 297.872C44.06 303.482 42.55 309.732 40.04 315.972C37.53 322.212 34.27 327.752 32.21 333.172C30.2737 337.925 29.2198 342.991 29.1 348.122C29.0993 350.084 29.3207 352.04 29.76 353.952C30.1121 355.395 30.5906 356.804 31.19 358.162C31.5719 359.023 32.0026 359.861 32.48 360.672C32.62 360.932 32.74 361.142 32.84 361.312C32.8834 361.386 32.9202 361.463 32.95 361.542C32.8883 361.483 32.8345 361.416 32.79 361.342L32.39 360.732C31.875 359.936 31.4107 359.107 31 358.252C30.3641 356.892 29.8553 355.476 29.48 354.022C29.0057 352.087 28.754 350.105 28.73 348.112C28.7826 342.93 29.7999 337.802 31.73 332.992C33.78 327.522 36.95 321.932 39.52 315.762C42.09 309.592 43.52 303.342 45.04 297.762C46.279 292.757 47.8491 287.84 49.74 283.042C51.0424 279.812 52.6885 276.731 54.65 273.852C55.35 272.852 55.94 272.082 56.36 271.592L56.84 271.032C56.99 270.952 57.05 270.832 57.06 270.842Z" fill="#455A64"/>
<path d="M58.76 239.282C58.6143 239.7 58.4406 240.108 58.24 240.502C57.7621 241.602 57.4261 242.758 57.24 243.942C57.0167 245.701 57.0775 247.483 57.42 249.222C57.73 251.222 58.56 253.222 59.12 255.562C59.4032 256.692 59.5011 257.861 59.41 259.022C59.3236 260.091 59.1531 261.151 58.9 262.192C58.4768 263.942 57.9594 265.668 57.35 267.362C56.84 268.812 56.35 269.962 56.07 270.762C55.9321 271.185 55.7476 271.591 55.52 271.972C55.6007 271.536 55.7212 271.107 55.88 270.692C56.18 269.782 56.55 268.622 57 267.242C57.45 265.862 58 264.052 58.43 262.082C59.0031 259.995 59.0649 257.799 58.61 255.682C58.07 253.452 57.23 251.342 56.95 249.302C56.6153 247.513 56.5882 245.68 56.87 243.882C57.0836 242.677 57.478 241.51 58.04 240.422C58.1846 240.125 58.3483 239.838 58.53 239.562C58.65 239.372 58.76 239.272 58.76 239.282Z" fill="#455A64"/>
<path d="M59.96 269.372C61.0719 268.132 61.9282 266.684 62.48 265.112C63.036 263.402 63.2997 261.61 63.26 259.812C63.1814 257.599 62.9069 255.397 62.44 253.232C61.9543 251.05 61.5838 248.843 61.33 246.622C61.1706 244.79 61.2075 242.946 61.44 241.122C61.5839 239.89 61.8794 238.681 62.32 237.522C62.4377 237.209 62.5781 236.905 62.74 236.612C62.86 236.412 62.92 236.312 62.94 236.312C62.96 236.312 62.77 236.772 62.51 237.592C62.1499 238.758 61.9119 239.957 61.8 241.172C61.6296 242.968 61.6296 244.776 61.8 246.572C61.99 248.572 62.49 250.802 62.94 253.132C63.4157 255.328 63.6803 257.565 63.73 259.812C63.7498 261.659 63.4382 263.495 62.81 265.232C62.3901 266.409 61.7598 267.5 60.95 268.452C60.726 268.704 60.4854 268.942 60.23 269.162C60.07 269.312 59.97 269.382 59.96 269.372Z" fill="#455A64"/>
<path d="M85.3199 261.493C84.9245 261.604 84.5194 261.678 84.1099 261.713C83.3299 261.813 82.1999 261.992 80.8199 262.232C77.2137 262.858 73.6627 263.767 70.1999 264.952C66.7409 266.152 63.3807 267.62 60.1499 269.343C58.9099 270.013 57.9199 270.563 57.2399 270.963C56.9004 271.195 56.5345 271.386 56.1499 271.532C56.455 271.25 56.7903 271.002 57.1499 270.792C57.7999 270.342 58.7699 269.733 59.9899 269.023C66.4002 265.348 73.4473 262.919 80.7599 261.862C82.1599 261.672 83.2999 261.552 84.0899 261.512C84.4975 261.455 84.9106 261.449 85.3199 261.493Z" fill="#455A64"/>
<path d="M86.9499 250.582C86.9499 250.682 85.4699 250.662 83.1399 251.022C81.7856 251.238 80.4487 251.553 79.1399 251.962C75.9106 252.976 72.8894 254.561 70.2199 256.642C69.1302 257.493 68.1041 258.422 67.1499 259.422C65.5299 261.132 64.7099 262.362 64.6299 262.302C64.7594 261.979 64.9345 261.676 65.1499 261.402C65.6696 260.616 66.2479 259.871 66.8799 259.172C67.7956 258.119 68.7992 257.146 69.8799 256.262C71.2272 255.197 72.6661 254.254 74.1799 253.442C75.7134 252.657 77.3129 252.008 78.9599 251.502C80.3035 251.106 81.6785 250.825 83.0699 250.662C84.0078 250.538 84.9539 250.484 85.8999 250.502C86.2518 250.488 86.6042 250.515 86.9499 250.582Z" fill="#455A64"/>
<path d="M89.18 273.462C88.8239 273.647 88.4482 273.791 88.0599 273.892C87.3199 274.132 86.27 274.492 84.96 274.952C81.5744 276.163 78.2592 277.562 75.03 279.142C71.8106 280.735 68.6854 282.511 65.67 284.462C64.51 285.212 63.5799 285.832 62.9399 286.272C62.6304 286.518 62.2951 286.729 61.9399 286.902C62.2111 286.604 62.5165 286.339 62.8499 286.112C63.4499 285.622 64.3499 284.952 65.4899 284.112C68.4623 282.052 71.5843 280.217 74.83 278.622C78.0609 277.027 81.4029 275.666 84.83 274.552C86.15 274.142 87.2299 273.832 87.9799 273.652C88.3705 273.539 88.7736 273.476 89.18 273.462Z" fill="#455A64"/>
<path d="M120.76 247.292C120.415 247.221 120.08 247.11 119.76 246.962C119.14 246.722 118.23 246.382 117.05 245.962C113.799 244.897 110.449 244.164 107.05 243.772L107.3 243.542C107.42 247.852 107.39 252.962 107.01 258.412C106.651 263.722 105.946 269.003 104.9 274.222V274.112C105.825 277.138 106.937 280.104 108.23 282.992C108.7 283.992 109.13 284.812 109.42 285.352C109.593 285.612 109.75 285.883 109.89 286.162C109.672 285.932 109.477 285.681 109.31 285.412C108.829 284.668 108.392 283.897 108 283.102C106.622 280.236 105.449 277.275 104.49 274.242V274.192V274.132C105.467 268.923 106.135 263.66 106.49 258.372C106.87 252.942 106.92 247.852 106.86 243.552V243.292H107.12C110.531 243.717 113.884 244.515 117.12 245.672C118.29 246.102 119.18 246.492 119.79 246.762C120.129 246.909 120.453 247.087 120.76 247.292Z" fill="#455A64"/>
<path d="M121.52 251.632C120.804 251.499 120.102 251.305 119.42 251.052C118.14 250.672 116.35 250.172 114.36 249.712C110.36 248.772 107.1 248.172 107.12 248.022C107.851 247.994 108.584 248.058 109.3 248.212C110.64 248.402 112.47 248.722 114.48 249.212C118.51 250.112 121.59 251.492 121.52 251.632Z" fill="#455A64"/>
<path d="M116.76 236.242C116.76 236.312 115.54 235.962 113.59 235.502C111.049 234.909 108.469 234.498 105.87 234.272C103.268 234.069 100.656 234.035 98.05 234.172C96.9665 234.273 95.8781 234.313 94.79 234.292C95.0653 234.183 95.3551 234.116 95.6501 234.092C96.2101 234.002 97.0201 233.892 98.0201 233.802C100.644 233.56 103.283 233.543 105.91 233.752C108.538 233.973 111.139 234.438 113.68 235.142C114.68 235.422 115.43 235.672 115.95 235.882C116.237 235.958 116.511 236.08 116.76 236.242Z" fill="#455A64"/>
<path d="M96.3698 240.752C95.9406 240.931 95.4952 241.068 95.0398 241.162C94.1798 241.392 92.9198 241.672 91.3398 241.952C87.2311 242.67 83.0495 242.878 78.8898 242.572C76.4798 242.332 74.0698 242.072 72.1898 240.892C71.3038 240.339 70.5822 239.558 70.0998 238.632C69.7008 237.799 69.5815 236.859 69.7598 235.952C69.9624 234.697 70.3359 233.476 70.8698 232.322C71.0384 231.886 71.2784 231.48 71.5798 231.122C71.5798 231.122 71.3798 231.572 71.0598 232.392C70.6091 233.555 70.2937 234.767 70.1198 236.002C69.9924 236.825 70.1252 237.668 70.4998 238.412C70.973 239.248 71.6643 239.939 72.4998 240.412C74.2498 241.492 76.5998 241.752 78.9898 241.982C83.1145 242.282 87.2597 242.124 91.3498 241.512C92.9198 241.292 94.1898 241.062 95.0598 240.892C95.4914 240.806 95.9298 240.76 96.3698 240.752Z" fill="#455A64"/>
<path d="M93.8198 61.5121C89.0398 51.1521 77.2098 53.1921 71.5498 55.9421C65.8614 58.6275 61.3943 63.3588 59.0398 69.1921C57.3798 73.1921 56.0398 77.7521 52.6998 80.1921C51.1642 81.104 49.5783 81.9287 47.9498 82.6621C47.1135 83.0677 46.3796 83.657 45.803 84.386C45.2264 85.115 44.8219 85.9648 44.6198 86.8721C44.1198 90.3221 47.6199 92.7121 50.4999 94.1021C48.7699 95.2821 48.3198 97.9521 48.9298 100.102C49.6682 102.157 50.8338 104.031 52.3498 105.602C57.4511 111.235 63.2868 116.155 69.6998 120.232C75.1598 123.632 78.6998 124.032 84.5598 121.592C86.9398 120.592 89.1598 118.972 91.6998 118.682C94.6498 118.352 97.4699 119.862 100.39 120.472C103.31 121.082 106.99 120.242 107.94 117.172C108.175 115.949 108.309 114.708 108.34 113.462C108.49 112.232 109.1 110.892 110.21 110.612C111.11 110.382 112.01 110.932 112.89 111.222C115 111.922 118.18 127.582 120.2 126.632C120.2 126.632 123.14 100.092 117.48 84.5621C115.67 79.5621 111.81 69.0421 108.73 64.9321C104.49 59.2921 94.3298 60.5421 93.8198 61.5421" fill="#263238"/>
<path d="M87.76 63.2324C80.23 60.6024 70.07 66.3824 67.76 74.0124C65.19 82.4824 62.4 92.9324 61.91 99.5924C60.91 112.982 70.44 116.952 70.44 116.952L66.57 137.882L99.2 127.332L110.59 78.0124L111.65 73.8724L87.76 63.2324Z" fill="#FFBE9D"/>
<path d="M67.7598 84.3321C67.8698 84.6221 69.4198 84.2021 71.1198 84.8721C72.8198 85.5421 73.7398 86.8721 73.9998 86.7521C74.2598 86.6321 74.0798 86.2521 73.6898 85.6421C73.1539 84.84 72.3815 84.2248 71.4798 83.8821C70.5969 83.5233 69.6215 83.4602 68.6998 83.7021C68.0298 83.9521 67.7598 84.2021 67.7598 84.3321Z" fill="#263238"/>
<path d="M84.6499 88.782C84.8499 89.012 86.1999 88.152 88.0199 88.282C89.8399 88.412 91.1199 89.412 91.3399 89.202C91.5599 88.992 91.2599 88.692 90.6999 88.202C89.9466 87.6068 89.0284 87.2577 88.0699 87.202C87.1185 87.1338 86.17 87.3683 85.3599 87.872C84.7599 88.282 84.5599 88.672 84.6499 88.782Z" fill="#263238"/>
<path d="M77.0698 96.2721C76.2014 95.7557 75.2705 95.3525 74.2998 95.0721C73.8598 94.9121 73.4498 94.7221 73.4498 94.3921C73.5187 93.9144 73.7355 93.4703 74.0698 93.1221L76.2198 89.9721C79.2198 85.4821 81.5498 81.7421 81.3698 81.6221C81.1898 81.5021 78.5898 85.0421 75.5598 89.5321C74.8298 90.6521 74.1298 91.7021 73.4598 92.7221C73.0397 93.2011 72.8055 93.815 72.7998 94.4521C72.8299 94.627 72.8984 94.7931 73.0005 94.9384C73.1025 95.0836 73.2355 95.2044 73.3898 95.2921C73.6296 95.4134 73.8808 95.5106 74.1398 95.5821C75.0831 95.9359 76.0677 96.1678 77.0698 96.2721Z" fill="#263238"/>
<path d="M70.4498 116.952C76.6456 118.512 83.1497 118.35 89.2598 116.482C89.2598 116.482 82.9298 124.542 69.8398 120.222L70.4498 116.952Z" fill="#EB996E"/>
<path d="M76.0997 102.252C76.1797 102.522 75.9297 102.032 76.0997 102.252Z" fill="#EB996E"/>
<path d="M81.9098 101.382C81.7138 100.97 81.4351 100.603 81.091 100.304C80.7469 100.005 80.3448 99.7794 79.9098 99.6423C79.3212 99.4313 78.6887 99.3729 78.0714 99.4726C77.4541 99.5723 76.8721 99.8268 76.3798 100.212C76.1783 100.5 76.0456 100.829 75.9919 101.176C75.9381 101.523 75.9648 101.878 76.0698 102.212C76.6998 103.022 76.7598 103.702 77.6398 104.212C78.2736 104.421 78.9452 104.49 79.6081 104.414C80.2711 104.338 80.9097 104.119 81.4798 103.772C81.7877 103.466 81.994 103.072 82.0709 102.645C82.1478 102.218 82.0916 101.777 81.9098 101.382Z" fill="#EB996E"/>
<path d="M82.0297 98.7324C81.7397 98.6524 81.2798 100.582 79.3098 101.562C77.3398 102.542 75.3097 101.852 75.2397 102.122C75.2397 102.232 75.6098 102.602 76.4798 102.832C77.606 103.115 78.7959 102.991 79.8398 102.482C80.8455 101.99 81.6201 101.126 81.9997 100.072C82.2697 99.2824 82.1597 98.7524 82.0297 98.7324Z" fill="#263238"/>
<path d="M88.33 79.3521C88.23 79.8621 89.72 80.3521 91.23 81.4921C92.74 82.6321 93.77 83.8021 94.23 83.4921C94.43 83.3521 94.4199 82.8221 94.1199 82.1121C93.7147 81.2302 93.0834 80.4711 92.29 79.9121C91.519 79.3417 90.6053 78.9956 89.65 78.9121C88.86 78.9521 88.38 79.1121 88.33 79.3521Z" fill="#263238"/>
<path d="M68.8597 77.4822C69.2497 77.8622 70.6197 77.2922 72.2997 77.1122C73.9797 76.9322 75.4497 77.1122 75.7397 76.6322C75.8597 76.4022 75.5997 76.0122 74.9297 75.6322C74.0305 75.2288 73.0359 75.0867 72.0597 75.2222C71.0842 75.3243 70.158 75.7025 69.3897 76.3122C68.8297 76.8522 68.6797 77.2922 68.8597 77.4822Z" fill="#263238"/>
<path d="M113.49 73.8424C112.929 72.8413 112.049 72.0564 110.99 71.6124C104.498 68.0498 97.7768 64.9229 90.8701 62.2524L88.0301 63.8624C87.6574 66.6288 88.1141 69.4435 89.3425 71.95C90.5708 74.4565 92.5155 76.5421 94.9301 77.9424C96.8701 79.0224 99.3901 80.0424 99.6401 82.2524C99.8901 84.4624 97.5001 86.1024 96.1501 87.9624C95.3246 89.1236 94.8621 90.5035 94.8211 91.9275C94.7802 93.3516 95.1627 94.7558 95.9201 95.9624C96.7901 97.3124 98.1101 98.3324 98.9201 99.7224C99.422 100.666 99.7067 101.709 99.7534 102.777C99.8002 103.844 99.6077 104.909 99.1901 105.892C98.3801 107.892 97.0301 110.522 95.1901 111.632C97.674 112.191 100.27 111.96 102.617 110.972C104.963 109.984 106.943 108.289 108.28 106.122C109.8 103.542 109.92 100.412 110.12 97.4224C110.579 90.6212 111.66 83.8764 113.35 77.2724C113.776 76.1763 113.825 74.9696 113.49 73.8424Z" fill="#263238"/>
<path d="M91.3196 62.562C89.5706 64.8764 87.4682 66.9012 85.0896 68.562C82.6296 70.092 79.4896 70.812 76.7996 69.732C77.4696 68.992 78.1496 68.252 78.7996 67.502C74.0127 70.78 68.5935 73.0213 62.8896 74.082C66.4696 69.732 70.1596 65.292 75.0496 62.482C79.9396 59.672 86.3496 58.812 91.1196 61.802" fill="#263238"/>
<path d="M114.15 87.8521L98.9098 99.692C100.66 101.602 99.9798 106.462 98.2598 108.392C96.5398 110.322 94.2598 111.972 93.5898 114.472C92.8498 117.202 94.2998 120.032 94.3398 122.862C94.3998 126.862 91.7098 130.302 89.6298 133.722C87.5498 137.142 86.0498 141.722 88.3698 144.992C90.9798 148.672 96.8898 148.142 100.46 145.392C104.03 142.642 106.07 138.392 108.72 134.752C111.37 131.112 115.51 128.322 120 128.752C121.392 114.846 119.385 100.81 114.15 87.8521Z" fill="#263238"/>
<path d="M116.7 120.862C116.61 120.692 117.51 120.042 119.05 118.802C121.224 117.124 123.161 115.159 124.81 112.962C125.898 111.465 126.764 109.818 127.38 108.072C128.09 106.114 128.396 104.032 128.28 101.952C128.12 99.6856 127.402 97.4937 126.19 95.5722C124.835 93.4674 123.118 91.6189 121.12 90.1122C117.02 86.9222 112.12 85.1122 107.84 83.2022C103.856 81.6633 100.096 79.5983 96.6597 77.0622C94.3151 75.3124 92.3745 73.0785 90.9697 70.5122C90.0397 68.6622 89.8897 67.5122 90.0297 67.5122C90.1697 67.5122 90.6997 68.4422 91.8297 70.0222C93.4632 72.2182 95.4664 74.1131 97.7497 75.6222C101.203 77.8158 104.897 79.6043 108.76 80.9522C110.94 81.8222 113.27 82.7222 115.65 83.8222C118.173 84.9573 120.558 86.3765 122.76 88.0522C125.003 89.7556 126.918 91.8531 128.41 94.2422C129.809 96.5364 130.603 99.1477 130.72 101.832C130.786 104.229 130.35 106.614 129.44 108.832C128.671 110.734 127.612 112.505 126.3 114.082C124.432 116.31 122.184 118.189 119.66 119.632C117.85 120.652 116.76 121.002 116.7 120.862Z" fill="#263238"/>
<path d="M116.99 84.9523C116.533 84.8575 116.087 84.7134 115.66 84.5223C114.82 84.2123 113.66 83.7423 112.13 83.1223C108.228 81.5758 104.562 79.4888 101.24 76.9223C97.9036 74.3011 95.3933 70.7736 94.0101 66.7623C93.6076 65.5495 93.3689 64.2884 93.3001 63.0123C93.2821 62.6793 93.2821 62.3454 93.3001 62.0123C93.2839 61.8929 93.2839 61.7718 93.3001 61.6523C93.4539 63.3499 93.7891 65.0262 94.3001 66.6523C95.772 70.5336 98.2669 73.9441 101.52 76.5223C104.814 79.0513 108.412 81.1577 112.23 82.7923L115.69 84.3323C116.142 84.4984 116.577 84.706 116.99 84.9523Z" fill="#455A64"/>
<path d="M117.47 100.092C117.41 100.092 117.72 99.4921 117.88 98.3721C118.058 96.7702 117.777 95.1507 117.07 93.7021C116.036 91.546 114.44 89.7082 112.45 88.3821C110.26 86.7921 107.54 85.5321 104.82 83.9021C102.249 82.3736 99.9451 80.4346 98.0001 78.1621C96.4072 76.3077 95.0625 74.2538 94.0001 72.0521C93.2922 70.5745 92.7328 69.0303 92.3301 67.4421C92.1701 66.8821 92.1101 66.4421 92.0501 66.1421C92.0035 65.9934 91.9832 65.8378 91.9901 65.6821C92.1986 66.2418 92.3756 66.8126 92.5201 67.3921C92.9967 68.94 93.6021 70.4453 94.3301 71.8921C95.4059 74.0523 96.7498 76.0683 98.3301 77.8921C100.255 80.1126 102.524 82.01 105.05 83.5121C107.73 85.1121 110.47 86.4021 112.69 88.0421C114.73 89.4313 116.349 91.3547 117.37 93.6021C118.069 95.1166 118.303 96.8048 118.04 98.4521C117.963 98.8931 117.832 99.323 117.65 99.7321C117.56 99.9521 117.49 100.102 117.47 100.092Z" fill="#455A64"/>
<path d="M33.1997 89.952C33.1997 89.952 33.1997 89.892 33.2897 89.792C33.3897 89.6382 33.5 89.4912 33.6197 89.352C34.0784 88.8032 34.6611 88.3713 35.3197 88.092C36.3805 87.7205 37.4957 87.5278 38.6197 87.522C39.9097 87.452 41.3897 87.352 43.0197 87.352C44.7824 87.3834 46.5432 87.2191 48.2697 86.862C50.2179 86.3612 52.0224 85.4127 53.5397 84.092C55.2113 82.6082 56.6597 80.8904 57.8397 78.992C59.0947 76.9342 60.2396 74.8112 61.2697 72.632C62.3212 70.4377 63.5241 68.3193 64.8697 66.292C66.1411 64.3869 67.739 62.7213 69.5897 61.372C72.7784 59.1484 76.5532 57.9168 80.4397 57.832C83.0389 57.7416 85.6282 58.1981 88.0397 59.172L89.1597 59.662L89.9297 60.102C90.1501 60.2145 90.3607 60.345 90.5597 60.492C90.3267 60.4152 90.1022 60.3147 89.8897 60.192L89.0897 59.802L87.9697 59.362C85.5657 58.4768 83.0087 58.0824 80.4497 58.202C76.6528 58.3398 72.9775 59.5765 69.8697 61.762C68.0716 63.087 66.5212 64.7187 65.2897 66.582C63.9699 68.5812 62.7904 70.6695 61.7597 72.832C60.7178 75.0288 59.5594 77.1685 58.2897 79.242C57.078 81.1758 55.5888 82.9211 53.8697 84.422C52.2904 85.7824 50.4132 86.7518 48.3897 87.252C46.6288 87.6011 44.834 87.7487 43.0397 87.692C41.4097 87.692 39.9497 87.692 38.6497 87.782C37.5546 87.7608 36.4634 87.9195 35.4197 88.252C34.7732 88.4967 34.1915 88.8868 33.7197 89.392C33.5579 89.5891 33.3843 89.7761 33.1997 89.952Z" fill="#455A64"/>
<path d="M27.0798 76.4624C21.0798 61.3124 13.0798 46.4624 11.9798 35.1724L0.0297852 35.6524C0.279785 40.0224 1.84978 76.3924 10.3198 90.7724C18.7898 105.152 47.0698 138.772 47.0698 138.772L57.0198 113.182C57.0198 113.182 33.0898 91.6224 27.0798 76.4624Z" fill="#FFBE9D"/>
<path d="M7.15968 11.6523H1.92969C1.92969 11.6523 2.43969 14.7323 4.80969 14.9023C7.17969 15.0723 6.7197 14.5323 6.7197 14.5323L6.18968 15.0223L2.92969 15.6623C2.92969 15.6623 3.08968 18.2023 5.23969 18.6023L8.40968 15.6623L7.15968 11.6523Z" fill="#FFBE9D"/>
<path d="M21.4799 11.1922C20.9999 15.1322 20.9499 14.8922 20.9499 14.8922L16.1699 18.8322L14.9499 13.0322C14.8712 12.6479 14.6678 12.3003 14.3712 12.0435C14.0746 11.7867 13.7015 11.6351 13.3099 11.6122L11.1399 11.4722C11.1399 11.4722 11.9799 8.47223 9.24988 8.72223C9.24988 8.72223 7.74988 8.31223 6.53988 13.3322C5.21988 18.8222 -0.460119 31.7222 0.0298809 36.0322L12.1499 36.5222C12.0199 32.5222 15.3199 28.2522 16.9499 26.4122C17.4419 25.8644 17.7861 25.2001 17.9499 24.4822C18.1741 23.496 18.6417 22.5815 19.3099 21.8222C20.8099 20.1622 23.9599 17.1722 23.9599 17.1722V8.04223C23.9599 8.04223 21.9399 7.39224 21.4799 11.1922ZM11.7599 20.0122L9.26987 21.1422L9.68987 18.6022L11.7599 18.4022V20.0122Z" fill="#FFBE9D"/>
<path d="M9.14003 21.412C9.13855 21.0519 9.17882 20.6929 9.26003 20.342C9.38003 19.652 9.55003 18.672 9.78003 17.452L10.62 13.192C10.8173 12.3732 10.9544 11.5409 11.03 10.702C11.03 9.89204 10.73 8.96204 9.86003 8.91204C8.99003 8.86204 8.35002 9.45204 7.93002 10.162C7.7299 10.5309 7.56902 10.9196 7.45003 11.322L7.06003 12.512L5.76003 16.652C5.37003 17.832 5.01003 18.772 4.76003 19.412C4.64615 19.7674 4.48108 20.1043 4.27002 20.412C4.32804 20.0675 4.42882 19.7316 4.57002 19.412C4.78002 18.752 5.09002 17.802 5.43002 16.622C5.77002 15.442 6.18003 13.982 6.62003 12.442C6.75003 12.042 6.87003 11.642 7.00003 11.232C7.12175 10.7941 7.29284 10.3714 7.51003 9.97204C7.75219 9.55008 8.07099 9.17703 8.45003 8.87204C8.66124 8.70572 8.90382 8.58369 9.16327 8.51324C9.42271 8.4428 9.69369 8.42538 9.96002 8.46204C10.2276 8.50531 10.4851 8.59679 10.72 8.73204C10.9458 8.88977 11.1308 9.09884 11.26 9.34204C11.478 9.7897 11.5811 10.2846 11.56 10.782C11.4773 11.6491 11.3269 12.5084 11.11 13.352L10.11 17.602C9.84003 18.802 9.61002 19.782 9.43002 20.452C9.37529 20.7832 9.27782 21.1059 9.14003 21.412Z" fill="#EB996E"/>
<path d="M11.6196 20.0422C11.498 19.0672 11.4479 18.0846 11.4697 17.1022C11.4697 16.7022 11.4096 16.3222 11.3796 15.9722C11.3956 15.7088 11.3137 15.4489 11.1496 15.2422C10.8096 14.9922 10.3996 14.9922 10.4196 14.9022C10.4396 14.8122 10.5096 14.8322 10.6696 14.8122C10.9109 14.7782 11.1567 14.8239 11.3696 14.9422C11.519 15.0627 11.6396 15.215 11.7226 15.388C11.8057 15.561 11.849 15.7503 11.8496 15.9422C11.9245 16.3283 11.9713 16.7193 11.9896 17.1122C12.1292 18.1044 12.0015 19.1159 11.6196 20.0422Z" fill="#EB996E"/>
<path d="M17.56 17.812C17.56 17.812 17.23 18.252 16.56 18.812C15.7136 19.5621 14.7722 20.1976 13.76 20.702C12.7052 21.1594 11.5779 21.4268 10.43 21.492C9.96442 21.5829 9.48563 21.5829 9.02002 21.492C9.45206 21.3078 9.91159 21.1963 10.38 21.162C11.4674 20.998 12.5294 20.6956 13.54 20.262C14.535 19.7802 15.4853 19.2113 16.38 18.562C17.06 18.042 17.51 17.752 17.56 17.812Z" fill="#EB996E"/>
<path d="M112.59 131.392C112.59 131.392 126.05 130.992 134.11 128.592C142.17 126.192 173.11 118.832 173.11 118.832L222.76 110.552L223.76 123.392C223.76 123.392 177.63 136.882 168.67 139.952C159.71 143.022 118.76 157.072 111.02 155.292L106.22 145.422L112.59 131.392Z" fill="#FFBE9D"/>
<path d="M246.63 95.4522C245.82 95.2722 241.8 97.1022 241.8 97.1022C242.183 96.6376 242.399 96.058 242.413 95.456C242.428 94.8541 242.24 94.2647 241.88 93.7822L236.36 96.4922C234.901 97.9719 233.362 99.3706 231.75 100.682C229.21 103.021 226.869 105.567 224.75 108.292L221.45 111.362L223.5 123.512C224.943 123.633 226.396 123.442 227.76 122.952C229.47 122.162 231.97 118.952 231.97 118.952L236.68 118.552C237.228 118.512 237.751 118.306 238.18 117.962C238.605 117.548 238.93 117.044 239.133 116.486C239.336 115.929 239.41 115.332 239.35 114.742C242.35 113.042 240.6 110.882 240.6 110.882C241.547 110.766 242.414 110.29 243.02 109.552C243.277 109.153 243.4 108.682 243.373 108.208C243.346 107.734 243.17 107.28 242.87 106.912C242.31 105.912 237.99 106.222 237.99 106.222L237.76 104.952C237.76 104.952 244.36 99.7122 245.84 98.5722C247.32 97.4322 247.39 95.6222 246.63 95.4522Z" fill="#FFBE9D"/>
<path d="M241.88 96.9521C241.405 97.8998 240.721 98.7273 239.88 99.3721C239.024 100.104 238.219 100.892 237.47 101.732C236.638 102.812 236.036 104.051 235.7 105.372C235.352 106.755 234.856 108.096 234.22 109.372C233.674 110.392 233.002 111.34 232.22 112.192C231.691 112.76 231.112 113.279 230.49 113.742C230.273 113.926 230.026 114.072 229.76 114.172C229.7 114.102 230.7 113.412 231.95 111.942C232.671 111.086 233.292 110.15 233.8 109.152C234.397 107.908 234.873 106.608 235.22 105.272C235.571 103.885 236.215 102.589 237.11 101.472C237.892 100.628 238.742 99.8491 239.65 99.1422C240.437 98.4579 241.181 97.7265 241.88 96.9521Z" fill="#EB996E"/>
<path d="M239.45 114.712C238.778 115.168 238.034 115.506 237.25 115.712C236.401 115.998 235.522 116.179 234.63 116.252C234.101 116.292 233.569 116.292 233.04 116.252C232.435 116.21 231.853 116.01 231.35 115.672C231.089 115.486 230.876 115.24 230.73 114.955C230.583 114.669 230.508 114.353 230.51 114.032C230.621 113.457 230.933 112.94 231.39 112.572C231.755 112.223 232.202 111.972 232.69 111.842C233.13 111.722 233.53 111.632 233.9 111.562C234.683 111.325 235.503 111.231 236.32 111.282C236.32 111.342 235.42 111.522 233.98 111.912L232.82 112.252C232.403 112.38 232.024 112.61 231.72 112.922C231.371 113.218 231.126 113.618 231.02 114.062C231.022 114.298 231.081 114.529 231.193 114.736C231.304 114.944 231.465 115.121 231.66 115.252C232.564 115.722 233.588 115.911 234.6 115.792C235.459 115.742 236.31 115.601 237.14 115.372C238.57 115.002 239.42 114.632 239.45 114.712Z" fill="#EB996E"/>
<path d="M240.76 110.882C240.237 111.174 239.657 111.348 239.06 111.392C238.423 111.501 237.776 111.548 237.13 111.532C236.706 111.563 236.28 111.5 235.882 111.348C235.485 111.196 235.126 110.958 234.83 110.652C234.577 110.292 234.433 109.867 234.415 109.427C234.397 108.987 234.507 108.552 234.73 108.172C235.067 107.578 235.581 107.102 236.2 106.812C236.723 106.508 237.315 106.339 237.92 106.322C237.92 106.402 237.29 106.602 236.38 107.132C235.863 107.429 235.44 107.866 235.16 108.392C234.992 108.689 234.909 109.026 234.922 109.367C234.934 109.708 235.041 110.039 235.23 110.322C235.484 110.568 235.785 110.759 236.115 110.885C236.445 111.01 236.797 111.067 237.15 111.052C237.773 111.093 238.397 111.093 239.02 111.052C239.595 110.952 240.177 110.895 240.76 110.882Z" fill="#EB996E"/>
<path d="M237.5 118.382C237.063 118.6 236.594 118.746 236.11 118.812C234.971 119.129 233.791 119.27 232.61 119.232C232.409 119.241 232.209 119.206 232.024 119.128C231.839 119.05 231.674 118.932 231.54 118.782C231.324 118.495 231.214 118.141 231.23 117.782C231.253 117.489 231.34 117.204 231.485 116.948C231.63 116.692 231.83 116.472 232.07 116.302C232.95 115.772 233.59 116.102 233.55 116.142C233.099 116.19 232.666 116.348 232.29 116.602C232.115 116.751 231.973 116.934 231.873 117.141C231.774 117.347 231.718 117.573 231.71 117.802C231.705 118.05 231.782 118.293 231.93 118.492C232.02 118.587 232.131 118.66 232.255 118.705C232.378 118.75 232.51 118.766 232.64 118.752C233.779 118.778 234.918 118.691 236.04 118.492C236.515 118.363 237.011 118.325 237.5 118.382Z" fill="#EB996E"/>
<path d="M89.76 174.022C89.4726 174.244 89.1564 174.426 88.82 174.562C87.9343 174.975 87.0141 175.31 86.07 175.562C82.9259 176.481 79.6096 176.645 76.39 176.042C73.1746 175.436 70.1526 174.064 67.58 172.042C66.8073 171.438 66.088 170.769 65.43 170.042C65.1746 169.784 64.9529 169.495 64.77 169.182C64.85 169.112 65.83 170.302 67.77 171.762C70.3476 173.662 73.3163 174.964 76.46 175.572C79.6047 176.163 82.8407 176.057 85.94 175.262C88.33 174.652 89.7 173.952 89.76 174.022Z" fill="#FF725E"/>
<path d="M67.0301 137.042C67.0301 137.042 98.6701 126.922 99.8501 126.602C101.03 126.282 128.94 128.772 128.94 128.772C128.94 128.772 127.76 147.262 134.76 153.252L114.23 160.652L107.76 178.462C107.76 178.462 104.15 185.722 107.02 192.532C112.45 205.422 121.87 225.762 120.48 228.092C120.33 228.332 119.48 221.092 106.09 217.252C102.03 216.102 94.6601 216.082 87.9901 217.432C59.2901 223.212 48.2101 236.432 44.9901 238.742C44.9901 238.742 50.9001 192.372 48.1101 185.132C45.3201 177.892 42.3601 173.132 44.6601 166.722C46.9601 160.312 50.4101 149.952 50.4101 149.952L39.1001 137.152L54.9001 110.882L69.3601 122.882L67.0301 137.042Z" fill="#FF725E"/>
<path d="M77.5498 180.002C77.1879 180.049 76.8216 180.049 76.4598 180.002C75.4672 179.962 74.4801 179.835 73.5098 179.622C70.2794 178.92 67.3001 177.355 64.8898 175.092C62.4874 172.815 60.7959 169.89 60.0198 166.672C59.7893 165.688 59.6554 164.683 59.6198 163.672C59.5884 163.311 59.6086 162.948 59.6798 162.592C59.8369 163.918 60.0706 165.234 60.3798 166.532C61.2374 169.636 62.9204 172.449 65.2498 174.672C67.6051 176.866 70.4777 178.428 73.5998 179.212C75.9998 179.952 77.5498 179.952 77.5498 180.002Z" fill="#263238"/>
<path d="M47.8398 140.802C49.0722 142.375 49.8349 144.265 50.0398 146.252C50.4148 148.216 50.2347 150.245 49.5198 152.112C49.7148 150.191 49.7148 148.254 49.5198 146.332C49.148 144.437 48.5851 142.584 47.8398 140.802Z" fill="#263238"/>
<path d="M114.99 146.282C114.99 146.362 114.34 146.812 113.38 147.742C112.137 148.945 111.136 150.374 110.43 151.952C109.728 153.528 109.348 155.228 109.31 156.952C109.31 158.282 109.44 159.102 109.31 159.122C109.025 158.435 108.886 157.696 108.9 156.952C108.825 155.155 109.167 153.365 109.9 151.722C110.624 150.077 111.707 148.615 113.07 147.442C113.625 146.93 114.278 146.535 114.99 146.282Z" fill="#263238"/>
<g opacity="0.3">
<path d="M72.8497 179.312C69.7979 178.706 67.0215 177.135 64.9297 174.832C63.5102 173.468 62.3483 171.859 61.4997 170.082C60.7797 173.222 65.1497 178.792 69.4097 180.842C71.5691 181.848 73.9331 182.338 76.3146 182.272C78.696 182.206 81.0294 181.586 83.1297 180.462C79.6731 180.425 76.229 180.04 72.8497 179.312Z" fill="black"/>
</g>
<path d="M111.6 202.292C111.6 202.352 110.77 201.722 109.13 200.982C106.796 199.975 104.282 199.451 101.74 199.442C97.9586 199.419 94.2135 200.178 90.7398 201.672C86.5259 203.57 82.5069 205.875 78.7398 208.552C71.7953 213.366 64.3888 217.476 56.6298 220.822C53.6298 222.092 51.1898 223.002 49.4798 223.592C48.6298 223.902 47.9598 224.112 47.4798 224.252C47.2538 224.34 47.0191 224.404 46.7798 224.442C46.9918 224.321 47.2165 224.224 47.4498 224.152L49.3898 223.402C51.0798 222.752 53.5098 221.802 56.4598 220.482C64.1622 217.057 71.5276 212.919 78.4598 208.122C82.2539 205.42 86.3111 203.109 90.5698 201.222C94.108 199.73 97.9204 198.997 101.76 199.072C104.344 199.115 106.89 199.704 109.23 200.802C110.078 201.199 110.874 201.699 111.6 202.292Z" fill="black"/>
<path d="M105.88 185.712C105.279 185.179 104.644 184.684 103.98 184.232C102.114 183.089 99.9946 182.422 97.8098 182.292C94.5647 182.138 91.3278 182.734 88.3498 184.032C84.6882 185.622 81.1133 187.405 77.6398 189.372C74.1338 191.32 70.5177 193.063 66.8098 194.592C63.7562 195.816 60.5667 196.669 57.3098 197.132C55.1159 197.439 52.8927 197.476 50.6898 197.242C50.0918 197.177 49.4977 197.08 48.9098 196.952C48.7011 196.922 48.4964 196.869 48.2998 196.792C48.2998 196.742 49.1598 196.912 50.7098 197.042C52.8964 197.192 55.0929 197.101 57.2598 196.772C60.4727 196.259 63.6164 195.379 66.6298 194.152C70.3066 192.612 73.8984 190.876 77.3898 188.952C80.8826 186.979 84.4814 185.2 88.1698 183.622C91.2201 182.324 94.5312 181.756 97.8398 181.962C100.073 182.126 102.225 182.863 104.09 184.102C104.775 184.532 105.381 185.076 105.88 185.712Z" fill="black"/>
<path d="M63.6399 173.112C63.6399 173.112 63.4299 173.322 62.9999 173.632C62.7398 173.825 62.4657 173.999 62.1799 174.152C61.8157 174.375 61.4384 174.575 61.0499 174.752C60.0399 175.227 58.9846 175.599 57.8999 175.862C56.5687 176.178 55.2078 176.352 53.8399 176.382C52.4688 176.38 51.1015 176.235 49.7599 175.952C48.669 175.727 47.6036 175.392 46.5799 174.952C46.1863 174.787 45.8024 174.6 45.4299 174.392C45.1399 174.249 44.8622 174.081 44.5999 173.892C44.1599 173.602 43.9299 173.422 43.9499 173.392C43.9699 173.362 44.9499 173.942 46.7199 174.612C47.7368 174.995 48.7837 175.293 49.8499 175.502C51.1694 175.743 52.5086 175.86 53.8499 175.852C55.1786 175.822 56.5012 175.664 57.7999 175.382C58.8641 175.141 59.9048 174.806 60.9099 174.382C62.6199 173.692 63.5799 173.032 63.6399 173.112Z" fill="black"/>
<path d="M110.65 170.602C110.535 170.732 110.404 170.846 110.26 170.942C109.863 171.241 109.442 171.506 109 171.732C107.371 172.579 105.59 173.093 103.76 173.242C101.054 173.456 98.3314 173.206 95.7098 172.502C92.7098 171.782 89.5998 170.612 86.2498 169.662C80.5052 168.066 74.492 167.678 68.5898 168.522C66.7992 168.777 65.0259 169.141 63.2798 169.612C62.0498 169.942 61.3698 170.152 61.3598 170.112C61.3498 170.072 61.5098 170.022 61.8298 169.902C62.1498 169.782 62.6098 169.602 63.2298 169.422C64.9631 168.873 66.7346 168.452 68.5298 168.162C74.4852 167.197 80.5794 167.538 86.3898 169.162C89.7698 170.162 92.8898 171.302 95.8198 172.032C98.3918 172.748 101.065 173.032 103.73 172.872C105.523 172.756 107.279 172.308 108.91 171.552C110.06 171.002 110.62 170.552 110.65 170.602Z" fill="black"/>
<path d="M109.82 155.592C109.611 155.648 109.396 155.682 109.18 155.692C108.76 155.692 108.18 155.812 107.33 155.872C105.056 155.928 102.782 155.764 100.54 155.382C97.6997 154.922 94.3797 154.082 90.7197 153.092C86.7955 151.929 82.7818 151.093 78.7197 150.592C77.6521 150.504 76.5807 150.471 75.5097 150.492C74.9797 150.492 74.4597 150.492 73.9397 150.542L72.4097 150.722C70.4617 150.999 68.548 151.478 66.6997 152.152C63.1397 153.412 60.0297 154.862 57.2997 155.782C55.1623 156.566 52.9287 157.057 50.6597 157.242C50.0442 157.297 49.4251 157.297 48.8097 157.242C48.5914 157.248 48.3732 157.228 48.1597 157.182C48.376 157.165 48.5933 157.165 48.8097 157.182C49.4214 157.185 50.0327 157.148 50.6397 157.072C52.8787 156.813 55.076 156.272 57.1797 155.462C59.8697 154.512 62.9497 153.032 66.5397 151.732C68.4126 151.035 70.3531 150.536 72.3297 150.242L73.8997 150.052C74.4297 150.052 74.9597 150.052 75.4997 150.052C76.5873 150.031 77.6754 150.064 78.7597 150.152C82.8582 150.656 86.9062 151.509 90.8597 152.702C94.5097 153.702 97.7997 154.602 100.62 155.102C102.836 155.514 105.085 155.729 107.34 155.742L109.18 155.672C109.389 155.62 109.604 155.594 109.82 155.592Z" fill="black"/>
<path d="M119.76 128.762C119.85 128.812 118.83 130.272 117.87 132.922C116.613 136.38 116.269 140.103 116.87 143.732C117.523 147.35 119.077 150.745 121.39 153.602C123.17 155.792 124.6 156.852 124.53 156.932C124.17 156.732 123.834 156.49 123.53 156.212C122.658 155.491 121.852 154.695 121.12 153.832C118.673 150.981 117.03 147.529 116.36 143.832C115.74 140.13 116.134 136.329 117.5 132.832C117.914 131.79 118.419 130.786 119.01 129.832C119.217 129.447 119.469 129.088 119.76 128.762Z" fill="black"/>
<path d="M67.01 131.952C66.7303 132.069 66.4326 132.137 66.13 132.152C65.3123 132.288 64.4877 132.379 63.66 132.422C62.4224 132.502 61.1798 132.405 59.97 132.132C58.4468 131.786 57.0571 131.004 55.97 129.882C54.81 128.742 53.97 127.502 53.04 126.472C52.2704 125.554 51.3589 124.764 50.34 124.132C49.3837 123.583 48.3112 123.268 47.21 123.212C47.5015 123.109 47.813 123.075 48.12 123.112C48.9628 123.16 49.7836 123.4 50.52 123.812C51.6117 124.419 52.5869 125.214 53.4 126.162C54.33 127.162 55.22 128.422 56.33 129.512C57.3445 130.56 58.6282 131.307 60.04 131.672C61.2051 131.953 62.4018 132.081 63.6 132.052C65.76 131.952 67.01 131.822 67.01 131.952Z" fill="black"/>
<path d="M52.9998 436.472C52.8598 436.472 52.7397 425.992 52.7397 413.062C52.7397 400.132 52.8598 389.652 52.9998 389.652C53.1398 389.652 53.2598 400.132 53.2598 413.062C53.2598 425.992 53.1498 436.472 52.9998 436.472Z" fill="#263238"/>
<path d="M69.4299 424.442C69.2799 424.442 69.1699 413.962 69.1699 401.032C69.1699 388.102 69.2799 377.622 69.4299 377.622C69.5799 377.622 69.6899 388.102 69.6899 401.032C69.6899 413.962 69.5699 424.442 69.4299 424.442Z" fill="#263238"/>
</svg>
