<svg width="357" height="360" viewBox="0 0 357 360" fill="none" xmlns="http://www.w3.org/2000/svg">
<path d="M309.333 258.48C321.7 259.164 326.748 269.618 326.812 280.757C326.876 291.895 319.793 302.241 310.454 308.196C301.115 314.15 289.82 316.231 278.774 316.533C269.306 316.793 259.125 315.54 251.985 309.276C244.845 303.012 242.76 290.318 249.943 284.112C256.79 278.201 269.178 280.937 277.917 278.733C285.186 276.905 287.82 272.599 291.29 267.681C294.232 263.421 298.584 260.358 303.564 259.041C305.448 258.56 307.393 258.37 309.333 258.48Z" fill="#EBEBEB"/>
<path d="M86.2939 274.45C85.6228 286.733 75.4197 291.73 64.5455 291.802C53.6713 291.874 43.5539 284.839 37.7705 275.566C31.9871 266.292 29.9165 255.082 29.6238 244.123C29.3739 234.72 30.5948 224.64 36.7138 217.534C42.8328 210.427 55.1992 208.368 61.2611 215.51C67.0302 222.3 64.3527 234.605 66.5019 243.274C68.294 250.474 72.4923 253.102 77.2975 256.543C81.4332 259.476 84.4034 263.793 85.6799 268.726C86.1692 270.592 86.3762 272.521 86.2939 274.45Z" fill="#EBEBEB"/>
<path d="M303.624 152.492C305.938 138.271 296.382 124.852 282.28 122.518C268.179 120.184 254.871 129.82 252.556 144.04C250.242 158.261 259.798 171.681 273.9 174.015C288.001 176.348 301.309 166.712 303.624 152.492Z" fill="#EBEBEB"/>
<path d="M151.782 103.126L146.277 93.3409C149.68 87.7703 150.894 81.1176 149.679 74.6905C148.465 68.2634 144.911 62.5267 139.715 58.608C134.52 54.6894 128.058 52.8721 121.601 53.5135C115.144 54.1549 109.159 57.2085 104.821 62.0741C100.484 66.9398 98.1076 73.2655 98.1603 79.808C98.213 86.3505 100.69 92.6365 105.106 97.4305C109.521 102.224 115.555 105.18 122.022 105.715C128.488 106.251 134.919 104.328 140.051 100.325L151.782 103.126Z" fill="#FAFAFA"/>
<path d="M151.782 103.126L140.015 100.426H139.88L139.965 100.31L140.101 100.44C136.483 103.287 132.182 105.118 127.635 105.746C126.27 105.941 124.892 106.01 123.515 105.955C122.801 105.955 122.087 105.898 121.373 105.84L119.181 105.502C115.69 104.829 112.373 103.443 109.434 101.429C106.494 99.4143 103.995 96.8144 102.09 93.7891C100.185 90.7637 98.9144 87.3771 98.3565 83.8378C97.7986 80.2986 97.9652 76.6816 98.8462 73.2097C99.825 69.2131 101.737 65.5102 104.422 62.4097C107.137 59.2393 110.564 56.7705 114.418 55.2097C118.119 53.7337 122.102 53.116 126.071 53.4025C129.83 53.6593 133.487 54.7483 136.781 56.5921C142.689 59.9088 147.107 65.3893 149.119 71.8993C149.919 74.6672 150.3 77.5414 150.247 80.4241C150.104 85.0131 148.764 89.4831 146.363 93.3841V93.2905L151.789 103.126L146.206 93.3841V93.3337V93.2905C148.567 89.3961 149.872 84.9441 149.99 80.3809C150.028 77.5282 149.641 74.686 148.84 71.9497C146.837 65.517 142.461 60.105 136.617 56.8297C133.37 55.0164 129.767 53.947 126.064 53.6977C122.149 53.4166 118.223 54.0294 114.576 55.4905C110.761 57.04 107.371 59.4922 104.694 62.6401C102.05 65.6919 100.166 69.3348 99.196 73.2673C98.2516 77.0373 98.1468 80.9715 98.889 84.7873C99.6038 88.3938 101.077 91.804 103.209 94.7881C107.052 100.174 112.782 103.885 119.238 105.17L121.38 105.509C122.094 105.574 122.808 105.595 123.522 105.631C124.884 105.69 126.248 105.627 127.599 105.444C132.109 104.842 136.382 103.051 139.987 100.253L140.558 99.8065L140.115 100.382L140.058 100.238L151.782 103.126Z" fill="#263238"/>
<path d="M131.754 66.0098H114.933C114.12 66.0098 113.462 66.6738 113.462 67.493V92.5634C113.462 93.3825 114.12 94.0466 114.933 94.0466H131.754C132.567 94.0466 133.225 93.3825 133.225 92.5634V67.493C133.225 66.6738 132.567 66.0098 131.754 66.0098Z" fill="#263238"/>
<path d="M132.211 67.6946H114.376V88.6466H132.211V67.6946Z" fill="#FAFAFA"/>
<path d="M123.343 92.8441C124.171 92.8441 124.843 92.1671 124.843 91.3321C124.843 90.497 124.171 89.8201 123.343 89.8201C122.515 89.8201 121.844 90.497 121.844 91.3321C121.844 92.1671 122.515 92.8441 123.343 92.8441Z" fill="#455A64"/>
<path d="M125.843 74.081L132.426 81.9146L138.587 74.081H135.389V63.3026L128.991 63.2234L129.07 74.0954L125.843 74.081Z" fill="#90CAF9"/>
<path d="M126.249 77.04C125.407 78.1961 124.468 79.2776 123.443 80.2728C122.508 81.3503 121.484 82.3451 120.38 83.2464C121.216 82.0873 122.153 81.0054 123.179 80.0136C124.114 78.933 125.141 77.9379 126.249 77.04Z" fill="#263238"/>
<path d="M124.95 76.0825C124.524 76.7584 124 77.3653 123.394 77.8825C122.876 78.4807 122.269 78.9933 121.594 79.4017C122.017 78.7237 122.542 78.1164 123.151 77.6017C123.667 77.0023 124.274 76.4894 124.95 76.0825Z" fill="#263238"/>
<path d="M287.307 73.5913V85.7665H283.158L292.105 96.2713L300.494 85.9825H296.253V73.5913H287.307Z" fill="#90CAF9"/>
<path opacity="0.3" d="M287.307 73.5913V85.7665H283.158L292.105 96.2713L300.494 85.9825H296.253V73.5913H287.307Z" fill="black"/>
<path d="M316.466 46.4256C315.355 42.067 313.061 38.107 309.842 34.99C306.623 31.8729 302.606 29.7223 298.242 28.7794C293.878 27.8365 289.34 28.1386 285.137 29.6519C280.934 31.1652 277.232 33.8297 274.447 37.3464C273.68 37.251 272.907 37.2029 272.134 37.2024C269.434 37.0763 266.736 37.5037 264.204 38.4588C261.672 39.414 259.359 40.877 257.403 42.7594C255.448 44.6419 253.892 46.9046 252.828 49.4109C251.765 51.9171 251.217 54.6148 251.217 57.3408C251.217 60.0668 251.765 62.7645 252.828 65.2708C253.892 67.777 255.448 70.0398 257.403 71.9222C259.359 73.8047 261.672 75.2677 264.204 76.2228C266.736 77.178 269.434 77.6054 272.134 77.4792H315.624C319.643 77.4874 323.506 75.9118 326.389 73.0885C329.272 70.2652 330.947 66.4177 331.057 62.3666C331.167 58.3155 329.703 54.3814 326.977 51.4033C324.251 48.4253 320.48 46.6391 316.466 46.4256Z" fill="#90CAF9"/>
<path d="M321.065 72.0505C321.029 71.9929 321.893 71.4529 323.035 70.2937C324.534 68.7929 325.685 66.9754 326.403 64.9721C327.122 62.9688 327.391 60.8297 327.191 58.7089C327.041 57.0817 326.727 56.1025 326.791 56.0881C326.908 56.2976 326.995 56.5232 327.048 56.7577C327.232 57.387 327.368 58.0297 327.455 58.6801C327.734 60.8451 327.495 63.046 326.759 65.099C326.022 67.152 324.809 68.9974 323.221 70.4809C322.747 70.9318 322.236 71.3413 321.693 71.7049C321.504 71.854 321.291 71.9707 321.065 72.0505Z" fill="#263238"/>
<path d="M275.004 43.2361C275.004 43.3009 273.897 43.0201 272.112 42.9841C269.784 42.9211 267.469 43.3762 265.335 44.3169C263.2 45.2577 261.297 46.661 259.76 48.4273C258.575 49.7809 258.047 50.7817 257.982 50.7385C258.065 50.4832 258.183 50.2408 258.332 50.0185C258.696 49.3947 259.106 48.8001 259.56 48.2401C261.075 46.3867 263.001 44.9196 265.184 43.9576C267.366 42.9956 269.742 42.5658 272.12 42.7033C272.84 42.7414 273.556 42.8377 274.262 42.9913C274.519 43.0402 274.768 43.1225 275.004 43.2361Z" fill="#263238"/>
<path d="M288.492 33.2857C288.492 33.3577 287.699 33.4081 286.471 33.7321C284.869 34.1754 283.36 34.9072 282.016 35.8921C280.679 36.8741 279.533 38.0942 278.631 39.4921C277.917 40.5649 277.646 41.3137 277.582 41.2921C277.606 41.1026 277.659 40.918 277.739 40.7449C277.918 40.26 278.14 39.7925 278.403 39.3481C278.785 38.6711 279.229 38.0322 279.731 37.4401C280.355 36.7368 281.049 36.0999 281.802 35.5393C282.56 34.9899 283.374 34.5217 284.229 34.1425C284.931 33.8349 285.66 33.5938 286.407 33.4225C286.907 33.3121 287.416 33.2447 287.928 33.2209C288.118 33.2127 288.308 33.2346 288.492 33.2857Z" fill="#263238"/>
<path d="M307.192 77.3063C307.192 77.4143 301.322 77.4935 294.082 77.4935C286.843 77.4935 280.966 77.4143 280.966 77.3063C280.966 77.1983 286.835 77.1191 294.082 77.1191C301.33 77.1191 307.192 77.2055 307.192 77.3063Z" fill="#263238"/>
<path d="M308.662 113.587C308.562 113.587 308.477 108.735 308.477 102.787C308.477 96.8401 308.562 91.9873 308.662 91.9873C308.762 91.9873 308.855 96.8329 308.855 102.787C308.855 108.742 308.769 113.587 308.662 113.587Z" fill="#263238"/>
<path d="M312.861 123.048C312.761 123.048 312.675 116.806 312.675 109.102C312.675 101.398 312.761 95.1553 312.861 95.1553C312.961 95.1553 313.053 101.398 313.053 109.102C313.053 116.806 312.968 123.048 312.861 123.048Z" fill="#263238"/>
<path d="M44.4178 135.425V142.884H41.876L47.3524 149.321L52.4932 143.021H49.8942V135.425H44.4178Z" fill="#90CAF9"/>
<path opacity="0.3" d="M44.4178 135.425V142.884H41.876L47.3524 149.321L52.4932 143.021H49.8942V135.425H44.4178Z" fill="black"/>
<path d="M62.2821 118.8C61.6006 116.13 60.1948 113.704 58.2224 111.794C56.25 109.884 53.7889 108.567 51.1154 107.989C48.4418 107.411 45.6614 107.596 43.086 108.522C40.5107 109.449 38.2423 111.08 36.5353 113.234C36.0612 113.18 35.5845 113.151 35.1073 113.148C33.4758 113.108 31.8528 113.398 30.334 114C28.8152 114.602 27.4311 115.505 26.2633 116.654C25.0954 117.804 24.1674 119.177 23.5338 120.694C22.9001 122.21 22.5737 123.84 22.5737 125.485C22.5737 127.131 22.9001 128.76 23.5338 130.277C24.1674 131.793 25.0954 133.167 26.2633 134.316C27.4311 135.466 28.8152 136.368 30.334 136.97C31.8528 137.572 33.4758 137.862 35.1073 137.822H61.7609C64.2195 137.823 66.5814 136.856 68.3439 135.128C70.1065 133.399 71.1307 131.045 71.1986 128.567C71.2665 126.089 70.3728 123.681 68.7075 121.857C67.0423 120.033 64.737 118.936 62.2821 118.8Z" fill="#90CAF9"/>
<path d="M65.0952 134.482C65.0952 134.431 65.5807 134.086 66.2662 133.373C67.1633 132.447 67.8567 131.34 68.3011 130.126C68.7271 128.905 68.8972 127.608 68.8009 126.317C68.7223 125.323 68.5438 124.719 68.601 124.704C68.8627 125.194 69.0184 125.733 69.0579 126.288C69.2443 127.623 69.1043 128.983 68.6501 130.25C68.1959 131.518 67.4412 132.654 66.4518 133.56C66.0689 133.96 65.6067 134.274 65.0952 134.482Z" fill="#263238"/>
<path d="M36.878 116.827C36.878 116.892 36.164 116.741 35.1002 116.726C33.6826 116.7 32.2761 116.983 30.9772 117.555C29.6782 118.128 28.5175 118.978 27.5746 120.046C26.8606 120.859 26.5036 121.486 26.4536 121.428C26.6543 120.853 26.9676 120.324 27.3747 119.873C28.2997 118.721 29.4854 117.809 30.8323 117.216C32.1791 116.622 33.6476 116.363 35.1144 116.46C35.7205 116.464 36.3198 116.589 36.878 116.827Z" fill="#263238"/>
<path d="M45.1391 110.736C44.7364 110.868 44.3263 110.977 43.911 111.06C42.9441 111.337 42.0329 111.783 41.2192 112.378C40.4092 112.972 39.7064 113.703 39.1415 114.538C38.9279 114.913 38.6893 115.274 38.4275 115.618C38.4894 115.182 38.648 114.766 38.8916 114.401C39.4074 113.478 40.1164 112.679 40.9693 112.061C41.8192 111.434 42.7934 110.999 43.8253 110.786C44.2534 110.667 44.7032 110.65 45.1391 110.736Z" fill="#263238"/>
<path d="M56.5987 137.707C56.5987 137.808 53.0287 137.894 48.5662 137.894C44.1037 137.894 40.5266 137.808 40.5266 137.707C40.5266 137.606 44.1252 137.52 48.552 137.52C52.9788 137.52 56.5987 137.599 56.5987 137.707Z" fill="#263238"/>
<path d="M57.4983 159.926C57.3143 157.721 57.2524 155.507 57.3126 153.295C57.2523 151.081 57.3142 148.864 57.4983 146.657C57.6866 148.864 57.7486 151.081 57.6839 153.295C57.7484 155.507 57.6864 157.721 57.4983 159.926Z" fill="#263238"/>
<path d="M60.0687 165.73C59.9687 165.73 59.8831 161.899 59.8831 157.183C59.8831 152.467 59.9687 148.637 60.0687 148.637C60.1687 148.637 60.2543 152.467 60.2543 157.183C60.2543 161.899 60.1758 165.73 60.0687 165.73Z" fill="#263238"/>
<path d="M173.702 261.151V296.05H161.814L187.439 326.146L211.48 296.662H199.328V261.151H173.702Z" fill="#90CAF9"/>
<path opacity="0.3" d="M173.702 261.151V296.05H161.814L187.439 326.146L211.48 296.662H199.328V261.151H173.702Z" fill="black"/>
<path d="M257.269 183.297C254.08 170.809 247.504 159.463 238.279 150.532C229.053 141.601 217.542 135.439 205.038 132.736C192.533 130.033 179.529 130.897 167.484 135.23C155.439 139.564 144.83 147.196 136.845 157.269C134.646 157.003 132.434 156.863 130.219 156.852C115.038 156.852 100.478 162.933 89.7436 173.758C79.0088 184.583 72.978 199.265 72.978 214.574C72.978 229.883 79.0088 244.565 89.7436 255.39C100.478 266.215 115.038 272.297 130.219 272.297H254.855C266.364 272.305 277.421 267.783 285.673 259.692C293.924 251.602 298.717 240.583 299.032 228.982C299.346 217.381 295.157 206.114 287.357 197.581C279.556 189.048 268.761 183.923 257.269 183.297Z" fill="#90CAF9"/>
<path d="M144.335 193.802C144.297 193.679 144.277 193.55 144.278 193.421C144.278 193.133 144.235 192.773 144.207 192.333C144.207 192.089 144.207 191.829 144.164 191.541C144.121 191.253 144.092 190.944 144.057 190.613C143.964 189.943 143.907 189.173 143.721 188.352C143.643 187.934 143.557 187.495 143.464 187.041C143.371 186.588 143.228 186.134 143.107 185.652C142.886 184.68 142.514 183.679 142.157 182.621C141.3 180.364 140.231 178.194 138.966 176.141C137.66 174.1 136.165 172.189 134.503 170.431C133.711 169.653 132.968 168.89 132.197 168.271C131.819 167.954 131.483 167.63 131.105 167.349L130.041 166.557C129.384 166.032 128.72 165.65 128.163 165.283L127.378 164.779L126.664 164.405L125.721 163.865C125.604 163.812 125.496 163.741 125.4 163.656C125.521 163.693 125.638 163.741 125.75 163.8L126.735 164.275L127.449 164.628C127.699 164.765 127.963 164.93 128.256 165.103C128.92 165.481 129.563 165.894 130.184 166.341L131.262 167.119C131.64 167.393 131.976 167.724 132.383 168.033C133.203 168.711 133.987 169.432 134.732 170.193C138.167 173.695 140.805 177.909 142.464 182.541C142.827 183.547 143.137 184.57 143.393 185.609C143.507 186.098 143.65 186.559 143.735 187.049C143.821 187.538 143.893 187.949 143.964 188.366C144.098 189.124 144.194 189.888 144.249 190.656C144.249 190.994 144.314 191.304 144.328 191.599C144.342 191.894 144.328 192.146 144.328 192.391V193.485C144.337 193.591 144.339 193.697 144.335 193.802Z" fill="#263238"/>
<path d="M120.916 182.642C120.866 182.693 120.116 181.922 118.774 180.922C115.216 178.257 110.989 176.65 106.572 176.285C104.879 176.141 103.823 176.206 103.823 176.141C104.055 176.072 104.295 176.038 104.537 176.04C105.212 175.994 105.889 175.994 106.565 176.04C111.067 176.254 115.388 177.892 118.917 180.72C119.449 181.141 119.953 181.598 120.423 182.088C120.608 182.253 120.773 182.439 120.916 182.642Z" fill="#263238"/>
<path d="M147.134 231.912C146.759 231.95 146.381 231.95 146.006 231.912C145.292 231.912 144.221 231.912 142.921 231.847C140.322 231.753 136.731 231.537 132.775 231.127C128.82 230.717 125.257 230.241 122.687 229.817C121.401 229.608 120.366 229.428 119.652 229.284C119.277 229.23 118.906 229.143 118.545 229.025C118.924 229.036 119.301 229.074 119.674 229.14L122.729 229.557C125.3 229.91 128.863 230.364 132.811 230.753C136.76 231.141 140.344 231.401 142.936 231.559L146.006 231.746C146.385 231.775 146.762 231.83 147.134 231.912Z" fill="#263238"/>
<path d="M255.398 182.945C255.266 182.974 255.133 182.991 254.998 182.995L253.848 183.074C253.356 183.074 252.742 183.132 252.042 183.225C251.342 183.319 250.528 183.362 249.65 183.521L248.265 183.744C247.787 183.823 247.294 183.945 246.78 184.046C245.752 184.241 244.673 184.55 243.531 184.853C238.605 186.266 233.936 188.466 229.701 191.369C228.737 192.053 227.809 192.686 227.002 193.363C226.588 193.694 226.181 193.997 225.817 194.313L224.76 195.242C224.046 195.818 223.511 196.409 222.996 196.898C222.482 197.388 222.061 197.834 221.718 198.209L220.926 199.044C220.836 199.146 220.736 199.238 220.626 199.317C220.695 199.201 220.776 199.092 220.869 198.993C221.062 198.756 221.311 198.468 221.583 198.108C221.854 197.748 222.297 197.258 222.825 196.754C223.353 196.25 223.875 195.638 224.553 195.048L225.603 194.097C225.967 193.766 226.374 193.457 226.781 193.118C227.587 192.398 228.516 191.779 229.48 191.081C233.747 188.119 238.478 185.902 243.474 184.521C244.624 184.226 245.716 183.924 246.751 183.744C247.272 183.643 247.772 183.528 248.258 183.456L249.686 183.261C250.571 183.117 251.385 183.081 252.092 183.017C252.699 182.956 253.309 182.928 253.92 182.93H255.069C255.179 182.923 255.289 182.928 255.398 182.945Z" fill="#263238"/>
<path d="M251.871 272.685C251.871 272.793 224.275 272.873 190.245 272.873C156.216 272.873 128.613 272.793 128.613 272.685C128.613 272.577 156.202 272.498 190.245 272.498C224.289 272.498 251.871 272.585 251.871 272.685Z" fill="#263238"/>
<path d="M103.037 297.662C102.937 297.662 102.852 292.457 102.852 286.042C102.852 279.626 102.937 274.414 103.037 274.414C103.137 274.414 103.223 279.612 103.223 286.042C103.223 292.471 103.137 297.662 103.037 297.662Z" fill="#263238"/>
<path d="M107.721 319.104C107.621 319.104 107.536 311.781 107.536 302.753C107.536 293.724 107.621 286.401 107.721 286.401C107.821 286.401 107.907 293.717 107.907 302.753C107.907 311.789 107.814 319.104 107.721 319.104Z" fill="#263238"/>
<g opacity="0.3">
<path d="M273.076 206.424C271.648 198.209 260.846 189.864 251.535 191.743C243.424 193.37 234.692 195.271 226.674 197.316C223.361 198.158 219.933 194.105 217.163 192.096C215.735 191.045 214.85 189.36 213.943 187.776C208.781 178.927 200.284 172.289 190.795 168.581C181.306 164.873 170.867 163.987 160.75 165.103C152.896 165.974 144.328 168.703 140.651 175.759C139.18 178.603 138.595 182.016 136.317 184.248C133.275 187.214 128.463 186.977 124.5 188.481C116.575 191.491 112.562 202.917 113.562 211.392C114.561 219.866 122.037 230.789 137.752 232.531C137.752 232.531 194.679 233.035 222.789 234.41C232.536 234.886 235.477 233.532 245.223 233.273C262.424 232.855 275.647 221.494 273.076 206.424Z" fill="black"/>
</g>
<path d="M168.504 247.716C169.461 247.471 170.532 246.478 171.36 245.945C173.388 244.63 175.394 243.278 177.379 241.891C170.239 239.803 164.206 238.154 157.08 236.131C156.835 239.011 157.101 241.913 157.865 244.699C158.522 246.924 159.779 249.293 162.007 249.883C164.027 250.416 166.084 249.293 167.869 248.184L168.361 247.874" fill="#E0E0E0"/>
<path d="M169.725 243.742C169.618 243.742 169.661 242.798 169.411 241.697C169.161 240.595 168.697 239.774 168.825 239.717C169.292 240.261 169.618 240.914 169.775 241.616C169.932 242.318 169.915 243.048 169.725 243.742Z" fill="#263238"/>
<path d="M171.26 243.36C171.187 242.825 171.149 242.287 171.146 241.747C171.035 241.22 170.961 240.686 170.925 240.149C171.254 240.608 171.458 241.146 171.517 241.709C171.576 242.273 171.488 242.842 171.26 243.36Z" fill="#263238"/>
<path d="M161.85 237.47C161.914 237.47 161.707 238.19 161.692 239.421C161.67 240.985 162.056 242.528 162.813 243.893C163.537 245.276 164.528 246.5 165.727 247.493C166.262 247.852 166.829 248.163 167.419 248.421C167.238 248.432 167.058 248.402 166.89 248.335C166.424 248.194 165.981 247.983 165.577 247.709C164.289 246.745 163.233 245.503 162.485 244.073C161.696 242.652 161.332 241.032 161.435 239.407C161.458 238.92 161.533 238.438 161.657 237.967C161.689 237.79 161.754 237.622 161.85 237.47Z" fill="#455A64"/>
<path d="M167.419 239.134C168.044 240.464 168.435 241.894 168.575 243.36C168.827 244.803 168.827 246.28 168.575 247.723C168.461 247.723 168.54 245.772 168.218 243.403C167.897 241.034 167.304 239.17 167.419 239.134Z" fill="#455A64"/>
<path d="M165.805 246.794C165.381 246.55 164.997 246.239 164.67 245.873C163.799 245.064 163.074 244.109 162.528 243.05C161.982 241.976 161.757 240.766 161.878 239.566C161.899 239.064 162.063 238.579 162.35 238.169C162.407 238.169 162.192 238.709 162.142 239.609C162.101 240.751 162.346 241.885 162.856 242.906C163.39 243.928 164.057 244.873 164.841 245.714C165.197 246.042 165.52 246.404 165.805 246.794Z" fill="#90CAF9"/>
<path d="M175.787 242.892C175.017 243.521 174.173 244.05 173.274 244.469C172.432 244.994 171.531 245.415 170.589 245.721C171.355 245.086 172.2 244.553 173.102 244.137C173.943 243.612 174.844 243.194 175.787 242.892Z" fill="#90CAF9"/>
<path d="M164.42 246.895C163.828 247.546 163.082 248.034 162.251 248.313C161.42 248.593 160.533 248.655 159.672 248.493C159.672 248.385 160.821 248.407 162.135 247.953C163.449 247.5 164.356 246.809 164.42 246.895Z" fill="#455A64"/>
<path d="M162 243.209C162 243.317 161.036 243.454 159.965 243.929C158.894 244.404 158.144 245.066 158.065 244.987C158.48 244.343 159.092 243.852 159.808 243.59C160.476 243.22 161.247 243.086 162 243.209Z" fill="#455A64"/>
<path d="M161.528 239.933C160.759 239.665 159.974 239.444 159.179 239.27C158.366 239.228 157.551 239.228 156.737 239.27C157.501 238.862 158.383 238.737 159.229 238.917C160.092 238.964 160.909 239.325 161.528 239.933Z" fill="#455A64"/>
<path d="M216.192 229.522C216.235 229.586 189.41 236.11 189.41 236.11L185.469 226.8L187.275 223.985C187.275 223.985 198.613 221.4 207.838 216.137L216.192 229.522Z" fill="#FFBE9D"/>
<path d="M153.246 202.997C153.246 202.997 152.018 201.19 146.82 198.619C142.5 196.459 131.412 194.702 126.921 203.45C122.43 212.198 125.878 225.619 133.347 228.485C140.815 231.35 153.246 235.274 158.337 236.93C163.428 238.586 180.171 242.813 180.171 242.813L187.054 238.745L187.868 225.785C187.868 225.785 178.379 215.957 170.303 213.242C162.228 210.528 153.246 202.997 153.246 202.997Z" fill="#263238"/>
<path d="M137.752 196.891C137.824 196.783 145.363 196.999 150.868 199.094C152.939 199.879 154.967 200.721 154.967 200.721L158.008 191.981L180.806 184.32H206.046L214.257 200.721V201.549C214.257 201.549 224.118 201.715 228.387 199.728C232.657 197.741 245.959 191.937 249.408 190.778C252.856 189.619 268.3 187.394 271.749 196.869C275.197 206.345 272.755 216.23 266.986 219.845C264.266 221.544 218.37 233.525 218.37 233.525L207.524 216.129C207.524 216.129 191.002 224.388 185.469 223.488C179.935 222.588 137.752 196.891 137.752 196.891Z" fill="#263238"/>
<path d="M184.305 188.546C184.353 188.655 184.392 188.769 184.419 188.885C184.483 189.144 184.569 189.468 184.669 189.857C184.876 190.706 185.14 191.952 185.383 193.493C185.94 196.574 186.497 200.873 186.925 205.632C187.354 210.391 187.582 214.711 187.675 217.872C187.725 219.434 187.739 220.702 187.739 221.58C187.739 221.983 187.739 222.3 187.739 222.588C187.759 222.705 187.759 222.824 187.739 222.941C187.716 222.824 187.702 222.707 187.696 222.588C187.696 222.314 187.696 221.983 187.646 221.58C187.596 220.651 187.539 219.42 187.461 217.886C187.304 214.762 187.025 210.449 186.604 205.69C186.183 200.93 185.661 196.654 185.176 193.565C184.94 192.024 184.712 190.778 184.548 189.922C184.476 189.526 184.412 189.202 184.362 188.928C184.322 188.805 184.303 188.676 184.305 188.546Z" fill="#455A64"/>
<path d="M214.007 201.953C214.007 202.054 208.295 202.781 201.22 203.573C194.144 204.365 188.411 204.926 188.368 204.818C188.325 204.71 194.08 203.99 201.155 203.198C208.231 202.406 213.993 201.852 214.007 201.953Z" fill="#455A64"/>
<path d="M210.237 201.989C209.965 202.001 209.691 201.979 209.423 201.924C208.902 201.852 208.153 201.758 207.217 201.665C204.792 201.398 202.352 201.285 199.913 201.326C197.476 201.374 195.044 201.571 192.63 201.917L190.438 202.255C190.171 202.317 189.898 202.35 189.624 202.356C189.875 202.243 190.139 202.163 190.41 202.118C190.917 201.981 191.659 201.823 192.587 201.657C197.433 200.804 202.381 200.716 207.253 201.398C208.181 201.535 208.931 201.665 209.445 201.78C209.715 201.823 209.981 201.893 210.237 201.989Z" fill="#455A64"/>
<path d="M213.729 200.995C212.164 200.22 210.525 199.608 208.838 199.166C207.122 198.849 205.377 198.711 203.633 198.756C204.126 198.582 204.645 198.494 205.168 198.497C207.695 198.35 210.213 198.91 212.444 200.117C212.916 200.339 213.349 200.635 213.729 200.995Z" fill="#455A64"/>
<path d="M192.709 215.23C192.06 215.886 191.268 216.379 190.395 216.67C189.57 217.071 188.662 217.266 187.746 217.238C187.746 217.13 188.896 216.871 190.252 216.317C191.609 215.762 192.644 215.143 192.709 215.23Z" fill="#455A64"/>
<path d="M191.495 218.455C190.313 219.094 188.945 219.293 187.632 219.017C188.261 218.841 188.908 218.737 189.56 218.707C190.194 218.553 190.843 218.469 191.495 218.455Z" fill="#455A64"/>
<path d="M230.287 200.362C230.183 200.45 230.07 200.527 229.951 200.592L228.958 201.19L225.26 203.35L212.993 210.305L200.67 217.166L196.914 219.211L195.879 219.751C195.76 219.817 195.636 219.873 195.508 219.917C195.61 219.827 195.723 219.75 195.843 219.686L196.843 219.082L200.541 216.922L212.808 209.966L225.131 203.105L228.887 201.067L229.915 200.527C230.03 200.453 230.155 200.397 230.287 200.362Z" fill="#455A64"/>
<path d="M249.543 196.697C249.391 196.747 249.236 196.785 249.079 196.812L247.751 197.085C246.594 197.33 244.931 197.719 242.903 198.295C237.63 199.843 232.514 201.89 227.623 204.408C221.868 207.288 216.913 210.384 213.286 212.594L209.002 215.229L207.831 215.949C207.697 216.035 207.556 216.11 207.41 216.173C207.528 216.064 207.657 215.967 207.795 215.885L208.924 215.121C209.909 214.466 211.337 213.523 213.122 212.385C216.692 210.11 221.69 207.007 227.438 204.084C232.346 201.554 237.497 199.532 242.81 198.05C244.859 197.503 246.537 197.157 247.701 196.963C248.279 196.848 248.736 196.797 249.043 196.754C249.207 196.714 249.375 196.695 249.543 196.697Z" fill="#455A64"/>
<path d="M260.846 193.421C260.846 193.486 260.018 193.421 258.704 193.421C256.973 193.473 255.254 193.734 253.584 194.198C251.918 194.668 250.312 195.335 248.801 196.186C247.637 196.848 246.966 197.338 246.93 197.287C246.894 197.237 247.066 197.122 247.358 196.884C247.774 196.549 248.211 196.241 248.665 195.962C250.162 195.025 251.785 194.309 253.484 193.838C255.181 193.364 256.936 193.134 258.697 193.154C259.229 193.159 259.761 193.198 260.289 193.27C260.481 193.293 260.668 193.343 260.846 193.421Z" fill="#455A64"/>
<path d="M256.876 196.466C256.876 196.574 254.962 196.322 252.592 196.409C250.221 196.495 248.379 196.87 248.358 196.762C249.711 196.271 251.14 196.028 252.578 196.042C254.024 195.926 255.479 196.069 256.876 196.466Z" fill="#455A64"/>
<path d="M248.593 193.529C248.643 193.63 247.001 194.508 245.173 195.883C243.345 197.258 242.025 198.583 241.946 198.504C242.769 197.359 243.787 196.369 244.952 195.581C246.039 194.69 247.271 193.996 248.593 193.529Z" fill="#455A64"/>
<path d="M272.748 201.744C272.724 201.796 272.698 201.846 272.67 201.895L272.434 202.32C272.213 202.702 271.884 203.242 271.406 203.911C270.066 205.826 268.446 207.526 266.601 208.951C263.852 211.023 260.882 212.779 257.747 214.186C254.234 215.82 250.228 217.26 246.03 218.743L224.51 226.339L217.97 228.593L216.192 229.19L215.721 229.342C215.668 229.362 215.613 229.374 215.557 229.378L215.707 229.306L216.164 229.118L217.927 228.456L224.425 226.087L245.909 218.39C250.107 216.907 254.105 215.51 257.611 213.869C260.73 212.486 263.691 210.767 266.443 208.742C268.291 207.346 269.932 205.693 271.32 203.832C271.806 203.177 272.163 202.644 272.398 202.284L272.67 201.874C272.722 201.782 272.748 201.739 272.748 201.744Z" fill="#455A64"/>
<path d="M186.29 239.206C186.112 239.154 185.938 239.092 185.769 239.018L184.298 238.421C183.027 237.895 181.192 237.11 178.943 236.11C174.437 234.115 168.233 231.264 161.521 227.945C154.81 224.626 148.762 221.465 144.499 218.945C142.357 217.706 140.672 216.655 139.501 215.899L138.18 215.014C138.022 214.918 137.874 214.807 137.738 214.682C137.906 214.758 138.069 214.847 138.223 214.949L139.573 215.777C140.751 216.497 142.464 217.512 144.614 218.707C148.898 221.134 154.938 224.273 161.671 227.606C168.404 230.94 174.566 233.813 179.036 235.865L184.355 238.32L185.783 238.975C185.959 239.034 186.129 239.112 186.29 239.206Z" fill="#455A64"/>
<path d="M139.523 201.434C139.713 201.266 139.927 201.128 140.158 201.024C140.76 200.701 141.385 200.427 142.029 200.203C144.174 199.456 146.459 199.21 148.712 199.483C150.963 199.7 153.155 200.329 155.181 201.341C155.786 201.662 156.351 202.054 156.866 202.507C157.065 202.66 157.241 202.842 157.387 203.047C156.644 202.505 155.866 202.012 155.06 201.571C153.026 200.648 150.854 200.069 148.634 199.857C146.435 199.586 144.205 199.783 142.086 200.433C140.48 200.959 139.552 201.499 139.523 201.434Z" fill="#455A64"/>
<path d="M187.861 225.792C187.737 225.723 187.623 225.635 187.525 225.533L186.611 224.748C185.818 224.028 184.648 223.092 183.191 221.911C180.278 219.557 176.165 216.403 171.631 212.911L168.333 210.355C167.254 209.549 166.191 208.857 165.105 208.195C162.963 206.921 161.036 205.833 159.486 204.761C158.247 203.938 157.091 202.992 156.038 201.938C155.751 201.655 155.479 201.357 155.224 201.045C155.124 200.944 155.038 200.83 154.967 200.707C154.967 200.707 155.374 201.125 156.138 201.837C157.221 202.839 158.389 203.742 159.629 204.537C161.186 205.574 163.149 206.633 165.284 207.9C166.348 208.541 167.426 209.232 168.547 210.06C169.668 210.888 170.689 211.745 171.853 212.616C176.387 216.108 180.478 219.29 183.355 221.709C184.783 222.912 185.947 223.913 186.704 224.633C187.097 224.993 187.382 225.281 187.575 225.482C187.679 225.576 187.775 225.68 187.861 225.792Z" fill="#455A64"/>
<path d="M169.032 207.842C169.897 208.113 170.746 208.433 171.574 208.8C173.138 209.412 175.301 210.24 177.736 210.996C180.171 211.752 182.399 212.371 184.019 212.774C184.907 212.968 185.784 213.208 186.647 213.494C186.407 213.505 186.166 213.48 185.933 213.422C185.469 213.357 184.798 213.235 183.976 213.062C181.836 212.612 179.719 212.049 177.636 211.377C175.55 210.715 173.498 209.946 171.489 209.073C170.725 208.735 170.103 208.447 169.682 208.238C169.451 208.132 169.233 207.999 169.032 207.842Z" fill="#455A64"/>
<path d="M176.929 201.463C176.084 201.663 175.228 201.812 174.366 201.909C172.781 202.147 170.589 202.485 168.183 202.917C165.776 203.349 163.606 203.803 162.035 204.134C161.194 204.348 160.34 204.507 159.479 204.609C159.687 204.502 159.908 204.422 160.136 204.372C160.564 204.242 161.193 204.069 161.971 203.875C163.535 203.479 165.698 202.989 168.118 202.55C170.539 202.111 172.731 201.83 174.33 201.643C175.13 201.557 175.758 201.499 176.229 201.47C176.461 201.433 176.697 201.431 176.929 201.463Z" fill="#455A64"/>
<path d="M173.545 197.237C173.545 197.294 172.559 197.381 170.989 197.618C166.877 198.23 162.884 199.478 159.151 201.319C157.723 202.039 156.859 202.521 156.83 202.464C156.998 202.301 157.188 202.163 157.394 202.053C157.765 201.801 158.322 201.47 159.029 201.081C160.879 200.087 162.818 199.273 164.82 198.648C166.82 198.025 168.873 197.591 170.953 197.352C171.753 197.265 172.381 197.222 172.845 197.215C173.078 197.185 173.314 197.192 173.545 197.237Z" fill="#455A64"/>
<path d="M202.233 233.589L197.949 243.669C199.527 245.109 205.525 246.031 207.638 245.923C209.752 245.815 212.808 245.837 214.914 245.599C217.598 245.381 220.295 245.4 222.975 245.657C225.657 245.913 228.359 245.862 231.029 245.505C233.706 245.135 236.202 243.932 238.169 242.064C239.12 241.217 239.839 240.137 240.257 238.929C240.676 237.721 240.779 236.425 240.558 235.165C240.336 233.905 239.797 232.724 238.993 231.734C238.188 230.745 237.145 229.98 235.963 229.514C233.809 228.591 231.45 228.265 229.13 228.571C226.822 228.878 224.546 229.398 222.333 230.126C219.955 230.846 217.52 231.566 215.05 231.35C214.55 231.307 214.05 231.35 213.558 231.235C210.33 230.63 206.967 230.601 204.061 232.445C203.49 232.812 202.84 233.136 202.233 233.589Z" fill="#E0E0E0"/>
<path d="M202.854 234.72C202.969 234.588 203.096 234.467 203.233 234.36C203.617 234.04 204.028 233.753 204.461 233.503C206.072 232.569 207.931 232.163 209.78 232.344C210.937 232.459 212.179 232.697 213.522 232.898C214.935 233.152 216.375 233.222 217.806 233.107C219.377 232.894 220.926 232.535 222.432 232.034C224.073 231.487 225.768 231.124 227.487 230.954C229.218 230.785 230.966 230.937 232.643 231.401C233.439 231.632 234.209 231.946 234.942 232.337C235.654 232.701 236.296 233.188 236.841 233.777C237.844 234.876 238.55 236.218 238.89 237.672C239.057 238.334 239.079 239.024 238.954 239.695C238.819 240.311 238.577 240.899 238.24 241.43C237.676 242.333 236.917 243.096 236.02 243.662C235.353 244.091 234.648 244.455 233.913 244.749C233.314 245.001 232.843 245.167 232.521 245.282C232.361 245.349 232.193 245.398 232.021 245.426C232.172 245.341 232.33 245.268 232.493 245.21C232.807 245.073 233.271 244.886 233.856 244.62C234.568 244.299 235.254 243.921 235.906 243.489C236.761 242.925 237.481 242.175 238.012 241.293C238.339 240.77 238.557 240.184 238.652 239.572C238.746 238.961 238.716 238.336 238.562 237.737C238.217 236.346 237.529 235.065 236.562 234.014C235.441 232.9 234.042 232.112 232.514 231.732C230.887 231.289 229.194 231.142 227.516 231.3C224.032 231.559 220.94 233.165 217.841 233.46C216.385 233.568 214.921 233.485 213.486 233.215C212.144 232.992 210.908 232.74 209.766 232.61C207.962 232.422 206.143 232.778 204.54 233.633C203.959 233.965 203.397 234.328 202.854 234.72Z" fill="#455A64"/>
<path d="M232.05 245.469C232.05 245.469 231.893 245.333 231.665 245.03C231.521 244.853 231.39 244.665 231.272 244.469C231.105 244.215 230.955 243.95 230.822 243.677C230.458 242.974 230.16 242.239 229.93 241.481C229.65 240.541 229.459 239.577 229.358 238.601C229.273 237.631 229.273 236.655 229.358 235.685C229.433 234.895 229.579 234.115 229.794 233.352C229.871 233.056 229.966 232.765 230.079 232.481C230.153 232.264 230.242 232.052 230.344 231.847C230.515 231.509 230.615 231.329 230.636 231.343C230.658 231.357 230.351 232.121 230.051 233.417C229.872 234.171 229.755 234.939 229.701 235.713C229.645 236.661 229.659 237.612 229.744 238.557C229.852 239.501 230.031 240.435 230.279 241.351C230.489 242.091 230.757 242.813 231.079 243.511C231.6 244.8 232.093 245.433 232.05 245.469Z" fill="#263238"/>
<path d="M204.868 232.178C204.961 232.229 204.868 232.603 204.661 233.035C204.454 233.467 204.29 233.813 204.19 233.755C204.09 233.698 204.133 233.323 204.318 232.87C204.504 232.416 204.782 232.128 204.868 232.178Z" fill="#455A64"/>
<path d="M207.917 230.983C208.01 231.026 207.917 231.394 207.796 231.826C207.674 232.258 207.496 232.603 207.396 232.546C207.296 232.488 207.296 232.128 207.439 231.674C207.581 231.221 207.824 230.94 207.917 230.983Z" fill="#455A64"/>
<path d="M211.837 230.904C211.93 230.94 211.88 231.365 211.723 231.854C211.566 232.344 211.351 232.718 211.258 232.682C211.166 232.646 211.209 232.229 211.366 231.739C211.523 231.249 211.737 230.875 211.837 230.904Z" fill="#455A64"/>
<path d="M215.514 231.372C215.614 231.372 215.578 231.826 215.435 232.322C215.292 232.819 215.093 233.201 215 233.172C214.907 233.143 214.935 232.718 215.078 232.214C215.221 231.71 215.414 231.343 215.514 231.372Z" fill="#455A64"/>
<path d="M218.613 233.33C218.513 233.33 218.427 232.826 218.434 232.207C218.441 231.588 218.52 231.091 218.627 231.091C218.734 231.091 218.805 231.595 218.805 232.207C218.805 232.819 218.712 233.33 218.613 233.33Z" fill="#455A64"/>
<path d="M222.054 232.445C221.947 232.445 221.804 232.013 221.726 231.451C221.647 230.889 221.669 230.421 221.768 230.407C221.868 230.393 222.018 230.839 222.097 231.401C222.175 231.962 222.168 232.43 222.054 232.445Z" fill="#455A64"/>
<path d="M225.239 229.298C225.339 229.298 225.503 229.702 225.603 230.242C225.703 230.782 225.703 231.235 225.603 231.25C225.503 231.264 225.339 230.846 225.239 230.306C225.139 229.766 225.139 229.313 225.239 229.298Z" fill="#455A64"/>
<path d="M229.351 228.535C229.451 228.535 229.408 229.147 229.265 229.853C229.123 230.558 228.908 231.12 228.809 231.098C228.709 231.077 228.751 230.486 228.901 229.781C229.051 229.075 229.251 228.513 229.351 228.535Z" fill="#455A64"/>
<path d="M232.878 228.636C232.971 228.679 232.721 229.356 232.314 230.076C231.907 230.796 231.508 231.415 231.422 231.365C231.5 230.848 231.693 230.356 231.986 229.925C232.386 229.169 232.764 228.593 232.878 228.636Z" fill="#455A64"/>
<path d="M236.47 229.586C236.555 229.644 236.227 230.306 235.756 231.069C235.285 231.833 234.792 232.409 234.706 232.351C234.621 232.293 234.949 231.631 235.42 230.868C235.891 230.105 236.384 229.529 236.47 229.586Z" fill="#455A64"/>
<path d="M238.783 231.775C238.862 231.833 238.548 232.43 238.069 233.114C237.591 233.798 237.148 234.302 237.07 234.245C236.991 234.187 237.298 233.582 237.784 232.898C238.269 232.214 238.698 231.71 238.783 231.775Z" fill="#455A64"/>
<path d="M240.397 234.554C240.482 234.612 240.161 235.195 239.619 235.8C239.076 236.405 238.533 236.779 238.469 236.707C238.405 236.635 238.819 236.138 239.347 235.548C239.876 234.958 240.311 234.49 240.397 234.554Z" fill="#455A64"/>
<path d="M240.161 238.795C240.24 238.853 240.061 239.206 239.64 239.393C239.219 239.58 238.833 239.479 238.847 239.393C238.862 239.306 239.154 239.213 239.49 239.062C239.826 238.91 240.083 238.723 240.161 238.795Z" fill="#455A64"/>
<path d="M237.876 242.424C237.876 242.517 237.812 242.64 237.655 242.618C237.498 242.597 237.448 242.438 237.512 242.359C237.535 242.325 237.566 242.296 237.602 242.276C237.638 242.256 237.678 242.245 237.719 242.244C237.758 242.258 237.793 242.282 237.82 242.314C237.848 242.345 237.867 242.383 237.876 242.424Z" fill="#455A64"/>
<path d="M212.979 243.857C213.486 242.779 213.877 241.649 214.143 240.487C214.295 239.293 214.319 238.086 214.214 236.887C214.627 238.052 214.731 239.306 214.514 240.524C214.297 241.741 213.768 242.881 212.979 243.828V243.857Z" fill="#263238"/>
<path d="M215.921 243.518C216.391 242.525 216.75 241.482 216.992 240.408C217.118 239.312 217.118 238.206 216.992 237.11C217.422 238.173 217.551 239.335 217.363 240.467C217.175 241.599 216.678 242.655 215.928 243.518H215.921Z" fill="#263238"/>
<path d="M219.626 243.54C220.911 241.477 221.366 238.996 220.897 236.606C221.101 236.912 221.228 237.263 221.269 237.629C221.436 238.499 221.436 239.393 221.269 240.264C221.115 241.137 220.792 241.971 220.319 242.719C219.969 243.288 219.662 243.569 219.626 243.54Z" fill="#263238"/>
<path d="M223.811 243.288C224.239 242.167 224.562 241.007 224.774 239.825C224.859 238.625 224.835 237.42 224.703 236.225C225.145 237.386 225.294 238.639 225.139 239.873C224.983 241.107 224.527 242.282 223.811 243.295V243.288Z" fill="#263238"/>
<path d="M212.229 240.127C212.039 240.211 211.829 240.241 211.623 240.213C211.056 240.177 210.508 239.996 210.03 239.688C209.345 239.22 208.745 238.636 208.26 237.96C207.93 237.579 207.669 237.142 207.489 236.671C207.399 236.4 207.377 236.11 207.424 235.829C207.479 235.526 207.635 235.251 207.867 235.051C208.092 234.869 208.359 234.745 208.643 234.691C208.926 234.637 209.219 234.655 209.495 234.741C209.981 234.903 210.42 235.182 210.773 235.555C211.361 236.152 211.817 236.869 212.108 237.657C212.306 238.181 212.424 238.732 212.458 239.292C212.49 239.496 212.478 239.705 212.422 239.904C212.313 239.166 212.126 238.442 211.865 237.744C211.553 237.01 211.1 236.347 210.53 235.793C210.217 235.462 209.827 235.214 209.395 235.073C209.177 235.007 208.946 234.995 208.723 235.038C208.499 235.08 208.289 235.176 208.11 235.317C207.947 235.47 207.834 235.669 207.786 235.887C207.737 236.105 207.756 236.334 207.838 236.541C208.007 236.976 208.248 237.378 208.552 237.729C209.003 238.388 209.557 238.967 210.195 239.443C210.794 239.862 211.5 240.1 212.229 240.127Z" fill="#263238"/>
<path d="M212.058 240.019C212.045 240.208 211.999 240.393 211.923 240.566C211.762 241.064 211.557 241.546 211.308 242.006C210.947 242.707 210.398 243.291 209.723 243.691C209.309 243.928 208.843 244.057 208.367 244.065C208.091 244.085 207.814 244.032 207.564 243.912C207.314 243.792 207.099 243.609 206.939 243.381C206.814 243.134 206.762 242.856 206.79 242.58C206.818 242.305 206.924 242.043 207.096 241.826C207.373 241.439 207.741 241.127 208.167 240.919C208.867 240.605 209.607 240.392 210.366 240.285C211.04 240.116 211.729 240.013 212.422 239.976C211.773 240.223 211.104 240.413 210.423 240.545C209.699 240.686 208.994 240.916 208.324 241.229C207.954 241.417 207.636 241.694 207.396 242.035C207.268 242.195 207.188 242.388 207.164 242.591C207.14 242.795 207.173 243.002 207.26 243.187C207.384 243.353 207.547 243.486 207.733 243.575C207.92 243.664 208.125 243.707 208.331 243.698C208.748 243.697 209.158 243.59 209.523 243.389C210.155 243.025 210.682 242.501 211.051 241.869C211.701 240.761 211.965 239.983 212.058 240.019Z" fill="#263238"/>
<path d="M211.765 243.086C211.68 243.014 212.094 242.46 212.215 241.646C212.337 240.833 212.137 240.206 212.215 240.149C212.396 240.36 212.523 240.614 212.582 240.886C212.642 241.159 212.634 241.442 212.558 241.711C212.437 242.64 211.823 243.165 211.765 243.086Z" fill="#263238"/>
<path d="M213.358 238.053C213.45 238.053 213.358 238.629 213.051 239.22C212.744 239.81 212.337 240.185 212.258 240.127C212.179 240.069 212.429 239.601 212.722 239.047C213.015 238.493 213.258 238.017 213.358 238.053Z" fill="#263238"/>
<path d="M224.789 232.697C224.299 233.024 223.765 233.279 223.204 233.453C220.534 234.457 217.687 234.888 214.843 234.72C214.256 234.717 213.672 234.633 213.108 234.468C215.088 234.492 217.067 234.389 219.034 234.158C220.982 233.798 222.904 233.31 224.789 232.697Z" fill="#90CAF9"/>
<path d="M223.018 244.368C221.729 244.648 220.416 244.802 219.098 244.829C217.79 244.981 216.47 245.01 215.157 244.915C216.446 244.636 217.758 244.481 219.077 244.454C220.385 244.302 221.704 244.274 223.018 244.368Z" fill="#90CAF9"/>
<path d="M232.493 244.649C233.387 244.522 234.244 244.202 235.006 243.713C235.81 243.159 236.455 242.402 236.877 241.517C237.361 240.424 237.496 239.206 237.262 238.032C237.035 236.85 236.486 235.756 235.677 234.871C235.009 234.155 234.209 233.578 233.321 233.172C232.478 232.826 231.602 232.568 230.708 232.401C230.956 232.356 231.21 232.356 231.457 232.401C232.132 232.481 232.793 232.653 233.421 232.913C234.365 233.299 235.219 233.88 235.927 234.619C236.798 235.541 237.388 236.695 237.626 237.945C237.879 239.197 237.724 240.498 237.184 241.653C236.724 242.583 236.02 243.367 235.149 243.921C234.567 244.292 233.916 244.537 233.235 244.641C232.99 244.691 232.739 244.693 232.493 244.649Z" fill="#90CAF9"/>
<path d="M187.325 226.951L205.889 235.267C206.07 237.647 205.678 240.035 204.747 242.23C203.39 245.038 199.27 244.476 199.27 244.476L182.934 240.646L186.575 238.486L187.325 226.951Z" fill="#FFBE9D"/>
<path d="M203.918 243.706C203.184 243.187 202.513 242.583 201.919 241.906C201.326 241.22 200.993 240.345 200.977 239.436C201.057 238.617 201.332 237.829 201.776 237.139C202.156 236.305 202.809 235.629 203.626 235.224C204.654 234.835 205.768 235.282 206.774 235.778L206.967 239.954L203.918 243.706Z" fill="#E0E0E0"/>
<path d="M205.918 235.267C205.875 235.361 201.684 233.575 196.55 231.278C191.416 228.982 187.268 227.045 187.325 226.958C187.382 226.872 191.566 228.643 196.7 230.94C201.834 233.237 205.96 235.166 205.918 235.267Z" fill="#EB996E"/>
<path d="M227.052 159.775C227.231 159.785 227.41 159.759 227.578 159.698C227.747 159.638 227.902 159.545 228.035 159.423C228.168 159.302 228.275 159.156 228.352 158.993C228.428 158.829 228.472 158.652 228.48 158.472C228.687 152.554 224.817 139.147 222.961 133.582C221.825 130.183 217.963 127.699 215.307 125.87C212.065 123.66 200.605 120.953 196.828 119.902H195.557L178 118.584L168.354 123.242C168.354 123.242 154.981 128.354 151.104 135.482C147.227 142.61 144.278 163.44 144.278 163.44C144.278 163.44 142.5 169.394 144.278 172.08C145.385 173.758 149.504 175.212 153.21 175.925C151.204 182.664 152.789 187.668 152.717 188.525C152.567 190.296 151.218 194.422 154.381 194.17C157.544 193.918 182.277 187.33 189.624 187.034C195.844 186.865 201.995 188.387 207.431 191.441C211.137 193.536 211.108 193.687 212.429 190.001C213.75 186.314 209.53 182.16 209.53 182.16C209.53 182.16 213.315 168.372 215.078 159.358L227.052 159.775Z" fill="#455A64"/>
<path d="M168.154 151.769C168.154 151.769 167.933 151.574 167.597 151.171C167.262 150.768 166.733 150.142 166.169 149.465C164.634 147.584 162.964 145.82 161.171 144.187C160.173 143.302 159.103 142.502 157.973 141.797C157.049 141.229 156.077 140.747 155.067 140.357C153.332 139.694 152.211 139.529 152.211 139.457C152.482 139.451 152.753 139.48 153.018 139.543C153.333 139.589 153.646 139.656 153.953 139.745C154.365 139.841 154.77 139.963 155.167 140.112C156.21 140.478 157.215 140.948 158.165 141.516C159.322 142.216 160.414 143.018 161.428 143.914C163.254 145.556 164.927 147.364 166.426 149.314C167.005 150.034 167.462 150.667 167.762 151.099C167.913 151.31 168.044 151.534 168.154 151.769Z" fill="#263238"/>
<path d="M164.934 171.677C164.649 171.73 164.359 171.751 164.07 171.741C163.513 171.741 162.706 171.777 161.707 171.741C159.109 171.725 156.516 171.531 153.946 171.158C151.374 170.794 148.852 170.137 146.427 169.2C145.696 168.916 144.981 168.592 144.285 168.228C144.018 168.113 143.766 167.966 143.535 167.789C143.535 167.731 144.664 168.278 146.534 168.955C148.971 169.814 151.484 170.436 154.038 170.813C156.596 171.173 159.169 171.401 161.75 171.497L164.106 171.59C164.384 171.589 164.662 171.618 164.934 171.677Z" fill="#263238"/>
<path d="M202.062 178.43C202.005 178.623 201.918 178.805 201.805 178.97C201.537 179.435 201.244 179.884 200.927 180.317C198.821 183.194 195.974 185.435 192.695 186.797C192.202 187.007 191.696 187.185 191.181 187.329C190.997 187.399 190.805 187.44 190.61 187.452C190.61 187.387 191.374 187.121 192.587 186.559C194.16 185.816 195.647 184.901 197.021 183.83C198.387 182.747 199.627 181.513 200.72 180.151C201.527 179.107 201.977 178.401 202.062 178.43Z" fill="#263238"/>
<path d="M202.348 183.96C202.017 184.336 201.623 184.651 201.184 184.889C200.178 185.544 199.1 186.078 197.971 186.48C196.841 186.881 195.67 187.152 194.48 187.286C193.988 187.372 193.486 187.372 192.994 187.286C194.635 187.008 196.255 186.615 197.842 186.113C199.392 185.501 200.897 184.782 202.348 183.96Z" fill="#263238"/>
<path d="M222.911 133.581C222.912 133.789 222.883 133.995 222.825 134.193C222.714 134.741 222.573 135.282 222.404 135.813C221.858 137.572 221.118 139.262 220.198 140.853C219.272 142.448 218.175 143.935 216.928 145.289C216.449 145.8 216.042 146.196 215.742 146.455C215.443 146.714 215.278 146.851 215.257 146.829C215.235 146.808 215.828 146.174 216.735 145.109C217.911 143.725 218.962 142.238 219.876 140.666C220.782 139.087 221.544 137.429 222.154 135.713C222.625 134.409 222.854 133.567 222.911 133.581Z" fill="#263238"/>
<path d="M227.409 156.607C226.84 156.719 226.26 156.765 225.681 156.744C224.61 156.744 223.132 156.744 221.504 156.744C219.876 156.744 218.398 156.571 217.334 156.456C216.755 156.431 216.18 156.339 215.621 156.182C216.195 156.126 216.774 156.126 217.349 156.182L221.518 156.362L225.681 156.506C226.259 156.481 226.838 156.514 227.409 156.607Z" fill="#263238"/>
<path d="M213.486 135.965C213.595 136.273 213.676 136.592 213.729 136.915C213.872 137.635 214.057 138.477 214.272 139.529C214.714 141.739 215.35 144.799 215.7 148.233C216.031 151.17 216.017 154.135 215.657 157.068C215.493 158.184 215.328 159.084 215.171 159.696C215.111 160.02 215.023 160.338 214.907 160.646C214.914 160.316 214.955 159.988 215.028 159.667C215.143 159.055 215.271 158.148 215.393 157.032C215.677 154.117 215.655 151.18 215.328 148.269C214.95 144.864 214.357 141.789 213.986 139.579C213.793 138.47 213.643 137.563 213.558 136.944C213.497 136.621 213.473 136.293 213.486 135.965Z" fill="#263238"/>
<path d="M168.154 154.26C168.168 154.539 168.151 154.819 168.104 155.095C168.047 155.628 167.954 156.391 167.833 157.334C167.583 159.228 167.205 161.841 166.683 164.707C166.261 167.162 165.699 169.59 164.998 171.979C164.782 172.701 164.525 173.41 164.227 174.103C164.124 174.357 163.992 174.599 163.835 174.823C163.777 174.823 164.277 173.729 164.748 171.885C165.22 170.042 165.798 167.479 166.319 164.621C166.84 161.762 167.255 159.163 167.576 157.284C167.723 156.405 167.852 155.664 167.961 155.059C167.994 154.786 168.059 154.518 168.154 154.26Z" fill="#263238"/>
<path d="M165.748 142.79C166.053 143.233 166.294 143.718 166.462 144.23C167.43 146.597 168.055 149.092 168.318 151.639C168.395 152.164 168.395 152.698 168.318 153.223C168.204 153.223 167.983 150.833 167.255 147.96C166.526 145.087 165.648 142.833 165.748 142.79Z" fill="#263238"/>
<path d="M185.954 168.321C186.01 168.18 186.077 168.042 186.154 167.911C186.311 167.623 186.525 167.241 186.79 166.752L189.189 162.468C191.281 158.796 194.187 153.698 197.528 147.837L197.764 148.089C195.622 149.126 193.38 150.149 190.995 151.099C188.139 152.251 185.283 153.223 182.648 153.979L182.092 154.145L182.463 153.691L192.459 141.451L195.386 137.923L196.179 136.987C196.267 136.876 196.365 136.772 196.472 136.677C196.401 136.802 196.319 136.92 196.229 137.03L195.479 137.995L192.623 141.595L182.713 153.943L182.52 153.655C185.147 152.863 187.968 151.891 190.831 150.775C193.201 149.825 195.472 148.809 197.578 147.787L198.114 147.528L197.814 148.039L189.36 162.605L186.868 166.838L186.154 167.969C186.098 168.092 186.031 168.21 185.954 168.321Z" fill="white"/>
<g opacity="0.3">
<path d="M198.763 188.028C199.606 188.251 201.22 185.681 202.155 184.104C199.299 185.702 196.543 187.617 193.344 186.919C195.122 186.44 196.756 185.526 198.1 184.259C199.445 182.992 200.46 181.411 201.055 179.654C198.822 183.091 195.523 185.686 191.673 187.034C191.673 187.034 197.428 187.675 198.763 188.028Z" fill="black"/>
</g>
<path d="M165.748 111.6C165.748 111.6 166.234 111.801 167.176 112.003C168.465 112.314 169.82 112.18 171.025 111.621C171.835 111.22 172.511 110.586 172.967 109.8C173.232 109.362 173.397 108.87 173.452 108.359C173.506 107.849 173.448 107.333 173.281 106.848C173.112 106.309 172.804 105.825 172.389 105.445C171.974 105.066 171.466 104.804 170.917 104.688C170.327 104.62 169.73 104.746 169.216 105.047C168.701 105.348 168.297 105.808 168.061 106.358C167.954 106.635 167.904 106.932 167.915 107.229C167.926 107.526 167.998 107.818 168.126 108.086C168.395 108.613 168.819 109.043 169.339 109.317C169.835 109.602 170.397 109.749 170.967 109.742C171.518 109.729 172.06 109.602 172.56 109.368C173.498 108.912 174.315 108.239 174.944 107.402C175.515 106.685 175.977 105.887 176.315 105.033C176.804 103.787 177.046 102.457 177.029 101.117C177.029 100.173 176.908 99.6766 176.944 99.6406C176.995 99.7599 177.028 99.886 177.044 100.015C177.111 100.379 177.154 100.747 177.172 101.117C177.238 102.485 177.016 103.851 176.522 105.127C176.19 106.015 175.728 106.847 175.151 107.597C174.501 108.482 173.649 109.195 172.667 109.677C172.126 109.937 171.538 110.082 170.939 110.102C170.305 110.111 169.679 109.952 169.125 109.641C168.538 109.33 168.061 108.842 167.762 108.245C167.608 107.932 167.521 107.59 167.508 107.241C167.494 106.893 167.554 106.545 167.683 106.221C167.946 105.594 168.405 105.07 168.99 104.728C169.574 104.386 170.254 104.246 170.925 104.328C171.534 104.45 172.099 104.735 172.561 105.153C173.023 105.571 173.366 106.107 173.552 106.704C173.73 107.235 173.79 107.8 173.727 108.358C173.664 108.915 173.48 109.452 173.188 109.929C172.69 110.756 171.962 111.416 171.096 111.83C169.835 112.395 168.418 112.496 167.09 112.118C166.735 112.028 166.388 111.905 166.055 111.751C165.948 111.712 165.845 111.661 165.748 111.6Z" fill="#263238"/>
<path d="M221.726 95.7094C221.875 94.246 221.713 92.7672 221.248 91.3725C220.784 89.9779 220.029 88.6996 219.034 87.6238C218.02 86.5636 216.755 85.7803 215.359 85.3471C213.963 84.9139 212.481 84.8451 211.051 85.147C208.994 85.5327 207.1 86.5366 205.618 88.027C205.162 88.4882 204.789 89.0268 204.518 89.6182C204.468 89.7046 204.425 89.7982 204.375 89.8918C204.325 89.9854 204.268 90.1294 204.218 90.2518V90.3094C203.335 92.348 203.115 94.6167 203.59 96.7894C203.973 98.4291 204.764 99.9433 205.888 101.189C207.013 102.435 208.433 103.372 210.016 103.91C211.617 104.396 213.319 104.43 214.938 104.009C216.557 103.587 218.03 102.726 219.198 101.52C220.653 99.9172 221.542 97.8743 221.726 95.7094Z" fill="#263238"/>
<path d="M220.448 100.519C220.383 100.519 220.255 99.6983 219.734 98.4671C219.088 96.86 218.084 95.4243 216.8 94.2707C215.516 93.1172 213.987 92.2767 212.329 91.8143C211.059 91.4543 210.187 91.4255 210.23 91.3535C210.424 91.321 210.622 91.321 210.816 91.3535C211.348 91.3821 211.876 91.4592 212.394 91.5839C214.123 91.9857 215.724 92.8204 217.05 94.0108C218.375 95.2012 219.381 96.709 219.976 98.3951C220.157 98.9005 220.293 99.4209 220.383 99.9503C220.435 100.135 220.457 100.327 220.448 100.519Z" fill="#455A64"/>
<path d="M217.656 94.831C217.526 95.425 217.306 95.9956 217.006 96.523C216.34 97.8325 215.483 99.0338 214.464 100.087C213.438 101.131 212.261 102.012 210.973 102.701C210.457 103.023 209.896 103.266 209.309 103.421C209.238 103.298 211.851 102.276 214.2 99.8206C216.549 97.3654 217.541 94.759 217.656 94.831Z" fill="#455A64"/>
<path d="M209.952 91.7352C209.845 91.6704 210.701 90.2952 211.38 88.452C211.761 87.3256 212.013 86.1587 212.129 84.9744C212.254 85.3146 212.298 85.6795 212.258 86.04C212.221 86.9106 212.042 87.7691 211.73 88.5816C211.342 89.7375 210.739 90.808 209.952 91.7352Z" fill="#90CAF9"/>
<path d="M210.059 89.2294C210.233 85.1206 208.857 81.0977 206.207 77.9714C203.557 74.845 199.831 72.8476 195.779 72.3814C193.687 72.1462 191.57 72.3387 189.553 72.9474C187.537 73.5562 185.663 74.5686 184.043 75.9242C182.423 77.2799 181.092 78.9509 180.127 80.8374C179.162 82.7239 178.585 84.7871 178.429 86.9038L177.001 122.443C176.975 123.131 177.179 123.808 177.579 124.365C179.802 127.442 183.136 129.511 186.861 130.125C190.089 130.443 193.332 129.701 196.107 128.009C196.559 127.739 196.933 127.354 197.191 126.893C197.449 126.432 197.583 125.91 197.578 125.381V117.461C197.578 117.447 197.583 117.434 197.593 117.425C197.602 117.416 197.615 117.41 197.628 117.41C198.365 117.453 199.104 117.419 199.834 117.309C201.912 116.755 207.189 114.595 208.824 106.697C209.302 104.018 209.766 96.6022 210.059 89.2294Z" fill="#FFBE9D"/>
<path d="M198.699 101.052C199.444 100.864 200.209 100.767 200.977 100.764C201.334 100.764 201.691 100.692 201.748 100.454C201.79 100.092 201.723 99.726 201.555 99.4031C201.262 98.5319 200.948 97.6175 200.627 96.6671C199.342 92.7719 198.428 89.5823 198.585 89.5319C198.742 89.4815 199.913 92.5991 201.198 96.4871C201.505 97.4519 201.805 98.3663 202.084 99.2375C202.287 99.6712 202.33 100.164 202.205 100.627C202.147 100.75 202.062 100.857 201.957 100.942C201.852 101.027 201.729 101.086 201.598 101.117C201.399 101.16 201.195 101.177 200.991 101.167C200.225 101.224 199.456 101.185 198.699 101.052Z" fill="#263238"/>
<path d="M206.667 94.5287C206.651 94.8648 206.505 95.1813 206.261 95.4111C206.017 95.6408 205.695 95.7659 205.361 95.7599C205.197 95.7657 205.033 95.7384 204.88 95.6798C204.726 95.6211 204.586 95.5322 204.467 95.4182C204.348 95.3043 204.253 95.1676 204.187 95.0161C204.121 94.8646 204.086 94.7014 204.083 94.5359C204.096 94.1985 204.24 93.8799 204.485 93.6494C204.73 93.4188 205.055 93.295 205.389 93.3047C205.553 93.2989 205.717 93.3262 205.87 93.3849C206.024 93.4435 206.164 93.5324 206.283 93.6464C206.402 93.7603 206.497 93.897 206.563 94.0485C206.629 94.2 206.665 94.3633 206.667 94.5287Z" fill="#263238"/>
<path d="M207.953 90.6191C207.824 90.7559 206.789 90.6911 205.475 91.1375C204.161 91.5839 203.29 92.2823 203.119 92.2463C202.947 92.2103 203.119 92.0159 203.526 91.6991C204.08 91.2615 204.706 90.9252 205.375 90.7055C206.018 90.4749 206.699 90.3722 207.381 90.4031C207.831 90.4391 208.017 90.5471 207.953 90.6191Z" fill="#263238"/>
<path d="M193.273 93.6432C193.256 93.9793 193.11 94.2958 192.867 94.5256C192.623 94.7553 192.3 94.8804 191.966 94.8744C191.802 94.8792 191.639 94.8513 191.486 94.7923C191.333 94.7333 191.193 94.6443 191.074 94.5305C190.956 94.4168 190.86 94.2804 190.794 94.1294C190.728 93.9783 190.692 93.8156 190.688 93.6504C190.703 93.3136 190.848 92.9962 191.092 92.766C191.336 92.5358 191.66 92.4113 191.995 92.4192C192.159 92.4135 192.322 92.4407 192.476 92.4994C192.629 92.558 192.769 92.6469 192.888 92.7609C193.007 92.8748 193.103 93.0115 193.169 93.163C193.235 93.3145 193.27 93.4778 193.273 93.6432Z" fill="#263238"/>
<path d="M193.73 91.771C193.523 91.771 192.766 90.9502 191.409 90.331C190.053 89.7118 188.867 89.5534 188.767 89.395C188.668 89.2366 188.96 89.2438 189.481 89.2942C190.227 89.3857 190.951 89.6049 191.623 89.9422C192.293 90.2491 192.899 90.6816 193.408 91.2166C193.765 91.5478 193.823 91.7638 193.73 91.771Z" fill="#263238"/>
<path d="M197.514 117.36C197.514 117.36 192.123 117.518 185.583 113.169C185.583 113.169 187.382 120.319 197.514 119.901V117.36Z" fill="#EB996E"/>
<path d="M197.964 104.342C197.709 103.999 197.375 103.725 196.99 103.544C196.605 103.363 196.181 103.281 195.757 103.306C195.451 103.318 195.149 103.392 194.871 103.523C194.593 103.654 194.343 103.84 194.137 104.069C193.944 104.289 193.823 104.564 193.79 104.857C193.756 105.149 193.813 105.444 193.951 105.703C194.165 105.964 194.45 106.155 194.772 106.254C195.093 106.352 195.436 106.354 195.757 106.258C196.421 106.059 197.039 105.731 197.578 105.293C197.741 105.191 197.884 105.059 197.999 104.904C198.049 104.828 198.076 104.739 198.076 104.648C198.076 104.557 198.049 104.468 197.999 104.393" fill="#EB996E"/>
<path d="M194.565 101.793C194.786 101.793 194.722 103.291 195.993 104.421C197.264 105.552 198.849 105.465 198.849 105.674C198.849 105.768 198.478 105.948 197.8 105.933C196.916 105.898 196.071 105.558 195.408 104.969C194.786 104.414 194.398 103.642 194.322 102.809C194.272 102.146 194.458 101.779 194.565 101.793Z" fill="#263238"/>
<path d="M194.665 86.1984C194.472 86.544 193.13 86.1336 191.488 86.04C189.845 85.9464 188.467 86.1624 188.31 85.788C188.246 85.6152 188.525 85.3056 189.11 85.068C189.886 84.7429 190.728 84.6072 191.566 84.672C192.407 84.7165 193.224 84.9634 193.951 85.392C194.508 85.68 194.758 86.0328 194.665 86.1984Z" fill="#263238"/>
<path d="M207.924 86.4C207.667 86.7024 206.724 86.328 205.575 86.256C204.425 86.184 203.433 86.3568 203.226 86.0184C203.133 85.8528 203.304 85.5432 203.74 85.2984C204.334 84.9757 205.008 84.8333 205.681 84.8882C206.354 84.9432 206.996 85.1931 207.531 85.608C207.924 85.9392 208.038 86.2704 207.924 86.4Z" fill="#263238"/>
<path d="M196.95 70.5599C196.236 69.3287 194.808 68.7887 193.323 68.5799C187.139 67.7591 180.328 71.6327 176.972 76.9319C173.616 82.2311 173.573 90.0719 176.208 95.7599L178.529 96.1271C183.341 95.7455 191.195 82.0583 197.807 74.4551C198.628 73.5191 197.607 71.6543 196.95 70.5599Z" fill="#263238"/>
<path d="M208.831 74.4408C206.203 71.5608 201.941 68.004 196.629 70.1208C195.865 71.6472 197.493 73.584 198.835 74.7C200.813 76.3488 202.533 77.4504 203.833 78.624C206.453 81.0072 209.723 84.9672 210.059 89.424C210.059 89.7048 210.295 89.7408 210.573 89.6904C210.851 89.64 211.723 87.7968 212.108 85.3704C212.908 80.2152 211.465 77.3496 208.831 74.4408Z" fill="#263238"/>
<path d="M178.907 87.9982C178.622 86.8072 178.065 85.7 177.279 84.7654C176.766 84.1512 176.158 83.6238 175.48 83.203C174.211 82.472 172.78 82.0773 171.319 82.0559C169.858 82.0344 168.415 82.387 167.126 83.0806C165.856 83.7977 164.754 84.7803 163.892 85.9625C163.03 87.1447 162.428 88.4992 162.128 89.935C161.636 92.0559 161.854 94.2814 162.749 96.2638C163.497 97.7718 164.64 99.0439 166.056 99.9416C167.471 100.839 169.103 101.328 170.775 101.354C172.447 101.336 174.087 100.888 175.54 100.053C176.993 99.2174 178.211 98.0224 179.078 96.5806C180.264 94.5502 179.928 90.9646 178.907 87.9982Z" fill="#263238"/>
<path d="M180.007 93.2687C179.864 93.1967 174.123 91.0295 173.873 97.0775C173.624 103.125 179.7 102.117 179.714 101.959C179.728 101.801 180.007 93.2687 180.007 93.2687Z" fill="#FFBE9D"/>
<path d="M177.979 99.5904C177.979 99.5904 177.872 99.6624 177.693 99.7344C177.441 99.8354 177.16 99.8354 176.908 99.7344C176.287 99.468 175.794 98.4312 175.808 97.344C175.813 96.8239 175.935 96.3118 176.165 95.8464C176.23 95.6595 176.338 95.4911 176.481 95.3557C176.624 95.2203 176.798 95.1218 176.987 95.0688C177.107 95.0424 177.234 95.0597 177.343 95.1176C177.453 95.1755 177.539 95.2703 177.586 95.3856C177.665 95.5584 177.622 95.6736 177.651 95.688C177.679 95.7024 177.786 95.5944 177.743 95.3424C177.721 95.1892 177.642 95.0503 177.522 94.9536C177.363 94.8199 177.157 94.7552 176.951 94.7736C176.703 94.8136 176.47 94.9166 176.272 95.0728C176.075 95.2289 175.92 95.4332 175.823 95.6664C175.548 96.1799 175.401 96.7532 175.394 97.3368C175.394 98.5536 175.951 99.72 176.822 100.015C176.982 100.069 177.151 100.086 177.318 100.065C177.485 100.044 177.645 99.9848 177.786 99.8928C177.965 99.7344 178 99.6048 177.979 99.5904Z" fill="#EB996E"/>
<path d="M210.066 75.6503C209.496 75.8084 208.908 75.886 208.317 75.8807C206.899 75.9612 205.477 75.913 204.068 75.7367C202.664 75.5722 201.276 75.2855 199.92 74.8799C199.345 74.742 198.793 74.5239 198.278 74.2319C198.858 74.3205 199.431 74.4529 199.991 74.6279C201.357 74.9595 202.739 75.2143 204.133 75.3911C205.526 75.5525 206.928 75.6366 208.331 75.6431C208.909 75.5987 209.489 75.6012 210.066 75.6503Z" fill="#455A64"/>
<path d="M212.058 79.9919C211.649 80.1793 211.208 80.2844 210.759 80.3015C209.676 80.4216 208.581 80.3632 207.517 80.1287C206.455 79.893 205.438 79.487 204.504 78.9263C204.099 78.7232 203.74 78.439 203.447 78.0911C204.756 78.8191 206.15 79.3802 207.596 79.7615C209.069 80.0175 210.567 80.0949 212.058 79.9919Z" fill="#455A64"/>
<path d="M176.208 79.0199C176.208 78.9407 177.508 79.1711 179.6 79.1135C180.826 79.0799 182.048 78.9548 183.255 78.7391C184.729 78.4593 186.181 78.0792 187.604 77.6015C189.024 77.1075 190.412 76.5231 191.759 75.8519C192.855 75.2964 193.918 74.6786 194.944 74.0015C196.7 72.8495 197.678 71.9783 197.728 72.0287C197.528 72.2658 197.306 72.4828 197.064 72.6767C196.85 72.8783 196.572 73.1087 196.236 73.3967C195.9 73.6847 195.522 73.9583 195.094 74.2535C194.074 74.9673 193.011 75.6142 191.909 76.1903C190.557 76.8849 189.159 77.4839 187.725 77.9831C186.285 78.4703 184.81 78.8458 183.313 79.1063C182.088 79.3084 180.848 79.4096 179.607 79.4087C179.13 79.4172 178.653 79.398 178.179 79.3511C177.82 79.3374 177.462 79.299 177.108 79.2359C176.802 79.1921 176.501 79.1198 176.208 79.0199Z" fill="#455A64"/>
<path d="M197.328 74.1598C197.198 74.4566 197.038 74.7389 196.85 75.0022C196.686 75.2686 196.479 75.5926 196.214 75.9454C195.95 76.2982 195.672 76.723 195.301 77.1406C194.479 78.1565 193.579 79.1051 192.609 79.9774C191.412 81.0358 190.124 81.9851 188.76 82.8142C187.381 83.6264 185.93 84.3085 184.426 84.8518C183.199 85.2851 181.938 85.6127 180.656 85.831C180.114 85.9462 179.614 85.9822 179.178 86.0326C178.805 86.085 178.428 86.1139 178.05 86.119C177.73 86.1455 177.407 86.1455 177.086 86.119C177.086 86.0398 178.457 86.011 180.606 85.579C181.866 85.3248 183.104 84.9758 184.312 84.535C187.274 83.4469 190.01 81.8136 192.38 79.7182C193.352 78.8719 194.261 77.9551 195.101 76.975C196.543 75.2758 197.264 74.1094 197.328 74.1598Z" fill="#455A64"/>
<path d="M193.323 68.6015C193.725 68.5218 194.142 68.5517 194.529 68.6879C195.481 68.9619 196.336 69.5039 196.993 70.2503C197.182 70.4737 197.349 70.7148 197.493 70.9703C197.618 71.1988 197.718 71.4402 197.792 71.6903C197.937 72.1032 198.049 72.5269 198.128 72.9575C198.234 73.3614 198.204 73.7896 198.042 74.1743C197.978 74.1743 198.042 73.7063 197.871 73.0151C197.759 72.6042 197.623 72.2003 197.464 71.8055C197.392 71.5705 197.297 71.3437 197.178 71.1287C197.043 70.9057 196.888 70.6959 196.714 70.5023C196.097 69.8038 195.32 69.2676 194.451 68.9399C193.78 68.7023 193.323 68.6663 193.323 68.6015Z" fill="#455A64"/>
<path d="M177.493 92.7431C177.436 92.7431 177.615 92.1167 177.743 91.1231C177.904 89.8267 177.829 88.5116 177.522 87.2423C177.196 85.9815 176.574 84.8183 175.708 83.8511C174.994 83.1311 174.495 82.7783 174.537 82.7135C174.58 82.6487 174.687 82.7639 174.937 82.9151C175.282 83.1181 175.603 83.3596 175.894 83.6351C176.859 84.5924 177.545 85.7975 177.879 87.1199C178.21 88.4316 178.252 89.8007 178 91.1303C177.931 91.6948 177.76 92.2416 177.493 92.7431Z" fill="#90CAF9"/>
<path d="M177.943 91.4398C177.907 91.4902 177.172 91.015 175.908 90.3814C172.613 88.7392 168.973 87.9218 165.298 87.9983C163.87 87.9983 163.028 88.1422 163.013 88.0846C163.204 88.0022 163.407 87.9511 163.613 87.9334C164.168 87.8324 164.728 87.7651 165.291 87.7318C169.015 87.5095 172.727 88.3478 176.001 90.151C176.496 90.4174 176.973 90.7156 177.429 91.0438C177.786 91.2526 177.957 91.3894 177.943 91.4398Z" fill="#455A64"/>
<path d="M172.481 89.0063C172.419 89.6183 172.268 90.2176 172.031 90.7847C171.534 92.1773 170.86 93.4988 170.025 94.7159C169.186 95.9319 168.192 97.031 167.069 97.9847C166.627 98.4073 166.124 98.7593 165.577 99.0287C167.114 97.6734 168.503 96.155 169.718 94.4999C170.83 92.7729 171.756 90.9313 172.481 89.0063Z" fill="#455A64"/>
<path d="M176.43 100.757C176.472 100.642 176.687 100.57 177.044 100.663C177.56 100.821 178.005 101.158 178.3 101.614C178.697 102.213 178.85 102.942 178.729 103.652C178.608 104.362 178.222 104.998 177.65 105.43C177.171 105.775 176.6 105.969 176.011 105.984C175.421 105.999 174.841 105.836 174.345 105.516C173.906 105.227 173.548 104.831 173.302 104.364C173.076 103.941 172.958 103.469 172.959 102.989C172.974 102.6 173.064 102.219 173.224 101.866C173.426 101.346 173.82 100.925 174.323 100.692C174.702 100.548 174.93 100.649 174.959 100.764C175.002 101.023 174.552 101.369 174.48 102.254C174.448 102.469 174.448 102.688 174.48 102.902C174.537 103.112 174.631 103.31 174.759 103.486C174.89 103.679 175.066 103.837 175.271 103.946C175.476 104.055 175.705 104.112 175.937 104.112C176.157 104.115 176.373 104.057 176.561 103.942C176.749 103.827 176.902 103.662 177.001 103.464C177.198 103.082 177.241 102.639 177.122 102.226C176.908 101.426 176.358 101.002 176.43 100.757Z" fill="#455A64"/>
<path d="M182.506 91.1879C183.729 91.1003 184.939 90.8855 186.118 90.5471C188.933 89.6021 191.414 87.8507 193.258 85.5071C195.066 83.1394 196.422 80.4539 197.257 77.5871C197.6 76.4855 197.835 75.5855 197.971 74.9663C198.031 74.6368 198.122 74.3138 198.242 74.0015C198.229 74.3363 198.183 74.669 198.107 74.9951C197.999 75.6287 197.799 76.5431 197.492 77.6591C196.717 80.5941 195.367 83.3431 193.523 85.7447C191.639 88.1358 189.079 89.8934 186.183 90.7847C185.307 91.0426 184.403 91.1901 183.491 91.2239C183.253 91.2355 183.015 91.2355 182.777 91.2239C182.598 91.2095 182.506 91.2023 182.506 91.1879Z" fill="#263238"/>
<path d="M197.314 122.681C197.445 122.718 197.569 122.779 197.678 122.861C198.003 123.078 198.29 123.348 198.528 123.66C198.905 124.156 199.173 124.728 199.313 125.337C199.512 126.147 199.49 126.995 199.249 127.793C198.895 128.812 198.317 129.738 197.559 130.503C196.802 131.267 195.883 131.849 194.872 132.206C193.704 132.654 192.486 132.954 191.245 133.099C189.92 133.276 188.581 133.329 187.247 133.257C184.643 133.165 182.114 132.361 179.928 130.932C178.139 129.756 176.741 128.065 175.915 126.079C175.596 125.318 175.433 124.5 175.437 123.674C175.445 123.045 175.612 122.428 175.923 121.881C176.117 121.538 176.38 121.239 176.694 121.003C176.799 120.919 176.917 120.853 177.044 120.809C176.633 121.111 176.294 121.502 176.051 121.953C175.776 122.484 175.636 123.075 175.644 123.674C175.667 124.471 175.841 125.255 176.158 125.985C176.997 127.897 178.375 129.517 180.121 130.644C182.261 132.016 184.726 132.789 187.261 132.883C188.574 132.953 189.891 132.902 191.195 132.732C192.416 132.602 193.615 132.316 194.765 131.882C195.742 131.556 196.634 131.012 197.376 130.292C198.117 129.572 198.689 128.693 199.049 127.721C199.256 127.057 199.312 126.354 199.21 125.665C199.109 124.977 198.853 124.321 198.464 123.746C198.141 123.33 197.752 122.97 197.314 122.681Z" fill="#263238"/>
<path d="M181.606 132.012C181.496 131.414 181.621 130.797 181.956 130.291C182.413 129.398 183.105 128.945 183.162 129.024C183.22 129.103 182.698 129.65 182.284 130.464C181.87 131.278 181.713 132.026 181.606 132.012Z" fill="#263238"/>
<path d="M188.303 133.294C188.145 132.806 188.103 132.288 188.182 131.782C188.182 130.954 188.318 130.284 188.425 130.284C188.584 130.771 188.628 131.289 188.553 131.796C188.496 132.624 188.411 133.294 188.303 133.294Z" fill="#263238"/>
<path d="M195.029 132.293C194.562 131.24 194.331 130.097 194.351 128.945C194.639 129.445 194.816 130.003 194.872 130.579C195.044 131.133 195.097 131.717 195.029 132.293Z" fill="#263238"/>
<path d="M198.956 127.973C198.863 128.023 198.585 127.649 198.121 127.346C197.657 127.044 197.214 126.914 197.221 126.806C197.228 126.698 197.778 126.662 198.328 127.029C198.878 127.397 199.049 127.937 198.956 127.973Z" fill="#263238"/>
<path d="M178.057 125.28C178.057 125.381 177.679 125.518 177.301 125.834C176.922 126.151 176.687 126.49 176.587 126.454C176.487 126.418 176.587 125.914 177.065 125.539C177.543 125.165 178.05 125.186 178.057 125.28Z" fill="#263238"/>
<path d="M189.803 173.462C189.561 173.451 189.326 173.38 189.118 173.257C188.909 173.134 188.733 172.962 188.605 172.755C188.477 172.549 188.4 172.314 188.381 172.071C188.362 171.828 188.401 171.584 188.496 171.36C190.424 166.982 195.686 158.558 196.029 158.011C196.529 157.248 196.793 156.305 198.392 156.11C199.006 156.038 208.645 155.815 210.908 155.765C211.091 155.757 211.274 155.787 211.445 155.851C211.617 155.915 211.774 156.013 211.908 156.139C212.358 156.571 212.829 157.392 212.115 158.681C211.315 160.121 205.489 169.243 203.126 172.757C202.895 173.099 202.582 173.377 202.217 173.564C201.851 173.752 201.444 173.843 201.034 173.83L189.803 173.462Z" fill="#263238"/>
<path d="M204.675 158.904C204.583 158.794 204.46 158.715 204.323 158.677C204.185 158.638 204.039 158.642 203.904 158.688C203.645 158.774 203.411 158.925 203.226 159.127C203.117 159.217 203.043 159.343 203.017 159.482C202.991 159.622 203.014 159.766 203.083 159.89C203.164 159.98 203.266 160.047 203.38 160.086C203.493 160.125 203.615 160.134 203.733 160.113C204.037 160.095 204.325 159.964 204.54 159.746C204.643 159.635 204.711 159.496 204.735 159.346C204.759 159.196 204.739 159.042 204.675 158.904Z" fill="white"/>
<path d="M209.63 160.884C209.728 160.591 209.855 160.309 210.009 160.042C210.152 159.761 210.309 159.437 210.494 159.084C210.594 158.897 210.694 158.695 210.801 158.486C210.932 158.296 211.016 158.076 211.044 157.846C211.048 157.728 211.023 157.612 210.972 157.507C210.921 157.401 210.845 157.31 210.751 157.241C210.64 157.17 210.516 157.121 210.386 157.099C210.256 157.077 210.123 157.081 209.995 157.111L208.024 157.19L203.519 157.349L199.006 157.486H198.506C198.371 157.497 198.243 157.547 198.135 157.63C197.938 157.85 197.766 158.091 197.621 158.35C197.292 158.868 196.985 159.358 196.693 159.79L195.336 161.885C195.18 162.143 194.999 162.384 194.793 162.605C194.903 162.316 195.045 162.041 195.215 161.784L196.471 159.624L197.357 158.141L197.599 157.738C197.684 157.578 197.795 157.434 197.928 157.313C198.082 157.183 198.271 157.102 198.471 157.082H198.999L203.49 156.96L208.002 156.83L209.966 156.787C210.297 156.732 210.637 156.806 210.916 156.996C211.04 157.096 211.139 157.225 211.205 157.372C211.27 157.518 211.301 157.678 211.294 157.838C211.287 157.988 211.246 158.133 211.173 158.263L210.994 158.587L210.659 159.17C210.459 159.516 210.28 159.826 210.116 160.099C209.984 160.378 209.821 160.642 209.63 160.884Z" fill="#455A64"/>
<path d="M225.767 159.79C225.767 159.79 224.789 166.644 223.789 171.05C222.897 174.974 221.476 188.237 217.863 189.907C214.25 191.578 209.745 190.534 208.081 187.301C206.418 184.068 204.633 175.464 204.633 175.464L197.064 172.253C197.064 172.253 195.322 165.852 196.314 165.132C197.307 164.412 207.074 165.492 207.074 165.492L209.695 164.894C209.695 164.894 205.525 164.29 204.633 164.052C204.43 164.023 204.235 163.952 204.06 163.844C203.885 163.737 203.734 163.595 203.615 163.426C203.496 163.258 203.412 163.067 203.369 162.865C203.325 162.663 203.323 162.455 203.362 162.252C203.569 161.41 203.74 160.567 205.996 160.567C208.253 160.567 211.794 160.229 212.422 160.452C213.222 160.726 214.122 161.172 214.3 163.21C214.479 165.247 213.529 168.97 213.529 168.97L213.736 169.286L215.071 159.365L225.767 159.79Z" fill="#FFBE9D"/>
<path d="M213.058 171.626C212.869 171.743 212.661 171.826 212.444 171.871C211.875 172.064 211.296 172.222 210.709 172.346C208.771 172.772 206.784 172.924 204.804 172.8C202.821 172.672 200.869 172.242 199.013 171.525C198.451 171.322 197.902 171.081 197.371 170.805C197.168 170.718 196.978 170.602 196.807 170.46C196.807 170.402 197.678 170.805 199.106 171.295C200.954 171.919 202.874 172.304 204.818 172.44C206.763 172.549 208.713 172.428 210.63 172.08C212.144 171.821 213.043 171.569 213.058 171.626Z" fill="#EB996E"/>
<path d="M211.623 168.876C211.429 168.972 211.222 169.037 211.009 169.07C210.609 169.171 210.023 169.301 209.295 169.423C207.384 169.746 205.441 169.819 203.512 169.639C201.575 169.453 199.691 168.901 197.957 168.012C197.435 167.742 196.936 167.429 196.464 167.076C196.136 166.824 195.965 166.666 195.979 166.644C195.993 166.622 196.75 167.148 198.071 167.774C199.805 168.573 201.658 169.076 203.554 169.265C205.457 169.44 207.372 169.404 209.266 169.157C210.716 168.984 211.615 168.818 211.623 168.876Z" fill="#EB996E"/>
<path d="M213.986 161.798C214.029 161.798 214.164 162.137 214.129 162.72C214.118 163.076 214.023 163.424 213.85 163.735C213.731 163.925 213.563 164.079 213.365 164.182C213.174 164.29 212.973 164.38 212.765 164.448C212.059 164.669 211.326 164.795 210.587 164.822C210.292 164.865 209.993 164.889 209.695 164.894C209.695 164.844 209.995 164.664 210.552 164.563C211.261 164.454 211.962 164.298 212.651 164.095C213.001 164.005 213.318 163.815 213.565 163.548C213.722 163.285 213.826 162.994 213.872 162.691C213.891 162.391 213.929 162.093 213.986 161.798Z" fill="#EB996E"/>
<path d="M210.387 173.333C210.48 173.527 210.528 173.74 210.528 173.956C210.528 174.171 210.48 174.384 210.387 174.578C210.239 175.026 209.976 175.426 209.623 175.738C209.19 176.116 208.661 176.365 208.095 176.458C207.54 176.555 206.97 176.53 206.425 176.386C205.993 176.262 205.576 176.09 205.182 175.874C204.809 175.71 204.454 175.505 204.125 175.262C204.534 175.307 204.929 175.432 205.289 175.63C206.137 176.057 207.092 176.218 208.031 176.09C208.532 176.01 209.004 175.802 209.402 175.486C209.712 175.217 209.957 174.879 210.116 174.499C210.26 174.125 210.351 173.732 210.387 173.333Z" fill="#EB996E"/>
<path d="M213.536 161.107C213.536 161.107 213.586 161.107 213.672 161.186C213.793 161.286 213.895 161.408 213.972 161.546C214.239 162.06 214.385 162.629 214.4 163.21C214.441 165.173 214.201 167.133 213.686 169.027V168.926C214.053 169.91 214.505 170.859 215.035 171.763C215.77 173.019 216.591 174.222 217.492 175.363C218.312 176.256 219.03 177.239 219.634 178.294C220.007 179.051 220.081 179.924 219.841 180.734C219.768 180.951 219.659 181.153 219.519 181.332C219.426 181.447 219.362 181.498 219.355 181.49C219.493 181.235 219.608 180.967 219.698 180.691C219.874 179.919 219.768 179.108 219.398 178.409C218.779 177.396 218.061 176.448 217.256 175.579C216.329 174.445 215.489 173.242 214.743 171.979C214.204 171.062 213.748 170.098 213.379 169.099V169.042V168.991C213.888 167.125 214.161 165.202 214.193 163.267C214.196 162.714 214.092 162.166 213.886 161.654C213.78 161.465 213.664 161.282 213.536 161.107Z" fill="#EB996E"/>
<path d="M146.72 173.916C146.72 173.916 145.613 189.223 152.675 191.786C162.407 195.329 173.502 185.551 173.545 185.393C173.588 185.234 185.355 175.68 185.355 175.68L181.692 165.506C181.692 165.506 180.221 165.506 177.843 167.22C176.979 167.839 163.342 175.09 163.342 175.09C163.342 175.09 157.387 175.039 146.72 173.916Z" fill="#FFBE9D"/>
<path d="M163.835 174.859C163.884 174.974 161.314 176.026 158.208 177.43C156.659 178.15 155.295 178.87 154.317 179.388C153.807 179.713 153.272 179.997 152.718 180.238C153.157 179.816 153.649 179.453 154.181 179.158C155.428 178.386 156.723 177.695 158.058 177.091C159.615 176.371 161.057 175.81 162.107 175.421C162.663 175.178 163.242 174.99 163.835 174.859Z" fill="#EB996E"/>
<path d="M194.736 159.962C194.736 159.962 192.894 157.334 192.166 157.342C191.438 157.349 187.047 158.062 187.047 158.062L180.842 164.88C180.842 164.88 180.413 167.09 181.756 167.89C181.756 167.89 181.306 171.367 182.962 172.368C182.962 172.368 184.198 175.637 185.354 175.702C185.844 175.746 186.336 175.746 186.825 175.702C186.825 175.702 186.575 177.667 188.339 177.79C190.088 177.763 191.831 177.587 193.551 177.264C193.805 177.221 194.048 177.128 194.267 176.989C194.485 176.851 194.674 176.67 194.822 176.458L196.336 174.298C196.574 173.963 196.703 173.561 196.703 173.149C196.703 172.737 196.574 172.335 196.336 172.001C196.734 171.525 197.043 170.981 197.25 170.395C197.349 169.715 197.349 169.023 197.25 168.343C197.25 168.343 199.87 166.104 199.934 165.521C199.998 164.938 199.87 164.376 198.713 164.441C198.713 164.441 198.471 162.634 197.007 162.677C195.543 162.72 188.61 162.677 188.61 162.677L189.931 161.381C189.931 161.381 193.38 162.706 193.744 161.827L194.736 159.962Z" fill="#FFBE9D"/>
<path d="M184.783 167.796C185.157 167.741 185.534 167.715 185.911 167.717C186.625 167.673 187.682 167.609 188.982 167.457C190.512 167.274 192.03 167.003 193.53 166.644C194.379 166.435 195.265 166.19 196.179 165.924C197.087 165.572 197.906 165.021 198.578 164.311L198.621 164.275H198.671C199.01 164.192 199.367 164.228 199.684 164.376C199.855 164.484 199.981 164.65 200.041 164.844C200.09 165.015 200.112 165.192 200.106 165.369C200.116 165.448 200.116 165.528 200.106 165.607C200.088 165.702 200.052 165.793 199.999 165.873C199.919 165.999 199.83 166.12 199.734 166.233C199.556 166.449 199.356 166.651 199.163 166.853C198.77 167.249 198.378 167.616 197.978 167.969C196.607 169.07 195.177 170.094 193.694 171.036C192.482 171.772 191.138 172.262 189.738 172.476C188.813 172.617 187.871 172.593 186.954 172.404C186.711 172.353 186.472 172.283 186.24 172.195C186.156 172.173 186.076 172.136 186.004 172.087C187.215 172.399 188.478 172.451 189.71 172.238C191.066 172.004 192.366 171.516 193.544 170.798C194.893 169.985 196.257 168.854 197.764 167.709C198.156 167.357 198.549 166.989 198.928 166.601C199.12 166.406 199.306 166.212 199.477 166.003C199.649 165.794 199.642 165.794 199.713 165.693C199.784 165.593 199.77 165.578 199.77 165.571C199.777 165.509 199.777 165.446 199.77 165.384C199.77 165.081 199.72 164.815 199.527 164.714C199.288 164.613 199.022 164.593 198.77 164.657L198.87 164.613C198.495 164.968 198.097 165.298 197.678 165.6C197.275 165.925 196.815 166.169 196.321 166.32C195.4 166.608 194.501 166.845 193.637 167.04C192.124 167.382 190.59 167.622 189.046 167.76C187.732 167.889 186.675 167.911 185.947 167.911C185.583 167.911 185.304 167.911 185.112 167.911C184.997 167.889 184.886 167.85 184.783 167.796Z" fill="#EB996E"/>
<path d="M197.243 168.329C197.353 168.682 197.404 169.052 197.393 169.423C197.393 169.596 197.393 169.79 197.393 170.006C197.393 170.114 197.393 170.222 197.393 170.337C197.382 170.468 197.346 170.596 197.286 170.712C197.182 170.959 197.063 171.2 196.929 171.432L196.714 171.792L196.6 171.972C196.579 172.012 196.555 172.05 196.529 172.087L196.479 172.13C196.443 172.13 196.479 172.181 196.307 172.13C196.275 172.109 196.251 172.078 196.239 172.041C196.227 172.004 196.229 171.964 196.243 171.929C196.241 171.917 196.241 171.904 196.243 171.893L196.279 171.842L196.564 172.015C196.097 172.871 195.481 173.634 194.744 174.269C193.503 175.346 191.95 175.993 190.317 176.112C189.841 176.147 189.362 176.133 188.889 176.069C188.71 176.057 188.534 176.015 188.368 175.946C188.368 175.874 189.125 176.004 190.324 175.853C191.879 175.657 193.344 175.006 194.537 173.981C195.239 173.364 195.835 172.634 196.3 171.821L196.593 171.993C197.041 170.825 197.262 169.581 197.243 168.329Z" fill="#EB996E"/>
<path d="M190.088 161.424C190.088 161.51 189.374 161.244 189.024 160.409C188.902 160.064 188.882 159.691 188.967 159.336C189.039 159.07 189.139 158.926 189.182 158.94C189.224 158.954 189.124 159.61 189.374 160.279C189.624 160.949 190.16 161.33 190.088 161.424Z" fill="#EB996E"/>
<path d="M186.983 175.745C186.813 175.835 186.624 175.88 186.433 175.874C185.912 175.913 185.39 175.814 184.919 175.586C184.204 175.245 183.641 174.647 183.341 173.909C183.17 173.478 183.083 173.019 183.084 172.555C183.084 172.462 183.063 172.37 183.022 172.286C182.981 172.202 182.922 172.129 182.848 172.073C182.466 171.819 182.152 171.474 181.934 171.068C181.716 170.662 181.601 170.209 181.599 169.747C181.568 169.178 181.59 168.606 181.663 168.041L181.742 168.199C181.363 167.956 181.054 167.617 180.844 167.217C180.634 166.817 180.53 166.369 180.542 165.917C180.521 165.577 180.619 165.24 180.821 164.966C180.772 165.279 180.744 165.594 180.735 165.91C180.752 166.316 180.867 166.711 181.072 167.061C181.276 167.412 181.562 167.706 181.906 167.918L181.992 167.969V168.07C181.945 168.618 181.945 169.17 181.992 169.718C182.028 170.307 182.242 170.87 182.606 171.331C182.759 171.502 182.931 171.654 183.12 171.785C183.228 171.872 183.316 171.981 183.379 172.105C183.442 172.229 183.478 172.365 183.484 172.505C183.475 172.932 183.545 173.357 183.691 173.758C183.949 174.43 184.438 174.987 185.069 175.327C185.665 175.616 186.321 175.76 186.983 175.745Z" fill="#EB996E"/>
<g opacity="0.3">
<path d="M168.019 155.167C167.183 162.806 166.005 168.638 164.227 173.887C166.723 171.756 168.371 168.787 168.868 165.528C169.34 162.309 168.59 158.4 168.019 155.167Z" fill="black"/>
</g>
<g opacity="0.3">
<path d="M216.656 150.97C216.377 148.259 215.703 145.605 214.657 143.093C215.778 148.493 215.906 154.055 215.035 159.502L215.292 158.918C216.459 156.444 216.93 153.695 216.656 150.97Z" fill="black"/>
</g>
</svg>
