<svg id="svg" version="1.1" xmlns="http://www.w3.org/2000/svg" viewBox="0 0 1080 1080"
  style="display: block;">
  <style>
    .mudarCor {
    fill: #ff92ac;
    }
    @media (prefers-color-scheme: dark) {
    .mudarCor {
    fill: #ffffff;
    }
    }
  </style>
  <path d="M0,0 L1080,0 L1080,1080 L0,1080 Z " transform="translate(0,0)" style="fill: transparent;" />
  <path
    d="M0,0 L3,0 L3,648 L1,648 L1,646 L0,646 L0,647 L-3,647 L-3,645 L-9,645 L-9,644 L-13,644 L-13,642 L-18,642 L-18,641 L-23,641 L-23,639 L-28,639 L-28,638 L-32,638 L-32,636 L-37,636 L-37,635 L-42,635 L-42,633 L-47,633 L-47,632 L-52,632 L-52,630 L-56,630 L-56,629 L-62,629 L-62,627 L-66,627 L-66,626 L-71,626 L-71,624 L-76,624 L-76,623 L-81,623 L-81,621 L-86,621 L-86,620 L-90,620 L-90,618 L-95,618 L-95,617 L-100,617 L-100,616 L-101,616 L-101,615 L-102,615 L-102,616 L-104,616 L-104,615 L-105,615 L-105,614 L-110,614 L-110,613 L-114,613 L-114,612 L-115,612 L-115,611 L-120,611 L-120,610 L-124,610 L-124,608 L-129,608 L-129,607 L-134,607 L-134,605 L-139,605 L-139,604 L-143,604 L-143,602 L-148,602 L-148,601 L-153,601 L-153,599 L-158,599 L-158,598 L-163,598 L-163,596 L-168,596 L-168,595 L-173,595 L-173,593 L-177,593 L-177,592 L-182,592 L-182,590 L-187,590 L-187,589 L-192,589 L-192,587 L-196,587 L-196,586 L-201,586 L-201,585 L-202,585 L-202,584 L-206,584 L-206,583 L-211,583 L-211,582 L-215,582 L-215,581 L-216,581 L-216,580 L-221,580 L-221,579 L-225,579 L-225,578 L-226,578 L-226,577 L-231,577 L-231,576 L-235,576 L-235,574 L-240,574 L-240,573 L-245,573 L-245,571 L-250,571 L-250,570 L-254,570 L-254,568 L-260,568 L-260,567 L-264,567 L-264,565 L-269,565 L-269,564 L-274,564 L-274,562 L-279,562 L-279,561 L-284,561 L-284,559 L-288,559 L-288,558 L-294,558 L-294,557 L-293,557 L-293,556 L-298,556 L-298,555 L-303,555 L-303,553 L-307,553 L-307,552 L-313,552 L-313,550 L-317,550 L-317,549 L-322,549 L-322,547 L-323,547 L-323,548 L-326,548 L-326,547 L-327,547 L-327,546 L-332,546 L-332,545 L-336,545 L-336,544 L-337,544 L-337,543 L-341,543 L-341,542 L-346,542 L-346,540 L-350,540 L-350,539 L-356,539 L-356,537 L-360,537 L-360,536 L-365,536 L-365,534 L-370,534 L-370,533 L-375,533 L-375,531 L-380,531 L-380,530 L-385,530 L-385,529 L-384,529 L-384,528 L-390,528 L-390,527 L-395,527 L-395,525 L-399,525 L-399,524 L-405,524 L-405,522 L-409,522 L-409,521 L-415,521 L-415,519 L-420,519 L-420,518 L-425,518 L-425,517 L-426,517 L-426,516 L-430,516 L-430,515 L-435,515 L-435,514 L-440,514 L-440,512 L-445,512 L-445,511 L-450,511 L-450,510 L-451,510 L-451,509 L-456,509 L-456,508 L-461,508 L-461,506 L-467,506 L-467,505 L-471,505 L-471,503 L-477,503 L-477,502 L-483,502 L-483,500 L-488,500 L-488,499 L-494,499 L-494,497 L-499,497 L-499,496 L-505,496 L-505,494 L-510,494 L-510,493 L-516,493 L-516,491 L-521,491 L-521,490 L-528,490 L-528,488 L-533,488 L-533,487 L-539,487 L-539,485 L-545,485 L-545,484 L-551,484 L-551,482 L-552,482 L-552,483 L-554,483 L-554,482 L-557,482 L-557,481 L-563,481 L-563,480 L-568,480 L-568,479 L-569,479 L-569,478 L-575,478 L-575,477 L-581,477 L-581,475 L-582,475 L-582,474 L-587,474 L-587,472 L-593,472 L-593,471 L-599,471 L-599,469 L-604,469 L-604,468 L-610,468 L-610,466 L-616,466 L-616,465 L-622,465 L-622,463 L-628,463 L-628,462 L-634,462 L-634,460 L-640,460 L-640,459 L-646,459 L-646,457 L-652,457 L-652,456 L-658,456 L-658,454 L-664,454 L-664,453 L-671,453 L-671,451 L-676,451 L-676,450 L-683,450 L-683,448 L-684,448 L-684,449 L-687,449 L-687,448 L-688,448 L-688,447 L-694,447 L-694,446 L-700,446 L-700,444 L-706,444 L-706,443 L-712,443 L-712,441 L-718,441 L-718,440 L-724,440 L-724,438 L-730,438 L-730,437 L-737,437 L-737,435 L-743,435 L-743,434 L-749,434 L-749,432 L-755,432 L-755,431 L-761,431 L-761,429 L-767,429 L-767,428 L-773,428 L-773,426 L-779,426 L-779,425 L-785,425 L-785,423 L-791,423 L-791,422 L-798,422 L-798,420 L-803,420 L-803,419 L-810,419 L-810,417 L-815,417 L-815,416 L-822,416 L-822,414 L-823,414 L-823,415 L-827,415 L-827,413 L-833,413 L-833,412 L-839,412 L-839,410 L-845,410 L-845,409 L-851,409 L-851,407 L-857,407 L-857,406 L-864,406 L-864,404 L-870,404 L-870,403 L-876,403 L-876,401 L-882,401 L-882,400 L-888,400 L-888,398 L-894,398 L-894,397 L-900,397 L-900,395 L-906,395 L-906,394 L-912,394 L-912,392 L-918,392 L-918,391 L-925,391 L-925,389 L-930,389 L-930,388 L-937,388 L-937,386 L-943,386 L-943,385 L-949,385 L-949,383 L-954,383 L-954,382 L-961,382 L-961,380 L-962,380 L-962,381 L-966,381 L-966,379 L-972,379 L-972,378 L-978,378 L-978,376 L-985,376 L-985,375 L-991,375 L-991,373 L-997,373 L-997,372 L-1003,372 L-1003,370 L-1009,370 L-1009,369 L-1015,369 L-1015,367 L-1021,367 L-1021,366 L-1027,366 L-1027,364 L-1033,364 L-1033,363 L-1039,363 L-1039,361 L-1045,361 L-1045,360 L-1052,360 L-1052,358 L-1057,358 L-1057,357 L-1064,357 L-1064,355 L-1070,355 L-1070,354 L-1076,354 L-1076,352 L-1077,352 L-1077,294 L-1074,294 L-1074,296 L-1070,296 L-1070,297 L-1065,297 L-1065,299 L-1061,299 L-1061,300 L-1057,300 L-1057,301 L-1056,301 L-1056,302 L-1053,302 L-1053,303 L-1049,303 L-1049,305 L-1048,305 L-1048,304 L-1045,304 L-1045,306 L-1040,306 L-1040,307 L-1036,307 L-1036,309 L-1032,309 L-1032,310 L-1028,310 L-1028,312 L-1024,312 L-1024,313 L-1019,313 L-1019,315 L-1015,315 L-1015,316 L-1011,316 L-1011,318 L-1007,318 L-1007,319 L-1003,319 L-1003,321 L-999,321 L-999,322 L-994,322 L-994,324 L-990,324 L-990,325 L-985,325 L-985,327 L-982,327 L-982,328 L-978,328 L-978,330 L-974,330 L-974,331 L-969,331 L-969,333 L-965,333 L-965,334 L-960,334 L-960,336 L-959,336 L-959,335 L-958,335 L-958,336 L-957,336 L-957,337 L-952,337 L-952,338 L-949,338 L-949,339 L-948,339 L-948,340 L-944,340 L-944,342 L-943,342 L-943,341 L-940,341 L-940,343 L-935,343 L-935,344 L-931,344 L-931,346 L-927,346 L-927,347 L-923,347 L-923,349 L-919,349 L-919,350 L-914,350 L-914,352 L-910,352 L-910,353 L-906,353 L-906,355 L-902,355 L-902,356 L-898,356 L-898,358 L-894,358 L-894,359 L-889,359 L-889,361 L-885,361 L-885,362 L-881,362 L-881,363 L-880,363 L-880,364 L-877,364 L-877,365 L-873,365 L-873,367 L-869,367 L-869,368 L-864,368 L-864,370 L-863,370 L-863,369 L-861,369 L-861,370 L-860,370 L-860,371 L-856,371 L-856,372 L-853,372 L-853,373 L-852,373 L-852,374 L-848,374 L-848,375 L-844,375 L-844,377 L-839,377 L-839,378 L-835,378 L-835,380 L-831,380 L-831,381 L-827,381 L-827,383 L-823,383 L-823,384 L-818,384 L-818,386 L-814,386 L-814,387 L-810,387 L-810,389 L-805,389 L-805,390 L-801,390 L-801,391 L-802,391 L-802,392 L-798,392 L-798,393 L-793,393 L-793,395 L-789,395 L-789,396 L-784,396 L-784,398 L-780,398 L-780,399 L-776,399 L-776,400 L-775,400 L-775,401 L-773,401 L-773,402 L-768,402 L-768,404 L-767,404 L-767,403 L-764,403 L-764,405 L-759,405 L-759,406 L-756,406 L-756,407 L-755,407 L-755,408 L-751,408 L-751,409 L-748,409 L-748,410 L-747,410 L-747,411 L-743,411 L-743,412 L-739,412 L-739,414 L-734,414 L-734,415 L-730,415 L-730,417 L-726,417 L-726,418 L-722,418 L-722,420 L-718,420 L-718,421 L-713,421 L-713,423 L-709,423 L-709,424 L-705,424 L-705,426 L-701,426 L-701,427 L-697,427 L-697,429 L-693,429 L-693,430 L-688,430 L-688,432 L-684,432 L-684,433 L-680,433 L-680,434 L-679,434 L-679,435 L-676,435 L-676,436 L-672,436 L-672,437 L-668,437 L-668,439 L-663,439 L-663,441 L-662,441 L-662,440 L-659,440 L-659,442 L-654,442 L-654,443 L-651,443 L-651,445 L-647,445 L-647,446 L-643,446 L-643,448 L-638,448 L-638,449 L-634,449 L-634,451 L-629,451 L-629,452 L-625,452 L-625,454 L-622,454 L-622,455 L-617,455 L-617,457 L-613,457 L-613,458 L-608,458 L-608,460 L-604,460 L-604,461 L-600,461 L-600,463 L-596,463 L-596,464 L-592,464 L-592,466 L-588,466 L-588,467 L-583,467 L-583,469 L-582,469 L-582,467 L-581,467 L-581,466 L-579,466 L-579,464 L-578,464 L-578,463 L-576,463 L-576,461 L-573,461 L-573,460 L-572,460 L-572,458 L-570,458 L-570,457 L-568,457 L-568,455 L-566,455 L-566,454 L-565,454 L-565,452 L-563,452 L-563,451 L-560,451 L-560,449 L-559,449 L-559,448 L-557,448 L-557,446 L-555,446 L-555,445 L-553,445 L-553,443 L-551,443 L-551,442 L-550,442 L-550,441 L-549,441 L-549,440 L-548,440 L-548,439 L-545,439 L-545,438 L-544,438 L-544,436 L-542,436 L-542,435 L-541,435 L-541,433 L-538,433 L-538,432 L-537,432 L-537,431 L-536,431 L-536,430 L-535,430 L-535,429 L-533,429 L-533,427 L-530,427 L-530,426 L-529,426 L-529,424 L-528,424 L-528,423 L-526,423 L-526,421 L-523,421 L-523,420 L-522,420 L-522,418 L-520,418 L-520,417 L-519,417 L-519,416 L-518,416 L-518,415 L-516,415 L-516,414 L-514,414 L-514,413 L-513,413 L-513,411 L-511,411 L-511,409 L-508,409 L-508,408 L-507,408 L-507,407 L-506,407 L-506,406 L-505,406 L-505,405 L-504,405 L-504,404 L-503,404 L-503,403 L-502,403 L-502,404 L-501,404 L-501,402 L-499,402 L-499,401 L-498,401 L-498,399 L-496,399 L-496,398 L-494,398 L-494,396 L-492,396 L-492,395 L-491,395 L-491,393 L-489,393 L-489,392 L-486,392 L-486,390 L-485,390 L-485,389 L-483,389 L-483,387 L-482,387 L-482,386 L-479,386 L-479,384 L-477,384 L-477,383 L-476,383 L-476,381 L-474,381 L-474,380 L-471,380 L-471,379 L-470,379 L-470,377 L-468,377 L-468,376 L-467,376 L-467,374 L-464,374 L-464,373 L-463,373 L-463,371 L-461,371 L-461,370 L-460,370 L-460,368 L-457,368 L-457,367 L-455,367 L-455,365 L-454,365 L-454,364 L-452,364 L-452,362 L-449,362 L-449,361 L-448,361 L-448,359 L-446,359 L-446,358 L-445,358 L-445,356 L-442,356 L-442,355 L-440,355 L-440,353 L-439,353 L-439,352 L-437,352 L-437,350 L-434,350 L-434,349 L-433,349 L-433,348 L-432,348 L-432,346 L-430,346 L-430,344 L-427,344 L-427,343 L-426,343 L-426,342 L-424,342 L-424,340 L-423,340 L-423,339 L-422,339 L-422,338 L-421,338 L-421,339 L-420,339 L-420,337 L-418,337 L-418,336 L-417,336 L-417,334 L-415,334 L-415,333 L-413,333 L-413,332 L-412,332 L-412,331 L-411,331 L-411,330 L-409,330 L-409,328 L-408,328 L-408,327 L-405,327 L-405,325 L-403,325 L-403,324 L-402,324 L-402,322 L-400,322 L-400,321 L-398,321 L-398,319 L-396,319 L-396,318 L-395,318 L-395,316 L-393,316 L-393,315 L-390,315 L-390,314 L-389,314 L-389,312 L-387,312 L-387,311 L-386,311 L-386,309 L-383,309 L-383,308 L-382,308 L-382,307 L-381,307 L-381,306 L-380,306 L-380,305 L-379,305 L-379,304 L-378,304 L-378,303 L-375,303 L-375,302 L-374,302 L-374,300 L-372,300 L-372,299 L-371,299 L-371,297 L-368,297 L-368,296 L-367,296 L-367,294 L-365,294 L-365,293 L-364,293 L-364,291 L-361,291 L-361,290 L-359,290 L-359,288 L-358,288 L-358,287 L-356,287 L-356,285 L-353,285 L-353,284 L-352,284 L-352,282 L-350,282 L-350,281 L-349,281 L-349,279 L-346,279 L-346,278 L-344,278 L-344,277 L-343,277 L-343,275 L-341,275 L-341,273 L-339,273 L-339,272 L-337,272 L-337,271 L-336,271 L-336,270 L-335,270 L-335,269 L-334,269 L-334,268 L-332,268 L-332,267 L-331,267 L-331,266 L-330,266 L-330,265 L-328,265 L-328,263 L-327,263 L-327,262 L-324,262 L-324,260 L-322,260 L-322,259 L-321,259 L-321,257 L-319,257 L-319,256 L-316,256 L-316,255 L-317,255 L-317,254 L-315,254 L-315,253 L-313,253 L-313,251 L-312,251 L-312,250 L-309,250 L-309,248 L-307,248 L-307,247 L-306,247 L-306,246 L-305,246 L-305,245 L-304,245 L-304,244 L-302,244 L-302,243 L-300,243 L-300,241 L-298,241 L-298,240 L-297,240 L-297,238 L-294,238 L-294,237 L-293,237 L-293,235 L-291,235 L-291,234 L-290,234 L-290,232 L-287,232 L-287,231 L-285,231 L-285,229 L-284,229 L-284,228 L-282,228 L-282,226 L-280,226 L-280,225 L-278,225 L-278,223 L-276,223 L-276,222 L-275,222 L-275,220 L-272,220 L-272,219 L-270,219 L-270,217 L-269,217 L-269,216 L-267,216 L-267,214 L-265,214 L-265,213 L-263,213 L-263,212 L-262,212 L-262,210 L-260,210 L-260,208 L-258,208 L-258,207 L-256,207 L-256,206 L-254,206 L-254,204 L-253,204 L-253,203 L-251,203 L-251,201 L-248,201 L-248,200 L-247,200 L-247,198 L-245,198 L-245,197 L-244,197 L-244,196 L-243,196 L-243,195 L-241,195 L-241,194 L-239,194 L-239,192 L-238,192 L-238,191 L-236,191 L-236,189 L-233,189 L-233,188 L-232,188 L-232,186 L-231,186 L-231,185 L-228,185 L-228,183 L-226,183 L-226,182 L-225,182 L-225,180 L-223,180 L-223,179 L-221,179 L-221,177 L-220,177 L-220,178 L-219,178 L-219,176 L-217,176 L-217,175 L-216,175 L-216,173 L-213,173 L-213,172 L-212,172 L-212,171 L-211,171 L-211,170 L-210,170 L-210,169 L-209,169 L-209,168 L-208,168 L-208,167 L-206,167 L-206,166 L-204,166 L-204,164 L-202,164 L-202,163 L-201,163 L-201,161 L-199,161 L-199,160 L-197,160 L-197,158 L-195,158 L-195,157 L-194,157 L-194,155 L-192,155 L-192,154 L-189,154 L-189,152 L-188,152 L-188,151 L-186,151 L-186,149 L-184,149 L-184,148 L-182,148 L-182,146 L-180,146 L-180,145 L-179,145 L-179,143 L-177,143 L-177,142 L-174,142 L-174,141 L-173,141 L-173,139 L-171,139 L-171,138 L-170,138 L-170,136 L-167,136 L-167,135 L-166,135 L-166,133 L-164,133 L-164,132 L-163,132 L-163,131 L-162,131 L-162,130 L-160,130 L-160,129 L-158,129 L-158,127 L-157,127 L-157,126 L-155,126 L-155,124 L-152,124 L-152,123 L-151,123 L-151,121 L-149,121 L-149,120 L-147,120 L-147,118 L-145,118 L-145,117 L-143,117 L-143,116 L-142,116 L-142,114 L-140,114 L-140,112 L-137,112 L-137,111 L-136,111 L-136,110 L-135,110 L-135,109 L-134,109 L-134,108 L-132,108 L-132,106 L-131,106 L-131,107 L-130,107 L-130,105 L-129,105 L-129,104 L-127,104 L-127,102 L-125,102 L-125,101 L-123,101 L-123,99 L-121,99 L-121,98 L-120,98 L-120,96 L-118,96 L-118,95 L-115,95 L-115,93 L-114,93 L-114,92 L-112,92 L-112,90 L-110,90 L-110,89 L-108,89 L-108,87 L-106,87 L-106,86 L-105,86 L-105,84 L-103,84 L-103,83 L-100,83 L-100,81 L-99,81 L-99,80 L-98,80 L-98,79 L-97,79 L-97,78 L-96,78 L-96,77 L-93,77 L-93,76 L-92,76 L-92,74 L-90,74 L-90,73 L-89,73 L-89,72 L-88,72 L-88,71 L-86,71 L-86,70 L-84,70 L-84,68 L-83,68 L-83,67 L-81,67 L-81,65 L-78,65 L-78,64 L-77,64 L-77,62 L-75,62 L-75,61 L-74,61 L-74,59 L-71,59 L-71,58 L-70,58 L-70,57 L-69,57 L-69,56 L-68,56 L-68,55 L-66,55 L-66,53 L-64,53 L-64,52 L-62,52 L-62,50 L-61,50 L-61,49 L-59,49 L-59,47 L-56,47 L-56,46 L-55,46 L-55,45 L-54,45 L-54,44 L-53,44 L-53,43 L-51,43 L-51,41 L-50,41 L-50,42 L-49,42 L-49,40 L-47,40 L-47,39 L-46,39 L-46,37 L-44,37 L-44,36 L-42,36 L-42,35 L-41,35 L-41,34 L-40,34 L-40,33 L-39,33 L-39,32 L-38,32 L-38,31 L-37,31 L-37,30 L-34,30 L-34,28 L-32,28 L-32,27 L-31,27 L-31,25 L-29,25 L-29,24 L-27,24 L-27,22 L-25,22 L-25,21 L-24,21 L-24,19 L-22,19 L-22,18 L-19,18 L-19,17 L-18,17 L-18,15 L-16,15 L-16,13 L-15,13 L-15,12 L-12,12 L-12,11 L-11,11 L-11,10 L-10,10 L-10,9 L-9,9 L-9,8 L-8,8 L-8,7 L-7,7 L-7,6 L-4,6 L-4,5 L-3,5 L-3,3 L-1,3 L-1,2 L0,2 Z "
    transform="translate(1077,131)" style="fill: #62F8DD;" />
  <path
    d="M0,0 L1,0 L1,328 L-9,328 L-9,329 L-20,329 L-20,330 L-21,330 L-21,331 L-34,331 L-34,332 L-46,332 L-46,333 L-47,333 L-47,334 L-59,334 L-59,335 L-71,335 L-71,336 L-72,336 L-72,337 L-84,337 L-84,338 L-96,338 L-96,340 L-109,340 L-109,341 L-121,341 L-121,343 L-134,343 L-134,344 L-147,344 L-147,346 L-159,346 L-159,347 L-172,347 L-172,349 L-184,349 L-184,350 L-197,350 L-197,352 L-209,352 L-209,353 L-222,353 L-222,355 L-234,355 L-234,356 L-247,356 L-247,358 L-259,358 L-259,359 L-272,359 L-272,360 L-273,360 L-273,361 L-284,361 L-284,362 L-296,362 L-296,363 L-308,363 L-308,364 L-309,364 L-309,365 L-321,365 L-321,366 L-333,366 L-333,367 L-334,367 L-334,368 L-346,368 L-346,369 L-358,369 L-358,370 L-359,370 L-359,371 L-371,371 L-371,372 L-383,372 L-383,373 L-384,373 L-384,374 L-396,374 L-396,375 L-409,375 L-409,377 L-421,377 L-421,378 L-434,378 L-434,380 L-446,380 L-446,381 L-459,381 L-459,383 L-471,383 L-471,384 L-484,384 L-484,386 L-496,386 L-496,387 L-509,387 L-509,389 L-521,389 L-521,390 L-532,390 L-532,391 L-533,391 L-533,392 L-543,392 L-543,393 L-550,393 L-550,394 L-559,394 L-559,395 L-574,395 L-574,396 L-575,396 L-575,397 L-576,397 L-576,398 L-579,398 L-579,397 L-581,397 L-581,394 L-579,394 L-579,393 L-577,393 L-577,392 L-576,392 L-576,391 L-575,391 L-575,390 L-574,390 L-574,389 L-572,389 L-572,388 L-568,388 L-568,387 L-566,387 L-566,386 L-565,386 L-565,385 L-563,385 L-563,384 L-561,384 L-561,383 L-558,383 L-558,382 L-556,382 L-556,381 L-555,381 L-555,380 L-553,380 L-553,379 L-551,379 L-551,378 L-550,378 L-550,377 L-548,377 L-548,376 L-547,376 L-547,375 L-546,375 L-546,374 L-544,374 L-544,372 L-541,372 L-541,371 L-539,371 L-539,369 L-536,369 L-536,368 L-534,368 L-534,366 L-531,366 L-531,365 L-530,365 L-530,363 L-526,363 L-526,362 L-524,362 L-524,361 L-523,361 L-523,360 L-522,360 L-522,359 L-519,359 L-519,358 L-518,358 L-518,357 L-517,357 L-517,356 L-515,356 L-515,354 L-512,354 L-512,353 L-510,353 L-510,352 L-508,352 L-508,350 L-505,350 L-505,349 L-503,349 L-503,348 L-502,348 L-502,347 L-500,347 L-500,346 L-499,346 L-499,345 L-498,345 L-498,344 L-495,344 L-495,343 L-493,343 L-493,342 L-492,342 L-492,338 L-491,338 L-491,339 L-489,339 L-489,338 L-486,338 L-486,337 L-484,337 L-484,335 L-483,335 L-483,330 L-480,330 L-480,329 L-479,329 L-479,327 L-476,327 L-476,326 L-475,326 L-475,324 L-472,324 L-472,323 L-470,323 L-470,321 L-467,321 L-467,320 L-466,320 L-466,318 L-463,318 L-463,317 L-461,317 L-461,315 L-459,315 L-459,314 L-457,314 L-457,312 L-455,312 L-455,311 L-452,311 L-452,309 L-451,309 L-451,308 L-448,308 L-448,306 L-447,306 L-447,305 L-444,305 L-444,304 L-443,304 L-443,303 L-442,303 L-442,302 L-439,302 L-439,301 L-438,301 L-438,299 L-435,299 L-435,298 L-433,298 L-433,296 L-431,296 L-431,295 L-429,295 L-429,293 L-427,293 L-427,292 L-424,292 L-424,290 L-423,290 L-423,289 L-420,289 L-420,287 L-418,287 L-418,286 L-415,286 L-415,284 L-414,284 L-414,283 L-411,283 L-411,281 L-410,281 L-410,280 L-407,280 L-407,278 L-405,278 L-405,277 L-403,277 L-403,276 L-402,276 L-402,275 L-401,275 L-401,274 L-399,274 L-399,272 L-398,272 L-398,273 L-397,273 L-397,272 L-396,272 L-396,271 L-395,271 L-395,270 L-392,270 L-392,268 L-390,268 L-390,267 L-388,267 L-388,266 L-387,266 L-387,265 L-386,265 L-386,264 L-383,264 L-383,262 L-381,262 L-381,261 L-379,261 L-379,259 L-377,259 L-377,258 L-375,258 L-375,256 L-373,256 L-373,255 L-371,255 L-371,253 L-368,253 L-368,252 L-367,252 L-367,250 L-364,250 L-364,249 L-362,249 L-362,247 L-359,247 L-359,246 L-358,246 L-358,244 L-355,244 L-355,243 L-353,243 L-353,241 L-351,241 L-351,240 L-349,240 L-349,238 L-347,238 L-347,237 L-344,237 L-344,235 L-343,235 L-343,234 L-340,234 L-340,232 L-339,232 L-339,231 L-336,231 L-336,230 L-334,230 L-334,228 L-331,228 L-331,227 L-330,227 L-330,225 L-327,225 L-327,224 L-325,224 L-325,222 L-324,222 L-324,221 L-321,221 L-321,219 L-319,219 L-319,218 L-316,218 L-316,216 L-315,216 L-315,215 L-312,215 L-312,213 L-311,213 L-311,212 L-308,212 L-308,211 L-307,211 L-307,210 L-306,210 L-306,209 L-303,209 L-303,207 L-302,207 L-302,206 L-299,206 L-299,205 L-298,205 L-298,204 L-297,204 L-297,203 L-295,203 L-295,202 L-293,202 L-293,200 L-291,200 L-291,199 L-288,199 L-288,197 L-287,197 L-287,196 L-284,196 L-284,194 L-282,194 L-282,193 L-280,193 L-280,192 L-279,192 L-279,191 L-278,191 L-278,190 L-275,190 L-275,188 L-274,188 L-274,187 L-271,187 L-271,185 L-269,185 L-269,184 L-267,184 L-267,182 L-265,182 L-265,181 L-263,181 L-263,179 L-260,179 L-260,178 L-259,178 L-259,176 L-256,176 L-256,175 L-254,175 L-254,173 L-253,173 L-253,174 L-252,174 L-252,172 L-250,172 L-250,170 L-249,170 L-249,171 L-248,171 L-248,170 L-247,170 L-247,169 L-245,169 L-245,168 L-243,168 L-243,166 L-241,166 L-241,164 L-240,164 L-240,165 L-239,165 L-239,163 L-237,163 L-237,162 L-235,162 L-235,160 L-232,160 L-232,159 L-231,159 L-231,157 L-228,157 L-228,156 L-226,156 L-226,154 L-223,154 L-223,153 L-222,153 L-222,151 L-219,151 L-219,150 L-217,150 L-217,148 L-215,148 L-215,147 L-213,147 L-213,145 L-211,145 L-211,144 L-208,144 L-208,142 L-207,142 L-207,141 L-204,141 L-204,139 L-203,139 L-203,138 L-200,138 L-200,137 L-199,137 L-199,136 L-198,136 L-198,135 L-195,135 L-195,134 L-194,134 L-194,132 L-191,132 L-191,131 L-189,131 L-189,129 L-187,129 L-187,128 L-185,128 L-185,126 L-183,126 L-183,125 L-180,125 L-180,123 L-179,123 L-179,122 L-176,122 L-176,120 L-175,120 L-175,119 L-172,119 L-172,117 L-170,117 L-170,116 L-167,116 L-167,114 L-166,114 L-166,113 L-163,113 L-163,111 L-161,111 L-161,110 L-159,110 L-159,109 L-158,109 L-158,108 L-157,108 L-157,107 L-155,107 L-155,106 L-153,106 L-153,105 L-152,105 L-152,104 L-151,104 L-151,103 L-148,103 L-148,101 L-146,101 L-146,100 L-144,100 L-144,98 L-142,98 L-142,97 L-139,97 L-139,95 L-138,95 L-138,94 L-135,94 L-135,92 L-133,92 L-133,91 L-131,91 L-131,89 L-129,89 L-129,88 L-127,88 L-127,86 L-124,86 L-124,85 L-123,85 L-123,83 L-120,83 L-120,82 L-118,82 L-118,80 L-116,80 L-116,79 L-114,79 L-114,77 L-111,77 L-111,76 L-109,76 L-109,74 L-107,74 L-107,73 L-105,73 L-105,71 L-103,71 L-103,70 L-101,70 L-101,69 L-100,69 L-100,68 L-99,68 L-99,67 L-96,67 L-96,65 L-95,65 L-95,64 L-92,64 L-92,63 L-90,63 L-90,61 L-87,61 L-87,60 L-86,60 L-86,58 L-83,58 L-83,57 L-81,57 L-81,55 L-79,55 L-79,54 L-77,54 L-77,52 L-75,52 L-75,51 L-73,51 L-73,50 L-72,50 L-72,49 L-71,49 L-71,48 L-68,48 L-68,46 L-67,46 L-67,45 L-64,45 L-64,43 L-62,43 L-62,42 L-59,42 L-59,40 L-58,40 L-58,39 L-55,39 L-55,38 L-54,38 L-54,37 L-53,37 L-53,36 L-51,36 L-51,35 L-49,35 L-49,33 L-47,33 L-47,32 L-45,32 L-45,30 L-43,30 L-43,29 L-40,29 L-40,27 L-39,27 L-39,26 L-36,26 L-36,24 L-34,24 L-34,23 L-31,23 L-31,21 L-30,21 L-30,20 L-27,20 L-27,18 L-25,18 L-25,17 L-23,17 L-23,15 L-21,15 L-21,14 L-19,14 L-19,12 L-16,12 L-16,11 L-15,11 L-15,9 L-14,9 L-14,10 L-13,10 L-13,9 L-12,9 L-12,8 L-11,8 L-11,7 L-10,7 L-10,6 L-9,6 L-9,7 L-8,7 L-8,5 L-6,5 L-6,3 L-5,3 L-5,4 L-4,4 L-4,3 L-3,3 L-3,2 L-2,2 L-2,1 L0,1 Z "
    transform="translate(1079,205)" style="fill: #F9D50B;" />
  <path
    d="M0,0 L5,0 L5,2 L10,2 L10,3 L16,3 L16,5 L21,5 L21,6 L27,6 L27,8 L33,8 L33,9 L39,9 L39,11 L43,11 L43,12 L49,12 L49,14 L55,14 L55,15 L61,15 L61,17 L62,17 L62,16 L63,16 L63,17 L64,17 L64,23 L62,23 L62,24 L63,24 L63,25 L62,25 L62,26 L61,26 L61,29 L59,29 L59,30 L60,30 L60,31 L58,31 L58,34 L57,34 L57,36 L56,36 L56,37 L55,37 L55,39 L54,39 L54,42 L52,42 L52,45 L51,45 L51,48 L49,48 L49,51 L48,51 L48,54 L46,54 L46,57 L45,57 L45,60 L43,60 L43,62 L42,62 L42,65 L40,65 L40,67 L39,67 L39,70 L37,70 L37,73 L36,73 L36,76 L34,76 L34,79 L33,79 L33,82 L31,82 L31,85 L30,85 L30,88 L28,88 L28,89 L29,89 L29,90 L28,90 L28,91 L27,91 L27,94 L25,94 L25,96 L24,96 L24,98 L23,98 L23,101 L21,101 L21,104 L20,104 L20,107 L18,107 L18,110 L17,110 L17,113 L15,113 L15,116 L14,116 L14,119 L12,119 L12,122 L11,122 L11,125 L10,125 L10,124 L9,124 L9,127 L8,127 L8,129 L6,129 L6,132 L5,132 L5,135 L3,135 L3,138 L2,138 L2,141 L0,141 L0,144 L-1,144 L-1,147 L-3,147 L-3,150 L-4,150 L-4,153 L-6,153 L-6,155 L-7,155 L-7,158 L-8,158 L-8,160 L-10,160 L-10,163 L-11,163 L-11,166 L-13,166 L-13,169 L-14,169 L-14,172 L-16,172 L-16,175 L-17,175 L-17,178 L-19,178 L-19,181 L-20,181 L-20,184 L-22,184 L-22,186 L-23,186 L-23,189 L-25,189 L-25,191 L-26,191 L-26,194 L-28,194 L-28,197 L-29,197 L-29,200 L-31,200 L-31,203 L-32,203 L-32,206 L-34,206 L-34,209 L-35,209 L-35,212 L-37,212 L-37,214 L-38,214 L-38,217 L-39,217 L-39,219 L-41,219 L-41,222 L-42,222 L-42,225 L-44,225 L-44,228 L-45,228 L-45,231 L-47,231 L-47,234 L-48,234 L-48,237 L-50,237 L-50,240 L-51,240 L-51,243 L-53,243 L-53,245 L-54,245 L-54,248 L-56,248 L-56,250 L-57,250 L-57,253 L-59,253 L-59,256 L-60,256 L-60,259 L-62,259 L-62,262 L-63,262 L-63,265 L-65,265 L-65,268 L-66,268 L-66,270 L-67,270 L-67,271 L-52,271 L-52,269 L-13,269 L-13,268 L23,268 L23,266 L61,266 L61,265 L98,265 L98,263 L136,263 L136,262 L173,262 L173,260 L210,260 L210,259 L248,259 L248,257 L285,257 L285,256 L322,256 L322,255 L323,255 L323,254 L359,254 L359,253 L397,253 L397,252 L398,252 L398,251 L434,251 L434,250 L472,250 L472,249 L475,249 L475,248 L509,248 L509,247 L547,247 L547,246 L582,246 L582,245 L581,245 L581,243 L579,243 L579,240 L578,240 L578,239 L577,239 L577,238 L576,238 L576,236 L575,236 L575,233 L573,233 L573,231 L572,231 L572,228 L570,228 L570,227 L569,227 L569,224 L567,224 L567,221 L566,221 L566,219 L564,219 L564,216 L563,216 L563,215 L561,215 L561,212 L560,212 L560,210 L558,210 L558,208 L557,208 L557,205 L555,205 L555,203 L554,203 L554,200 L553,200 L553,199 L551,199 L551,196 L550,196 L550,195 L549,195 L549,194 L548,194 L548,191 L547,191 L547,189 L545,189 L545,187 L544,187 L544,184 L542,184 L542,182 L541,182 L541,180 L539,180 L539,177 L538,177 L538,175 L536,175 L536,172 L535,172 L535,171 L533,171 L533,168 L532,168 L532,166 L530,166 L530,163 L529,163 L529,161 L527,161 L527,159 L526,159 L526,156 L525,156 L525,155 L524,155 L524,154 L523,154 L523,151 L521,151 L521,150 L520,150 L520,147 L518,147 L518,143 L519,143 L519,142 L525,142 L525,144 L530,144 L530,145 L535,145 L535,147 L539,147 L539,148 L544,148 L544,150 L545,150 L545,149 L548,149 L548,151 L553,151 L553,152 L557,152 L557,153 L558,153 L558,154 L563,154 L563,155 L567,155 L567,156 L568,156 L568,157 L572,157 L572,158 L576,158 L576,159 L577,159 L577,160 L581,160 L581,161 L586,161 L586,163 L591,163 L591,164 L596,164 L596,166 L600,166 L600,167 L602,167 L602,170 L603,170 L603,173 L605,173 L605,175 L606,175 L606,178 L608,178 L608,180 L609,180 L609,182 L611,182 L611,185 L612,185 L612,187 L614,187 L614,190 L615,190 L615,192 L617,192 L617,194 L618,194 L618,197 L619,197 L619,198 L621,198 L621,201 L622,201 L622,202 L623,202 L623,204 L624,204 L624,206 L626,206 L626,209 L627,209 L627,211 L628,211 L628,213 L630,213 L630,216 L631,216 L631,217 L632,217 L632,218 L633,218 L633,221 L634,221 L634,222 L636,222 L636,225 L637,225 L637,228 L639,228 L639,230 L640,230 L640,232 L642,232 L642,235 L643,235 L643,237 L645,237 L645,240 L646,240 L646,241 L648,241 L648,244 L649,244 L649,247 L651,247 L651,249 L652,249 L652,252 L654,252 L654,253 L655,253 L655,256 L657,256 L657,258 L656,258 L656,259 L658,259 L658,261 L660,261 L660,262 L659,262 L659,263 L661,263 L661,266 L662,266 L662,268 L664,268 L664,271 L665,271 L665,272 L667,272 L667,275 L668,275 L668,278 L670,278 L670,280 L671,280 L671,283 L673,283 L673,285 L674,285 L674,287 L676,287 L676,290 L677,290 L677,292 L679,292 L679,295 L680,295 L680,297 L682,297 L682,299 L683,299 L683,302 L685,302 L685,303 L686,303 L686,306 L688,306 L688,309 L689,309 L689,311 L691,311 L691,314 L692,314 L692,316 L693,316 L693,318 L695,318 L695,324 L694,324 L694,325 L-201,325 L-201,320 L-200,320 L-200,318 L-198,318 L-198,315 L-197,315 L-197,312 L-195,312 L-195,311 L-194,311 L-194,308 L-192,308 L-192,306 L-191,306 L-191,303 L-189,303 L-189,301 L-188,301 L-188,299 L-186,299 L-186,296 L-185,296 L-185,294 L-183,294 L-183,292 L-182,292 L-182,289 L-181,289 L-181,288 L-180,288 L-180,287 L-179,287 L-179,284 L-177,284 L-177,283 L-176,283 L-176,280 L-175,280 L-175,277 L-173,277 L-173,275 L-172,275 L-172,272 L-170,272 L-170,271 L-169,271 L-169,268 L-167,268 L-167,265 L-166,265 L-166,263 L-164,263 L-164,261 L-163,261 L-163,258 L-161,258 L-161,256 L-160,256 L-160,253 L-158,253 L-158,252 L-157,252 L-157,249 L-155,249 L-155,247 L-154,247 L-154,244 L-152,244 L-152,241 L-151,241 L-151,240 L-149,240 L-149,239 L-150,239 L-150,238 L-149,238 L-149,237 L-148,237 L-148,234 L-147,234 L-147,233 L-146,233 L-146,232 L-145,232 L-145,229 L-143,229 L-143,228 L-142,228 L-142,225 L-141,225 L-141,223 L-140,223 L-140,222 L-139,222 L-139,221 L-138,221 L-138,218 L-136,218 L-136,216 L-135,216 L-135,213 L-133,213 L-133,211 L-132,211 L-132,209 L-130,209 L-130,206 L-129,206 L-129,204 L-127,204 L-127,201 L-126,201 L-126,198 L-124,198 L-124,197 L-123,197 L-123,194 L-121,194 L-121,192 L-120,192 L-120,189 L-118,189 L-118,187 L-117,187 L-117,185 L-115,185 L-115,184 L-116,184 L-116,183 L-115,183 L-115,182 L-114,182 L-114,180 L-113,180 L-113,178 L-111,178 L-111,175 L-110,175 L-110,174 L-109,174 L-109,173 L-108,173 L-108,170 L-107,170 L-107,168 L-105,168 L-105,166 L-104,166 L-104,163 L-102,163 L-102,162 L-101,162 L-101,159 L-99,159 L-99,156 L-98,156 L-98,154 L-96,154 L-96,151 L-95,151 L-95,150 L-93,150 L-93,147 L-92,147 L-92,144 L-90,144 L-90,142 L-89,142 L-89,139 L-87,139 L-87,138 L-86,138 L-86,135 L-84,135 L-84,132 L-83,132 L-83,130 L-81,130 L-81,129 L-82,129 L-82,128 L-80,128 L-80,126 L-79,126 L-79,123 L-77,123 L-77,120 L-76,120 L-76,119 L-74,119 L-74,116 L-73,116 L-73,114 L-71,114 L-71,111 L-70,111 L-70,108 L-68,108 L-68,107 L-67,107 L-67,104 L-65,104 L-65,102 L-64,102 L-64,99 L-62,99 L-62,97 L-61,97 L-61,95 L-59,95 L-59,92 L-58,92 L-58,89 L-56,89 L-56,88 L-55,88 L-55,85 L-54,85 L-54,84 L-53,84 L-53,83 L-52,83 L-52,80 L-50,80 L-50,78 L-49,78 L-49,76 L-48,76 L-48,73 L-46,73 L-46,71 L-45,71 L-45,69 L-44,69 L-44,68 L-43,68 L-43,66 L-42,66 L-42,64 L-40,64 L-40,61 L-39,61 L-39,59 L-37,59 L-37,57 L-36,57 L-36,54 L-34,54 L-34,52 L-33,52 L-33,49 L-31,49 L-31,48 L-30,48 L-30,45 L-28,45 L-28,42 L-27,42 L-27,40 L-25,40 L-25,37 L-24,37 L-24,35 L-22,35 L-22,33 L-21,33 L-21,30 L-19,30 L-19,29 L-18,29 L-18,25 L-16,25 L-16,24 L-15,24 L-15,21 L-13,21 L-13,20 L-14,20 L-14,19 L-13,19 L-13,18 L-12,18 L-12,17 L-11,17 L-11,14 L-9,14 L-9,11 L-8,11 L-8,9 L-6,9 L-6,6 L-4,6 L-4,5 L-3,5 L-3,2 L0,2 Z "
    transform="translate(251,552)" class="mudarCor" />
  <path
    d="M0,0 L3,0 L3,1 L4,1 L4,2 L5,2 L5,4 L6,4 L6,7 L7,7 L7,8 L8,8 L8,9 L9,9 L9,12 L11,12 L11,15 L12,15 L12,17 L13,17 L13,19 L15,19 L15,22 L16,22 L16,23 L17,23 L17,24 L18,24 L18,27 L19,27 L19,29 L21,29 L21,32 L22,32 L22,34 L24,34 L24,37 L25,37 L25,40 L27,40 L27,41 L28,41 L28,44 L30,44 L30,47 L31,47 L31,49 L33,49 L33,52 L34,52 L34,55 L36,55 L36,56 L37,56 L37,59 L39,59 L39,62 L40,62 L40,64 L42,64 L42,66 L43,66 L43,69 L44,69 L44,70 L45,70 L45,71 L46,71 L46,74 L47,74 L47,75 L48,75 L48,76 L47,76 L47,77 L49,77 L49,79 L50,79 L50,81 L52,81 L52,84 L53,84 L53,86 L55,86 L55,89 L56,89 L56,91 L57,91 L57,92 L58,92 L58,94 L59,94 L59,96 L61,96 L61,99 L62,99 L62,102 L63,102 L63,101 L64,101 L64,103 L65,103 L65,106 L67,106 L67,109 L68,109 L68,111 L70,111 L70,114 L71,114 L71,117 L72,117 L72,118 L74,118 L74,121 L76,121 L76,124 L77,124 L77,126 L79,126 L79,129 L80,129 L80,132 L81,132 L81,133 L83,133 L83,136 L84,136 L84,139 L86,139 L86,141 L87,141 L87,143 L89,143 L89,146 L90,146 L90,148 L92,148 L92,151 L93,151 L93,154 L95,154 L95,156 L96,156 L96,158 L98,158 L98,161 L99,161 L99,163 L101,163 L101,166 L102,166 L102,168 L103,168 L103,169 L104,169 L104,171 L105,171 L105,173 L107,173 L107,176 L108,176 L108,179 L109,179 L109,180 L111,180 L111,183 L112,183 L112,184 L113,184 L113,186 L114,186 L114,188 L115,188 L115,190 L116,190 L116,191 L117,191 L117,194 L118,194 L118,195 L120,195 L120,198 L121,198 L121,201 L123,201 L123,203 L124,203 L124,205 L126,205 L126,208 L127,208 L127,210 L129,210 L129,213 L130,213 L130,216 L132,216 L132,218 L133,218 L133,220 L135,220 L135,223 L136,223 L136,225 L138,225 L138,228 L139,228 L139,231 L141,231 L141,233 L142,233 L142,235 L144,235 L144,238 L145,238 L145,241 L146,241 L146,242 L148,242 L148,245 L149,245 L149,247 L150,247 L150,248 L151,248 L151,250 L152,250 L152,253 L154,253 L154,256 L155,256 L155,257 L157,257 L157,260 L158,260 L158,263 L160,263 L160,265 L161,265 L161,267 L163,267 L163,270 L164,270 L164,272 L166,272 L166,275 L167,275 L167,278 L169,278 L169,279 L170,279 L170,282 L172,282 L172,285 L173,285 L173,287 L175,287 L175,290 L176,290 L176,297 L173,297 L173,299 L171,299 L171,300 L170,300 L170,302 L167,302 L167,303 L166,303 L166,305 L164,305 L164,306 L163,306 L163,308 L160,308 L160,309 L158,309 L158,311 L157,311 L157,312 L154,312 L154,314 L152,314 L152,315 L151,315 L151,317 L149,317 L149,318 L146,318 L146,319 L145,319 L145,321 L143,321 L143,323 L141,323 L141,324 L139,324 L139,325 L138,325 L138,327 L136,327 L136,328 L135,328 L135,329 L134,329 L134,328 L133,328 L133,330 L132,330 L132,331 L130,331 L130,333 L128,333 L128,334 L124,334 L124,333 L122,333 L122,330 L121,330 L121,328 L119,328 L119,326 L118,326 L118,324 L116,324 L116,322 L115,322 L115,319 L113,319 L113,318 L112,318 L112,315 L111,315 L111,314 L109,314 L109,312 L107,312 L107,309 L106,309 L106,308 L105,308 L105,307 L104,307 L104,305 L103,305 L103,303 L102,303 L102,302 L100,302 L100,299 L99,299 L99,297 L97,297 L97,294 L96,294 L96,293 L94,293 L94,291 L93,291 L93,289 L91,289 L91,287 L90,287 L90,284 L88,284 L88,283 L87,283 L87,281 L85,281 L85,278 L84,278 L84,277 L82,277 L82,274 L81,274 L81,272 L79,272 L79,271 L78,271 L78,268 L77,268 L77,267 L76,267 L76,266 L75,266 L75,263 L74,263 L74,262 L72,262 L72,260 L71,260 L71,258 L70,258 L70,257 L69,257 L69,256 L68,256 L68,253 L66,253 L66,251 L65,251 L65,250 L63,250 L63,247 L62,247 L62,246 L60,246 L60,243 L59,243 L59,241 L57,241 L57,239 L56,239 L56,237 L54,237 L54,235 L53,235 L53,232 L51,232 L51,231 L50,231 L50,229 L48,229 L48,226 L47,226 L47,225 L45,225 L45,222 L44,222 L44,220 L42,220 L42,219 L41,219 L41,216 L40,216 L40,215 L38,215 L38,212 L37,212 L37,210 L35,210 L35,208 L34,208 L34,206 L32,206 L32,204 L31,204 L31,201 L29,201 L29,200 L28,200 L28,198 L26,198 L26,195 L25,195 L25,194 L23,194 L23,191 L22,191 L22,189 L20,189 L20,187 L19,187 L19,185 L17,185 L17,183 L16,183 L16,181 L14,181 L14,179 L13,179 L13,177 L11,177 L11,176 L12,176 L12,175 L10,175 L10,173 L8,173 L8,170 L7,170 L7,169 L6,169 L6,168 L5,168 L5,167 L4,167 L4,164 L3,164 L3,163 L1,163 L1,160 L0,160 L0,159 L-1,159 L-1,158 L-2,158 L-2,156 L-3,156 L-3,154 L-5,154 L-5,152 L-6,152 L-6,150 L-8,150 L-8,148 L-9,148 L-9,146 L-11,146 L-11,144 L-12,144 L-12,142 L-14,142 L-14,139 L-15,139 L-15,138 L-17,138 L-17,135 L-18,135 L-18,136 L-19,136 L-19,139 L-20,139 L-20,140 L-21,140 L-21,141 L-22,141 L-22,144 L-23,144 L-23,146 L-24,146 L-24,147 L-25,147 L-25,149 L-26,149 L-26,151 L-28,151 L-28,154 L-29,154 L-29,157 L-31,157 L-31,160 L-32,160 L-32,162 L-34,162 L-34,164 L-35,164 L-35,167 L-37,167 L-37,170 L-38,170 L-38,173 L-40,173 L-40,175 L-41,175 L-41,178 L-43,178 L-43,180 L-44,180 L-44,183 L-46,183 L-46,185 L-47,185 L-47,188 L-49,188 L-49,191 L-50,191 L-50,194 L-52,194 L-52,195 L-53,195 L-53,198 L-54,198 L-54,201 L-56,201 L-56,204 L-57,204 L-57,206 L-59,206 L-59,209 L-60,209 L-60,211 L-61,211 L-61,212 L-62,212 L-62,214 L-63,214 L-63,216 L-65,216 L-65,219 L-66,219 L-66,222 L-68,222 L-68,225 L-69,225 L-69,227 L-71,227 L-71,229 L-72,229 L-72,232 L-74,232 L-74,235 L-75,235 L-75,238 L-77,238 L-77,240 L-78,240 L-78,243 L-80,243 L-80,246 L-81,246 L-81,248 L-82,248 L-82,249 L-83,249 L-83,250 L-84,250 L-84,253 L-86,253 L-86,254 L-85,254 L-85,255 L-86,255 L-86,256 L-87,256 L-87,259 L-89,259 L-89,260 L-90,260 L-90,263 L-91,263 L-91,266 L-93,266 L-93,269 L-94,269 L-94,271 L-96,271 L-96,274 L-97,274 L-97,277 L-99,277 L-99,279 L-100,279 L-100,282 L-102,282 L-102,284 L-103,284 L-103,287 L-105,287 L-105,290 L-106,290 L-106,293 L-108,293 L-108,294 L-109,294 L-109,297 L-111,297 L-111,300 L-112,300 L-112,303 L-114,303 L-114,305 L-115,305 L-115,308 L-117,308 L-117,311 L-118,311 L-118,313 L-119,313 L-119,314 L-120,314 L-120,315 L-121,315 L-121,318 L-123,318 L-123,319 L-122,319 L-122,321 L-124,321 L-124,324 L-125,324 L-125,325 L-126,325 L-126,326 L-127,326 L-127,328 L-128,328 L-128,331 L-130,331 L-130,334 L-131,334 L-131,336 L-133,336 L-133,339 L-134,339 L-134,342 L-136,342 L-136,345 L-137,345 L-137,347 L-139,347 L-139,349 L-140,349 L-140,352 L-142,352 L-142,355 L-143,355 L-143,358 L-145,358 L-145,359 L-146,359 L-146,362 L-147,362 L-147,363 L-148,363 L-148,365 L-149,365 L-149,368 L-151,368 L-151,370 L-152,370 L-152,373 L-154,373 L-154,374 L-153,374 L-153,375 L-154,375 L-154,376 L-155,376 L-155,379 L-157,379 L-157,380 L-158,380 L-158,383 L-166,383 L-166,382 L-170,382 L-170,380 L-173,380 L-173,379 L-178,379 L-178,377 L-182,377 L-182,376 L-186,376 L-186,374 L-189,374 L-189,373 L-194,373 L-194,371 L-198,371 L-198,370 L-203,370 L-203,368 L-207,368 L-207,367 L-211,367 L-211,366 L-212,366 L-212,365 L-216,365 L-216,364 L-220,364 L-220,363 L-221,363 L-221,362 L-222,362 L-222,359 L-221,359 L-221,357 L-219,357 L-219,355 L-218,355 L-218,352 L-216,352 L-216,349 L-215,349 L-215,347 L-213,347 L-213,344 L-212,344 L-212,343 L-210,343 L-210,340 L-209,340 L-209,337 L-207,337 L-207,335 L-206,335 L-206,332 L-204,332 L-204,331 L-203,331 L-203,328 L-201,328 L-201,325 L-200,325 L-200,323 L-198,323 L-198,321 L-197,321 L-197,318 L-196,318 L-196,317 L-195,317 L-195,316 L-194,316 L-194,313 L-192,313 L-192,311 L-191,311 L-191,309 L-190,309 L-190,306 L-188,306 L-188,304 L-187,304 L-187,302 L-186,302 L-186,301 L-185,301 L-185,299 L-184,299 L-184,297 L-182,297 L-182,294 L-181,294 L-181,292 L-179,292 L-179,290 L-178,290 L-178,287 L-176,287 L-176,285 L-175,285 L-175,282 L-173,282 L-173,280 L-172,280 L-172,278 L-170,278 L-170,275 L-169,275 L-169,272 L-167,272 L-167,270 L-166,270 L-166,267 L-164,267 L-164,266 L-163,266 L-163,263 L-161,263 L-161,262 L-162,262 L-162,261 L-161,261 L-161,260 L-160,260 L-160,259 L-159,259 L-159,256 L-157,256 L-157,254 L-156,254 L-156,251 L-154,251 L-154,248 L-153,248 L-153,247 L-151,247 L-151,244 L-150,244 L-150,241 L-148,241 L-148,239 L-147,239 L-147,236 L-145,236 L-145,235 L-144,235 L-144,232 L-142,232 L-142,229 L-141,229 L-141,227 L-139,227 L-139,225 L-138,225 L-138,222 L-136,222 L-136,220 L-135,220 L-135,217 L-133,217 L-133,216 L-132,216 L-132,213 L-130,213 L-130,212 L-131,212 L-131,211 L-130,211 L-130,210 L-129,210 L-129,208 L-127,208 L-127,207 L-128,207 L-128,206 L-127,206 L-127,205 L-126,205 L-126,203 L-125,203 L-125,201 L-123,201 L-123,198 L-121,198 L-121,197 L-122,197 L-122,196 L-120,196 L-120,194 L-119,194 L-119,191 L-117,191 L-117,189 L-116,189 L-116,186 L-114,186 L-114,184 L-113,184 L-113,182 L-111,182 L-111,179 L-110,179 L-110,177 L-108,177 L-108,174 L-107,174 L-107,171 L-105,171 L-105,170 L-104,170 L-104,167 L-102,167 L-102,165 L-101,165 L-101,162 L-99,162 L-99,160 L-98,160 L-98,158 L-96,158 L-96,157 L-97,157 L-97,156 L-96,156 L-96,155 L-95,155 L-95,152 L-93,152 L-93,151 L-92,151 L-92,148 L-91,148 L-91,146 L-89,146 L-89,143 L-88,143 L-88,140 L-86,140 L-86,139 L-85,139 L-85,136 L-83,136 L-83,133 L-82,133 L-82,131 L-80,131 L-80,129 L-79,129 L-79,126 L-77,126 L-77,124 L-76,124 L-76,121 L-74,121 L-74,120 L-73,120 L-73,117 L-71,117 L-71,114 L-70,114 L-70,112 L-68,112 L-68,109 L-67,109 L-67,107 L-66,107 L-66,106 L-65,106 L-65,105 L-64,105 L-64,102 L-62,102 L-62,100 L-61,100 L-61,97 L-59,97 L-59,96 L-60,96 L-60,95 L-58,95 L-58,93 L-57,93 L-57,90 L-55,90 L-55,88 L-54,88 L-54,86 L-52,86 L-52,83 L-51,83 L-51,81 L-49,81 L-49,78 L-48,78 L-48,76 L-46,76 L-46,74 L-45,74 L-45,71 L-43,71 L-43,69 L-42,69 L-42,66 L-40,66 L-40,64 L-39,64 L-39,62 L-37,62 L-37,59 L-36,59 L-36,56 L-34,56 L-34,55 L-33,55 L-33,52 L-32,52 L-32,51 L-31,51 L-31,50 L-30,50 L-30,47 L-28,47 L-28,46 L-29,46 L-29,45 L-28,45 L-28,44 L-27,44 L-27,43 L-26,43 L-26,40 L-24,40 L-24,37 L-23,37 L-23,36 L-22,36 L-22,35 L-21,35 L-21,32 L-20,32 L-20,31 L-18,31 L-18,28 L-17,28 L-17,25 L-15,25 L-15,24 L-14,24 L-14,21 L-12,21 L-12,18 L-11,18 L-11,16 L-9,16 L-9,13 L-8,13 L-8,11 L-7,11 L-7,12 L-6,12 L-6,9 L-5,9 L-5,6 L-3,6 L-3,4 L-2,4 L-2,1 L0,1 Z "
    transform="translate(498,149)" class="mudarCor" />
  <path
    d="M0,0 L3,0 L3,132 L-7,132 L-7,133 L-18,133 L-18,134 L-19,134 L-19,135 L-32,135 L-32,136 L-44,136 L-44,137 L-45,137 L-45,138 L-57,138 L-57,139 L-69,139 L-69,140 L-70,140 L-70,141 L-82,141 L-82,142 L-94,142 L-94,144 L-107,144 L-107,145 L-119,145 L-119,147 L-132,147 L-132,148 L-145,148 L-145,150 L-157,150 L-157,151 L-170,151 L-170,153 L-182,153 L-182,154 L-195,154 L-195,156 L-207,156 L-207,157 L-220,157 L-220,159 L-232,159 L-232,160 L-245,160 L-245,162 L-257,162 L-257,163 L-270,163 L-270,164 L-271,164 L-271,165 L-282,165 L-282,166 L-294,166 L-294,167 L-306,167 L-306,168 L-307,168 L-307,169 L-319,169 L-319,170 L-331,170 L-331,171 L-332,171 L-332,172 L-344,172 L-344,173 L-356,173 L-356,174 L-357,174 L-357,175 L-369,175 L-369,176 L-381,176 L-381,177 L-382,177 L-382,178 L-394,178 L-394,179 L-407,179 L-407,181 L-419,181 L-419,182 L-432,182 L-432,184 L-444,184 L-444,185 L-457,185 L-457,187 L-469,187 L-469,188 L-482,188 L-482,190 L-494,190 L-494,191 L-507,191 L-507,193 L-519,193 L-519,194 L-530,194 L-530,195 L-531,195 L-531,196 L-541,196 L-541,197 L-548,197 L-548,198 L-557,198 L-557,199 L-572,199 L-572,200 L-573,200 L-573,201 L-574,201 L-574,202 L-577,202 L-577,201 L-576,201 L-576,199 L-573,199 L-573,198 L-570,198 L-570,197 L-565,197 L-565,196 L-558,196 L-558,195 L-556,195 L-556,194 L-553,194 L-553,193 L-549,193 L-549,192 L-545,192 L-545,191 L-543,191 L-543,190 L-537,190 L-537,189 L-531,189 L-531,188 L-529,188 L-529,187 L-528,187 L-528,186 L-521,186 L-521,185 L-520,185 L-520,184 L-518,184 L-518,183 L-513,183 L-513,182 L-512,182 L-512,181 L-507,181 L-507,180 L-503,180 L-503,179 L-502,179 L-502,178 L-498,178 L-498,177 L-494,177 L-494,176 L-493,176 L-493,175 L-489,175 L-489,174 L-485,174 L-485,173 L-482,173 L-482,172 L-481,172 L-481,171 L-477,171 L-477,170 L-473,170 L-473,168 L-468,168 L-468,167 L-464,167 L-464,165 L-460,165 L-460,164 L-456,164 L-456,162 L-452,162 L-452,161 L-447,161 L-447,159 L-443,159 L-443,158 L-439,158 L-439,156 L-436,156 L-436,155 L-431,155 L-431,153 L-427,153 L-427,152 L-422,152 L-422,150 L-418,150 L-418,149 L-415,149 L-415,148 L-414,148 L-414,147 L-411,147 L-411,146 L-406,146 L-406,144 L-405,144 L-405,145 L-403,145 L-403,144 L-402,144 L-402,143 L-397,143 L-397,142 L-394,142 L-394,140 L-390,140 L-390,139 L-386,139 L-386,138 L-385,138 L-385,137 L-381,137 L-381,136 L-377,136 L-377,134 L-373,134 L-373,133 L-369,133 L-369,131 L-365,131 L-365,130 L-360,130 L-360,128 L-356,128 L-356,127 L-352,127 L-352,125 L-348,125 L-348,124 L-344,124 L-344,122 L-340,122 L-340,121 L-335,121 L-335,119 L-331,119 L-331,118 L-328,118 L-328,117 L-327,117 L-327,116 L-323,116 L-323,115 L-319,115 L-319,113 L-315,113 L-315,112 L-310,112 L-310,111 L-308,111 L-308,110 L-307,110 L-307,109 L-303,109 L-303,108 L-298,108 L-298,106 L-294,106 L-294,105 L-290,105 L-290,103 L-286,103 L-286,102 L-282,102 L-282,100 L-278,100 L-278,99 L-273,99 L-273,97 L-269,97 L-269,96 L-265,96 L-265,94 L-261,94 L-261,93 L-257,93 L-257,91 L-252,91 L-252,90 L-248,90 L-248,88 L-244,88 L-244,87 L-240,87 L-240,85 L-236,85 L-236,84 L-232,84 L-232,82 L-227,82 L-227,81 L-223,81 L-223,79 L-222,79 L-222,80 L-221,80 L-221,79 L-220,79 L-220,78 L-215,78 L-215,76 L-214,76 L-214,77 L-211,77 L-211,75 L-207,75 L-207,74 L-203,74 L-203,72 L-199,72 L-199,71 L-195,71 L-195,69 L-190,69 L-190,68 L-186,68 L-186,66 L-182,66 L-182,65 L-178,65 L-178,63 L-174,63 L-174,62 L-170,62 L-170,60 L-165,60 L-165,59 L-161,59 L-161,57 L-157,57 L-157,56 L-153,56 L-153,54 L-149,54 L-149,53 L-144,53 L-144,51 L-140,51 L-140,50 L-136,50 L-136,48 L-133,48 L-133,47 L-128,47 L-128,45 L-127,45 L-127,46 L-125,46 L-125,45 L-124,45 L-124,44 L-119,44 L-119,43 L-116,43 L-116,41 L-112,41 L-112,40 L-108,40 L-108,38 L-103,38 L-103,37 L-99,37 L-99,35 L-95,35 L-95,34 L-91,34 L-91,32 L-87,32 L-87,31 L-82,31 L-82,29 L-78,29 L-78,28 L-74,28 L-74,26 L-70,26 L-70,25 L-66,25 L-66,23 L-62,23 L-62,22 L-57,22 L-57,20 L-53,20 L-53,19 L-49,19 L-49,17 L-45,17 L-45,16 L-41,16 L-41,14 L-37,14 L-37,13 L-32,13 L-32,11 L-31,11 L-31,12 L-30,12 L-30,11 L-28,11 L-28,10 L-25,10 L-25,9 L-21,9 L-21,8 L-20,8 L-20,7 L-16,7 L-16,6 L-12,6 L-12,4 L-7,4 L-7,3 L-4,3 L-4,1 L0,1 Z "
    transform="translate(1077,401)" style="fill: #F85151;" />
  <path
    d="M0,0 L52,0 L52,134 L48,134 L48,133 L42,133 L42,131 L36,131 L36,130 L30,130 L30,128 L23,128 L23,127 L17,127 L17,125 L11,125 L11,124 L5,124 L5,122 L-2,122 L-2,121 L-8,121 L-8,119 L-14,119 L-14,118 L-21,118 L-21,116 L-27,116 L-27,115 L-34,115 L-34,113 L-39,113 L-39,112 L-46,112 L-46,111 L-47,111 L-47,110 L-53,110 L-53,109 L-59,109 L-59,108 L-64,108 L-64,107 L-65,107 L-65,106 L-72,106 L-72,105 L-78,105 L-78,103 L-85,103 L-85,102 L-91,102 L-91,100 L-97,100 L-97,99 L-104,99 L-104,97 L-111,97 L-111,96 L-117,96 L-117,94 L-124,94 L-124,93 L-130,93 L-130,91 L-137,91 L-137,90 L-143,90 L-143,88 L-150,88 L-150,87 L-157,87 L-157,85 L-163,85 L-163,84 L-170,84 L-170,82 L-177,82 L-177,81 L-184,81 L-184,79 L-190,79 L-190,78 L-197,78 L-197,77 L-198,77 L-198,76 L-202,76 L-202,77 L-203,77 L-203,75 L-211,75 L-211,74 L-217,74 L-217,72 L-224,72 L-224,71 L-231,71 L-231,69 L-238,69 L-238,68 L-245,68 L-245,66 L-252,66 L-252,65 L-258,65 L-258,63 L-266,63 L-266,62 L-273,62 L-273,60 L-280,60 L-280,59 L-287,59 L-287,58 L-286,58 L-286,57 L-294,57 L-294,56 L-301,56 L-301,54 L-308,54 L-308,53 L-315,53 L-315,52 L-316,52 L-316,51 L-322,51 L-322,50 L-330,50 L-330,48 L-337,48 L-337,47 L-344,47 L-344,46 L-345,46 L-345,45 L-351,45 L-351,44 L-359,44 L-359,43 L-360,43 L-360,42 L-365,42 L-365,43 L-366,43 L-366,41 L-374,41 L-374,40 L-381,40 L-381,38 L-388,38 L-388,37 L-396,37 L-396,35 L-403,35 L-403,34 L-411,34 L-411,32 L-419,32 L-419,31 L-426,31 L-426,29 L-434,29 L-434,28 L-442,28 L-442,26 L-450,26 L-450,25 L-458,25 L-458,24 L-464,24 L-464,23 L-465,23 L-465,22 L-475,22 L-475,21 L-481,21 L-481,20 L-484,20 L-484,19 L-491,19 L-491,18 L-498,18 L-498,17 L-505,17 L-505,16 L-507,16 L-507,15 L-510,15 L-510,14 L-509,14 L-509,13 L-504,13 L-504,12 L-449,12 L-449,11 L-385,11 L-385,9 L-321,9 L-321,8 L-257,8 L-257,6 L-193,6 L-193,5 L-128,5 L-128,3 L-65,3 L-65,2 L0,2 Z "
    transform="translate(1028,591)" style="fill: #F7580C;" />
  <path
    d="M0,0 L3,0 L3,74 L2,74 L2,75 L0,75 L0,76 L-1,76 L-1,77 L-2,77 L-2,78 L-3,78 L-3,77 L-4,77 L-4,79 L-6,79 L-6,81 L-7,81 L-7,80 L-8,80 L-8,81 L-9,81 L-9,82 L-10,82 L-10,83 L-11,83 L-11,84 L-12,84 L-12,83 L-13,83 L-13,85 L-14,85 L-14,86 L-17,86 L-17,88 L-19,88 L-19,89 L-21,89 L-21,91 L-23,91 L-23,92 L-25,92 L-25,94 L-28,94 L-28,95 L-29,95 L-29,97 L-32,97 L-32,98 L-34,98 L-34,100 L-37,100 L-37,101 L-38,101 L-38,103 L-41,103 L-41,104 L-43,104 L-43,106 L-45,106 L-45,107 L-47,107 L-47,109 L-49,109 L-49,110 L-51,110 L-51,111 L-52,111 L-52,112 L-53,112 L-53,113 L-56,113 L-56,114 L-57,114 L-57,116 L-60,116 L-60,117 L-62,117 L-62,119 L-65,119 L-65,120 L-66,120 L-66,122 L-69,122 L-69,123 L-70,123 L-70,124 L-71,124 L-71,125 L-73,125 L-73,126 L-75,126 L-75,128 L-77,128 L-77,129 L-79,129 L-79,131 L-81,131 L-81,132 L-84,132 L-84,134 L-85,134 L-85,135 L-88,135 L-88,137 L-90,137 L-90,138 L-93,138 L-93,139 L-94,139 L-94,141 L-97,141 L-97,142 L-98,142 L-98,143 L-99,143 L-99,144 L-101,144 L-101,145 L-103,145 L-103,147 L-105,147 L-105,148 L-107,148 L-107,150 L-109,150 L-109,151 L-112,151 L-112,153 L-114,153 L-114,154 L-116,154 L-116,156 L-118,156 L-118,157 L-121,157 L-121,159 L-122,159 L-122,160 L-125,160 L-125,162 L-127,162 L-127,163 L-129,163 L-129,165 L-131,165 L-131,166 L-133,166 L-133,168 L-136,168 L-136,169 L-137,169 L-137,171 L-140,171 L-140,172 L-142,172 L-142,174 L-144,174 L-144,175 L-146,175 L-146,177 L-149,177 L-149,178 L-150,178 L-150,179 L-151,179 L-151,180 L-153,180 L-153,181 L-155,181 L-155,182 L-156,182 L-156,183 L-157,183 L-157,184 L-159,184 L-159,185 L-161,185 L-161,187 L-164,187 L-164,188 L-165,188 L-165,190 L-168,190 L-168,191 L-170,191 L-170,193 L-173,193 L-173,194 L-174,194 L-174,196 L-177,196 L-177,197 L-178,197 L-178,199 L-181,199 L-181,200 L-183,200 L-183,202 L-185,202 L-185,203 L-187,203 L-187,205 L-189,205 L-189,206 L-192,206 L-192,208 L-193,208 L-193,209 L-196,209 L-196,210 L-197,210 L-197,211 L-198,211 L-198,212 L-201,212 L-201,213 L-202,213 L-202,215 L-205,215 L-205,216 L-206,216 L-206,218 L-209,218 L-209,219 L-211,219 L-211,221 L-213,221 L-213,222 L-215,222 L-215,224 L-217,224 L-217,225 L-220,225 L-220,227 L-221,227 L-221,228 L-224,228 L-224,230 L-226,230 L-226,231 L-229,231 L-229,233 L-230,233 L-230,234 L-233,234 L-233,236 L-235,236 L-235,237 L-237,237 L-237,239 L-238,239 L-238,238 L-239,238 L-239,240 L-241,240 L-241,242 L-243,242 L-243,243 L-245,243 L-245,244 L-246,244 L-246,245 L-247,245 L-247,244 L-248,244 L-248,246 L-250,246 L-250,248 L-251,248 L-251,247 L-252,247 L-252,249 L-254,249 L-254,250 L-257,250 L-257,252 L-258,252 L-258,253 L-261,253 L-261,255 L-263,255 L-263,256 L-265,256 L-265,258 L-267,258 L-267,259 L-269,259 L-269,261 L-272,261 L-272,262 L-273,262 L-273,264 L-276,264 L-276,265 L-277,265 L-277,266 L-278,266 L-278,267 L-280,267 L-280,268 L-282,268 L-282,270 L-285,270 L-285,271 L-286,271 L-286,273 L-289,273 L-289,274 L-291,274 L-291,276 L-293,276 L-293,277 L-295,277 L-295,278 L-296,278 L-296,279 L-297,279 L-297,280 L-300,280 L-300,281 L-301,281 L-301,283 L-304,283 L-304,284 L-305,284 L-305,285 L-306,285 L-306,286 L-309,286 L-309,287 L-310,287 L-310,289 L-313,289 L-313,290 L-314,290 L-314,292 L-317,292 L-317,293 L-319,293 L-319,295 L-322,295 L-322,296 L-323,296 L-323,298 L-325,298 L-325,299 L-328,299 L-328,301 L-329,301 L-329,302 L-332,302 L-332,304 L-334,304 L-334,305 L-337,305 L-337,306 L-338,306 L-338,308 L-341,308 L-341,309 L-342,309 L-342,311 L-345,311 L-345,312 L-347,312 L-347,314 L-349,314 L-349,315 L-351,315 L-351,317 L-353,317 L-353,318 L-356,318 L-356,320 L-357,320 L-357,321 L-360,321 L-360,323 L-362,323 L-362,324 L-365,324 L-365,326 L-366,326 L-366,327 L-369,327 L-369,329 L-371,329 L-371,330 L-373,330 L-373,332 L-375,332 L-375,333 L-377,333 L-377,335 L-379,335 L-379,336 L-381,336 L-381,338 L-384,338 L-384,339 L-385,339 L-385,340 L-386,340 L-386,341 L-388,341 L-388,342 L-390,342 L-390,344 L-393,344 L-393,345 L-394,345 L-394,346 L-395,346 L-395,347 L-396,347 L-396,346 L-397,346 L-397,348 L-399,348 L-399,349 L-400,349 L-400,350 L-401,350 L-401,351 L-403,351 L-403,352 L-405,352 L-405,354 L-408,354 L-408,355 L-409,355 L-409,357 L-412,357 L-412,358 L-413,358 L-413,360 L-416,360 L-416,361 L-418,361 L-418,363 L-421,363 L-421,364 L-422,364 L-422,366 L-425,366 L-425,367 L-427,367 L-427,369 L-429,369 L-429,370 L-431,370 L-431,372 L-433,372 L-433,373 L-436,373 L-436,375 L-437,375 L-437,376 L-440,376 L-440,377 L-441,377 L-441,378 L-442,378 L-442,379 L-445,379 L-445,380 L-446,380 L-446,382 L-449,382 L-449,383 L-450,383 L-450,385 L-453,385 L-453,386 L-455,386 L-455,388 L-457,388 L-457,389 L-459,389 L-459,391 L-461,391 L-461,392 L-464,392 L-464,394 L-465,394 L-465,395 L-468,395 L-468,397 L-470,397 L-470,398 L-473,398 L-473,400 L-474,400 L-474,401 L-477,401 L-477,403 L-478,403 L-478,404 L-481,404 L-481,409 L-482,409 L-482,411 L-484,411 L-484,412 L-487,412 L-487,413 L-489,413 L-489,412 L-490,412 L-490,416 L-491,416 L-491,417 L-493,417 L-493,418 L-496,418 L-496,419 L-497,419 L-497,420 L-498,420 L-498,421 L-500,421 L-500,422 L-501,422 L-501,423 L-503,423 L-503,424 L-506,424 L-506,426 L-508,426 L-508,427 L-510,427 L-510,428 L-513,428 L-513,430 L-515,430 L-515,431 L-516,431 L-516,432 L-517,432 L-517,433 L-520,433 L-520,434 L-521,434 L-521,435 L-522,435 L-522,436 L-524,436 L-524,437 L-528,437 L-528,439 L-529,439 L-529,440 L-532,440 L-532,442 L-534,442 L-534,443 L-537,443 L-537,445 L-539,445 L-539,446 L-542,446 L-542,448 L-544,448 L-544,449 L-545,449 L-545,450 L-546,450 L-546,451 L-548,451 L-548,452 L-549,452 L-549,453 L-551,453 L-551,454 L-553,454 L-553,455 L-554,455 L-554,456 L-556,456 L-556,457 L-559,457 L-559,458 L-561,458 L-561,459 L-563,459 L-563,460 L-564,460 L-564,461 L-566,461 L-566,462 L-570,462 L-570,463 L-572,463 L-572,464 L-573,464 L-573,465 L-574,465 L-574,466 L-575,466 L-575,467 L-577,467 L-577,468 L-579,468 L-579,471 L-581,471 L-581,469 L-582,469 L-582,467 L-581,467 L-581,466 L-579,466 L-579,464 L-578,464 L-578,463 L-576,463 L-576,461 L-573,461 L-573,460 L-572,460 L-572,458 L-570,458 L-570,457 L-568,457 L-568,455 L-566,455 L-566,454 L-565,454 L-565,452 L-563,452 L-563,451 L-560,451 L-560,449 L-559,449 L-559,448 L-557,448 L-557,446 L-555,446 L-555,445 L-553,445 L-553,443 L-551,443 L-551,442 L-550,442 L-550,441 L-549,441 L-549,440 L-548,440 L-548,439 L-545,439 L-545,438 L-544,438 L-544,436 L-542,436 L-542,435 L-541,435 L-541,433 L-538,433 L-538,432 L-537,432 L-537,431 L-536,431 L-536,430 L-535,430 L-535,429 L-533,429 L-533,427 L-530,427 L-530,426 L-529,426 L-529,424 L-528,424 L-528,423 L-526,423 L-526,421 L-523,421 L-523,420 L-522,420 L-522,418 L-520,418 L-520,417 L-519,417 L-519,416 L-518,416 L-518,415 L-516,415 L-516,414 L-514,414 L-514,413 L-513,413 L-513,411 L-511,411 L-511,409 L-508,409 L-508,408 L-507,408 L-507,407 L-506,407 L-506,406 L-505,406 L-505,405 L-504,405 L-504,404 L-503,404 L-503,403 L-502,403 L-502,404 L-501,404 L-501,402 L-499,402 L-499,401 L-498,401 L-498,399 L-496,399 L-496,398 L-494,398 L-494,396 L-492,396 L-492,395 L-491,395 L-491,393 L-489,393 L-489,392 L-486,392 L-486,390 L-485,390 L-485,389 L-483,389 L-483,387 L-482,387 L-482,386 L-479,386 L-479,384 L-477,384 L-477,383 L-476,383 L-476,381 L-474,381 L-474,380 L-471,380 L-471,379 L-470,379 L-470,377 L-468,377 L-468,376 L-467,376 L-467,374 L-464,374 L-464,373 L-463,373 L-463,371 L-461,371 L-461,370 L-460,370 L-460,368 L-457,368 L-457,367 L-455,367 L-455,365 L-454,365 L-454,364 L-452,364 L-452,362 L-449,362 L-449,361 L-448,361 L-448,359 L-446,359 L-446,358 L-445,358 L-445,356 L-442,356 L-442,355 L-440,355 L-440,353 L-439,353 L-439,352 L-437,352 L-437,350 L-434,350 L-434,349 L-433,349 L-433,348 L-432,348 L-432,346 L-430,346 L-430,344 L-427,344 L-427,343 L-426,343 L-426,342 L-424,342 L-424,340 L-423,340 L-423,339 L-422,339 L-422,338 L-421,338 L-421,339 L-420,339 L-420,337 L-418,337 L-418,336 L-417,336 L-417,334 L-415,334 L-415,333 L-413,333 L-413,332 L-412,332 L-412,331 L-411,331 L-411,330 L-409,330 L-409,328 L-408,328 L-408,327 L-405,327 L-405,325 L-403,325 L-403,324 L-402,324 L-402,322 L-400,322 L-400,321 L-398,321 L-398,319 L-396,319 L-396,318 L-395,318 L-395,316 L-393,316 L-393,315 L-390,315 L-390,314 L-389,314 L-389,312 L-387,312 L-387,311 L-386,311 L-386,309 L-383,309 L-383,308 L-382,308 L-382,307 L-381,307 L-381,306 L-380,306 L-380,305 L-379,305 L-379,304 L-378,304 L-378,303 L-375,303 L-375,302 L-374,302 L-374,300 L-372,300 L-372,299 L-371,299 L-371,297 L-368,297 L-368,296 L-367,296 L-367,294 L-365,294 L-365,293 L-364,293 L-364,291 L-361,291 L-361,290 L-359,290 L-359,288 L-358,288 L-358,287 L-356,287 L-356,285 L-353,285 L-353,284 L-352,284 L-352,282 L-350,282 L-350,281 L-349,281 L-349,279 L-346,279 L-346,278 L-344,278 L-344,277 L-343,277 L-343,275 L-341,275 L-341,273 L-339,273 L-339,272 L-337,272 L-337,271 L-336,271 L-336,270 L-335,270 L-335,269 L-334,269 L-334,268 L-332,268 L-332,267 L-331,267 L-331,266 L-330,266 L-330,265 L-328,265 L-328,263 L-327,263 L-327,262 L-324,262 L-324,260 L-322,260 L-322,259 L-321,259 L-321,257 L-319,257 L-319,256 L-316,256 L-316,255 L-317,255 L-317,254 L-315,254 L-315,253 L-313,253 L-313,251 L-312,251 L-312,250 L-309,250 L-309,248 L-307,248 L-307,247 L-306,247 L-306,246 L-305,246 L-305,245 L-304,245 L-304,244 L-302,244 L-302,243 L-300,243 L-300,241 L-298,241 L-298,240 L-297,240 L-297,238 L-294,238 L-294,237 L-293,237 L-293,235 L-291,235 L-291,234 L-290,234 L-290,232 L-287,232 L-287,231 L-285,231 L-285,229 L-284,229 L-284,228 L-282,228 L-282,226 L-280,226 L-280,225 L-278,225 L-278,223 L-276,223 L-276,222 L-275,222 L-275,220 L-272,220 L-272,219 L-270,219 L-270,217 L-269,217 L-269,216 L-267,216 L-267,214 L-265,214 L-265,213 L-263,213 L-263,212 L-262,212 L-262,210 L-260,210 L-260,208 L-258,208 L-258,207 L-256,207 L-256,206 L-254,206 L-254,204 L-253,204 L-253,203 L-251,203 L-251,201 L-248,201 L-248,200 L-247,200 L-247,198 L-245,198 L-245,197 L-244,197 L-244,196 L-243,196 L-243,195 L-241,195 L-241,194 L-239,194 L-239,192 L-238,192 L-238,191 L-236,191 L-236,189 L-233,189 L-233,188 L-232,188 L-232,186 L-231,186 L-231,185 L-228,185 L-228,183 L-226,183 L-226,182 L-225,182 L-225,180 L-223,180 L-223,179 L-221,179 L-221,177 L-220,177 L-220,178 L-219,178 L-219,176 L-217,176 L-217,175 L-216,175 L-216,173 L-213,173 L-213,172 L-212,172 L-212,171 L-211,171 L-211,170 L-210,170 L-210,169 L-209,169 L-209,168 L-208,168 L-208,167 L-206,167 L-206,166 L-204,166 L-204,164 L-202,164 L-202,163 L-201,163 L-201,161 L-199,161 L-199,160 L-197,160 L-197,158 L-195,158 L-195,157 L-194,157 L-194,155 L-192,155 L-192,154 L-189,154 L-189,152 L-188,152 L-188,151 L-186,151 L-186,149 L-184,149 L-184,148 L-182,148 L-182,146 L-180,146 L-180,145 L-179,145 L-179,143 L-177,143 L-177,142 L-174,142 L-174,141 L-173,141 L-173,139 L-171,139 L-171,138 L-170,138 L-170,136 L-167,136 L-167,135 L-166,135 L-166,133 L-164,133 L-164,132 L-163,132 L-163,131 L-162,131 L-162,130 L-160,130 L-160,129 L-158,129 L-158,127 L-157,127 L-157,126 L-155,126 L-155,124 L-152,124 L-152,123 L-151,123 L-151,121 L-149,121 L-149,120 L-147,120 L-147,118 L-145,118 L-145,117 L-143,117 L-143,116 L-142,116 L-142,114 L-140,114 L-140,112 L-137,112 L-137,111 L-136,111 L-136,110 L-135,110 L-135,109 L-134,109 L-134,108 L-132,108 L-132,106 L-131,106 L-131,107 L-130,107 L-130,105 L-129,105 L-129,104 L-127,104 L-127,102 L-125,102 L-125,101 L-123,101 L-123,99 L-121,99 L-121,98 L-120,98 L-120,96 L-118,96 L-118,95 L-115,95 L-115,93 L-114,93 L-114,92 L-112,92 L-112,90 L-110,90 L-110,89 L-108,89 L-108,87 L-106,87 L-106,86 L-105,86 L-105,84 L-103,84 L-103,83 L-100,83 L-100,81 L-99,81 L-99,80 L-98,80 L-98,79 L-97,79 L-97,78 L-96,78 L-96,77 L-93,77 L-93,76 L-92,76 L-92,74 L-90,74 L-90,73 L-89,73 L-89,72 L-88,72 L-88,71 L-86,71 L-86,70 L-84,70 L-84,68 L-83,68 L-83,67 L-81,67 L-81,65 L-78,65 L-78,64 L-77,64 L-77,62 L-75,62 L-75,61 L-74,61 L-74,59 L-71,59 L-71,58 L-70,58 L-70,57 L-69,57 L-69,56 L-68,56 L-68,55 L-66,55 L-66,53 L-64,53 L-64,52 L-62,52 L-62,50 L-61,50 L-61,49 L-59,49 L-59,47 L-56,47 L-56,46 L-55,46 L-55,45 L-54,45 L-54,44 L-53,44 L-53,43 L-51,43 L-51,41 L-50,41 L-50,42 L-49,42 L-49,40 L-47,40 L-47,39 L-46,39 L-46,37 L-44,37 L-44,36 L-42,36 L-42,35 L-41,35 L-41,34 L-40,34 L-40,33 L-39,33 L-39,32 L-38,32 L-38,31 L-37,31 L-37,30 L-34,30 L-34,28 L-32,28 L-32,27 L-31,27 L-31,25 L-29,25 L-29,24 L-27,24 L-27,22 L-25,22 L-25,21 L-24,21 L-24,19 L-22,19 L-22,18 L-19,18 L-19,17 L-18,17 L-18,15 L-16,15 L-16,13 L-15,13 L-15,12 L-12,12 L-12,11 L-11,11 L-11,10 L-10,10 L-10,9 L-9,9 L-9,8 L-8,8 L-8,7 L-7,7 L-7,6 L-4,6 L-4,5 L-3,5 L-3,3 L-1,3 L-1,2 L0,2 Z "
    transform="translate(1077,131)" style="fill: #C0FB73;" />
  <path
    d="M0,0 L2,0 L2,65 L-1,65 L-1,66 L-5,66 L-5,68 L-8,68 L-8,69 L-13,69 L-13,71 L-17,71 L-17,72 L-21,72 L-21,73 L-22,73 L-22,74 L-26,74 L-26,75 L-29,75 L-29,76 L-31,76 L-31,77 L-32,77 L-32,76 L-33,76 L-33,78 L-38,78 L-38,79 L-42,79 L-42,81 L-46,81 L-46,82 L-50,82 L-50,84 L-54,84 L-54,85 L-58,85 L-58,87 L-63,87 L-63,88 L-67,88 L-67,90 L-71,90 L-71,91 L-75,91 L-75,93 L-79,93 L-79,94 L-83,94 L-83,96 L-88,96 L-88,97 L-92,97 L-92,99 L-96,99 L-96,100 L-100,100 L-100,102 L-104,102 L-104,103 L-109,103 L-109,105 L-113,105 L-113,106 L-117,106 L-117,108 L-120,108 L-120,109 L-125,109 L-125,110 L-126,110 L-126,111 L-128,111 L-128,110 L-129,110 L-129,112 L-134,112 L-134,113 L-137,113 L-137,115 L-141,115 L-141,116 L-145,116 L-145,118 L-150,118 L-150,119 L-154,119 L-154,121 L-158,121 L-158,122 L-162,122 L-162,124 L-166,124 L-166,125 L-171,125 L-171,127 L-175,127 L-175,128 L-179,128 L-179,130 L-183,130 L-183,131 L-187,131 L-187,133 L-191,133 L-191,134 L-196,134 L-196,136 L-200,136 L-200,137 L-204,137 L-204,139 L-208,139 L-208,140 L-212,140 L-212,142 L-215,142 L-215,141 L-216,141 L-216,143 L-221,143 L-221,144 L-222,144 L-222,145 L-223,145 L-223,144 L-224,144 L-224,146 L-228,146 L-228,147 L-233,147 L-233,149 L-237,149 L-237,150 L-241,150 L-241,152 L-245,152 L-245,153 L-249,153 L-249,155 L-253,155 L-253,156 L-258,156 L-258,158 L-262,158 L-262,159 L-266,159 L-266,161 L-270,161 L-270,162 L-274,162 L-274,164 L-279,164 L-279,165 L-283,165 L-283,167 L-287,167 L-287,168 L-291,168 L-291,170 L-295,170 L-295,171 L-299,171 L-299,173 L-304,173 L-304,174 L-308,174 L-308,175 L-309,175 L-309,176 L-311,176 L-311,177 L-316,177 L-316,178 L-320,178 L-320,180 L-324,180 L-324,181 L-328,181 L-328,182 L-329,182 L-329,183 L-332,183 L-332,184 L-336,184 L-336,186 L-341,186 L-341,187 L-345,187 L-345,189 L-349,189 L-349,190 L-353,190 L-353,192 L-357,192 L-357,193 L-361,193 L-361,195 L-366,195 L-366,196 L-370,196 L-370,198 L-374,198 L-374,199 L-378,199 L-378,201 L-382,201 L-382,202 L-386,202 L-386,203 L-387,203 L-387,204 L-391,204 L-391,205 L-395,205 L-395,207 L-398,207 L-398,208 L-403,208 L-403,209 L-404,209 L-404,210 L-406,210 L-406,209 L-407,209 L-407,211 L-412,211 L-412,212 L-415,212 L-415,213 L-416,213 L-416,214 L-419,214 L-419,215 L-423,215 L-423,217 L-428,217 L-428,218 L-432,218 L-432,220 L-437,220 L-437,221 L-440,221 L-440,223 L-444,223 L-444,224 L-448,224 L-448,226 L-453,226 L-453,227 L-457,227 L-457,229 L-461,229 L-461,230 L-465,230 L-465,232 L-469,232 L-469,233 L-474,233 L-474,235 L-478,235 L-478,236 L-482,236 L-482,237 L-483,237 L-483,238 L-486,238 L-486,239 L-490,239 L-490,240 L-494,240 L-494,241 L-495,241 L-495,242 L-499,242 L-499,243 L-503,243 L-503,244 L-504,244 L-504,245 L-508,245 L-508,246 L-513,246 L-513,247 L-514,247 L-514,248 L-519,248 L-519,249 L-521,249 L-521,250 L-522,250 L-522,251 L-529,251 L-529,252 L-530,252 L-530,253 L-532,253 L-532,254 L-538,254 L-538,255 L-544,255 L-544,256 L-546,256 L-546,257 L-550,257 L-550,258 L-554,258 L-554,259 L-557,259 L-557,260 L-559,260 L-559,261 L-565,261 L-565,260 L-562,260 L-562,258 L-559,258 L-559,257 L-557,257 L-557,256 L-556,256 L-556,255 L-553,255 L-553,253 L-550,253 L-550,252 L-546,252 L-546,251 L-543,251 L-543,250 L-542,250 L-542,249 L-540,249 L-540,248 L-537,248 L-537,247 L-536,247 L-536,246 L-534,246 L-534,245 L-531,245 L-531,244 L-530,244 L-530,243 L-527,243 L-527,242 L-524,242 L-524,240 L-521,240 L-521,239 L-519,239 L-519,238 L-518,238 L-518,237 L-515,237 L-515,236 L-513,236 L-513,235 L-512,235 L-512,234 L-508,234 L-508,233 L-505,233 L-505,231 L-502,231 L-502,230 L-499,230 L-499,228 L-496,228 L-496,227 L-493,227 L-493,225 L-489,225 L-489,224 L-486,224 L-486,222 L-483,222 L-483,221 L-480,221 L-480,219 L-477,219 L-477,218 L-474,218 L-474,216 L-470,216 L-470,215 L-467,215 L-467,213 L-463,213 L-463,212 L-461,212 L-461,210 L-458,210 L-458,209 L-454,209 L-454,207 L-451,207 L-451,206 L-447,206 L-447,204 L-444,204 L-444,203 L-441,203 L-441,201 L-438,201 L-438,200 L-435,200 L-435,199 L-434,199 L-434,198 L-432,198 L-432,197 L-428,197 L-428,196 L-425,196 L-425,194 L-422,194 L-422,193 L-419,193 L-419,191 L-416,191 L-416,190 L-413,190 L-413,188 L-409,188 L-409,187 L-406,187 L-406,185 L-403,185 L-403,184 L-400,184 L-400,182 L-397,182 L-397,181 L-394,181 L-394,179 L-390,179 L-390,178 L-387,178 L-387,176 L-384,176 L-384,175 L-381,175 L-381,173 L-378,173 L-378,172 L-375,172 L-375,171 L-374,171 L-374,170 L-372,170 L-372,169 L-368,169 L-368,168 L-367,168 L-367,167 L-365,167 L-365,166 L-362,166 L-362,165 L-361,165 L-361,164 L-360,164 L-360,165 L-359,165 L-359,163 L-356,163 L-356,162 L-353,162 L-353,160 L-349,160 L-349,159 L-346,159 L-346,157 L-342,157 L-342,156 L-339,156 L-339,154 L-336,154 L-336,153 L-334,153 L-334,151 L-330,151 L-330,150 L-327,150 L-327,148 L-323,148 L-323,147 L-320,147 L-320,145 L-317,145 L-317,144 L-314,144 L-314,142 L-311,142 L-311,141 L-308,141 L-308,139 L-305,139 L-305,138 L-301,138 L-301,136 L-299,136 L-299,137 L-298,137 L-298,135 L-295,135 L-295,133 L-293,133 L-293,134 L-292,134 L-292,132 L-289,132 L-289,131 L-288,131 L-288,130 L-287,130 L-287,131 L-286,131 L-286,129 L-282,129 L-282,128 L-279,128 L-279,126 L-276,126 L-276,125 L-273,125 L-273,123 L-270,123 L-270,122 L-267,122 L-267,120 L-264,120 L-264,119 L-260,119 L-260,117 L-257,117 L-257,116 L-254,116 L-254,114 L-251,114 L-251,113 L-248,113 L-248,111 L-245,111 L-245,110 L-241,110 L-241,108 L-237,108 L-237,107 L-234,107 L-234,105 L-232,105 L-232,104 L-229,104 L-229,103 L-228,103 L-228,102 L-226,102 L-226,101 L-222,101 L-222,100 L-221,100 L-221,99 L-218,99 L-218,98 L-215,98 L-215,97 L-213,97 L-213,96 L-212,96 L-212,95 L-209,95 L-209,94 L-206,94 L-206,92 L-202,92 L-202,91 L-199,91 L-199,89 L-196,89 L-196,88 L-193,88 L-193,86 L-190,86 L-190,85 L-186,85 L-186,83 L-183,83 L-183,82 L-180,82 L-180,80 L-177,80 L-177,79 L-174,79 L-174,77 L-170,77 L-170,76 L-166,76 L-166,74 L-164,74 L-164,73 L-161,73 L-161,72 L-160,72 L-160,71 L-157,71 L-157,70 L-153,70 L-153,68 L-150,68 L-150,67 L-147,67 L-147,65 L-144,65 L-144,64 L-141,64 L-141,63 L-137,63 L-137,61 L-134,61 L-134,60 L-131,60 L-131,58 L-128,58 L-128,57 L-124,57 L-124,55 L-121,55 L-121,54 L-118,54 L-118,52 L-115,52 L-115,51 L-111,51 L-111,49 L-107,49 L-107,48 L-104,48 L-104,46 L-101,46 L-101,45 L-98,45 L-98,44 L-97,44 L-97,43 L-94,43 L-94,42 L-91,42 L-91,40 L-88,40 L-88,39 L-84,39 L-84,37 L-81,37 L-81,36 L-78,36 L-78,35 L-77,35 L-77,34 L-76,34 L-76,35 L-75,35 L-75,33 L-71,33 L-71,32 L-70,32 L-70,31 L-69,31 L-69,32 L-68,32 L-68,30 L-64,30 L-64,29 L-62,29 L-62,27 L-57,27 L-57,26 L-54,26 L-54,24 L-51,24 L-51,23 L-48,23 L-48,21 L-44,21 L-44,20 L-41,20 L-41,18 L-38,18 L-38,17 L-35,17 L-35,15 L-31,15 L-31,14 L-28,14 L-28,12 L-24,12 L-24,11 L-20,11 L-20,9 L-17,9 L-17,8 L-14,8 L-14,6 L-11,6 L-11,5 L-7,5 L-7,3 L-5,3 L-5,4 L-4,4 L-4,2 L-1,2 L-1,1 L0,1 Z "
    transform="translate(1078,336)" style="fill: #51B1FC;" />
  <path
    d="M0,0 L10,0 L10,58 L-42,58 L-42,60 L-107,60 L-107,61 L-170,61 L-170,63 L-235,63 L-235,64 L-299,64 L-299,66 L-363,66 L-363,67 L-427,67 L-427,69 L-491,69 L-491,70 L-546,70 L-546,71 L-551,71 L-551,72 L-552,72 L-552,73 L-549,73 L-549,74 L-555,74 L-555,73 L-558,73 L-558,72 L-560,72 L-560,71 L-569,71 L-569,70 L-567,70 L-567,69 L-566,69 L-566,68 L-565,68 L-565,67 L-550,67 L-550,66 L-541,66 L-541,65 L-534,65 L-534,64 L-524,64 L-524,63 L-523,63 L-523,62 L-512,62 L-512,61 L-500,61 L-500,59 L-487,59 L-487,58 L-475,58 L-475,56 L-462,56 L-462,55 L-450,55 L-450,53 L-437,53 L-437,52 L-425,52 L-425,50 L-412,50 L-412,49 L-400,49 L-400,47 L-387,47 L-387,46 L-375,46 L-375,45 L-374,45 L-374,44 L-362,44 L-362,43 L-350,43 L-350,42 L-349,42 L-349,41 L-337,41 L-337,40 L-325,40 L-325,39 L-324,39 L-324,38 L-312,38 L-312,37 L-300,37 L-300,36 L-299,36 L-299,35 L-287,35 L-287,34 L-275,34 L-275,33 L-264,33 L-264,32 L-263,32 L-263,31 L-250,31 L-250,30 L-238,30 L-238,28 L-225,28 L-225,27 L-213,27 L-213,25 L-200,25 L-200,24 L-188,24 L-188,22 L-175,22 L-175,21 L-163,21 L-163,19 L-150,19 L-150,18 L-138,18 L-138,16 L-125,16 L-125,15 L-112,15 L-112,13 L-100,13 L-100,12 L-87,12 L-87,10 L-75,10 L-75,9 L-63,9 L-63,8 L-62,8 L-62,7 L-50,7 L-50,6 L-38,6 L-38,5 L-37,5 L-37,4 L-25,4 L-25,3 L-12,3 L-12,2 L-11,2 L-11,1 L0,1 Z "
    transform="translate(1070,533)" style="fill: #D965F1;" />
  <path
    d="M0,0 L3,0 L3,2 L7,2 L7,3 L12,3 L12,5 L16,5 L16,6 L20,6 L20,7 L21,7 L21,8 L24,8 L24,9 L28,9 L28,11 L29,11 L29,10 L32,10 L32,12 L37,12 L37,13 L41,13 L41,15 L45,15 L45,16 L49,16 L49,18 L53,18 L53,19 L58,19 L58,21 L62,21 L62,22 L66,22 L66,24 L70,24 L70,25 L74,25 L74,27 L78,27 L78,28 L83,28 L83,30 L87,30 L87,31 L92,31 L92,33 L95,33 L95,34 L99,34 L99,36 L103,36 L103,37 L108,37 L108,39 L112,39 L112,40 L117,40 L117,42 L118,42 L118,41 L119,41 L119,42 L120,42 L120,43 L125,43 L125,44 L128,44 L128,45 L129,45 L129,46 L133,46 L133,48 L134,48 L134,47 L137,47 L137,49 L142,49 L142,50 L146,50 L146,52 L150,52 L150,53 L154,53 L154,55 L158,55 L158,56 L163,56 L163,58 L167,58 L167,59 L171,59 L171,61 L175,61 L175,62 L179,62 L179,64 L183,64 L183,65 L188,65 L188,67 L192,67 L192,68 L196,68 L196,69 L197,69 L197,70 L200,70 L200,71 L204,71 L204,73 L208,73 L208,74 L213,74 L213,76 L214,76 L214,75 L216,75 L216,76 L217,76 L217,77 L221,77 L221,78 L224,78 L224,79 L225,79 L225,80 L229,80 L229,81 L233,81 L233,83 L238,83 L238,84 L242,84 L242,86 L246,86 L246,87 L250,87 L250,89 L254,89 L254,90 L259,90 L259,92 L263,92 L263,93 L267,93 L267,95 L272,95 L272,96 L276,96 L276,97 L275,97 L275,98 L279,98 L279,99 L284,99 L284,101 L288,101 L288,102 L293,102 L293,104 L297,104 L297,105 L301,105 L301,106 L302,106 L302,107 L304,107 L304,108 L309,108 L309,110 L310,110 L310,109 L313,109 L313,111 L318,111 L318,112 L321,112 L321,113 L322,113 L322,114 L326,114 L326,115 L329,115 L329,116 L330,116 L330,117 L334,117 L334,118 L338,118 L338,120 L343,120 L343,121 L347,121 L347,123 L351,123 L351,124 L355,124 L355,126 L359,126 L359,127 L364,127 L364,129 L368,129 L368,130 L372,130 L372,132 L376,132 L376,133 L380,133 L380,135 L384,135 L384,136 L389,136 L389,138 L393,138 L393,139 L397,139 L397,140 L398,140 L398,141 L401,141 L401,142 L405,142 L405,143 L409,143 L409,145 L414,145 L414,147 L415,147 L415,146 L418,146 L418,148 L423,148 L423,149 L426,149 L426,151 L430,151 L430,152 L434,152 L434,154 L439,154 L439,155 L443,155 L443,157 L448,157 L448,158 L452,158 L452,160 L455,160 L455,161 L460,161 L460,163 L464,163 L464,164 L469,164 L469,166 L473,166 L473,167 L477,167 L477,169 L481,169 L481,170 L485,170 L485,172 L489,172 L489,173 L494,173 L494,175 L496,175 L496,179 L495,179 L495,180 L490,180 L490,178 L484,178 L484,177 L478,177 L478,175 L473,175 L473,174 L467,174 L467,172 L461,172 L461,171 L455,171 L455,169 L449,169 L449,168 L443,168 L443,166 L437,166 L437,165 L431,165 L431,163 L425,163 L425,162 L419,162 L419,160 L413,160 L413,159 L406,159 L406,157 L401,157 L401,156 L394,156 L394,154 L393,154 L393,155 L390,155 L390,154 L389,154 L389,153 L383,153 L383,152 L377,152 L377,150 L371,150 L371,149 L365,149 L365,147 L359,147 L359,146 L353,146 L353,144 L347,144 L347,143 L340,143 L340,141 L334,141 L334,140 L328,140 L328,138 L322,138 L322,137 L316,137 L316,135 L310,135 L310,134 L304,134 L304,132 L298,132 L298,131 L292,131 L292,129 L286,129 L286,128 L279,128 L279,126 L274,126 L274,125 L267,125 L267,123 L262,123 L262,122 L255,122 L255,120 L254,120 L254,121 L250,121 L250,119 L244,119 L244,118 L238,118 L238,116 L232,116 L232,115 L226,115 L226,113 L220,113 L220,112 L213,112 L213,110 L207,110 L207,109 L201,109 L201,107 L195,107 L195,106 L189,106 L189,104 L183,104 L183,103 L177,103 L177,101 L171,101 L171,100 L165,100 L165,98 L159,98 L159,97 L152,97 L152,95 L147,95 L147,94 L140,94 L140,92 L134,92 L134,91 L128,91 L128,89 L123,89 L123,88 L116,88 L116,86 L115,86 L115,87 L111,87 L111,85 L105,85 L105,84 L99,84 L99,82 L92,82 L92,81 L86,81 L86,79 L80,79 L80,78 L74,78 L74,76 L68,76 L68,75 L62,75 L62,73 L56,73 L56,72 L50,72 L50,70 L44,70 L44,69 L38,69 L38,67 L32,67 L32,66 L25,66 L25,64 L20,64 L20,63 L13,63 L13,61 L7,61 L7,60 L1,60 L1,58 L0,58 Z "
    transform="translate(0,425)" class="mudarCor" />
  <path
    d="M0,0 L52,0 L52,37 L22,37 L22,35 L-10,35 L-10,34 L-41,34 L-41,32 L-73,32 L-73,31 L-104,31 L-104,29 L-136,29 L-136,28 L-167,28 L-167,26 L-199,26 L-199,25 L-230,25 L-230,23 L-261,23 L-261,22 L-292,22 L-292,21 L-293,21 L-293,20 L-324,20 L-324,19 L-355,19 L-355,18 L-356,18 L-356,17 L-387,17 L-387,16 L-418,16 L-418,15 L-419,15 L-419,14 L-449,14 L-449,13 L-482,13 L-482,12 L-449,12 L-449,11 L-385,11 L-385,9 L-321,9 L-321,8 L-257,8 L-257,6 L-193,6 L-193,5 L-128,5 L-128,3 L-65,3 L-65,2 L0,2 Z "
    transform="translate(1028,591)" style="fill: transparent;" />
  <path
    d="M0,0 L7,0 L7,38 L-3,38 L-3,39 L-14,39 L-14,40 L-15,40 L-15,41 L-28,41 L-28,42 L-40,42 L-40,43 L-41,43 L-41,44 L-53,44 L-53,45 L-65,45 L-65,46 L-66,46 L-66,47 L-78,47 L-78,48 L-90,48 L-90,50 L-103,50 L-103,51 L-115,51 L-115,53 L-128,53 L-128,54 L-141,54 L-141,56 L-153,56 L-153,57 L-166,57 L-166,59 L-178,59 L-178,60 L-191,60 L-191,62 L-203,62 L-203,63 L-216,63 L-216,65 L-228,65 L-228,66 L-241,66 L-241,68 L-253,68 L-253,69 L-266,69 L-266,70 L-267,70 L-267,71 L-278,71 L-278,72 L-290,72 L-290,73 L-302,73 L-302,74 L-303,74 L-303,75 L-315,75 L-315,76 L-327,76 L-327,77 L-328,77 L-328,78 L-340,78 L-340,79 L-352,79 L-352,80 L-353,80 L-353,81 L-365,81 L-365,82 L-377,82 L-377,83 L-378,83 L-378,84 L-390,84 L-390,85 L-403,85 L-403,87 L-415,87 L-415,88 L-428,88 L-428,90 L-440,90 L-440,91 L-453,91 L-453,93 L-465,93 L-465,94 L-478,94 L-478,96 L-490,96 L-490,97 L-503,97 L-503,96 L-495,96 L-495,95 L-488,95 L-488,94 L-487,94 L-487,93 L-480,93 L-480,92 L-472,92 L-472,90 L-464,90 L-464,89 L-457,89 L-457,88 L-456,88 L-456,87 L-449,87 L-449,86 L-441,86 L-441,85 L-435,85 L-435,84 L-433,84 L-433,83 L-426,83 L-426,82 L-419,82 L-419,81 L-418,81 L-418,80 L-410,80 L-410,79 L-403,79 L-403,78 L-402,78 L-402,77 L-395,77 L-395,76 L-387,76 L-387,74 L-379,74 L-379,73 L-371,73 L-371,71 L-364,71 L-364,70 L-356,70 L-356,68 L-348,68 L-348,67 L-341,67 L-341,66 L-340,66 L-340,65 L-333,65 L-333,64 L-325,64 L-325,62 L-318,62 L-318,61 L-309,61 L-309,59 L-302,59 L-302,58 L-294,58 L-294,56 L-287,56 L-287,55 L-278,55 L-278,53 L-271,53 L-271,52 L-263,52 L-263,50 L-262,50 L-262,51 L-256,51 L-256,50 L-255,50 L-255,49 L-247,49 L-247,48 L-241,48 L-241,47 L-240,47 L-240,46 L-232,46 L-232,45 L-225,45 L-225,43 L-216,43 L-216,42 L-209,42 L-209,40 L-201,40 L-201,39 L-194,39 L-194,37 L-186,37 L-186,36 L-178,36 L-178,34 L-170,34 L-170,33 L-163,33 L-163,31 L-155,31 L-155,30 L-147,30 L-147,28 L-139,28 L-139,27 L-132,27 L-132,26 L-131,26 L-131,25 L-124,25 L-124,24 L-116,24 L-116,23 L-115,23 L-115,22 L-108,22 L-108,21 L-101,21 L-101,20 L-100,20 L-100,19 L-93,19 L-93,18 L-85,18 L-85,17 L-80,17 L-80,16 L-77,16 L-77,15 L-70,15 L-70,14 L-62,14 L-62,12 L-54,12 L-54,11 L-47,11 L-47,10 L-46,10 L-46,9 L-39,9 L-39,8 L-32,8 L-32,7 L-31,7 L-31,6 L-23,6 L-23,5 L-16,5 L-16,4 L-15,4 L-15,3 L-8,3 L-8,2 L0,2 Z "
    transform="translate(1073,495)" style="fill: transparent;" />
  <path
    d="M0,0 L11,0 L11,1 L21,1 L21,3 L32,3 L32,4 L43,4 L43,6 L54,6 L54,7 L65,7 L65,9 L76,9 L76,10 L87,10 L87,11 L88,11 L88,12 L98,12 L98,13 L110,13 L110,15 L120,15 L120,16 L132,16 L132,18 L142,18 L142,19 L154,19 L154,21 L164,21 L164,22 L175,22 L175,23 L176,23 L176,24 L187,24 L187,25 L197,25 L197,26 L198,26 L198,27 L209,27 L209,28 L219,28 L219,29 L229,29 L229,30 L231,30 L231,31 L242,31 L242,32 L252,32 L252,33 L253,33 L253,34 L264,34 L264,35 L274,35 L274,37 L286,37 L286,38 L296,38 L296,40 L308,40 L308,41 L318,41 L318,43 L330,43 L330,44 L340,44 L340,45 L341,45 L341,46 L352,46 L352,47 L363,47 L363,49 L374,49 L374,50 L385,50 L385,52 L396,52 L396,53 L407,53 L407,55 L418,55 L418,56 L429,56 L429,58 L440,58 L440,59 L451,59 L451,60 L452,60 L452,61 L462,61 L462,62 L473,62 L473,63 L483,63 L483,64 L484,64 L484,65 L494,65 L494,107 L490,107 L490,106 L484,106 L484,104 L478,104 L478,103 L472,103 L472,101 L465,101 L465,100 L459,100 L459,98 L453,98 L453,97 L447,97 L447,95 L440,95 L440,94 L434,94 L434,92 L428,92 L428,91 L421,91 L421,89 L415,89 L415,88 L408,88 L408,86 L403,86 L403,85 L396,85 L396,84 L395,84 L395,83 L389,83 L389,82 L383,82 L383,81 L378,81 L378,80 L377,80 L377,79 L370,79 L370,78 L364,78 L364,76 L357,76 L357,75 L351,75 L351,73 L345,73 L345,72 L338,72 L338,70 L331,70 L331,69 L325,69 L325,67 L318,67 L318,66 L312,66 L312,64 L305,64 L305,63 L299,63 L299,61 L292,61 L292,60 L285,60 L285,58 L279,58 L279,57 L272,57 L272,55 L265,55 L265,54 L258,54 L258,52 L252,52 L252,51 L245,51 L245,50 L244,50 L244,49 L240,49 L240,50 L239,50 L239,48 L231,48 L231,47 L225,47 L225,45 L218,45 L218,44 L211,44 L211,42 L204,42 L204,41 L197,41 L197,39 L190,39 L190,38 L184,38 L184,36 L176,36 L176,35 L169,35 L169,33 L162,33 L162,32 L155,32 L155,31 L156,31 L156,30 L148,30 L148,29 L141,29 L141,27 L134,27 L134,26 L127,26 L127,25 L126,25 L126,24 L120,24 L120,23 L112,23 L112,21 L105,21 L105,20 L98,20 L98,19 L97,19 L97,18 L91,18 L91,17 L83,17 L83,16 L82,16 L82,15 L77,15 L77,16 L76,16 L76,14 L68,14 L68,13 L61,13 L61,11 L54,11 L54,10 L46,10 L46,8 L39,8 L39,7 L31,7 L31,5 L23,5 L23,4 L16,4 L16,2 L8,2 L8,1 L0,1 Z "
    transform="translate(586,618)" style="fill: transparent;" />
  <path
    d="M0,0 L3,0 L3,36 L-3,36 L-3,37 L-7,37 L-7,39 L-13,39 L-13,40 L-17,40 L-17,41 L-18,41 L-18,42 L-23,42 L-23,43 L-28,43 L-28,45 L-34,45 L-34,46 L-38,46 L-38,48 L-44,48 L-44,49 L-49,49 L-49,51 L-55,51 L-55,52 L-60,52 L-60,54 L-65,54 L-65,55 L-70,55 L-70,57 L-75,57 L-75,58 L-81,58 L-81,60 L-86,60 L-86,61 L-91,61 L-91,62 L-92,62 L-92,63 L-96,63 L-96,64 L-102,64 L-102,66 L-103,66 L-103,65 L-105,65 L-105,66 L-106,66 L-106,67 L-112,67 L-112,68 L-116,68 L-116,69 L-117,69 L-117,70 L-122,70 L-122,71 L-127,71 L-127,73 L-133,73 L-133,74 L-137,74 L-137,76 L-143,76 L-143,77 L-148,77 L-148,79 L-154,79 L-154,80 L-158,80 L-158,81 L-159,81 L-159,82 L-164,82 L-164,83 L-169,83 L-169,85 L-174,85 L-174,86 L-179,86 L-179,87 L-180,87 L-180,88 L-185,88 L-185,89 L-190,89 L-190,91 L-195,91 L-195,92 L-201,92 L-201,94 L-205,94 L-205,95 L-211,95 L-211,97 L-216,97 L-216,98 L-222,98 L-222,100 L-223,100 L-223,99 L-225,99 L-225,100 L-226,100 L-226,101 L-232,101 L-232,103 L-233,103 L-233,102 L-236,102 L-236,103 L-237,103 L-237,104 L-242,104 L-242,105 L-246,105 L-246,106 L-247,106 L-247,107 L-253,107 L-253,108 L-258,108 L-258,110 L-263,110 L-263,111 L-268,111 L-268,112 L-269,112 L-269,113 L-273,113 L-273,114 L-278,114 L-278,115 L-279,115 L-279,116 L-284,116 L-284,117 L-289,117 L-289,119 L-294,119 L-294,120 L-300,120 L-300,122 L-304,122 L-304,123 L-310,123 L-310,125 L-315,125 L-315,126 L-320,126 L-320,127 L-321,127 L-321,128 L-325,128 L-325,129 L-331,129 L-331,131 L-336,131 L-336,132 L-341,132 L-341,133 L-345,133 L-345,134 L-347,134 L-347,135 L-352,135 L-352,137 L-353,137 L-353,136 L-356,136 L-356,137 L-357,137 L-357,138 L-362,138 L-362,139 L-366,139 L-366,140 L-368,140 L-368,141 L-372,141 L-372,142 L-378,142 L-378,144 L-383,144 L-383,145 L-388,145 L-388,147 L-393,147 L-393,148 L-399,148 L-399,150 L-403,150 L-403,151 L-409,151 L-409,153 L-414,153 L-414,154 L-420,154 L-420,156 L-424,156 L-424,157 L-430,157 L-430,159 L-435,159 L-435,160 L-440,160 L-440,161 L-441,161 L-441,162 L-446,162 L-446,163 L-451,163 L-451,165 L-456,165 L-456,166 L-461,166 L-461,168 L-462,168 L-462,167 L-464,167 L-464,165 L-460,165 L-460,164 L-456,164 L-456,162 L-452,162 L-452,161 L-447,161 L-447,159 L-443,159 L-443,158 L-439,158 L-439,156 L-436,156 L-436,155 L-431,155 L-431,153 L-427,153 L-427,152 L-422,152 L-422,150 L-418,150 L-418,149 L-415,149 L-415,148 L-414,148 L-414,147 L-411,147 L-411,146 L-406,146 L-406,144 L-405,144 L-405,145 L-403,145 L-403,144 L-402,144 L-402,143 L-397,143 L-397,142 L-394,142 L-394,140 L-390,140 L-390,139 L-386,139 L-386,138 L-385,138 L-385,137 L-381,137 L-381,136 L-377,136 L-377,134 L-373,134 L-373,133 L-369,133 L-369,131 L-365,131 L-365,130 L-360,130 L-360,128 L-356,128 L-356,127 L-352,127 L-352,125 L-348,125 L-348,124 L-344,124 L-344,122 L-340,122 L-340,121 L-335,121 L-335,119 L-331,119 L-331,118 L-328,118 L-328,117 L-327,117 L-327,116 L-323,116 L-323,115 L-319,115 L-319,113 L-315,113 L-315,112 L-310,112 L-310,111 L-308,111 L-308,110 L-307,110 L-307,109 L-303,109 L-303,108 L-298,108 L-298,106 L-294,106 L-294,105 L-290,105 L-290,103 L-286,103 L-286,102 L-282,102 L-282,100 L-278,100 L-278,99 L-273,99 L-273,97 L-269,97 L-269,96 L-265,96 L-265,94 L-261,94 L-261,93 L-257,93 L-257,91 L-252,91 L-252,90 L-248,90 L-248,88 L-244,88 L-244,87 L-240,87 L-240,85 L-236,85 L-236,84 L-232,84 L-232,82 L-227,82 L-227,81 L-223,81 L-223,79 L-222,79 L-222,80 L-221,80 L-221,79 L-220,79 L-220,78 L-215,78 L-215,76 L-214,76 L-214,77 L-211,77 L-211,75 L-207,75 L-207,74 L-203,74 L-203,72 L-199,72 L-199,71 L-195,71 L-195,69 L-190,69 L-190,68 L-186,68 L-186,66 L-182,66 L-182,65 L-178,65 L-178,63 L-174,63 L-174,62 L-170,62 L-170,60 L-165,60 L-165,59 L-161,59 L-161,57 L-157,57 L-157,56 L-153,56 L-153,54 L-149,54 L-149,53 L-144,53 L-144,51 L-140,51 L-140,50 L-136,50 L-136,48 L-133,48 L-133,47 L-128,47 L-128,45 L-127,45 L-127,46 L-125,46 L-125,45 L-124,45 L-124,44 L-119,44 L-119,43 L-116,43 L-116,41 L-112,41 L-112,40 L-108,40 L-108,38 L-103,38 L-103,37 L-99,37 L-99,35 L-95,35 L-95,34 L-91,34 L-91,32 L-87,32 L-87,31 L-82,31 L-82,29 L-78,29 L-78,28 L-74,28 L-74,26 L-70,26 L-70,25 L-66,25 L-66,23 L-62,23 L-62,22 L-57,22 L-57,20 L-53,20 L-53,19 L-49,19 L-49,17 L-45,17 L-45,16 L-41,16 L-41,14 L-37,14 L-37,13 L-32,13 L-32,11 L-31,11 L-31,12 L-30,12 L-30,11 L-28,11 L-28,10 L-25,10 L-25,9 L-21,9 L-21,8 L-20,8 L-20,7 L-16,7 L-16,6 L-12,6 L-12,4 L-7,4 L-7,3 L-4,3 L-4,1 L0,1 Z "
    transform="translate(1077,401)" style="fill: transparent;" />
  <path
    d="M0,0 L1,0 L1,32 L0,32 L0,34 L-3,34 L-3,35 L-4,35 L-4,36 L-5,36 L-5,37 L-8,37 L-8,39 L-9,39 L-9,38 L-10,38 L-10,40 L-12,40 L-12,41 L-15,41 L-15,43 L-17,43 L-17,44 L-20,44 L-20,46 L-22,46 L-22,47 L-24,47 L-24,49 L-27,49 L-27,50 L-29,50 L-29,52 L-32,52 L-32,53 L-35,53 L-35,55 L-36,55 L-36,56 L-39,56 L-39,58 L-41,58 L-41,59 L-43,59 L-43,60 L-44,60 L-44,61 L-46,61 L-46,62 L-48,62 L-48,64 L-49,64 L-49,63 L-50,63 L-50,64 L-51,64 L-51,65 L-54,65 L-54,67 L-55,67 L-55,68 L-58,68 L-58,69 L-59,69 L-59,70 L-60,70 L-60,71 L-63,71 L-63,72 L-65,72 L-65,74 L-67,74 L-67,75 L-70,75 L-70,77 L-71,77 L-71,78 L-74,78 L-74,80 L-77,80 L-77,81 L-79,81 L-79,83 L-82,83 L-82,84 L-84,84 L-84,86 L-86,86 L-86,87 L-89,87 L-89,89 L-91,89 L-91,90 L-94,90 L-94,92 L-96,92 L-96,93 L-98,93 L-98,95 L-101,95 L-101,96 L-103,96 L-103,97 L-105,97 L-105,99 L-108,99 L-108,100 L-109,100 L-109,101 L-110,101 L-110,102 L-113,102 L-113,104 L-115,104 L-115,105 L-117,105 L-117,106 L-120,106 L-120,108 L-122,108 L-122,109 L-125,109 L-125,111 L-127,111 L-127,112 L-129,112 L-129,114 L-132,114 L-132,115 L-134,115 L-134,117 L-136,117 L-136,118 L-139,118 L-139,120 L-141,120 L-141,121 L-144,121 L-144,123 L-145,123 L-145,124 L-148,124 L-148,126 L-151,126 L-151,127 L-153,127 L-153,129 L-156,129 L-156,130 L-158,130 L-158,131 L-159,131 L-159,132 L-160,132 L-160,133 L-163,133 L-163,135 L-164,135 L-164,136 L-168,136 L-168,137 L-170,137 L-170,139 L-172,139 L-172,140 L-175,140 L-175,142 L-176,142 L-176,143 L-179,143 L-179,145 L-182,145 L-182,146 L-184,146 L-184,148 L-187,148 L-187,149 L-189,149 L-189,151 L-191,151 L-191,152 L-194,152 L-194,154 L-196,154 L-196,155 L-199,155 L-199,157 L-201,157 L-201,158 L-203,158 L-203,160 L-206,160 L-206,161 L-207,161 L-207,162 L-208,162 L-208,163 L-210,163 L-210,164 L-213,164 L-213,165 L-214,165 L-214,166 L-215,166 L-215,167 L-218,167 L-218,169 L-219,169 L-219,170 L-222,170 L-222,171 L-225,171 L-225,173 L-227,173 L-227,174 L-230,174 L-230,176 L-232,176 L-232,177 L-234,177 L-234,179 L-237,179 L-237,180 L-238,180 L-238,182 L-241,182 L-241,183 L-244,183 L-244,185 L-246,185 L-246,186 L-249,186 L-249,188 L-250,188 L-250,189 L-253,189 L-253,191 L-256,191 L-256,192 L-258,192 L-258,194 L-261,194 L-261,195 L-263,195 L-263,196 L-264,196 L-264,197 L-265,197 L-265,198 L-268,198 L-268,200 L-269,200 L-269,201 L-272,201 L-272,202 L-275,202 L-275,204 L-277,204 L-277,205 L-280,205 L-280,207 L-281,207 L-281,208 L-284,208 L-284,210 L-287,210 L-287,211 L-289,211 L-289,213 L-292,213 L-292,214 L-293,214 L-293,216 L-296,216 L-296,217 L-299,217 L-299,219 L-300,219 L-300,220 L-304,220 L-304,222 L-305,222 L-305,223 L-308,223 L-308,225 L-311,225 L-311,226 L-312,226 L-312,227 L-313,227 L-313,228 L-315,228 L-315,229 L-318,229 L-318,230 L-319,230 L-319,231 L-320,231 L-320,232 L-323,232 L-323,234 L-324,234 L-324,235 L-327,235 L-327,236 L-330,236 L-330,238 L-332,238 L-332,239 L-334,239 L-334,241 L-336,241 L-336,242 L-339,242 L-339,244 L-342,244 L-342,245 L-343,245 L-343,247 L-346,247 L-346,248 L-349,248 L-349,250 L-351,250 L-351,251 L-354,251 L-354,253 L-355,253 L-355,254 L-358,254 L-358,256 L-361,256 L-361,257 L-363,257 L-363,259 L-365,259 L-365,260 L-367,260 L-367,262 L-368,262 L-368,261 L-369,261 L-369,262 L-370,262 L-370,263 L-373,263 L-373,265 L-374,265 L-374,266 L-377,266 L-377,267 L-379,267 L-379,269 L-382,269 L-382,270 L-385,270 L-385,272 L-386,272 L-386,273 L-389,273 L-389,275 L-392,275 L-392,276 L-394,276 L-394,278 L-397,278 L-397,279 L-398,279 L-398,281 L-401,281 L-401,282 L-404,282 L-404,284 L-405,284 L-405,285 L-408,285 L-408,287 L-410,287 L-410,288 L-413,288 L-413,290 L-416,290 L-416,291 L-417,291 L-417,293 L-420,293 L-420,294 L-423,294 L-423,296 L-425,296 L-425,297 L-428,297 L-428,299 L-429,299 L-429,300 L-432,300 L-432,302 L-433,302 L-433,301 L-435,301 L-435,303 L-436,303 L-436,304 L-439,304 L-439,306 L-441,306 L-441,307 L-444,307 L-444,309 L-447,309 L-447,310 L-448,310 L-448,312 L-451,312 L-451,313 L-454,313 L-454,314 L-453,314 L-453,315 L-456,315 L-456,316 L-459,316 L-459,318 L-460,318 L-460,319 L-463,319 L-463,321 L-466,321 L-466,322 L-468,322 L-468,324 L-470,324 L-470,325 L-472,325 L-472,327 L-475,327 L-475,328 L-478,328 L-478,330 L-479,330 L-479,331 L-482,331 L-482,332 L-483,332 L-483,330 L-480,330 L-480,329 L-479,329 L-479,327 L-476,327 L-476,326 L-475,326 L-475,324 L-472,324 L-472,323 L-470,323 L-470,321 L-467,321 L-467,320 L-466,320 L-466,318 L-463,318 L-463,317 L-461,317 L-461,315 L-459,315 L-459,314 L-457,314 L-457,312 L-455,312 L-455,311 L-452,311 L-452,309 L-451,309 L-451,308 L-448,308 L-448,306 L-447,306 L-447,305 L-444,305 L-444,304 L-443,304 L-443,303 L-442,303 L-442,302 L-439,302 L-439,301 L-438,301 L-438,299 L-435,299 L-435,298 L-433,298 L-433,296 L-431,296 L-431,295 L-429,295 L-429,293 L-427,293 L-427,292 L-424,292 L-424,290 L-423,290 L-423,289 L-420,289 L-420,287 L-418,287 L-418,286 L-415,286 L-415,284 L-414,284 L-414,283 L-411,283 L-411,281 L-410,281 L-410,280 L-407,280 L-407,278 L-405,278 L-405,277 L-403,277 L-403,276 L-402,276 L-402,275 L-401,275 L-401,274 L-399,274 L-399,272 L-398,272 L-398,273 L-397,273 L-397,272 L-396,272 L-396,271 L-395,271 L-395,270 L-392,270 L-392,268 L-390,268 L-390,267 L-388,267 L-388,266 L-387,266 L-387,265 L-386,265 L-386,264 L-383,264 L-383,262 L-381,262 L-381,261 L-379,261 L-379,259 L-377,259 L-377,258 L-375,258 L-375,256 L-373,256 L-373,255 L-371,255 L-371,253 L-368,253 L-368,252 L-367,252 L-367,250 L-364,250 L-364,249 L-362,249 L-362,247 L-359,247 L-359,246 L-358,246 L-358,244 L-355,244 L-355,243 L-353,243 L-353,241 L-351,241 L-351,240 L-349,240 L-349,238 L-347,238 L-347,237 L-344,237 L-344,235 L-343,235 L-343,234 L-340,234 L-340,232 L-339,232 L-339,231 L-336,231 L-336,230 L-334,230 L-334,228 L-331,228 L-331,227 L-330,227 L-330,225 L-327,225 L-327,224 L-325,224 L-325,222 L-324,222 L-324,221 L-321,221 L-321,219 L-319,219 L-319,218 L-316,218 L-316,216 L-315,216 L-315,215 L-312,215 L-312,213 L-311,213 L-311,212 L-308,212 L-308,211 L-307,211 L-307,210 L-306,210 L-306,209 L-303,209 L-303,207 L-302,207 L-302,206 L-299,206 L-299,205 L-298,205 L-298,204 L-297,204 L-297,203 L-295,203 L-295,202 L-293,202 L-293,200 L-291,200 L-291,199 L-288,199 L-288,197 L-287,197 L-287,196 L-284,196 L-284,194 L-282,194 L-282,193 L-280,193 L-280,192 L-279,192 L-279,191 L-278,191 L-278,190 L-275,190 L-275,188 L-274,188 L-274,187 L-271,187 L-271,185 L-269,185 L-269,184 L-267,184 L-267,182 L-265,182 L-265,181 L-263,181 L-263,179 L-260,179 L-260,178 L-259,178 L-259,176 L-256,176 L-256,175 L-254,175 L-254,173 L-253,173 L-253,174 L-252,174 L-252,172 L-250,172 L-250,170 L-249,170 L-249,171 L-248,171 L-248,170 L-247,170 L-247,169 L-245,169 L-245,168 L-243,168 L-243,166 L-241,166 L-241,164 L-240,164 L-240,165 L-239,165 L-239,163 L-237,163 L-237,162 L-235,162 L-235,160 L-232,160 L-232,159 L-231,159 L-231,157 L-228,157 L-228,156 L-226,156 L-226,154 L-223,154 L-223,153 L-222,153 L-222,151 L-219,151 L-219,150 L-217,150 L-217,148 L-215,148 L-215,147 L-213,147 L-213,145 L-211,145 L-211,144 L-208,144 L-208,142 L-207,142 L-207,141 L-204,141 L-204,139 L-203,139 L-203,138 L-200,138 L-200,137 L-199,137 L-199,136 L-198,136 L-198,135 L-195,135 L-195,134 L-194,134 L-194,132 L-191,132 L-191,131 L-189,131 L-189,129 L-187,129 L-187,128 L-185,128 L-185,126 L-183,126 L-183,125 L-180,125 L-180,123 L-179,123 L-179,122 L-176,122 L-176,120 L-175,120 L-175,119 L-172,119 L-172,117 L-170,117 L-170,116 L-167,116 L-167,114 L-166,114 L-166,113 L-163,113 L-163,111 L-161,111 L-161,110 L-159,110 L-159,109 L-158,109 L-158,108 L-157,108 L-157,107 L-155,107 L-155,106 L-153,106 L-153,105 L-152,105 L-152,104 L-151,104 L-151,103 L-148,103 L-148,101 L-146,101 L-146,100 L-144,100 L-144,98 L-142,98 L-142,97 L-139,97 L-139,95 L-138,95 L-138,94 L-135,94 L-135,92 L-133,92 L-133,91 L-131,91 L-131,89 L-129,89 L-129,88 L-127,88 L-127,86 L-124,86 L-124,85 L-123,85 L-123,83 L-120,83 L-120,82 L-118,82 L-118,80 L-116,80 L-116,79 L-114,79 L-114,77 L-111,77 L-111,76 L-109,76 L-109,74 L-107,74 L-107,73 L-105,73 L-105,71 L-103,71 L-103,70 L-101,70 L-101,69 L-100,69 L-100,68 L-99,68 L-99,67 L-96,67 L-96,65 L-95,65 L-95,64 L-92,64 L-92,63 L-90,63 L-90,61 L-87,61 L-87,60 L-86,60 L-86,58 L-83,58 L-83,57 L-81,57 L-81,55 L-79,55 L-79,54 L-77,54 L-77,52 L-75,52 L-75,51 L-73,51 L-73,50 L-72,50 L-72,49 L-71,49 L-71,48 L-68,48 L-68,46 L-67,46 L-67,45 L-64,45 L-64,43 L-62,43 L-62,42 L-59,42 L-59,40 L-58,40 L-58,39 L-55,39 L-55,38 L-54,38 L-54,37 L-53,37 L-53,36 L-51,36 L-51,35 L-49,35 L-49,33 L-47,33 L-47,32 L-45,32 L-45,30 L-43,30 L-43,29 L-40,29 L-40,27 L-39,27 L-39,26 L-36,26 L-36,24 L-34,24 L-34,23 L-31,23 L-31,21 L-30,21 L-30,20 L-27,20 L-27,18 L-25,18 L-25,17 L-23,17 L-23,15 L-21,15 L-21,14 L-19,14 L-19,12 L-16,12 L-16,11 L-15,11 L-15,9 L-14,9 L-14,10 L-13,10 L-13,9 L-12,9 L-12,8 L-11,8 L-11,7 L-10,7 L-10,6 L-9,6 L-9,7 L-8,7 L-8,5 L-6,5 L-6,3 L-5,3 L-5,4 L-4,4 L-4,3 L-3,3 L-3,2 L-2,2 L-2,1 L0,1 Z "
    transform="translate(1079,205)" style="fill: transparent;" />
  <path
    d="M0,0 L1,0 L1,31 L-1,31 L-1,32 L-2,32 L-2,33 L-5,33 L-5,35 L-6,35 L-6,34 L-8,34 L-8,36 L-12,36 L-12,37 L-15,37 L-15,39 L-18,39 L-18,40 L-21,40 L-21,42 L-25,42 L-25,43 L-29,43 L-29,45 L-32,45 L-32,46 L-36,46 L-36,48 L-39,48 L-39,49 L-42,49 L-42,51 L-45,51 L-45,52 L-49,52 L-49,54 L-52,54 L-52,55 L-55,55 L-55,57 L-58,57 L-58,58 L-63,58 L-63,60 L-65,60 L-65,61 L-69,61 L-69,63 L-70,63 L-70,62 L-71,62 L-71,63 L-72,63 L-72,64 L-76,64 L-76,66 L-77,66 L-77,65 L-78,65 L-78,66 L-79,66 L-79,67 L-82,67 L-82,68 L-85,68 L-85,70 L-89,70 L-89,71 L-92,71 L-92,73 L-95,73 L-95,74 L-98,74 L-98,75 L-99,75 L-99,76 L-102,76 L-102,77 L-105,77 L-105,79 L-108,79 L-108,80 L-112,80 L-112,82 L-116,82 L-116,83 L-119,83 L-119,85 L-122,85 L-122,86 L-125,86 L-125,88 L-129,88 L-129,89 L-132,89 L-132,91 L-135,91 L-135,92 L-138,92 L-138,94 L-142,94 L-142,95 L-145,95 L-145,96 L-148,96 L-148,98 L-151,98 L-151,99 L-154,99 L-154,101 L-158,101 L-158,102 L-161,102 L-161,103 L-162,103 L-162,104 L-165,104 L-165,105 L-167,105 L-167,107 L-171,107 L-171,108 L-175,108 L-175,110 L-178,110 L-178,111 L-181,111 L-181,113 L-184,113 L-184,114 L-187,114 L-187,116 L-191,116 L-191,117 L-194,117 L-194,119 L-197,119 L-197,120 L-200,120 L-200,122 L-203,122 L-203,123 L-207,123 L-207,125 L-210,125 L-210,126 L-213,126 L-213,127 L-214,127 L-214,128 L-216,128 L-216,129 L-219,129 L-219,130 L-222,130 L-222,131 L-223,131 L-223,132 L-227,132 L-227,133 L-229,133 L-229,134 L-230,134 L-230,135 L-233,135 L-233,136 L-235,136 L-235,138 L-238,138 L-238,139 L-242,139 L-242,141 L-246,141 L-246,142 L-249,142 L-249,144 L-252,144 L-252,145 L-255,145 L-255,147 L-258,147 L-258,148 L-261,148 L-261,150 L-265,150 L-265,151 L-268,151 L-268,153 L-271,153 L-271,154 L-274,154 L-274,156 L-277,156 L-277,157 L-280,157 L-280,159 L-283,159 L-283,160 L-287,160 L-287,162 L-288,162 L-288,161 L-289,161 L-289,162 L-290,162 L-290,163 L-293,163 L-293,165 L-294,165 L-294,164 L-296,164 L-296,166 L-299,166 L-299,168 L-300,168 L-300,167 L-302,167 L-302,169 L-306,169 L-306,170 L-309,170 L-309,172 L-312,172 L-312,173 L-315,173 L-315,175 L-318,175 L-318,176 L-321,176 L-321,178 L-324,178 L-324,179 L-328,179 L-328,181 L-331,181 L-331,182 L-335,182 L-335,184 L-337,184 L-337,185 L-340,185 L-340,187 L-343,187 L-343,188 L-347,188 L-347,190 L-350,190 L-350,191 L-354,191 L-354,193 L-357,193 L-357,194 L-360,194 L-360,196 L-361,196 L-361,195 L-362,195 L-362,196 L-363,196 L-363,197 L-366,197 L-366,198 L-368,198 L-368,199 L-369,199 L-369,200 L-373,200 L-373,201 L-375,201 L-375,202 L-376,202 L-376,203 L-379,203 L-379,204 L-382,204 L-382,206 L-385,206 L-385,207 L-388,207 L-388,209 L-391,209 L-391,210 L-395,210 L-395,212 L-398,212 L-398,213 L-401,213 L-401,215 L-404,215 L-404,216 L-407,216 L-407,218 L-410,218 L-410,219 L-414,219 L-414,221 L-417,221 L-417,222 L-420,222 L-420,224 L-423,224 L-423,225 L-426,225 L-426,227 L-429,227 L-429,228 L-433,228 L-433,229 L-435,229 L-435,230 L-436,230 L-436,231 L-439,231 L-439,232 L-442,232 L-442,234 L-445,234 L-445,235 L-448,235 L-448,237 L-452,237 L-452,238 L-455,238 L-455,240 L-459,240 L-459,241 L-462,241 L-462,243 L-464,243 L-464,244 L-468,244 L-468,246 L-471,246 L-471,247 L-475,247 L-475,249 L-478,249 L-478,250 L-481,250 L-481,252 L-484,252 L-484,253 L-487,253 L-487,255 L-490,255 L-490,256 L-494,256 L-494,255 L-491,255 L-491,254 L-488,254 L-488,252 L-485,252 L-485,251 L-482,251 L-482,249 L-479,249 L-479,248 L-476,248 L-476,246 L-474,246 L-474,245 L-471,245 L-471,244 L-470,244 L-470,243 L-469,243 L-469,242 L-466,242 L-466,241 L-463,241 L-463,239 L-460,239 L-460,238 L-457,238 L-457,236 L-454,236 L-454,235 L-451,235 L-451,233 L-448,233 L-448,232 L-445,232 L-445,230 L-442,230 L-442,229 L-439,229 L-439,227 L-436,227 L-436,226 L-434,226 L-434,224 L-432,224 L-432,223 L-429,223 L-429,221 L-426,221 L-426,220 L-423,220 L-423,218 L-420,218 L-420,217 L-417,217 L-417,215 L-414,215 L-414,214 L-411,214 L-411,212 L-408,212 L-408,211 L-405,211 L-405,209 L-402,209 L-402,208 L-399,208 L-399,206 L-398,206 L-398,207 L-397,207 L-397,206 L-396,206 L-396,205 L-393,205 L-393,204 L-392,204 L-392,202 L-389,202 L-389,201 L-386,201 L-386,199 L-383,199 L-383,198 L-380,198 L-380,196 L-377,196 L-377,195 L-374,195 L-374,193 L-371,193 L-371,192 L-368,192 L-368,190 L-365,190 L-365,189 L-362,189 L-362,187 L-359,187 L-359,186 L-356,186 L-356,184 L-354,184 L-354,183 L-351,183 L-351,181 L-349,181 L-349,180 L-346,180 L-346,178 L-343,178 L-343,177 L-340,177 L-340,175 L-339,175 L-339,176 L-338,176 L-338,175 L-337,175 L-337,174 L-334,174 L-334,172 L-333,172 L-333,173 L-332,173 L-332,172 L-331,172 L-331,171 L-328,171 L-328,170 L-326,170 L-326,169 L-325,169 L-325,168 L-322,168 L-322,167 L-320,167 L-320,166 L-319,166 L-319,165 L-317,165 L-317,164 L-314,164 L-314,162 L-311,162 L-311,161 L-309,161 L-309,159 L-306,159 L-306,158 L-303,158 L-303,156 L-300,156 L-300,155 L-297,155 L-297,153 L-294,153 L-294,152 L-291,152 L-291,150 L-288,150 L-288,149 L-285,149 L-285,147 L-283,147 L-283,146 L-279,146 L-279,144 L-277,144 L-277,143 L-274,143 L-274,142 L-273,142 L-273,141 L-271,141 L-271,140 L-269,140 L-269,139 L-267,139 L-267,138 L-266,138 L-266,137 L-263,137 L-263,136 L-260,136 L-260,134 L-257,134 L-257,133 L-254,133 L-254,131 L-251,131 L-251,130 L-249,130 L-249,129 L-248,129 L-248,128 L-246,128 L-246,127 L-243,127 L-243,125 L-240,125 L-240,124 L-237,124 L-237,122 L-234,122 L-234,121 L-231,121 L-231,119 L-229,119 L-229,118 L-226,118 L-226,116 L-223,116 L-223,115 L-220,115 L-220,113 L-218,113 L-218,112 L-214,112 L-214,110 L-212,110 L-212,109 L-209,109 L-209,108 L-208,108 L-208,107 L-207,107 L-207,108 L-206,108 L-206,106 L-203,106 L-203,105 L-200,105 L-200,103 L-197,103 L-197,102 L-194,102 L-194,100 L-191,100 L-191,99 L-189,99 L-189,97 L-186,97 L-186,96 L-183,96 L-183,94 L-181,94 L-181,93 L-178,93 L-178,91 L-175,91 L-175,90 L-172,90 L-172,88 L-169,88 L-169,87 L-166,87 L-166,85 L-163,85 L-163,84 L-160,84 L-160,82 L-157,82 L-157,81 L-154,81 L-154,79 L-151,79 L-151,78 L-148,78 L-148,76 L-146,76 L-146,75 L-143,75 L-143,74 L-141,74 L-141,72 L-138,72 L-138,71 L-135,71 L-135,69 L-132,69 L-132,68 L-129,68 L-129,66 L-126,66 L-126,65 L-123,65 L-123,63 L-120,63 L-120,62 L-117,62 L-117,60 L-114,60 L-114,59 L-111,59 L-111,57 L-109,57 L-109,56 L-106,56 L-106,54 L-104,54 L-104,53 L-101,53 L-101,51 L-98,51 L-98,50 L-95,50 L-95,48 L-92,48 L-92,47 L-89,47 L-89,45 L-86,45 L-86,44 L-83,44 L-83,42 L-82,42 L-82,43 L-81,43 L-81,42 L-80,42 L-80,41 L-77,41 L-77,39 L-76,39 L-76,40 L-75,40 L-75,39 L-74,39 L-74,38 L-71,38 L-71,36 L-70,36 L-70,37 L-69,37 L-69,35 L-66,35 L-66,34 L-64,34 L-64,32 L-61,32 L-61,31 L-58,31 L-58,29 L-55,29 L-55,28 L-52,28 L-52,26 L-49,26 L-49,25 L-46,25 L-46,23 L-43,23 L-43,22 L-40,22 L-40,20 L-37,20 L-37,19 L-34,19 L-34,17 L-31,17 L-31,16 L-28,16 L-28,14 L-26,14 L-26,13 L-23,13 L-23,11 L-21,11 L-21,10 L-18,10 L-18,8 L-17,8 L-17,9 L-16,9 L-16,8 L-15,8 L-15,7 L-12,7 L-12,5 L-11,5 L-11,6 L-9,6 L-9,4 L-6,4 L-6,3 L-3,3 L-3,1 L0,1 Z "
    transform="translate(1079,305)" style="fill: transparent;" />
  <path
    d="M0,0 L1,0 L1,3 L0,3 L0,6 L-2,6 L-2,9 L-3,9 L-3,12 L-5,12 L-5,15 L-6,15 L-6,18 L-8,18 L-8,21 L-9,21 L-9,23 L-11,23 L-11,26 L-12,26 L-12,29 L-14,29 L-14,31 L-15,31 L-15,34 L-16,34 L-16,35 L-17,35 L-17,36 L-16,36 L-16,37 L-18,37 L-18,40 L-19,40 L-19,41 L-20,41 L-20,42 L-19,42 L-19,43 L-21,43 L-21,46 L-22,46 L-22,49 L-24,49 L-24,52 L-25,52 L-25,55 L-27,55 L-27,58 L-28,58 L-28,60 L-30,60 L-30,63 L-31,63 L-31,65 L-33,65 L-33,68 L-34,68 L-34,71 L-36,71 L-36,74 L-37,74 L-37,77 L-39,77 L-39,80 L-40,80 L-40,83 L-42,83 L-42,86 L-43,86 L-43,89 L-45,89 L-45,91 L-46,91 L-46,94 L-48,94 L-48,97 L-49,97 L-49,100 L-51,100 L-51,101 L-50,101 L-50,102 L-52,102 L-52,105 L-53,105 L-53,108 L-55,108 L-55,111 L-56,111 L-56,114 L-58,114 L-58,117 L-59,117 L-59,120 L-61,120 L-61,123 L-62,123 L-62,126 L-63,126 L-63,125 L-64,125 L-64,128 L-65,128 L-65,131 L-67,131 L-67,134 L-68,134 L-68,136 L-70,136 L-70,139 L-71,139 L-71,142 L-73,142 L-73,145 L-74,145 L-74,148 L-76,148 L-76,151 L-77,151 L-77,154 L-79,154 L-79,157 L-80,157 L-80,160 L-82,160 L-82,162 L-83,162 L-83,165 L-84,165 L-84,167 L-86,167 L-86,170 L-87,170 L-87,172 L-105,172 L-105,171 L-103,171 L-103,168 L-102,168 L-102,165 L-100,165 L-100,163 L-99,163 L-99,160 L-97,160 L-97,158 L-96,158 L-96,156 L-94,156 L-94,153 L-93,153 L-93,151 L-91,151 L-91,148 L-90,148 L-90,146 L-88,146 L-88,144 L-87,144 L-87,141 L-85,141 L-85,139 L-84,139 L-84,137 L-82,137 L-82,134 L-81,134 L-81,132 L-79,132 L-79,129 L-78,129 L-78,126 L-77,126 L-77,125 L-75,125 L-75,122 L-74,122 L-74,121 L-73,121 L-73,120 L-72,120 L-72,117 L-71,117 L-71,115 L-69,115 L-69,113 L-68,113 L-68,110 L-66,110 L-66,107 L-65,107 L-65,106 L-63,106 L-63,103 L-62,103 L-62,101 L-60,101 L-60,98 L-59,98 L-59,95 L-57,95 L-57,94 L-56,94 L-56,91 L-54,91 L-54,88 L-53,88 L-53,86 L-51,86 L-51,83 L-50,83 L-50,82 L-49,82 L-49,81 L-48,81 L-48,79 L-47,79 L-47,76 L-46,76 L-46,75 L-44,75 L-44,72 L-43,72 L-43,71 L-42,71 L-42,69 L-41,69 L-41,67 L-40,67 L-40,64 L-38,64 L-38,63 L-37,63 L-37,60 L-35,60 L-35,57 L-34,57 L-34,56 L-33,56 L-33,55 L-32,55 L-32,52 L-31,52 L-31,51 L-29,51 L-29,48 L-28,48 L-28,45 L-26,45 L-26,43 L-25,43 L-25,41 L-23,41 L-23,38 L-22,38 L-22,36 L-20,36 L-20,33 L-19,33 L-19,31 L-17,31 L-17,30 L-18,30 L-18,29 L-16,29 L-16,26 L-14,26 L-14,24 L-13,24 L-13,21 L-11,21 L-11,19 L-10,19 L-10,17 L-9,17 L-9,16 L-8,16 L-8,15 L-9,15 L-9,14 L-7,14 L-7,12 L-6,12 L-6,10 L-4,10 L-4,7 L-3,7 L-3,5 L-1,5 L-1,2 L0,2 Z "
    transform="translate(254,651)" style="fill: transparent;" />
  <path
    d="M0,0 L2,0 L2,1 L3,1 L3,2 L4,2 L4,5 L5,5 L5,6 L6,6 L6,7 L7,7 L7,10 L8,10 L8,12 L10,12 L10,14 L11,14 L11,17 L13,17 L13,20 L14,20 L14,22 L16,22 L16,24 L17,24 L17,27 L19,27 L19,30 L20,30 L20,32 L22,32 L22,35 L23,35 L23,38 L25,38 L25,40 L26,40 L26,42 L28,42 L28,45 L29,45 L29,48 L31,48 L31,49 L32,49 L32,52 L33,52 L33,53 L34,53 L34,55 L35,55 L35,57 L37,57 L37,58 L36,58 L36,59 L37,59 L37,60 L38,60 L38,63 L40,63 L40,65 L41,65 L41,67 L42,67 L42,70 L44,70 L44,73 L45,73 L45,74 L46,74 L46,75 L47,75 L47,78 L48,78 L48,80 L50,80 L50,82 L51,82 L51,85 L53,85 L53,88 L54,88 L54,89 L56,89 L56,92 L57,92 L57,95 L59,95 L59,97 L60,97 L60,100 L62,100 L62,103 L63,103 L63,104 L65,104 L65,107 L66,107 L66,110 L68,110 L68,112 L69,112 L69,115 L71,115 L71,116 L70,116 L70,117 L72,117 L72,119 L73,119 L73,122 L75,122 L75,125 L77,125 L77,126 L78,126 L78,129 L79,129 L79,132 L77,132 L77,130 L75,130 L75,129 L76,129 L76,128 L74,128 L74,126 L72,126 L72,125 L71,125 L71,122 L70,122 L70,120 L68,120 L68,118 L67,118 L67,116 L65,116 L65,114 L64,114 L64,111 L62,111 L62,110 L61,110 L61,108 L59,108 L59,105 L58,105 L58,104 L56,104 L56,102 L55,102 L55,99 L53,99 L53,98 L52,98 L52,95 L50,95 L50,94 L49,94 L49,92 L47,92 L47,91 L48,91 L48,90 L47,90 L47,89 L46,89 L46,88 L45,88 L45,87 L44,87 L44,85 L43,85 L43,83 L41,83 L41,82 L40,82 L40,79 L39,79 L39,77 L37,77 L37,75 L36,75 L36,73 L34,73 L34,71 L33,71 L33,68 L31,68 L31,67 L30,67 L30,65 L28,65 L28,62 L27,62 L27,61 L25,61 L25,59 L24,59 L24,56 L22,56 L22,55 L21,55 L21,52 L19,52 L19,51 L18,51 L18,49 L16,49 L16,46 L15,46 L15,45 L14,45 L14,43 L13,43 L13,42 L12,42 L12,40 L10,40 L10,39 L9,39 L9,36 L8,36 L8,35 L7,35 L7,34 L6,34 L6,32 L5,32 L5,30 L3,30 L3,28 L2,28 L2,26 L0,26 L0,24 L-1,24 L-1,22 L-3,22 L-3,20 L-4,20 L-4,18 L-6,18 L-6,16 L-7,16 L-7,14 L-6,14 L-6,11 L-4,11 L-4,8 L-3,8 L-3,5 L-1,5 L-1,2 L0,2 Z "
    transform="translate(498,255)" style="fill: transparent;" />
  <path
    d="M0,0 L5,0 L5,1 L6,1 L6,4 L8,4 L8,7 L9,7 L9,8 L-40,8 L-40,10 L-134,10 L-134,11 L-170,11 L-170,10 L-146,10 L-146,9 L-121,9 L-121,7 L-97,7 L-97,6 L-72,6 L-72,4 L-48,4 L-48,3 L-23,3 L-23,2 L-22,2 L-22,1 L0,1 Z "
    transform="translate(837,813)" style="fill: transparent;" />
</svg>